<?xml version="1.0" standalone="no"?><!DOCTYPE svg PUBLIC "-//W3C//DTD SVG 1.1//EN" "http://www.w3.org/Graphics/SVG/1.1/DTD/svg11.dtd"><svg t="1694483052029" class="icon" viewBox="0 0 1024 1024" version="1.1" xmlns="http://www.w3.org/2000/svg" p-id="4199" xmlns:xlink="http://www.w3.org/1999/xlink" width="200" height="200"><path d="M937.443401 1024h-182.224419a87.062778 87.062778 0 0 1-87.062778-87.062778v-182.224419a86.556599 86.556599 0 0 1 7.086505-34.420168H546.673258v-121.482946H485.931784V485.931784h182.22442v-8.605042H477.326742v60.741474H354.32526V658.032625H242.965892v-121.482946H182.224419V477.326742H112.877904v60.741474H0V425.190311h60.741473V364.448838h173.619377v60.741473h8.605042V364.448838H354.32526v60.741473h70.865051V364.448838h60.741473V295.102323H425.190311V121.482946h60.741473v-8.605042H364.448838V0h234.360851v60.741473H658.032625v112.877904h-60.741473v60.741473h-60.741473v8.605042h60.741473v121.482946h182.224419v121.482946h70.865052V364.448838H961.73999v121.482946h60.741473v112.877905H911.122096v-60.741473h-8.605042v60.741473H658.032625V607.414731h60.741473v67.827978a86.556599 86.556599 0 0 1 34.420168-7.086505h182.224419a87.062778 87.062778 0 0 1 87.062778 87.062778v182.224419a87.062778 87.062778 0 0 1-85.038062 86.556599zM755.218982 708.650519a50.617894 50.617894 0 0 0-50.617895 50.617894v182.224419a50.617894 50.617894 0 0 0 50.617895 50.617895h182.224419a50.617894 50.617894 0 0 0 50.617894-50.617895V759.268413a50.617894 50.617894 0 0 0-50.617894-50.617894z m-170.582304-23.79041h97.692536v-36.951063h-60.741473v-87.062778h242.965892v-36.951063h-121.482946V404.943154h-182.224419V280.929313h-36.951063V404.943154h-60.741473v36.951063H708.650519v84.531883h-182.224419v36.951063h60.741473z m-303.707365-60.741473h36.951063V500.104795h121.482946v-36.951063h-121.482946V404.943154h-36.951063v60.741473h-60.741473v36.951063h60.741473z m668.156204-60.741473h36.951062v-36.951063h-36.951062z m-60.741474-60.741473h36.951063V404.943154h-36.951063z m-850.380622 0h36.951062v-39.481958H37.963421zM101.235788 439.363322h95.161642V404.943154H101.235788z m364.448839-182.224419h36.951063v-60.741473h60.741473v-60.741473h60.741473V101.235788h-60.741473V37.963421H404.943154v36.951062h121.482946v84.531884H463.153732z m135.655956 766.861097H485.931784V961.73999H364.448838v-111.359367h60.741473v-8.605042H364.448838V607.414731h112.877904v121.482946H658.032625v112.877904h-121.482946V911.122096h8.605042v-60.741473H658.032625V961.73999h-60.741473z m-74.914483-37.963421h36.951063v-36.951062h-36.951063z m60.741473-60.741473h36.951063v-36.951063h-36.951063z m-182.224419 0h95.161641v-121.482946h121.482946v-36.951063h-182.224419v-121.482946H404.943154v158.434009h60.741473v84.531883H404.943154z m-135.655957 98.704894h-182.224419A87.062778 87.062778 0 0 1 0 937.443401v-182.224419a87.062778 87.062778 0 0 1 87.062778-87.062778h182.224419A87.062778 87.062778 0 0 1 354.32526 755.218982v182.224419a87.062778 87.062778 0 0 1-85.038063 86.556599zM87.062778 708.650519a50.617894 50.617894 0 0 0-50.617894 50.617894v182.224419a50.617894 50.617894 0 0 0 50.617894 50.617895h182.224419a50.617894 50.617894 0 0 0 50.617894-50.617895V759.268413a50.617894 50.617894 0 0 0-50.617894-50.617894z m860.504202 242.965892h-204.496293v-208.545724h206.01483z m-166.532872-40.494315H911.122096v-130.087988h-130.087988z m-500.104795 37.963421H74.914483v-206.01483h206.01483zM112.877904 911.122096H242.965892v-130.087988H112.877904z m789.63915-8.605042H789.63915V789.63915h112.877904z m-74.914484-37.963421h36.951063v-36.951063h-36.951063z m-593.24172 37.963421H121.482946V789.63915h112.877904z m-74.914483-37.963421h36.951063v-36.951063h-36.951063z m-46.568463-202.471577H0V546.673258h112.877904z m-74.914483-40.494315h36.951062v-36.951063H37.963421zM937.443401 354.32526h-182.224419a87.062778 87.062778 0 0 1-87.062778-85.038063v-182.224419A87.062778 87.062778 0 0 1 755.218982 0h182.224419a87.062778 87.062778 0 0 1 87.062778 87.062778v182.224419A87.062778 87.062778 0 0 1 937.443401 354.32526zM755.218982 37.963421a50.617894 50.617894 0 0 0-50.617895 50.617894v182.224419a50.617894 50.617894 0 0 0 50.617895 50.617894h182.224419a50.617894 50.617894 0 0 0 50.617894-50.617894V87.062778a50.617894 50.617894 0 0 0-50.617894-50.617894zM269.287197 354.32526h-182.224419A87.062778 87.062778 0 0 1 0 269.287197v-182.224419A87.062778 87.062778 0 0 1 87.062778 0h182.224419A87.062778 87.062778 0 0 1 354.32526 87.062778v182.224419A87.062778 87.062778 0 0 1 269.287197 354.32526zM87.062778 37.963421a50.617894 50.617894 0 0 0-50.617894 50.617894v182.224419a50.617894 50.617894 0 0 0 50.617894 50.617894h182.224419a50.617894 50.617894 0 0 0 50.617894-50.617894V87.062778a50.617894 50.617894 0 0 0-50.617894-50.617894z m860.504202 242.965892h-204.496293V74.914483h206.01483z m-166.532872-37.963421H911.122096V112.877904h-130.087988z m-500.104795 37.963421H74.914483V74.914483h206.01483zM112.877904 242.965892H242.965892V112.877904H112.877904z m789.63915-8.605042H789.63915V121.482946h112.877904z m-74.914484-37.96342h36.951063v-36.951063h-36.951063z m-593.24172 37.96342H121.482946V121.482946h112.877904z m-74.914483-37.96342h36.951063v-36.951063h-36.951063z" fill="#bc9976" p-id="4200"></path></svg>