<?xml version="1.0" standalone="no"?><!DOCTYPE svg PUBLIC "-//W3C//DTD SVG 1.1//EN" "http://www.w3.org/Graphics/SVG/1.1/DTD/svg11.dtd"><svg t="1696223303236" class="icon" viewBox="0 0 1042 1024" version="1.1" xmlns="http://www.w3.org/2000/svg" p-id="14206" xmlns:xlink="http://www.w3.org/1999/xlink" width="203.515625" height="200"><path d="M930.909091 577.163636a37.236364 37.236364 0 0 1 37.143273 34.443637L968.145455 614.4v335.127273a74.472727 74.472727 0 0 1-74.472728 74.472727H521.309091a74.472727 74.472727 0 0 1-74.472727-74.472727V614.4l0.093091-2.792727a37.236364 37.236364 0 0 1 74.286545 0L521.309091 614.4v297.890909a37.236364 37.236364 0 0 0 34.443636 37.143273L558.545455 949.527273h297.890909a37.236364 37.236364 0 0 0 37.143272-34.443637L893.672727 912.290909V614.4l0.093091-2.792727A37.236364 37.236364 0 0 1 930.909091 577.163636zM330.5472 0A111.709091 111.709091 0 0 1 407.738182 30.980655l3.798109 3.816727 87.728873 92.420654a74.472727 74.472727 0 0 0 49.654691 23.067928l4.356654 0.130327H893.672727a111.709091 111.709091 0 0 1 111.634618 107.52l0.074473 4.189091V279.272727a37.236364 37.236364 0 0 1-74.379636 2.792728L930.909091 279.272727h-0.055855l-0.037236-1.824582A55.854545 55.854545 0 0 0 875.054545 224.907636H524.678982a55.854545 55.854545 0 0 1-38.074182-15.006254l-129.210182-120.4224A55.854545 55.854545 0 0 0 319.301818 74.472727H130.327273a55.854545 55.854545 0 0 0-55.854546 55.854546v707.490909a55.854545 55.854545 0 0 0 55.854546 55.854545h186.181818a37.236364 37.236364 0 0 1 2.792727 74.379637L316.509091 968.145455H111.709091a111.709091 111.709091 0 0 1-111.634618-107.52L0 856.436364V111.709091A111.709091 111.709091 0 0 1 107.52 0.074473L111.709091 0h218.838109zM633.018182 577.163636a37.236364 37.236364 0 0 1 37.236363 37.236364v260.654545a37.236364 37.236364 0 0 1-74.472727 0V614.4a37.236364 37.236364 0 0 1 37.236364-37.236364z m148.945454 0a37.236364 37.236364 0 0 1 37.236364 37.236364v260.654545a37.236364 37.236364 0 0 1-74.472727 0V614.4a37.236364 37.236364 0 0 1 37.236363-37.236364z m0-279.272727a74.472727 74.472727 0 0 1 74.472728 74.472727v74.472728h148.945454a37.236364 37.236364 0 0 1 0 74.472727H409.6a37.236364 37.236364 0 0 1 0-74.472727h148.945455v-74.472728a74.472727 74.472727 0 0 1 74.472727-74.472727h148.945454z m-37.236363 74.472727h-74.472728a37.236364 37.236364 0 0 0-37.143272 34.443637L633.018182 409.6v37.236364h148.945454v-37.236364a37.236364 37.236364 0 0 0-37.236363-37.236364z" fill="#fabe05" p-id="14207"></path></svg>