<?xml version="1.0" standalone="no"?><!DOCTYPE svg PUBLIC "-//W3C//DTD SVG 1.1//EN" "http://www.w3.org/Graphics/SVG/1.1/DTD/svg11.dtd"><svg t="1694504870156" class="icon" viewBox="0 0 1024 1024" version="1.1" xmlns="http://www.w3.org/2000/svg" p-id="22773" xmlns:xlink="http://www.w3.org/1999/xlink" width="200" height="200"><path d="M928 744.736a23.264 23.264 0 0 1-23.264 23.264H375.264a23.264 23.264 0 0 1-23.264-23.264V407.264c0-12.864 10.4-23.264 23.264-23.264h529.472c12.864 0 23.264 10.4 23.264 23.264v337.472z" fill="#bc9976" p-id="22774"></path><path d="M260.672 132.672l-96 96a16 16 0 1 0 22.656 22.656l96-96a16 16 0 1 0-22.656-22.656z" fill="#bc9976" p-id="22775"></path><path d="M964.768 765.536c-1.28-3.648-3.2-7.424-5.76-11.072 0.576-3.2 0.992-6.4 0.992-9.728V407.264c0-30.496-24.768-55.264-55.264-55.264H704V87.264C704 56.768 679.232 32 648.736 32H119.264C88.768 32 64 56.768 64 87.264v337.472c0 3.264 0.416 6.432 0.96 9.536a44.192 44.192 0 0 0-5.568 10.816L3.04 599.136a54.4 54.4 0 0 0 7.04 49.28c10.496 14.784 27.68 23.584 46.016 23.584H320v72.736c0 3.296 0.416 6.496 0.96 9.6a45.12 45.12 0 0 0-5.568 10.752l-56.352 154.048a54.4 54.4 0 0 0 7.04 49.28c10.496 14.784 27.68 23.584 46.016 23.584h655.808c19.264 0 36.832-8.544 46.976-22.816 9.472-13.312 11.68-30.144 6.016-46.432l-56.128-157.216z m-44.8 32.064l0.128 2.4a14.496 14.496 0 0 1-4.032-1.184c1.344-0.288 2.592-0.832 3.904-1.216zM896 416v320H384V416h512z m-576 96H176a16 16 0 1 0 0 32H320v64H67.936l46.816-128H320v32z m0-104.736V416H128V96h512v256h-264.736c-30.496 0-55.264 24.768-55.264 55.264zM323.936 928l46.816-128H909.12l45.664 128H323.936z" fill="#bc9976" p-id="22776"></path><path d="M848 832h-416a16 16 0 1 0 0 32h416a16 16 0 1 0 0-32zM432 576a15.936 15.936 0 0 0 11.328-4.672l96-96a16 16 0 1 0-22.656-22.656l-96 96A16 16 0 0 0 432 576z" fill="#bc9976" p-id="22777"></path></svg>