<?xml version="1.0" standalone="no"?><!DOCTYPE svg PUBLIC "-//W3C//DTD SVG 1.1//EN" "http://www.w3.org/Graphics/SVG/1.1/DTD/svg11.dtd"><svg t="1694483206069" class="icon" viewBox="0 0 1658 1024" version="1.1" xmlns="http://www.w3.org/2000/svg" p-id="16195" xmlns:xlink="http://www.w3.org/1999/xlink" width="323.828125" height="200"><path d="M1372.527 717.664v-569.531h-1075.764l-0.016 569.531h1075.781zM265.105 148.093c0.022-17.459 14.18-31.601 31.641-31.601 0.007 0 0.010 0 0.018 0h1075.748c0.017 0 0.036 0 0.055 0 17.452 0 31.601 14.148 31.601 31.601 0 0 0 0 0 0v601.211h-1139.063v-601.211z" fill="#bc9976" p-id="16196"></path><path d="M802.996 227.234c0 17.474 14.166 31.641 31.641 31.641s31.641-14.167 31.641-31.641c0 0 0 0 0 0 0-17.474-14.167-31.641-31.641-31.641-17.474 0-31.641 14.167-31.641 31.641 0 0 0 0 0 0z" fill="#bc9976" p-id="16197"></path><path d="M233.465 875.899c0-0.032 1202.304-0.032 1202.304-0.032 0.032 0 0.039-63.313 0.039-63.313 0 0.032-1202.304 0.032-1202.304 0.032-0.039 0-0.039 63.313-0.039 63.313zM201.824 812.554c0.019-17.461 14.178-31.609 31.641-31.609 0.014 0 0.028 0 0.042 0h1202.263c0.011 0 0.025 0 0.039 0 17.463 0 31.622 14.148 31.641 31.607v63.346c-0.019 17.461-14.178 31.609-31.641 31.609-0.014 0-0.028 0-0.042 0h-1202.263c-0.011 0-0.025 0-0.039 0-17.463 0-31.622-14.148-31.641-31.607v-63.346z" fill="#bc9976" p-id="16198"></path><path d="M708.074 828.406h253.125v31.641h-253.125v-31.641z" fill="#bc9976" p-id="16199"></path></svg>