<?xml version="1.0" standalone="no"?><!DOCTYPE svg PUBLIC "-//W3C//DTD SVG 1.1//EN" "http://www.w3.org/Graphics/SVG/1.1/DTD/svg11.dtd"><svg t="1695006447129" class="icon" viewBox="0 0 1024 1024" version="1.1" xmlns="http://www.w3.org/2000/svg" p-id="1142" id="mx_n_1695006447130" xmlns:xlink="http://www.w3.org/1999/xlink" width="200" height="200"><path d="M369.0496 460.3392H184.32a81.92 81.92 0 0 1-81.92-81.92v-184.832a81.92 81.92 0 0 1 81.92-81.92h184.7296a81.92 81.92 0 0 1 81.92 81.92v184.832a81.92 81.92 0 0 1-81.92 81.92zM184.32 173.1072a20.48 20.48 0 0 0-20.48 20.48v184.832a20.48 20.48 0 0 0 20.48 20.48h184.7296a20.48 20.48 0 0 0 20.48-20.48v-184.832a20.48 20.48 0 0 0-20.48-20.48zM369.0496 914.688H184.32a81.92 81.92 0 0 1-81.92-81.92v-184.8832a81.92 81.92 0 0 1 81.92-81.92h184.7296a81.92 81.92 0 0 1 81.92 81.92v184.8832a81.92 81.92 0 0 1-81.92 81.92zM184.32 627.4048a20.48 20.48 0 0 0-20.48 20.48v184.8832a20.48 20.48 0 0 0 20.48 20.48h184.7296a20.48 20.48 0 0 0 20.48-20.48v-184.8832a20.48 20.48 0 0 0-20.48-20.48zM827.904 914.688h-184.8832a81.92 81.92 0 0 1-81.92-81.92v-184.8832a81.92 81.92 0 0 1 81.92-81.92h184.8832a81.92 81.92 0 0 1 81.92 81.92v184.8832a81.92 81.92 0 0 1-81.92 81.92z m-184.8832-287.2832a20.48 20.48 0 0 0-20.48 20.48v184.8832a20.48 20.48 0 0 0 20.48 20.48h184.8832a20.48 20.48 0 0 0 20.48-20.48v-184.8832a20.48 20.48 0 0 0-20.48-20.48z" fill="#fabe05" p-id="1143"></path><path d="M527.230586 280.884442m36.203867-36.203867l130.732164-130.732164q36.203867-36.203867 72.407735 0l130.732164 130.732164q36.203867 36.203867 0 72.407735l-130.732164 130.732164q-36.203867 36.203867-72.407735 0l-130.732164-130.732164q-36.203867-36.203867 0-72.407735Z" fill="#fabe05" p-id="1144"></path><path d="M730.3168 493.4656a81.92 81.92 0 0 1-57.9072-23.9104L541.696 338.7904a81.92 81.92 0 0 1 0-115.8144L672.4096 92.16A81.92 81.92 0 0 1 788.48 92.16l130.7648 130.7136a81.92 81.92 0 0 1 0 115.8144L788.48 469.5552a81.92 81.92 0 0 1-58.1632 23.9104z m0-363.52a20.48 20.48 0 0 0-14.4896 5.9904L585.1136 266.24a20.48 20.48 0 0 0 0 28.9792l130.7136 130.7136a20.48 20.48 0 0 0 28.9792 0L875.52 295.3728a20.48 20.48 0 0 0 0-29.1328l-130.7136-130.56a20.48 20.48 0 0 0-14.4896-5.9904z" fill="#fabe05" p-id="1145"></path></svg>