<?xml version="1.0" standalone="no"?><!DOCTYPE svg PUBLIC "-//W3C//DTD SVG 1.1//EN" "http://www.w3.org/Graphics/SVG/1.1/DTD/svg11.dtd"><svg t="1695775189925" class="icon" viewBox="0 0 1024 1024" version="1.1" xmlns="http://www.w3.org/2000/svg" p-id="6109" xmlns:xlink="http://www.w3.org/1999/xlink" width="200" height="200"><path d="M254.353122 399.449085c6.621646-9.591147 10.751642-22.049398 10.751641-35.804673 0-30.172861-19.284691-54.679777-43.108963-54.679777-23.79014 0-43.108963 24.472784-43.108963 54.679777 0 24.984767 13.277424 45.805406 31.299223 52.358788-6.655778 20.820639-78.162728 223.907203-42.870037 295.653078 35.326822 71.745875 299.987867 41.299957 319.78454 8.942635-15.188827-57.751675-217.831672-229.163561-232.781574-321.149828z m515.225492 0a63.144562 63.144562 0 0 1-10.785774-35.804673c0-30.172861 19.318823-54.679777 43.108963-54.679777 23.824273 0 43.143095 24.472784 43.143096 54.679777 0 24.984767-13.311556 45.805406-31.333356 52.358788 6.655778 20.820639 78.162728 223.907203 42.870038 295.653078-35.326822 71.745875-299.953735 41.299957-319.784541 8.942635 15.188827-57.751675 217.831672-229.163561 232.781574-321.149828z" fill="#FFAC33" p-id="6110"></path><path d="M938.635379 1023.965868v-28.432119a170.660978 170.660978 0 0 0-170.660978-170.660978h-511.982934a170.660978 170.660978 0 0 0-170.660978 170.660978V1023.965868h853.30489z m-177.760475-442.694577c33.790874 5.870738 74.476451 3.652145 68.70811 26.042865-13.652878 52.734242-74.066864 33.210626-84.71611 33.790874-10.683377 0.580247 16.008-59.867871 16.008-59.867871z" fill="#66757F" p-id="6111"></path><path d="M769.749275 587.210293c53.31449 7.133629 72.257858 11.843872 33.142362 27.271624-21.947002 8.669578-63.793074 136.597047-94.750975 117.107563-30.889637-19.455351 61.608613-144.379187 61.608613-144.379187z" fill="#292F33" p-id="6112"></path><path d="M263.227492 581.271291c-33.790874 5.870738-74.476451 3.652145-68.708109 26.042865 13.652878 52.734242 74.066864 33.210626 84.750241 33.790874 10.649245 0.580247-16.042132-59.867871-16.042132-59.867871z" fill="#66757F" p-id="6113"></path><path d="M254.353122 587.210293c-53.31449 7.133629-72.257858 11.843872-33.142362 27.271624 21.947002 8.669578 63.793074 136.597047 94.750975 117.107563 30.923769-19.455351-61.608613-144.379187-61.608613-144.379187z" fill="#292F33" p-id="6114"></path><path d="M511.982934 796.40652c157.076364 0 284.423586-159.158428 284.423586-355.52095S669.09343 85.330489 511.982934 85.330489c-157.076364 0-284.423586 159.19256-284.423586 355.555081S354.872438 796.40652 511.982934 796.40652z" fill="#FFDC5D" p-id="6115"></path><path d="M540.415053 583.080297c0 7.850405-6.348588 14.233126-14.198994 14.233126h-28.466251a14.233126 14.233126 0 0 1 0-28.432119h28.466251c7.850405 0 14.198993 6.348588 14.198994 14.198993z" fill="#C1694F" p-id="6116"></path><path d="M217.763408 420.611046c4.232392 4.19826 25.257825 16.827172 29.490217 29.421953 4.232392 12.628912 12.663045 84.033466 37.920869 105.024766 26.042865 21.708076 124.309456 13.618746 143.116296 4.266524 42.119129-20.9913 47.273091-79.59628 54.748042-109.29129 4.19826-16.79304 29.456085-16.79304 29.456085-16.79304s25.257825 0 29.456085 16.79304c7.474951 29.69501 12.628912 88.29999 54.748041 109.223026 18.80684 9.420486 117.073431 17.475684 143.184561-4.164128 25.223693-21.025432 33.654345-92.429986 37.852605-105.058898 4.129996-12.628912 25.257825-25.18956 29.421952-29.421953 4.232392-4.19826 4.232392-21.025432 0-25.223692-8.39652-8.39652-107.721209-15.905603-214.69151-4.19826-21.332622 2.320989-29.421953 8.39652-79.971734 8.39652-50.515649 0-58.639112-6.109663-79.971734-8.39652-106.936169-11.707343-206.29499-4.19826-214.691511 4.19826-4.232392 4.19826-4.232392 21.059565-0.034132 25.257824z" fill="#292F33" p-id="6117"></path><path d="M223.497617 238.78884S262.169394-14.403787 392.247192 0.648512c99.870804 11.536682 139.088697 23.482951 222.78084 2.764708 55.396553-13.721143 115.639879 32.323189 151.956535 124.582513a788.48785 788.48785 0 0 1 34.81484 114.923103s112.021866-10.956435 118.438718 49.252758c6.485117 60.209193-123.831606 134.139529-451.910269 134.139529-183.90427 0-373.611013-67.069764-382.621913-123.217226-9.0109-56.079197 137.791674-64.305056 137.791674-64.305057z" fill="#66757F" p-id="6118"></path><path d="M231.074964 203.359621s-7.645612 31.40162-11.536682 53.246225c-3.856938 21.844605 6.450985 36.862771 76.968101 51.880938 93.488084 19.89907 303.742409 19.660145 428.324923-10.922303 50.037799-12.28759 82.08793-20.479317 78.230992-45.020366-4.744375-30.377654-5.563548-30.30939-15.359488-62.80324 0 0-42.016733 14.30139-97.481551 27.305757-75.671078 17.748742-283.433752 25.940469-383.475217 4.095863-53.31449-11.639079-75.636945-17.748742-75.636946-17.748741z m-3.856938 396.889171c-10.068998 4.095863 83.111896 39.183761 212.780107 41.470617 135.70961 2.389254 177.316756 11.092964 146.358855 41.50475-32.596247 31.981867-24.233859 82.292724-21.912869 97.208493 2.286857 14.915769 58.195393 54.509116 62.803239 72.803973 4.573714 18.363121-34.9855 169.568748-34.9855 169.568748l-248.277591-7.167761c-72.940502-251.554282-81.985534-241.792474-116.732109-386.956701-6.860571-28.671044 0-28.432119 0-28.432119z" fill="#292F33" p-id="6119"></path><path d="M198.785907 601.409286c-10.068998 4.164128 83.077764 39.183761 212.745975 41.470618 135.70961 2.389254 177.350888 11.092964 146.392987 41.50475L563.795607 1023.965868l-248.277591-7.167761c-72.940502-251.554282-81.985534-241.792474-116.732109-386.956702-6.826439-28.671044 0-28.432119 0-28.432119z" fill="#66757F" p-id="6120"></path><path d="M797.908336 600.248792c10.068998 4.095863-83.077764 39.183761-212.745975 41.470617-135.70961 2.389254-177.316756 11.092964-146.358854 41.50475 32.596247 31.981867 84.647845 82.258591 82.360988 97.140229-2.286857 14.915769-118.643512 54.577381-123.217227 72.872237-4.607846 18.363121 34.917236 169.568748 34.917237 169.568748l248.311722-7.167761c72.940502-251.554282 81.985534-241.792474 116.732109-386.956701 6.826439-28.671044 0-28.432119 0-28.432119z" fill="#292F33" p-id="6121"></path><path d="M823.678144 600.248792c10.068998 4.095863-83.111896 39.183761-212.745975 41.470617-135.70961 2.389254-177.316756 11.092964-146.358855 41.50475 32.596247 31.981867 84.647845 82.258591 82.360988 97.140229-2.286857 14.915769-118.677644 54.577381-123.217226 72.872237-4.607846 18.363121 34.917236 169.568748 34.917236 169.568748l246.263791 0.273058c72.940502-251.554282 84.033466-249.233292 118.780041-394.39752 6.826439-28.671044 0-28.432119 0-28.432119z" fill="#66757F" p-id="6122"></path></svg>