<?xml version="1.0" standalone="no"?><!DOCTYPE svg PUBLIC "-//W3C//DTD SVG 1.1//EN" "http://www.w3.org/Graphics/SVG/1.1/DTD/svg11.dtd"><svg t="1668478261535" class="icon" viewBox="0 0 1024 1024" version="1.1" xmlns="http://www.w3.org/2000/svg" p-id="24046" xmlns:xlink="http://www.w3.org/1999/xlink" width="200" height="200"><path d="M362.7 160v202.7H160c-17.7 0-32 14.3-32 32s14.3 32 32 32h224c23.6 0 42.7-19.1 42.7-42.7V160c0-17.7-14.3-32-32-32s-32 14.3-32 32zM661.3 864V661.3H864c17.7 0 32-14.3 32-32s-14.3-32-32-32H640c-23.6 0-42.7 19.1-42.7 42.7v224c0 17.7 14.3 32 32 32s32-14.3 32-32z" fill="#F5C71D" p-id="24047"></path><path d="M160 661.3h157.4L170.7 808.1c-12.5 12.5-12.5 32.8 0 45.3s32.8 12.5 45.3 0l146.7-146.8V864c0 17.7 14.3 32 32 32s32-14.3 32-32V640c0-23.6-19.1-42.7-42.7-42.7H160c-17.7 0-32 14.3-32 32s14.3 32 32 32zM640 426.7h224c17.7 0 32-14.3 32-32s-14.3-32-32-32H706.6L853.4 216c12.5-12.5 12.5-32.8 0-45.3s-32.8-12.5-45.3 0L661.3 317.4V160c0-17.7-14.3-32-32-32s-32 14.3-32 32v224c0 23.6 19.1 42.7 42.7 42.7z" fill="#040000" p-id="24048"></path></svg>