<?xml version="1.0" standalone="no"?><!DOCTYPE svg PUBLIC "-//W3C//DTD SVG 1.1//EN" "http://www.w3.org/Graphics/SVG/1.1/DTD/svg11.dtd"><svg height="1024" node-id="1" sillyvg="true" template-height="1024" template-width="1024" version="1.1" viewBox="0 0 1024 1024" width="1024" xmlns="http://www.w3.org/2000/svg" xmlns:xlink="http://www.w3.org/1999/xlink"><defs node-id="94"><clipPath id="clip0_2_4793" node-id="91"><path d="M 0.00 0.00 L 1024.00 0.00 L 1024.00 1024.00 L 0.00 1024.00 Z" fill="#000000" fill-rule="nonzero" node-id="97" stroke="none" target-height="1024" target-width="1024" target-x="0" target-y="0"></path></clipPath></defs><g clip-path="url(#clip0_2_4793)" id="sillyvg_g_0" node-id="101"><path d="M 0.00 0.00 L 1024.00 0.00 L 1024.00 1024.00 L 0.00 1024.00 Z" fill="#ffffff" fill-rule="nonzero" node-id="103" stroke="none" target-height="1024" target-width="1024" target-x="0" target-y="0"></path><path d="M 0.00 0.00 L 1024.00 0.00 L 1024.00 1024.00 L 0.00 1024.00 Z" fill="#ffffff" fill-rule="nonzero" node-id="105" stroke="none" target-height="1024" target-width="1024" target-x="0" target-y="0"></path><path d="M 921.42 498.15 L 925.23 501.01 C 1008.38 599.85 966.70 730.71 862.93 792.53 L 821.32 809.23 C 793.28 818.11 764.89 823.07 736.13 824.11 C 732.98 824.22 730.66 824.18 727.87 826.18 C 704.80 842.33 678.94 850.01 651.02 843.96 C 629.22 839.23 607.29 835.40 585.25 832.48 C 577.02 831.39 572.90 827.41 569.06 820.74 C 562.21 786.95 588.83 776.88 616.25 772.76 C 622.74 772.10 628.85 773.02 634.58 775.51 C 648.19 781.45 647.82 782.51 633.45 778.70 C 626.06 776.72 617.35 777.07 607.30 779.75 C 590.55 780.64 580.15 788.46 576.12 803.22 C 572.75 815.49 577.46 825.16 590.75 826.58 C 591.79 826.70 592.10 826.27 591.69 825.31 C 586.70 813.62 587.99 802.60 595.57 792.24 C 596.22 792.31 597.07 792.67 598.10 793.33 C 591.49 806.58 592.87 817.53 602.23 826.18 C 603.15 827.05 603.79 826.87 604.15 825.63 C 610.35 803.72 628.46 793.44 648.88 786.55 C 649.90 786.22 650.92 786.18 651.96 786.45 C 662.44 789.05 669.21 795.45 672.28 805.64 C 672.40 806.08 672.36 806.49 672.17 806.87 C 671.98 807.26 671.76 807.60 671.52 807.89 C 670.96 808.54 670.59 808.44 670.39 807.60 C 667.46 793.40 655.91 787.50 642.22 791.84 C 626.98 796.70 616.19 806.95 609.84 822.59 C 609.57 823.25 609.46 823.97 609.52 824.67 C 609.57 825.38 609.79 826.07 610.16 826.68 C 610.53 827.29 611.04 827.80 611.64 828.18 C 612.25 828.56 612.93 828.79 613.64 828.86 L 628.64 830.23 C 628.92 830.26 629.20 830.22 629.46 830.12 C 629.73 830.02 629.96 829.86 630.16 829.65 C 630.35 829.45 630.49 829.20 630.57 828.93 C 630.65 828.66 630.67 828.38 630.63 828.10 L 628.64 815.42 C 628.58 815.06 628.63 814.70 628.76 814.37 C 628.89 814.03 629.11 813.74 629.39 813.52 C 629.67 813.29 630.00 813.15 630.36 813.11 C 630.71 813.06 631.06 813.11 631.39 813.25 C 643.52 818.21 631.46 831.03 643.85 835.12 C 667.49 842.90 690.99 839.26 714.36 824.22 C 757.72 796.33 782.85 750.15 773.00 698.04 C 772.74 696.73 772.10 696.52 771.08 697.39 C 763.11 704.27 751.85 717.56 742.32 721.07 C 742.27 721.08 742.22 721.08 742.18 721.06 C 742.13 721.04 742.09 721.00 742.06 720.96 C 742.03 720.92 742.02 720.87 742.02 720.82 C 742.02 720.76 742.04 720.72 742.07 720.67 C 758.37 704.13 782.79 678.47 815.34 643.67 C 842.60 614.53 865.50 584.04 884.04 552.19 L 893.35 536.43 L 887.70 527.52 C 886.98 526.36 887.00 525.23 887.78 524.12 C 892.73 516.85 895.79 508.79 896.98 499.93 C 906.28 466.02 905.56 446.69 893.79 412.93 C 893.45 411.94 892.75 411.35 891.69 411.15 C 890.65 410.99 889.83 410.44 889.23 409.52 C 862.33 398.83 840.99 381.27 825.23 356.86 C 825.18 356.79 825.03 356.63 824.79 356.39 C 824.55 356.18 824.54 355.87 824.76 355.49 C 824.92 355.20 825.13 355.17 825.37 355.42 L 835.59 366.82 C 846.09 380.35 858.73 388.53 873.51 391.38 C 881.91 392.30 890.29 389.98 898.64 384.43 C 898.91 384.25 899.13 384.01 899.28 383.72 C 899.43 383.43 899.50 383.11 899.48 382.79 C 899.47 382.47 899.37 382.16 899.20 381.88 C 899.02 381.61 898.78 381.39 898.50 381.24 L 892.38 378.05 C 891.41 377.55 890.67 376.81 890.17 375.84 C 869.74 337.74 842.72 291.60 811.86 261.21 C 796.58 243.10 777.42 226.55 754.38 211.56 C 753.11 210.74 753.00 209.78 754.06 208.70 L 805.13 156.83 L 804.22 163.53 L 759.53 208.55 C 758.51 209.57 758.57 210.53 759.71 211.45 L 809.80 250.93 L 830.55 273.42 C 830.70 273.57 830.89 273.68 831.11 273.73 C 831.32 273.77 831.54 273.75 831.74 273.66 C 831.94 273.57 832.10 273.42 832.21 273.24 C 832.33 273.05 832.38 272.84 832.36 272.62 C 830.70 255.60 836.02 239.77 834.68 219.31 C 834.56 191.76 829.20 165.98 818.60 141.98 C 816.23 138.60 813.32 136.13 809.87 134.56 C 799.04 129.63 753.08 146.80 745.04 150.35 C 728.72 157.52 712.27 164.26 695.71 170.56 C 695.74 168.31 696.24 167.12 697.23 166.97 C 697.66 166.91 698.00 166.69 698.22 166.35 C 698.44 166.02 698.52 165.58 698.45 165.10 C 698.38 164.63 698.16 164.13 697.82 163.70 C 697.49 163.26 697.05 162.90 696.58 162.66 C 587.02 109.50 453.63 118.84 358.70 198.70 C 357.83 199.45 356.84 199.67 355.73 199.35 C 330.69 192.35 296.03 184.36 251.75 175.38 C 241.22 173.25 231.65 174.24 223.03 178.35 C 210.16 210.63 208.33 246.12 217.53 284.83 L 228.61 318.62 C 228.95 319.70 228.99 320.81 228.75 321.95 L 227.20 328.87 C 227.18 328.95 227.20 329.04 227.24 329.11 C 227.28 329.19 227.34 329.25 227.42 329.29 C 227.50 329.32 227.58 329.33 227.67 329.32 C 227.75 329.30 227.83 329.26 227.88 329.19 L 249.00 299.86 L 292.21 254.69 C 293.25 253.61 293.19 252.58 292.03 251.62 C 275.99 238.34 261.38 223.84 248.20 208.12 L 237.92 197.69 C 236.25 195.22 235.83 193.34 236.65 192.04 L 296.41 251.76 C 297.33 252.68 297.33 253.58 296.41 254.48 C 264.50 285.77 239.62 313.19 220.46 353.02 C 211.77 370.19 204.73 387.76 199.34 405.72 C 199.22 406.09 199.23 406.49 199.37 406.86 C 199.52 407.22 199.79 407.52 200.13 407.70 C 200.48 407.88 200.88 407.93 201.26 407.84 C 201.64 407.75 201.98 407.52 202.21 407.21 C 212.15 394.75 223.48 383.74 236.18 374.18 C 241.88 369.88 242.23 370.26 237.23 375.33 C 224.14 388.62 212.07 404.62 201.01 423.36 C 193.12 426.48 189.82 433.57 191.12 444.66 C 191.22 445.48 191.13 446.18 190.87 446.76 C 190.56 447.43 190.15 448.08 189.64 448.71 C 188.91 449.68 188.48 450.75 188.33 451.94 C 183.60 492.74 188.13 534.36 201.92 576.78 C 195.13 568.23 190.80 558.91 188.91 548.82 C 188.55 546.86 186.99 546.68 184.24 548.28 L 179.93 531.18 L 180.04 526.08 C 173.12 489.42 176.24 447.23 195.61 414.78 C 196.27 413.69 196.34 412.58 195.83 411.44 C 187.83 393.52 212.38 348.14 222.52 332.27 C 223.18 331.23 223.28 330.16 222.85 329.05 C 206.84 288.01 198.91 237.82 210.53 194.46 C 219.88 159.69 244.07 165.85 274.28 171.50 C 301.10 176.52 327.52 183.19 353.52 191.49 C 354.68 191.88 355.72 191.69 356.64 190.91 C 438.49 123.55 549.21 108.19 650.15 136.48 C 669.92 142.01 687.49 149.69 702.85 159.51 C 703.31 159.81 703.84 159.97 704.40 159.99 C 704.95 160.01 705.50 159.88 706.00 159.62 C 735.33 144.10 764.67 133.25 794.01 127.10 C 854.38 114.42 847.90 244.99 842.18 281.10 C 841.98 282.23 842.25 283.25 842.97 284.14 C 867.17 314.66 887.91 347.41 905.20 382.40 C 905.87 383.75 906.06 385.28 905.74 386.75 C 905.43 388.22 904.62 389.53 903.46 390.48 C 897.88 394.99 891.57 397.74 884.52 398.73 C 882.46 399.02 882.40 399.54 884.34 400.29 C 894.21 404.11 904.45 406.27 915.05 406.77 C 915.71 406.80 916.34 407.06 916.83 407.50 C 917.32 407.94 917.65 408.54 917.75 409.19 C 917.85 409.84 917.73 410.51 917.39 411.08 C 917.06 411.65 916.54 412.08 915.92 412.31 L 904.18 416.73 C 903.81 416.87 903.51 417.14 903.33 417.50 C 903.15 417.85 903.11 418.26 903.21 418.65 C 909.94 443.17 918.02 468.31 908.78 493.26 C 908.42 494.25 908.75 494.88 909.76 495.14 L 921.42 498.15 Z M 867.20 617.56 C 862.13 620.65 859.82 624.42 860.25 628.86 C 849.60 646.75 836.53 651.28 820.45 660.26 C 819.38 660.84 818.55 661.67 817.95 662.76 L 797.09 699.92 C 796.75 700.52 796.28 701.03 795.71 701.42 C 795.15 701.81 794.50 702.07 793.83 702.17 C 790.03 702.77 786.84 704.52 784.23 707.42 C 783.86 707.83 783.58 708.32 783.40 708.84 C 783.22 709.36 783.14 709.91 783.18 710.46 C 786.03 753.22 771.38 788.28 739.25 815.64 C 738.57 816.22 738.67 816.46 739.54 816.36 C 777.67 812.41 812.95 805.10 846.63 788.26 C 953.15 738.89 1002.41 610.90 924.83 511.88 C 920.26 506.06 914.73 502.61 908.24 501.52 C 907.20 501.35 906.42 501.74 905.88 502.68 L 892.74 526.47 C 892.28 527.32 892.35 528.10 892.96 528.83 C 895.76 532.26 899.47 533.44 904.11 532.38 C 904.44 532.31 904.78 532.34 905.09 532.46 C 905.40 532.59 905.67 532.80 905.86 533.07 C 906.06 533.34 906.17 533.66 906.19 533.99 C 906.20 534.33 906.12 534.66 905.96 534.95 C 894.25 554.75 882.04 574.22 869.34 593.37 C 855.61 614.05 837.72 632.88 821.46 652.37 C 821.27 652.57 821.17 652.84 821.16 653.11 C 821.16 653.39 821.25 653.66 821.42 653.88 C 821.60 654.09 821.85 654.24 822.12 654.28 C 822.39 654.33 822.67 654.28 822.91 654.14 C 844.71 642.88 854.38 626.54 865.65 606.23 C 866.71 604.29 867.45 604.41 867.86 606.59 C 868.46 609.97 868.24 613.63 867.20 617.56 Z M 798.50 672.29 L 777.56 690.14 C 777.15 690.49 776.87 690.97 776.77 691.50 C 776.66 692.03 776.74 692.59 776.99 693.08 L 781.98 702.60 C 782.35 703.33 782.65 703.30 782.89 702.53 L 783.65 700.17 C 783.82 699.60 784.07 699.04 784.41 698.51 L 800.42 673.74 L 812.80 657.47 C 812.97 657.26 813.01 657.03 812.91 656.78 C 812.82 656.50 812.72 656.19 812.62 655.88 C 812.58 655.75 812.50 655.63 812.39 655.53 C 812.29 655.44 812.16 655.38 812.02 655.36 C 811.88 655.34 811.74 655.35 811.61 655.41 C 811.48 655.46 811.37 655.55 811.28 655.66 L 798.50 672.29 Z" fill="#412d27" fill-rule="nonzero" node-id="107" stroke="none" target-height="741.818" target-width="835.258" target-x="173.122" target-y="108.191"></path><path d="M 695.71 170.56 C 688.68 164.28 682.77 161.73 677.96 162.92 C 664.89 166.14 647.83 167.81 638.56 169.33 C 548.09 184.43 460.80 214.06 383.80 264.47 C 374.24 270.77 361.24 287.11 368.63 298.48 L 354.75 304.67 C 352.29 303.49 350.42 303.65 349.14 305.14 C 348.72 305.65 348.51 306.30 348.56 306.95 C 348.60 307.60 348.90 308.20 349.39 308.62 C 350.34 309.44 350.49 310.38 349.87 311.45 C 348.78 313.26 347.86 313.17 347.11 311.19 L 345.01 305.54 C 344.53 304.24 343.61 303.73 342.26 304.02 L 321.25 308.77 C 320.12 309.03 319.14 309.60 318.32 310.47 C 309.34 320.18 296.05 325.93 287.90 330.97 C 277.95 337.10 267.57 342.47 256.75 347.08 C 255.57 347.59 254.61 348.37 253.89 349.40 C 252.51 351.36 250.80 351.76 248.75 350.60 C 247.77 350.04 246.64 349.80 245.52 349.90 C 244.40 350.01 243.33 350.45 242.47 351.18 C 241.61 351.90 241.00 352.88 240.71 353.96 C 240.41 355.05 240.47 356.20 240.85 357.26 L 243.71 365.12 C 243.81 365.41 243.85 365.71 243.83 366.01 C 243.81 366.31 243.73 366.61 243.59 366.87 C 243.45 367.14 243.25 367.37 243.02 367.56 C 242.78 367.74 242.51 367.88 242.23 367.95 L 239.47 368.67 C 238.34 368.96 237.56 368.56 237.16 367.48 L 235.09 361.97 C 234.58 360.67 233.64 359.91 232.27 359.69 C 227.39 358.96 223.45 356.74 220.46 353.02 C 239.62 313.19 264.50 285.77 296.41 254.48 C 297.32 253.58 297.32 252.68 296.41 251.76 L 236.65 192.04 C 233.92 186.36 229.38 181.80 223.03 178.35 C 231.65 174.24 241.22 173.25 251.75 175.38 C 296.03 184.36 330.69 192.35 355.73 199.35 C 356.84 199.67 357.83 199.45 358.70 198.70 C 453.63 118.84 587.02 109.50 696.58 162.66 C 697.05 162.90 697.49 163.26 697.82 163.70 C 698.16 164.13 698.38 164.63 698.45 165.10 C 698.52 165.58 698.44 166.02 698.22 166.35 C 698.00 166.69 697.66 166.91 697.23 166.97 C 696.24 167.12 695.74 168.31 695.71 170.56 Z" fill="#fefefe" fill-rule="nonzero" node-id="109" stroke="none" target-height="259.466" target-width="478.062" target-x="220.458" target-y="109.495"></path><path d="M 818.60 141.98 L 805.13 156.83 L 754.06 208.70 C 753.00 209.78 753.11 210.74 754.38 211.56 C 777.42 226.55 796.58 243.10 811.86 261.21 C 813.77 268.75 816.27 275.86 819.36 282.55 C 830.37 306.34 830.51 331.00 840.69 354.47 C 842.19 357.88 841.89 361.43 839.79 365.12 C 842.01 362.37 840.61 362.94 835.59 366.82 L 825.37 355.42 C 825.13 355.17 824.92 355.20 824.76 355.49 C 824.54 355.87 824.55 356.18 824.79 356.39 C 825.03 356.63 825.18 356.79 825.23 356.86 C 840.99 381.27 862.33 398.83 889.22 409.52 C 888.98 412.62 888.20 415.05 886.87 416.84 C 886.19 417.74 885.90 418.74 886.00 419.85 L 888.43 453.13 C 888.52 454.60 888.10 456.04 887.23 457.21 C 886.36 458.38 885.10 459.20 883.68 459.51 C 846.16 467.67 809.10 477.60 772.49 489.31 C 771.38 489.68 770.27 489.64 769.16 489.20 C 768.63 488.99 768.09 488.83 767.53 488.73 C 766.30 488.54 765.31 488.93 764.56 489.89 C 762.37 492.62 759.77 494.38 756.77 495.18 C 753.95 496.49 751.48 498.38 749.35 500.87 C 746.96 498.77 746.09 496.64 746.74 494.49 C 747.23 492.88 748.77 491.75 751.38 491.12 C 760.38 488.71 765.15 483.42 765.68 475.26 C 768.53 429.48 752.96 393.81 718.96 368.24 C 685.79 343.25 647.76 340.57 616.25 369.11 C 589.11 394.00 581.27 423.71 592.74 458.24 C 606.62 492.90 640.44 513.54 677.78 503.33 C 672.18 528.85 680.34 550.11 702.27 567.11 C 715.33 577.20 732.50 584.04 753.77 587.61 C 754.11 587.66 754.14 587.80 753.88 588.04 L 753.04 588.80 C 752.49 589.26 752.57 589.49 753.30 589.49 C 762.88 589.32 772.19 590.92 781.22 594.27 C 782.48 594.76 782.43 595.00 781.08 595.00 L 779.45 595.00 C 778.34 595.00 778.29 595.24 779.30 595.72 L 787.63 599.85 C 788.65 600.36 789.41 601.13 789.91 602.17 L 792.27 606.91 C 696.15 714.15 551.49 775.51 410.79 720.09 C 356.82 698.85 308.21 669.04 264.97 630.67 C 264.54 630.29 264.03 630.00 263.48 629.83 C 262.93 629.66 262.35 629.62 261.78 629.69 L 252.08 630.93 C 250.70 631.12 249.92 630.54 249.72 629.19 L 249.29 626.25 L 269.82 611.80 C 280.86 600.72 293.64 591.74 308.18 584.86 C 337.70 570.91 355.77 554.14 346.53 517.27 C 345.93 514.91 346.40 512.98 347.95 511.48 C 348.79 510.66 348.75 509.88 347.84 509.16 C 346.58 508.15 345.27 507.94 343.89 508.55 L 323.86 502.89 C 313.25 499.13 300.36 495.22 299.70 485.40 C 298.95 474.46 299.27 465.04 300.65 457.12 L 314.84 415.68 C 315.19 414.63 315.90 413.72 316.83 413.11 C 320.07 411.01 321.99 410.91 322.59 412.82 C 314.84 445.20 321.94 499.42 360.15 508.15 C 371.60 512.17 383.98 517.38 395.54 515.97 C 417.30 513.29 436.50 494.64 445.48 475.51 C 459.99 443.35 457.26 413.69 437.30 386.53 C 411.36 351.20 377.05 343.68 334.37 363.96 C 293.75 390.50 276.33 428.50 282.10 477.98 C 276.67 479.11 272.05 481.90 268.23 486.34 C 267.45 487.24 266.40 487.88 265.22 488.19 C 252.62 491.49 236.47 488.55 223.25 488.01 C 222.04 487.96 220.85 488.29 219.84 488.95 C 212.46 493.73 196.77 494.78 201.19 507.42 C 201.60 508.58 201.54 509.69 201.01 510.75 L 198.29 516.48 C 193.39 484.34 194.30 453.30 201.01 423.36 C 212.07 404.62 224.14 388.62 237.23 375.33 C 242.23 370.26 241.88 369.88 236.18 374.18 C 223.48 383.74 212.15 394.75 202.21 407.21 C 201.98 407.52 201.64 407.75 201.26 407.84 C 200.88 407.93 200.48 407.88 200.13 407.70 C 199.79 407.52 199.52 407.22 199.37 406.86 C 199.23 406.49 199.22 406.09 199.34 405.72 C 204.73 387.76 211.77 370.19 220.46 353.02 C 223.45 356.74 227.39 358.96 232.27 359.69 C 233.64 359.91 234.58 360.67 235.09 361.97 L 237.16 367.48 C 237.57 368.56 238.34 368.96 239.47 368.67 L 242.23 367.95 C 242.51 367.88 242.79 367.74 243.02 367.56 C 243.25 367.37 243.45 367.14 243.59 366.87 C 243.73 366.61 243.81 366.31 243.83 366.01 C 243.85 365.71 243.81 365.41 243.71 365.12 L 240.85 357.26 C 240.47 356.20 240.41 355.05 240.71 353.96 C 241.00 352.88 241.61 351.90 242.47 351.18 C 243.33 350.45 244.40 350.01 245.52 349.90 C 246.64 349.80 247.77 350.04 248.75 350.60 C 250.80 351.76 252.51 351.36 253.89 349.40 C 254.61 348.37 255.57 347.59 256.75 347.08 C 267.57 342.47 277.95 337.10 287.90 330.97 C 296.05 325.93 309.34 320.18 318.32 310.47 C 319.14 309.60 320.12 309.03 321.25 308.77 L 342.26 304.02 C 343.61 303.73 344.53 304.24 345.01 305.54 L 347.11 311.19 C 347.86 313.17 348.78 313.26 349.87 311.45 C 350.49 310.38 350.34 309.44 349.39 308.62 C 348.90 308.20 348.60 307.60 348.56 306.95 C 348.51 306.30 348.72 305.65 349.14 305.14 C 350.42 303.65 352.29 303.49 354.75 304.67 L 353.78 305.18 C 352.88 305.64 352.92 306.03 353.89 306.34 C 388.44 317.98 419.61 335.62 447.40 359.25 C 449.98 361.45 450.64 361.37 449.36 359.00 C 449.04 358.37 448.36 357.58 447.29 356.61 C 449.01 357.29 450.26 357.02 451.06 355.81 L 473.59 388.34 C 473.60 388.37 473.62 388.39 473.65 388.41 C 473.68 388.43 473.71 388.44 473.75 388.44 C 473.78 388.44 473.82 388.44 473.85 388.43 C 473.89 388.42 473.92 388.40 473.95 388.37 C 474.02 388.30 474.07 388.23 474.09 388.16 C 474.24 387.92 474.19 387.59 473.95 387.18 C 455.69 357.33 414.48 281.64 368.63 298.48 C 361.24 287.11 374.24 270.77 383.80 264.47 C 460.80 214.06 548.09 184.43 638.56 169.33 C 647.83 167.81 664.89 166.14 677.97 162.92 C 682.77 161.73 688.68 164.28 695.71 170.56 C 712.27 164.26 728.72 157.52 745.04 150.35 C 753.08 146.80 799.04 129.63 809.87 134.56 C 813.32 136.13 816.23 138.60 818.60 141.98 Z M 577.64 367.73 C 583.36 367.95 585.24 367.03 583.25 364.98 C 613.93 337.16 640.55 312.86 676.59 301.09 C 676.75 301.04 676.89 300.94 677.00 300.81 C 677.11 300.67 677.18 300.51 677.20 300.35 C 677.22 300.18 677.19 300.02 677.11 299.87 C 677.03 299.73 676.92 299.61 676.77 299.53 C 623.06 268.31 581.77 352.34 564.42 387.18 C 563.65 387.69 563.48 388.17 563.91 388.63 C 564.45 389.18 564.90 389.13 565.29 388.48 L 577.64 367.73 Z M 550.44 422.24 C 550.08 424.39 551.43 425.80 554.50 426.48 C 556.57 426.93 556.85 426.40 555.33 424.88 L 552.18 421.69 C 551.24 420.75 550.66 420.93 550.44 422.24 Z M 521.21 458.17 C 507.63 458.93 469.38 464.90 468.73 484.03 C 468.33 495.36 481.74 504.81 491.37 508.87 C 496.95 511.87 503.21 513.65 510.17 514.23 C 508.77 514.54 509.77 515.14 513.17 516.01 C 505.02 536.58 503.43 552.55 482.93 567.51 C 478.25 570.94 473.60 574.53 468.99 578.30 C 467.37 579.63 467.56 580.01 469.57 579.46 C 480.25 576.56 489.92 567.29 499.66 561.75 C 500.82 561.10 501.74 561.35 502.42 562.51 C 513.43 581.31 535.12 589.57 545.84 564.36 L 548.63 563.89 C 555.25 568.38 562.19 572.36 569.46 575.84 C 570.40 576.30 571.19 576.35 571.85 575.98 C 572.98 575.38 572.99 574.76 571.88 574.14 C 548.80 561.15 534.12 541.48 527.84 515.14 C 546.79 511.56 561.60 501.33 572.24 484.42 C 580.86 463.74 548.41 456.61 533.31 458.64 C 534.93 457.53 536.76 457.01 538.82 457.08 C 540.89 457.18 541.01 456.94 539.18 456.36 C 538.74 456.23 538.21 456.34 537.58 456.68 C 531.79 455.79 526.33 456.28 521.21 458.17 Z" fill="#fdfaee" fill-rule="nonzero" node-id="111" stroke="none" target-height="645.876" target-width="695.83203" target-x="193.392" target-y="129.632"></path><path d="M 818.60 141.98 C 829.20 165.98 834.56 191.76 834.68 219.31 C 830.74 219.33 828.58 221.00 828.20 224.31 C 828.12 224.83 827.86 225.31 827.45 225.65 C 827.05 225.99 826.54 226.17 826.01 226.16 C 825.48 226.16 824.98 225.96 824.58 225.60 C 824.19 225.25 823.95 224.76 823.89 224.23 C 823.67 221.34 821.82 219.39 818.35 218.40 C 816.00 199.57 811.29 181.28 804.22 163.53 L 805.13 156.83 L 818.60 141.98 Z" fill="#d0988b" fill-rule="nonzero" node-id="113" stroke="none" target-height="84.190994" target-width="30.458984" target-x="804.221" target-y="141.983"></path><path d="M 804.22 163.53 C 811.29 181.28 816.00 199.57 818.35 218.40 L 817.55 238.69 C 817.52 239.18 817.38 239.66 817.14 240.09 C 816.89 240.51 816.55 240.88 816.14 241.15 C 814.37 242.28 813.99 243.97 814.98 246.22 C 815.61 247.59 815.18 248.48 813.71 248.86 C 811.90 249.32 810.60 250.01 809.80 250.93 L 759.71 211.45 C 758.57 210.53 758.51 209.57 759.53 208.55 L 804.22 163.53 Z" fill="#9b6364" fill-rule="nonzero" node-id="115" stroke="none" target-height="87.394" target-width="59.83197" target-x="758.513" target-y="163.533"></path><path d="M 223.03 178.35 C 229.38 181.80 233.92 186.36 236.65 192.04 C 235.83 193.34 236.25 195.22 237.92 197.69 C 221.80 215.69 225.09 235.14 224.08 256.69 C 223.79 263.13 220.42 269.80 221.51 277.84 C 221.77 279.67 221.60 281.04 221.00 281.93 C 220.25 283.06 219.09 284.03 217.53 284.83 C 208.32 246.12 210.16 210.63 223.03 178.35 Z" fill="#fcd9c8" fill-rule="nonzero" node-id="117" stroke="none" target-height="106.481" target-width="29.591003" target-x="208.325" target-y="178.346"></path><path d="M 237.91 197.69 L 248.20 208.12 C 244.53 207.88 242.56 208.85 242.30 211.05 C 238.57 239.95 236.47 272.80 249.00 299.86 L 227.88 329.19 C 227.82 329.26 227.75 329.30 227.67 329.32 C 227.58 329.33 227.50 329.32 227.42 329.29 C 227.34 329.25 227.28 329.19 227.24 329.11 C 227.20 329.04 227.18 328.95 227.19 328.87 L 228.75 321.95 C 228.99 320.81 228.94 319.70 228.61 318.62 L 217.52 284.83 C 219.09 284.03 220.25 283.06 221.00 281.93 C 221.60 281.04 221.77 279.67 221.51 277.84 C 220.42 269.80 223.79 263.13 224.08 256.69 C 225.09 235.14 221.80 215.69 237.91 197.69 Z" fill="#d0988b" fill-rule="nonzero" node-id="119" stroke="none" target-height="131.646" target-width="31.473999" target-x="217.524" target-y="197.686"></path><path d="M 248.20 208.12 C 261.38 223.84 275.99 238.34 292.03 251.62 C 293.19 252.58 293.25 253.61 292.21 254.69 L 249.00 299.86 C 236.47 272.80 238.57 239.95 242.30 211.05 C 242.56 208.85 244.53 207.88 248.20 208.12 Z" fill="#a8615d" fill-rule="nonzero" node-id="121" stroke="none" target-height="91.98099" target-width="56.778" target-x="236.467" target-y="207.876"></path><path d="M 818.35 218.40 C 821.82 219.39 823.67 221.34 823.89 224.23 C 823.95 224.76 824.19 225.25 824.58 225.60 C 824.98 225.96 825.48 226.16 826.01 226.16 C 826.54 226.17 827.05 225.99 827.45 225.65 C 827.86 225.31 828.12 224.83 828.20 224.31 C 828.58 221.00 830.74 219.33 834.68 219.31 C 836.02 239.77 830.70 255.60 832.36 272.62 C 832.38 272.84 832.33 273.05 832.21 273.24 C 832.10 273.42 831.93 273.57 831.74 273.66 C 831.54 273.75 831.32 273.77 831.11 273.73 C 830.89 273.68 830.70 273.58 830.55 273.42 L 809.80 250.93 C 810.59 250.01 811.90 249.32 813.71 248.86 C 815.18 248.48 815.61 247.59 814.98 246.22 C 813.99 243.97 814.37 242.28 816.14 241.15 C 816.55 240.88 816.89 240.51 817.14 240.09 C 817.38 239.66 817.52 239.18 817.55 238.69 L 818.35 218.40 Z" fill="#c28780" fill-rule="nonzero" node-id="123" stroke="none" target-height="55.366013" target-width="26.222046" target-x="809.798" target-y="218.403"></path><path d="M 811.86 261.21 C 842.72 291.60 869.74 337.74 890.17 375.84 C 890.67 376.81 891.41 377.55 892.38 378.05 L 898.50 381.24 C 898.78 381.39 899.02 381.61 899.20 381.88 C 899.37 382.16 899.47 382.47 899.48 382.79 C 899.50 383.11 899.43 383.43 899.28 383.72 C 899.13 384.01 898.91 384.25 898.64 384.43 C 890.29 389.98 881.91 392.30 873.50 391.38 C 866.99 380.06 855.75 371.30 839.79 365.12 C 841.89 361.43 842.19 357.88 840.69 354.47 C 830.51 331.00 830.37 306.34 819.36 282.55 C 816.27 275.86 813.77 268.75 811.86 261.21 Z" fill="#e1dbd1" fill-rule="nonzero" node-id="125" stroke="none" target-height="131.08499" target-width="87.63599" target-x="811.862" target-y="261.212"></path><path d="M 583.25 364.98 C 606.14 339.62 635.84 312.50 667.24 300.58 C 667.92 300.34 667.93 300.07 667.28 299.79 C 628.89 283.16 592.45 336.37 577.64 367.73 L 565.29 388.48 C 564.90 389.13 564.45 389.18 563.91 388.63 C 563.48 388.17 563.65 387.69 564.42 387.18 C 581.77 352.34 623.06 268.31 676.77 299.53 C 676.91 299.61 677.03 299.73 677.11 299.87 C 677.19 300.02 677.22 300.18 677.20 300.35 C 677.18 300.51 677.11 300.67 677.00 300.81 C 676.89 300.94 676.75 301.04 676.59 301.09 C 640.55 312.86 613.93 337.16 583.25 364.98 Z" fill="#170f0a" fill-rule="nonzero" node-id="127" stroke="none" target-height="120.87201" target-width="113.737" target-x="563.479" target-y="268.311"></path><path d="M 451.06 355.81 C 439.54 335.39 417.09 309.27 393.07 299.97 C 382.61 295.91 372.61 301.09 362.65 304.75 C 361.30 305.25 361.33 305.59 362.76 305.76 C 388.29 309.13 427.73 340.02 447.29 356.61 C 448.35 357.58 449.04 358.37 449.36 359.00 C 450.64 361.37 449.98 361.45 447.40 359.25 C 419.61 335.62 388.44 317.98 353.89 306.34 C 352.92 306.03 352.88 305.64 353.78 305.18 L 354.75 304.67 L 368.63 298.48 C 414.48 281.64 455.69 357.33 473.95 387.18 C 474.19 387.59 474.24 387.92 474.09 388.16 C 474.07 388.23 474.02 388.30 473.95 388.37 C 473.92 388.40 473.89 388.42 473.85 388.43 C 473.82 388.44 473.78 388.44 473.75 388.44 C 473.71 388.44 473.68 388.43 473.65 388.41 C 473.62 388.39 473.60 388.37 473.59 388.34 L 451.06 355.81 Z" fill="#170f0a" fill-rule="nonzero" node-id="129" stroke="none" target-height="106.803986" target-width="121.354004" target-x="352.884" target-y="281.64"></path><path d="M 583.25 364.98 C 585.23 367.03 583.36 367.95 577.64 367.73 C 592.45 336.37 628.89 283.16 667.28 299.79 C 667.93 300.07 667.92 300.34 667.24 300.58 C 635.84 312.50 606.14 339.62 583.25 364.98 Z" fill="#fdfbf5" fill-rule="nonzero" node-id="131" stroke="none" target-height="84.78598" target-width="90.291016" target-x="577.641" target-y="283.161"></path><path d="M 451.06 355.81 C 450.26 357.02 449.01 357.29 447.29 356.61 C 427.73 340.02 388.29 309.13 362.76 305.76 C 361.33 305.59 361.30 305.25 362.65 304.75 C 372.61 301.09 382.61 295.91 393.07 299.97 C 417.09 309.27 439.54 335.39 451.06 355.81 Z" fill="#fefefe" fill-rule="nonzero" node-id="133" stroke="none" target-height="61.37799" target-width="89.76001" target-x="361.298" target-y="295.909"></path><path d="M 751.38 491.12 C 748.96 491.34 749.62 489.51 753.33 485.62 C 768.65 473.16 760.65 425.21 748.12 412.06 C 747.39 411.29 746.84 410.39 746.45 409.38 C 742.54 398.54 736.43 389.15 728.13 381.20 C 727.21 380.31 726.35 380.37 725.55 381.38 C 724.11 383.22 721.87 384.25 718.85 384.46 C 712.96 377.73 705.49 371.97 696.43 367.19 C 672.43 348.76 645.71 349.40 616.25 369.11 C 647.76 340.57 685.79 343.25 718.96 368.24 C 752.96 393.81 768.53 429.48 765.68 475.26 C 765.15 483.42 760.38 488.71 751.38 491.12 Z" fill="#170f0a" fill-rule="nonzero" node-id="135" stroke="none" target-height="150.776" target-width="152.40497" target-x="616.249" target-y="340.566"></path><path d="M 445.48 475.51 C 454.32 452.53 454.42 430.11 445.77 408.26 C 441.38 395.39 433.06 384.02 420.82 374.14 C 400.68 357.19 378.88 355.09 355.41 367.84 L 346.32 372.87 L 339.18 376.31 C 341.11 371.65 345.40 367.42 352.04 363.60 C 352.33 363.43 352.55 363.16 352.65 362.84 C 352.74 362.52 352.71 362.18 352.56 361.87 C 352.42 361.57 352.16 361.33 351.84 361.20 C 351.52 361.07 351.16 361.06 350.84 361.17 L 337.08 366.72 C 335.90 367.17 335.14 366.79 334.80 365.56 L 334.37 363.96 C 377.05 343.68 411.36 351.20 437.30 386.53 C 457.26 413.69 459.99 443.35 445.48 475.51 Z" fill="#170f0a" fill-rule="nonzero" node-id="137" stroke="none" target-height="131.83301" target-width="125.62802" target-x="334.365" target-y="343.681"></path><path d="M 696.43 367.19 L 696.04 369.50 C 690.82 366.75 687.02 366.46 684.63 368.63 C 680.50 365.09 675.55 363.75 669.78 364.62 C 668.60 364.81 667.44 364.70 666.30 364.29 C 648.84 357.88 643.16 367.98 629.43 374.47 C 613.54 381.95 605.13 396.14 604.19 417.02 C 600.33 423.32 596.33 427.80 592.20 430.46 C 590.78 431.37 589.73 432.74 589.22 434.35 C 588.71 435.96 588.78 437.69 589.41 439.26 C 591.78 445.25 592.89 451.57 592.74 458.24 C 581.27 423.71 589.11 394.00 616.25 369.11 C 645.71 349.40 672.43 348.76 696.43 367.19 Z" fill="#4e423d" fill-rule="nonzero" node-id="139" stroke="none" target-height="109.475006" target-width="115.16101" target-x="581.274" target-y="348.763"></path><path d="M 420.82 374.14 C 419.90 375.64 419.04 376.54 418.25 376.86 L 407.78 374.00 C 406.60 373.68 405.55 373.92 404.63 374.72 C 391.33 386.13 391.01 405.61 409.19 411.77 C 410.25 412.13 411.32 412.14 412.38 411.81 C 415.83 410.67 417.17 408.91 416.40 406.52 L 422.85 400.00 C 424.80 396.91 429.76 397.01 437.73 400.29 L 440.77 408.69 C 438.13 436.80 418.90 467.00 388.18 464.87 C 375.75 464.00 363.70 458.05 352.04 447.01 C 346.97 443.29 342.86 436.59 339.73 426.91 C 338.42 414.23 340.00 403.46 344.47 394.60 C 350.50 382.65 354.15 373.73 355.41 367.84 C 378.88 355.09 400.68 357.19 420.82 374.14 Z" fill="#372720" fill-rule="nonzero" node-id="141" stroke="none" target-height="111.914" target-width="102.35202" target-x="338.421" target-y="355.089"></path><path d="M 339.18 376.31 C 319.00 390.49 306.10 409.56 300.50 433.54 L 295.57 435.75 C 294.49 436.25 293.91 437.11 293.84 438.32 L 290.43 493.48 C 286.83 493.70 284.06 488.53 282.10 477.98 C 276.33 428.50 293.75 390.50 334.36 363.96 L 334.80 365.56 C 335.14 366.79 335.90 367.17 337.08 366.72 L 350.84 361.17 C 351.16 361.06 351.52 361.07 351.84 361.20 C 352.15 361.33 352.42 361.57 352.56 361.87 C 352.71 362.18 352.74 362.52 352.65 362.84 C 352.55 363.16 352.33 363.43 352.04 363.60 C 345.40 367.42 341.11 371.65 339.18 376.31 Z" fill="#412d27" fill-rule="nonzero" node-id="143" stroke="none" target-height="132.63602" target-width="76.41202" target-x="276.331" target-y="361.06"></path><path d="M 684.63 368.63 C 694.19 380.59 700.95 394.30 704.91 409.78 C 700.35 475.19 619.11 484.75 604.19 417.02 C 605.13 396.14 613.54 381.95 629.43 374.47 C 643.16 367.98 648.85 357.88 666.30 364.29 C 667.44 364.70 668.60 364.81 669.78 364.62 C 675.55 363.75 680.50 365.09 684.63 368.63 Z M 652.97 402.09 C 655.01 402.28 657.08 402.00 659.05 401.25 C 661.02 400.50 662.87 399.31 664.47 397.73 C 666.08 396.16 667.41 394.24 668.40 392.07 C 669.40 389.91 670.02 387.55 670.25 385.13 C 670.72 380.25 669.52 375.41 666.93 371.68 C 664.35 367.94 660.58 365.63 656.46 365.24 C 654.41 365.05 652.35 365.33 650.38 366.08 C 648.40 366.83 646.56 368.02 644.96 369.60 C 643.35 371.17 642.01 373.10 641.02 375.26 C 640.03 377.42 639.40 379.78 639.17 382.20 C 638.71 387.08 639.90 391.93 642.49 395.66 C 645.08 399.39 648.85 401.70 652.97 402.09 Z" fill="#372720" fill-rule="nonzero" node-id="145" stroke="none" target-height="126.871" target-width="100.721985" target-x="604.189" target-y="357.879"></path><path d="M 839.79 365.12 C 855.75 371.30 866.99 380.06 873.50 391.38 C 858.73 388.53 846.09 380.35 835.59 366.82 C 840.61 362.94 842.01 362.37 839.79 365.12 Z" fill="#cec3b9" fill-rule="nonzero" node-id="147" stroke="none" target-height="29.011017" target-width="37.919983" target-x="835.585" target-y="362.369"></path><path d="M 639.17 382.20 C 638.21 392.37 644.39 401.28 652.97 402.09 C 661.55 402.90 669.29 395.31 670.25 385.13 C 671.22 374.96 665.04 366.05 656.45 365.24 C 647.87 364.43 640.13 372.02 639.17 382.20 Z" fill="#fefefe" fill-rule="nonzero" node-id="149" stroke="none" target-height="38.473022" target-width="33.005005" target-x="638.21" target-y="364.429"></path><path d="M 696.04 369.50 C 707.41 376.43 716.49 385.60 723.27 396.99 C 723.88 398.01 723.68 398.85 722.69 399.53 C 721.61 400.28 721.18 401.13 721.43 402.10 C 723.38 410.00 724.76 417.81 725.55 425.53 C 723.48 425.39 722.20 425.84 721.72 426.87 C 720.05 415.45 714.45 409.75 704.91 409.78 C 700.95 394.30 694.19 380.59 684.63 368.63 C 687.02 366.46 690.82 366.75 696.04 369.50 Z" fill="#715337" fill-rule="nonzero" node-id="151" stroke="none" target-height="60.411987" target-width="40.925964" target-x="684.629" target-y="366.462"></path><path d="M 696.43 367.19 C 705.49 371.97 712.96 377.73 718.85 384.46 C 729.21 395.52 736.19 407.74 739.79 421.12 C 745.92 442.80 747.87 461.45 745.62 477.07 C 744.56 484.31 737.78 489.31 725.30 492.07 L 703.86 496.70 C 702.65 496.97 701.77 497.64 701.22 498.73 C 697.33 506.17 696.76 513.81 699.51 521.66 C 699.54 521.77 699.61 521.87 699.71 521.95 C 699.80 522.02 699.92 522.06 700.04 522.06 C 700.16 522.06 700.27 522.02 700.37 521.95 C 700.47 521.87 700.53 521.77 700.56 521.66 C 700.66 521.34 700.77 521.03 700.89 520.71 C 700.91 520.66 700.95 520.61 701.00 520.58 C 701.04 520.54 701.10 520.53 701.16 520.53 C 701.22 520.53 701.28 520.54 701.33 520.58 C 701.38 520.61 701.41 520.66 701.43 520.71 C 704.43 531.17 707.17 537.56 709.65 539.87 C 726.27 555.38 744.05 563.08 763.00 562.98 C 766.12 562.96 772.69 560.82 782.71 556.57 L 808.49 588.88 C 808.86 589.34 809.13 589.87 809.29 590.43 C 809.46 591.00 809.50 591.60 809.42 592.18 C 809.35 592.77 809.16 593.34 808.86 593.85 C 808.57 594.37 808.17 594.82 807.70 595.18 L 792.27 606.91 L 789.91 602.17 C 789.41 601.13 788.65 600.36 787.63 599.85 L 779.30 595.72 C 778.29 595.24 778.34 595.00 779.45 595.00 L 781.08 595.00 C 782.43 595.00 782.48 594.76 781.22 594.27 C 772.19 590.92 762.88 589.32 753.30 589.49 C 752.57 589.49 752.49 589.26 753.04 588.80 L 753.88 588.04 C 754.14 587.80 754.11 587.66 753.77 587.61 C 732.50 584.04 715.33 577.20 702.27 567.11 C 680.34 550.11 672.18 528.85 677.78 503.33 L 690.50 496.45 C 717.18 481.33 728.86 457.69 725.55 425.53 C 724.76 417.81 723.38 410.00 721.43 402.10 C 721.18 401.13 721.61 400.28 722.69 399.53 C 723.68 398.85 723.88 398.01 723.27 396.99 C 716.49 385.60 707.41 376.43 696.04 369.50 L 696.43 367.19 Z" fill="#fcecdc" fill-rule="nonzero" node-id="153" stroke="none" target-height="239.72702" target-width="137.318" target-x="672.181" target-y="367.186"></path><path d="M 355.41 367.84 C 354.15 373.73 350.51 382.65 344.47 394.60 C 340.00 403.46 338.42 414.23 339.73 426.91 C 333.54 427.08 328.59 430.16 324.88 436.15 C 321.98 418.25 327.50 399.88 341.43 381.02 L 346.32 372.87 L 355.41 367.84 Z" fill="#836b44" fill-rule="nonzero" node-id="155" stroke="none" target-height="68.30798" target-width="33.429016" target-x="321.978" target-y="367.838"></path><path d="M 346.32 372.87 L 341.43 381.02 C 332.06 389.21 325.78 399.81 322.59 412.82 C 321.99 410.91 320.07 411.01 316.83 413.11 C 315.90 413.72 315.19 414.63 314.84 415.68 L 300.65 457.12 L 300.50 433.54 C 306.10 409.56 319.00 390.49 339.18 376.31 L 346.32 372.87 Z" fill="#d7cab8" fill-rule="nonzero" node-id="157" stroke="none" target-height="84.24301" target-width="45.81601" target-x="300.5" target-y="372.873"></path><path d="M 418.25 376.86 C 425.75 382.63 432.25 390.44 437.73 400.29 C 429.76 397.01 424.80 396.91 422.85 400.00 C 425.84 391.33 423.67 385.03 416.33 381.09 C 392.53 368.42 391.55 414.67 416.40 406.52 C 417.17 408.91 415.83 410.67 412.38 411.81 C 411.32 412.14 410.25 412.13 409.19 411.77 C 391.01 405.61 391.33 386.13 404.63 374.72 C 405.55 373.92 406.60 373.68 407.78 374.00 L 418.25 376.86 Z" fill="#170f0a" fill-rule="nonzero" node-id="159" stroke="none" target-height="46.25" target-width="46.721985" target-x="391.009" target-y="368.418"></path><path d="M 420.82 374.14 C 433.06 384.02 441.38 395.39 445.77 408.26 L 442.58 409.05 C 441.98 408.93 441.38 408.81 440.77 408.69 L 437.73 400.29 C 432.25 390.44 425.75 382.63 418.25 376.86 C 419.04 376.54 419.90 375.64 420.82 374.14 Z" fill="#836b44" fill-rule="nonzero" node-id="161" stroke="none" target-height="34.91397" target-width="27.526001" target-x="418.245" target-y="374.14"></path><path d="M 422.84 400.00 L 416.40 406.52 C 391.55 414.67 392.53 368.42 416.32 381.09 C 423.67 385.03 425.84 391.33 422.84 400.00 Z" fill="#fdfbf5" fill-rule="nonzero" node-id="163" stroke="none" target-height="46.25" target-width="34.28601" target-x="391.552" target-y="368.418"></path><path d="M 753.33 485.62 C 754.86 467.17 753.54 449.97 749.39 434.01 C 749.24 429.05 747.76 419.74 739.79 421.12 C 736.19 407.74 729.21 395.52 718.85 384.46 C 721.87 384.25 724.11 383.22 725.55 381.38 C 726.35 380.37 727.21 380.31 728.13 381.20 C 736.43 389.15 742.54 398.54 746.45 409.38 C 746.84 410.39 747.39 411.29 748.12 412.06 C 760.65 425.21 768.65 473.16 753.33 485.62 Z" fill="#412d27" fill-rule="nonzero" node-id="165" stroke="none" target-height="105.31" target-width="49.799988" target-x="718.854" target-y="380.309"></path><path d="M 341.43 381.02 C 327.50 399.88 321.98 418.25 324.88 436.14 C 322.27 470.36 334.03 494.36 360.15 508.15 C 321.94 499.42 314.84 445.20 322.59 412.82 C 325.78 399.81 332.06 389.21 341.43 381.02 Z" fill="#170f0a" fill-rule="nonzero" node-id="167" stroke="none" target-height="127.125" target-width="45.308014" target-x="314.843" target-y="381.022"></path><path d="M 445.77 408.26 C 454.42 430.11 454.32 452.53 445.48 475.51 C 436.50 494.64 417.30 513.29 395.54 515.97 C 383.98 517.38 371.60 512.17 360.15 508.15 C 334.03 494.36 322.27 470.36 324.88 436.14 C 328.59 430.16 333.54 427.08 339.72 426.91 C 342.86 436.59 346.97 443.29 352.04 447.01 C 360.49 459.49 371.31 466.51 384.49 468.05 C 418.97 472.11 440.81 441.58 442.58 409.05 L 445.77 408.26 Z" fill="#fac759" fill-rule="nonzero" node-id="169" stroke="none" target-height="109.12402" target-width="132.14801" target-x="322.267" target-y="408.258"></path><path d="M 440.77 408.69 C 441.38 408.81 441.98 408.93 442.58 409.05 C 440.81 441.58 418.97 472.11 384.49 468.05 C 371.31 466.51 360.49 459.49 352.04 447.01 C 363.70 458.05 375.75 464.00 388.18 464.87 C 418.90 467.00 438.13 436.80 440.77 408.69 Z" fill="#170f0a" fill-rule="nonzero" node-id="171" stroke="none" target-height="63.418" target-width="90.54501" target-x="352.039" target-y="408.692"></path><path d="M 704.91 409.78 C 714.45 409.75 720.05 415.45 721.72 426.87 C 723.94 454.74 713.53 477.93 690.50 496.45 L 677.78 503.33 C 640.44 513.54 606.61 492.90 592.74 458.24 C 592.89 451.57 591.78 445.25 589.41 439.26 C 588.78 437.69 588.71 435.96 589.22 434.35 C 589.73 432.74 590.78 431.37 592.20 430.46 C 596.33 427.80 600.33 423.32 604.19 417.02 C 619.11 484.75 700.35 475.19 704.91 409.78 Z" fill="#fac759" fill-rule="nonzero" node-id="173" stroke="none" target-height="103.788025" target-width="135.22699" target-x="588.71" target-y="409.755"></path><path d="M 889.22 409.52 C 889.83 410.44 890.65 410.99 891.69 411.15 C 892.75 411.35 893.45 411.94 893.79 412.93 C 905.56 446.69 906.28 466.02 896.98 499.93 L 894.95 499.96 C 893.45 499.96 892.93 499.26 893.39 497.86 L 894.00 495.87 C 894.46 494.42 893.94 493.67 892.45 493.62 L 889.77 493.51 C 886.48 485.06 886.11 476.15 888.64 466.79 C 888.75 466.39 888.76 465.98 888.66 465.58 C 888.56 465.18 888.36 464.82 888.08 464.52 C 887.80 464.22 887.45 464.00 887.06 463.88 C 886.67 463.75 886.26 463.73 885.86 463.82 C 846.38 471.71 807.21 481.66 768.36 493.66 C 765.51 493.54 762.26 494.23 758.59 495.72 L 756.77 495.18 C 759.77 494.38 762.36 492.62 764.56 489.89 C 765.31 488.93 766.30 488.54 767.53 488.73 C 768.09 488.83 768.63 488.99 769.16 489.20 C 770.27 489.64 771.38 489.68 772.49 489.31 C 809.10 477.60 846.16 467.67 883.68 459.51 C 885.10 459.20 886.36 458.38 887.23 457.21 C 888.10 456.04 888.52 454.60 888.43 453.13 L 886.00 419.85 C 885.90 418.74 886.19 417.74 886.87 416.84 C 888.20 415.05 888.98 412.62 889.22 409.52 Z" fill="#cec3b9" fill-rule="nonzero" node-id="175" stroke="none" target-height="90.436005" target-width="149.508" target-x="756.775" target-y="409.525"></path><path d="M 552.18 421.69 L 555.33 424.88 C 556.85 426.40 556.57 426.93 554.50 426.48 C 551.43 425.80 550.08 424.39 550.44 422.24 C 550.66 420.93 551.24 420.75 552.18 421.69 Z" fill="#412d27" fill-rule="nonzero" node-id="177" stroke="none" target-height="6.1809998" target-width="6.7730103" target-x="550.079" target-y="420.753"></path><path d="M 739.79 421.12 C 747.76 419.74 749.24 429.05 749.39 434.01 L 749.75 476.71 C 749.75 477.68 749.47 478.65 748.95 479.50 C 743.95 487.51 736.07 491.70 725.30 492.07 C 737.78 489.31 744.56 484.31 745.62 477.07 C 747.87 461.45 745.92 442.80 739.79 421.12 Z" fill="#715337" fill-rule="nonzero" node-id="179" stroke="none" target-height="72.326996" target-width="24.447021" target-x="725.302" target-y="419.739"></path><path d="M 201.01 423.36 C 194.30 453.30 193.39 484.34 198.29 516.48 L 197.06 524.59 C 196.84 525.89 197.40 526.51 198.73 526.44 L 249.69 523.50 L 248.75 525.24 L 201.30 529.12 C 198.50 529.33 197.45 530.81 198.15 533.54 C 206.14 565.36 221.30 593.31 243.64 617.38 C 244.63 618.47 245.84 618.80 247.26 618.39 L 269.82 611.80 L 249.29 626.25 L 246.53 628.43 C 231.69 625.28 219.55 608.69 212.35 599.31 C 205.78 590.35 202.30 582.84 201.91 576.78 C 188.13 534.36 183.60 492.74 188.33 451.94 C 188.48 450.75 188.91 449.68 189.64 448.71 C 190.14 448.08 190.55 447.43 190.87 446.76 C 191.13 446.18 191.22 445.48 191.12 444.66 C 189.82 433.57 193.11 426.48 201.01 423.36 Z" fill="#bba99b" fill-rule="nonzero" node-id="181" stroke="none" target-height="205.06702" target-width="86.22301" target-x="183.601" target-y="423.36"></path><path d="M 725.55 425.53 C 728.86 457.69 717.18 481.33 690.50 496.45 C 713.53 477.93 723.94 454.74 721.72 426.87 C 722.20 425.83 723.48 425.39 725.55 425.53 Z" fill="#170f0a" fill-rule="nonzero" node-id="183" stroke="none" target-height="71.05899" target-width="38.367004" target-x="690.496" target-y="425.389"></path><path d="M 300.50 433.54 L 300.64 457.12 C 299.27 465.04 298.95 474.46 299.70 485.40 C 300.36 495.22 313.25 499.13 323.86 502.89 C 323.91 503.33 323.26 503.62 321.90 503.76 L 290.43 493.48 L 293.84 438.32 C 293.91 437.11 294.49 436.25 295.57 435.75 L 300.50 433.54 Z" fill="#bda194" fill-rule="nonzero" node-id="185" stroke="none" target-height="70.22601" target-width="33.47699" target-x="290.432" target-y="433.538"></path><path d="M 749.39 434.01 C 753.54 449.97 754.86 467.17 753.33 485.62 C 749.62 489.51 748.96 491.34 751.38 491.12 C 748.77 491.75 747.23 492.88 746.74 494.49 C 746.09 496.64 746.96 498.77 749.35 500.87 C 752.44 501.06 755.52 499.35 758.59 495.72 C 762.25 494.23 765.51 493.54 768.36 493.66 C 767.25 497.11 768.15 500.05 771.04 502.46 C 771.99 503.23 773.05 503.51 774.23 503.29 C 787.97 500.90 801.89 501.36 815.99 504.67 C 798.65 507.25 781.25 507.98 763.76 506.84 C 761.90 506.72 761.26 507.56 761.85 509.34 L 762.86 512.35 C 763.04 512.94 763.42 513.44 763.94 513.78 C 764.45 514.12 765.07 514.26 765.68 514.20 C 797.70 510.74 829.71 507.43 861.70 504.27 C 866.19 503.84 874.55 504.25 886.80 505.50 L 875.57 531.98 C 875.11 533.04 875.45 533.66 876.58 533.83 L 893.35 536.43 L 884.04 552.19 C 873.07 554.18 863.98 557.44 852.86 556.53 C 828.45 554.53 803.99 551.61 779.48 547.77 C 779.19 547.72 778.89 547.74 778.60 547.81 C 778.32 547.88 778.04 548.01 777.81 548.19 C 777.57 548.37 777.37 548.60 777.23 548.85 C 777.08 549.11 776.98 549.39 776.95 549.69 C 776.71 551.81 778.63 554.11 782.71 556.57 C 772.69 560.82 766.12 562.96 763.00 562.98 C 744.05 563.08 726.27 555.38 709.65 539.87 C 707.17 537.56 704.43 531.17 701.43 520.71 C 701.41 520.66 701.38 520.61 701.33 520.58 C 701.28 520.54 701.22 520.52 701.16 520.52 C 701.10 520.52 701.04 520.54 701.00 520.58 C 700.95 520.61 700.91 520.66 700.89 520.71 C 700.77 521.03 700.66 521.34 700.56 521.66 C 700.53 521.77 700.47 521.87 700.37 521.95 C 700.27 522.02 700.16 522.06 700.04 522.06 C 699.92 522.06 699.80 522.02 699.71 521.95 C 699.61 521.87 699.54 521.77 699.51 521.66 C 696.76 513.81 697.33 506.17 701.22 498.73 C 701.77 497.64 702.65 496.97 703.86 496.70 L 725.30 492.07 C 736.07 491.70 743.95 487.51 748.95 479.50 C 749.47 478.65 749.75 477.68 749.75 476.71 L 749.39 434.01 Z" fill="#fce3d3" fill-rule="nonzero" node-id="187" stroke="none" target-height="129.06802" target-width="196.591" target-x="696.761" target-y="434.009"></path><path d="M 533.31 458.64 L 521.21 458.17 C 526.33 456.28 531.79 455.79 537.58 456.68 C 538.21 456.34 538.74 456.23 539.18 456.36 C 541.01 456.93 540.89 457.18 538.82 457.08 C 536.76 457.01 534.93 457.53 533.31 458.64 Z" fill="#fefefe" fill-rule="nonzero" node-id="189" stroke="none" target-height="2.848999" target-width="19.799011" target-x="521.213" target-y="455.788"></path><path d="M 521.21 458.17 L 533.31 458.64 C 548.41 456.61 580.86 463.74 572.24 484.42 C 568.95 457.51 540.41 460.59 520.09 461.03 C 518.91 461.05 517.80 461.37 516.76 461.97 C 511.95 464.70 506.74 465.52 501.11 464.43 C 499.95 464.21 498.81 464.27 497.67 464.61 C 465.40 474.50 459.10 491.81 491.66 507.93 C 491.56 508.24 491.47 508.56 491.37 508.87 C 481.74 504.81 468.33 495.36 468.73 484.03 C 469.38 464.90 507.63 458.93 521.21 458.17 Z" fill="#4e423d" fill-rule="nonzero" node-id="191" stroke="none" target-height="52.261993" target-width="121.765015" target-x="459.099" target-y="456.609"></path><path d="M 572.24 484.42 C 561.60 501.33 546.79 511.56 527.84 515.14 L 523.02 515.46 L 519.55 515.43 L 513.17 516.01 C 509.77 515.14 508.77 514.54 510.17 514.23 L 491.66 507.93 C 459.10 491.81 465.40 474.50 497.67 464.61 C 498.81 464.27 499.95 464.21 501.11 464.43 C 506.74 465.52 511.95 464.70 516.76 461.97 C 517.80 461.37 518.91 461.05 520.09 461.03 C 540.41 460.59 568.95 457.51 572.24 484.42 Z M 559.75 477.80 C 560.24 477.64 560.67 477.34 560.99 476.94 C 561.31 476.54 561.50 476.06 561.55 475.55 C 561.60 475.04 561.49 474.53 561.25 474.08 C 561.00 473.63 560.63 473.26 560.18 473.01 C 536.79 460.52 514.95 466.31 490.21 471.42 C 489.15 471.66 488.69 472.31 488.83 473.38 C 489.29 476.52 490.85 478.01 493.51 477.87 C 511.79 476.95 530.12 476.54 548.52 476.64 C 551.56 476.67 556.71 478.81 559.75 477.80 Z" fill="#d57784" fill-rule="nonzero" node-id="193" stroke="none" target-height="58.491974" target-width="113.14502" target-x="459.099" target-y="457.514"></path><path d="M 889.77 493.51 L 887.77 499.71 L 815.99 504.67 C 801.89 501.36 787.97 500.90 774.23 503.29 C 773.05 503.51 771.99 503.23 771.04 502.46 C 768.15 500.05 767.25 497.11 768.36 493.66 C 807.21 481.66 846.38 471.71 885.86 463.82 C 886.26 463.73 886.67 463.75 887.06 463.88 C 887.45 464.00 887.80 464.22 888.08 464.52 C 888.36 464.82 888.56 465.18 888.66 465.58 C 888.76 465.98 888.75 466.39 888.64 466.79 C 886.11 476.15 886.48 485.06 889.77 493.51 Z" fill="#fcecdc" fill-rule="nonzero" node-id="195" stroke="none" target-height="40.936005" target-width="122.513" target-x="767.254" target-y="463.734"></path><path d="M 559.75 477.80 C 556.71 478.81 551.56 476.67 548.52 476.64 C 530.12 476.54 511.78 476.95 493.51 477.87 C 490.85 478.01 489.29 476.52 488.83 473.38 C 488.69 472.31 489.15 471.66 490.21 471.42 C 514.95 466.31 536.79 460.52 560.18 473.01 C 560.63 473.26 561.00 473.63 561.25 474.08 C 561.49 474.53 561.59 475.04 561.55 475.55 C 561.50 476.06 561.31 476.54 560.99 476.94 C 560.67 477.34 560.24 477.64 559.75 477.80 Z" fill="#fcd9c8" fill-rule="nonzero" node-id="197" stroke="none" target-height="18.290009" target-width="72.905" target-x="488.689" target-y="460.52"></path><path d="M 282.10 477.98 C 284.06 488.53 286.83 493.70 290.43 493.48 L 321.90 503.76 C 329.97 507.31 337.30 508.91 343.89 508.55 C 345.27 507.94 346.58 508.15 347.84 509.16 C 348.75 509.88 348.79 510.66 347.95 511.48 C 346.40 512.98 345.93 514.91 346.53 517.27 C 355.77 554.14 337.70 570.91 308.18 584.86 C 293.64 591.74 280.86 600.72 269.82 611.80 L 247.26 618.39 C 245.84 618.80 244.63 618.47 243.64 617.38 C 221.30 593.31 206.14 565.36 198.15 533.54 C 197.45 530.81 198.50 529.33 201.30 529.12 L 248.75 525.24 L 265.19 523.25 C 265.60 523.20 266.01 523.26 266.38 523.43 C 266.76 523.61 267.08 523.88 267.31 524.22 C 267.55 524.55 267.68 524.95 267.70 525.36 C 267.72 525.77 267.63 526.18 267.43 526.55 L 262.58 535.46 C 261.95 536.59 261.00 537.31 259.72 537.63 C 255.71 538.55 251.74 539.54 247.80 540.60 C 237.12 543.46 225.60 542.63 215.35 546.43 C 214.65 546.67 214.68 546.75 215.42 546.68 L 254.68 542.81 C 254.85 542.79 255.01 542.80 255.17 542.85 C 255.33 542.90 255.48 542.98 255.60 543.09 C 255.72 543.20 255.82 543.34 255.89 543.49 C 255.96 543.64 255.99 543.80 255.99 543.97 C 255.99 544.28 255.99 544.58 255.99 544.87 C 255.96 545.84 255.47 546.40 254.50 546.57 L 236.18 549.58 C 235.31 549.72 234.50 550.07 233.80 550.60 C 233.11 551.13 232.55 551.82 232.19 552.61 C 231.82 553.41 231.65 554.28 231.69 555.15 C 231.74 556.02 232.00 556.87 232.45 557.62 C 234.11 560.42 236.15 561.71 238.57 561.50 C 239.02 561.47 239.47 561.61 239.82 561.90 C 240.17 562.19 240.40 562.60 240.46 563.04 C 240.53 563.49 240.41 563.94 240.15 564.30 C 239.88 564.66 239.48 564.90 239.04 564.97 L 217.09 568.63 C 216.49 568.73 216.17 569.08 216.15 569.68 C 216.15 569.97 216.11 570.32 216.04 570.73 C 215.92 571.47 216.12 572.16 216.61 572.72 C 217.10 573.28 217.87 573.69 218.84 573.91 C 219.80 574.13 220.93 574.15 222.11 573.98 C 223.28 573.80 224.47 573.43 225.53 572.90 C 231.49 569.98 237.67 569.08 244.07 570.19 C 245.28 570.41 246.16 571.06 246.72 572.14 C 248.36 575.33 251.12 576.85 255.01 576.71 C 255.14 576.71 255.27 576.68 255.38 576.63 C 255.50 576.58 255.61 576.50 255.70 576.41 C 255.79 576.32 255.87 576.21 255.91 576.08 C 255.96 575.96 255.99 575.83 255.99 575.69 L 255.99 574.25 C 255.99 574.05 256.04 573.86 256.13 573.68 C 256.22 573.51 256.35 573.36 256.51 573.24 C 256.66 573.13 256.85 573.05 257.04 573.01 C 257.23 572.98 257.43 572.99 257.62 573.05 C 260.37 573.97 262.10 575.89 262.80 578.81 C 262.90 579.30 263.15 579.74 263.50 580.10 C 263.85 580.46 264.30 580.72 264.79 580.84 C 287.79 586.34 309.77 570.99 325.60 555.96 C 334.94 547.08 332.99 531.62 329.58 520.21 C 329.27 519.10 328.63 518.22 327.66 517.56 C 320.67 512.71 312.89 515.50 306.58 514.30 C 299.32 512.95 291.99 511.96 284.60 511.33 C 283.47 511.24 282.38 511.43 281.34 511.91 C 278.32 513.24 277.12 515.45 277.72 518.54 C 277.94 519.82 277.40 520.53 276.12 520.68 L 249.69 523.50 L 198.73 526.44 C 197.40 526.51 196.84 525.89 197.06 524.59 L 198.29 516.48 L 201.01 510.75 C 201.54 509.69 201.60 508.58 201.19 507.42 C 196.77 494.78 212.45 493.73 219.84 488.95 C 220.85 488.29 222.04 487.96 223.25 488.01 C 236.47 488.55 252.62 491.49 265.22 488.19 C 266.40 487.88 267.45 487.24 268.23 486.34 C 272.05 481.90 276.67 479.11 282.10 477.98 Z" fill="#fcecdc" fill-rule="nonzero" node-id="199" stroke="none" target-height="140.828" target-width="158.99701" target-x="196.772" target-y="477.977"></path><path d="M 889.77 493.51 L 892.45 493.62 C 893.95 493.67 894.46 494.42 894.00 495.87 L 893.39 497.86 C 892.93 499.26 893.45 499.96 894.95 499.96 L 896.98 499.93 C 895.79 508.79 892.73 516.85 887.78 524.12 C 887.00 525.23 886.98 526.36 887.70 527.52 L 893.35 536.43 L 876.58 533.83 C 875.45 533.66 875.11 533.04 875.57 531.98 L 886.80 505.50 C 888.08 504.22 888.40 502.29 887.78 499.71 L 889.77 493.51 Z" fill="#bda194" fill-rule="nonzero" node-id="201" stroke="none" target-height="42.91797" target-width="21.863953" target-x="875.111" target-y="493.515"></path><path d="M 756.77 495.18 L 758.59 495.72 C 755.52 499.35 752.44 501.06 749.35 500.87 C 751.48 498.38 753.95 496.49 756.77 495.18 Z" fill="#715337" fill-rule="nonzero" node-id="203" stroke="none" target-height="5.878998" target-width="9.236023" target-x="749.35" target-y="495.181"></path><path d="M 921.42 498.15 C 944.84 501.75 968.41 503.39 992.12 503.08 C 992.63 503.08 993.02 503.25 993.31 503.58 C 993.82 504.16 993.69 504.43 992.92 504.38 L 925.23 501.01 L 921.42 498.15 Z" fill="#cec3b9" fill-rule="nonzero" node-id="205" stroke="none" target-height="6.2779846" target-width="72.400024" target-x="921.422" target-y="498.151"></path><path d="M 887.77 499.71 C 888.40 502.29 888.08 504.22 886.80 505.50 C 874.56 504.25 866.19 503.84 861.70 504.27 C 829.71 507.44 797.70 510.74 765.68 514.20 C 765.07 514.26 764.46 514.12 763.94 513.78 C 763.42 513.44 763.04 512.94 762.86 512.35 L 761.85 509.34 C 761.27 507.56 761.91 506.72 763.76 506.84 C 781.25 507.98 798.65 507.25 815.99 504.67 L 887.77 499.71 Z" fill="#ccb4a7" fill-rule="nonzero" node-id="207" stroke="none" target-height="14.557007" target-width="127.137024" target-x="761.266" target-y="499.708"></path><path d="M 846.63 788.26 C 848.30 783.40 851.98 779.78 857.68 777.39 C 858.91 776.88 859.49 775.97 859.42 774.64 C 859.37 773.17 858.81 771.48 857.75 769.57 L 872.42 735.99 L 872.67 728.57 C 876.87 719.25 880.50 710.04 883.54 700.93 C 883.78 700.21 883.77 699.61 883.50 699.12 C 883.12 698.45 882.76 698.47 882.45 699.20 C 871.01 725.47 853.02 747.46 828.49 765.19 L 817.84 752.47 C 817.11 751.63 817.10 750.78 817.80 749.94 C 837.19 726.76 849.63 700.25 855.11 670.40 C 860.90 653.09 864.93 635.48 867.20 617.56 C 868.24 613.63 868.46 609.97 867.86 606.59 C 867.45 604.41 866.71 604.29 865.65 606.23 C 854.38 626.54 844.71 642.88 822.91 654.14 C 822.67 654.28 822.39 654.33 822.12 654.28 C 821.85 654.24 821.60 654.09 821.42 653.88 C 821.25 653.66 821.16 653.39 821.16 653.11 C 821.17 652.84 821.27 652.57 821.46 652.37 C 837.72 632.88 855.61 614.05 869.34 593.37 C 882.04 574.22 894.25 554.75 905.96 534.95 C 906.12 534.66 906.20 534.33 906.19 533.99 C 906.17 533.66 906.06 533.34 905.86 533.07 C 905.67 532.80 905.40 532.59 905.09 532.46 C 904.78 532.34 904.44 532.31 904.11 532.38 C 899.47 533.44 895.76 532.26 892.96 528.83 C 892.35 528.10 892.28 527.32 892.74 526.47 L 905.88 502.68 C 906.42 501.74 907.20 501.35 908.24 501.52 C 914.73 502.61 920.26 506.06 924.83 511.88 C 1002.41 610.90 953.15 738.89 846.63 788.26 Z" fill="#d7cab8" fill-rule="nonzero" node-id="209" stroke="none" target-height="286.907" target-width="185.30798" target-x="817.102" target-y="501.35"></path><path d="M 323.86 502.89 L 343.89 508.55 C 337.30 508.91 329.97 507.31 321.90 503.76 C 323.26 503.62 323.91 503.33 323.86 502.89 Z" fill="#bba99b" fill-rule="nonzero" node-id="211" stroke="none" target-height="6.012024" target-width="21.984009" target-x="321.905" target-y="502.895"></path><path d="M 491.66 507.93 L 510.17 514.23 C 503.21 513.65 496.95 511.87 491.37 508.87 C 491.47 508.56 491.56 508.24 491.66 507.93 Z" fill="#a8615d" fill-rule="nonzero" node-id="213" stroke="none" target-height="6.302002" target-width="18.796997" target-x="491.369" target-y="507.93"></path><path d="M 248.75 525.24 L 249.69 523.50 L 276.13 520.68 C 277.41 520.53 277.94 519.82 277.72 518.54 C 277.12 515.45 278.32 513.24 281.34 511.91 C 282.38 511.43 283.47 511.24 284.60 511.33 C 291.99 511.96 299.32 512.95 306.58 514.30 C 312.89 515.50 320.67 512.71 327.66 517.56 C 328.63 518.22 329.27 519.10 329.58 520.21 C 332.99 531.62 334.94 547.08 325.60 555.96 C 309.77 570.99 287.79 586.34 264.79 580.84 C 264.30 580.72 263.85 580.46 263.50 580.10 C 263.15 579.74 262.91 579.30 262.80 578.81 C 262.10 575.89 260.37 573.97 257.62 573.05 C 257.43 572.99 257.23 572.98 257.04 573.01 C 256.85 573.05 256.67 573.13 256.51 573.24 C 256.35 573.36 256.22 573.51 256.13 573.68 C 256.04 573.86 255.99 574.05 255.99 574.25 L 255.99 575.69 C 255.99 575.83 255.96 575.96 255.91 576.08 C 255.87 576.20 255.79 576.32 255.70 576.41 C 255.61 576.50 255.50 576.58 255.38 576.63 C 255.27 576.68 255.14 576.71 255.01 576.71 C 251.12 576.85 248.36 575.33 246.72 572.14 C 246.16 571.06 245.28 570.41 244.07 570.19 C 237.68 569.08 231.49 569.98 225.53 572.90 C 224.47 573.43 223.28 573.80 222.11 573.98 C 220.93 574.15 219.80 574.13 218.84 573.91 C 217.87 573.69 217.10 573.28 216.61 572.72 C 216.12 572.16 215.92 571.47 216.04 570.73 C 216.11 570.32 216.15 569.97 216.15 569.68 C 216.17 569.08 216.49 568.73 217.09 568.63 L 239.04 564.97 C 239.48 564.90 239.88 564.66 240.15 564.30 C 240.41 563.94 240.53 563.49 240.47 563.04 C 240.40 562.60 240.17 562.19 239.82 561.90 C 239.47 561.61 239.02 561.47 238.57 561.50 C 236.15 561.71 234.11 560.42 232.45 557.62 C 232.00 556.87 231.74 556.02 231.69 555.15 C 231.65 554.28 231.82 553.41 232.19 552.61 C 232.55 551.82 233.11 551.13 233.81 550.60 C 234.50 550.07 235.31 549.72 236.18 549.58 L 254.50 546.57 C 255.47 546.40 255.97 545.84 255.99 544.87 C 255.99 544.58 255.99 544.28 255.99 543.97 C 255.99 543.80 255.96 543.64 255.89 543.49 C 255.82 543.34 255.72 543.20 255.60 543.09 C 255.48 542.98 255.33 542.90 255.17 542.85 C 255.01 542.80 254.85 542.79 254.69 542.81 L 215.42 546.68 C 214.68 546.75 214.65 546.67 215.35 546.43 C 225.60 542.63 237.12 543.46 247.80 540.60 C 251.74 539.54 255.71 538.55 259.72 537.63 C 261.00 537.31 261.95 536.59 262.58 535.46 L 267.43 526.55 C 267.63 526.18 267.72 525.77 267.70 525.36 C 267.68 524.95 267.55 524.55 267.31 524.22 C 267.08 523.87 266.76 523.61 266.39 523.43 C 266.01 523.26 265.60 523.20 265.19 523.25 L 248.75 525.24 Z" fill="#fcd9c8" fill-rule="nonzero" node-id="215" stroke="none" target-height="75.104004" target-width="120.29201" target-x="214.652" target-y="511.237"></path><path d="M 519.55 515.43 C 520.10 516.32 520.01 517.78 519.26 519.81 C 517.18 521.28 515.61 523.59 514.55 526.73 L 503.94 556.93 C 510.20 579.75 530.52 585.04 545.84 564.36 C 535.12 589.57 513.43 581.31 502.42 562.51 C 501.74 561.35 500.82 561.10 499.66 561.75 C 489.92 567.29 480.25 576.56 469.57 579.46 C 467.56 580.02 467.37 579.63 468.99 578.30 C 473.60 574.53 478.25 570.94 482.93 567.51 C 503.43 552.55 505.02 536.58 513.17 516.01 L 519.55 515.43 Z" fill="#170f0a" fill-rule="nonzero" node-id="217" stroke="none" target-height="74.138" target-width="78.472015" target-x="467.369" target-y="515.427"></path><path d="M 519.55 515.43 L 523.02 515.46 L 526.03 523.43 C 526.39 525.39 524.79 525.57 521.21 523.97 C 519.96 522.98 519.30 521.60 519.26 519.81 C 520.00 517.78 520.10 516.32 519.55 515.43 Z" fill="#bda194" fill-rule="nonzero" node-id="219" stroke="none" target-height="10.140991" target-width="7.13501" target-x="519.257" target-y="515.427"></path><path d="M 523.02 515.46 L 527.84 515.14 C 534.12 541.48 548.80 561.15 571.88 574.14 C 572.99 574.76 572.98 575.38 571.85 575.98 C 571.19 576.35 570.40 576.30 569.46 575.84 C 562.19 572.36 555.25 568.38 548.63 563.89 C 546.70 563.19 545.61 562.11 545.37 560.66 L 532.11 538.24 L 526.03 523.43 L 523.02 515.46 Z" fill="#170f0a" fill-rule="nonzero" node-id="221" stroke="none" target-height="61.207947" target-width="49.968018" target-x="523.024" target-y="515.137"></path><path d="M 519.26 519.81 C 519.31 521.60 519.96 522.98 521.21 523.97 C 519.28 528.10 517.06 529.02 514.55 526.73 C 515.61 523.59 517.18 521.28 519.26 519.81 Z" fill="#715337" fill-rule="nonzero" node-id="223" stroke="none" target-height="9.210999" target-width="6.6640015" target-x="514.549" target-y="519.809"></path><path d="M 526.03 523.43 L 532.11 538.24 C 518.91 534.48 512.85 537.19 513.93 546.39 L 503.94 556.93 L 514.55 526.73 C 517.06 529.02 519.28 528.10 521.21 523.97 C 524.79 525.57 526.39 525.39 526.03 523.43 Z" fill="#4e423d" fill-rule="nonzero" node-id="225" stroke="none" target-height="33.500977" target-width="28.177002" target-x="503.937" target-y="523.431"></path><path d="M 180.04 526.08 L 179.93 531.18 C 126.47 538.32 73.96 544.73 20.90 555.77 C 20.85 555.78 20.80 555.77 20.76 555.74 C 20.71 555.72 20.68 555.68 20.67 555.63 C 20.65 555.59 20.65 555.53 20.66 555.49 C 20.68 555.44 20.71 555.40 20.75 555.38 C 25.85 553.35 31.04 551.72 36.33 550.49 C 83.60 539.55 131.51 531.41 180.04 526.08 Z" fill="#b4aaa6" fill-rule="nonzero" node-id="227" stroke="none" target-height="29.705017" target-width="159.3916" target-x="20.6484" target-y="526.075"></path><path d="M 532.11 538.24 L 545.37 560.66 C 539.84 559.09 535.46 556.24 532.22 552.12 C 531.68 551.43 530.93 550.94 530.09 550.70 L 513.93 546.39 C 512.85 537.19 518.91 534.48 532.11 538.24 Z" fill="#c6626b" fill-rule="nonzero" node-id="229" stroke="none" target-height="26.186035" target-width="32.523987" target-x="512.846" target-y="534.477"></path><path d="M 201.91 576.78 C 202.30 582.84 205.78 590.35 212.35 599.31 C 211.89 599.74 211.60 600.27 211.48 600.90 C 211.28 601.82 210.73 602.28 209.81 602.28 L 208.22 602.24 C 197.11 585.34 189.12 567.35 184.24 548.28 C 186.99 546.68 188.55 546.86 188.91 548.82 C 190.80 558.91 195.13 568.23 201.91 576.78 Z" fill="#170f0a" fill-rule="nonzero" node-id="231" stroke="none" target-height="55.59503" target-width="28.105988" target-x="184.24" target-y="546.683"></path><path d="M 513.93 546.39 L 530.09 550.70 C 530.93 550.94 531.68 551.43 532.22 552.12 C 535.46 556.24 539.84 559.09 545.37 560.66 C 545.61 562.11 546.70 563.19 548.63 563.89 L 545.84 564.36 C 530.52 585.04 510.20 579.75 503.94 556.93 L 513.93 546.39 Z" fill="#fba2b7" fill-rule="nonzero" node-id="233" stroke="none" target-height="38.64502" target-width="44.692993" target-x="503.937" target-y="546.393"></path><path d="M 884.04 552.19 C 865.50 584.03 842.60 614.53 815.34 643.67 C 782.79 678.47 758.37 704.13 742.07 720.67 C 742.04 720.72 742.02 720.76 742.02 720.82 C 742.02 720.87 742.03 720.92 742.06 720.96 C 742.09 721.00 742.13 721.04 742.17 721.06 C 742.22 721.08 742.27 721.08 742.32 721.07 C 751.85 717.56 763.11 704.27 771.08 697.39 C 772.10 696.52 772.73 696.73 773.00 698.04 C 782.85 750.15 757.72 796.33 714.36 824.22 C 690.99 839.26 667.49 842.90 643.85 835.12 C 631.46 831.03 643.52 818.21 631.39 813.25 C 631.06 813.11 630.71 813.06 630.35 813.11 C 630.00 813.15 629.67 813.29 629.39 813.52 C 629.11 813.74 628.89 814.03 628.76 814.37 C 628.63 814.70 628.58 815.06 628.63 815.42 L 630.63 828.10 C 630.67 828.38 630.65 828.66 630.57 828.93 C 630.49 829.20 630.35 829.45 630.15 829.65 C 629.96 829.86 629.73 830.02 629.46 830.12 C 629.20 830.22 628.92 830.26 628.63 830.23 L 613.64 828.86 C 612.93 828.79 612.25 828.56 611.64 828.18 C 611.04 827.80 610.53 827.29 610.16 826.68 C 609.79 826.07 609.57 825.38 609.51 824.67 C 609.46 823.97 609.57 823.25 609.84 822.59 C 616.19 806.95 626.98 796.70 642.22 791.84 C 655.91 787.50 667.46 793.40 670.39 807.60 C 670.59 808.44 670.96 808.54 671.52 807.89 C 671.76 807.60 671.98 807.26 672.17 806.87 C 672.36 806.49 672.40 806.08 672.28 805.64 C 669.21 795.45 662.44 789.05 651.96 786.45 C 650.92 786.18 649.89 786.22 648.88 786.55 C 628.45 793.44 610.35 803.72 604.15 825.63 C 603.79 826.87 603.15 827.05 602.23 826.18 C 592.86 817.53 591.49 806.58 598.10 793.33 C 599.41 790.36 601.92 787.59 605.64 785.03 C 606.75 783.61 607.30 781.85 607.30 779.75 C 617.35 777.07 626.06 776.72 633.45 778.70 C 647.82 782.51 648.19 781.45 634.58 775.51 C 628.85 773.02 622.74 772.10 616.25 772.75 C 612.99 770.56 614.12 768.48 619.65 766.53 C 620.76 766.14 621.60 765.43 622.15 764.39 C 623.31 762.22 623.78 759.83 623.57 757.22 C 625.69 756.88 627.17 756.06 628.02 754.75 C 628.11 754.61 628.16 754.45 628.17 754.28 C 628.17 754.11 628.12 753.94 628.03 753.80 C 627.93 753.66 627.80 753.54 627.65 753.48 C 627.49 753.41 627.32 753.39 627.15 753.41 C 587.19 760.80 546.84 763.65 506.11 761.96 C 496.79 761.58 487.61 760.04 478.58 757.36 C 477.62 757.07 478.00 757.89 479.74 759.83 C 478.68 759.32 477.88 759.97 477.35 761.78 C 475.01 757.39 471.61 753.46 467.14 750.01 C 466.95 749.87 466.78 749.82 466.63 749.87 C 466.37 749.91 466.15 750.12 465.98 750.48 C 465.88 750.70 465.94 750.93 466.16 751.17 L 473.12 759.46 C 471.43 760.53 470.34 762.42 469.86 765.15 C 469.66 766.28 469.07 766.55 468.08 765.95 C 461.34 761.67 449.68 760.55 437.95 760.37 C 415.71 760.01 395.46 758.20 374.24 756.71 C 365.33 756.10 357.00 752.69 348.09 750.88 L 339.22 726.29 C 339.26 725.47 339.43 724.84 339.72 724.40 C 340.45 723.29 341.29 723.21 342.26 724.15 C 352.09 733.64 359.69 735.35 365.08 729.29 C 369.54 730.21 374.22 731.64 379.09 733.57 C 379.99 733.93 381.17 733.87 382.64 733.39 C 383.58 733.07 383.61 732.72 382.71 732.34 C 331.21 710.46 283.74 681.93 240.31 646.75 C 235.63 642.99 229.37 640.74 224.08 637.81 C 223.29 637.37 222.37 637.25 221.51 637.48 C 219.77 637.96 218.33 637.61 217.20 636.43 C 217.15 636.39 217.12 636.34 217.11 636.28 C 217.09 636.22 217.10 636.15 217.12 636.10 C 217.15 636.04 217.19 636.00 217.24 635.96 C 217.29 635.93 217.35 635.92 217.42 635.92 C 227.51 635.88 237.22 633.38 246.53 628.43 L 249.29 626.25 L 249.72 629.19 C 249.92 630.54 250.70 631.12 252.08 630.93 L 261.78 629.69 C 262.35 629.62 262.93 629.66 263.48 629.83 C 264.03 630.00 264.54 630.29 264.97 630.67 C 308.21 669.04 356.82 698.85 410.78 720.09 C 551.49 775.51 696.15 714.15 792.27 606.91 L 807.70 595.18 C 808.17 594.82 808.57 594.37 808.86 593.85 C 809.16 593.34 809.35 592.77 809.42 592.18 C 809.50 591.60 809.46 591.00 809.29 590.43 C 809.13 589.87 808.86 589.34 808.49 588.88 L 782.71 556.57 C 778.63 554.11 776.71 551.81 776.95 549.69 C 776.98 549.39 777.08 549.11 777.23 548.85 C 777.37 548.60 777.57 548.37 777.81 548.19 C 778.04 548.01 778.32 547.88 778.60 547.81 C 778.89 547.74 779.19 547.72 779.48 547.77 C 803.99 551.61 828.45 554.53 852.86 556.53 C 863.98 557.44 873.07 554.18 884.04 552.19 Z M 658.33 830.78 L 641.46 824.29 C 640.66 823.98 640.31 824.25 640.41 825.09 C 640.53 826.44 641.13 827.43 642.22 828.06 C 647.29 830.96 652.60 832.25 658.15 831.94 C 660.01 831.84 660.07 831.45 658.33 830.78 Z" fill="#d7cab8" fill-rule="nonzero" node-id="235" stroke="none" target-height="295.175" target-width="666.951" target-x="217.093" target-y="547.723"></path><path d="M 186.49 569.43 C 186.97 569.36 187.38 569.55 187.72 570.01 C 188.27 570.80 188.08 571.31 187.14 571.53 C 136.51 583.77 85.95 593.55 35.93 608.43 C 35.54 608.55 35.29 608.46 35.17 608.14 C 35.14 608.07 35.15 607.98 35.18 607.91 C 35.22 607.84 35.27 607.78 35.35 607.75 C 83.57 590.43 133.95 577.66 186.49 569.43 Z" fill="#bdb3b0" fill-rule="nonzero" node-id="237" stroke="none" target-height="39.200012" target-width="153.12979" target-x="35.1432" target-y="569.355"></path><path d="M 212.35 599.31 C 219.55 608.69 231.69 625.28 246.54 628.43 C 237.22 633.38 227.51 635.88 217.42 635.92 C 217.35 635.92 217.29 635.93 217.24 635.96 C 217.19 636.00 217.15 636.04 217.12 636.10 C 217.10 636.15 217.09 636.22 217.11 636.28 C 217.12 636.34 217.15 636.39 217.20 636.43 C 218.33 637.61 219.77 637.96 221.51 637.48 C 222.37 637.25 223.29 637.37 224.08 637.81 C 229.37 640.74 235.63 642.99 240.31 646.75 C 283.74 681.93 331.21 710.46 382.71 732.34 C 383.61 732.72 383.58 733.07 382.64 733.39 C 381.17 733.87 379.99 733.93 379.09 733.57 C 374.22 731.64 369.54 730.21 365.08 729.29 L 339.29 719.73 C 338.03 719.25 337.45 719.68 337.55 721.04 C 337.70 722.89 338.25 724.65 339.22 726.29 L 348.09 750.88 C 361.02 791.62 389.52 833.96 434.44 839.11 C 435.43 839.23 435.88 838.79 435.81 837.80 L 435.05 826.07 C 434.98 825.64 435.08 825.20 435.33 824.85 C 435.58 824.50 435.96 824.26 436.39 824.18 C 436.82 824.11 437.26 824.21 437.61 824.47 C 437.96 824.72 438.20 825.10 438.27 825.52 L 442.33 840.52 C 455.73 843.83 468.27 843.04 479.96 838.16 C 480.52 837.93 481.02 837.57 481.41 837.11 C 481.80 836.65 482.07 836.11 482.21 835.52 C 482.57 833.86 482.28 832.25 481.34 830.70 C 489.64 827.76 493.57 822.25 493.11 814.19 C 492.09 796.32 483.23 784.89 466.52 779.89 C 452.22 775.62 445.63 780.36 433.17 785.00 C 432.93 785.07 432.82 784.99 432.84 784.74 C 432.89 784.45 432.99 784.16 433.13 783.87 C 433.32 783.54 433.64 783.26 434.07 783.04 C 459.69 770.51 479.95 776.20 494.85 800.10 C 494.29 801.11 495.04 801.50 497.09 801.26 L 497.96 805.32 C 498.23 806.55 498.93 806.87 500.06 806.29 L 501.58 805.50 C 503.35 811.92 503.57 817.62 502.27 822.59 C 501.60 825.10 502.56 826.42 505.17 826.54 C 522.14 827.36 538.36 826.96 553.81 825.34 C 558.45 824.87 562.43 821.47 568.62 823.75 C 550.59 835.96 518.17 832.95 499.92 831.17 C 498.73 831.05 497.76 831.44 496.98 832.33 C 482.10 849.86 449.68 849.90 428.57 846.35 C 401.44 841.86 381.63 827.55 366.38 805.39 C 348.54 779.43 336.73 750.33 330.96 718.07 C 330.74 716.84 330.08 715.94 328.97 715.39 C 291.37 696.26 264.14 675.26 229.44 647.48 C 225.06 644.00 219.05 641.90 214.23 639.26 C 213.43 638.82 212.78 638.15 212.37 637.33 C 211.96 636.52 211.80 635.60 211.93 634.70 C 212.05 633.80 212.44 632.96 213.05 632.29 C 213.66 631.62 214.47 631.16 215.35 630.96 L 226.00 628.50 C 226.32 628.42 226.61 628.27 226.85 628.05 C 227.09 627.83 227.27 627.56 227.38 627.25 C 227.48 626.94 227.51 626.61 227.45 626.29 C 227.39 625.97 227.25 625.67 227.05 625.42 L 208.22 602.24 L 209.81 602.28 C 210.73 602.28 211.28 601.82 211.48 600.90 C 211.60 600.27 211.89 599.74 212.35 599.31 Z" fill="#412d27" fill-rule="nonzero" node-id="239" stroke="none" target-height="250.59204" target-width="360.40503" target-x="208.217" target-y="599.308"></path><path d="M 867.20 617.56 C 864.93 635.48 860.90 653.09 855.11 670.40 L 860.25 628.86 C 859.82 624.42 862.13 620.65 867.20 617.56 Z" fill="#715337" fill-rule="nonzero" node-id="241" stroke="none" target-height="52.84204" target-width="12.096985" target-x="855.106" target-y="617.561"></path><path d="M 860.25 628.86 L 855.11 670.40 C 849.63 700.25 837.19 726.76 817.80 749.94 C 817.10 750.78 817.11 751.63 817.84 752.47 L 828.49 765.19 L 825.77 767.18 C 825.68 767.27 825.63 767.39 825.62 767.52 C 825.61 767.65 825.64 767.78 825.71 767.89 C 825.78 768.00 825.89 768.08 826.01 768.12 C 826.13 768.16 826.26 768.16 826.39 768.12 C 844.86 757.18 860.29 744.00 872.67 728.57 L 872.42 735.99 L 849.71 771.71 C 848.89 772.99 849.24 773.72 850.76 773.91 C 853.34 774.23 855.67 772.78 857.75 769.57 C 858.81 771.48 859.37 773.17 859.42 774.64 C 859.49 775.97 858.91 776.88 857.68 777.39 C 851.98 779.78 848.30 783.40 846.63 788.26 C 812.95 805.10 777.67 812.41 739.53 816.36 C 738.67 816.46 738.57 816.22 739.25 815.64 C 771.38 788.28 786.03 753.22 783.18 710.46 C 783.14 709.91 783.22 709.36 783.40 708.84 C 783.58 708.32 783.86 707.83 784.23 707.42 C 786.84 704.52 790.03 702.77 793.83 702.17 C 794.50 702.07 795.15 701.81 795.71 701.42 C 796.28 701.03 796.75 700.52 797.09 699.92 L 817.95 662.76 C 818.55 661.67 819.38 660.84 820.45 660.26 C 836.53 651.28 849.60 646.75 860.25 628.86 Z" fill="#bba99b" fill-rule="nonzero" node-id="243" stroke="none" target-height="187.59698" target-width="134.10297" target-x="738.57" target-y="628.861"></path><path d="M 800.42 673.74 C 800.15 671.97 799.51 671.49 798.50 672.29 L 811.28 655.66 C 811.37 655.55 811.48 655.46 811.61 655.41 C 811.74 655.35 811.88 655.34 812.02 655.36 C 812.16 655.38 812.29 655.44 812.39 655.53 C 812.50 655.63 812.58 655.75 812.62 655.88 C 812.72 656.19 812.82 656.50 812.91 656.79 C 813.01 657.03 812.97 657.26 812.80 657.47 L 800.42 673.74 Z" fill="#715337" fill-rule="nonzero" node-id="245" stroke="none" target-height="18.399048" target-width="14.512024" target-x="798.498" target-y="655.337"></path><path d="M 798.50 672.29 C 799.51 671.49 800.15 671.97 800.42 673.74 L 784.41 698.51 C 784.07 699.04 783.82 699.60 783.65 700.17 L 782.89 702.53 C 782.65 703.30 782.35 703.33 781.98 702.60 L 776.98 693.08 C 776.74 692.59 776.66 692.03 776.76 691.50 C 776.87 690.97 777.15 690.49 777.56 690.14 L 798.50 672.29 Z" fill="#fbf1e1" fill-rule="nonzero" node-id="247" stroke="none" target-height="31.835999" target-width="23.758057" target-x="776.66" target-y="671.49"></path><path d="M 872.67 728.57 C 860.29 744.00 844.86 757.18 826.39 768.12 C 826.26 768.16 826.13 768.16 826.01 768.12 C 825.88 768.08 825.78 768.00 825.71 767.89 C 825.64 767.78 825.61 767.65 825.62 767.52 C 825.63 767.39 825.68 767.27 825.77 767.18 L 828.49 765.19 C 853.02 747.46 871.01 725.47 882.45 699.20 C 882.76 698.47 883.12 698.45 883.50 699.12 C 883.77 699.61 883.78 700.21 883.54 700.93 C 880.50 710.04 876.87 719.25 872.67 728.57 Z" fill="#715337" fill-rule="nonzero" node-id="249" stroke="none" target-height="69.71503" target-width="58.172974" target-x="825.606" target-y="698.448"></path><path d="M 365.08 729.29 C 359.69 735.36 352.09 733.64 342.26 724.15 C 341.29 723.21 340.45 723.29 339.72 724.40 C 339.43 724.84 339.26 725.47 339.22 726.29 C 338.25 724.65 337.70 722.90 337.55 721.04 C 337.45 719.68 338.03 719.25 339.29 719.73 L 365.08 729.29 Z" fill="#bda194" fill-rule="nonzero" node-id="251" stroke="none" target-height="16.10498" target-width="27.62201" target-x="337.455" target-y="719.25"></path><path d="M 872.42 735.99 L 857.75 769.57 C 855.67 772.78 853.34 774.23 850.76 773.91 C 849.24 773.72 848.89 772.99 849.71 771.71 L 872.42 735.99 Z" fill="#bda194" fill-rule="nonzero" node-id="253" stroke="none" target-height="38.23401" target-width="23.53003" target-x="848.889" target-y="735.994"></path><path d="M 477.35 761.78 C 489.57 775.09 497.65 789.66 501.58 805.50 L 500.06 806.29 C 498.93 806.87 498.23 806.55 497.96 805.32 L 497.09 801.26 C 494.41 788.33 480.47 771.27 473.12 759.46 L 466.16 751.17 C 465.94 750.93 465.88 750.70 465.98 750.48 C 466.15 750.12 466.37 749.91 466.63 749.87 C 466.78 749.82 466.95 749.87 467.14 750.01 C 471.61 753.46 475.01 757.39 477.35 761.78 Z" fill="#170f0a" fill-rule="nonzero" node-id="255" stroke="none" target-height="57.05597" target-width="35.699005" target-x="465.884" target-y="749.817"></path><path d="M 473.12 759.46 C 480.47 771.27 494.41 788.33 497.09 801.26 C 495.04 801.50 494.29 801.11 494.85 800.10 C 479.95 776.20 459.69 770.51 434.07 783.04 C 433.64 783.26 433.32 783.54 433.13 783.87 C 432.99 784.16 432.89 784.45 432.84 784.74 C 432.82 784.99 432.93 785.07 433.17 785.00 C 445.63 780.36 452.22 775.62 466.52 779.89 C 483.23 784.89 492.09 796.32 493.11 814.19 C 493.57 822.25 489.64 827.76 481.34 830.70 L 471.81 821.18 C 471.71 814.73 469.77 811.06 465.98 810.17 C 464.60 809.86 464.05 810.39 464.31 811.76 L 469.06 835.70 L 442.33 840.52 L 438.27 825.52 C 438.20 825.10 437.96 824.72 437.61 824.47 C 437.26 824.21 436.82 824.11 436.39 824.18 C 435.96 824.26 435.58 824.50 435.33 824.85 C 435.08 825.20 434.98 825.64 435.05 826.07 L 435.81 837.80 C 435.88 838.79 435.42 839.23 434.43 839.11 C 389.52 833.96 361.02 791.62 348.09 750.88 C 357.00 752.69 365.33 756.10 374.24 756.71 C 395.46 758.20 415.71 760.01 437.95 760.37 C 449.68 760.55 461.34 761.67 468.08 765.95 C 469.07 766.55 469.66 766.28 469.86 765.15 C 470.34 762.42 471.43 760.53 473.12 759.46 Z" fill="#fdfaee" fill-rule="nonzero" node-id="257" stroke="none" target-height="89.63898" target-width="149" target-x="348.091" target-y="750.88"></path><path d="M 623.57 757.22 C 582.74 768.78 540.19 771.15 495.93 764.32 C 488.62 763.18 483.22 761.68 479.74 759.83 C 478.00 757.89 477.62 757.07 478.58 757.36 C 487.62 760.04 496.79 761.58 506.11 761.96 C 546.84 763.65 587.19 760.80 627.15 753.41 C 627.32 753.39 627.49 753.41 627.65 753.48 C 627.80 753.54 627.93 753.66 628.03 753.80 C 628.12 753.94 628.17 754.11 628.17 754.28 C 628.16 754.45 628.11 754.61 628.02 754.75 C 627.17 756.06 625.69 756.88 623.57 757.22 Z" fill="#412d27" fill-rule="nonzero" node-id="259" stroke="none" target-height="17.764038" target-width="150.55002" target-x="477.618" target-y="753.386"></path><path d="M 623.57 757.22 C 623.78 759.83 623.31 762.22 622.15 764.39 C 621.60 765.43 620.76 766.14 619.65 766.53 C 614.12 768.48 612.99 770.56 616.25 772.76 C 588.83 776.88 562.21 786.95 569.06 820.74 C 569.56 821.35 569.42 822.35 568.62 823.75 C 562.43 821.47 558.45 824.87 553.81 825.34 C 538.36 826.96 522.14 827.36 505.17 826.54 C 502.56 826.42 501.60 825.10 502.27 822.59 C 503.57 817.62 503.35 811.92 501.58 805.50 C 497.65 789.66 489.57 775.09 477.35 761.78 C 477.88 759.97 478.68 759.32 479.74 759.83 C 483.22 761.68 488.62 763.18 495.93 764.32 C 540.19 771.15 582.74 768.78 623.57 757.22 Z" fill="#cec3b9" fill-rule="nonzero" node-id="261" stroke="none" target-height="70.14197" target-width="146.43002" target-x="477.353" target-y="757.218"></path><path d="M 607.30 779.75 C 607.30 781.85 606.75 783.61 605.64 785.03 C 605.59 784.38 605.42 783.85 605.13 783.44 C 604.36 782.28 603.54 782.25 602.67 783.33 L 595.57 792.24 C 587.99 802.60 586.70 813.62 591.69 825.31 C 592.10 826.27 591.79 826.70 590.75 826.58 C 577.46 825.16 572.75 815.49 576.12 803.22 C 580.15 788.46 590.55 780.64 607.30 779.75 Z" fill="#d9c6b9" fill-rule="nonzero" node-id="263" stroke="none" target-height="46.950012" target-width="34.552002" target-x="572.751" target-y="779.746"></path><path d="M 605.64 785.03 C 601.92 787.59 599.41 790.36 598.10 793.33 C 597.07 792.67 596.22 792.31 595.57 792.24 L 602.67 783.33 C 603.54 782.25 604.36 782.28 605.13 783.44 C 605.42 783.85 605.59 784.38 605.64 785.03 Z" fill="#715337" fill-rule="nonzero" node-id="265" stroke="none" target-height="11.082031" target-width="10.069031" target-x="595.568" target-y="782.245"></path><path d="M 862.93 792.53 C 900.27 793.91 998.53 803.87 1022.87 830.02 C 1023.69 830.91 1024.06 831.97 1023.99 833.20 C 1021.64 867.03 844.86 886.12 814.94 889.12 C 813.13 879.27 814.51 870.15 819.07 861.74 C 819.68 860.61 819.97 859.30 819.90 857.98 C 819.13 846.05 821.47 834.74 826.93 824.04 C 827.29 823.34 827.50 822.56 827.53 821.77 C 827.56 820.98 827.41 820.19 827.11 819.46 C 826.80 818.74 826.34 818.08 825.75 817.55 C 825.16 817.02 824.46 816.63 823.71 816.40 C 820.76 815.50 819.96 813.11 821.32 809.23 L 862.93 792.53 Z" fill="#d9c6b9" fill-rule="nonzero" node-id="267" stroke="none" target-height="96.59302" target-width="210.93005" target-x="813.13" target-y="792.531"></path><path d="M 366.38 805.39 C 381.63 827.55 401.44 841.86 428.57 846.35 C 449.68 849.90 482.10 849.86 496.98 832.33 C 497.76 831.44 498.73 831.05 499.92 831.17 C 518.17 832.95 550.59 835.96 568.62 823.75 C 569.42 822.35 569.56 821.35 569.06 820.74 C 572.90 827.41 577.02 831.39 585.25 832.48 C 607.29 835.40 629.22 839.23 651.02 843.96 C 678.94 850.01 704.80 842.33 727.87 826.18 C 730.66 824.18 732.98 824.22 736.13 824.11 C 764.89 823.07 793.28 818.11 821.32 809.23 C 819.96 813.11 820.76 815.50 823.71 816.40 C 824.46 816.63 825.16 817.02 825.75 817.55 C 826.34 818.08 826.80 818.74 827.11 819.46 C 827.41 820.19 827.56 820.98 827.53 821.77 C 827.50 822.56 827.29 823.34 826.93 824.04 C 821.47 834.74 819.13 846.05 819.90 857.98 C 819.97 859.30 819.68 860.61 819.07 861.74 C 814.51 870.15 813.13 879.27 814.94 889.12 C 695.54 900.93 576.14 903.73 456.75 897.53 C 415.38 895.35 233.64 882.75 211.62 850.15 C 211.30 849.67 211.14 849.10 211.16 848.52 C 211.19 847.94 211.40 847.38 211.77 846.93 C 232.63 821.69 331.97 808.76 366.38 805.39 Z" fill="#ccb4a7" fill-rule="nonzero" node-id="269" stroke="none" target-height="98.343994" target-width="616.422" target-x="211.137" target-y="805.388"></path><path d="M 471.81 821.18 L 473.40 834.65 C 473.45 835.07 473.38 835.48 473.20 835.86 C 473.02 836.23 472.74 836.55 472.38 836.76 C 472.03 836.98 471.62 837.09 471.20 837.09 C 470.79 837.08 470.38 836.95 470.04 836.72 C 469.53 836.38 469.20 836.04 469.06 835.70 L 464.31 811.76 C 464.05 810.39 464.60 809.86 465.98 810.17 C 469.77 811.06 471.71 814.73 471.81 821.18 Z" fill="#4e423d" fill-rule="nonzero" node-id="271" stroke="none" target-height="27.238037" target-width="9.405975" target-x="464.049" target-y="809.855"></path><path d="M 471.81 821.18 L 481.34 830.70 C 482.28 832.25 482.57 833.86 482.21 835.52 C 482.07 836.11 481.80 836.65 481.41 837.11 C 481.02 837.57 480.52 837.93 479.96 838.16 C 468.27 843.04 455.73 843.83 442.33 840.52 L 469.06 835.70 C 469.20 836.04 469.53 836.38 470.04 836.72 C 470.38 836.95 470.79 837.08 471.20 837.09 C 471.62 837.09 472.03 836.98 472.38 836.76 C 472.74 836.55 473.02 836.23 473.20 835.86 C 473.38 835.48 473.45 835.07 473.40 834.65 L 471.81 821.18 Z" fill="#bda194" fill-rule="nonzero" node-id="273" stroke="none" target-height="22.64801" target-width="40.238007" target-x="442.33" target-y="821.179"></path><path d="M 658.15 831.94 C 652.60 832.25 647.29 830.96 642.22 828.06 C 641.13 827.43 640.53 826.44 640.41 825.09 C 640.31 824.25 640.66 823.98 641.46 824.29 L 658.33 830.78 C 660.07 831.45 660.01 831.84 658.15 831.94 Z" fill="#715337" fill-rule="nonzero" node-id="275" stroke="none" target-height="8.27002" target-width="19.763" target-x="640.31" target-y="823.98"></path></g></svg>