<?xml version="1.0" standalone="no"?><!DOCTYPE svg PUBLIC "-//W3C//DTD SVG 1.1//EN" "http://www.w3.org/Graphics/SVG/1.1/DTD/svg11.dtd"><svg height="1024" node-id="1" sillyvg="true" template-height="1024" template-width="1024" version="1.1" viewBox="0 0 1024 1024" width="1024" xmlns="http://www.w3.org/2000/svg" xmlns:xlink="http://www.w3.org/1999/xlink"><defs node-id="98"><clipPath id="clip0_2_4803" node-id="95"><path d="M 0.00 0.00 L 1024.00 0.00 L 1024.00 1024.00 L 0.00 1024.00 Z" fill="#000000" fill-rule="nonzero" node-id="101" stroke="none" target-height="1024" target-width="1024" target-x="0" target-y="0"></path></clipPath></defs><g clip-path="url(#clip0_2_4803)" id="sillyvg_g_0" node-id="105"><path d="M 0.00 0.00 L 1024.00 0.00 L 1024.00 1024.00 L 0.00 1024.00 Z" fill="#ffffff" fill-rule="nonzero" node-id="107" stroke="none" target-height="1024" target-width="1024" target-x="0" target-y="0"></path><path d="M 0.00 0.00 L 1024.00 0.00 L 1024.00 1024.00 L 0.00 1024.00 Z" fill="#ffffff" fill-rule="nonzero" node-id="109" stroke="none" target-height="1024" target-width="1024" target-x="0" target-y="0"></path><path d="M 638.68 43.16 C 637.19 44.43 636.24 45.77 635.81 47.16 C 633.84 45.92 632.08 45.36 630.53 45.48 C 628.47 45.66 628.23 46.44 629.81 47.80 C 640.24 56.69 646.96 67.35 649.97 79.79 L 649.78 104.46 L 644.91 125.48 C 644.91 125.52 644.89 125.55 644.86 125.57 C 644.83 125.59 644.79 125.60 644.75 125.60 C 644.72 125.59 644.69 125.57 644.66 125.54 C 644.64 125.51 644.63 125.47 644.64 125.44 L 644.91 92.76 C 644.31 91.34 644.05 89.88 644.14 88.39 C 641.37 57.63 621.11 45.21 591.26 49.76 C 556.22 55.10 528.81 72.04 509.03 100.59 C 488.18 130.76 476.40 190.20 514.72 213.31 C 518.11 215.38 526.64 219.38 540.29 225.33 C 540.96 225.63 541.50 225.48 541.93 224.87 L 564.00 193.43 C 564.58 192.58 565.06 192.62 565.46 193.56 C 565.67 194.05 565.59 194.52 565.23 194.97 C 556.13 205.90 550.47 219.50 548.25 235.79 C 542.37 285.55 558.52 328.89 596.72 365.81 C 597.09 366.18 597.57 366.42 598.08 366.51 C 598.60 366.59 599.13 366.52 599.60 366.30 C 600.07 366.07 600.46 365.71 600.72 365.26 C 600.98 364.81 601.09 364.28 601.04 363.76 C 600.01 352.45 601.70 340.58 606.10 328.18 L 613.56 315.21 C 629.34 295.06 645.63 278.63 662.43 265.92 C 662.77 265.68 663.21 265.71 663.75 266.01 C 664.57 266.41 664.62 266.89 663.89 267.47 C 630.31 294.09 598.04 329.72 608.14 376.01 C 608.26 376.48 608.22 376.97 608.05 377.42 C 607.88 377.88 607.58 378.27 607.18 378.55 C 606.78 378.83 606.30 378.99 605.81 379.01 C 605.32 379.02 604.83 378.90 604.41 378.64 C 551.35 345.93 535.15 298.37 536.11 237.66 C 536.13 236.14 535.41 235.19 533.92 234.79 L 512.44 229.06 C 468.71 199.66 470.85 153.70 489.64 110.15 C 490.40 108.39 489.84 107.64 487.96 107.92 C 437.53 115.23 390.80 132.04 347.75 158.34 L 340.60 154.79 C 387.32 121.42 438.38 102.24 493.78 97.27 C 494.49 97.21 495.17 97.01 495.79 96.68 C 496.40 96.35 496.95 95.90 497.38 95.36 C 533.27 49.64 580.37 32.24 638.68 43.16 Z" fill="#412d27" fill-rule="nonzero" node-id="111" stroke="none" target-height="346.787" target-width="324.018" target-x="340.602" target-y="32.237"></path><path d="M 638.68 43.16 C 697.69 52.87 736.79 85.95 756.00 142.41 C 756.39 143.66 757.15 143.96 758.27 143.32 C 794.47 123.36 833.14 115.55 874.28 119.89 C 875.21 119.98 876.12 120.27 876.96 120.75 L 887.15 126.98 C 904.39 145.89 916.86 168.38 924.56 194.47 C 935.76 231.06 940.02 268.70 937.35 307.38 C 937.26 308.89 937.64 310.40 938.44 311.70 C 960.83 347.88 979.72 380.51 990.73 422.06 C 999.24 454.23 1015.99 480.99 1023.72 514.26 C 1023.89 515.00 1023.87 515.77 1023.65 516.49 C 1023.44 517.22 1023.04 517.87 1022.50 518.40 C 1021.31 519.58 1019.98 520.01 1018.49 519.67 C 1016.12 518.70 1015.17 517.17 1015.62 515.08 C 1015.96 513.65 1015.85 512.27 1015.31 510.94 L 993.69 455.74 L 985.41 432.25 L 976.90 402.72 C 940.76 322.96 887.72 256.64 817.75 203.76 C 817.19 203.33 816.72 202.80 816.38 202.18 C 816.03 201.57 815.82 200.89 815.75 200.19 C 815.68 199.48 815.76 198.78 815.98 198.11 C 816.20 197.44 816.56 196.82 817.03 196.29 C 834.08 177.39 853.11 160.83 874.14 146.60 C 874.52 146.34 874.96 146.16 875.41 146.09 C 875.87 146.01 876.33 146.04 876.77 146.16 C 877.21 146.28 877.61 146.50 877.94 146.79 C 878.27 147.09 878.53 147.46 878.69 147.87 C 878.78 148.12 878.64 148.75 878.28 149.78 C 858.53 165.12 846.88 186.60 824.31 198.66 C 820.97 200.45 820.86 202.41 823.99 204.53 C 852.20 224.04 877.36 246.23 899.44 271.11 C 900.78 272.57 902.91 273.10 905.86 272.70 L 924.24 293.00 C 924.73 299.37 926.78 305.03 930.39 309.97 C 930.51 310.16 930.71 310.30 930.92 310.35 C 931.14 310.40 931.38 310.37 931.58 310.27 C 931.78 310.16 931.93 309.98 932.00 309.76 C 932.08 309.55 932.07 309.32 931.98 309.11 L 928.98 301.64 C 928.49 300.46 928.51 299.28 929.02 298.10 C 930.17 295.49 930.02 293.45 928.57 292.00 C 923.15 235.39 921.10 190.92 890.61 140.68 C 863.95 111.74 795.27 135.91 763.33 148.56 C 759.26 152.96 755.79 155.43 752.90 155.97 C 742.99 120.78 724.87 91.87 698.57 69.24 C 698.25 68.97 697.86 68.82 697.44 68.79 C 697.03 68.77 696.62 68.87 696.27 69.09 C 695.92 69.32 695.65 69.64 695.50 70.03 C 695.35 70.41 695.32 70.84 695.43 71.24 L 706.30 111.42 C 706.39 111.66 706.38 111.93 706.26 112.16 C 706.15 112.39 705.96 112.57 705.71 112.65 C 705.47 112.73 705.21 112.72 704.98 112.61 C 704.75 112.50 704.57 112.30 704.49 112.06 L 691.42 81.39 L 688.24 65.32 C 687.97 63.90 687.16 62.89 685.83 62.32 C 669.93 55.25 653.26 50.20 635.81 47.16 C 636.24 45.77 637.19 44.43 638.68 43.16 Z" fill="#2e1e1b" fill-rule="nonzero" node-id="113" stroke="none" target-height="476.84976" target-width="388.07703" target-x="635.813" target-y="43.1592"></path><path d="M 635.81 47.16 C 653.26 50.20 669.93 55.25 685.83 62.32 C 687.16 62.89 687.97 63.90 688.24 65.32 L 691.42 81.39 C 682.32 93.99 661.02 85.21 649.97 79.79 C 646.96 67.35 640.24 56.69 629.81 47.80 C 628.23 46.44 628.47 45.66 630.53 45.48 C 632.08 45.36 633.84 45.92 635.81 47.16 Z" fill="#fdfbf5" fill-rule="nonzero" node-id="115" stroke="none" target-height="48.633102" target-width="63.194946" target-x="628.228" target-y="45.3583"></path><path d="M 644.14 88.39 C 634.40 87.26 620.39 83.66 611.19 85.16 C 609.04 85.53 609.04 85.89 611.19 86.25 L 633.72 90.26 C 634.46 90.38 635.16 90.71 635.72 91.22 C 638.39 93.64 641.46 94.16 644.91 92.76 L 644.64 125.44 C 644.63 125.47 644.64 125.51 644.66 125.54 C 644.69 125.57 644.72 125.59 644.75 125.60 C 644.79 125.60 644.83 125.59 644.86 125.57 C 644.89 125.55 644.91 125.52 644.91 125.48 L 649.78 104.46 C 651.57 102.82 653.21 101.79 654.70 101.36 C 656.15 100.94 657.79 101.50 659.61 103.05 C 677.51 118.37 689.06 137.18 694.25 159.48 C 694.41 160.16 694.71 160.79 695.14 161.34 C 695.57 161.89 696.11 162.34 696.72 162.67 C 697.34 162.99 698.02 163.18 698.71 163.22 C 699.41 163.25 700.10 163.14 700.75 162.89 C 718.05 156.03 732.87 154.53 745.21 158.38 C 753.80 162.12 758.64 167.31 759.73 173.95 C 764.05 200.12 779.85 201.98 802.69 204.99 C 803.20 205.06 803.71 204.97 804.16 204.73 C 804.61 204.49 804.96 204.10 805.17 203.63 C 805.38 203.17 805.43 202.65 805.31 202.15 C 805.19 201.65 804.91 201.21 804.51 200.89 C 792.63 191.01 762.19 165.30 763.33 148.56 C 795.27 135.90 863.95 111.74 890.61 140.68 L 889.84 150.42 C 889.75 151.33 889.35 152.19 888.70 152.83 C 886.97 154.56 884.51 155.02 881.33 154.20 C 879.45 152.96 878.43 151.48 878.28 149.78 C 878.64 148.75 878.78 148.12 878.69 147.87 C 878.53 147.46 878.27 147.09 877.94 146.79 C 877.61 146.50 877.21 146.28 876.77 146.16 C 876.33 146.03 875.87 146.01 875.41 146.09 C 874.96 146.16 874.52 146.34 874.14 146.60 C 853.11 160.83 834.08 177.39 817.03 196.29 C 816.56 196.82 816.20 197.44 815.98 198.11 C 815.76 198.78 815.68 199.48 815.75 200.19 C 815.82 200.89 816.03 201.57 816.38 202.18 C 816.72 202.79 817.19 203.33 817.75 203.76 C 887.72 256.64 940.76 322.96 976.90 402.72 L 935.58 370.50 C 917.43 347.14 895.07 324.34 868.50 302.10 C 822.29 263.42 769.88 240.80 711.26 234.25 C 699.62 232.97 691.94 235.84 688.24 242.85 C 687.45 244.34 686.22 245.12 684.55 245.22 L 561.54 252.41 C 559.90 251.68 558.02 249.61 555.90 246.22 C 555.11 244.97 554.08 243.99 552.81 243.26 C 550.62 241.95 549.11 239.47 548.25 235.79 C 550.47 219.50 556.13 205.90 565.23 194.97 C 565.59 194.52 565.67 194.05 565.46 193.56 C 565.06 192.62 564.58 192.58 564.00 193.43 L 541.93 224.87 C 541.50 225.48 540.96 225.63 540.29 225.33 C 526.64 219.38 518.11 215.38 514.72 213.31 C 476.40 190.19 488.18 130.76 509.03 100.59 C 528.81 72.04 556.22 55.10 591.26 49.76 C 621.11 45.21 641.37 57.63 644.14 88.39 Z" fill="#fefefe" fill-rule="nonzero" node-id="117" stroke="none" target-height="357.51138" target-width="500.498" target-x="476.398" target-y="45.2066"></path><path d="M 752.90 155.97 C 752.02 155.58 749.46 156.38 745.21 158.38 C 732.87 154.53 718.05 156.03 700.75 162.89 C 700.10 163.14 699.41 163.25 698.71 163.22 C 698.02 163.18 697.34 162.99 696.72 162.67 C 696.11 162.34 695.56 161.89 695.14 161.34 C 694.71 160.79 694.41 160.16 694.25 159.48 C 689.06 137.18 677.51 118.37 659.61 103.05 C 657.79 101.50 656.15 100.94 654.70 101.36 C 653.21 101.79 651.57 102.82 649.78 104.46 L 649.97 79.79 C 661.02 85.21 682.32 93.99 691.42 81.39 L 704.48 112.06 C 704.57 112.30 704.75 112.50 704.98 112.61 C 705.21 112.72 705.47 112.73 705.71 112.65 C 705.95 112.56 706.15 112.39 706.26 112.16 C 706.37 111.93 706.39 111.66 706.30 111.42 L 695.43 71.24 C 695.32 70.84 695.35 70.41 695.50 70.03 C 695.65 69.64 695.92 69.32 696.27 69.09 C 696.62 68.87 697.03 68.76 697.44 68.79 C 697.86 68.82 698.25 68.97 698.57 69.23 C 724.87 91.87 742.98 120.78 752.90 155.97 Z" fill="#e1dbd1" fill-rule="nonzero" node-id="119" stroke="none" target-height="94.490204" target-width="103.12103" target-x="649.784" target-y="68.7648"></path><path d="M 644.14 88.39 C 644.05 89.88 644.31 91.34 644.91 92.76 C 641.46 94.16 638.39 93.64 635.72 91.22 C 635.16 90.71 634.46 90.38 633.72 90.26 L 611.19 86.26 C 609.04 85.89 609.04 85.53 611.19 85.16 C 620.39 83.66 634.40 87.26 644.14 88.39 Z" fill="#e1dbd1" fill-rule="nonzero" node-id="121" stroke="none" target-height="10.497398" target-width="35.875" target-x="609.039" target-y="83.6615"></path><path d="M 512.44 229.06 C 501.52 256.41 475.35 309.52 445.00 257.41 C 432.39 235.79 442.81 204.90 455.28 185.28 C 456.07 184.04 455.72 183.54 454.24 183.78 C 426.16 188.51 395.94 212.95 375.60 225.37 C 359.12 235.48 342.24 251.31 329.09 265.24 C 290.45 306.15 240.16 353.80 217.32 405.77 C 213.07 415.45 208.64 424.88 204.03 434.07 L 175.91 461.93 C 171.93 451.03 172.81 438.52 178.55 424.38 C 179.52 422.04 178.91 421.51 176.73 422.79 C 174.15 424.33 171.43 425.12 168.58 425.15 C 179.08 371.42 202.33 324.06 238.34 283.08 C 249.84 269.00 262.48 255.92 276.25 243.85 C 281.17 239.53 287.04 238.12 292.77 234.25 C 293.09 234.03 293.35 233.76 293.56 233.44 C 293.76 233.12 293.90 232.76 293.96 232.39 C 294.03 232.02 294.02 231.63 293.93 231.26 C 293.84 230.90 293.68 230.55 293.45 230.24 C 271.55 200.39 244.66 175.38 212.77 155.20 C 207.79 150.98 200.36 149.45 190.47 150.60 C 221.10 105.78 309.84 151.06 346.93 163.89 C 348.29 164.38 348.84 163.91 348.56 162.48 L 347.75 158.34 C 390.80 132.04 437.53 115.23 487.96 107.92 C 489.84 107.64 490.40 108.39 489.64 110.15 C 470.85 153.70 468.71 199.66 512.44 229.06 Z" fill="#fefefe" fill-rule="nonzero" node-id="123" stroke="none" target-height="356.14697" target-width="343.859" target-x="168.581" target-y="105.778"></path><path d="M 340.60 154.79 L 347.75 158.34 L 348.56 162.48 C 348.84 163.91 348.29 164.38 346.93 163.89 C 309.84 151.06 221.10 105.78 190.47 150.60 C 160.84 208.54 161.84 287.81 179.87 348.52 C 180.26 349.85 180.35 351.20 180.14 352.57 L 178.59 362.22 C 178.52 362.64 178.60 363.09 178.83 363.46 C 179.05 363.83 179.40 364.11 179.81 364.25 C 180.22 364.39 180.67 364.37 181.07 364.21 C 181.48 364.04 181.81 363.74 182.00 363.35 L 202.03 323.17 L 234.29 281.44 C 236.63 281.56 237.98 282.11 238.34 283.08 C 202.33 324.07 179.08 371.43 168.58 425.15 L 165.99 430.48 L 170.17 399.81 C 170.39 398.38 170.98 397.14 171.95 396.07 C 174.59 393.22 174.97 390.19 173.09 386.97 C 172.18 385.37 171.40 385.43 170.76 387.15 C 160.97 414.25 155.32 442.16 153.84 470.89 C 153.78 472.29 154.02 473.62 154.56 474.89 C 157.08 480.54 156.07 486.91 151.51 494.01 C 150.63 494.19 149.77 494.37 148.92 494.55 C 147.65 450.96 155.43 409.38 172.27 369.82 C 172.90 368.36 173.01 366.89 172.59 365.40 C 154.90 302.72 154.66 239.94 171.86 177.04 C 179.91 147.69 195.16 125.57 227.92 124.71 C 269.64 123.56 307.20 133.58 340.60 154.79 Z" fill="#2e1e1b" fill-rule="nonzero" node-id="125" stroke="none" target-height="388.776" target-width="201.19101" target-x="147.647" target-y="105.778"></path><path d="M 890.61 140.68 C 921.10 190.92 923.15 235.38 928.57 292.00 C 928.51 293.24 927.07 293.57 924.24 293.00 L 905.86 272.70 C 903.25 268.03 901.94 263.58 901.94 259.37 C 901.99 226.78 898.94 181.46 881.33 154.20 C 884.51 155.02 886.97 154.56 888.70 152.83 C 889.35 152.19 889.75 151.33 889.84 150.42 L 890.61 140.68 Z" fill="#d0988b" fill-rule="nonzero" node-id="127" stroke="none" target-height="152.89201" target-width="47.238037" target-x="881.329" target-y="140.683"></path><path d="M 763.33 148.56 C 762.19 165.30 792.63 191.01 804.51 200.89 C 804.91 201.21 805.19 201.66 805.31 202.15 C 805.42 202.65 805.38 203.17 805.17 203.63 C 804.96 204.10 804.61 204.49 804.16 204.73 C 803.71 204.97 803.20 205.06 802.69 204.99 C 779.85 201.98 764.05 200.12 759.73 173.95 C 758.64 167.31 753.80 162.12 745.21 158.39 C 749.46 156.38 752.02 155.58 752.90 155.97 C 755.79 155.43 759.26 152.96 763.33 148.56 Z" fill="#fbf1e1" fill-rule="nonzero" node-id="129" stroke="none" target-height="56.509003" target-width="60.211" target-x="745.214" target-y="148.556"></path><path d="M 190.47 150.60 C 200.36 149.45 207.79 150.98 212.77 155.20 L 224.15 169.35 C 205.85 196.63 196.49 225.43 196.07 255.77 C 195.79 273.16 202.30 299.73 202.03 323.17 L 182.00 363.35 C 181.81 363.74 181.48 364.04 181.07 364.21 C 180.67 364.37 180.22 364.38 179.81 364.25 C 179.40 364.11 179.05 363.83 178.83 363.46 C 178.60 363.08 178.52 362.64 178.59 362.22 L 180.14 352.57 C 180.35 351.20 180.26 349.85 179.87 348.52 C 161.84 287.81 160.84 208.53 190.47 150.60 Z" fill="#d0988b" fill-rule="nonzero" node-id="131" stroke="none" target-height="214.934" target-width="63.302002" target-x="160.844" target-y="149.451"></path><path d="M 878.28 149.78 C 878.43 151.48 879.45 152.96 881.33 154.20 C 898.94 181.46 901.99 226.78 901.94 259.37 C 901.94 263.58 903.25 268.03 905.86 272.70 C 902.91 273.10 900.78 272.57 899.44 271.11 C 877.36 246.23 852.20 224.04 823.99 204.53 C 820.86 202.41 820.97 200.45 824.31 198.66 C 846.88 186.60 858.53 165.12 878.28 149.78 Z" fill="#9b6364" fill-rule="nonzero" node-id="133" stroke="none" target-height="123.311005" target-width="84.99396" target-x="820.864" target-y="149.785"></path><path d="M 212.77 155.20 C 244.66 175.38 271.55 200.39 293.45 230.24 C 293.68 230.55 293.84 230.90 293.93 231.26 C 294.02 231.63 294.03 232.02 293.96 232.39 C 293.90 232.76 293.76 233.12 293.56 233.44 C 293.35 233.76 293.09 234.03 292.77 234.25 C 287.04 238.12 281.17 239.53 276.25 243.85 C 262.48 255.92 249.84 269.00 238.34 283.08 C 237.98 282.11 236.63 281.56 234.29 281.44 C 247.37 265.15 261.20 251.28 275.80 239.84 C 279.56 236.90 279.88 233.62 276.75 230.01 L 224.15 169.35 L 212.77 155.20 Z" fill="#372720" fill-rule="nonzero" node-id="135" stroke="none" target-height="127.878006" target-width="81.25902" target-x="212.769" target-y="155.2"></path><path d="M 224.15 169.35 L 276.75 230.02 C 279.88 233.63 279.56 236.90 275.80 239.85 C 261.20 251.28 247.37 265.15 234.29 281.44 L 202.03 323.17 C 202.30 299.73 195.79 273.16 196.07 255.77 C 196.49 225.44 205.85 196.63 224.15 169.35 Z" fill="#9b6364" fill-rule="nonzero" node-id="137" stroke="none" target-height="153.818" target-width="84.084" target-x="195.795" target-y="169.353"></path><path d="M 512.44 229.06 L 533.92 234.79 C 535.41 235.19 536.13 236.14 536.10 237.66 C 535.15 298.37 551.35 345.93 604.41 378.64 C 604.83 378.90 605.32 379.02 605.81 379.01 C 606.30 378.99 606.78 378.83 607.18 378.55 C 607.58 378.27 607.88 377.88 608.05 377.42 C 608.22 376.97 608.26 376.48 608.14 376.01 C 598.04 329.72 630.31 294.09 663.89 267.47 C 664.62 266.89 664.57 266.41 663.75 266.01 C 663.21 265.71 662.77 265.68 662.43 265.92 C 645.63 278.63 629.34 295.06 613.56 315.21 L 619.57 276.12 C 619.69 275.36 619.45 275.20 618.84 275.66 C 618.35 276.02 618.02 276.54 617.84 277.21 C 614.99 286.52 612.18 294.44 609.42 300.96 C 600.26 307.70 592.14 311.31 585.07 311.79 C 583.43 311.88 582.10 311.31 581.07 310.06 C 567.60 293.68 561.09 274.46 561.54 252.41 L 684.55 245.22 C 686.22 245.12 687.45 244.34 688.24 242.85 C 691.94 235.84 699.62 232.97 711.26 234.25 C 769.88 240.80 822.29 263.42 868.50 302.10 C 895.07 324.34 917.43 347.14 935.58 370.50 L 952.41 389.57 C 955.08 399.61 951.08 405.95 940.40 408.59 C 936.12 406.07 932.25 404.80 928.79 404.77 C 925.94 404.77 925.82 405.36 928.43 406.54 C 952.85 417.71 972.92 433.74 988.64 454.64 C 992.49 460.86 992.87 465.52 989.77 468.62 C 988.50 469.86 988.36 471.22 989.37 472.71 C 996.31 483.03 998.62 491.43 996.28 497.92 L 975.12 480.86 C 975.09 480.83 975.04 480.81 975.00 480.79 C 974.96 480.78 974.91 480.77 974.87 480.78 C 974.82 480.78 974.78 480.80 974.75 480.82 C 974.71 480.84 974.69 480.87 974.67 480.90 C 974.64 480.99 974.59 481.08 974.53 481.18 C 974.41 481.48 974.51 481.81 974.85 482.18 L 980.08 488.09 C 963.79 499.38 945.02 505.89 923.79 507.62 C 922.45 507.70 921.19 508.31 920.28 509.30 L 907.22 523.54 C 906.83 524.00 906.33 524.20 905.72 524.13 C 905.08 524.07 904.58 523.68 904.22 522.95 C 904.09 522.68 903.86 522.46 903.57 522.34 C 903.29 522.22 902.97 522.20 902.68 522.30 C 902.40 522.40 902.16 522.60 902.02 522.86 C 901.89 523.13 901.86 523.43 901.94 523.73 C 903.46 530.61 901.29 535.09 895.44 537.15 C 893.52 498.95 881.54 469.24 859.49 448.00 C 824.40 401.13 751.90 381.79 710.99 434.48 C 696.22 448.47 688.81 466.34 688.78 488.09 C 686.51 525.86 701.80 571.42 739.16 586.43 C 752.24 593.47 765.68 596.57 779.48 595.72 L 800.01 596.86 C 801.55 596.92 802.78 597.59 803.69 598.86 C 812.70 611.19 830.31 600.41 841.24 595.49 C 840.84 600.13 836.94 603.61 829.54 605.91 C 828.18 606.34 827.42 607.25 827.26 608.64 C 826.45 615.86 827.55 622.46 830.59 628.44 C 835.73 638.54 848.88 645.96 858.30 653.33 C 876.48 667.59 897.08 674.34 920.10 673.58 C 921.56 673.52 922.95 673.75 924.29 674.27 L 948.68 683.69 C 945.56 686.08 945.90 689.68 949.73 694.47 L 920.38 712.90 C 900.17 724.05 884.33 738.98 865.26 751.81 C 859.96 755.42 855.09 759.87 850.66 765.15 C 849.29 760.47 847.77 756.88 846.11 754.36 C 844.62 752.12 844.06 752.33 844.42 755.00 C 848.43 784.67 845.07 812.43 834.37 838.28 C 828.09 842.89 822.67 848.50 818.12 855.12 C 799.55 881.97 776.21 904.99 757.09 931.93 C 756.21 932.72 755.23 932.89 754.13 932.43 C 752.95 931.92 752.47 931.02 752.68 929.75 C 754.01 922.35 753.85 915.07 752.18 907.90 C 752.06 907.34 751.72 906.84 751.23 906.53 C 750.74 906.21 750.15 906.10 749.58 906.22 C 749.02 906.34 748.52 906.68 748.20 907.17 C 747.89 907.66 747.78 908.25 747.90 908.82 C 750.02 920.16 747.35 927.46 739.89 930.71 C 733.79 926.15 728.45 926.18 723.87 930.79 L 720.82 936.58 C 719.30 939.46 718.44 939.27 718.23 936.03 L 716.68 910.91 C 716.65 910.52 716.51 910.15 716.28 909.84 C 716.05 909.53 715.73 909.29 715.37 909.15 C 715.01 909.02 714.61 908.98 714.23 909.06 C 713.85 909.14 713.50 909.32 713.22 909.59 L 712.31 910.45 C 711.97 910.80 711.71 911.21 711.54 911.67 C 711.38 912.12 711.31 912.61 711.36 913.09 L 712.72 930.98 C 712.84 932.92 711.96 933.72 710.08 933.39 C 692.88 930.29 681.68 920.33 680.77 901.85 C 679.41 872.85 689.13 848.00 709.95 827.31 C 710.05 827.23 710.11 827.10 710.13 826.97 C 710.14 826.84 710.10 826.71 710.01 826.61 C 709.93 826.50 709.81 826.44 709.67 826.42 C 709.54 826.41 709.41 826.45 709.31 826.54 C 687.28 840.37 675.22 862.20 673.13 892.02 C 669.15 886.17 668.14 877.79 670.08 866.90 C 670.15 866.52 670.13 866.14 670.03 865.77 C 669.93 865.40 669.75 865.06 669.50 864.77 C 669.25 864.47 668.95 864.24 668.60 864.08 C 668.25 863.93 667.87 863.85 667.49 863.85 L 607.69 864.72 C 608.08 852.64 606.72 841.02 603.59 829.86 C 603.50 829.49 603.20 829.31 602.68 829.31 C 602.59 829.30 602.50 829.32 602.42 829.35 C 602.33 829.38 602.26 829.43 602.20 829.50 C 602.14 829.56 602.09 829.64 602.06 829.73 C 602.04 829.82 602.03 829.91 602.05 830.00 L 605.50 864.17 C 603.87 867.08 601.36 868.28 598.00 867.77 C 596.75 867.55 595.90 866.87 595.45 865.72 L 589.62 850.61 C 588.99 848.91 588.56 849.03 588.35 850.97 C 587.94 855.25 592.53 859.85 591.58 866.13 C 591.34 867.83 590.37 868.74 588.67 868.86 C 586.48 869.01 585.19 868.10 584.80 866.13 C 584.68 865.57 584.39 865.05 583.96 864.65 C 583.54 864.26 583.01 863.99 582.43 863.90 C 555.04 859.83 527.44 858.04 499.65 858.53 L 483.22 834.82 C 483.10 834.69 482.94 834.61 482.76 834.59 C 482.58 834.57 482.40 834.61 482.25 834.71 C 482.10 834.81 481.99 834.95 481.94 835.12 C 481.88 835.29 481.89 835.47 481.95 835.64 C 494.33 856.62 516.22 918.37 482.77 931.80 C 481.59 932.28 480.92 931.89 480.77 930.61 L 478.63 910.32 C 478.36 907.74 477.16 907.18 475.03 908.63 L 472.67 910.18 C 472.20 910.49 471.86 910.94 471.69 911.47 C 471.53 912.00 471.55 912.58 471.76 913.09 C 474.27 919.59 474.81 926.17 473.35 932.84 C 473.01 934.36 472.11 935.35 470.62 935.80 L 457.42 940.12 C 455.69 940.70 454.45 940.15 453.69 938.49 L 443.31 915.14 C 442.98 914.38 442.43 914.18 441.68 914.55 C 440.89 914.94 440.61 915.75 440.86 916.96 C 443.07 928.88 442.51 937.55 439.17 942.95 C 433.80 934.51 427.78 930.01 421.11 929.43 C 419.56 929.31 418.19 928.73 417.01 927.70 C 413.22 924.46 410.91 920.33 410.09 915.32 C 410.03 913.29 409.55 912.20 408.64 912.05 C 406.12 911.59 404.10 911.99 402.58 913.23 C 401.22 913.02 399.75 913.18 398.17 913.73 L 385.61 901.08 C 379.69 887.58 377.78 876.44 379.88 867.68 C 382.88 868.01 384.90 867.83 385.93 867.13 C 387.41 866.16 387.41 865.20 385.93 864.26 L 347.88 840.33 L 265.15 747.35 C 249.77 726.78 235.71 706.53 215.23 690.15 C 214.71 689.74 214.09 689.49 213.44 689.43 C 212.80 689.36 212.15 689.49 211.59 689.78 L 199.25 696.02 L 190.93 678.82 L 228.97 668.30 C 223.69 666.03 223.04 661.95 227.01 656.06 C 240.48 636.27 274.30 671.26 281.53 677.18 C 282.47 677.97 283.53 678.53 284.72 678.86 L 301.60 683.87 C 301.69 683.87 301.76 683.91 301.82 683.98 C 301.88 684.04 301.90 684.12 301.90 684.21 C 301.89 684.29 301.85 684.37 301.79 684.43 C 301.72 684.48 301.64 684.51 301.56 684.50 L 299.74 684.78 C 299.59 684.78 299.45 684.84 299.35 684.94 C 299.25 685.04 299.19 685.18 299.19 685.33 C 299.19 685.47 299.25 685.61 299.35 685.71 C 299.45 685.81 299.59 685.87 299.74 685.87 C 323.34 690.39 346.15 688.54 368.18 680.32 C 384.88 674.04 409.73 644.50 408.91 625.98 C 408.85 624.40 408.27 623.02 407.18 621.84 C 404.39 618.84 403.71 615.50 405.13 611.83 C 406.35 610.16 406.69 608.66 406.18 607.32 C 407.94 604.81 407.88 604.18 406.00 605.46 L 424.47 605.91 C 476.94 610.69 518.45 569.55 529.32 520.72 C 532.93 505.40 533.68 493.28 531.55 484.36 C 511.57 401.54 422.74 383.79 362.04 436.08 C 322.05 470.21 304.44 514.58 309.20 569.19 L 304.97 569.60 C 303.42 569.75 302.12 569.25 301.06 568.10 C 297.57 564.30 293.17 562.57 287.86 562.91 C 286.40 563.03 285.05 562.73 283.81 562.00 C 269.29 553.76 254.55 557.58 237.84 553.08 C 236.15 552.62 235.07 553.25 234.61 554.94 C 234.28 556.22 234.42 557.51 235.02 558.81 C 235.63 560.12 236.98 561.24 239.07 562.18 C 250.36 567.18 261.68 572.50 273.02 578.11 C 273.50 578.35 273.92 578.69 274.25 579.11 C 274.59 579.53 274.82 580.02 274.94 580.54 C 275.06 581.06 275.07 581.60 274.96 582.13 C 274.85 582.65 274.62 583.14 274.30 583.57 L 268.61 590.89 C 267.76 592.02 266.68 592.32 265.38 591.80 C 261.31 590.17 257.62 591.73 254.32 596.49 C 253.98 597.00 253.49 597.39 252.93 597.62 C 252.36 597.86 251.74 597.92 251.13 597.81 C 248.13 597.24 246.63 597.93 246.63 599.91 L 174.41 593.03 C 173.59 592.97 172.89 593.23 172.31 593.81 L 171.13 594.95 C 170.95 595.12 170.83 595.33 170.78 595.57 C 170.72 595.81 170.73 596.06 170.81 596.29 C 170.90 596.52 171.04 596.72 171.24 596.87 C 171.43 597.02 171.66 597.11 171.90 597.13 L 269.06 606.91 C 270.64 614.04 275.21 617.38 282.76 616.93 C 284.85 616.77 285.93 617.75 285.99 619.84 L 286.08 623.80 C 286.14 625.32 285.43 626.16 283.94 626.35 C 279.30 626.98 274.80 626.71 270.43 625.53 C 269.94 625.41 269.47 625.48 269.02 625.75 L 267.47 626.62 C 266.59 627.16 266.67 627.51 267.70 627.67 L 296.60 631.67 C 297.99 631.88 298.20 632.50 297.23 633.54 C 296.66 634.14 295.76 634.45 294.55 634.45 C 267.12 634.11 244.76 634.92 227.47 636.86 C 212.33 635.62 197.60 635.14 183.28 635.45 C 165.53 635.81 163.44 608.87 159.21 596.95 C 157.05 574.62 158.68 553.72 164.07 534.24 C 171.66 517.07 176.74 498.95 179.32 479.90 C 179.50 478.50 178.90 477.75 177.50 477.63 C 175.41 477.44 174.01 476.65 173.31 475.26 L 204.03 434.07 C 208.64 424.88 213.07 415.45 217.32 405.77 C 240.16 353.80 290.45 306.15 329.09 265.24 C 342.24 251.31 359.12 235.48 375.60 225.37 C 395.94 212.95 426.16 188.51 454.24 183.78 C 455.72 183.54 456.07 184.04 455.28 185.28 C 442.81 204.90 432.39 235.79 445.00 257.41 C 475.35 309.52 501.52 256.41 512.44 229.06 Z M 384.79 233.47 C 378.01 238.25 377.33 259.00 378.10 264.92 C 378.40 267.38 378.86 267.41 379.46 265.01 L 386.75 234.79 C 387.26 232.61 386.61 232.17 384.79 233.47 Z M 666.94 350.02 C 675.22 348.93 689.01 335.19 695.84 329.54 C 716.07 317.01 738.42 311.73 762.87 313.70 C 762.90 313.72 762.93 313.73 762.95 313.72 C 762.98 313.71 763.00 313.69 763.00 313.66 C 763.00 313.65 763.00 313.63 763.00 313.61 C 763.00 313.60 762.99 313.58 762.99 313.56 C 762.97 313.53 762.95 313.50 762.92 313.48 C 713.04 286.08 663.66 333.73 646.51 377.60 C 646.20 378.36 646.11 378.99 646.23 379.51 C 646.45 380.27 646.78 380.31 647.24 379.65 L 666.94 350.02 Z M 420.88 345.38 C 441.95 325.76 471.07 315.25 497.65 331.54 C 499.41 332.64 500.29 332.15 500.29 330.09 C 500.29 328.78 499.68 327.78 498.47 327.08 C 488.23 321.08 480.40 315.57 468.98 317.12 C 450.23 319.67 433.50 328.59 418.78 343.88 C 418.00 344.73 418.15 345.30 419.24 345.61 C 419.97 345.79 420.51 345.71 420.88 345.38 Z M 601.77 507.34 C 602.50 508.22 603.76 508.40 605.55 507.89 C 606.06 507.74 606.49 507.41 606.78 506.96 C 607.06 506.51 607.17 505.97 607.09 505.45 C 607.00 504.93 606.73 504.45 606.32 504.11 C 605.91 503.77 605.40 503.60 604.87 503.61 L 594.99 503.93 C 594.67 503.92 594.36 504.04 594.11 504.25 C 593.87 504.45 593.71 504.75 593.66 505.06 C 593.62 505.38 593.69 505.71 593.87 505.98 C 594.05 506.25 594.32 506.44 594.63 506.52 C 597.12 507.34 599.50 507.62 601.77 507.34 Z M 567.64 524.27 C 565.97 524.76 564.67 525.62 563.73 526.87 C 563.51 527.16 563.37 527.51 563.34 527.87 C 563.30 528.24 563.38 528.61 563.54 528.93 C 563.71 529.26 563.96 529.54 564.28 529.73 C 564.59 529.91 564.95 530.01 565.32 530.00 C 569.54 529.95 572.74 528.06 574.92 524.36 C 575.68 523.03 575.32 522.21 573.83 521.90 C 572.04 521.54 570.57 521.98 569.42 523.23 C 568.90 523.74 568.31 524.09 567.64 524.27 Z M 580.16 560.18 C 607.73 581.98 634.08 582.66 661.25 557.86 C 674.13 546.12 663.03 538.06 651.28 536.20 C 628.35 532.55 605.12 533.92 581.61 540.29 C 579.86 540.76 578.28 541.74 577.08 543.10 C 575.87 544.46 575.09 546.14 574.83 547.93 C 574.16 552.73 575.94 556.81 580.16 560.18 Z M 585.21 637.63 C 591.00 656.02 599.25 671.55 609.96 684.23 C 610.45 689.63 609.02 693.47 605.69 695.75 C 604.78 696.35 604.32 696.11 604.32 695.02 C 604.32 694.65 604.34 694.26 604.37 693.84 C 604.43 692.44 603.96 692.21 602.96 693.15 C 599.44 696.40 597.27 700.54 596.45 705.58 C 596.17 707.27 596.84 708.40 598.45 708.94 C 619.29 716.10 640.27 715.97 661.39 708.53 C 663.17 707.91 664.69 706.72 665.71 705.13 C 666.73 703.55 667.20 701.67 667.03 699.80 C 665.54 683.17 660.14 664.66 650.83 644.28 C 665.24 648.01 665.04 643.37 650.24 630.35 C 639.59 620.98 630.99 600.63 623.57 587.89 C 623.19 587.22 622.65 586.66 622.00 586.25 C 621.35 585.83 620.61 585.59 619.85 585.52 C 619.08 585.46 618.31 585.59 617.60 585.89 C 616.90 586.19 616.27 586.66 615.79 587.25 L 575.83 635.77 C 573.65 638.44 574.25 639.48 577.65 638.91 L 585.21 637.63 Z" fill="#fdfaee" fill-rule="nonzero" node-id="139" stroke="none" target-height="759.409" target-width="841.567" target-x="157.052" target-y="183.537"></path><path d="M 378.10 264.92 C 377.33 259.00 378.01 238.25 384.79 233.47 C 386.61 232.17 387.26 232.61 386.75 234.79 L 379.47 265.01 C 378.86 267.41 378.40 267.38 378.10 264.92 Z" fill="#d7cab8" fill-rule="nonzero" node-id="141" stroke="none" target-height="35.23799" target-width="9.936005" target-x="377.327" target-y="232.17"></path><path d="M 548.25 235.79 C 549.11 239.47 550.62 241.95 552.81 243.26 C 554.08 243.99 555.11 244.97 555.90 246.22 C 558.02 249.61 559.90 251.68 561.54 252.41 C 561.09 274.46 567.60 293.68 581.07 310.06 C 582.10 311.31 583.43 311.88 585.07 311.79 C 592.14 311.31 600.26 307.70 609.42 300.96 C 607.93 306.33 605.10 312.84 600.91 320.49 C 599.15 323.70 600.88 326.26 606.10 328.18 C 601.70 340.58 600.01 352.45 601.04 363.76 C 601.09 364.28 600.98 364.80 600.72 365.26 C 600.46 365.71 600.07 366.07 599.60 366.30 C 599.13 366.52 598.60 366.59 598.08 366.51 C 597.57 366.42 597.09 366.18 596.72 365.81 C 558.52 328.89 542.37 285.55 548.25 235.79 Z" fill="#cec3b9" fill-rule="nonzero" node-id="143" stroke="none" target-height="130.79701" target-width="67.048035" target-x="542.37" target-y="235.795"></path><path d="M 613.56 315.21 L 606.10 328.18 C 600.88 326.26 599.15 323.70 600.91 320.49 C 605.10 312.84 607.93 306.33 609.42 300.96 C 612.18 294.44 614.99 286.52 617.84 277.21 C 618.02 276.54 618.35 276.02 618.84 275.66 C 619.45 275.20 619.69 275.36 619.57 276.12 L 613.56 315.21 Z" fill="#715337" fill-rule="nonzero" node-id="145" stroke="none" target-height="52.97101" target-width="20.539978" target-x="599.148" target-y="275.205"></path><path d="M 928.57 292.00 C 930.02 293.45 930.17 295.49 929.02 298.10 C 928.51 299.28 928.49 300.46 928.98 301.64 L 931.98 309.11 C 932.07 309.32 932.08 309.55 932.00 309.76 C 931.93 309.98 931.78 310.16 931.58 310.27 C 931.38 310.37 931.14 310.40 930.92 310.35 C 930.71 310.30 930.51 310.16 930.39 309.97 C 926.78 305.03 924.73 299.37 924.24 293.00 C 927.07 293.57 928.51 293.24 928.57 292.00 Z" fill="#4e423d" fill-rule="nonzero" node-id="147" stroke="none" target-height="18.406982" target-width="7.8340454" target-x="924.243" target-y="291.997"></path><path d="M 695.84 329.54 C 705.64 321.59 719.49 315.08 737.39 310.02 C 737.62 309.96 737.82 309.82 737.96 309.62 C 738.09 309.42 738.14 309.18 738.11 308.94 C 738.08 308.70 737.96 308.47 737.77 308.30 C 737.59 308.13 737.36 308.03 737.11 308.02 C 707.44 307.24 681.68 327.27 666.94 350.02 L 647.24 379.65 C 646.78 380.31 646.45 380.27 646.23 379.51 C 646.11 378.99 646.20 378.36 646.51 377.60 C 663.66 333.73 713.04 286.08 762.92 313.48 C 762.95 313.50 762.97 313.53 762.99 313.56 C 763.00 313.60 763.01 313.63 763.00 313.66 C 763.00 313.69 762.98 313.71 762.95 313.72 C 762.93 313.73 762.90 313.72 762.87 313.70 C 738.42 311.73 716.07 317.01 695.84 329.54 Z" fill="#4e423d" fill-rule="nonzero" node-id="149" stroke="none" target-height="94.231995" target-width="116.89502" target-x="646.113" target-y="286.082"></path><path d="M 695.84 329.54 C 689.01 335.19 675.22 348.93 666.94 350.02 C 681.68 327.27 707.44 307.24 737.11 308.02 C 737.36 308.03 737.59 308.13 737.77 308.30 C 737.96 308.47 738.08 308.70 738.11 308.94 C 738.14 309.18 738.09 309.42 737.96 309.62 C 737.82 309.82 737.62 309.96 737.39 310.02 C 719.49 315.08 705.64 321.59 695.84 329.54 Z" fill="#bba99b" fill-rule="nonzero" node-id="151" stroke="none" target-height="42.776978" target-width="71.20203" target-x="666.94" target-y="307.243"></path><path d="M 497.65 331.54 C 471.07 315.25 441.95 325.76 420.88 345.38 C 420.51 345.71 419.97 345.79 419.24 345.61 C 418.15 345.30 418.00 344.73 418.78 343.88 C 433.50 328.59 450.23 319.67 468.98 317.12 C 480.40 315.57 488.23 321.08 498.47 327.08 C 499.68 327.78 500.29 328.78 500.29 330.09 C 500.29 332.15 499.41 332.64 497.65 331.54 Z" fill="#412d27" fill-rule="nonzero" node-id="153" stroke="none" target-height="30.53598" target-width="82.293" target-x="417.996" target-y="315.252"></path><path d="M 935.58 370.50 L 976.90 402.72 L 985.41 432.25 C 984.13 430.83 982.71 430.51 981.13 431.30 C 975.36 415.16 965.79 401.25 952.41 389.57 L 935.58 370.50 Z" fill="#4e423d" fill-rule="nonzero" node-id="155" stroke="none" target-height="61.755005" target-width="49.830994" target-x="935.575" target-y="370.499"></path><path d="M 165.99 430.48 L 160.98 478.31 C 160.59 485.53 157.43 490.76 151.51 494.01 C 156.07 486.91 157.08 480.54 154.56 474.89 C 154.02 473.62 153.78 472.29 153.84 470.89 C 155.32 442.16 160.97 414.25 170.76 387.15 C 171.40 385.43 172.18 385.37 173.09 386.97 C 174.97 390.19 174.59 393.22 171.95 396.07 C 170.98 397.14 170.39 398.38 170.17 399.81 L 165.99 430.48 Z" fill="#715337" fill-rule="nonzero" node-id="157" stroke="none" target-height="108.643005" target-width="23.451996" target-x="151.515" target-y="385.365"></path><path d="M 952.41 389.57 C 965.79 401.25 975.36 415.16 981.13 431.30 C 982.55 431.63 982.55 432.33 981.13 433.39 C 980.22 434.09 979.28 434.12 978.31 433.48 L 940.40 408.59 C 951.08 405.95 955.08 399.61 952.41 389.57 Z" fill="#bdb3b0" fill-rule="nonzero" node-id="159" stroke="none" target-height="44.552002" target-width="42.156006" target-x="940.398" target-y="389.567"></path><path d="M 859.49 448.00 C 834.03 424.88 806.95 411.41 778.25 407.59 C 771.84 406.77 755.59 408.73 750.04 411.55 C 737.11 418.10 724.10 425.75 710.99 434.48 C 751.90 381.79 824.40 401.13 859.49 448.00 Z" fill="#170f0a" fill-rule="nonzero" node-id="161" stroke="none" target-height="66.21399" target-width="148.49298" target-x="710.992" target-y="381.785"></path><path d="M 940.40 408.59 L 978.31 433.48 C 979.28 434.12 980.22 434.09 981.13 433.39 C 982.55 432.33 982.55 431.63 981.13 431.30 C 982.71 430.51 984.13 430.83 985.41 432.25 L 993.69 455.74 C 991.81 454.95 990.12 454.58 988.64 454.64 C 972.92 433.74 952.85 417.71 928.43 406.54 C 925.82 405.36 925.94 404.77 928.79 404.77 C 932.25 404.80 936.12 406.07 940.40 408.59 Z" fill="#715337" fill-rule="nonzero" node-id="163" stroke="none" target-height="50.968994" target-width="67.86804" target-x="925.821" target-y="404.767"></path><path d="M 529.32 520.72 L 525.55 520.54 C 528.43 495.39 521.51 475.81 504.80 461.79 C 495.48 449.87 485.91 440.99 476.08 435.17 C 473.86 433.86 471.67 434.18 469.48 436.12 C 468.24 437.24 468.37 438.15 469.89 438.85 C 481.27 444.37 490.32 452.46 497.06 463.11 C 498.03 464.69 498.51 466.38 498.51 468.20 L 498.51 481.99 C 498.51 483.57 499.12 484.88 500.33 485.91 C 504.61 489.52 506.22 494.36 505.16 500.43 C 504.92 501.90 505.16 503.42 505.84 504.75 C 513.49 519.54 506.34 544.79 498.06 557.81 C 483.10 581.29 460.86 590.11 431.35 584.25 C 422.88 582.58 411.02 574.54 395.76 560.13 C 387.11 550.39 382.13 537.63 380.83 521.86 C 381.19 491.69 385.75 466.20 406.63 442.77 C 407.21 442.10 407.50 441.34 407.50 440.49 C 407.50 439.85 407.48 439.20 407.45 438.53 C 407.36 437.23 407.92 436.38 409.14 435.99 L 426.66 430.21 C 428.14 429.69 428.25 428.98 426.98 428.07 C 425.98 427.40 424.79 427.22 423.43 427.52 C 411.90 430.07 403.22 432.59 397.39 435.07 C 382.77 440.93 370.51 450.18 360.62 462.83 C 354.65 463.56 350.92 467.42 349.43 474.39 C 349.30 475.06 349.04 475.69 348.65 476.25 C 348.27 476.81 347.78 477.30 347.20 477.67 C 335.05 485.36 331.95 502.25 327.59 514.80 L 324.72 526.55 C 324.69 524.61 324.07 523.01 322.85 521.77 C 322.55 521.46 322.17 521.24 321.75 521.15 C 321.33 521.05 320.89 521.08 320.48 521.23 C 320.08 521.38 319.73 521.64 319.47 521.99 C 319.21 522.34 319.06 522.75 319.03 523.18 L 316.75 555.17 C 316.54 558.54 316.07 558.57 315.34 555.26 C 307.33 518.36 334.14 470.98 360.85 444.59 C 363.40 442.07 363.80 439.23 362.04 436.08 C 422.74 383.79 511.57 401.54 531.55 484.36 C 533.68 493.28 532.93 505.40 529.32 520.72 Z" fill="#2e1e1b" fill-rule="nonzero" node-id="165" stroke="none" target-height="206.31802" target-width="226.34201" target-x="307.335" target-y="383.788"></path><path d="M 859.49 448.00 C 881.54 469.24 893.53 498.95 895.44 537.15 L 895.03 577.74 L 893.62 582.79 L 890.02 582.02 C 888.47 581.66 887.82 580.70 888.07 579.15 C 891.92 553.64 890.70 528.40 884.42 503.43 C 883.97 501.61 882.98 501.24 881.47 502.34 L 872.46 508.66 L 855.71 467.80 C 855.62 467.55 855.45 467.35 855.21 467.23 C 854.98 467.12 854.72 467.10 854.47 467.17 C 854.22 467.25 854.01 467.42 853.89 467.64 C 853.76 467.87 853.73 468.14 853.80 468.39 C 855.07 473.76 858.48 479.63 858.94 484.54 C 862.12 520.36 848.34 578.11 811.93 595.31 C 809.68 596.37 809.76 597.21 812.16 597.81 C 814.49 598.36 816.95 598.18 819.53 597.27 C 844.65 588.35 864.51 576.51 879.10 561.77 C 884.32 559.98 882.97 566.73 875.05 582.02 L 841.24 595.49 C 830.32 600.41 812.70 611.19 803.69 598.86 C 802.78 597.58 801.55 596.92 800.01 596.86 L 779.48 595.72 L 781.58 593.08 C 825.58 591.49 849.84 542.29 850.61 504.66 C 853.80 478.11 847.00 457.87 830.22 443.95 C 832.11 443.25 830.97 440.44 826.81 435.53 C 813.29 419.51 790.45 417.51 772.20 426.20 C 770.75 426.90 769.32 426.82 767.92 425.97 C 754.86 418.06 726.15 439.62 716.45 447.54 C 704.14 457.40 694.91 470.92 688.78 488.09 C 688.82 466.34 696.22 448.47 710.99 434.48 C 724.10 425.75 737.11 418.10 750.04 411.55 C 755.59 408.73 771.84 406.77 778.25 407.59 C 806.95 411.41 834.03 424.88 859.49 448.00 Z" fill="#372720" fill-rule="nonzero" node-id="167" stroke="none" target-height="204.42197" target-width="206.65302" target-x="688.784" target-y="406.769"></path><path d="M 830.22 443.95 C 829.86 466.76 831.15 488.08 834.09 507.89 C 835.32 516.22 833.36 522.72 831.59 530.55 C 819.76 561.00 790.50 586.62 756.55 582.84 C 747.44 581.81 740.69 579.62 736.29 576.29 C 692.97 543.25 686.36 500.33 716.45 447.54 C 726.15 439.63 754.86 418.06 767.92 425.97 C 769.32 426.82 770.74 426.90 772.20 426.20 C 790.45 417.51 813.29 419.51 826.81 435.53 C 830.97 440.44 832.10 443.25 830.22 443.95 Z M 780.48 487.23 C 803.47 489.91 819.94 467.48 827.26 448.41 C 827.81 446.98 827.72 445.60 826.99 444.27 C 810.52 413.96 767.20 420.92 759.00 454.64 C 755.18 470.25 763.64 485.27 780.48 487.23 Z" fill="#2e1e1b" fill-rule="nonzero" node-id="169" stroke="none" target-height="172.65799" target-width="148.96301" target-x="686.357" target-y="413.959"></path><path d="M 175.91 461.93 L 160.98 478.31 L 165.99 430.48 L 168.58 425.15 C 171.43 425.12 174.15 424.33 176.73 422.79 C 178.91 421.51 179.52 422.05 178.55 424.38 C 172.81 438.52 171.93 451.03 175.91 461.93 Z" fill="#e1dbd1" fill-rule="nonzero" node-id="171" stroke="none" target-height="56.794006" target-width="18.537003" target-x="160.981" target-y="421.514"></path><path d="M 780.48 487.23 C 763.64 485.27 755.18 470.25 759.00 454.64 C 767.20 420.92 810.52 413.96 826.99 444.27 C 827.72 445.60 827.81 446.98 827.26 448.41 C 819.94 467.48 803.47 489.91 780.48 487.23 Z" fill="#fefefe" fill-rule="nonzero" node-id="173" stroke="none" target-height="75.95398" target-width="72.63098" target-x="755.181" target-y="413.959"></path><path d="M 380.83 521.86 C 377.71 521.56 376.32 524.06 376.69 529.37 C 376.81 530.91 376.13 531.90 374.64 532.33 C 369.57 533.75 367.63 536.70 368.82 541.15 C 363.86 520.54 361.08 497.38 367.91 476.90 C 370.00 470.62 372.02 464.02 373.96 457.10 L 397.40 435.07 C 403.22 432.59 411.90 430.07 423.43 427.52 C 424.79 427.22 425.98 427.40 426.98 428.07 C 428.25 428.98 428.14 429.69 426.66 430.21 L 409.14 435.99 C 407.92 436.38 407.36 437.23 407.45 438.53 C 407.48 439.20 407.50 439.85 407.50 440.49 C 407.50 441.34 407.21 442.10 406.63 442.77 C 385.75 466.20 381.19 491.69 380.83 521.86 Z" fill="#715337" fill-rule="nonzero" node-id="175" stroke="none" target-height="113.93698" target-width="67.17001" target-x="361.08" target-y="427.217"></path><path d="M 204.03 434.07 L 173.31 475.26 C 144.28 513.58 134.54 559.09 144.10 611.78 C 147.07 628.20 152.97 641.50 161.80 651.69 C 162.77 652.81 164.10 653.58 165.58 653.88 L 204.94 661.48 L 228.97 668.30 L 190.93 678.82 L 184.37 681.46 C 180.09 681.64 176.71 683.02 174.22 685.60 C 173.73 686.11 173.43 686.78 173.38 687.49 C 173.32 688.19 173.50 688.89 173.91 689.47 C 203.49 732.49 240.26 769.29 284.22 799.87 C 306.36 815.28 327.59 828.77 347.88 840.33 L 385.93 864.26 C 387.41 865.20 387.41 866.16 385.93 867.13 C 384.90 867.83 382.88 868.01 379.88 867.67 L 350.66 856.53 C 349.35 856.04 348.88 856.45 349.25 857.75 L 361.90 906.04 C 359.38 905.76 356.98 908.30 354.71 913.64 C 343.36 894.71 337.93 873.86 338.42 851.11 C 338.43 850.34 338.24 849.58 337.86 848.92 C 337.49 848.25 336.94 847.70 336.28 847.33 L 291.63 822.26 C 291.03 821.92 290.33 821.80 289.64 821.92 C 288.96 822.05 288.35 822.41 287.90 822.94 C 235.75 887.11 143.55 890.52 73.56 857.03 C 1.69 810.94 -17.52 749.98 15.95 674.13 C 22.14 673.49 27.49 671.58 32.01 668.39 L 60.18 686.23 C 60.36 686.33 60.50 686.50 60.56 686.69 C 60.62 686.89 60.60 687.10 60.50 687.28 C 60.40 687.46 60.24 687.60 60.04 687.66 C 59.85 687.72 59.63 687.70 59.45 687.60 L 31.74 674.99 C 30.94 674.63 30.04 674.57 29.21 674.81 C 28.37 675.05 27.65 675.59 27.19 676.31 C 0.56 717.68 8.03 772.15 36.42 810.38 C 91.22 881.24 200.21 879.19 267.06 829.40 L 279.80 819.07 C 281.20 817.92 281.21 816.77 279.85 815.61 L 226.74 770.29 C 201.86 745.44 179.85 717.66 160.71 686.96 L 178.87 672.76 C 183.42 673.95 187.10 673.54 189.92 671.53 C 191.81 670.23 191.81 668.94 189.92 667.67 L 184.78 664.21 C 183.51 663.33 182.25 663.39 181.00 664.39 L 175.32 669.03 C 125.39 652.06 126.89 556.86 140.96 516.72 C 143.72 508.80 146.37 501.41 148.92 494.55 C 149.77 494.37 150.63 494.19 151.51 494.01 C 157.43 490.76 160.59 485.53 160.98 478.31 L 175.91 461.93 L 204.03 434.07 Z" fill="#412d27" fill-rule="nonzero" node-id="177" stroke="none" target-height="479.564" target-width="404.9313" target-x="-17.5173" target-y="434.074"></path><path d="M 504.80 461.79 C 521.30 491.25 522.15 521.60 507.34 552.85 C 484.41 601.18 425.56 606.19 395.76 560.13 C 411.02 574.54 422.88 582.58 431.35 584.25 C 460.86 590.11 483.10 581.29 498.06 557.81 C 506.34 544.79 513.49 519.54 505.84 504.75 C 505.16 503.42 504.92 501.90 505.16 500.43 C 506.22 494.36 504.61 489.52 500.33 485.91 C 499.12 484.88 498.51 483.57 498.51 481.99 L 498.51 468.20 C 498.51 466.38 498.03 464.69 497.06 463.11 C 490.32 452.46 481.27 444.37 469.89 438.85 C 468.37 438.15 468.24 437.24 469.48 436.12 C 471.67 434.18 473.87 433.86 476.08 435.17 C 485.91 440.99 495.48 449.87 504.80 461.79 Z" fill="#170f0a" fill-rule="nonzero" node-id="179" stroke="none" target-height="172.32397" target-width="126.392" target-x="395.757" target-y="433.862"></path><path d="M 397.39 435.07 L 373.96 457.10 C 343.65 505.98 349.75 579.29 406.00 605.46 C 407.88 604.18 407.94 604.80 406.18 607.32 C 398.38 606.50 389.81 602.58 380.47 595.54 C 373.34 590.14 357.38 582.25 332.59 571.87 C 331.80 544.02 336.25 517.23 345.93 491.50 C 346.17 490.86 346.60 490.31 347.15 489.89 C 347.71 489.49 348.37 489.24 349.07 489.18 C 351.31 489.00 352.56 487.99 352.80 486.13 C 353.75 478.54 357.67 469.62 360.62 462.83 C 370.51 450.18 382.77 440.93 397.39 435.07 Z" fill="#fefefe" fill-rule="nonzero" node-id="181" stroke="none" target-height="172.24799" target-width="76.13498" target-x="331.803" target-y="435.075"></path><path d="M 362.04 436.08 C 363.80 439.23 363.40 442.07 360.85 444.59 C 334.14 470.98 307.33 518.36 315.34 555.26 C 316.07 558.57 316.54 558.54 316.75 555.17 L 319.03 523.18 C 319.06 522.75 319.21 522.34 319.47 521.99 C 319.73 521.64 320.08 521.38 320.48 521.23 C 320.89 521.08 321.33 521.05 321.75 521.15 C 322.17 521.24 322.55 521.46 322.85 521.77 C 324.07 523.01 324.69 524.61 324.72 526.55 L 321.53 566.96 C 321.41 568.23 321.96 569.08 323.17 569.51 L 327.81 571.05 C 328.36 571.96 329.95 572.24 332.59 571.87 C 357.38 582.25 373.34 590.14 380.47 595.54 C 389.81 602.58 398.38 606.50 406.18 607.32 C 406.69 608.66 406.35 610.16 405.13 611.83 C 392.88 611.01 382.45 606.23 373.87 597.49 L 309.20 569.19 C 304.44 514.58 322.05 470.21 362.04 436.08 Z" fill="#170f0a" fill-rule="nonzero" node-id="183" stroke="none" target-height="175.75299" target-width="102.25702" target-x="304.438" target-y="436.076"></path><path d="M 850.61 504.66 L 839.51 537.33 C 839.38 537.68 839.14 537.98 838.82 538.17 C 838.50 538.36 838.12 538.43 837.75 538.37 C 837.38 538.32 837.05 538.13 836.80 537.85 C 836.56 537.56 836.42 537.20 836.41 536.83 L 836.41 534.10 C 836.41 532.28 835.52 531.22 833.73 530.91 L 831.59 530.55 C 833.36 522.72 835.32 516.22 834.09 507.89 C 831.15 488.08 829.86 466.76 830.22 443.95 C 847.00 457.88 853.80 478.11 850.61 504.66 Z" fill="#836b44" fill-rule="nonzero" node-id="185" stroke="none" target-height="94.485016" target-width="23.937012" target-x="829.86" target-y="443.949"></path><path d="M 716.45 447.54 C 686.36 500.33 692.97 543.25 736.29 576.29 C 740.69 579.62 747.44 581.81 756.55 582.84 C 790.50 586.62 819.76 561.00 831.59 530.55 L 833.73 530.91 C 835.52 531.22 836.41 532.28 836.41 534.10 L 836.41 536.83 C 836.42 537.20 836.56 537.56 836.80 537.85 C 837.05 538.13 837.38 538.31 837.75 538.37 C 838.12 538.43 838.50 538.36 838.82 538.17 C 839.14 537.98 839.38 537.68 839.51 537.33 L 850.61 504.66 C 849.84 542.29 825.58 591.49 781.58 593.08 L 739.16 586.43 C 701.80 571.42 686.51 525.86 688.78 488.09 C 694.91 470.92 704.14 457.40 716.45 447.54 Z" fill="#fac759" fill-rule="nonzero" node-id="187" stroke="none" target-height="145.53497" target-width="164.25403" target-x="686.357" target-y="447.544"></path><path d="M 988.64 454.64 C 990.12 454.58 991.81 454.95 993.69 455.74 L 1015.30 510.94 C 1015.85 512.27 1015.96 513.65 1015.62 515.08 C 1015.17 517.17 1016.12 518.70 1018.49 519.67 C 1018.07 520.92 1017.19 521.71 1015.85 522.04 C 1011.79 511.03 1005.26 502.99 996.28 497.92 C 998.62 491.43 996.31 483.02 989.37 472.71 C 988.36 471.22 988.50 469.86 989.77 468.61 C 992.87 465.52 992.49 460.86 988.64 454.64 Z" fill="#cec3b9" fill-rule="nonzero" node-id="189" stroke="none" target-height="67.45801" target-width="30.125977" target-x="988.364" target-y="454.583"></path><path d="M 373.96 457.10 C 372.02 464.02 370.00 470.62 367.91 476.90 C 361.08 497.38 363.86 520.54 368.82 541.15 C 372.46 570.33 393.98 600.73 425.98 602.82 C 425.73 603.85 425.23 604.88 424.47 605.91 L 406.00 605.46 C 349.75 579.29 343.65 505.98 373.96 457.10 Z" fill="#2e1e1b" fill-rule="nonzero" node-id="191" stroke="none" target-height="148.81097" target-width="82.324005" target-x="343.651" target-y="457.101"></path><path d="M 525.55 520.54 C 513.80 574.48 480.62 601.91 425.98 602.82 C 393.98 600.73 372.46 570.33 368.82 541.15 C 367.63 536.70 369.57 533.75 374.64 532.33 C 376.13 531.90 376.81 530.92 376.69 529.37 C 376.32 524.06 377.71 521.56 380.83 521.86 C 382.13 537.64 387.11 550.39 395.76 560.13 C 425.56 606.19 484.41 601.18 507.34 552.85 C 522.15 521.60 521.30 491.25 504.80 461.79 C 521.51 475.81 528.43 495.39 525.55 520.54 Z" fill="#fac759" fill-rule="nonzero" node-id="193" stroke="none" target-height="144.39697" target-width="160.79602" target-x="367.633" target-y="461.789"></path><path d="M 360.62 462.83 C 357.67 469.62 353.75 478.54 352.80 486.13 C 352.56 487.99 351.31 489.00 349.07 489.18 C 348.37 489.24 347.71 489.49 347.15 489.90 C 346.60 490.31 346.17 490.86 345.93 491.50 C 336.25 517.23 331.80 544.02 332.59 571.87 C 329.95 572.24 328.36 571.96 327.81 571.05 C 328.24 570.96 328.63 570.87 329.00 570.78 C 329.54 570.63 329.77 570.26 329.68 569.69 C 327.46 553.30 328.01 536.98 331.32 520.72 C 332.05 517.05 330.80 515.08 327.59 514.80 C 331.95 502.25 335.05 485.36 347.20 477.67 C 347.78 477.30 348.27 476.81 348.65 476.25 C 349.04 475.69 349.30 475.06 349.43 474.39 C 350.92 467.42 354.65 463.56 360.62 462.83 Z" fill="#715337" fill-rule="nonzero" node-id="195" stroke="none" target-height="109.40201" target-width="33.16101" target-x="327.464" target-y="462.835"></path><path d="M 872.46 508.66 L 879.10 561.77 C 864.51 576.51 844.65 588.35 819.53 597.27 C 816.95 598.18 814.49 598.36 812.16 597.81 C 809.76 597.21 809.68 596.37 811.93 595.31 C 848.34 578.11 862.12 520.36 858.94 484.54 C 858.48 479.63 855.07 473.76 853.80 468.39 C 853.73 468.14 853.76 467.87 853.89 467.64 C 854.01 467.42 854.22 467.25 854.47 467.17 C 854.72 467.10 854.98 467.12 855.21 467.23 C 855.45 467.35 855.62 467.55 855.71 467.80 L 872.46 508.66 Z" fill="#fbf1e1" fill-rule="nonzero" node-id="197" stroke="none" target-height="131.26196" target-width="69.41498" target-x="809.684" target-y="467.096"></path><path d="M 173.31 475.26 C 174.01 476.65 175.41 477.44 177.50 477.62 C 178.90 477.75 179.50 478.50 179.32 479.90 C 176.74 498.95 171.66 517.07 164.08 534.24 C 153.73 555.20 152.11 576.11 159.21 596.95 C 163.44 608.87 165.53 635.81 183.28 635.45 C 197.60 635.14 212.33 635.61 227.47 636.86 L 175.09 639.77 C 174.48 639.80 173.91 640.04 173.46 640.46 C 173.02 640.88 172.74 641.44 172.67 642.04 C 172.61 642.64 172.76 643.25 173.10 643.75 C 173.44 644.25 173.96 644.62 174.54 644.78 L 204.17 653.38 C 206.11 653.95 206.79 655.21 206.22 657.15 L 204.94 661.48 L 165.58 653.88 C 164.10 653.58 162.78 652.82 161.80 651.69 C 152.97 641.50 147.07 628.20 144.10 611.78 C 134.54 559.09 144.28 513.58 173.31 475.26 Z" fill="#cec3b9" fill-rule="nonzero" node-id="199" stroke="none" target-height="186.21902" target-width="92.927" target-x="134.541" target-y="475.259"></path><path d="M 996.28 497.92 C 1005.26 502.99 1011.79 511.03 1015.85 522.04 C 1028.96 552.71 1024.13 581.38 1016.17 615.24 C 993.63 711.02 943.01 785.91 864.31 839.91 L 848.20 846.79 C 846.68 847.42 845.62 848.50 845.01 850.02 C 836.18 871.47 825.10 891.01 811.75 908.63 C 802.74 919.40 792.42 927.34 780.80 932.43 L 780.62 929.84 C 780.56 928.81 780.01 928.20 778.98 928.02 C 778.43 927.93 777.90 927.84 777.39 927.75 C 806.38 910.32 826.31 869.40 834.37 838.28 C 845.07 812.43 848.43 784.67 844.42 755.00 C 844.06 752.33 844.62 752.12 846.11 754.36 C 847.77 756.88 849.29 760.47 850.66 765.15 C 857.18 787.45 856.47 809.70 848.52 831.91 C 848.47 832.03 848.47 832.16 848.50 832.28 C 848.54 832.40 848.61 832.51 848.72 832.59 C 848.82 832.67 848.94 832.71 849.07 832.71 C 849.20 832.71 849.33 832.67 849.43 832.59 C 911.18 790.17 945.81 741.21 983.95 678.54 C 984.09 678.36 984.15 678.12 984.11 677.89 C 984.08 677.66 983.96 677.45 983.77 677.32 C 983.58 677.18 983.35 677.12 983.12 677.15 C 982.89 677.18 982.68 677.31 982.54 677.50 C 968.93 693.20 964.25 704.71 941.17 706.30 C 939.72 706.39 938.30 706.68 936.94 707.17 L 920.38 712.90 L 949.73 694.47 C 998.92 663.16 1016.94 601.63 1014.76 547.12 C 1014.12 530.91 1006.70 516.11 992.51 502.70 L 980.08 488.09 L 974.85 482.18 C 974.51 481.81 974.41 481.48 974.53 481.18 C 974.59 481.08 974.64 480.99 974.67 480.90 C 974.69 480.87 974.71 480.84 974.75 480.82 C 974.78 480.80 974.82 480.78 974.87 480.78 C 974.91 480.77 974.96 480.78 975.00 480.79 C 975.04 480.81 975.09 480.83 975.12 480.86 L 996.28 497.92 Z" fill="#412d27" fill-rule="nonzero" node-id="201" stroke="none" target-height="451.65997" target-width="251.57098" target-x="777.389" target-y="480.773"></path><path d="M 980.08 488.09 L 992.50 502.70 C 990.68 505.28 990.31 509.65 991.37 515.81 C 995.83 541.44 994.75 569.41 988.14 599.72 C 961.23 603.79 935.79 605.37 911.82 604.46 C 911.22 604.43 910.64 604.21 910.17 603.82 C 909.71 603.44 909.37 602.92 909.23 602.34 C 909.09 601.75 909.14 601.14 909.37 600.60 C 909.61 600.05 910.02 599.60 910.54 599.31 C 916.73 595.79 922.41 591.96 927.57 587.80 C 932.24 584.04 932.97 580.44 929.75 577.01 C 928.72 575.95 927.47 575.33 926.02 575.15 L 906.18 572.60 C 904.63 572.42 903.51 573.03 902.81 574.42 C 900.59 578.91 898.00 580.02 895.03 577.74 L 895.44 537.15 C 901.29 535.09 903.46 530.61 901.94 523.73 C 901.86 523.43 901.89 523.13 902.02 522.86 C 902.16 522.60 902.40 522.40 902.68 522.30 C 902.97 522.20 903.29 522.22 903.57 522.34 C 903.86 522.46 904.09 522.68 904.22 522.95 C 904.58 523.68 905.08 524.07 905.72 524.13 C 906.33 524.20 906.83 524.00 907.22 523.54 L 920.28 509.30 C 921.19 508.31 922.45 507.70 923.79 507.62 C 945.02 505.89 963.79 499.38 980.08 488.09 Z" fill="#fcecdc" fill-rule="nonzero" node-id="203" stroke="none" target-height="117.274994" target-width="100.80005" target-x="895.027" target-y="488.092"></path><path d="M 893.62 582.79 L 875.05 582.02 C 882.97 566.73 884.32 559.98 879.10 561.77 L 872.46 508.66 L 881.47 502.34 C 882.98 501.24 883.97 501.61 884.42 503.43 C 890.70 528.40 891.92 553.64 888.07 579.15 C 887.82 580.70 888.47 581.66 890.02 582.02 L 893.62 582.79 Z" fill="#4e423d" fill-rule="nonzero" node-id="205" stroke="none" target-height="81.55002" target-width="21.161987" target-x="872.455" target-y="501.244"></path><path d="M 992.51 502.70 C 1006.70 516.11 1014.12 530.91 1014.76 547.12 C 1016.94 601.63 998.92 663.16 949.73 694.47 C 945.90 689.68 945.56 686.08 948.68 683.69 C 950.26 683.29 951.87 682.28 953.50 680.64 C 954.60 679.51 954.95 678.21 954.55 676.72 C 950.37 661.43 972.53 648.28 979.08 635.13 C 981.49 630.26 979.81 626.25 983.00 621.34 C 986.15 616.49 987.85 613.60 988.09 612.69 C 989.18 608.23 989.20 603.91 988.14 599.72 C 994.75 569.41 995.83 541.44 991.37 515.81 C 990.31 509.65 990.68 505.28 992.51 502.70 Z" fill="#cec3b9" fill-rule="nonzero" node-id="207" stroke="none" target-height="191.77197" target-width="71.382996" target-x="945.557" target-y="502.7"></path><path d="M 601.77 507.34 C 599.50 507.62 597.12 507.34 594.63 506.52 C 594.32 506.44 594.05 506.24 593.87 505.98 C 593.69 505.71 593.62 505.38 593.66 505.06 C 593.71 504.75 593.87 504.45 594.11 504.25 C 594.36 504.04 594.67 503.92 594.99 503.93 L 604.87 503.61 C 605.40 503.60 605.91 503.77 606.32 504.11 C 606.73 504.45 607.00 504.93 607.09 505.45 C 607.17 505.97 607.06 506.51 606.78 506.96 C 606.50 507.41 606.06 507.74 605.55 507.89 C 603.76 508.40 602.50 508.22 601.77 507.34 Z" fill="#e1dbd1" fill-rule="nonzero" node-id="209" stroke="none" target-height="4.8089905" target-width="13.550964" target-x="593.619" target-y="503.595"></path><path d="M 327.59 514.80 C 330.80 515.08 332.05 517.05 331.32 520.72 C 328.01 536.98 327.46 553.30 329.68 569.69 C 329.77 570.26 329.54 570.63 329.00 570.78 C 328.63 570.87 328.24 570.96 327.81 571.05 L 323.17 569.51 C 321.96 569.08 321.41 568.23 321.53 566.96 L 324.72 526.55 L 327.59 514.80 Z" fill="#cec3b9" fill-rule="nonzero" node-id="211" stroke="none" target-height="56.247986" target-width="10.634003" target-x="321.412" target-y="514.805"></path><path d="M 525.55 520.54 L 529.32 520.72 C 518.45 569.55 476.94 610.69 424.47 605.91 C 425.23 604.88 425.73 603.85 425.98 602.82 C 480.62 601.91 513.80 574.48 525.55 520.54 Z" fill="#836b44" fill-rule="nonzero" node-id="213" stroke="none" target-height="90.15198" target-width="104.85098" target-x="424.473" target-y="520.539"></path><path d="M 569.42 523.23 C 570.57 521.98 572.04 521.54 573.83 521.90 C 575.32 522.21 575.68 523.03 574.92 524.36 C 572.74 528.06 569.54 529.95 565.32 530.00 C 564.95 530.01 564.59 529.91 564.28 529.73 C 563.96 529.54 563.71 529.26 563.54 528.93 C 563.38 528.61 563.30 528.24 563.34 527.87 C 563.37 527.51 563.51 527.16 563.73 526.87 C 564.67 525.62 565.97 524.76 567.64 524.27 C 568.31 524.09 568.90 523.74 569.42 523.23 Z" fill="#bda194" fill-rule="nonzero" node-id="215" stroke="none" target-height="8.471008" target-width="12.377014" target-x="563.304" target-y="521.541"></path><path d="M 164.07 534.24 C 158.68 553.72 157.05 574.62 159.21 596.95 C 152.11 576.11 153.73 555.20 164.07 534.24 Z" fill="#b4aaa6" fill-rule="nonzero" node-id="217" stroke="none" target-height="62.711" target-width="11.968994" target-x="152.106" target-y="534.237"></path><path d="M 580.16 560.18 C 575.94 556.81 574.16 552.73 574.83 547.93 C 575.09 546.14 575.87 544.46 577.08 543.10 C 578.28 541.74 579.86 540.76 581.61 540.29 C 605.12 533.92 628.35 532.55 651.29 536.19 C 663.03 538.06 674.13 546.12 661.25 557.86 C 634.08 582.66 607.73 581.98 580.16 560.18 Z M 640.00 555.63 C 640.91 555.60 641.80 555.33 642.57 554.83 C 643.33 554.33 643.94 553.62 644.33 552.80 C 644.72 551.97 644.87 551.05 644.76 550.14 C 644.65 549.24 644.30 548.38 643.73 547.66 C 640.03 542.99 635.71 540.40 630.76 539.88 C 628.85 539.70 627.65 540.53 627.17 542.38 C 624.80 551.49 629.08 555.90 640.00 555.63 Z M 652.01 557.13 C 650.38 556.82 649.47 557.66 649.28 559.63 C 649.04 561.97 649.88 562.44 651.79 561.04 L 660.43 554.72 C 661.16 554.19 661.77 553.51 662.22 552.74 C 662.66 551.96 662.94 551.09 663.03 550.20 C 663.12 549.30 663.02 548.40 662.74 547.55 C 662.46 546.70 662.00 545.91 661.39 545.25 C 657.53 541.03 652.95 539.41 647.64 540.38 C 644.82 540.90 644.26 542.31 645.96 544.61 L 653.42 554.90 C 653.59 555.12 653.68 555.39 653.69 555.67 C 653.70 555.94 653.62 556.22 653.47 556.46 C 653.32 556.69 653.10 556.88 652.84 557.00 C 652.58 557.12 652.30 557.17 652.01 557.13 Z" fill="#d57784" fill-rule="nonzero" node-id="219" stroke="none" target-height="50.10504" target-width="99.966" target-x="574.165" target-y="532.553"></path><path d="M 640.00 555.63 C 629.08 555.90 624.80 551.49 627.17 542.38 C 627.65 540.53 628.85 539.70 630.76 539.88 C 635.71 540.40 640.03 542.99 643.73 547.66 C 644.30 548.38 644.65 549.24 644.76 550.14 C 644.87 551.05 644.72 551.97 644.33 552.80 C 643.94 553.62 643.33 554.33 642.57 554.83 C 641.80 555.33 640.91 555.60 640.00 555.63 Z" fill="#fcd9c8" fill-rule="nonzero" node-id="221" stroke="none" target-height="16.200989" target-width="20.065002" target-x="624.8" target-y="539.698"></path><path d="M 653.42 554.90 L 645.96 544.61 C 644.26 542.31 644.82 540.90 647.64 540.38 C 652.95 539.41 657.53 541.03 661.39 545.25 C 662.00 545.91 662.46 546.70 662.74 547.55 C 663.02 548.40 663.12 549.30 663.03 550.20 C 662.94 551.09 662.66 551.96 662.22 552.74 C 661.77 553.51 661.16 554.19 660.43 554.72 L 651.79 561.04 C 649.88 562.44 649.04 561.97 649.28 559.63 C 649.47 557.66 650.38 556.82 652.01 557.13 C 652.30 557.17 652.58 557.12 652.84 557.00 C 653.10 556.88 653.32 556.69 653.47 556.46 C 653.62 556.22 653.70 555.94 653.69 555.67 C 653.68 555.39 653.59 555.12 653.42 554.90 Z" fill="#fba2b7" fill-rule="nonzero" node-id="223" stroke="none" target-height="23.027039" target-width="18.860962" target-x="644.262" target-y="539.41"></path><path d="M 309.20 569.19 L 373.87 597.49 C 371.71 599.50 370.73 600.73 370.91 601.18 C 353.10 593.38 334.43 587.66 314.89 584.02 C 312.10 583.51 311.84 584.08 314.12 585.75 C 317.70 588.42 321.62 590.17 325.90 590.99 C 340.89 593.87 355.76 598.63 370.50 605.28 C 368.77 609.55 364.02 611.50 356.26 611.10 C 343.70 610.40 331.89 609.77 320.85 609.19 L 246.63 599.91 C 246.63 597.93 248.13 597.24 251.13 597.81 C 251.74 597.92 252.36 597.86 252.93 597.62 C 253.49 597.39 253.98 597.00 254.32 596.49 C 257.62 591.73 261.31 590.17 265.38 591.80 C 266.68 592.32 267.76 592.02 268.61 590.89 L 274.30 583.57 C 274.62 583.14 274.85 582.65 274.96 582.13 C 275.07 581.60 275.06 581.06 274.94 580.54 C 274.82 580.02 274.59 579.53 274.25 579.11 C 273.92 578.69 273.50 578.35 273.02 578.11 C 261.68 572.50 250.36 567.18 239.07 562.18 C 236.98 561.24 235.63 560.12 235.02 558.81 C 234.42 557.51 234.28 556.22 234.61 554.94 C 235.07 553.25 236.15 552.62 237.84 553.08 C 254.54 557.58 269.29 553.76 283.81 562.00 C 285.05 562.73 286.40 563.03 287.86 562.91 C 293.17 562.57 297.57 564.30 301.06 568.10 C 302.12 569.25 303.42 569.75 304.97 569.60 L 309.20 569.19 Z" fill="#fcecdc" fill-rule="nonzero" node-id="225" stroke="none" target-height="58.87201" target-width="139.589" target-x="234.279" target-y="552.623"></path><path d="M 988.14 599.72 C 989.20 603.91 989.18 608.23 988.09 612.69 C 987.85 613.60 986.15 616.49 982.99 621.34 C 979.81 626.25 981.49 630.26 979.08 635.13 C 972.53 648.28 950.37 661.43 954.55 676.72 C 954.95 678.21 954.60 679.51 953.50 680.64 C 951.87 682.27 950.26 683.29 948.68 683.69 L 924.29 674.27 C 922.95 673.75 921.56 673.52 920.10 673.58 C 897.08 674.34 876.48 667.59 858.30 653.33 C 848.88 645.96 835.73 638.54 830.59 628.44 C 827.55 622.46 826.45 615.86 827.26 608.64 C 827.42 607.25 828.18 606.34 829.54 605.91 C 836.94 603.61 840.84 600.13 841.24 595.49 L 875.05 582.02 L 893.62 582.79 L 895.03 577.74 C 898.00 580.02 900.59 578.91 902.81 574.42 C 903.51 573.02 904.63 572.42 906.18 572.60 L 926.02 575.15 C 927.47 575.33 928.72 575.95 929.75 577.01 C 932.97 580.44 932.24 584.04 927.57 587.80 C 922.41 591.96 916.73 595.79 910.54 599.31 C 910.02 599.60 909.61 600.05 909.37 600.60 C 909.14 601.14 909.09 601.75 909.23 602.33 C 909.37 602.92 909.71 603.44 910.17 603.82 C 910.64 604.20 911.22 604.43 911.82 604.46 C 935.79 605.37 961.23 603.79 988.14 599.72 Z" fill="#fcd9c8" fill-rule="nonzero" node-id="227" stroke="none" target-height="111.26697" target-width="162.75299" target-x="826.446" target-y="572.419"></path><path d="M 370.91 601.18 L 372.96 603.14 C 373.87 603.99 373.70 604.55 372.46 604.82 L 370.50 605.28 C 355.76 598.63 340.89 593.87 325.90 590.99 C 321.62 590.17 317.70 588.42 314.12 585.75 C 311.84 584.08 312.10 583.51 314.89 584.02 C 334.43 587.66 353.10 593.38 370.91 601.18 Z" fill="#9b6364" fill-rule="nonzero" node-id="229" stroke="none" target-height="21.768982" target-width="62.028015" target-x="311.84" target-y="583.507"></path><path d="M 650.83 644.28 C 645.22 651.44 638.92 662.30 631.94 676.86 C 627.91 685.32 620.58 687.78 609.96 684.23 C 599.25 671.55 591.00 656.02 585.21 637.63 C 589.79 632.84 592.17 631.84 592.35 634.63 C 592.26 647.31 596.37 660.11 604.68 673.04 C 624.35 703.53 641.77 652.51 646.01 641.04 C 646.49 639.71 646.34 638.45 645.55 637.27 L 638.00 625.48 L 625.53 598.22 C 624.95 596.99 624.06 595.92 622.95 595.14 C 621.83 594.36 620.53 593.89 619.17 593.77 C 617.81 593.66 616.45 593.90 615.21 594.49 C 613.98 595.07 612.92 595.96 612.15 597.08 C 604.27 608.51 586.53 625.21 585.21 637.63 L 577.65 638.91 C 574.25 639.48 573.65 638.44 575.83 635.77 L 615.79 587.25 C 616.27 586.66 616.90 586.19 617.60 585.89 C 618.31 585.58 619.08 585.46 619.85 585.52 C 620.61 585.59 621.35 585.83 622.00 586.25 C 622.65 586.66 623.19 587.22 623.57 587.89 C 630.99 600.63 639.59 620.98 650.24 630.35 C 665.04 643.37 665.24 648.01 650.83 644.28 Z" fill="#170f0a" fill-rule="nonzero" node-id="231" stroke="none" target-height="118.066956" target-width="91.59204" target-x="573.649" target-y="585.46"></path><path d="M 781.58 593.08 L 779.48 595.72 C 765.68 596.57 752.24 593.47 739.16 586.43 L 781.58 593.08 Z" fill="#bb9a50" fill-rule="nonzero" node-id="233" stroke="none" target-height="10.132996" target-width="42.413025" target-x="739.162" target-y="586.435"></path><path d="M 246.63 599.91 L 320.85 609.19 C 304.26 611.22 286.99 610.46 269.06 606.91 L 171.90 597.13 C 171.66 597.11 171.43 597.02 171.24 596.87 C 171.04 596.72 170.90 596.52 170.81 596.29 C 170.73 596.06 170.72 595.81 170.78 595.57 C 170.83 595.33 170.95 595.12 171.13 594.95 L 172.31 593.81 C 172.89 593.23 173.59 592.97 174.41 593.03 L 246.63 599.91 Z" fill="#ccb4a7" fill-rule="nonzero" node-id="235" stroke="none" target-height="18.247986" target-width="150.13101" target-x="170.72" target-y="592.974"></path><path d="M 638.00 625.48 C 629.99 622.16 624.30 611.19 618.47 610.37 C 615.44 609.95 612.82 612.00 610.60 616.52 C 605.23 619.55 600.56 624.77 596.59 632.17 L 592.35 634.63 C 592.17 631.84 589.79 632.84 585.21 637.63 C 586.53 625.21 604.28 608.51 612.15 597.08 C 612.92 595.96 613.98 595.07 615.21 594.49 C 616.45 593.90 617.81 593.66 619.17 593.77 C 620.53 593.89 621.83 594.36 622.95 595.14 C 624.06 595.92 624.95 596.99 625.53 598.22 L 638.00 625.48 Z" fill="#412d27" fill-rule="nonzero" node-id="237" stroke="none" target-height="43.973022" target-width="52.789" target-x="585.208" target-y="593.659"></path><path d="M 373.87 597.49 C 382.45 606.23 392.88 611.01 405.13 611.83 C 403.71 615.50 404.39 618.84 407.18 621.84 C 408.27 623.02 408.85 624.40 408.91 625.98 C 409.73 644.50 384.88 674.04 368.18 680.32 C 346.15 688.54 323.34 690.39 299.74 685.87 C 299.59 685.87 299.45 685.81 299.35 685.71 C 299.25 685.61 299.19 685.47 299.19 685.32 C 299.19 685.18 299.25 685.04 299.35 684.94 C 299.45 684.84 299.59 684.78 299.74 684.78 L 301.56 684.50 C 301.64 684.51 301.72 684.48 301.79 684.43 C 301.85 684.37 301.89 684.29 301.90 684.21 C 301.90 684.12 301.88 684.04 301.82 683.98 C 301.76 683.91 301.69 683.87 301.60 683.87 L 284.72 678.86 C 283.53 678.53 282.47 677.97 281.53 677.18 C 274.30 671.26 240.48 636.27 227.01 656.06 C 223.04 661.95 223.69 666.03 228.97 668.30 L 204.94 661.48 L 206.22 657.15 C 206.79 655.21 206.11 653.95 204.17 653.38 L 174.54 644.78 C 173.96 644.62 173.44 644.25 173.10 643.75 C 172.76 643.25 172.61 642.64 172.67 642.04 C 172.74 641.44 173.02 640.88 173.46 640.46 C 173.91 640.04 174.48 639.80 175.09 639.77 L 227.47 636.86 C 244.76 634.92 267.12 634.11 294.55 634.45 C 295.76 634.45 296.66 634.14 297.23 633.54 C 298.20 632.50 297.99 631.88 296.60 631.67 L 267.70 627.67 C 266.67 627.51 266.59 627.16 267.47 626.62 L 269.02 625.75 C 269.47 625.48 269.94 625.40 270.43 625.53 C 274.80 626.71 279.30 626.98 283.94 626.35 C 285.43 626.16 286.14 625.31 286.08 623.80 L 285.99 619.84 C 285.93 617.75 284.85 616.77 282.76 616.93 C 275.21 617.38 270.64 614.04 269.06 606.91 C 286.99 610.46 304.26 611.22 320.85 609.19 C 331.89 609.77 343.70 610.40 356.26 611.10 C 364.02 611.50 368.77 609.55 370.50 605.28 L 372.46 604.82 C 373.70 604.55 373.87 603.99 372.96 603.14 L 370.91 601.18 C 370.73 600.73 371.71 599.50 373.87 597.49 Z" fill="#fce3d3" fill-rule="nonzero" node-id="239" stroke="none" target-height="92.89697" target-width="237.12" target-x="172.608" target-y="597.494"></path><path d="M 638.00 625.48 L 645.55 637.27 C 646.34 638.45 646.49 639.71 646.01 641.04 C 641.77 652.51 624.34 703.53 604.68 673.04 C 596.37 660.11 592.26 647.31 592.35 634.63 L 596.58 632.17 C 598.65 632.20 600.24 633.38 601.36 635.72 C 602.09 637.21 603.21 637.62 604.73 636.95 C 611.16 634.13 617.72 633.63 624.39 635.45 C 625.10 635.65 625.86 635.65 626.57 635.45 C 627.28 635.25 627.93 634.86 628.43 634.32 C 628.94 633.78 629.29 633.11 629.44 632.39 C 629.60 631.66 629.55 630.91 629.30 630.21 C 626.27 621.36 620.04 616.79 610.60 616.52 C 612.82 612.00 615.44 609.95 618.47 610.37 C 624.30 611.19 629.99 622.16 638.00 625.48 Z" fill="#fba2b7" fill-rule="nonzero" node-id="241" stroke="none" target-height="93.57898" target-width="54.231018" target-x="592.261" target-y="609.948"></path><path d="M 610.60 616.52 C 620.04 616.79 626.27 621.36 629.30 630.21 C 629.55 630.91 629.60 631.66 629.44 632.39 C 629.29 633.11 628.94 633.78 628.43 634.32 C 627.93 634.86 627.28 635.25 626.57 635.45 C 625.86 635.65 625.10 635.65 624.39 635.45 C 617.72 633.63 611.16 634.13 604.73 636.95 C 603.21 637.62 602.09 637.21 601.36 635.72 C 600.24 633.38 598.65 632.20 596.59 632.17 C 600.56 624.77 605.23 619.55 610.60 616.52 Z" fill="#c6626b" fill-rule="nonzero" node-id="243" stroke="none" target-height="21.101013" target-width="33.010986" target-x="596.585" target-y="616.516"></path><path d="M 156.16 686.74 C 163.41 709.12 158.71 726.16 142.05 737.84 C 139.76 739.45 137.07 740.38 134.28 740.51 C 131.49 740.65 128.73 739.99 126.30 738.62 C 124.97 737.83 122.92 737.16 120.16 736.61 C 118.10 736.22 117.88 736.69 119.52 738.02 L 167.53 777.57 C 168.20 778.15 168.11 778.56 167.26 778.80 C 166.53 778.98 165.76 778.75 164.94 778.12 C 146.92 764.51 105.87 741.12 99.23 719.87 C 98.86 717.56 98.94 715.80 99.45 714.59 C 99.66 714.09 100.00 713.67 100.44 713.36 C 100.88 713.06 101.40 712.88 101.93 712.86 C 102.46 712.83 102.99 712.96 103.46 713.23 C 103.92 713.49 104.30 713.89 104.55 714.36 C 110.01 724.69 121.84 732.38 133.63 726.65 C 154.11 716.68 143.64 682.87 136.72 667.49 C 115.84 621.39 58.86 636.22 32.01 668.40 C 27.49 671.58 22.14 673.49 15.95 674.13 C 35.03 648.58 57.75 634.07 84.12 630.58 C 130.40 624.43 140.18 652.15 156.16 686.74 Z" fill="#2e1e1b" fill-rule="nonzero" node-id="245" stroke="none" target-height="157.594" target-width="152.2548" target-x="15.9462" target-y="621.386"></path><path d="M 99.23 719.87 C 94.68 720.23 92.13 721.81 91.58 724.60 C 88.08 742.48 84.48 760.87 69.28 772.29 C 60.76 778.66 52.49 785.40 44.48 792.50 C 43.54 793.32 42.35 793.78 41.11 793.82 C 37.38 793.91 35.47 795.70 35.38 799.19 C 35.35 800.49 35.79 801.60 36.70 802.51 C 39.25 805.03 39.16 807.65 36.42 810.38 C 8.03 772.15 0.56 717.68 27.19 676.31 C 27.65 675.59 28.37 675.05 29.21 674.81 C 30.04 674.57 30.94 674.63 31.74 674.99 L 59.45 687.60 C 59.63 687.70 59.84 687.72 60.04 687.66 C 60.24 687.60 60.40 687.46 60.50 687.28 C 60.60 687.10 60.62 686.89 60.56 686.69 C 60.50 686.50 60.36 686.33 60.18 686.23 L 32.01 668.39 C 58.86 636.22 115.84 621.38 136.72 667.49 C 143.64 682.87 154.11 716.68 133.63 726.65 C 121.84 732.38 110.01 724.69 104.55 714.36 C 104.30 713.89 103.92 713.49 103.46 713.23 C 102.99 712.96 102.46 712.83 101.93 712.86 C 101.40 712.88 100.88 713.06 100.44 713.36 C 100.00 713.67 99.66 714.09 99.45 714.59 C 98.94 715.80 98.86 717.56 99.23 719.87 Z" fill="#fdfaee" fill-rule="nonzero" node-id="247" stroke="none" target-height="188.99597" target-width="153.54463" target-x="0.564354" target-y="621.385"></path><path d="M 650.83 644.28 C 660.14 664.66 665.54 683.17 667.03 699.80 C 667.20 701.67 666.73 703.55 665.71 705.13 C 664.69 706.72 663.17 707.91 661.39 708.53 C 640.27 715.97 619.29 716.10 598.45 708.94 C 596.84 708.40 596.17 707.27 596.45 705.58 C 597.27 700.54 599.44 696.40 602.96 693.15 C 603.96 692.21 604.43 692.44 604.37 693.83 C 604.34 694.26 604.32 694.65 604.32 695.02 C 604.32 696.11 604.78 696.35 605.69 695.75 C 609.02 693.47 610.45 689.63 609.96 684.23 C 620.58 687.78 627.91 685.32 631.95 676.86 C 638.92 662.30 645.22 651.44 650.83 644.28 Z" fill="#fefefe" fill-rule="nonzero" node-id="249" stroke="none" target-height="71.82703" target-width="71.02203" target-x="596.175" target-y="644.276"></path><path d="M 178.87 672.76 C 178.87 671.88 177.68 670.64 175.32 669.03 L 181.00 664.39 C 182.25 663.39 183.51 663.33 184.78 664.21 L 189.92 667.67 C 191.81 668.94 191.81 670.23 189.92 671.53 C 187.10 673.54 183.42 673.95 178.87 672.76 Z" fill="#715337" fill-rule="nonzero" node-id="251" stroke="none" target-height="10.619019" target-width="16.488998" target-x="175.316" target-y="663.328"></path><path d="M 850.66 765.15 C 855.09 759.87 859.96 755.42 865.26 751.81 C 884.33 738.98 900.17 724.05 920.38 712.90 L 936.94 707.17 C 938.30 706.68 939.72 706.39 941.17 706.30 C 964.25 704.71 968.93 693.20 982.54 677.50 C 982.68 677.31 982.88 677.19 983.12 677.15 C 983.35 677.12 983.58 677.18 983.77 677.32 C 983.96 677.45 984.08 677.66 984.11 677.89 C 984.15 678.12 984.09 678.36 983.95 678.54 C 945.81 741.21 911.18 790.18 849.43 832.59 C 849.33 832.67 849.20 832.71 849.07 832.71 C 848.94 832.71 848.82 832.67 848.72 832.59 C 848.61 832.51 848.54 832.40 848.50 832.28 C 848.47 832.16 848.47 832.03 848.52 831.91 C 856.47 809.70 857.18 787.45 850.66 765.15 Z" fill="#cec3b9" fill-rule="nonzero" node-id="253" stroke="none" target-height="155.59204" target-width="135.68097" target-x="848.466" target-y="677.118"></path><path d="M 190.93 678.82 L 199.25 696.02 C 209.26 714.31 221.10 731.35 234.75 747.12 C 234.29 748.22 233.90 748.84 233.57 748.99 C 232.66 749.37 231.65 749.45 230.70 749.21 C 229.75 748.97 228.90 748.43 228.29 747.67 C 210.90 726.43 196.26 704.36 184.37 681.46 L 190.93 678.82 Z" fill="#715337" fill-rule="nonzero" node-id="255" stroke="none" target-height="70.63098" target-width="50.377" target-x="184.372" target-y="678.817"></path><path d="M 184.37 681.46 C 196.26 704.36 210.90 726.43 228.29 747.67 C 228.90 748.43 229.75 748.97 230.70 749.21 C 231.65 749.45 232.66 749.37 233.57 748.99 C 233.90 748.84 234.29 748.22 234.75 747.12 L 249.77 758.46 C 251.19 759.52 252.56 759.44 253.86 758.23 L 265.15 747.35 L 347.88 840.33 C 327.59 828.77 306.36 815.28 284.22 799.87 C 240.26 769.29 203.49 732.49 173.91 689.47 C 173.50 688.89 173.32 688.19 173.38 687.49 C 173.43 686.78 173.73 686.11 174.22 685.60 C 176.71 683.02 180.09 681.64 184.37 681.46 Z" fill="#cec3b9" fill-rule="nonzero" node-id="257" stroke="none" target-height="158.86902" target-width="174.566" target-x="173.317" target-y="681.456"></path><path d="M 156.16 686.74 L 160.71 686.96 C 179.85 717.67 201.86 745.44 226.74 770.29 C 209.81 798.68 190.97 819.16 156.66 823.53 C 127.17 827.31 108.60 809.33 88.62 789.95 C 87.74 789.07 87.09 789.22 86.67 790.40 C 86.45 790.92 86.62 791.52 87.17 792.22 C 101.05 810.38 119.20 818.62 133.04 835.00 C 155.29 861.39 188.47 839.37 216.00 845.19 C 228.61 847.83 245.81 838.37 254.77 829.81 C 260.93 823.99 265.03 823.85 267.06 829.40 C 200.21 879.19 91.22 881.24 36.43 810.38 C 39.16 807.65 39.25 805.03 36.70 802.51 C 35.79 801.60 35.35 800.49 35.38 799.19 C 35.47 795.70 37.38 793.91 41.11 793.82 C 42.35 793.78 43.54 793.32 44.48 792.50 C 52.49 785.40 60.76 778.66 69.28 772.29 C 84.48 760.87 88.08 742.48 91.58 724.60 C 92.13 721.81 94.68 720.23 99.23 719.87 C 105.87 741.12 146.92 764.51 164.94 778.12 C 165.76 778.75 166.53 778.98 167.26 778.80 C 168.11 778.55 168.20 778.15 167.53 777.57 L 119.52 738.02 C 117.89 736.69 118.10 736.22 120.16 736.61 C 122.92 737.16 124.97 737.83 126.30 738.61 C 128.73 739.99 131.49 740.65 134.28 740.51 C 137.07 740.38 139.76 739.45 142.05 737.84 C 158.71 726.16 163.41 709.12 156.16 686.74 Z" fill="#cec3b9" fill-rule="nonzero" node-id="259" stroke="none" target-height="194.50201" target-width="231.7127" target-x="35.3483" target-y="686.735"></path><path d="M 265.15 747.35 L 253.86 758.23 C 252.56 759.44 251.19 759.52 249.77 758.46 L 234.75 747.12 C 221.10 731.35 209.26 714.31 199.25 696.02 L 211.59 689.78 C 212.15 689.49 212.80 689.36 213.44 689.43 C 214.09 689.49 214.71 689.74 215.23 690.15 C 235.71 706.53 249.77 726.78 265.15 747.35 Z" fill="#e1dbd1" fill-rule="nonzero" node-id="261" stroke="none" target-height="70.15503" target-width="65.89598" target-x="199.253" target-y="689.362"></path><path d="M 226.74 770.29 L 279.85 815.61 C 281.21 816.77 281.20 817.92 279.80 819.07 L 267.06 829.40 C 265.03 823.85 260.93 823.99 254.77 829.81 C 245.81 838.37 228.61 847.83 216.00 845.20 C 188.47 839.37 155.29 861.39 133.04 835.00 C 119.20 818.62 101.05 810.38 87.17 792.22 C 86.62 791.52 86.45 790.92 86.67 790.40 C 87.09 789.22 87.74 789.07 88.62 789.95 C 108.60 809.33 127.17 827.31 156.66 823.53 C 190.97 819.16 209.81 798.68 226.74 770.29 Z" fill="#bdb3b0" fill-rule="nonzero" node-id="263" stroke="none" target-height="91.106995" target-width="194.75961" target-x="86.4534" target-y="770.288"></path><path d="M 354.71 913.64 C 369.41 939.81 399.76 940.72 425.70 947.31 L 418.74 974.35 C 418.50 975.29 418.86 975.77 419.83 975.80 C 420.26 975.80 420.70 975.79 421.15 975.76 C 422.37 975.67 422.23 976.51 420.74 978.30 C 419.86 979.40 419.62 980.84 420.01 982.63 C 342.23 981.96 264.83 976.11 187.83 965.06 C 170.45 962.56 -48.63 926.43 32.69 873.77 C 45.10 865.73 58.72 860.15 73.56 857.03 C 143.55 890.52 235.75 887.11 287.90 822.94 C 288.35 822.41 288.96 822.05 289.64 821.92 C 290.33 821.80 291.03 821.92 291.63 822.26 L 336.28 847.33 C 336.94 847.70 337.49 848.25 337.86 848.92 C 338.24 849.58 338.43 850.34 338.42 851.11 C 337.93 873.86 343.36 894.71 354.71 913.64 Z" fill="#bdb3b0" fill-rule="nonzero" node-id="265" stroke="none" target-height="160.83105" target-width="474.33148" target-x="-48.6295" target-y="821.798"></path><path d="M 723.87 930.79 C 726.00 936.29 728.91 938.30 732.61 936.85 C 734.88 935.94 737.31 933.89 739.89 930.70 C 747.35 927.46 750.02 920.16 747.90 908.82 C 747.78 908.25 747.89 907.66 748.20 907.17 C 748.52 906.68 749.02 906.34 749.58 906.22 C 750.15 906.10 750.74 906.21 751.23 906.53 C 751.72 906.84 752.06 907.34 752.18 907.90 C 753.85 915.07 754.01 922.35 752.68 929.75 C 752.47 931.02 752.95 931.92 754.13 932.43 C 755.23 932.89 756.21 932.72 757.09 931.93 L 777.39 927.75 C 777.90 927.84 778.43 927.93 778.98 928.02 C 780.01 928.20 780.56 928.81 780.62 929.84 L 780.80 932.43 C 748.72 944.54 685.42 954.87 674.27 907.22 L 673.13 892.02 C 675.22 862.20 687.28 840.37 709.31 826.54 C 709.41 826.45 709.54 826.41 709.67 826.42 C 709.81 826.44 709.93 826.50 710.01 826.60 C 710.10 826.71 710.14 826.84 710.13 826.97 C 710.11 827.10 710.05 827.23 709.95 827.31 C 689.13 848.00 679.41 872.85 680.77 901.85 C 681.68 920.33 692.88 930.29 710.08 933.39 C 711.96 933.72 712.84 932.92 712.72 930.98 L 711.36 913.09 C 711.31 912.61 711.38 912.12 711.54 911.67 C 711.71 911.21 711.97 910.80 712.31 910.45 L 713.22 909.59 C 713.50 909.32 713.85 909.14 714.23 909.06 C 714.61 908.98 715.01 909.02 715.37 909.15 C 715.73 909.29 716.05 909.53 716.28 909.84 C 716.51 910.15 716.65 910.52 716.68 910.91 L 718.23 936.03 C 718.44 939.27 719.30 939.46 720.82 936.58 L 723.87 930.79 Z" fill="#170f0a" fill-rule="nonzero" node-id="267" stroke="none" target-height="128.45801" target-width="107.67297" target-x="673.129" target-y="826.411"></path><path d="M 607.69 864.72 C 606.51 868.02 606.19 872.16 606.73 877.14 C 606.74 877.26 606.71 877.39 606.64 877.49 C 606.57 877.60 606.47 877.68 606.36 877.73 C 606.24 877.77 606.12 877.78 605.99 877.75 C 605.87 877.72 605.77 877.65 605.69 877.55 C 605.29 877.03 605.16 876.56 605.28 876.14 C 606.05 873.14 605.46 867.58 605.50 864.17 L 602.05 830.00 C 602.03 829.91 602.04 829.82 602.06 829.73 C 602.09 829.64 602.14 829.56 602.20 829.50 C 602.26 829.43 602.34 829.38 602.42 829.35 C 602.50 829.32 602.59 829.30 602.68 829.31 C 603.20 829.31 603.50 829.49 603.59 829.86 C 606.72 841.02 608.08 852.64 607.69 864.72 Z" fill="#715337" fill-rule="nonzero" node-id="269" stroke="none" target-height="48.474" target-width="6.0510254" target-x="602.032" target-y="829.304"></path><path d="M 499.65 858.53 L 508.16 911.00 C 508.44 912.67 509.41 913.53 511.07 913.59 C 564.35 916.20 617.35 914.47 670.08 908.40 L 673.04 912.05 C 673.30 912.38 673.47 912.78 673.53 913.20 C 673.58 913.62 673.52 914.05 673.36 914.45 C 673.19 914.84 672.92 915.17 672.57 915.43 C 672.23 915.68 671.82 915.83 671.40 915.87 C 617.47 920.56 559.81 925.52 506.30 920.42 C 504.78 920.27 503.73 920.89 503.16 922.28 C 492.14 948.95 448.32 948.77 425.70 947.32 C 399.76 940.72 369.41 939.81 354.71 913.64 C 356.98 908.30 359.38 905.77 361.90 906.04 C 369.15 923.63 382.09 932.75 400.72 933.39 C 402.72 933.45 403.24 932.62 402.26 930.89 L 385.61 901.08 L 398.17 913.73 C 399.11 918.13 401.57 921.35 405.54 923.38 C 406.48 923.84 407.19 924.64 407.54 925.61 L 409.32 930.48 C 409.83 931.87 410.81 932.81 412.23 933.30 L 439.17 942.95 C 442.51 937.55 443.07 928.88 440.86 916.96 C 440.61 915.75 440.89 914.94 441.68 914.55 C 442.43 914.18 442.98 914.38 443.31 915.14 L 453.69 938.49 C 454.45 940.15 455.69 940.70 457.42 940.12 L 470.62 935.80 C 472.11 935.35 473.01 934.36 473.35 932.84 C 474.81 926.17 474.27 919.59 471.76 913.09 C 471.55 912.58 471.53 912.00 471.69 911.47 C 471.86 910.94 472.20 910.49 472.67 910.18 L 475.03 908.63 C 477.16 907.18 478.36 907.74 478.63 910.32 L 480.77 930.61 C 480.92 931.89 481.59 932.28 482.77 931.80 C 516.22 918.37 494.33 856.62 481.95 835.64 C 481.89 835.47 481.88 835.29 481.94 835.12 C 481.99 834.95 482.10 834.81 482.25 834.71 C 482.40 834.61 482.58 834.57 482.76 834.59 C 482.94 834.61 483.10 834.69 483.22 834.82 L 499.65 858.53 Z" fill="#2e1e1b" fill-rule="nonzero" node-id="271" stroke="none" target-height="114.38098" target-width="318.874" target-x="354.709" target-y="834.572"></path><path d="M 834.37 838.28 C 826.31 869.40 806.38 910.32 777.39 927.75 L 757.09 931.93 C 776.21 904.99 799.55 881.97 818.12 855.12 C 822.67 848.50 828.09 842.89 834.37 838.28 Z" fill="#cec3b9" fill-rule="nonzero" node-id="273" stroke="none" target-height="93.656006" target-width="77.27301" target-x="757.092" target-y="838.277"></path><path d="M 864.31 839.92 C 901.17 847.24 945.72 856.34 975.85 879.60 C 1031.92 922.83 851.43 956.83 840.51 958.60 C 841.21 949.83 837.02 943.90 827.95 940.81 C 826.55 940.32 825.55 939.41 824.94 938.08 L 811.75 908.63 C 825.10 891.01 836.18 871.47 845.01 850.02 C 845.62 848.50 846.68 847.42 848.20 846.79 L 864.31 839.92 Z" fill="#bdb3b0" fill-rule="nonzero" node-id="275" stroke="none" target-height="118.685" target-width="220.17303" target-x="811.747" target-y="839.916"></path><path d="M 605.50 864.17 C 605.46 867.58 606.05 873.14 605.28 876.14 C 605.15 876.56 605.29 877.03 605.69 877.55 C 605.77 877.65 605.87 877.72 605.99 877.75 C 606.12 877.78 606.24 877.77 606.36 877.73 C 606.47 877.68 606.57 877.60 606.64 877.49 C 606.71 877.39 606.74 877.26 606.73 877.14 C 606.19 872.16 606.50 868.02 607.69 864.72 L 667.49 863.85 C 667.87 863.85 668.25 863.92 668.60 864.08 C 668.95 864.24 669.25 864.47 669.50 864.76 C 669.75 865.06 669.93 865.40 670.03 865.77 C 670.13 866.14 670.15 866.52 670.08 866.90 C 668.14 877.79 669.15 886.17 673.13 892.02 L 674.27 907.22 C 673.21 908.89 671.81 909.28 670.08 908.40 C 617.35 914.47 564.35 916.20 511.07 913.59 C 509.41 913.53 508.44 912.67 508.16 911.00 L 499.65 858.53 C 527.44 858.04 555.04 859.83 582.43 863.90 C 583.01 863.99 583.54 864.26 583.96 864.65 C 584.39 865.05 584.68 865.57 584.80 866.13 C 585.19 868.10 586.48 869.01 588.67 868.86 C 590.37 868.74 591.34 867.83 591.58 866.13 C 592.53 859.85 587.94 855.25 588.35 850.97 C 588.56 849.03 588.99 848.91 589.62 850.61 L 595.45 865.72 C 595.90 866.87 596.75 867.55 598.00 867.77 C 601.36 868.28 603.87 867.08 605.50 864.17 Z" fill="#cec3b9" fill-rule="nonzero" node-id="277" stroke="none" target-height="67.291016" target-width="174.61502" target-x="499.652" target-y="848.911"></path><path d="M 379.88 867.67 C 377.78 876.44 379.69 887.58 385.61 901.08 L 402.26 930.89 C 403.24 932.62 402.72 933.45 400.72 933.39 C 382.09 932.75 369.15 923.63 361.90 906.04 L 349.25 857.75 C 348.88 856.45 349.35 856.04 350.66 856.53 L 379.88 867.67 Z" fill="#cec3b9" fill-rule="nonzero" node-id="279" stroke="none" target-height="77.410034" target-width="54.35199" target-x="348.884" target-y="856.04"></path><path d="M 674.27 907.22 C 685.42 954.87 748.72 944.54 780.80 932.43 C 792.42 927.34 802.74 919.40 811.75 908.63 L 824.94 938.08 C 825.55 939.41 826.55 940.32 827.95 940.81 C 837.02 943.90 841.21 949.83 840.51 958.60 C 828.46 961.12 816.86 963.09 805.69 964.52 C 677.70 981.11 549.13 987.15 420.01 982.63 C 419.62 980.84 419.86 979.40 420.74 978.30 C 422.23 976.51 422.36 975.67 421.15 975.76 C 420.70 975.79 420.26 975.80 419.83 975.80 C 418.86 975.77 418.50 975.29 418.74 974.35 L 425.70 947.31 C 448.32 948.77 492.14 948.95 503.16 922.28 C 503.73 920.89 504.78 920.27 506.30 920.42 C 559.81 925.52 617.47 920.56 671.40 915.87 C 671.82 915.83 672.23 915.68 672.57 915.42 C 672.92 915.17 673.19 914.84 673.36 914.44 C 673.52 914.05 673.58 913.62 673.53 913.20 C 673.47 912.78 673.30 912.38 673.04 912.05 L 670.08 908.40 C 671.81 909.28 673.21 908.89 674.27 907.22 Z" fill="#aaa1a1" fill-rule="nonzero" node-id="281" stroke="none" target-height="79.927" target-width="422.71" target-x="418.496" target-y="907.222"></path><path d="M 410.09 915.32 C 406.57 917.11 404.07 916.41 402.58 913.23 C 404.10 911.99 406.12 911.59 408.64 912.05 C 409.55 912.20 410.03 913.29 410.09 915.32 Z" fill="#715337" fill-rule="nonzero" node-id="283" stroke="none" target-height="5.5219727" target-width="7.508972" target-x="402.584" target-y="911.591"></path><path d="M 398.17 913.73 C 399.75 913.18 401.22 913.02 402.58 913.23 C 404.07 916.41 406.57 917.11 410.09 915.32 C 410.91 920.33 413.22 924.46 417.01 927.70 C 418.19 928.73 419.56 929.31 421.11 929.43 C 427.78 930.01 433.80 934.51 439.17 942.95 L 412.23 933.30 C 410.81 932.81 409.83 931.87 409.32 930.48 L 407.54 925.61 C 407.19 924.64 406.48 923.84 405.54 923.38 C 401.57 921.35 399.11 918.13 398.17 913.73 Z" fill="#cec3b9" fill-rule="nonzero" node-id="285" stroke="none" target-height="29.928955" target-width="41.00299" target-x="398.169" target-y="913.017"></path><path d="M 739.89 930.70 C 737.31 933.89 734.88 935.94 732.61 936.85 C 728.91 938.30 726.00 936.29 723.87 930.79 C 728.45 926.18 733.79 926.15 739.89 930.70 Z" fill="#bdb3b0" fill-rule="nonzero" node-id="287" stroke="none" target-height="12.150024" target-width="16.019043" target-x="723.871" target-y="926.154"></path></g></svg>