<?xml version="1.0" standalone="no"?><!DOCTYPE svg PUBLIC "-//W3C//DTD SVG 1.1//EN" "http://www.w3.org/Graphics/SVG/1.1/DTD/svg11.dtd"><svg height="1024" node-id="1" sillyvg="true" template-height="1024" template-width="1024" version="1.1" viewBox="0 0 1024 1024" width="1024" xmlns="http://www.w3.org/2000/svg" xmlns:xlink="http://www.w3.org/1999/xlink"><defs node-id="60"><clipPath id="clip0_2_4799" node-id="57"><path d="M 0.00 0.00 L 1024.00 0.00 L 1024.00 1024.00 L 0.00 1024.00 Z" fill="#000000" fill-rule="nonzero" node-id="63" stroke="none" target-height="1024" target-width="1024" target-x="0" target-y="0"></path></clipPath></defs><g clip-path="url(#clip0_2_4799)" id="sillyvg_g_0" node-id="67"><path d="M 0.00 0.00 L 1024.00 0.00 L 1024.00 1024.00 L 0.00 1024.00 Z" fill="#ffffff" fill-rule="nonzero" node-id="69" stroke="none" target-height="1024" target-width="1024" target-x="0" target-y="0"></path><path d="M 0.00 0.00 L 1024.00 0.00 L 1024.00 1024.00 L 0.00 1024.00 Z" fill="#ffffff" fill-rule="nonzero" node-id="71" stroke="none" target-height="1024" target-width="1024" target-x="0" target-y="0"></path><path d="M 105.15 145.40 C 97.52 186.58 98.62 228.68 108.44 271.68 C 108.44 277.97 109.79 282.35 112.49 284.82 L 107.67 289.23 C 92.78 252.42 87.58 214.65 92.07 175.93 C 96.33 139.29 100.07 111.33 142.71 111.99 C 183.80 112.68 223.89 118.94 262.99 130.77 C 264.63 131.28 266.16 131.05 267.56 130.05 C 291.27 113.50 316.67 99.86 343.76 89.16 C 346.87 87.38 350.36 87.38 354.23 89.16 C 354.54 89.31 354.89 89.35 355.24 89.29 C 355.58 89.22 355.89 89.05 356.13 88.80 L 357.41 87.52 C 357.60 87.35 357.73 87.13 357.78 86.88 C 357.83 86.63 357.80 86.38 357.70 86.15 C 357.60 85.92 357.42 85.73 357.20 85.61 C 356.99 85.48 356.73 85.43 356.49 85.46 L 343.96 86.39 C 334.25 85.29 325.51 82.06 317.74 76.69 C 317.07 76.23 316.59 75.54 316.38 74.76 C 316.17 73.97 316.26 73.15 316.61 72.43 C 332.93 38.66 421.50 32.10 453.16 33.58 C 475.77 34.61 490.04 34.97 495.96 34.66 C 517.30 33.53 545.68 25.53 565.79 33.48 C 566.24 33.66 566.62 34.00 566.85 34.42 C 567.08 34.85 567.16 35.35 567.07 35.82 C 566.98 36.30 566.73 36.73 566.35 37.05 C 565.98 37.36 565.51 37.53 565.02 37.54 C 537.93 37.74 509.09 47.44 483.08 44.21 C 442.80 39.23 363.21 41.90 329.08 67.66 C 327.85 68.61 327.97 69.38 329.44 69.97 L 369.16 85.21 C 372.58 86.51 372.58 87.84 369.16 89.21 C 334.13 103.06 301.05 120.54 269.92 141.65 C 268.41 142.68 266.79 142.90 265.04 142.32 C 219.89 126.79 175.52 119.77 131.94 121.28 C 117.81 121.76 108.88 129.80 105.15 145.40 Z" fill="#2e1e1b" fill-rule="nonzero" node-id="73" stroke="none" target-height="263.7008" target-width="479.5762" target-x="87.5848" target-y="25.5282"></path><path d="M 722.87 848.19 L 674.27 860.40 C 672.63 860.81 671.62 861.84 671.24 863.48 C 665.26 887.97 653.37 907.95 635.58 923.41 C 609.72 938.86 581.09 937.73 552.55 940.40 C 541.47 941.42 534.24 937.17 525.41 931.57 C 523.94 930.65 522.35 930.25 520.64 930.39 C 480.37 933.47 440.50 931.02 401.03 923.05 C 391.79 921.21 381.68 920.51 370.70 920.95 C 311.69 923.31 262.94 909.10 259.96 839.98 C 261.64 829.30 259.06 822.02 252.22 818.12 C 179.15 776.49 119.16 724.54 72.26 662.28 C 46.98 626.80 25.02 589.21 6.37 549.49 C 6.24 549.18 6.19 548.84 6.26 548.51 C 6.32 548.18 6.48 547.88 6.72 547.64 C 6.96 547.41 7.27 547.25 7.60 547.20 C 7.94 547.14 8.28 547.19 8.58 547.34 C 19.15 552.54 30.41 554.01 42.34 551.75 C 44.50 551.34 45.00 550.19 43.83 548.31 C 32.54 530.30 21.87 514.03 7.25 498.79 C 5.81 497.29 6.03 496.96 7.91 497.82 C 10.03 498.74 11.76 499.90 13.10 501.31 C 13.40 501.62 13.80 501.84 14.24 501.91 C 14.68 501.99 15.12 501.93 15.52 501.73 C 15.92 501.54 16.25 501.23 16.45 500.84 C 16.66 500.45 16.75 500.00 16.69 499.56 L 8.63 438.14 C 11.95 438.55 15.20 437.17 18.38 433.99 C 24.49 461.18 25.77 490.38 35.93 516.14 C 34.80 516.38 34.25 517.25 34.29 518.75 C 34.32 519.58 34.66 520.41 35.31 521.27 C 45.95 535.98 57.23 550.18 69.13 563.86 C 69.23 563.96 69.22 564.00 69.08 563.96 L 24.18 558.78 C 20.62 558.37 20.01 559.55 22.33 562.32 C 27.62 568.63 32.24 574.84 36.08 581.46 C 83.60 664.14 145.49 731.79 221.74 784.40 C 240.52 797.34 253.18 806.49 259.71 811.86 C 259.09 814.05 261.21 817.81 266.07 823.15 C 263.97 861.89 279.82 916.54 329.55 910.94 C 330.33 909.95 332.01 909.75 334.57 910.33 C 338.61 913.07 343.25 914.67 348.48 915.15 C 348.78 915.18 349.08 915.15 349.37 915.06 C 349.66 914.97 349.93 914.82 350.16 914.62 C 350.39 914.42 350.57 914.18 350.71 913.91 C 350.85 913.64 350.93 913.35 350.94 913.05 L 352.23 893.45 C 352.32 892.94 352.60 892.48 353.00 892.16 C 353.40 891.84 353.91 891.67 354.42 891.69 C 354.94 891.71 355.43 891.91 355.81 892.26 C 356.19 892.61 356.43 893.09 356.49 893.60 L 356.38 912.53 C 356.35 913.94 357.05 914.66 358.49 914.69 C 384.40 915.20 386.35 893.24 388.92 871.64 C 394.01 837.67 389.19 809.48 374.45 787.07 C 363.43 770.31 364.22 769.73 376.81 785.33 C 391.07 803.05 397.45 825.80 395.95 853.58 C 393.64 871.95 392.05 897.04 381.17 912.43 C 379.80 914.31 380.24 915.00 382.50 914.49 C 384.18 914.07 385.29 913.10 385.84 911.56 C 386.09 910.88 386.59 910.31 387.23 909.96 C 387.87 909.61 388.61 909.50 389.33 909.66 C 428.12 918.08 470.92 925.93 510.63 921.57 C 511.00 921.52 511.35 921.39 511.66 921.19 C 511.97 920.99 512.23 920.72 512.41 920.40 C 512.60 920.09 512.72 919.73 512.75 919.36 C 512.77 918.99 512.72 918.62 512.58 918.28 C 505.50 900.42 502.18 881.51 502.63 861.53 C 502.42 833.48 509.57 807.79 524.08 784.46 C 524.11 784.42 524.14 784.40 524.18 784.40 C 524.79 784.16 525.31 783.98 525.72 783.84 C 525.81 783.81 525.91 783.80 526.00 783.82 C 526.09 783.85 526.18 783.90 526.24 783.97 C 526.30 784.05 526.34 784.14 526.35 784.23 C 526.35 784.33 526.33 784.42 526.28 784.51 C 512.77 811.29 507.71 840.80 511.09 873.02 C 508.46 890.85 512.34 906.29 522.74 919.36 L 528.28 921.67 C 536.08 932.82 545.30 935.87 555.94 930.80 C 557.31 930.15 558.40 929.20 559.23 927.93 C 563.95 920.37 565.49 912.45 563.84 904.17 C 563.50 902.43 564.20 901.76 565.95 902.17 C 568.17 902.75 569.16 904.14 568.92 906.33 C 568.10 914.02 567.56 921.99 567.28 930.24 C 567.21 932.80 568.45 933.86 570.98 933.42 L 591.55 929.83 C 593.47 929.52 594.56 928.41 594.84 926.49 L 596.68 915.20 C 596.73 914.88 596.89 914.59 597.13 914.38 C 597.37 914.16 597.68 914.04 598.00 914.03 C 598.32 914.02 598.64 914.12 598.90 914.31 C 599.15 914.51 599.33 914.79 599.40 915.10 L 601.92 925.62 C 602.33 927.33 603.42 928.13 605.20 928.03 C 667.04 923.57 673.14 815.09 662.88 773.07 C 673.62 795.23 677.13 819.37 673.40 845.47 C 673.12 847.38 673.93 848.09 675.81 847.57 C 750.35 827.29 815.93 790.84 872.55 738.22 C 875.87 735.83 878.40 732.97 880.14 729.65 L 907.03 701.43 C 930.79 676.08 951.83 641.80 978.15 620.20 C 979.83 618.83 979.64 617.81 977.59 617.12 C 949.71 607.85 926.25 591.21 907.24 567.20 C 926.48 569.20 965.84 571.20 977.38 554.73 C 993.66 531.53 1004.87 501.26 1010.99 463.90 C 1011.23 462.43 1010.73 461.30 1009.50 460.51 L 950.85 422.80 C 950.62 422.63 950.44 422.40 950.35 422.14 C 950.25 421.87 950.23 421.58 950.31 421.31 C 950.38 421.03 950.53 420.79 950.75 420.61 C 950.97 420.42 951.24 420.31 951.52 420.28 L 984.56 417.98 C 986.68 417.80 987.27 416.78 986.31 414.90 C 943.92 331.87 903.18 264.14 831.50 206.25 L 796.40 180.09 C 795.10 179.13 795.03 178.08 796.19 176.96 L 800.91 172.39 L 913.70 116.66 L 904.77 131.39 L 815.02 182.29 C 814.54 182.56 814.13 182.93 813.84 183.39 C 813.53 183.85 813.35 184.38 813.30 184.93 C 813.25 185.48 813.34 186.04 813.55 186.55 C 813.76 187.07 814.09 187.52 814.51 187.88 L 869.06 232.89 L 924.17 294.77 C 925.40 296.11 926.22 295.90 926.63 294.15 L 932.17 271.27 C 951.77 209.01 951.48 147.88 931.30 87.87 C 918.13 80.90 907.39 77.90 899.08 78.89 C 840.30 85.87 784.58 103.25 731.90 131.03 L 709.42 146.27 C 708.57 146.82 708.09 146.59 707.98 145.60 C 707.92 144.92 708.17 144.30 708.75 143.75 C 716.76 136.06 725.43 128.82 734.77 122.05 C 736.55 120.75 736.46 119.62 734.51 118.66 L 700.29 102.29 C 644.97 77.05 587.29 59.89 527.26 50.83 C 525.89 50.62 525.80 50.16 527.00 49.44 C 536.51 43.73 543.34 41.21 547.48 41.90 C 617.26 53.32 682.79 76.47 744.06 111.33 C 745.56 112.18 747.12 112.25 748.73 111.53 C 784.10 95.08 820.75 83.24 858.69 76.02 C 897.13 68.73 928.94 62.99 946.08 102.19 C 972.35 162.23 962.09 244.38 937.97 303.39 C 937.36 304.86 937.51 306.25 938.43 307.55 C 963.27 342.95 983.76 380.74 999.91 420.90 C 1000.56 422.54 1000.10 423.76 998.52 424.54 L 987.80 429.83 C 987.46 430.00 987.18 430.25 986.98 430.57 C 986.78 430.89 986.67 431.26 986.66 431.63 C 986.66 432.01 986.76 432.38 986.95 432.70 C 987.14 433.03 987.41 433.29 987.75 433.47 C 1000.88 440.35 1027.51 448.97 1023.61 468.06 C 1017.70 497.34 1008.36 525.44 995.60 552.37 C 984.62 575.61 961.11 579.77 937.66 582.38 C 935.13 582.66 934.93 583.48 937.05 584.85 C 955.11 596.75 974.23 606.55 994.42 614.25 C 996.16 614.93 996.43 616.01 995.24 617.48 C 959.16 660.33 920.99 710.36 884.35 744.59 C 837.48 788.44 783.65 822.98 722.87 848.19 Z" fill="#412d27" fill-rule="nonzero" node-id="75" stroke="none" target-height="900.2118" target-width="1021.701" target-x="5.80905" target-y="41.2132"></path><path d="M 931.30 87.87 C 925.11 90.37 922.73 94.17 924.17 99.27 C 919.21 104.02 915.72 109.82 913.70 116.66 L 800.91 172.39 C 796.81 163.32 789.21 155.92 778.13 150.17 C 776.69 149.42 776.02 148.00 776.13 145.91 C 776.26 143.75 775.25 142.57 773.10 142.37 L 746.01 139.80 C 745.49 139.77 745.42 139.56 745.80 139.19 L 746.93 138.01 C 747.15 137.78 747.31 137.49 747.37 137.17 C 747.44 136.86 747.41 136.53 747.29 136.24 C 747.18 135.94 746.98 135.69 746.73 135.51 C 746.47 135.33 746.17 135.24 745.85 135.24 C 740.21 135.13 735.55 133.73 731.89 131.03 C 784.58 103.25 840.30 85.87 899.08 78.89 C 907.39 77.90 918.13 80.90 931.30 87.87 Z" fill="#fdfbf5" fill-rule="nonzero" node-id="77" stroke="none" target-height="94.4858" target-width="199.40497" target-x="731.895" target-y="77.9022"></path><path d="M 343.76 89.16 C 343.38 88.23 343.45 87.31 343.96 86.39 L 356.49 85.46 C 356.73 85.43 356.99 85.48 357.20 85.61 C 357.42 85.73 357.60 85.92 357.70 86.15 C 357.80 86.38 357.83 86.63 357.78 86.88 C 357.73 87.13 357.60 87.35 357.41 87.52 L 356.13 88.80 C 355.89 89.05 355.58 89.22 355.24 89.29 C 354.89 89.35 354.54 89.31 354.23 89.16 C 350.36 87.38 346.87 87.38 343.76 89.16 Z" fill="#bda194" fill-rule="nonzero" node-id="79" stroke="none" target-height="3.917595" target-width="14.446014" target-x="343.383" target-y="85.4334"></path><path d="M 931.30 87.87 C 951.48 147.88 951.77 209.01 932.17 271.27 C 928.00 269.11 927.49 263.50 930.63 254.44 C 932.58 248.76 933.40 243.56 933.10 238.84 C 931.08 210.07 930.41 181.25 931.10 152.38 C 931.46 137.34 928.22 120.97 928.17 105.12 C 928.14 103.51 927.47 102.28 926.17 101.42 C 925.35 100.87 924.68 100.16 924.17 99.27 C 922.73 94.17 925.11 90.37 931.30 87.87 Z" fill="#e9b6a0" fill-rule="nonzero" node-id="81" stroke="none" target-height="183.39471" target-width="29.04303" target-x="922.732" target-y="87.8743"></path><path d="M 924.17 99.27 C 924.68 100.16 925.35 100.87 926.17 101.42 C 927.47 102.28 928.13 103.51 928.17 105.12 C 928.22 120.97 931.45 137.34 931.09 152.38 C 930.41 181.25 931.08 210.07 933.10 238.84 C 933.40 243.56 932.58 248.76 930.63 254.44 C 927.49 263.50 928.00 269.11 932.17 271.27 L 926.63 294.15 C 926.22 295.90 925.40 296.11 924.17 294.77 L 869.06 232.89 C 892.73 204.60 904.63 170.76 904.77 131.39 L 913.70 116.66 C 915.72 109.82 919.21 104.02 924.17 99.27 Z" fill="#c28780" fill-rule="nonzero" node-id="83" stroke="none" target-height="196.8392" target-width="64.346985" target-x="869.056" target-y="99.2658"></path><path d="M 700.29 102.29 L 734.51 118.66 C 736.46 119.62 736.55 120.75 734.77 122.05 C 725.43 128.82 716.76 136.06 708.75 143.75 C 708.17 144.30 707.92 144.92 707.98 145.60 C 708.09 146.59 708.57 146.82 709.42 146.27 L 731.90 131.03 C 735.56 133.73 740.21 135.13 745.85 135.24 C 746.17 135.24 746.47 135.33 746.73 135.51 C 746.98 135.69 747.18 135.94 747.30 136.24 C 747.41 136.53 747.44 136.86 747.37 137.17 C 747.31 137.49 747.15 137.78 746.93 138.01 L 745.80 139.19 C 745.43 139.56 745.49 139.77 746.01 139.80 L 773.10 142.37 C 775.26 142.57 776.26 143.75 776.13 145.91 C 776.03 148.00 776.69 149.42 778.13 150.17 C 789.21 155.92 796.81 163.32 800.91 172.39 L 796.19 176.96 C 795.03 178.08 795.10 179.13 796.40 180.09 L 831.50 206.25 C 831.36 210.94 827.42 210.56 819.69 205.13 C 815.42 202.12 812.25 199.88 810.20 198.40 C 806.40 195.74 805.75 196.35 808.25 200.25 C 843.66 255.93 862.18 312.68 877.11 376.56 C 891.43 437.78 851.76 418.28 816.67 419.51 C 816.31 419.54 815.96 419.66 815.67 419.87 C 815.38 420.08 815.15 420.37 815.02 420.70 C 814.88 421.03 814.85 421.40 814.91 421.75 C 814.98 422.10 815.14 422.43 815.38 422.70 C 826.06 433.98 837.69 444.26 850.28 453.54 C 863.51 463.34 850.12 487.92 845.45 498.38 C 844.96 499.45 844.12 500.30 843.09 500.80 L 813.59 514.96 C 812.33 515.56 811.34 516.60 810.80 517.89 C 810.26 519.18 810.21 520.62 810.66 521.94 C 812.99 528.74 817.30 532.61 823.59 533.53 C 824.86 533.72 826.02 533.91 826.88 534.07 C 827.74 534.23 828.24 534.35 828.31 534.40 L 888.76 558.68 L 824.62 540.77 C 823.39 540.43 823.01 540.84 823.49 542.00 C 841.91 586.64 873.42 605.37 905.44 634.77 C 912.76 641.48 912.04 648.03 903.28 654.43 C 868.13 680.08 833.39 638.26 805.33 621.59 C 802.52 619.91 801.96 620.49 803.63 623.33 C 823.75 657.37 851.85 682.68 887.94 699.28 C 888.49 699.53 888.97 699.91 889.34 700.38 C 889.71 700.86 889.95 701.41 890.04 702.00 C 890.25 703.29 890.95 704.24 892.15 704.82 C 893.69 705.54 895.11 705.33 896.41 704.20 C 899.52 701.43 903.06 700.51 907.03 701.43 L 880.14 729.65 C 879.46 729.52 878.81 729.41 878.19 729.35 C 876.75 729.07 876.02 728.22 875.99 726.78 C 875.99 726.27 875.99 725.77 875.99 725.29 C 875.99 724.88 875.78 724.64 875.37 724.57 C 860.33 722.57 850.38 706.72 839.71 699.02 C 838.41 698.10 836.86 697.62 835.27 697.65 C 833.69 697.68 832.15 698.22 830.89 699.18 C 829.63 700.14 828.71 701.48 828.27 703.00 C 827.82 704.52 827.87 706.15 828.42 707.64 C 831.98 717.18 838.39 724.32 847.66 729.04 C 848.38 729.39 848.98 729.94 849.41 730.61 C 849.85 731.27 850.09 732.04 850.12 732.84 C 850.29 736.77 852.11 739.83 855.56 742.02 C 856.29 742.49 857.15 742.71 858.01 742.66 C 858.88 742.62 859.71 742.30 860.38 741.76 C 865.11 737.93 869.16 736.75 872.55 738.22 C 815.93 790.84 750.35 827.29 675.81 847.57 C 673.93 848.09 673.12 847.38 673.40 845.47 C 677.13 819.37 673.62 795.23 662.88 773.07 C 660.04 767.90 656.00 765.09 650.77 764.65 C 649.94 764.57 649.10 764.69 648.32 764.99 C 647.54 765.29 646.84 765.77 646.27 766.38 C 645.71 767.00 645.29 767.74 645.05 768.54 C 644.82 769.34 644.77 770.19 644.92 771.01 C 656.31 837.21 555.38 864.30 511.09 873.02 C 507.71 840.80 512.77 811.29 526.28 784.51 C 526.33 784.42 526.35 784.33 526.35 784.23 C 526.34 784.14 526.30 784.05 526.24 783.97 C 526.18 783.90 526.09 783.85 526.00 783.82 C 525.91 783.80 525.81 783.81 525.72 783.84 C 525.31 783.98 524.79 784.16 524.18 784.40 C 524.14 784.40 524.11 784.42 524.08 784.46 C 509.57 807.79 502.42 833.48 502.63 861.53 C 466.84 861.84 431.28 859.19 395.95 853.58 C 397.45 825.80 391.07 803.05 376.81 785.33 C 364.22 769.73 363.43 770.31 374.45 787.07 C 389.19 809.48 394.01 837.67 388.92 871.64 C 385.05 871.43 381.39 872.46 377.94 874.72 C 376.46 875.71 374.96 875.76 373.42 874.87 C 333.24 851.99 283.36 813.40 269.05 767.57 L 276.33 735.04 C 276.40 734.77 276.33 734.58 276.13 734.48 C 275.65 734.34 275.27 734.49 275.00 734.94 C 270.79 742.23 266.89 750.40 263.30 759.47 C 193.62 714.82 151.23 651.35 136.15 569.04 L 142.97 527.27 C 143.28 525.36 144.32 524.04 146.10 523.32 L 171.14 513.01 C 182.07 488.69 180.02 470.57 199.16 444.71 C 200.15 448.75 199.71 453.59 197.82 459.23 C 196.08 464.33 196.87 464.76 200.19 460.51 C 209.01 449.07 217.27 433.11 230.77 426.90 C 232.44 426.15 233.21 424.87 233.08 423.06 C 232.80 418.50 234.55 414.54 238.31 411.15 C 253.50 400.72 269.73 393.28 287.01 388.83 C 277.84 393.55 270.47 400.12 264.89 408.53 C 232.10 439.06 227.48 486.43 249.24 524.35 C 280.13 578.07 343.86 571.40 375.83 523.63 C 399.26 488.56 398.61 450.75 373.88 410.18 C 372.07 407.20 372.87 406.04 376.29 406.69 L 391.28 409.66 C 392.20 409.83 392.49 409.49 392.15 408.64 C 389.02 400.94 378.14 399.91 367.98 397.86 C 366.30 397.52 364.85 396.76 363.62 395.60 C 311.74 345.78 236.51 369.28 202.39 426.29 C 188.16 450.10 178.58 469.82 173.66 485.45 C 169.96 480.15 169.88 472.26 173.40 461.80 C 173.95 460.19 173.62 458.77 172.42 457.54 C 152.51 436.98 129.22 421.55 102.53 411.25 C 100.89 410.60 99.58 409.54 98.58 408.07 C 96.70 405.20 94.29 404.09 91.35 404.74 C 89.81 405.08 88.39 405.68 87.09 406.53 C 83.91 408.72 81.50 407.06 79.85 401.55 C 98.77 392.97 115.26 381.52 129.32 367.23 C 139.65 359.94 143.96 349.83 142.25 336.90 C 142.01 335.09 142.58 333.58 143.94 332.38 C 158.25 319.93 176.38 307.21 198.34 294.21 C 331.44 215.54 470.25 168.95 621.62 151.66 C 646.00 148.89 669.40 145.91 677.91 122.05 C 678.53 120.41 679.71 119.48 681.46 119.28 C 692.37 117.98 698.64 112.32 700.29 102.29 Z M 394.30 343.31 C 395.12 344.99 396.19 346.56 397.49 348.03 C 397.70 348.24 397.99 348.36 398.29 348.38 C 398.59 348.39 398.88 348.29 399.12 348.10 C 399.35 347.91 399.50 347.65 399.55 347.35 C 399.60 347.05 399.54 346.75 399.38 346.50 C 396.17 342.18 392.35 338.47 387.94 335.36 C 386.26 334.16 385.84 334.50 386.66 336.39 C 387.44 338.17 388.78 339.40 390.66 340.08 C 392.30 340.66 393.52 341.74 394.30 343.31 Z M 541.88 359.90 C 542.09 360.09 543.27 359.22 545.16 357.47 C 547.05 355.71 549.50 353.23 551.96 350.56 C 554.42 347.89 556.71 345.25 558.30 343.23 C 559.89 341.20 560.67 339.96 560.46 339.76 C 560.25 339.57 559.07 340.44 557.18 342.19 C 555.29 343.94 552.84 346.43 550.38 349.10 C 547.91 351.77 545.63 354.41 544.04 356.43 C 542.45 358.46 541.67 359.70 541.88 359.90 Z M 587.04 397.81 C 588.06 400.68 585.29 405.08 578.73 411.00 C 565.49 421.81 557.86 437.88 555.84 459.23 C 551.07 500.69 581.24 552.98 623.37 561.04 C 710.09 577.61 731.59 488.17 711.83 424.90 C 709.27 421.86 706.58 420.03 703.78 419.41 C 695.46 403.81 684.98 392.35 672.32 385.03 C 671.95 384.52 672.70 384.18 674.58 384.00 C 695.21 390.81 713.00 400.87 727.95 414.18 C 747.24 445.51 764.12 477.00 778.59 508.65 C 780.54 512.90 783.26 513.57 787.47 515.01 C 789.42 517.61 791.97 517.78 795.11 515.52 C 796.48 514.56 797.13 513.25 797.06 511.57 C 794.16 450.75 768.53 407.20 720.20 380.93 C 681.87 360.14 642.35 357.68 603.05 375.74 C 583.96 384.52 548.55 404.17 543.16 426.13 C 542.79 427.57 543.15 427.78 544.24 426.75 C 556.46 415.08 570.72 405.44 587.04 397.81 Z M 418.32 494.84 C 420.51 494.50 421.62 493.52 421.65 491.92 C 421.67 491.57 421.60 491.22 421.46 490.89 C 421.33 490.57 421.12 490.29 420.86 490.06 C 420.59 489.83 420.28 489.67 419.95 489.58 C 419.62 489.50 419.27 489.49 418.93 489.56 C 416.06 490.14 414.92 491.81 415.50 494.59 C 415.67 495.48 416.20 495.87 417.09 495.77 C 417.60 495.70 418.01 495.39 418.32 494.84 Z M 424.22 526.71 C 432.07 564.58 502.01 566.12 517.30 533.07 C 518.53 529.27 517.66 526.08 514.69 523.48 C 493.80 505.41 452.39 512.29 428.27 520.76 C 427.51 521.04 426.82 521.50 426.26 522.10 C 425.70 522.69 425.28 523.41 425.04 524.19 L 424.22 526.71 Z M 453.57 662.79 C 463.78 675.98 483.23 685.68 492.57 666.64 L 502.52 649.81 C 527.87 634.41 487.23 589.57 473.38 578.95 C 471.63 577.61 469.46 576.95 467.27 577.09 C 465.08 577.24 463.02 578.17 461.47 579.72 C 445.22 596.00 433.01 614.87 424.84 636.31 C 423.77 639.02 424.68 640.14 427.56 639.70 L 435.61 638.52 C 436.21 638.43 436.82 638.51 437.38 638.76 C 437.93 639.00 438.41 639.40 438.74 639.91 L 453.57 662.79 Z" fill="#fdfaee" fill-rule="nonzero" node-id="85" stroke="none" target-height="773.46704" target-width="832.9048" target-x="79.8542" target-y="102.293"></path><path d="M 904.77 131.39 C 904.63 170.76 892.73 204.60 869.06 232.89 L 814.51 187.88 C 814.09 187.52 813.76 187.07 813.54 186.55 C 813.33 186.04 813.25 185.48 813.30 184.93 C 813.35 184.38 813.53 183.85 813.84 183.39 C 814.13 182.93 814.54 182.56 815.02 182.29 L 904.77 131.39 Z" fill="#9b6364" fill-rule="nonzero" node-id="87" stroke="none" target-height="101.498" target-width="91.520996" target-x="813.25" target-y="131.388"></path><path d="M 128.29 139.80 C 126.96 140.97 126.38 142.76 126.55 145.19 C 124.63 151.11 124.55 158.12 126.29 166.23 C 119.08 175.26 115.74 185.87 116.29 198.04 C 116.90 211.18 109.10 219.39 111.21 234.38 C 112.51 243.85 113.72 253.40 114.85 263.01 C 115.09 264.79 114.54 266.26 113.21 267.42 L 108.44 271.68 C 98.62 228.68 97.52 186.59 105.15 145.40 C 109.77 144.03 114.08 140.88 118.08 135.96 C 119.14 134.66 120.27 134.60 121.47 135.80 C 123.25 137.61 125.52 138.95 128.29 139.80 Z" fill="#e9b6a0" fill-rule="nonzero" node-id="89" stroke="none" target-height="137.07599" target-width="30.771103" target-x="97.5229" target-y="134.604"></path><path d="M 128.29 139.80 C 150.31 147.45 186.23 166.23 202.49 188.50 C 203.66 190.07 203.49 191.49 201.98 192.76 C 167.70 221.84 137.89 254.87 112.54 291.85 C 97.40 313.96 68.51 357.17 41.88 364.66 C 41.09 364.87 40.77 365.43 40.91 366.35 C 41.01 367.07 41.44 367.40 42.19 367.33 C 59.09 365.41 75.97 365.72 92.84 368.25 C 93.27 368.36 93.65 368.61 93.91 368.98 C 94.17 369.34 94.29 369.79 94.25 370.23 C 94.20 370.68 94.00 371.09 93.67 371.39 C 93.35 371.70 92.92 371.88 92.48 371.89 L 84.47 371.48 C 82.73 371.38 81.10 371.76 79.60 372.61 C 68.15 379.28 40.70 373.07 28.13 370.66 C 27.75 370.60 27.41 370.41 27.14 370.14 C 26.87 369.87 26.69 369.52 26.63 369.14 C 26.57 368.77 26.63 368.38 26.79 368.04 C 26.96 367.69 27.23 367.41 27.56 367.23 C 61.53 348.09 81.50 316.94 107.67 289.23 L 112.49 284.82 C 128.47 261.04 146.46 239.20 166.47 219.29 L 194.59 193.02 C 194.96 192.62 195.18 192.11 195.21 191.57 C 195.24 191.03 195.08 190.49 194.76 190.06 C 194.43 189.62 193.97 189.31 193.44 189.19 C 192.91 189.06 192.36 189.13 191.87 189.37 L 190.28 190.30 C 188.78 191.19 187.42 191.00 186.23 189.73 C 170.06 172.70 148.10 149.76 126.55 145.19 C 126.38 142.76 126.96 140.97 128.29 139.80 Z" fill="#170f0a" fill-rule="nonzero" node-id="91" stroke="none" target-height="239.48" target-width="177.08711" target-x="26.5689" target-y="139.804"></path><path d="M 126.55 145.19 C 148.10 149.76 170.06 172.70 186.23 189.73 C 187.42 191.00 188.78 191.19 190.28 190.30 L 191.87 189.37 C 192.36 189.13 192.91 189.06 193.44 189.19 C 193.97 189.31 194.43 189.62 194.76 190.06 C 195.08 190.49 195.24 191.03 195.21 191.57 C 195.18 192.11 194.96 192.62 194.59 193.02 L 166.47 219.29 L 155.03 225.29 C 153.46 226.11 152.16 225.82 151.13 224.42 C 137.99 207.01 129.71 187.61 126.29 166.23 C 124.55 158.12 124.63 151.11 126.55 145.19 Z" fill="#9b6364" fill-rule="nonzero" node-id="93" stroke="none" target-height="80.921005" target-width="70.69401" target-x="124.548" target-y="145.192"></path><path d="M 126.29 166.23 C 129.71 187.61 137.99 207.01 151.13 224.42 C 152.15 225.82 153.45 226.11 155.03 225.29 L 166.47 219.29 C 146.46 239.20 128.47 261.04 112.49 284.82 C 109.79 282.35 108.44 277.97 108.44 271.68 L 113.21 267.42 C 114.54 266.26 115.09 264.79 114.85 263.01 C 113.72 253.40 112.51 243.85 111.21 234.38 C 109.10 219.39 116.90 211.18 116.29 198.04 C 115.74 185.87 119.07 175.26 126.29 166.23 Z" fill="#d0988b" fill-rule="nonzero" node-id="95" stroke="none" target-height="118.58601" target-width="58.035995" target-x="108.435" target-y="166.23"></path><path d="M 831.50 206.25 C 903.18 264.14 943.92 331.87 986.31 414.90 C 987.27 416.78 986.68 417.80 984.56 417.98 L 951.52 420.28 C 951.24 420.31 950.97 420.42 950.75 420.61 C 950.53 420.79 950.38 421.03 950.31 421.31 C 950.23 421.58 950.25 421.87 950.34 422.14 C 950.44 422.40 950.62 422.63 950.85 422.80 L 1009.50 460.51 C 1010.73 461.30 1011.23 462.43 1010.99 463.90 C 1004.87 501.26 993.66 531.53 977.38 554.73 C 965.83 571.20 926.48 569.20 907.23 567.20 L 888.76 558.68 L 828.31 534.40 C 828.24 534.35 827.74 534.23 826.88 534.07 C 826.02 533.91 824.86 533.72 823.59 533.53 C 817.30 532.61 812.99 528.74 810.66 521.94 C 810.21 520.62 810.26 519.18 810.80 517.89 C 811.34 516.61 812.33 515.56 813.59 514.96 L 843.09 500.80 C 844.12 500.30 844.96 499.45 845.45 498.38 C 850.12 487.92 863.51 463.34 850.27 453.54 C 837.69 444.26 826.05 433.99 815.38 422.70 C 815.14 422.43 814.98 422.10 814.91 421.75 C 814.85 421.40 814.88 421.03 815.02 420.70 C 815.15 420.37 815.38 420.08 815.67 419.87 C 815.96 419.66 816.31 419.54 816.66 419.51 C 851.76 418.28 891.43 437.78 877.11 376.56 C 862.18 312.68 843.66 255.93 808.25 200.25 C 805.75 196.35 806.40 195.74 810.20 198.40 C 812.25 199.88 815.42 202.12 819.69 205.13 C 827.42 210.56 831.36 210.94 831.50 206.25 Z" fill="#e1dbd1" fill-rule="nonzero" node-id="97" stroke="none" target-height="375.46103" target-width="205.47797" target-x="805.752" target-y="195.736"></path><path d="M 390.66 340.08 C 388.78 339.40 387.44 338.17 386.66 336.39 C 385.84 334.50 386.26 334.16 387.94 335.36 C 392.35 338.47 396.17 342.18 399.38 346.50 C 399.54 346.75 399.60 347.05 399.55 347.35 C 399.50 347.65 399.35 347.91 399.11 348.10 C 398.88 348.29 398.59 348.39 398.29 348.38 C 397.99 348.36 397.70 348.24 397.48 348.03 C 396.18 346.56 395.12 344.99 394.30 343.31 C 393.52 341.74 392.30 340.66 390.66 340.08 Z" fill="#bdb3b0" fill-rule="nonzero" node-id="99" stroke="none" target-height="14.228027" target-width="13.765991" target-x="385.836" target-y="334.162"></path><path d="M 550.38 349.10 C 545.25 354.66 541.44 359.50 541.88 359.90 C 542.32 360.30 546.83 356.12 551.96 350.56 C 557.09 345.00 560.90 340.17 560.46 339.76 C 560.02 339.36 555.51 343.54 550.38 349.10 Z" fill="#bda194" fill-rule="nonzero" node-id="101" stroke="none" target-height="20.945007" target-width="19.457031" target-x="541.441" target-y="339.358"></path><path d="M 787.47 515.01 C 784.18 474.01 763.81 435.01 727.94 414.18 C 713.00 400.87 695.21 390.81 674.58 384.00 C 666.37 378.84 656.77 377.42 645.79 379.75 C 616.54 372.25 596.96 378.27 587.04 397.81 C 570.72 405.44 556.45 415.08 544.24 426.75 C 543.15 427.77 542.79 427.57 543.16 426.13 C 548.55 404.17 583.96 384.52 603.05 375.74 C 642.35 357.68 681.86 360.14 720.20 380.93 C 768.53 407.20 794.15 450.75 797.06 511.57 C 797.13 513.25 796.48 514.56 795.11 515.52 C 791.97 517.78 789.42 517.61 787.47 515.01 Z" fill="#412d27" fill-rule="nonzero" node-id="103" stroke="none" target-height="160.09799" target-width="254.34503" target-x="542.787" target-y="357.681"></path><path d="M 129.32 367.23 C 115.26 381.52 98.77 392.97 79.85 401.55 C 60.73 412.23 40.12 418.80 18.02 421.26 C 16.11 421.46 15.39 422.49 15.87 424.34 L 18.38 433.99 C 15.20 437.17 11.95 438.55 8.63 438.14 C 7.95 431.06 5.36 425.57 0.88 421.67 C 0.53 421.36 0.27 420.96 0.13 420.52 C -0.02 420.08 -0.04 419.61 0.06 419.15 C 0.16 418.70 0.38 418.28 0.69 417.93 C 1.01 417.59 1.41 417.34 1.86 417.20 L 75.39 396.42 C 75.69 396.33 75.96 396.16 76.16 395.92 C 76.37 395.69 76.51 395.40 76.56 395.09 C 76.61 394.78 76.58 394.47 76.46 394.18 C 76.35 393.89 76.15 393.63 75.90 393.45 C 73.37 391.53 70.89 391.53 68.46 393.45 C 66.82 394.71 64.96 395.23 62.87 394.99 C 53.38 393.91 31.41 394.88 24.95 388.21 C 24.64 387.91 24.44 387.52 24.37 387.09 C 24.30 386.67 24.37 386.23 24.56 385.84 C 24.75 385.45 25.05 385.12 25.44 384.90 C 25.82 384.69 26.26 384.59 26.69 384.62 C 54.13 387.25 80.56 383.10 105.97 372.15 C 108.54 371.02 109.02 371.50 107.41 373.59 C 106.97 374.17 106.19 374.70 105.10 375.18 C 96.82 378.81 88.59 382.60 80.42 386.57 C 78.78 387.32 78.43 388.47 79.39 390.01 C 80.01 391.07 80.85 391.77 81.91 392.11 C 82.76 392.42 83.77 392.33 84.93 391.86 C 100.40 385.56 115.19 377.35 129.32 367.23 Z" fill="#170f0a" fill-rule="nonzero" node-id="105" stroke="none" target-height="71.32498" target-width="129.35905" target-x="-0.0390402" target-y="367.226"></path><path d="M 264.89 408.53 C 266.74 415.48 266.70 418.80 264.79 418.49 C 234.21 449.72 231.97 484.00 258.07 521.32 C 280.08 552.83 330.88 547.80 356.90 527.58 C 385.79 505.00 392.35 468.57 378.45 435.01 C 365.18 391.74 334.69 376.34 287.01 388.83 C 269.73 393.28 253.50 400.72 238.31 411.15 C 233.56 411.46 229.59 414.23 226.41 419.46 C 225.48 421.00 224.18 422.10 222.51 422.75 C 210.81 427.47 203.02 434.79 199.16 444.71 C 180.02 470.57 182.07 488.69 171.14 513.01 L 173.66 485.45 C 178.58 469.82 188.16 450.10 202.39 426.29 C 236.51 369.28 311.74 345.78 363.62 395.60 C 364.85 396.76 366.30 397.52 367.98 397.86 C 378.14 399.91 389.02 400.94 392.15 408.64 C 392.49 409.49 392.20 409.83 391.28 409.66 L 376.29 406.69 C 372.87 406.04 372.07 407.20 373.88 410.18 C 398.62 450.75 399.26 488.56 375.83 523.63 C 343.86 571.40 280.13 578.07 249.24 524.35 C 227.48 486.43 232.10 439.06 264.89 408.53 Z" fill="#412d27" fill-rule="nonzero" node-id="107" stroke="none" target-height="232.297" target-width="228.12401" target-x="171.141" target-y="345.776"></path><path d="M 645.79 379.75 L 672.32 385.03 C 684.98 392.35 695.46 403.81 703.78 419.41 L 702.96 425.36 C 697.72 468.88 649.85 512.39 606.84 482.83 C 586.63 468.91 575.95 449.48 574.83 424.54 C 580.43 423.48 581.74 418.97 578.73 411.00 C 585.29 405.08 588.06 400.68 587.04 397.81 C 596.96 378.27 616.54 372.25 645.79 379.75 Z" fill="#4c3626" fill-rule="nonzero" node-id="109" stroke="none" target-height="140.13803" target-width="128.95099" target-x="574.825" target-y="372.254"></path><path d="M 645.79 379.75 C 656.77 377.42 666.37 378.84 674.58 384.00 C 672.70 384.18 671.95 384.52 672.32 385.03 L 645.79 379.75 Z" fill="#715337" fill-rule="nonzero" node-id="111" stroke="none" target-height="7.6109924" target-width="28.786987" target-x="645.792" target-y="377.42"></path><path d="M 378.45 435.01 C 368.70 525.78 259.91 499.10 264.79 418.49 C 266.70 418.80 266.74 415.48 264.89 408.53 C 270.47 400.12 277.84 393.55 287.01 388.83 C 334.69 376.34 365.17 391.74 378.45 435.01 Z" fill="#4c3626" fill-rule="nonzero" node-id="113" stroke="none" target-height="149.44199" target-width="118.535" target-x="259.912" target-y="376.342"></path><path d="M 79.85 401.55 C 81.50 407.06 83.91 408.72 87.09 406.53 C 88.39 405.68 89.81 405.08 91.35 404.74 C 94.29 404.09 96.70 405.20 98.58 408.07 C 99.58 409.54 100.89 410.60 102.53 411.25 C 129.22 421.55 152.51 436.98 172.42 457.54 C 173.62 458.77 173.95 460.19 173.40 461.80 C 169.88 472.26 169.96 480.15 173.66 485.45 L 171.14 513.01 L 146.10 523.32 C 144.32 524.04 143.28 525.36 142.97 527.27 L 136.15 569.04 C 130.81 550.88 123.39 534.05 113.88 518.55 C 88.90 512.97 64.44 510.82 40.50 512.08 C 39.37 512.15 39.11 512.66 39.73 513.62 L 41.21 515.83 C 40.29 514.50 38.53 514.60 35.93 516.14 C 25.77 490.38 24.49 461.18 18.38 433.99 L 15.87 424.34 C 15.39 422.49 16.11 421.46 18.02 421.26 C 40.12 418.80 60.73 412.23 79.85 401.55 Z" fill="#c8d1d8" fill-rule="nonzero" node-id="115" stroke="none" target-height="167.488" target-width="158.5589" target-x="15.3871" target-y="401.554"></path><path d="M 238.31 411.15 C 234.55 414.54 232.80 418.50 233.08 423.06 C 233.21 424.87 232.44 426.15 230.77 426.90 C 217.27 433.11 209.01 449.07 200.18 460.51 C 196.87 464.75 196.08 464.33 197.82 459.23 C 199.71 453.59 200.15 448.75 199.16 444.71 C 203.02 434.79 210.81 427.47 222.51 422.75 C 224.18 422.10 225.48 421.00 226.41 419.46 C 229.59 414.23 233.56 411.46 238.31 411.15 Z" fill="#bda194" fill-rule="nonzero" node-id="117" stroke="none" target-height="53.60501" target-width="42.231003" target-x="196.079" target-y="411.15"></path><path d="M 578.72 411.00 C 581.73 418.97 580.43 423.48 574.82 424.54 C 562.03 438.12 556.47 456.85 558.15 480.73 L 555.84 459.23 C 557.86 437.88 565.49 421.81 578.72 411.00 Z" fill="#836b44" fill-rule="nonzero" node-id="119" stroke="none" target-height="69.734985" target-width="25.895996" target-x="555.838" target-y="410.996"></path><path d="M 727.94 414.18 C 763.81 435.01 784.18 474.01 787.47 515.01 C 783.26 513.57 780.54 512.90 778.59 508.65 C 764.12 477.00 747.24 445.51 727.94 414.18 Z" fill="#ccb4a7" fill-rule="nonzero" node-id="121" stroke="none" target-height="100.83099" target-width="59.52301" target-x="727.944" target-y="414.177"></path><path d="M 264.79 418.49 C 259.91 499.10 368.70 525.78 378.45 435.01 C 392.35 468.57 385.79 505.00 356.90 527.58 C 330.88 547.80 280.08 552.83 258.07 521.32 C 231.97 484.00 234.21 449.72 264.79 418.49 Z" fill="#fac759" fill-rule="nonzero" node-id="123" stroke="none" target-height="134.33902" target-width="160.389" target-x="231.965" target-y="418.488"></path><path d="M 703.77 419.41 C 706.58 420.03 709.27 421.86 711.83 424.90 C 710.74 424.80 710.22 425.84 710.29 428.03 C 709.23 425.88 708.00 424.59 706.60 424.18 C 705.40 423.88 704.19 424.27 702.96 425.36 L 703.77 419.41 Z" fill="#bda194" fill-rule="nonzero" node-id="125" stroke="none" target-height="8.621002" target-width="8.876953" target-x="702.955" target-y="419.411"></path><path d="M 710.29 428.03 C 746.78 553.44 590.37 589.47 558.15 480.73 C 556.47 456.85 562.03 438.12 574.82 424.54 C 575.95 449.48 586.63 468.91 606.84 482.83 C 649.85 512.39 697.72 468.88 702.96 425.36 C 704.19 424.27 705.40 423.88 706.60 424.18 C 708.00 424.59 709.23 425.88 710.29 428.03 Z" fill="#fac759" fill-rule="nonzero" node-id="127" stroke="none" target-height="165.58902" target-width="190.305" target-x="556.471" target-y="423.876"></path><path d="M 711.83 424.90 C 731.59 488.17 710.09 577.61 623.37 561.04 C 581.24 552.98 551.07 500.69 555.84 459.23 L 558.15 480.73 C 590.37 589.47 746.78 553.44 710.29 428.03 C 710.22 425.84 710.74 424.80 711.83 424.90 Z M 646.05 555.14 C 667.19 554.55 684.36 546.07 697.57 529.68 C 697.70 529.55 697.74 529.38 697.67 529.17 C 697.53 528.73 697.38 528.28 697.21 527.84 C 697.18 527.77 697.14 527.72 697.09 527.67 C 697.04 527.63 696.98 527.60 696.91 527.58 C 696.85 527.57 696.78 527.57 696.71 527.59 C 696.65 527.60 696.59 527.64 696.54 527.68 C 681.56 543.14 663.08 551.66 641.12 553.24 C 640.84 553.27 640.58 553.38 640.37 553.57 C 640.16 553.75 640.02 554.00 639.96 554.27 C 639.89 554.54 639.92 554.82 640.03 555.08 C 640.13 555.34 640.32 555.55 640.56 555.70 C 642.68 556.97 644.51 556.78 646.05 555.14 Z" fill="#412d27" fill-rule="nonzero" node-id="129" stroke="none" target-height="164.66602" target-width="195.71002" target-x="551.066" target-y="424.799"></path><path d="M 418.32 494.84 C 418.01 495.39 417.60 495.70 417.09 495.77 C 416.20 495.87 415.67 495.48 415.50 494.59 C 414.92 491.81 416.06 490.14 418.93 489.56 C 419.27 489.49 419.62 489.50 419.95 489.58 C 420.28 489.67 420.59 489.83 420.86 490.06 C 421.12 490.29 421.33 490.57 421.46 490.89 C 421.60 491.22 421.67 491.57 421.65 491.92 C 421.62 493.52 420.51 494.50 418.32 494.84 Z" fill="#715337" fill-rule="nonzero" node-id="131" stroke="none" target-height="6.3829956" target-width="6.7519836" target-x="414.915" target-y="489.486"></path><path d="M 113.88 518.55 L 41.22 515.83 L 39.73 513.62 C 39.11 512.66 39.37 512.15 40.50 512.08 C 64.44 510.82 88.90 512.97 113.88 518.55 Z" fill="#aaa1a1" fill-rule="nonzero" node-id="133" stroke="none" target-height="7.731018" target-width="74.7637" target-x="39.1113" target-y="510.818"></path><path d="M 517.30 533.07 C 516.65 530.85 515.87 529.68 514.94 529.58 C 501.75 507.93 445.56 517.27 426.17 525.73 C 427.67 526.42 427.02 526.74 424.22 526.71 L 425.04 524.19 C 425.28 523.41 425.69 522.69 426.25 522.10 C 426.82 521.50 427.51 521.04 428.27 520.76 C 452.39 512.29 493.80 505.41 514.68 523.48 C 517.66 526.08 518.53 529.27 517.30 533.07 Z" fill="#c28780" fill-rule="nonzero" node-id="135" stroke="none" target-height="27.65799" target-width="94.314026" target-x="424.219" target-y="505.413"></path><path d="M 41.21 515.83 L 113.87 518.55 C 123.38 534.05 130.81 550.88 136.14 569.04 C 151.23 651.35 193.62 714.82 263.30 759.47 L 259.71 811.86 C 253.17 806.49 240.52 797.34 221.74 784.40 C 145.48 731.79 83.60 664.14 36.08 581.46 C 32.23 574.84 27.62 568.63 22.33 562.32 C 20.00 559.55 20.62 558.37 24.18 558.78 L 69.08 563.96 C 69.21 564.00 69.23 563.96 69.13 563.86 C 57.22 550.18 45.95 535.98 35.31 521.27 C 34.66 520.41 34.32 519.58 34.29 518.75 C 34.25 517.25 34.80 516.38 35.93 516.14 C 38.53 514.60 40.29 514.50 41.21 515.83 Z" fill="#cec3b9" fill-rule="nonzero" node-id="137" stroke="none" target-height="297.362" target-width="243.29431" target-x="20.0047" target-y="514.496"></path><path d="M 514.94 529.58 C 512.75 538.10 506.05 543.59 494.83 546.05 C 493.05 546.46 491.63 545.93 490.57 544.46 L 489.39 542.87 C 488.46 541.64 487.25 541.14 485.74 541.38 C 472.40 543.61 459.83 541.66 448.03 535.53 C 444.50 533.69 444.66 532.20 448.49 531.07 L 465.06 526.35 C 466.67 525.90 466.79 525.20 465.42 524.25 C 464.09 523.39 462.41 523.41 460.39 524.30 C 451.91 528.06 443.14 530.75 434.07 532.35 C 431.81 532.73 430.02 532.46 428.68 531.53 C 426.80 530.16 425.96 528.23 426.17 525.73 C 445.56 517.27 501.75 507.93 514.94 529.58 Z" fill="#fbf1e1" fill-rule="nonzero" node-id="139" stroke="none" target-height="38.536987" target-width="88.97797" target-x="425.963" target-y="507.927"></path><path d="M 514.94 529.58 C 515.87 529.68 516.65 530.85 517.30 533.07 C 502.01 566.12 432.07 564.58 424.22 526.71 C 427.02 526.74 427.67 526.42 426.17 525.73 C 425.96 528.23 426.80 530.16 428.68 531.53 C 430.02 532.46 431.81 532.73 434.07 532.35 C 443.14 530.75 451.91 528.06 460.39 524.30 C 462.41 523.41 464.09 523.39 465.42 524.25 C 466.79 525.20 466.67 525.90 465.06 526.35 L 448.49 531.07 C 444.66 532.20 444.50 533.69 448.03 535.53 C 459.83 541.66 472.40 543.61 485.74 541.38 C 487.25 541.14 488.46 541.64 489.39 542.87 L 490.57 544.46 C 491.63 545.93 493.05 546.46 494.83 546.05 C 506.05 543.59 512.75 538.10 514.94 529.58 Z" fill="#fba2b7" fill-rule="nonzero" node-id="141" stroke="none" target-height="42.72699" target-width="93.08203" target-x="424.219" target-y="523.39"></path><path d="M 646.05 555.14 C 644.51 556.78 642.68 556.97 640.56 555.70 C 640.32 555.55 640.13 555.34 640.03 555.08 C 639.92 554.82 639.89 554.54 639.96 554.27 C 640.02 554.00 640.16 553.75 640.37 553.57 C 640.58 553.38 640.84 553.26 641.12 553.24 C 663.08 551.66 681.56 543.14 696.54 527.68 C 696.59 527.64 696.65 527.60 696.72 527.59 C 696.78 527.57 696.85 527.57 696.91 527.58 C 696.98 527.60 697.04 527.63 697.09 527.67 C 697.14 527.72 697.18 527.77 697.21 527.84 C 697.38 528.28 697.53 528.73 697.67 529.17 C 697.74 529.38 697.70 529.55 697.57 529.68 C 684.36 546.07 667.19 554.55 646.05 555.14 Z" fill="#715337" fill-rule="nonzero" node-id="143" stroke="none" target-height="29.401001" target-width="57.843018" target-x="639.894" target-y="527.565"></path><path d="M 888.76 558.68 L 907.24 567.20 C 926.25 591.21 949.71 607.85 977.59 617.12 C 979.64 617.81 979.83 618.83 978.15 620.20 C 951.83 641.80 930.79 676.08 907.03 701.43 C 903.06 700.51 899.52 701.43 896.41 704.20 C 895.11 705.33 893.69 705.54 892.15 704.82 C 890.95 704.24 890.25 703.29 890.04 702.00 C 889.95 701.41 889.71 700.86 889.34 700.38 C 888.97 699.91 888.49 699.53 887.94 699.28 C 851.85 682.68 823.75 657.37 803.63 623.33 C 801.96 620.49 802.52 619.91 805.33 621.59 C 833.39 638.26 868.13 680.09 903.28 654.43 C 912.04 648.03 912.76 641.48 905.44 634.77 C 873.42 605.37 841.91 586.64 823.49 542.00 C 823.01 540.84 823.39 540.43 824.62 540.77 L 888.76 558.68 Z" fill="#cec3b9" fill-rule="nonzero" node-id="145" stroke="none" target-height="165.10999" target-width="177.87" target-x="801.956" target-y="540.426"></path><path d="M 502.52 649.81 L 503.81 637.08 C 500.66 620.32 494.79 608.42 486.21 601.37 C 483.28 598.98 479.66 597.59 475.88 597.41 C 472.11 597.22 468.37 598.25 465.22 600.34 C 455.02 607.08 447.07 617.64 441.36 632.00 C 443.48 643.19 448.59 653.25 456.70 662.18 L 453.57 662.79 L 438.74 639.91 C 438.41 639.40 437.93 639.00 437.38 638.76 C 436.82 638.51 436.21 638.43 435.61 638.52 L 427.56 639.70 C 424.68 640.15 423.77 639.02 424.84 636.31 C 433.01 614.87 445.22 596.00 461.47 579.72 C 463.02 578.17 465.08 577.24 467.27 577.09 C 469.46 576.95 471.63 577.61 473.38 578.95 C 487.23 589.57 527.87 634.42 502.52 649.81 Z" fill="#412d27" fill-rule="nonzero" node-id="147" stroke="none" target-height="85.83899" target-width="104.09799" target-x="423.775" target-y="576.953"></path><path d="M 503.81 637.08 C 488.93 636.78 466.76 621.69 453.73 632.98 C 452.49 634.04 451.09 634.38 449.52 634.00 L 441.36 632.00 C 447.07 617.64 455.02 607.08 465.22 600.34 C 468.37 598.25 472.11 597.22 475.88 597.41 C 479.66 597.59 483.28 598.98 486.21 601.37 C 494.79 608.42 500.66 620.32 503.81 637.08 Z" fill="#c6626b" fill-rule="nonzero" node-id="149" stroke="none" target-height="39.862976" target-width="62.449005" target-x="441.358" target-y="597.221"></path><path d="M 503.81 637.08 L 502.52 649.81 L 492.57 666.64 C 479.84 677.52 467.89 676.03 456.70 662.18 C 448.59 653.25 443.48 643.19 441.36 632.00 L 449.52 634.00 C 451.09 634.38 452.49 634.04 453.73 632.98 C 466.76 621.69 488.93 636.78 503.81 637.08 Z" fill="#fba2b7" fill-rule="nonzero" node-id="151" stroke="none" target-height="55.82898" target-width="62.449005" target-x="441.358" target-y="621.69"></path><path d="M 453.57 662.79 L 456.70 662.18 C 467.89 676.03 479.84 677.52 492.57 666.64 C 483.23 685.68 463.78 675.98 453.57 662.79 Z" fill="#2e1e1b" fill-rule="nonzero" node-id="153" stroke="none" target-height="23.501953" target-width="38.998993" target-x="453.57" target-y="662.176"></path><path d="M 880.14 729.65 C 878.40 732.97 875.86 735.83 872.55 738.22 C 869.16 736.75 865.11 737.93 860.38 741.76 C 859.71 742.30 858.88 742.62 858.01 742.66 C 857.15 742.71 856.29 742.49 855.56 742.02 C 852.11 739.83 850.29 736.77 850.12 732.84 C 850.09 732.04 849.85 731.27 849.41 730.61 C 848.98 729.94 848.38 729.39 847.66 729.04 C 838.39 724.32 831.97 717.18 828.42 707.64 C 827.87 706.15 827.82 704.53 828.27 703.00 C 828.71 701.48 829.63 700.14 830.89 699.18 C 832.15 698.22 833.69 697.68 835.27 697.65 C 836.86 697.62 838.41 698.10 839.71 699.02 C 850.38 706.72 860.33 722.57 875.37 724.57 C 875.78 724.64 875.98 724.88 875.98 725.29 C 875.98 725.77 875.98 726.27 875.98 726.78 C 876.02 728.22 876.75 729.07 878.19 729.35 C 878.81 729.41 879.46 729.52 880.14 729.65 Z" fill="#d7cab8" fill-rule="nonzero" node-id="155" stroke="none" target-height="45.085022" target-width="52.31903" target-x="827.821" target-y="697.625"></path><path d="M 269.05 767.57 L 268.18 813.40 C 268.14 815.14 267.75 816.80 267.00 818.38 C 266.14 820.26 265.83 821.85 266.07 823.15 C 261.21 817.81 259.09 814.05 259.71 811.86 L 263.30 759.47 C 266.89 750.40 270.79 742.23 275.00 734.94 C 275.27 734.49 275.65 734.34 276.13 734.48 C 276.33 734.58 276.40 734.77 276.33 735.04 L 269.05 767.57 Z" fill="#715337" fill-rule="nonzero" node-id="157" stroke="none" target-height="88.806946" target-width="17.309021" target-x="259.093" target-y="734.34"></path><path d="M 662.88 773.07 C 673.14 815.09 667.03 923.57 605.20 928.03 C 603.42 928.13 602.33 927.33 601.92 925.62 L 599.40 915.10 C 599.33 914.79 599.15 914.51 598.90 914.31 C 598.64 914.12 598.32 914.02 598.00 914.03 C 597.68 914.04 597.37 914.16 597.13 914.38 C 596.89 914.59 596.73 914.88 596.68 915.20 L 594.84 926.49 C 594.56 928.41 593.47 929.52 591.55 929.83 L 570.98 933.42 C 568.45 933.86 567.21 932.80 567.28 930.24 C 567.55 921.99 568.10 914.02 568.92 906.33 C 569.16 904.14 568.17 902.75 565.95 902.17 C 564.20 901.76 563.50 902.43 563.84 904.17 C 565.49 912.45 563.95 920.37 559.23 927.93 C 558.40 929.20 557.31 930.15 555.94 930.80 C 545.30 935.87 536.08 932.82 528.28 921.67 L 533.11 900.63 C 533.72 898.07 532.99 897.60 530.90 899.25 C 527.00 902.32 524.28 909.03 522.74 919.36 C 512.34 906.29 508.46 890.85 511.09 873.02 C 555.38 864.30 656.31 837.21 644.92 771.01 C 644.77 770.19 644.82 769.34 645.05 768.54 C 645.29 767.74 645.71 767.00 646.27 766.38 C 646.84 765.77 647.54 765.29 648.32 764.99 C 649.10 764.69 649.94 764.57 650.77 764.65 C 656.00 765.09 660.04 767.90 662.88 773.07 Z" fill="#cec3b9" fill-rule="nonzero" node-id="159" stroke="none" target-height="171.29199" target-width="164.68198" target-x="508.459" target-y="764.573"></path><path d="M 269.05 767.57 C 283.36 813.40 333.24 851.99 373.42 874.87 C 374.96 875.76 376.46 875.71 377.93 874.72 C 381.39 872.46 385.05 871.43 388.92 871.64 C 386.35 893.24 384.40 915.20 358.49 914.69 C 357.05 914.66 356.35 913.94 356.38 912.53 L 356.49 893.60 C 356.43 893.09 356.19 892.61 355.81 892.26 C 355.43 891.91 354.94 891.71 354.42 891.69 C 353.91 891.67 353.40 891.84 353.00 892.16 C 352.60 892.48 352.32 892.94 352.23 893.45 L 350.94 913.05 C 350.92 913.35 350.84 913.64 350.71 913.91 C 350.57 914.18 350.39 914.42 350.16 914.62 C 349.93 914.82 349.66 914.97 349.37 915.06 C 349.08 915.15 348.78 915.18 348.48 915.15 C 343.25 914.67 338.61 913.07 334.57 910.33 C 335.81 905.13 335.19 899.96 332.73 894.83 C 332.08 893.46 331.48 893.50 330.93 894.93 C 329.05 899.79 328.59 905.13 329.55 910.94 C 279.82 916.54 263.97 861.89 266.07 823.15 C 265.83 821.85 266.14 820.26 266.99 818.37 C 267.75 816.80 268.14 815.14 268.17 813.40 L 269.05 767.57 Z" fill="#cec3b9" fill-rule="nonzero" node-id="161" stroke="none" target-height="148.96301" target-width="124.949005" target-x="263.966" target-y="767.574"></path><path d="M 259.96 839.98 C 262.94 909.10 311.69 923.31 370.70 920.95 C 381.68 920.51 391.79 921.21 401.02 923.05 C 440.50 931.02 480.37 933.47 520.64 930.39 C 522.35 930.25 523.94 930.65 525.41 931.57 C 534.24 937.17 541.47 941.42 552.55 940.40 C 581.08 937.73 609.72 938.86 635.58 923.41 L 637.53 925.72 C 637.80 926.07 638.16 926.17 638.61 926.03 C 639.05 925.86 639.53 925.72 640.04 925.62 C 640.69 925.48 641.21 925.69 641.58 926.24 C 647.23 934.31 650.90 943.27 652.62 953.12 C 652.82 954.29 652.33 954.92 651.13 955.02 C 649.45 955.12 648.70 955.84 648.87 957.18 C 565.67 964.57 482.31 966.07 398.77 961.69 C 322.98 957.74 244.06 949.58 171.96 923.52 C 161.80 917.82 143.38 909.10 138.91 898.32 C 124.34 863.53 237.80 844.08 259.96 839.98 Z" fill="#b4aaa6" fill-rule="nonzero" node-id="163" stroke="none" target-height="126.093994" target-width="528.478" target-x="124.342" target-y="839.978"></path><path d="M 767.40 849.78 C 764.94 880.12 765.03 909.88 767.66 939.06 C 727.88 947.79 688.28 953.83 648.87 957.18 C 648.70 955.84 649.45 955.12 651.13 955.02 C 652.33 954.92 652.82 954.29 652.62 953.12 C 650.90 943.27 647.23 934.31 641.58 926.24 C 641.21 925.69 640.69 925.48 640.04 925.62 C 639.53 925.72 639.05 925.86 638.61 926.03 C 638.16 926.17 637.80 926.07 637.53 925.72 L 635.58 923.41 C 653.37 907.95 665.26 887.97 671.24 863.48 C 671.62 861.84 672.63 860.81 674.27 860.40 L 722.86 848.19 C 739.83 845.49 754.68 846.02 767.40 849.78 Z" fill="#cec3b9" fill-rule="nonzero" node-id="165" stroke="none" target-height="111.691956" target-width="132.081" target-x="635.58" target-y="845.486"></path><path d="M 767.40 849.78 C 794.09 855.58 829.60 864.92 848.63 887.54 C 849.63 888.77 850.15 890.30 850.12 891.86 C 849.61 919.41 790.80 934.75 767.66 939.06 C 765.03 909.88 764.94 880.12 767.40 849.78 Z" fill="#d9c6b9" fill-rule="nonzero" node-id="167" stroke="none" target-height="89.28601" target-width="85.21301" target-x="764.942" target-y="849.778"></path><path d="M 395.94 853.58 C 431.28 859.19 466.84 861.84 502.63 861.53 C 502.18 881.51 505.50 900.42 512.58 918.28 C 512.72 918.62 512.77 918.99 512.74 919.36 C 512.71 919.73 512.60 920.09 512.41 920.40 C 512.22 920.72 511.97 920.99 511.66 921.19 C 511.35 921.39 511.00 921.52 510.63 921.57 C 470.91 925.93 428.12 918.08 389.32 909.66 C 388.61 909.50 387.87 909.61 387.23 909.96 C 386.58 910.31 386.09 910.88 385.84 911.56 C 385.29 913.10 384.18 914.07 382.50 914.49 C 380.24 915.00 379.80 914.31 381.17 912.43 C 392.05 897.04 393.64 871.95 395.94 853.58 Z" fill="#cec3b9" fill-rule="nonzero" node-id="169" stroke="none" target-height="72.35199" target-width="132.975" target-x="379.798" target-y="853.576"></path><path d="M 334.57 910.33 C 332.01 909.75 330.33 909.95 329.55 910.94 C 328.59 905.13 329.05 899.79 330.93 894.93 C 331.48 893.50 332.08 893.46 332.73 894.83 C 335.19 899.96 335.81 905.13 334.57 910.33 Z" fill="#2e1e1b" fill-rule="nonzero" node-id="171" stroke="none" target-height="17.480957" target-width="7.217987" target-x="328.588" target-y="893.463"></path><path d="M 528.28 921.67 L 522.74 919.36 C 524.28 909.03 527.00 902.32 530.90 899.25 C 532.99 897.60 533.72 898.07 533.11 900.63 L 528.28 921.67 Z" fill="#715337" fill-rule="nonzero" node-id="173" stroke="none" target-height="24.065979" target-width="10.980957" target-x="522.741" target-y="897.603"></path></g></svg>