<?xml version="1.0" standalone="no"?><!DOCTYPE svg PUBLIC "-//W3C//DTD SVG 1.1//EN" "http://www.w3.org/Graphics/SVG/1.1/DTD/svg11.dtd"><svg height="1024" node-id="1" sillyvg="true" template-height="1024" template-width="1024" version="1.1" viewBox="0 0 1024 1024" width="1024" xmlns="http://www.w3.org/2000/svg" xmlns:xlink="http://www.w3.org/1999/xlink"><defs node-id="89"><clipPath id="clip0_2_5682" node-id="86"><path d="M 0.00 0.00 L 1024.00 0.00 L 1024.00 1024.00 L 0.00 1024.00 Z" fill="#000000" fill-rule="nonzero" node-id="92" stroke="none" target-height="1024" target-width="1024" target-x="0" target-y="0"></path></clipPath></defs><g clip-path="url(#clip0_2_5682)" id="sillyvg_g_0" node-id="96"><path d="M 0.00 0.00 L 1024.00 0.00 L 1024.00 1024.00 L 0.00 1024.00 Z" fill="#ffffff" fill-rule="nonzero" node-id="98" stroke="none" target-height="1024" target-width="1024" target-x="0" target-y="0"></path><path d="M 0.00 0.00 L 1024.00 0.00 L 1024.00 1024.00 L 0.00 1024.00 Z" fill="#ffffff" fill-rule="nonzero" node-id="100" stroke="none" target-height="1024" target-width="1024" target-x="0" target-y="0"></path><path d="M 886.55 253.91 C 882.46 253.29 878.64 251.30 875.08 247.93 C 890.01 204.63 895.75 162.96 892.28 122.92 C 888.33 89.13 877.90 62.79 861.01 43.90 C 795.27 28.06 741.00 48.31 678.10 72.43 C 676.57 73.02 675.08 72.89 673.64 72.04 C 572.21 11.25 344.11 -14.39 260.57 85.86 L 258.86 86.99 C 255.79 86.40 254.62 86.68 255.38 87.82 C 216.84 76.35 87.96 44.93 59.09 77.53 C 39.82 105.13 39.33 150.57 41.54 183.47 L 49.24 220.67 L 61.34 274.06 C 61.70 275.76 61.02 276.64 59.29 276.71 C 58.73 276.71 58.16 276.71 57.57 276.71 C 57.09 276.70 56.61 276.82 56.20 277.07 C 55.78 277.31 55.44 277.67 55.22 278.10 C 54.99 278.53 54.89 279.01 54.93 279.49 C 54.96 279.97 55.13 280.43 55.41 280.82 L 60.36 287.74 C 61.61 289.50 62.77 289.44 63.84 287.54 C 79.37 259.40 97.92 233.22 119.48 209.01 L 169.39 160.43 C 169.91 159.93 170.31 159.32 170.55 158.64 C 170.79 157.97 170.87 157.24 170.79 156.52 C 170.70 155.81 170.45 155.12 170.06 154.51 C 169.66 153.90 169.13 153.39 168.51 153.02 L 98.75 111.89 L 86.44 96.40 C 125.53 108.72 162.31 124.72 196.79 144.39 C 198.66 145.44 198.61 146.39 196.65 147.24 C 189.20 150.41 184.23 153.14 181.75 155.42 C 117.23 214.50 72.86 267.59 42.27 349.21 C 36.13 350.26 33.09 353.46 33.16 358.82 C 33.19 360.36 32.81 361.78 32.03 363.08 C 24.72 375.14 11.24 428.87 14.92 441.67 C 12.60 445.62 11.98 450.05 13.06 454.95 C 11.72 455.61 11.13 456.95 11.29 458.97 C 11.39 460.22 12.08 460.79 13.35 460.69 C 16.42 460.46 19.84 462.26 23.60 466.08 C -4.59 502.65 10.21 550.11 30.51 586.09 C 32.31 596.25 37.99 605.98 47.57 615.26 C 58.75 631.24 74.25 645.33 94.09 657.52 L 127.57 682.42 C 128.56 683.14 128.44 683.57 127.23 683.70 C 126.64 683.76 126.09 683.66 125.56 683.40 C 117.69 679.28 109.76 674.72 101.79 669.72 C 87.57 661.39 57.72 645.80 47.18 628.15 C 14.58 582.95 -4.59 550.89 0.95 492.56 C 1.77 483.76 2.55 473.21 3.30 460.89 C 6.54 405.78 23.45 351.45 54.04 297.88 C 54.86 296.45 54.97 294.96 54.38 293.42 C 31.59 235.04 17.32 128.36 50.85 74.73 C 76.25 34.04 205.91 64.44 243.76 77.58 C 246.21 78.43 248.86 78.51 251.35 77.79 C 253.84 77.06 256.03 75.59 257.63 73.56 C 331.80 -20.57 586.23 -0.71 673.74 62.67 C 674.78 63.44 676.03 63.89 677.32 63.99 C 678.62 64.08 679.93 63.81 681.09 63.21 C 727.40 38.50 777.46 26.90 831.25 28.41 C 858.44 29.19 877.32 42.38 887.87 67.97 C 912.53 127.68 908.61 193.03 886.55 253.91 Z" fill="#372720" fill-rule="nonzero" node-id="102" stroke="none" target-height="704.3294" target-width="917.1216" target-x="-4.59156" target-y="-20.5684"></path><path d="M 861.01 43.90 L 845.27 56.79 C 805.51 77.82 765.71 95.42 729.72 125.62 C 728.41 126.70 728.30 127.89 729.38 129.20 C 732.62 133.02 736.54 135.44 741.14 136.45 C 738.84 142.24 739.58 146.45 745.16 149.98 C 782.57 173.81 800.22 209.94 822.57 241.26 C 842.52 269.11 856.89 292.59 875.32 317.39 C 875.80 318.05 876.03 318.86 875.97 319.68 C 875.91 320.49 875.55 321.27 874.98 321.86 L 869.39 327.40 C 867.98 328.80 866.56 328.82 865.12 327.44 C 834.83 298.28 796.00 263.91 770.41 243.22 C 708.10 192.88 614.57 151.89 531.42 160.42 C 493.84 164.25 455.77 169.54 417.20 176.31 C 413.35 176.99 410.65 175.54 409.11 171.94 L 405.00 162.53 C 404.14 160.57 402.69 159.84 400.63 160.33 C 366.61 168.02 334.35 260.68 300.09 228.07 C 297.37 212.06 299.20 197.12 305.58 183.27 C 305.67 183.06 305.71 182.83 305.70 182.60 C 305.69 182.37 305.62 182.14 305.51 181.94 C 305.39 181.74 305.24 181.57 305.04 181.44 C 304.85 181.31 304.63 181.24 304.40 181.21 C 303.32 181.08 302.68 181.32 302.49 181.94 C 298.57 193.02 296.36 204.61 295.87 216.70 C 278.66 214.10 271.80 220.97 258.22 226.21 C 184.69 254.45 96.25 308.52 64.97 382.50 C 61.69 390.19 62.32 400.69 52.81 408.82 C 52.36 409.21 52.08 409.10 51.98 408.48 L 51.69 406.18 C 51.42 404.35 50.80 404.21 49.82 405.78 C 46.69 410.75 42.88 411.50 38.40 408.04 C 37.13 407.02 36.46 405.72 36.39 404.12 C 35.97 393.20 33.70 389.28 29.58 392.35 L 42.27 349.21 C 72.86 267.59 117.23 214.50 181.74 155.42 C 184.23 153.13 189.20 150.41 196.65 147.24 C 198.61 146.39 198.66 145.44 196.79 144.39 C 162.31 124.72 125.53 108.72 86.44 96.40 C 83.04 92.80 78.68 90.24 73.35 88.70 C 71.62 88.21 70.76 87.07 70.76 85.27 C 70.72 80.57 66.83 77.98 59.09 77.53 C 87.96 44.93 216.84 76.35 255.38 87.82 C 246.72 103.90 240.03 121.42 235.33 140.37 C 235.29 140.57 235.38 140.67 235.57 140.67 C 236.06 140.67 236.54 140.67 236.99 140.67 C 237.52 140.67 237.79 140.93 237.83 141.45 C 237.86 143.12 238.19 144.47 238.81 145.52 C 233.81 153.36 231.65 160.80 232.34 167.83 C 232.63 170.80 233.58 171.01 235.18 168.46 C 261.29 127.06 297.11 97.00 342.64 78.31 C 343.75 77.85 343.75 77.44 342.64 77.08 C 341.66 76.76 341.04 76.95 340.77 77.67 C 303.94 90.26 271.64 109.80 243.86 136.30 C 240.36 133.00 241.80 127.68 248.17 120.32 C 256.67 117.38 263.92 112.15 269.94 104.64 C 270.16 104.38 270.45 104.16 270.77 104.00 L 313.27 82.82 C 313.66 82.67 313.98 82.38 314.16 82.00 C 314.34 81.63 314.38 81.20 314.26 80.80 C 314.14 80.40 313.88 80.06 313.53 79.85 C 313.17 79.63 312.75 79.55 312.34 79.63 C 309.17 79.96 306.33 81.14 303.81 83.16 C 302.67 84.08 301.25 84.60 299.79 84.63 C 291.20 84.90 283.01 86.68 275.23 89.98 C 273.99 90.50 272.71 90.52 271.41 90.03 L 260.57 85.86 C 344.11 -14.39 572.21 11.25 673.64 72.04 C 675.08 72.88 676.57 73.02 678.10 72.43 C 741.00 48.31 795.27 28.06 861.01 43.90 Z M 629.81 71.79 C 631.12 71.01 631.69 69.83 631.53 68.26 C 631.46 67.49 631.18 66.76 630.72 66.14 C 630.26 65.51 629.64 65.03 628.93 64.73 C 611.38 57.43 566.43 76.01 549.71 86.10 C 548.98 86.54 548.42 87.20 548.11 87.99 C 547.80 88.77 547.76 89.64 547.99 90.45 C 548.23 91.27 548.73 91.98 549.41 92.48 C 550.09 92.98 550.92 93.24 551.77 93.21 C 576.77 92.66 601.41 87.36 625.70 77.33 C 626.68 76.94 627.41 75.91 627.90 74.24 C 628.23 73.20 628.87 72.38 629.81 71.79 Z M 305.23 146.35 C 285.23 154.15 270.82 174.25 272.58 195.77 C 272.63 196.04 272.76 196.28 272.96 196.46 C 273.17 196.64 273.43 196.75 273.70 196.76 C 273.97 196.77 274.23 196.69 274.45 196.53 C 274.67 196.36 274.82 196.13 274.89 195.87 C 278.65 175.34 288.96 159.18 305.82 147.38 C 305.96 147.31 306.06 147.18 306.10 147.03 C 306.14 146.87 306.12 146.71 306.04 146.57 C 305.96 146.44 305.83 146.34 305.68 146.30 C 305.53 146.25 305.37 146.28 305.23 146.35 Z" fill="#fefefe" fill-rule="nonzero" node-id="104" stroke="none" target-height="425.8953" target-width="846.4549" target-x="29.5771" target-y="-14.3923"></path><path d="M 861.01 43.90 C 877.90 62.79 888.33 89.13 892.28 122.92 C 883.65 134.75 871.09 141.16 854.59 142.14 C 852.33 113.85 846.79 91.50 819.78 78.90 L 845.27 56.79 L 861.01 43.90 Z" fill="#e9b6a0" fill-rule="nonzero" node-id="106" stroke="none" target-height="98.2415" target-width="72.505005" target-x="819.778" target-y="43.8965"></path><path d="M 845.27 56.79 L 819.78 78.90 L 755.02 131.26 C 754.42 131.74 753.95 132.35 753.64 133.05 C 753.34 133.74 753.20 134.50 753.24 135.27 C 753.28 136.03 753.51 136.77 753.89 137.43 C 754.28 138.09 754.82 138.64 755.46 139.05 C 787.00 158.95 817.00 183.16 845.47 211.65 L 875.08 247.93 C 878.64 251.30 882.46 253.29 886.55 253.91 C 911.52 290.65 929.02 331.14 939.05 375.39 C 939.38 376.83 939.21 378.22 938.56 379.56 C 936.89 382.99 934.20 384.10 930.47 382.89 C 927.24 381.85 926.62 382.69 928.61 385.44 C 958.61 426.96 965.23 474.02 959.88 524.13 C 959.72 525.70 960.08 527.13 960.96 528.44 C 1042.69 650.07 994.35 791.99 879.78 869.44 C 837.46 897.81 791.18 916.34 740.95 925.04 C 739.32 925.33 737.99 926.13 736.98 927.44 C 714.23 956.51 684.67 979.11 645.89 979.11 C 601.77 977.59 553.73 972.29 537.16 925.82 C 536.90 925.10 536.42 924.48 535.79 924.04 C 535.16 923.61 534.40 923.37 533.63 923.37 L 423.52 923.86 C 421.56 923.86 420.36 924.81 419.90 926.70 L 417.64 936.26 C 417.36 937.48 416.73 938.59 415.83 939.45 C 400.19 954.35 384.26 957.64 361.17 962.59 C 281.51 979.65 230.87 910.33 196.99 846.30 L 187.28 818.80 C 186.72 817.26 185.60 815.98 184.15 815.22 C 126.59 784.83 90.51 746.05 45.90 702.67 C 45.48 702.24 45.23 701.68 45.19 701.09 C 45.14 700.49 45.32 699.90 45.67 699.42 C 46.03 698.94 46.54 698.61 47.12 698.47 C 47.70 698.34 48.31 698.42 48.84 698.70 L 66.49 708.30 C 112.33 752.28 166.35 802.09 232.09 816.55 L 342.59 853.66 C 374.99 868.56 410.24 880.52 420.39 911.90 C 420.80 913.13 421.60 914.21 422.65 914.97 C 423.71 915.73 424.98 916.13 426.27 916.11 L 533.73 914.89 C 534.30 914.88 534.84 914.66 535.27 914.27 C 535.69 913.89 535.96 913.36 536.03 912.78 C 540.64 874.10 548.44 853.46 583.54 833.80 C 584.48 833.25 584.94 833.53 584.91 834.64 C 584.88 835.16 584.58 835.60 584.03 835.96 C 568.80 846.16 557.13 859.57 549.02 876.21 C 548.89 876.50 548.86 876.83 548.95 877.14 C 549.04 877.45 549.23 877.71 549.50 877.89 C 549.77 878.06 550.10 878.13 550.41 878.08 C 550.73 878.04 551.02 877.88 551.23 877.63 C 561.26 865.41 573.49 858.46 587.90 856.80 C 599.53 855.46 599.68 856.22 588.34 859.10 C 562.10 865.80 547.70 883.11 545.15 911.01 C 543.14 932.78 554.07 945.87 571.28 956.95 C 571.51 957.09 571.79 957.15 572.07 957.11 C 572.34 957.06 572.59 956.92 572.76 956.72 C 572.94 956.51 573.03 956.25 573.02 955.99 C 573.01 955.72 572.89 955.47 572.70 955.28 C 566.77 948.76 560.74 929.15 570.64 923.47 C 571.49 922.94 572.47 922.63 573.59 922.53 C 575.25 922.40 575.81 923.12 575.25 924.69 C 572.05 933.32 571.77 942.14 574.42 951.16 C 574.81 952.60 575.64 953.73 576.92 954.55 C 597.26 967.59 615.79 956.02 618.93 933.81 C 619.13 932.47 619.85 932.08 621.09 932.63 C 622.20 933.12 622.74 933.84 622.71 934.79 C 621.82 950.51 614.85 960.71 601.77 965.38 C 597.72 966.82 597.84 967.49 602.12 967.39 C 621.09 967.00 647.36 964.79 648.84 940.72 C 648.97 938.79 649.59 938.62 650.70 940.18 C 656.83 949.01 648.39 958.71 642.61 965.09 C 641.30 966.56 641.63 967.28 643.59 967.24 C 708.54 965.92 753.79 886.95 768.70 832.73 C 773.76 814.29 778.58 795.71 783.16 776.99 C 783.62 775.16 783.08 774.80 781.54 775.91 L 721.54 820.22 C 721.18 820.49 720.83 820.45 720.51 820.13 C 719.98 819.60 719.88 819.23 720.21 819.00 C 757.91 790.96 866.01 708.85 831.84 655.56 L 814.73 624.62 C 792.28 585.94 778.55 534.13 797.82 492.11 C 824.39 458.29 866.15 447.01 905.81 468.14 C 924.74 480.56 939.95 497.10 951.45 517.75 C 951.58 518.00 951.80 518.20 952.06 518.30 C 952.32 518.41 952.61 518.42 952.87 518.33 C 953.14 518.24 953.36 518.06 953.51 517.82 C 953.65 517.58 953.71 517.29 953.66 517.02 L 948.61 479.32 C 948.22 438.27 935.08 404.57 909.20 378.23 L 877.72 338.13 C 877.68 338.07 877.67 338.00 877.67 337.92 C 877.68 337.85 877.71 337.78 877.76 337.72 C 877.81 337.67 877.88 337.63 877.95 337.61 C 878.02 337.60 878.10 337.61 878.16 337.64 C 895.58 348.75 911.11 361.76 924.74 376.67 C 924.97 376.94 925.29 377.13 925.65 377.19 C 926.00 377.25 926.37 377.18 926.69 377.00 C 927.00 376.81 927.25 376.52 927.39 376.18 C 927.52 375.83 927.54 375.45 927.43 375.10 C 896.88 271.00 834.78 191.46 741.14 136.45 C 736.54 135.44 732.62 133.02 729.38 129.20 C 728.30 127.89 728.41 126.70 729.72 125.62 C 765.71 95.42 805.51 77.82 845.27 56.79 Z M 774.13 103.44 C 773.47 102.49 770.95 102.89 767.12 104.55 C 763.29 106.20 758.47 108.98 753.71 112.28 C 751.36 113.91 749.09 115.61 747.04 117.30 C 744.99 118.99 743.19 120.62 741.76 122.11 C 740.32 123.59 739.27 124.91 738.67 125.96 C 738.08 127.02 737.93 127.81 738.26 128.28 C 738.92 129.23 741.44 128.84 745.27 127.18 C 749.10 125.53 753.92 122.74 758.68 119.45 C 761.03 117.82 763.30 116.11 765.35 114.42 C 767.40 112.74 769.20 111.10 770.63 109.62 C 772.07 108.13 773.12 106.82 773.72 105.76 C 774.32 104.70 774.46 103.92 774.13 103.44 Z M 801.74 530.79 C 801.48 566.38 810.81 597.37 829.73 623.74 C 833.46 634.30 837.48 644.02 841.79 652.91 C 863.65 698.06 821.84 737.03 793.94 766.35 C 792.80 767.56 792.19 769.01 792.13 770.71 C 790.66 822.35 775.93 869.62 747.96 912.53 C 746.95 914.07 747.31 914.53 749.04 913.91 L 790.12 899.00 C 825.51 887.04 854.23 871.06 876.25 851.06 C 977.88 779.63 1027.10 672.62 966.26 554.08 C 965.25 552.15 964.43 552.23 963.81 554.32 C 960.18 566.42 955.42 574.98 949.54 580.01 C 940.06 588.05 930.59 596.04 921.11 603.98 C 920.39 604.61 920.18 604.46 920.47 603.54 L 921.45 600.55 C 940.21 585.55 952.84 567.13 959.35 545.30 C 959.80 543.77 959.59 542.31 958.71 540.94 C 945.72 520.89 929.93 490.59 904.34 486.92 C 871.30 482.11 842.48 514.96 830.76 543.10 C 830.76 542.80 830.11 543.08 828.80 543.93 C 838.26 508.68 865.08 479.07 903.75 478.73 C 904.37 478.73 904.96 478.88 905.47 479.17 L 911.65 482.80 C 911.87 482.93 912.14 482.96 912.39 482.90 C 912.64 482.84 912.86 482.68 913.01 482.46 C 913.15 482.25 913.20 481.99 913.16 481.73 C 913.12 481.47 912.98 481.24 912.77 481.08 C 867.77 448.09 801.88 469.81 801.74 530.79 Z M 303.12 927.19 L 326.12 953.71 C 328.01 955.61 330.46 956.84 333.47 957.39 C 338.01 958.24 342.65 957.88 347.39 956.31 C 348.93 955.82 349.48 954.79 349.06 953.22 L 341.95 927.44 C 349.01 934.24 353.70 942.21 356.02 951.36 C 356.48 953.03 357.56 953.73 359.26 953.47 L 378.28 950.62 C 381.06 950.36 381.40 950.07 379.31 949.74 C 387.41 948.96 393.61 946.48 397.89 942.29 C 405.93 938.63 409.78 934.14 409.46 928.81 C 416.61 904.20 401.91 889.20 380.88 880.23 C 345.58 857.78 296.80 850.67 235.96 835.08 C 219.36 830.83 205.52 824.77 194.44 816.89 C 194.11 816.66 193.95 816.76 193.95 817.18 C 193.95 817.64 193.95 818.10 193.95 818.56 C 193.92 819.24 194.18 819.78 194.74 820.17 L 206.60 828.90 C 208.00 829.89 209.10 831.29 209.74 832.92 C 220.57 860.72 274.69 955.72 309.30 953.17 C 311.23 953.01 311.87 952.01 311.21 950.18 L 303.12 927.19 Z" fill="#412d27" fill-rule="nonzero" node-id="108" stroke="none" target-height="922.8567" target-width="997.54675" target-x="45.1432" target-y="56.7903"></path><path d="M 627.90 74.24 C 627.41 75.91 626.68 76.94 625.70 77.33 C 601.41 87.36 576.77 92.66 551.77 93.21 C 550.92 93.24 550.09 92.98 549.41 92.48 C 548.73 91.98 548.23 91.27 547.99 90.45 C 547.76 89.64 547.80 88.77 548.11 87.99 C 548.42 87.20 548.98 86.54 549.71 86.10 C 566.43 76.01 611.38 57.43 628.93 64.73 C 629.64 65.03 630.26 65.51 630.72 66.14 C 631.18 66.76 631.46 67.49 631.53 68.26 C 631.69 69.83 631.12 71.01 629.82 71.79 C 628.87 72.38 628.23 73.20 627.90 74.24 Z" fill="#fdfaee" fill-rule="nonzero" node-id="110" stroke="none" target-height="35.8096" target-width="83.935974" target-x="547.758" target-y="57.4262"></path><path d="M 59.09 77.53 C 66.83 77.98 70.72 80.57 70.76 85.27 C 70.76 87.07 71.62 88.21 73.35 88.70 C 78.68 90.24 83.04 92.81 86.44 96.40 L 98.75 111.89 C 79.04 108.12 75.90 126.89 77.62 141.84 L 73.16 141.84 C 71.20 141.84 70.41 140.88 70.81 138.95 C 73.62 126.04 69.56 116.86 58.65 111.40 C 58.00 111.09 57.29 110.92 56.57 110.91 C 55.86 110.90 55.14 111.05 54.50 111.36 C 53.85 111.66 53.27 112.10 52.82 112.65 C 52.37 113.20 52.05 113.85 51.88 114.54 C 46.62 135.95 45.13 157.73 47.42 179.89 C 47.75 183.16 45.79 184.35 41.54 183.47 C 39.33 150.57 39.82 105.13 59.09 77.53 Z" fill="#fcd9c8" fill-rule="nonzero" node-id="112" stroke="none" target-height="106.821106" target-width="59.4158" target-x="39.3326" target-y="77.5269"></path><path d="M 238.81 145.52 C 242.47 142.71 244.15 139.64 243.86 136.31 C 271.64 109.80 303.94 90.26 340.77 77.67 C 341.04 76.95 341.66 76.76 342.64 77.09 C 343.75 77.44 343.75 77.85 342.64 78.31 C 297.11 97.00 261.29 127.06 235.18 168.46 C 233.58 171.01 232.63 170.80 232.34 167.83 C 231.65 160.80 233.81 153.37 238.81 145.52 Z" fill="#412d27" fill-rule="nonzero" node-id="114" stroke="none" target-height="94.2547" target-width="112.099" target-x="231.65" target-y="76.7583"></path><path d="M 248.17 120.32 C 249.58 112.06 252.71 104.39 257.58 97.33 C 257.99 96.73 258.25 96.05 258.37 95.33 C 258.49 94.61 258.45 93.87 258.27 93.16 C 257.52 90.58 257.71 88.52 258.86 86.99 L 260.57 85.86 L 271.41 90.03 C 272.71 90.52 273.99 90.50 275.23 89.98 C 283.01 86.68 291.20 84.90 299.79 84.63 C 301.25 84.60 302.67 84.09 303.81 83.16 C 306.33 81.14 309.17 79.96 312.34 79.63 C 312.75 79.55 313.17 79.63 313.53 79.85 C 313.88 80.06 314.15 80.40 314.26 80.80 C 314.38 81.20 314.34 81.63 314.16 82.00 C 313.98 82.38 313.66 82.67 313.27 82.82 L 270.77 104.00 C 270.45 104.16 270.16 104.38 269.94 104.64 C 263.92 112.15 256.67 117.38 248.17 120.32 Z" fill="#cec3b9" fill-rule="nonzero" node-id="116" stroke="none" target-height="40.7686" target-width="66.20799" target-x="248.171" target-y="79.5544"></path><path d="M 819.78 78.90 C 846.79 91.50 852.33 113.85 854.58 142.14 L 845.47 211.65 C 817.00 183.15 787.00 158.95 755.46 139.05 C 754.82 138.64 754.28 138.08 753.89 137.43 C 753.51 136.77 753.28 136.03 753.24 135.26 C 753.20 134.50 753.34 133.74 753.64 133.04 C 753.95 132.35 754.42 131.73 755.02 131.25 L 819.78 78.90 Z" fill="#9b6364" fill-rule="nonzero" node-id="118" stroke="none" target-height="132.7536" target-width="101.388" target-x="753.196" target-y="78.8984"></path><path d="M 255.38 87.82 C 254.62 86.68 255.79 86.40 258.86 86.99 C 257.71 88.52 257.52 90.58 258.27 93.16 C 258.45 93.87 258.49 94.61 258.37 95.33 C 258.25 96.05 257.99 96.73 257.58 97.33 C 252.71 104.39 249.58 112.05 248.17 120.32 C 241.80 127.68 240.36 133.00 243.86 136.30 C 244.15 139.64 242.47 142.71 238.81 145.52 C 238.19 144.47 237.86 143.12 237.83 141.45 C 237.79 140.93 237.52 140.67 236.99 140.67 C 236.54 140.67 236.06 140.67 235.57 140.67 C 235.38 140.67 235.29 140.57 235.33 140.37 C 240.03 121.42 246.72 103.90 255.38 87.82 Z" fill="#bba99b" fill-rule="nonzero" node-id="120" stroke="none" target-height="59.122093" target-width="23.563995" target-x="235.294" target-y="86.3989"></path><path d="M 758.68 119.45 C 768.58 112.59 775.50 105.42 774.13 103.44 C 772.76 101.46 763.62 105.42 753.71 112.28 C 743.81 119.13 736.89 126.30 738.26 128.28 C 739.63 130.26 748.77 126.31 758.68 119.45 Z" fill="#4e423d" fill-rule="nonzero" node-id="122" stroke="none" target-height="28.800003" target-width="38.614014" target-x="736.888" target-y="101.463"></path><path d="M 98.75 111.89 L 168.51 153.02 C 169.13 153.39 169.66 153.90 170.06 154.51 C 170.45 155.12 170.70 155.81 170.79 156.52 C 170.87 157.24 170.79 157.96 170.55 158.64 C 170.31 159.32 169.91 159.93 169.39 160.42 L 119.48 209.00 C 115.43 207.73 111.15 209.36 106.64 213.91 C 105.24 215.28 104.17 215.07 103.45 213.27 L 81.39 158.41 L 77.62 141.84 C 75.90 126.89 79.04 108.12 98.75 111.89 Z" fill="#a8615d" fill-rule="nonzero" node-id="124" stroke="none" target-height="107.164" target-width="94.9691" target-x="75.9039" target-y="108.116"></path><path d="M 77.62 141.84 L 81.39 158.41 C 68.45 156.45 56.34 176.31 49.68 185.82 C 49.18 186.53 48.85 187.35 48.72 188.21 C 48.59 189.07 48.67 189.95 48.94 190.77 C 52.60 202.14 52.70 212.11 49.24 220.67 L 41.54 183.47 C 45.79 184.35 47.75 183.16 47.42 179.89 C 45.13 157.73 46.62 135.95 51.88 114.54 C 52.05 113.85 52.37 113.20 52.82 112.65 C 53.27 112.10 53.85 111.66 54.50 111.36 C 55.15 111.05 55.86 110.90 56.57 110.91 C 57.29 110.92 58.00 111.09 58.65 111.40 C 69.56 116.86 73.62 126.04 70.81 138.95 C 70.41 140.88 71.20 141.84 73.16 141.84 L 77.62 141.84 Z" fill="#d0988b" fill-rule="nonzero" node-id="126" stroke="none" target-height="109.771996" target-width="39.855698" target-x="41.539" target-y="110.902"></path><path d="M 892.28 122.92 C 895.75 162.96 890.01 204.63 875.08 247.93 L 845.47 211.65 L 854.59 142.14 C 871.09 141.16 883.65 134.75 892.28 122.92 Z" fill="#c28780" fill-rule="nonzero" node-id="128" stroke="none" target-height="125.008" target-width="50.281006" target-x="845.466" target-y="122.921"></path><path d="M 741.14 136.45 C 834.78 191.46 896.88 271.00 927.43 375.10 C 927.54 375.45 927.52 375.83 927.39 376.18 C 927.25 376.52 927.00 376.81 926.69 377.00 C 926.37 377.18 926.00 377.25 925.65 377.19 C 925.29 377.13 924.97 376.94 924.74 376.67 C 911.11 361.76 895.58 348.75 878.16 337.64 C 878.10 337.61 878.02 337.60 877.95 337.61 C 877.88 337.63 877.81 337.67 877.76 337.72 C 877.71 337.78 877.68 337.85 877.67 337.92 C 877.67 338.00 877.68 338.07 877.72 338.13 L 909.20 378.23 L 922.33 433.04 C 923.28 447.32 919.80 456.02 911.89 459.12 L 877.38 430.79 C 876.98 430.48 876.49 430.32 875.99 430.35 C 875.49 430.37 875.01 430.57 874.65 430.91 C 874.28 431.26 874.05 431.72 874.00 432.21 C 873.94 432.71 874.06 433.21 874.34 433.63 C 883.13 446.11 894.18 456.31 907.48 464.22 C 907.35 465.33 906.79 466.64 905.81 468.14 C 866.15 447.01 824.39 458.29 797.82 492.11 C 791.18 495.45 787.24 493.75 786.00 487.01 C 785.80 485.95 785.27 484.97 784.48 484.22 C 783.69 483.47 782.69 483.00 781.61 482.85 C 780.53 482.71 779.44 482.92 778.48 483.43 C 777.53 483.95 776.76 484.76 776.29 485.74 L 764.14 511.72 C 761.95 511.95 761.02 512.48 761.34 513.29 L 757.72 513.34 C 755.43 513.37 754.74 512.34 755.66 510.25 L 756.83 507.56 C 762.39 503.54 765.66 498.50 766.64 492.46 C 777.39 424.25 755.43 372.69 700.75 337.79 C 668.46 324.13 639.05 321.15 612.51 328.87 L 603.64 332.79 C 598.41 322.13 604.63 315.50 622.31 312.89 C 622.53 312.85 622.74 312.77 622.92 312.64 C 623.11 312.52 623.27 312.35 623.39 312.15 L 624.91 309.55 C 625.66 308.34 626.73 307.62 628.10 307.39 L 663.79 302.15 L 665.70 301.12 C 667.79 300.01 667.66 299.29 665.31 298.96 L 663.15 298.67 C 662.75 298.62 662.36 298.47 662.04 298.23 C 661.71 297.98 661.46 297.66 661.30 297.29 C 661.14 296.91 661.08 296.50 661.13 296.10 C 661.18 295.70 661.34 295.32 661.58 294.99 C 662.04 294.37 662.74 293.73 663.69 293.08 C 686.08 296.06 708.04 302.05 729.58 311.07 C 729.71 311.13 729.87 311.15 730.01 311.11 C 730.16 311.08 730.29 310.99 730.39 310.88 C 730.48 310.76 730.53 310.61 730.54 310.46 C 730.54 310.31 730.50 310.17 730.41 310.04 C 730.15 309.62 729.67 309.23 728.99 308.87 C 699.21 293.44 667.19 286.87 632.90 289.16 C 586.66 292.26 553.00 315.68 531.91 359.41 C 530.67 359.54 529.79 360.41 529.27 362.01 C 528.84 363.44 529.37 364.07 530.84 363.87 L 532.70 363.62 C 534.60 363.36 535.72 364.16 536.08 366.03 L 541.03 391.57 C 535.25 395.39 539.55 395.93 553.93 393.19 C 544.64 427.86 548.62 458.45 565.84 484.96 C 592.46 525.15 643.74 537.26 688.20 523.59 C 682.32 543.55 684.20 560.81 693.84 575.36 C 694.69 576.66 695.18 578.10 695.31 579.67 C 696.53 593.74 723.15 610.06 732.27 615.80 C 742.27 622.07 753.01 620.70 764.63 622.96 C 766.20 623.25 767.73 623.17 769.24 622.71 C 783.98 618.40 799.14 619.03 814.73 624.62 L 831.84 655.56 C 830.33 657.26 828.11 658.06 825.17 657.96 C 823.31 657.93 822.87 658.69 823.85 660.26 C 825.38 662.75 825.68 665.07 824.73 667.22 C 789.78 745.56 700.95 788.90 622.75 811.94 C 560.35 830.32 485.49 836.25 418.48 835.96 C 390.17 835.83 364.88 841.73 342.59 853.66 L 232.09 816.55 C 214.47 802.95 195.88 791.81 176.30 783.11 C 175.42 782.72 174.83 782.07 174.54 781.15 C 174.11 779.94 174.23 778.87 174.88 777.92 C 175.63 776.84 175.68 775.71 175.03 774.53 C 173.10 771.14 170.45 769.80 167.09 770.51 C 165.97 770.73 164.82 770.61 163.78 770.15 C 162.75 769.69 161.87 768.93 161.26 767.96 C 160.66 766.98 160.35 765.84 160.38 764.68 C 160.42 763.52 160.79 762.40 161.45 761.45 C 161.51 761.32 163.15 760.76 166.35 759.78 C 167.76 762.36 169.70 763.68 172.19 763.75 C 172.46 763.76 172.72 763.68 172.95 763.52 C 173.17 763.37 173.34 763.14 173.43 762.89 C 173.51 762.63 173.51 762.35 173.43 762.09 C 173.35 761.83 173.19 761.61 172.97 761.45 L 120.61 724.19 C 119.21 711.21 113.06 701.00 102.18 693.55 C 100.87 692.65 99.83 691.41 99.19 689.97 C 95.79 682.06 96.66 675.31 101.79 669.72 C 109.76 674.72 117.69 679.28 125.56 683.40 C 126.09 683.66 126.64 683.76 127.23 683.70 C 128.44 683.57 128.55 683.14 127.57 682.42 L 94.09 657.52 C 87.75 645.88 80.74 635.18 73.06 625.41 C 64.66 614.65 58.27 605.13 53.89 596.83 C 41.93 574.03 26.64 552.07 20.61 526.63 C 26.13 513.13 26.49 500.30 21.68 488.14 C 28.65 478.96 30.38 469.78 26.88 460.59 C 39.72 440.95 52.44 421.37 65.02 401.86 C 65.15 401.63 65.23 401.42 65.27 401.23 C 65.30 401.00 65.28 400.77 65.22 400.54 C 65.02 399.46 64.61 399.43 63.99 400.44 C 54.55 415.93 41.78 428.11 25.70 436.96 C 24.84 437.41 24.11 438.07 23.60 438.88 L 13.06 454.95 C 11.98 450.05 12.60 445.62 14.92 441.67 L 18.40 437.01 C 19.35 435.74 20.00 434.33 20.36 432.80 L 29.58 392.35 C 33.70 389.28 35.97 393.20 36.39 404.12 C 36.46 405.72 37.13 407.03 38.40 408.04 C 42.88 411.50 46.69 410.75 49.82 405.78 C 50.80 404.22 51.42 404.35 51.69 406.18 L 51.98 408.48 C 52.08 409.10 52.36 409.22 52.81 408.82 C 62.32 400.69 61.69 390.19 64.97 382.50 C 96.25 308.52 184.69 254.45 258.22 226.21 C 271.80 220.97 278.66 214.10 295.87 216.70 L 300.09 228.08 C 334.35 260.68 366.61 168.02 400.63 160.33 C 402.69 159.84 404.14 160.57 405.00 162.53 L 409.11 171.94 C 410.65 175.54 413.35 176.99 417.20 176.31 C 455.77 169.54 493.84 164.25 531.42 160.43 C 614.57 151.90 708.10 192.88 770.41 243.22 C 796.00 263.91 834.83 298.28 865.12 327.45 C 866.56 328.82 867.98 328.80 869.39 327.40 L 874.98 321.86 C 875.55 321.27 875.91 320.50 875.97 319.68 C 876.03 318.86 875.80 318.05 875.32 317.40 C 856.89 292.59 842.52 269.11 822.57 241.26 C 800.22 209.94 782.57 173.81 745.16 149.98 C 739.58 146.45 738.84 142.24 741.14 136.45 Z M 215.52 308.77 C 219.97 315.37 230.95 317.07 248.46 313.87 C 286.60 315.08 319.11 329.69 345.97 357.69 C 346.75 358.51 347.34 359.47 347.74 360.58 C 349.57 365.52 350.69 366.08 351.12 362.25 L 364.01 363.72 C 366.14 363.98 366.48 363.31 365.04 361.71 L 352.39 347.59 C 314.19 299.16 264.81 286.31 204.25 309.06 C 193.10 313.28 193.36 314.11 205.03 311.56 C 206.21 311.30 209.70 310.37 215.52 308.77 Z M 159.59 462.11 C 139.59 460.41 125.30 461.51 116.74 465.40 C 105.50 470.43 95.06 470.69 85.41 466.18 C 83.86 465.39 82.07 465.22 80.40 465.70 C 78.72 466.19 77.30 467.29 76.41 468.79 C 75.52 470.28 75.23 472.06 75.60 473.76 C 75.97 475.46 76.97 476.96 78.40 477.95 L 80.46 479.47 C 81.77 480.41 81.97 481.56 81.05 482.90 C 73.01 494.52 60.31 495.35 53.60 505.01 C 43.99 518.83 47.42 543.25 51.29 559.27 C 58.40 588.35 76.44 606.19 105.27 612.22 C 107.03 612.58 108.57 613.38 109.88 614.62 C 113.14 617.73 116.94 619.85 121.25 621.00 C 121.29 621.00 121.33 620.99 121.37 620.98 C 121.40 620.97 121.44 620.95 121.46 620.92 C 121.48 620.89 121.49 620.86 121.49 620.83 C 121.48 620.80 121.47 620.77 121.45 620.75 L 120.76 619.43 C 120.70 619.34 120.67 619.24 120.67 619.13 C 120.67 619.02 120.71 618.92 120.78 618.84 C 120.84 618.75 120.94 618.70 121.04 618.67 C 121.14 618.64 121.25 618.65 121.35 618.69 C 147.28 625.90 167.87 623.45 192.82 616.09 C 231.35 604.72 252.24 583.54 253.91 541.28 C 253.94 540.46 253.80 539.64 253.51 538.87 C 253.21 538.10 252.76 537.39 252.18 536.81 C 251.60 536.22 250.91 535.75 250.14 535.45 C 249.38 535.14 248.55 534.99 247.73 535.01 C 235.60 535.27 229.82 531.92 230.38 524.96 C 237.37 526.92 243.64 527.39 249.20 526.38 C 251.52 525.99 251.59 525.34 249.40 524.42 L 231.94 517.12 C 231.35 512.44 232.21 510.15 234.49 510.25 C 274.20 532.85 313.47 516.09 339.35 482.70 L 372.74 494.32 C 374.44 494.91 375.84 494.50 376.95 493.09 C 380.71 488.32 385.55 486.07 391.46 486.33 C 396.82 516.23 412.40 534.98 438.18 542.56 C 453.90 547.20 468.82 545.92 482.94 538.74 C 502.40 528.88 542.16 484.61 501.28 470.64 C 488.01 466.10 475.49 463.88 463.72 463.98 L 473.24 447.16 C 473.65 446.42 474.26 445.80 474.99 445.37 C 475.72 444.93 476.56 444.71 477.40 444.71 C 482.83 444.71 487.60 442.83 491.72 439.07 C 492.76 438.12 492.62 437.40 491.27 436.91 L 463.63 427.16 C 463.50 427.13 463.38 427.06 463.31 426.94 C 463.24 426.83 463.21 426.70 463.23 426.57 C 463.26 426.44 463.34 426.33 463.45 426.25 C 463.56 426.18 463.69 426.15 463.82 426.18 C 465.36 426.18 467.58 426.65 470.49 427.60 C 470.86 427.73 471.27 427.73 471.64 427.59 C 472.01 427.45 472.33 427.19 472.53 426.86 C 472.73 426.51 472.81 426.11 472.75 425.72 C 472.69 425.33 472.50 424.97 472.20 424.71 C 466.49 419.38 459.98 416.26 452.69 415.34 C 451.35 415.18 450.45 414.44 450.00 413.14 C 448.04 407.58 443.07 403.95 435.10 402.25 C 415.78 398.07 400.14 401.42 388.18 412.30 C 387.26 413.15 386.30 413.20 385.29 412.45 C 381.01 409.31 376.76 409.20 372.54 412.11 C 372.17 412.34 371.88 412.70 371.75 413.12 C 371.62 413.54 371.65 414.00 371.83 414.40 C 372.01 414.80 372.33 415.12 372.73 415.31 C 373.13 415.49 373.59 415.52 374.01 415.39 C 379.40 414.08 383.88 415.26 387.44 418.92 C 387.77 419.27 388.01 419.70 388.13 420.17 C 388.25 420.64 388.25 421.13 388.13 421.60 C 388.02 422.06 387.79 422.49 387.46 422.85 C 387.13 423.20 386.72 423.47 386.27 423.63 L 359.35 432.65 C 361.17 376.17 319.55 321.86 259.74 332.45 C 197.43 343.52 158.80 400.54 159.59 462.11 Z M 493.82 436.38 L 503.78 441.18 C 503.94 441.30 504.16 441.35 504.36 441.32 C 504.57 441.29 504.75 441.18 504.88 441.01 C 505.00 440.84 505.05 440.63 505.02 440.42 C 504.99 440.21 504.88 440.03 504.71 439.90 C 501.47 436.80 497.96 435.20 494.17 435.10 C 494.02 435.10 493.87 435.15 493.76 435.25 C 493.64 435.34 493.55 435.46 493.51 435.61 C 493.48 435.75 493.49 435.90 493.54 436.04 C 493.60 436.18 493.70 436.30 493.82 436.38 Z M 434.65 600.70 L 453.09 589.57 C 454.59 588.66 456.01 588.77 457.35 589.91 C 469.12 600.21 488.63 621.44 504.02 622.96 C 506.05 623.15 506.36 622.53 504.95 621.09 L 474.41 590.01 L 457.99 551.33 C 457.57 550.34 456.85 549.51 455.92 548.96 C 455.00 548.40 453.93 548.15 452.86 548.25 C 451.79 548.34 450.77 548.77 449.96 549.47 C 449.14 550.18 448.58 551.12 448.33 552.17 C 441.73 579.78 426.78 601.17 403.48 616.34 C 403.21 616.51 403.02 616.77 402.95 617.08 C 402.88 617.39 402.94 617.71 403.11 617.98 C 403.28 618.25 403.54 618.43 403.85 618.50 C 404.16 618.57 404.48 618.52 404.75 618.35 L 434.65 600.70 Z" fill="#fdfaee" fill-rule="nonzero" node-id="130" stroke="none" target-height="717.20605" target-width="915.5612" target-x="11.9778" target-y="136.452"></path><path d="M 272.58 195.77 C 270.82 174.25 285.23 154.15 305.23 146.35 C 305.37 146.28 305.53 146.26 305.68 146.30 C 305.83 146.34 305.96 146.44 306.04 146.57 C 306.12 146.71 306.14 146.87 306.10 147.03 C 306.06 147.18 305.96 147.31 305.82 147.38 C 288.96 159.18 278.65 175.34 274.89 195.87 C 274.82 196.13 274.67 196.36 274.45 196.53 C 274.23 196.69 273.97 196.77 273.70 196.76 C 273.42 196.75 273.17 196.64 272.96 196.46 C 272.76 196.28 272.63 196.04 272.58 195.77 Z" fill="#412d27" fill-rule="nonzero" node-id="132" stroke="none" target-height="50.516006" target-width="35.321014" target-x="270.819" target-y="146.256"></path><path d="M 81.39 158.41 L 103.45 213.27 C 104.17 215.07 105.24 215.28 106.64 213.91 C 111.15 209.37 115.43 207.73 119.48 209.00 C 97.92 233.22 79.37 259.40 63.84 287.54 C 62.77 289.44 61.61 289.50 60.36 287.74 L 55.41 280.82 C 55.13 280.43 54.96 279.97 54.93 279.49 C 54.89 279.01 54.99 278.53 55.22 278.10 C 55.44 277.67 55.78 277.31 56.20 277.07 C 56.61 276.82 57.09 276.70 57.57 276.71 C 58.16 276.71 58.73 276.71 59.29 276.71 C 61.02 276.64 61.70 275.76 61.34 274.06 L 49.24 220.67 C 52.70 212.11 52.60 202.14 48.94 190.77 C 48.67 189.95 48.59 189.07 48.72 188.21 C 48.85 187.35 49.18 186.53 49.68 185.82 C 56.34 176.31 68.45 156.45 81.39 158.41 Z" fill="#c28780" fill-rule="nonzero" node-id="134" stroke="none" target-height="133.048" target-width="70.8927" target-x="48.5923" target-y="156.453"></path><path d="M 300.09 228.08 L 295.87 216.70 C 296.36 204.61 298.57 193.03 302.49 181.95 C 302.68 181.32 303.32 181.08 304.40 181.21 C 304.63 181.24 304.85 181.32 305.04 181.44 C 305.24 181.57 305.39 181.74 305.51 181.94 C 305.62 182.14 305.69 182.37 305.70 182.60 C 305.71 182.83 305.67 183.06 305.58 183.27 C 299.20 197.13 297.37 212.06 300.09 228.08 Z" fill="#bda194" fill-rule="nonzero" node-id="136" stroke="none" target-height="46.996002" target-width="9.843018" target-x="295.87" target-y="181.08"></path><path d="M 663.69 293.08 C 618.00 289.55 579.47 296.90 551.72 334.46 L 531.91 359.41 C 553.00 315.68 586.66 292.26 632.90 289.16 C 667.19 286.87 699.21 293.44 728.99 308.87 C 729.67 309.23 730.15 309.62 730.41 310.04 C 730.50 310.17 730.54 310.31 730.54 310.46 C 730.53 310.61 730.48 310.76 730.39 310.88 C 730.29 310.99 730.16 311.08 730.01 311.11 C 729.87 311.15 729.71 311.13 729.58 311.07 C 708.04 302.05 686.08 296.06 663.69 293.08 Z" fill="#2e1e1b" fill-rule="nonzero" node-id="138" stroke="none" target-height="72.537994" target-width="198.62805" target-x="531.915" target-y="286.871"></path><path d="M 663.69 293.08 C 662.74 293.73 662.04 294.37 661.58 294.99 C 661.34 295.31 661.18 295.70 661.13 296.10 C 661.08 296.50 661.14 296.91 661.30 297.28 C 661.46 297.66 661.72 297.98 662.04 298.22 C 662.36 298.47 662.75 298.62 663.15 298.67 L 665.31 298.96 C 667.66 299.29 667.79 300.01 665.70 301.12 L 663.79 302.15 C 662.38 300.64 660.00 300.02 656.63 300.29 C 647.18 297.02 639.75 297.49 634.33 301.71 C 602.69 307.92 575.09 324.05 551.52 350.09 C 551.33 350.32 551.07 350.39 550.74 350.29 C 550.28 350.13 549.83 349.98 549.37 349.85 C 549.28 349.82 549.20 349.77 549.14 349.71 C 549.07 349.64 549.02 349.56 549.00 349.48 C 548.98 349.39 548.97 349.29 549.00 349.20 C 549.02 349.12 549.06 349.03 549.12 348.96 C 556.38 341.06 557.24 336.22 551.72 334.45 C 579.47 296.90 618.00 289.55 663.69 293.08 Z" fill="#b4aaa6" fill-rule="nonzero" node-id="140" stroke="none" target-height="60.837006" target-width="118.81702" target-x="548.974" target-y="289.55"></path><path d="M 352.39 347.59 C 312.75 305.70 267.13 292.75 215.52 308.77 C 209.70 310.37 206.21 311.30 205.03 311.56 C 193.36 314.11 193.10 313.28 204.25 309.06 C 264.81 286.31 314.19 299.16 352.39 347.59 Z" fill="#4e423d" fill-rule="nonzero" node-id="142" stroke="none" target-height="61.27899" target-width="159.292" target-x="193.101" target-y="286.315"></path><path d="M 656.63 300.29 L 634.32 301.71 C 639.75 297.49 647.18 297.02 656.63 300.29 Z" fill="#4e423d" fill-rule="nonzero" node-id="144" stroke="none" target-height="4.6900024" target-width="22.30603" target-x="634.324" target-y="297.018"></path><path d="M 656.63 300.29 C 660.00 300.02 662.38 300.65 663.79 302.15 L 628.10 307.39 C 626.73 307.62 625.66 308.34 624.91 309.55 L 623.39 312.15 C 623.27 312.35 623.11 312.52 622.92 312.64 C 622.74 312.77 622.53 312.85 622.31 312.88 C 604.63 315.50 598.41 322.13 603.64 332.79 C 584.48 341.51 569.52 355.00 558.73 373.23 C 551.12 376.17 545.22 382.29 541.03 391.57 L 536.08 366.03 C 535.72 364.16 534.60 363.36 532.70 363.62 L 530.84 363.87 C 529.37 364.06 528.84 363.44 529.27 362.01 C 529.79 360.40 530.67 359.54 531.91 359.41 L 551.72 334.45 C 557.24 336.22 556.38 341.06 549.12 348.97 C 549.06 349.03 549.02 349.12 549.00 349.20 C 548.97 349.29 548.98 349.39 549.00 349.48 C 549.02 349.56 549.07 349.64 549.13 349.71 C 549.20 349.77 549.28 349.82 549.37 349.85 C 549.83 349.98 550.28 350.13 550.74 350.29 C 551.07 350.39 551.33 350.32 551.52 350.09 C 575.09 324.05 602.69 307.92 634.32 301.71 L 656.63 300.29 Z" fill="#e1dbd1" fill-rule="nonzero" node-id="146" stroke="none" target-height="91.54199" target-width="134.94397" target-x="528.843" target-y="300.025"></path><path d="M 352.39 347.59 L 365.04 361.71 C 366.48 363.31 366.14 363.98 364.01 363.72 L 351.12 362.25 C 350.76 361.11 350.42 359.78 350.09 358.28 C 349.80 356.88 349.22 355.68 348.37 354.70 C 321.15 322.90 286.41 307.23 244.15 307.69 C 243.49 307.69 242.86 307.94 242.39 308.38 C 238.50 311.87 240.52 313.70 248.47 313.87 C 230.95 317.07 219.97 315.37 215.52 308.77 C 267.13 292.75 312.75 305.70 352.39 347.59 Z" fill="#cec3b9" fill-rule="nonzero" node-id="148" stroke="none" target-height="71.23102" target-width="150.95801" target-x="215.521" target-y="292.753"></path><path d="M 351.12 362.25 C 350.69 366.07 349.57 365.52 347.74 360.58 C 347.34 359.47 346.76 358.51 345.97 357.69 C 319.11 329.68 286.60 315.07 248.47 313.87 C 240.52 313.70 238.50 311.87 242.39 308.38 C 242.86 307.94 243.49 307.69 244.15 307.69 C 286.41 307.23 321.15 322.90 348.37 354.70 C 349.22 355.68 349.80 356.88 350.09 358.28 C 350.42 359.78 350.76 361.11 351.12 362.25 Z" fill="#715337" fill-rule="nonzero" node-id="150" stroke="none" target-height="58.844025" target-width="112.622986" target-x="238.496" target-y="307.231"></path><path d="M 700.75 337.79 C 698.82 338.38 697.74 339.63 697.51 341.56 C 697.32 343.13 696.49 343.61 695.01 342.99 C 669.78 331.84 643.38 328.43 615.79 332.74 C 614.49 332.94 613.52 332.82 612.90 332.40 C 611.79 331.71 611.66 330.53 612.51 328.87 C 639.05 321.15 668.46 324.13 700.75 337.79 Z" fill="#170f0a" fill-rule="nonzero" node-id="152" stroke="none" target-height="22.451996" target-width="89.091" target-x="611.659" target-y="321.154"></path><path d="M 612.51 328.87 C 611.66 330.53 611.79 331.71 612.90 332.40 C 613.52 332.82 614.49 332.94 615.79 332.74 C 643.38 328.43 669.78 331.84 695.01 342.99 C 696.49 343.61 697.32 343.13 697.51 341.56 C 697.74 339.64 698.82 338.38 700.75 337.79 C 755.43 372.69 777.39 424.25 766.64 492.46 C 765.66 498.50 762.39 503.54 756.83 507.56 C 744.58 483.00 748.20 453.09 742.22 427.40 C 735.65 398.33 709.13 345.78 674.13 346.76 C 648.44 339.90 624.26 343.36 601.58 357.15 C 599.98 358.13 598.26 358.54 596.43 358.38 C 589.86 357.89 584.68 360.52 580.89 366.27 C 580.64 366.69 580.25 367.00 579.79 367.13 C 579.33 367.26 578.83 367.21 578.40 366.99 C 577.97 366.77 577.63 366.39 577.46 365.93 C 577.28 365.47 577.28 364.96 577.46 364.51 L 579.17 360.00 C 580.32 357.02 579.57 356.40 576.92 358.13 C 571.79 361.53 568.27 365.32 566.38 369.51 C 553.14 398.69 549.92 428.04 556.72 457.55 L 566.77 482.46 C 566.67 484.45 566.36 485.28 565.84 484.96 C 548.62 458.45 544.64 427.86 553.93 393.19 L 558.73 373.23 C 569.52 355.00 584.48 341.51 603.64 332.79 L 612.51 328.87 Z" fill="#2e1e1b" fill-rule="nonzero" node-id="154" stroke="none" target-height="179.13" target-width="232.74396" target-x="544.645" target-y="328.426"></path><path d="M 359.35 432.65 C 355.95 450.36 349.29 467.05 339.35 482.70 C 313.47 516.09 274.20 532.85 234.49 510.25 C 208.64 493.81 197.30 469.45 200.47 437.16 C 202.43 415.00 211.19 396.58 226.75 381.91 C 227.40 381.88 227.92 381.93 228.32 382.06 C 229.56 382.38 229.75 383.02 228.90 383.97 C 211.71 402.76 204.51 424.58 207.28 449.42 C 203.66 484.07 228.41 508.88 259.35 515.35 C 305.62 525.06 342.54 488.29 351.31 444.56 C 360.24 408.09 332.25 375.78 302.29 359.75 C 279.74 347.82 257.75 350.40 236.31 367.50 L 225.52 374.12 C 201.93 391.11 187.74 413.77 182.97 442.11 C 182.19 491.48 182.72 501.72 231.94 517.12 L 249.40 524.42 C 251.59 525.34 251.52 525.99 249.20 526.38 C 243.64 527.39 237.37 526.92 230.38 524.96 C 190.37 521.13 162.04 503.88 159.59 462.11 C 158.80 400.54 197.43 343.52 259.74 332.45 C 319.55 321.86 361.17 376.17 359.35 432.65 Z" fill="#2e1e1b" fill-rule="nonzero" node-id="156" stroke="none" target-height="210.995" target-width="202.367" target-x="158.801" target-y="321.857"></path><path d="M 674.13 346.76 C 672.69 346.69 672.77 347.79 674.38 350.05 C 672.90 349.85 671.53 350.18 670.26 351.03 C 669.08 351.81 667.79 352.07 666.38 351.81 C 611.28 342.30 562.01 381.22 589.91 439.32 L 556.72 457.55 C 549.92 428.04 553.14 398.69 566.38 369.51 C 568.27 365.32 571.79 361.53 576.92 358.13 C 579.57 356.40 580.32 357.02 579.17 360.00 L 577.46 364.51 C 577.28 364.96 577.28 365.47 577.46 365.93 C 577.63 366.39 577.97 366.77 578.40 366.99 C 578.83 367.21 579.33 367.26 579.79 367.13 C 580.25 367.00 580.64 366.69 580.89 366.27 C 584.68 360.52 589.86 357.89 596.43 358.38 C 598.26 358.54 599.98 358.13 601.58 357.15 C 624.26 343.36 648.44 339.90 674.13 346.76 Z" fill="#836b44" fill-rule="nonzero" node-id="158" stroke="none" target-height="117.656006" target-width="124.453" target-x="549.923" target-y="339.897"></path><path d="M 674.13 346.76 C 709.13 345.78 735.65 398.33 742.22 427.40 C 740.10 427.04 739.07 427.78 739.13 429.61 C 732.83 404.41 720.31 382.12 701.58 362.74 C 700.41 361.53 698.99 361.04 697.32 361.27 L 694.92 361.61 C 693.32 359.95 692.02 357.82 691.04 355.24 C 690.46 353.70 689.34 352.86 687.71 352.69 C 685.46 352.46 683.12 353.26 680.70 355.09 C 680.44 352.48 678.33 350.80 674.38 350.04 C 672.77 347.79 672.69 346.69 674.13 346.76 Z" fill="#aaa1a1" fill-rule="nonzero" node-id="160" stroke="none" target-height="83.83002" target-width="69.531006" target-x="672.693" target-y="345.779"></path><path d="M 42.27 349.21 L 29.58 392.35 L 20.36 432.80 C 20.00 434.33 19.35 435.74 18.40 437.01 L 14.92 441.67 C 11.24 428.87 24.72 375.14 32.03 363.08 C 32.81 361.78 33.19 360.36 33.16 358.82 C 33.09 353.46 36.13 350.26 42.27 349.21 Z" fill="#4e423d" fill-rule="nonzero" node-id="162" stroke="none" target-height="92.45801" target-width="31.0316" target-x="11.2429" target-y="349.211"></path><path d="M 674.38 350.05 C 678.33 350.80 680.44 352.48 680.70 355.09 L 661.78 367.35 C 660.31 368.30 659.65 369.64 659.82 371.37 C 660.73 382.35 661.97 390.42 663.54 395.59 C 670.85 419.90 696.53 410.98 705.02 391.52 C 707.04 391.81 707.92 392.82 707.66 394.56 C 701.19 410.88 699.62 431.13 692.42 444.32 C 669.33 486.52 613.20 479.37 589.91 439.31 C 562.02 381.22 611.28 342.30 666.39 351.81 C 667.79 352.07 669.08 351.81 670.26 351.02 C 671.53 350.18 672.91 349.85 674.38 350.05 Z" fill="#2e1e1b" fill-rule="nonzero" node-id="164" stroke="none" target-height="144.22498" target-width="145.90802" target-x="562.016" target-y="342.299"></path><path d="M 302.29 359.75 C 286.44 360.31 271.87 363.26 258.56 368.62 C 257.09 369.21 255.61 369.28 254.10 368.82 C 248.84 367.19 242.91 366.75 236.31 367.50 C 257.75 350.40 279.74 347.82 302.29 359.75 Z" fill="#4e423d" fill-rule="nonzero" node-id="166" stroke="none" target-height="21.456024" target-width="65.984985" target-x="236.307" target-y="347.822"></path><path d="M 694.92 361.61 C 702.22 367.79 714.48 382.84 705.01 391.52 C 696.53 410.98 670.85 419.90 663.54 395.59 C 661.97 390.42 660.73 382.35 659.82 371.37 C 659.65 369.64 660.31 368.30 661.78 367.35 L 680.70 355.09 C 683.12 353.26 685.46 352.46 687.71 352.69 C 689.34 352.86 690.46 353.70 691.04 355.24 C 692.02 357.82 693.32 359.95 694.92 361.61 Z" fill="#fefefe" fill-rule="nonzero" node-id="168" stroke="none" target-height="67.438995" target-width="54.823975" target-x="659.653" target-y="352.463"></path><path d="M 302.29 359.75 C 332.25 375.78 360.24 408.09 351.31 444.56 C 351.35 434.56 346.35 430.21 336.31 431.52 C 334.88 431.72 333.90 431.14 333.37 429.81 C 331.22 424.38 329.16 418.92 327.20 413.43 C 325.79 409.44 324.14 408.56 322.25 410.78 C 318.45 389.90 305.15 375.37 282.34 367.20 C 280.80 366.68 279.25 366.66 277.68 367.15 C 242.52 378.40 228.51 401.98 235.67 437.89 C 228.19 441.36 220.06 443.07 211.31 443.04 C 209.61 443.04 208.41 443.81 207.73 445.35 C 207.24 446.36 207.09 447.71 207.29 449.41 C 204.51 424.58 211.71 402.76 228.91 383.97 C 229.75 383.02 229.56 382.38 228.32 382.06 C 227.92 381.93 227.40 381.88 226.75 381.91 L 228.27 378.82 C 228.99 377.42 228.69 376.27 227.38 375.39 L 225.52 374.12 L 236.31 367.50 C 242.91 366.75 248.84 367.19 254.10 368.82 C 255.61 369.28 257.09 369.21 258.56 368.62 C 271.87 363.26 286.44 360.31 302.29 359.75 Z" fill="#836b44" fill-rule="nonzero" node-id="170" stroke="none" target-height="89.662994" target-width="155.729" target-x="204.508" target-y="359.751"></path><path d="M 694.92 361.61 L 697.32 361.27 C 698.99 361.04 700.41 361.53 701.58 362.74 C 720.31 382.12 732.83 404.41 739.13 429.61 C 741.83 445.59 748.45 466.72 738.89 480.98 C 725.82 500.37 708.92 514.57 688.20 523.59 C 643.74 537.26 592.46 525.15 565.84 484.95 C 566.36 485.28 566.67 484.45 566.77 482.45 C 580.17 503.86 599.30 517.07 624.18 522.07 C 672.58 531.84 709.54 516.41 735.07 475.79 C 735.89 474.46 736.22 472.88 736.00 471.33 C 734.09 458.14 735.95 446.77 730.41 434.22 C 724.36 420.49 719.71 406.27 716.44 391.57 C 716.04 389.80 714.95 389.08 713.15 389.41 C 710.90 389.80 709.07 391.52 707.66 394.56 C 707.92 392.82 707.04 391.81 705.01 391.52 C 714.48 382.84 702.22 367.79 694.92 361.61 Z" fill="#4c3626" fill-rule="nonzero" node-id="172" stroke="none" target-height="176.22101" target-width="182.61102" target-x="565.839" target-y="361.042"></path><path d="M 322.24 410.78 C 328.57 471.43 262.58 501.92 235.67 437.89 C 228.51 401.98 242.52 378.40 277.68 367.15 C 279.25 366.66 280.80 366.68 282.34 367.20 C 305.15 375.37 318.45 389.90 322.24 410.78 Z M 263.81 413.92 C 264.80 414.93 265.99 415.72 267.31 416.22 C 268.64 416.73 270.05 416.94 271.46 416.85 C 272.87 416.75 274.25 416.36 275.49 415.68 C 276.73 415.01 277.81 414.07 278.66 412.94 L 296.90 388.68 C 298.21 386.98 298.24 385.23 297.00 383.43 C 277.63 355.29 239.35 389.02 263.81 413.92 Z" fill="#2e1e1b" fill-rule="nonzero" node-id="174" stroke="none" target-height="146.62799" target-width="100.056" target-x="228.512" target-y="355.29"></path><path d="M 263.81 413.92 C 239.35 389.02 277.63 355.29 297.00 383.43 C 298.24 385.23 298.21 386.98 296.90 388.68 L 278.66 412.94 C 277.81 414.07 276.73 415.01 275.49 415.68 C 274.25 416.36 272.87 416.75 271.46 416.85 C 270.05 416.94 268.64 416.73 267.31 416.22 C 265.99 415.72 264.80 414.93 263.81 413.92 Z" fill="#fdfbf5" fill-rule="nonzero" node-id="176" stroke="none" target-height="61.649994" target-width="58.89302" target-x="239.346" target-y="355.29"></path><path d="M 558.73 373.23 L 553.93 393.19 C 539.55 395.93 535.25 395.39 541.03 391.57 C 545.22 382.29 551.12 376.17 558.73 373.23 Z" fill="#cec3b9" fill-rule="nonzero" node-id="178" stroke="none" target-height="22.697998" target-width="23.481995" target-x="535.249" target-y="373.232"></path><path d="M 225.52 374.12 L 227.38 375.39 C 228.69 376.27 228.99 377.42 228.27 378.82 L 226.75 381.91 C 211.19 396.58 202.43 415.00 200.47 437.16 C 197.40 437.52 194.43 442.23 191.55 451.28 C 191.46 451.59 191.26 451.86 190.99 452.03 C 190.72 452.21 190.40 452.28 190.08 452.23 C 189.76 452.18 189.47 452.02 189.26 451.77 C 189.05 451.52 188.94 451.21 188.95 450.89 C 188.95 450.43 188.95 449.97 188.95 449.51 C 188.94 447.71 188.74 446.04 188.38 444.73 C 188.03 443.43 187.54 442.56 186.99 442.26 C 186.40 441.90 185.06 441.85 182.97 442.11 C 187.74 413.77 201.93 391.11 225.52 374.12 Z" fill="#bda194" fill-rule="nonzero" node-id="180" stroke="none" target-height="78.164" target-width="46.01599" target-x="182.97" target-y="374.116"></path><path d="M 909.20 378.23 C 935.08 404.57 948.22 438.27 948.61 479.32 C 940.08 480.59 934.97 477.10 933.27 468.83 C 930.13 453.43 926.49 441.50 922.33 433.04 L 909.20 378.23 Z" fill="#cec3b9" fill-rule="nonzero" node-id="182" stroke="none" target-height="102.359985" target-width="39.41504" target-x="909.196" target-y="378.233"></path><path d="M 566.77 482.46 L 556.72 457.55 L 589.91 439.31 C 613.20 479.37 669.33 486.52 692.42 444.32 C 699.62 431.13 701.19 410.88 707.66 394.56 C 709.07 391.52 710.90 389.80 713.15 389.41 C 714.95 389.08 716.05 389.80 716.44 391.57 C 719.71 406.27 724.36 420.49 730.41 434.22 C 735.95 446.77 734.09 458.14 736.00 471.33 C 736.22 472.88 735.89 474.46 735.07 475.79 C 709.54 516.41 672.58 531.84 624.18 522.07 C 599.31 517.07 580.17 503.86 566.77 482.46 Z" fill="#9e9149" fill-rule="nonzero" node-id="184" stroke="none" target-height="142.755" target-width="179.5" target-x="556.721" target-y="389.083"></path><path d="M 26.88 460.59 C 23.71 462.85 22.62 464.68 23.60 466.08 C 19.84 462.26 16.42 460.46 13.35 460.69 C 12.08 460.79 11.39 460.21 11.29 458.97 C 11.13 456.95 11.72 455.61 13.06 454.95 L 23.60 438.87 C 24.11 438.07 24.84 437.41 25.70 436.96 C 41.78 428.11 54.55 415.93 63.99 400.44 C 64.61 399.43 65.02 399.46 65.22 400.54 C 65.28 400.77 65.30 401.00 65.27 401.23 C 65.23 401.42 65.15 401.63 65.02 401.86 C 52.44 421.37 39.73 440.95 26.88 460.59 Z" fill="#715337" fill-rule="nonzero" node-id="186" stroke="none" target-height="66.655" target-width="54.170296" target-x="11.1286" target-y="399.427"></path><path d="M 463.73 463.98 C 431.89 460.87 407.81 468.32 391.46 486.33 C 385.55 486.07 380.71 488.32 376.95 493.09 C 375.84 494.50 374.44 494.91 372.74 494.32 L 339.35 482.70 C 349.29 467.05 355.96 450.36 359.36 432.65 L 386.27 423.63 C 386.72 423.47 387.13 423.20 387.46 422.85 C 387.79 422.49 388.02 422.06 388.13 421.60 C 388.25 421.13 388.25 420.64 388.13 420.17 C 388.01 419.70 387.77 419.27 387.44 418.92 C 383.88 415.26 379.40 414.08 374.01 415.39 C 373.59 415.52 373.13 415.49 372.73 415.31 C 372.33 415.12 372.01 414.80 371.83 414.40 C 371.65 414.00 371.62 413.54 371.75 413.12 C 371.88 412.70 372.17 412.34 372.54 412.11 C 376.76 409.20 381.01 409.31 385.29 412.45 C 386.30 413.20 387.26 413.15 388.18 412.30 C 400.14 401.42 415.78 398.07 435.10 402.25 C 443.07 403.95 448.04 407.58 450.00 413.14 C 450.46 414.44 451.35 415.18 452.69 415.34 C 459.98 416.26 466.49 419.38 472.21 424.71 C 472.50 424.97 472.69 425.33 472.75 425.72 C 472.81 426.11 472.73 426.51 472.53 426.86 C 472.33 427.19 472.01 427.45 471.64 427.59 C 471.27 427.73 470.86 427.73 470.49 427.60 C 467.58 426.65 465.36 426.18 463.82 426.18 C 463.69 426.15 463.56 426.18 463.45 426.25 C 463.34 426.32 463.26 426.44 463.23 426.57 C 463.21 426.70 463.24 426.83 463.31 426.94 C 463.38 427.06 463.50 427.13 463.63 427.16 L 491.27 436.91 C 492.62 437.40 492.76 438.12 491.72 439.07 C 487.60 442.83 482.83 444.71 477.40 444.71 C 476.56 444.71 475.72 444.93 474.99 445.37 C 474.26 445.80 473.65 446.42 473.24 447.16 L 463.73 463.98 Z" fill="#fdfbf5" fill-rule="nonzero" node-id="188" stroke="none" target-height="96.836975" target-width="153.41" target-x="339.353" target-y="398.071"></path><path d="M 351.31 444.56 C 342.54 488.29 305.62 525.06 259.35 515.35 C 228.41 508.88 203.66 484.07 207.28 449.41 C 207.09 447.71 207.24 446.36 207.73 445.35 C 208.41 443.81 209.61 443.04 211.31 443.04 C 220.06 443.07 228.19 441.36 235.67 437.89 C 262.58 501.92 328.57 471.43 322.24 410.78 C 324.14 408.56 325.79 409.44 327.20 413.43 C 329.16 418.92 331.21 424.38 333.37 429.81 C 333.89 431.14 334.88 431.72 336.31 431.52 C 346.35 430.21 351.35 434.56 351.31 444.56 Z" fill="#9e9149" fill-rule="nonzero" node-id="190" stroke="none" target-height="116.494995" target-width="147.68898" target-x="203.658" target-y="408.562"></path><path d="M 742.22 427.40 C 748.21 453.09 744.58 483.00 756.83 507.56 L 755.66 510.25 C 754.74 512.34 755.43 513.37 757.72 513.34 L 761.34 513.29 C 760.39 514.37 758.34 514.75 755.17 514.42 C 754.31 514.34 753.52 513.96 752.91 513.35 C 752.31 512.74 751.95 511.94 751.88 511.08 C 751.49 506.74 749.66 503.67 746.39 501.87 C 744.95 501.08 743.55 501.15 742.17 502.06 L 715.46 519.96 C 713.95 520.97 713.37 522.36 713.69 524.12 C 714.12 526.45 713.50 528.28 711.83 529.62 C 710.59 530.60 709.85 531.87 709.62 533.44 C 702.27 580.31 757.42 600.55 795.17 599.23 C 797.00 599.16 797.52 598.30 796.74 596.63 C 784.87 571.20 779.55 544.42 780.76 516.28 C 780.82 514.88 780.20 513.91 778.89 513.39 C 773.50 511.26 768.58 510.71 764.14 511.72 L 776.29 485.74 C 776.76 484.76 777.53 483.95 778.48 483.43 C 779.44 482.91 780.53 482.71 781.61 482.85 C 782.69 482.99 783.69 483.47 784.48 484.22 C 785.27 484.97 785.80 485.95 786.00 487.01 C 787.24 493.75 791.18 495.45 797.82 492.11 C 778.55 534.13 792.28 585.94 814.73 624.62 C 799.14 619.03 783.98 618.40 769.24 622.71 C 767.73 623.17 766.20 623.25 764.63 622.96 C 753.01 620.70 742.27 622.07 732.27 615.80 C 723.15 610.06 696.53 593.74 695.31 579.67 C 695.18 578.10 694.69 576.66 693.84 575.35 C 684.20 560.81 682.32 543.55 688.20 523.59 C 708.92 514.57 725.82 500.37 738.89 480.99 C 748.45 466.72 741.83 445.59 739.14 429.61 C 739.07 427.78 740.10 427.04 742.22 427.40 Z" fill="#fcecdc" fill-rule="nonzero" node-id="192" stroke="none" target-height="197.57901" target-width="132.41101" target-x="682.318" target-y="427.043"></path><path d="M 911.89 459.12 C 913.75 459.42 913.98 460.44 912.58 462.21 C 911.24 463.91 909.54 464.58 907.48 464.22 C 894.18 456.31 883.13 446.11 874.34 433.63 C 874.06 433.21 873.94 432.71 874.00 432.21 C 874.05 431.72 874.28 431.26 874.65 430.91 C 875.01 430.57 875.49 430.37 875.99 430.35 C 876.49 430.32 876.98 430.48 877.38 430.79 L 911.89 459.12 Z" fill="#cec3b9" fill-rule="nonzero" node-id="194" stroke="none" target-height="34.255005" target-width="40.044983" target-x="873.939" target-y="430.324"></path><path d="M 922.33 433.04 C 926.48 441.51 930.13 453.44 933.27 468.83 C 934.97 477.10 940.08 480.59 948.61 479.32 L 953.66 517.02 C 953.71 517.29 953.65 517.58 953.51 517.82 C 953.36 518.06 953.14 518.24 952.87 518.33 C 952.61 518.42 952.32 518.41 952.06 518.30 C 951.80 518.20 951.58 518.00 951.45 517.75 C 939.95 497.10 924.74 480.56 905.81 468.14 C 906.79 466.64 907.35 465.33 907.48 464.22 C 909.54 464.58 911.24 463.91 912.58 462.21 C 913.98 460.44 913.75 459.42 911.89 459.12 C 919.80 456.02 923.28 447.32 922.33 433.04 Z" fill="#e1dbd1" fill-rule="nonzero" node-id="196" stroke="none" target-height="85.37802" target-width="47.893982" target-x="905.813" target-y="433.041"></path><path d="M 493.82 436.37 C 493.70 436.30 493.60 436.18 493.54 436.04 C 493.49 435.90 493.48 435.75 493.51 435.61 C 493.55 435.46 493.64 435.34 493.76 435.24 C 493.87 435.15 494.02 435.10 494.17 435.10 C 497.96 435.20 501.47 436.80 504.71 439.90 C 504.88 440.03 504.99 440.21 505.02 440.42 C 505.05 440.63 505.00 440.84 504.88 441.01 C 504.76 441.18 504.57 441.29 504.36 441.32 C 504.16 441.35 503.94 441.30 503.78 441.18 L 493.82 436.37 Z" fill="#aaa1a1" fill-rule="nonzero" node-id="198" stroke="none" target-height="6.253998" target-width="11.577972" target-x="493.476" target-y="435.1"></path><path d="M 200.47 437.16 C 197.30 469.45 208.64 493.81 234.49 510.25 C 232.21 510.15 231.36 512.44 231.94 517.12 C 182.72 501.72 182.19 491.48 182.97 442.11 C 185.06 441.85 186.40 441.90 186.99 442.26 C 187.54 442.56 188.03 443.43 188.39 444.73 C 188.74 446.03 188.94 447.71 188.95 449.51 C 188.95 449.97 188.95 450.43 188.95 450.88 C 188.94 451.21 189.05 451.52 189.26 451.77 C 189.47 452.02 189.76 452.18 190.08 452.23 C 190.40 452.28 190.72 452.21 190.99 452.03 C 191.26 451.86 191.46 451.59 191.55 451.28 C 194.43 442.22 197.40 437.52 200.47 437.16 Z" fill="#e1dbd1" fill-rule="nonzero" node-id="200" stroke="none" target-height="79.957" target-width="52.30699" target-x="182.186" target-y="437.158"></path><path d="M 26.88 460.59 C 30.38 469.77 28.65 478.96 21.68 488.14 C 14.40 499.58 14.04 512.41 20.61 526.62 C 26.64 552.07 41.93 574.03 53.89 596.83 C 58.27 605.13 64.66 614.65 73.06 625.41 C 80.74 635.18 87.75 645.88 94.09 657.52 C 74.25 645.33 58.75 631.24 47.57 615.26 C 48.78 605.75 43.09 596.02 30.51 586.09 C 10.21 550.11 -4.59 502.65 23.60 466.08 C 22.62 464.68 23.71 462.85 26.88 460.59 Z" fill="#cec3b9" fill-rule="nonzero" node-id="202" stroke="none" target-height="196.92502" target-width="98.683136" target-x="-4.59144" target-y="460.592"></path><path d="M 159.59 462.11 C 162.04 503.88 190.37 521.13 230.38 524.96 C 229.82 531.92 235.60 535.27 247.73 535.01 C 248.55 534.99 249.38 535.14 250.14 535.45 C 250.91 535.75 251.60 536.22 252.18 536.81 C 252.76 537.39 253.21 538.10 253.51 538.87 C 253.80 539.63 253.94 540.46 253.91 541.28 C 252.24 583.54 231.35 604.72 192.82 616.09 C 167.87 623.45 147.28 625.90 121.35 618.69 C 121.25 618.65 121.14 618.64 121.04 618.67 C 120.94 618.70 120.84 618.75 120.78 618.84 C 120.71 618.92 120.67 619.02 120.67 619.13 C 120.67 619.24 120.70 619.34 120.76 619.43 L 121.45 620.75 C 121.47 620.77 121.48 620.80 121.49 620.83 C 121.49 620.86 121.48 620.89 121.46 620.92 C 121.44 620.95 121.40 620.97 121.37 620.98 C 121.33 620.99 121.29 621.00 121.25 620.99 C 116.94 619.85 113.14 617.73 109.88 614.62 C 108.57 613.38 107.03 612.58 105.27 612.22 C 76.44 606.19 58.40 588.35 51.29 559.27 C 47.42 543.24 43.99 518.83 53.60 505.01 C 60.31 495.35 73.01 494.51 81.05 482.90 C 81.97 481.56 81.77 480.41 80.46 479.46 L 78.40 477.94 C 76.97 476.96 75.97 475.46 75.60 473.76 C 75.23 472.06 75.52 470.28 76.41 468.79 C 77.30 467.29 78.72 466.19 80.40 465.70 C 82.07 465.22 83.86 465.39 85.41 466.18 C 95.06 470.69 105.50 470.43 116.74 465.40 C 125.30 461.51 139.59 460.41 159.59 462.11 Z M 112.38 579.91 C 150.07 603.05 205.47 598.30 228.37 556.73 C 228.99 555.61 229.31 554.42 229.35 553.15 L 229.84 535.74 C 229.83 535.39 229.71 535.05 229.49 534.76 C 227.56 532.44 226.14 532.28 225.23 534.27 C 224.48 535.91 223.69 535.92 222.88 534.32 C 218.31 525.20 211.45 527.70 204.44 525.20 C 195.88 522.16 187.53 518.54 179.39 514.32 C 166.99 507.90 161.60 494.91 151.99 484.51 C 150.75 483.18 149.31 482.93 147.67 483.78 C 139.01 488.39 133.93 495.59 132.43 505.40 C 132.17 507.20 131.10 508.05 129.24 507.95 C 118.85 507.33 108.73 508.76 98.90 512.26 C 97.51 512.76 96.26 513.55 95.22 514.59 C 94.18 515.63 93.38 516.88 92.88 518.27 C 92.39 519.65 92.20 521.12 92.34 522.59 C 92.48 524.05 92.95 525.46 93.70 526.72 C 103.50 543.24 75.27 559.91 95.17 570.35 C 102.29 574.08 108.03 577.27 112.38 579.91 Z" fill="#fcecdc" fill-rule="nonzero" node-id="204" stroke="none" target-height="165.48499" target-width="209.9502" target-x="43.9898" target-y="460.412"></path><path d="M 463.73 463.97 C 475.49 463.88 488.01 466.10 501.28 470.64 C 542.16 484.61 502.40 528.88 482.94 538.73 C 468.82 545.92 453.90 547.20 438.18 542.56 C 412.40 534.98 396.82 516.23 391.46 486.33 C 407.81 468.32 431.89 460.87 463.73 463.97 Z M 505.25 488.24 C 505.18 488.73 505.12 489.29 505.05 489.91 C 504.98 490.40 505.07 490.90 505.31 491.34 C 505.54 491.77 505.90 492.13 506.35 492.35 C 506.80 492.56 507.30 492.63 507.79 492.55 C 508.28 492.46 508.73 492.22 509.07 491.87 C 512.40 488.37 513.38 485.30 512.01 482.65 C 511.29 481.28 509.63 480.07 507.01 479.02 C 472.94 465.59 430.88 462.60 399.01 484.47 C 398.44 484.88 398.02 485.48 397.83 486.16 C 397.64 486.84 397.68 487.56 397.96 488.22 C 398.23 488.87 398.71 489.41 399.33 489.75 C 399.95 490.10 400.67 490.22 401.37 490.10 C 416.30 487.33 430.99 488.00 445.44 492.11 C 446.26 492.34 446.84 492.05 447.20 491.23 C 447.33 490.87 447.46 490.48 447.60 490.05 C 447.99 488.58 448.92 487.69 450.39 487.36 C 468.33 483.37 486.39 483.36 504.56 487.31 C 505.05 487.41 505.28 487.72 505.25 488.24 Z" fill="#d57784" fill-rule="nonzero" node-id="206" stroke="none" target-height="86.32999" target-width="150.69601" target-x="391.465" target-y="460.869"></path><path d="M 828.80 543.93 L 829.09 549.42 C 829.19 550.89 828.50 551.56 827.03 551.43 L 817.13 550.65 C 816.61 550.60 816.11 550.46 815.65 550.22 C 815.20 549.97 814.79 549.64 814.47 549.24 C 814.14 548.83 813.90 548.37 813.76 547.87 C 813.62 547.37 813.58 546.85 813.65 546.33 C 815.94 529.99 811.97 524.81 801.74 530.79 C 801.88 469.81 867.77 448.09 912.77 481.08 C 912.98 481.24 913.12 481.47 913.16 481.73 C 913.20 481.98 913.15 482.25 913.01 482.46 C 912.86 482.68 912.64 482.84 912.39 482.90 C 912.14 482.96 911.87 482.92 911.65 482.80 L 905.47 479.17 C 904.96 478.88 904.37 478.73 903.75 478.73 C 865.08 479.07 838.26 508.68 828.80 543.93 Z" fill="#fefefe" fill-rule="nonzero" node-id="208" stroke="none" target-height="103.47098" target-width="111.466" target-x="801.738" target-y="448.09"></path><path d="M 504.56 487.31 C 486.39 483.36 468.33 483.37 450.39 487.36 C 448.92 487.69 447.99 488.58 447.60 490.06 C 447.46 490.48 447.33 490.87 447.20 491.23 C 446.84 492.05 446.26 492.34 445.44 492.11 C 430.99 488.00 416.30 487.33 401.37 490.10 C 400.67 490.22 399.95 490.10 399.33 489.75 C 398.71 489.41 398.23 488.87 397.96 488.22 C 397.68 487.56 397.64 486.84 397.83 486.16 C 398.02 485.48 398.44 484.88 399.01 484.47 C 430.88 462.60 472.94 465.59 507.01 479.02 C 509.63 480.07 511.29 481.28 512.01 482.65 C 513.38 485.30 512.40 488.37 509.07 491.87 C 508.73 492.23 508.28 492.46 507.79 492.55 C 507.30 492.63 506.80 492.56 506.35 492.35 C 505.90 492.13 505.54 491.77 505.31 491.34 C 505.07 490.90 504.98 490.40 505.05 489.91 C 505.12 489.29 505.18 488.73 505.25 488.24 C 505.28 487.72 505.05 487.41 504.56 487.31 Z" fill="#fba2b7" fill-rule="nonzero" node-id="210" stroke="none" target-height="30.031006" target-width="115.74402" target-x="397.641" target-y="462.602"></path><path d="M 228.37 556.73 C 205.47 598.30 150.08 603.05 112.38 579.91 C 108.03 577.27 102.30 574.08 95.17 570.35 C 75.27 559.91 103.50 543.24 93.70 526.72 C 92.95 525.46 92.48 524.05 92.34 522.59 C 92.20 521.12 92.39 519.65 92.88 518.27 C 93.38 516.88 94.18 515.63 95.22 514.59 C 96.26 513.55 97.51 512.76 98.90 512.26 C 108.73 508.76 118.85 507.33 129.24 507.95 C 131.10 508.05 132.17 507.20 132.43 505.40 C 133.93 495.59 139.01 488.39 147.67 483.78 C 149.31 482.93 150.75 483.18 151.99 484.51 C 161.60 494.91 166.99 507.90 179.39 514.32 C 187.53 518.54 195.88 522.16 204.44 525.20 C 211.45 527.70 218.32 525.20 222.88 534.32 C 223.69 535.92 224.48 535.91 225.23 534.27 C 226.14 532.28 227.56 532.44 229.49 534.76 C 229.71 535.05 229.84 535.39 229.84 535.74 L 229.35 553.15 C 229.31 554.42 228.99 555.61 228.37 556.73 Z" fill="#fcd9c8" fill-rule="nonzero" node-id="212" stroke="none" target-height="120.12201" target-width="154.5693" target-x="75.2667" target-y="482.93"></path><path d="M 921.45 600.55 L 870.71 565.99 C 869.52 565.18 868.53 564.11 867.82 562.85 C 863.31 555.11 856.81 549.73 848.31 546.72 C 846.90 546.20 845.51 546.27 844.14 546.92 C 838.33 549.73 833.86 548.46 830.76 543.10 C 842.48 514.96 871.30 482.11 904.34 486.92 C 929.93 490.59 945.72 520.89 958.71 540.94 C 959.59 542.31 959.80 543.77 959.35 545.30 C 952.84 567.13 940.21 585.55 921.45 600.55 Z" fill="#fefefe" fill-rule="nonzero" node-id="214" stroke="none" target-height="118.439026" target-width="129.04504" target-x="830.759" target-y="482.112"></path><path d="M 21.68 488.14 C 26.49 500.30 26.13 513.13 20.61 526.62 C 14.04 512.41 14.40 499.58 21.68 488.14 Z" fill="#fbf1e1" fill-rule="nonzero" node-id="216" stroke="none" target-height="38.483" target-width="12.4519005" target-x="14.0369" target-y="488.142"></path><path d="M 761.34 513.29 C 761.02 512.48 761.95 511.95 764.14 511.72 C 768.58 510.71 773.50 511.26 778.89 513.39 C 780.20 513.91 780.82 514.88 780.76 516.28 C 779.55 544.42 784.87 571.20 796.74 596.63 C 797.52 598.30 797.00 599.16 795.17 599.23 C 757.42 600.55 702.27 580.31 709.62 533.44 C 709.85 531.87 710.59 530.60 711.83 529.62 C 713.50 528.28 714.12 526.45 713.69 524.13 C 713.37 522.36 713.95 520.97 715.46 519.96 L 742.17 502.06 C 743.55 501.15 744.95 501.08 746.39 501.87 C 749.66 503.67 751.49 506.74 751.88 511.09 C 751.95 511.94 752.31 512.74 752.91 513.35 C 753.51 513.96 754.31 514.34 755.17 514.42 C 758.34 514.75 760.39 514.37 761.34 513.29 Z" fill="#fcd9c8" fill-rule="nonzero" node-id="218" stroke="none" target-height="99.46701" target-width="95.25098" target-x="702.27" target-y="501.085"></path><path d="M 828.80 543.93 C 830.11 543.08 830.76 542.80 830.76 543.10 C 833.86 548.46 838.33 549.73 844.14 546.92 C 845.51 546.27 846.90 546.20 848.31 546.73 C 856.81 549.73 863.31 555.11 867.82 562.85 C 868.53 564.11 869.52 565.19 870.71 565.99 L 921.45 600.55 L 920.47 603.54 C 920.18 604.46 920.39 604.61 921.11 603.98 C 930.59 596.04 940.06 588.05 949.54 580.01 C 955.42 574.98 960.18 566.42 963.81 554.32 C 964.43 552.23 965.25 552.15 966.26 554.08 C 1027.10 672.62 977.88 779.63 876.25 851.06 C 906.71 818.77 920.57 783.91 917.82 746.49 C 917.56 742.83 914.33 736.12 908.12 726.35 C 907.17 724.81 906.79 723.16 906.99 721.39 L 908.56 706.34 C 908.61 705.98 908.55 705.60 908.38 705.27 C 908.22 704.94 907.95 704.67 907.62 704.50 C 907.30 704.32 906.93 704.25 906.56 704.29 C 906.19 704.33 905.85 704.48 905.57 704.73 L 895.27 713.21 C 893.51 714.68 892.02 714.43 890.81 712.47 L 871.94 681.69 C 863.51 655.05 849.44 635.74 829.73 623.74 C 810.81 597.37 801.48 566.38 801.74 530.79 C 811.97 524.81 815.94 529.99 813.65 546.33 C 813.58 546.85 813.62 547.37 813.76 547.87 C 813.90 548.37 814.14 548.83 814.47 549.24 C 814.79 549.64 815.20 549.97 815.65 550.22 C 816.11 550.46 816.61 550.61 817.13 550.65 L 827.03 551.43 C 828.50 551.56 829.19 550.89 829.09 549.42 L 828.80 543.93 Z" fill="#fdfaee" fill-rule="nonzero" node-id="220" stroke="none" target-height="326.248" target-width="225.62396" target-x="801.476" target-y="524.812"></path><path d="M 474.41 590.01 C 466.83 582.69 460.73 573.10 456.13 561.24 C 455.94 560.76 455.61 560.35 455.18 560.06 C 454.75 559.77 454.25 559.62 453.73 559.63 C 453.22 559.63 452.72 559.80 452.30 560.09 C 451.87 560.39 451.55 560.80 451.37 561.28 L 443.72 581.78 C 443.21 583.19 442.35 584.46 441.22 585.45 C 436.84 589.31 434.65 594.39 434.65 600.70 L 404.75 618.35 C 404.48 618.52 404.16 618.57 403.85 618.50 C 403.54 618.43 403.28 618.25 403.11 617.98 C 402.94 617.71 402.88 617.39 402.95 617.08 C 403.02 616.77 403.21 616.51 403.48 616.34 C 426.78 601.17 441.73 579.78 448.33 552.17 C 448.58 551.12 449.14 550.18 449.96 549.47 C 450.77 548.77 451.79 548.34 452.86 548.25 C 453.93 548.15 455.00 548.40 455.92 548.96 C 456.85 549.51 457.57 550.34 457.99 551.33 L 474.41 590.01 Z" fill="#2e1e1b" fill-rule="nonzero" node-id="222" stroke="none" target-height="70.41803" target-width="71.52902" target-x="402.882" target-y="548.154"></path><path d="M 474.41 590.01 L 504.95 621.09 C 506.36 622.53 506.05 623.15 504.02 622.96 C 488.63 621.43 469.12 600.21 457.35 589.91 C 456.01 588.77 454.59 588.65 453.09 589.57 L 434.65 600.70 C 434.65 594.39 436.84 589.31 441.22 585.45 C 442.35 584.46 443.21 583.19 443.72 581.78 L 451.37 561.28 C 451.55 560.80 451.87 560.39 452.30 560.09 C 452.72 559.80 453.22 559.63 453.73 559.63 C 454.25 559.62 454.75 559.77 455.18 560.06 C 455.61 560.35 455.94 560.76 456.13 561.24 C 460.73 573.10 466.83 582.69 474.41 590.01 Z" fill="#4e423d" fill-rule="nonzero" node-id="224" stroke="none" target-height="63.526978" target-width="71.70401" target-x="434.654" target-y="559.624"></path><path d="M 30.51 586.09 C 43.09 596.02 48.78 605.75 47.57 615.26 C 37.99 605.98 32.31 596.25 30.51 586.09 Z" fill="#bda194" fill-rule="nonzero" node-id="226" stroke="none" target-height="29.167969" target-width="18.2692" target-x="30.5089" target-y="586.09"></path><path d="M 43.30 628.64 L 55.41 647.57 C 51.52 653.97 53.78 661.13 62.18 669.04 C 62.60 669.46 63.12 669.77 63.70 669.97 C 68.70 671.67 73.22 674.69 77.28 679.04 L 120.61 724.19 L 172.97 761.45 C 173.19 761.61 173.35 761.83 173.43 762.09 C 173.52 762.35 173.51 762.63 173.43 762.89 C 173.34 763.14 173.17 763.37 172.95 763.52 C 172.72 763.68 172.46 763.76 172.19 763.75 C 169.70 763.68 167.76 762.36 166.35 759.78 C 130.40 746.25 98.63 727.98 71.05 704.97 L 30.66 631.58 C 30.32 630.96 30.15 630.27 30.16 629.56 C 30.17 628.86 30.36 628.16 30.71 627.55 C 31.07 626.94 31.57 626.43 32.18 626.08 C 32.79 625.72 33.48 625.52 34.19 625.50 C 36.96 625.47 40.00 626.52 43.30 628.64 Z" fill="#412d27" fill-rule="nonzero" node-id="228" stroke="none" target-height="138.284" target-width="143.3677" target-x="30.1483" target-y="625.472"></path><path d="M 871.94 681.68 C 865.42 692.42 866.64 704.82 862.87 715.02 C 858.00 728.22 852.51 741.18 846.40 753.90 C 844.47 757.92 842.51 759.71 840.51 759.29 C 839.55 759.08 838.55 759.08 837.59 759.29 C 836.63 759.49 835.72 759.89 834.92 760.47 C 834.12 761.05 833.45 761.79 832.95 762.64 C 832.46 763.49 832.14 764.44 832.03 765.42 C 828.11 801.79 824.53 859.69 790.17 879.10 C 788.76 879.92 788.00 881.13 787.86 882.73 C 787.24 889.33 788.00 894.75 790.12 899.00 L 749.04 913.91 C 747.31 914.53 746.95 914.07 747.96 912.53 C 775.93 869.62 790.66 822.35 792.13 770.71 C 792.20 769.01 792.80 767.56 793.94 766.35 C 821.84 737.03 863.65 698.06 841.79 652.91 C 837.48 644.02 833.46 634.30 829.73 623.74 C 849.44 635.73 863.51 655.05 871.94 681.68 Z" fill="#bdb3b0" fill-rule="nonzero" node-id="230" stroke="none" target-height="290.78802" target-width="124.992004" target-x="746.947" target-y="623.74"></path><path d="M 43.30 628.64 L 47.18 628.15 C 57.72 645.80 87.57 661.39 101.79 669.72 C 96.66 675.31 95.79 682.06 99.19 689.97 C 99.83 691.41 100.87 692.65 102.18 693.55 C 113.06 701.00 119.21 711.21 120.61 724.19 L 77.28 679.04 L 55.41 647.57 L 43.30 628.64 Z" fill="#cec3b9" fill-rule="nonzero" node-id="232" stroke="none" target-height="96.03601" target-width="77.309204" target-x="43.3038" target-y="628.152"></path><path d="M 55.41 647.56 L 77.28 679.04 C 73.22 674.69 68.70 671.67 63.70 669.97 C 63.12 669.77 62.60 669.46 62.18 669.04 C 53.78 661.13 51.52 653.97 55.41 647.56 Z" fill="#715337" fill-rule="nonzero" node-id="234" stroke="none" target-height="31.472961" target-width="25.753403" target-x="51.5233" target-y="647.564"></path><path d="M 831.84 655.56 C 866.01 708.84 757.91 790.96 720.21 819.00 C 719.88 819.23 719.98 819.60 720.51 820.13 C 720.83 820.45 721.18 820.49 721.54 820.22 L 781.54 775.91 C 783.08 774.80 783.62 775.15 783.16 776.99 C 778.58 795.71 773.76 814.29 768.70 832.73 C 753.79 886.94 708.54 965.92 643.59 967.24 C 641.63 967.28 641.30 966.56 642.61 965.09 C 648.39 958.71 656.83 949.01 650.70 940.18 C 649.59 938.61 648.97 938.79 648.84 940.72 C 647.36 964.79 621.09 967.00 602.12 967.39 C 597.84 967.49 597.72 966.82 601.77 965.38 C 614.85 960.71 621.82 950.51 622.71 934.79 C 622.74 933.84 622.20 933.12 621.09 932.63 C 619.85 932.08 619.13 932.47 618.93 933.81 C 615.79 956.02 597.26 967.59 576.92 954.55 C 575.64 953.73 574.81 952.60 574.42 951.16 C 571.77 942.14 572.05 933.32 575.25 924.69 C 575.81 923.12 575.25 922.40 573.59 922.53 C 572.47 922.63 571.49 922.94 570.64 923.47 C 560.74 929.15 566.77 948.76 572.70 955.28 C 572.89 955.47 573.01 955.72 573.02 955.99 C 573.03 956.25 572.94 956.51 572.76 956.72 C 572.59 956.92 572.34 957.06 572.07 957.10 C 571.79 957.15 571.51 957.09 571.28 956.95 C 554.07 945.87 543.14 932.78 545.15 911.01 C 547.70 883.10 562.10 865.80 588.34 859.10 C 599.68 856.22 599.53 855.46 587.90 856.79 C 573.49 858.46 561.26 865.41 551.23 877.63 C 551.02 877.88 550.73 878.03 550.41 878.08 C 550.10 878.13 549.77 878.06 549.50 877.89 C 549.23 877.71 549.04 877.45 548.95 877.14 C 548.86 876.83 548.89 876.50 549.02 876.21 C 557.13 859.57 568.80 846.16 584.03 835.96 C 584.58 835.60 584.88 835.16 584.91 834.64 C 584.94 833.52 584.48 833.25 583.54 833.80 C 548.44 853.46 540.64 874.10 536.03 912.78 C 535.96 913.36 535.69 913.88 535.27 914.27 C 534.84 914.66 534.30 914.88 533.73 914.89 L 426.27 916.11 C 424.98 916.12 423.71 915.72 422.65 914.97 C 421.60 914.21 420.80 913.13 420.39 911.90 C 410.24 880.52 374.99 868.56 342.59 853.66 C 364.88 841.73 390.17 835.83 418.48 835.96 C 485.49 836.25 560.35 830.32 622.75 811.94 C 700.95 788.90 789.78 745.56 824.73 667.22 C 825.68 665.07 825.38 662.75 823.85 660.26 C 822.87 658.69 823.31 657.92 825.17 657.96 C 828.11 658.06 830.33 657.25 831.84 655.56 Z M 540.49 869.54 L 541.82 868.27 C 542.00 868.09 542.11 867.86 542.14 867.61 C 542.16 867.36 542.10 867.10 541.96 866.89 C 541.82 866.68 541.62 866.53 541.37 866.46 C 541.13 866.39 540.87 866.40 540.64 866.50 C 514.46 877.43 467.79 874.35 439.21 873.37 C 439.04 873.36 438.86 873.39 438.69 873.46 C 438.52 873.52 438.37 873.62 438.25 873.75 C 438.12 873.88 438.02 874.03 437.95 874.20 C 437.88 874.37 437.84 874.55 437.84 874.74 C 437.84 875.20 437.84 875.67 437.84 876.16 C 437.87 877.73 438.69 878.51 440.29 878.51 C 471.83 878.61 503.27 877.22 534.61 874.35 C 537.03 874.12 538.70 872.97 539.61 870.91 C 539.84 870.39 540.13 869.93 540.49 869.54 Z" fill="#cec3b9" fill-rule="nonzero" node-id="236" stroke="none" target-height="312.03094" target-width="523.417" target-x="342.589" target-y="655.556"></path><path d="M 871.94 681.68 L 890.81 712.47 C 892.02 714.43 893.51 714.68 895.27 713.21 L 905.57 704.73 C 905.85 704.48 906.19 704.33 906.56 704.29 C 906.93 704.25 907.30 704.32 907.63 704.50 C 907.95 704.67 908.22 704.94 908.38 705.27 C 908.55 705.60 908.61 705.98 908.56 706.34 L 906.99 721.39 C 906.79 723.16 907.17 724.81 908.12 726.34 C 914.33 736.12 917.56 742.83 917.82 746.49 C 920.57 783.91 906.71 818.77 876.25 851.06 C 854.23 871.06 825.51 887.04 790.12 899.00 C 788.00 894.75 787.24 889.33 787.86 882.73 C 788.00 881.13 788.76 879.92 790.17 879.10 C 824.53 859.69 828.11 801.79 832.03 765.42 C 832.14 764.44 832.46 763.49 832.95 762.64 C 833.45 761.79 834.12 761.05 834.92 760.47 C 835.72 759.89 836.63 759.49 837.59 759.29 C 838.55 759.08 839.55 759.08 840.51 759.29 C 842.51 759.71 844.47 757.91 846.40 753.89 C 852.51 741.18 858.00 728.22 862.87 715.02 C 866.64 704.82 865.42 692.42 871.94 681.68 Z" fill="#cec3b9" fill-rule="nonzero" node-id="238" stroke="none" target-height="217.31897" target-width="133.32599" target-x="787.243" target-y="681.684"></path><path d="M 71.05 704.97 C 98.63 727.98 130.40 746.25 166.35 759.78 C 163.15 760.76 161.51 761.31 161.45 761.45 C 160.79 762.39 160.42 763.52 160.38 764.68 C 160.35 765.84 160.66 766.98 161.26 767.96 C 161.87 768.93 162.75 769.69 163.78 770.15 C 164.82 770.61 165.97 770.73 167.09 770.51 C 170.45 769.79 173.10 771.13 175.03 774.53 C 175.68 775.71 175.63 776.84 174.88 777.92 C 174.23 778.86 174.11 779.94 174.54 781.15 C 174.83 782.07 175.42 782.72 176.30 783.11 C 195.88 791.81 214.47 802.95 232.09 816.55 C 166.35 802.09 112.33 752.28 66.49 708.30 C 68.32 708.17 69.84 707.06 71.05 704.97 Z" fill="#cec3b9" fill-rule="nonzero" node-id="240" stroke="none" target-height="111.57605" target-width="165.5995" target-x="66.4915" target-y="704.97"></path><path d="M 380.88 880.23 C 367.57 878.92 352.56 874.75 335.82 867.73 C 330.69 865.60 327.51 866.65 326.26 870.87 L 293.71 863.56 C 293.33 863.48 292.93 863.47 292.54 863.56 C 292.15 863.64 291.79 863.81 291.47 864.04 C 291.15 864.28 290.89 864.59 290.70 864.93 C 290.52 865.28 290.40 865.66 290.38 866.06 C 289.79 874.43 285.43 880.11 277.29 883.12 C 276.89 883.27 276.54 883.50 276.25 883.81 C 275.96 884.12 275.74 884.49 275.62 884.89 C 275.49 885.30 275.45 885.73 275.51 886.15 C 275.57 886.57 275.73 886.98 275.97 887.34 L 303.12 927.19 L 311.21 950.18 C 311.87 952.01 311.23 953.01 309.30 953.17 C 274.69 955.72 220.57 860.72 209.74 832.92 C 209.10 831.29 208.00 829.89 206.60 828.90 L 194.74 820.17 C 194.18 819.78 193.92 819.24 193.95 818.56 C 193.95 818.10 193.95 817.64 193.95 817.18 C 193.95 816.76 194.11 816.66 194.44 816.89 C 205.52 824.77 219.36 830.83 235.96 835.08 C 296.80 850.67 345.58 857.77 380.88 880.23 Z" fill="#fbf1e1" fill-rule="nonzero" node-id="242" stroke="none" target-height="139.06104" target-width="186.957" target-x="193.918" target-y="816.662"></path><path d="M 196.99 846.30 C 230.87 910.33 281.51 979.65 361.17 962.59 C 384.26 957.63 400.19 954.35 415.83 939.45 C 416.73 938.58 417.36 937.48 417.64 936.26 L 419.90 926.70 C 420.36 924.81 421.56 923.86 423.53 923.86 L 533.63 923.37 C 534.40 923.37 535.16 923.61 535.79 924.04 C 536.42 924.48 536.90 925.10 537.16 925.82 C 553.73 972.29 601.77 977.59 645.89 979.11 C 654.77 987.49 668.69 981.75 673.00 989.75 C 673.75 991.12 674.67 992.36 675.75 993.47 L 691.73 1010.09 C 544.60 1019.01 397.92 1016.41 251.70 1002.29 C 214.49 998.67 -0.87 972.59 4.43 919.00 C 8.69 875.87 162.58 850.23 196.99 846.30 Z" fill="#bdb3b0" fill-rule="nonzero" node-id="244" stroke="none" target-height="172.706" target-width="692.5959" target-x="-0.865918" target-y="846.304"></path><path d="M 326.26 870.87 C 357.87 876.13 385.01 889.79 407.69 911.85 C 409.06 913.19 409.29 914.71 408.38 916.41 C 407.00 918.96 404.78 920.49 401.71 921.01 C 399.49 921.44 399.14 922.47 400.68 924.10 C 401.50 924.95 402.43 925.26 403.48 925.03 C 403.81 924.97 404.15 924.99 404.48 925.09 C 404.80 925.19 405.10 925.37 405.33 925.62 C 405.57 925.86 405.75 926.16 405.84 926.48 C 405.94 926.81 405.95 927.15 405.88 927.49 C 405.71 928.30 405.31 929.17 404.65 930.08 C 399.03 930.87 396.78 934.94 397.89 942.29 C 393.61 946.47 387.41 948.96 379.31 949.74 C 376.02 939.01 377.88 928.12 364.70 922.39 C 357.67 916.14 349.08 912.35 338.91 911.01 C 337.44 910.85 336.79 911.50 336.95 912.98 C 337.54 918.56 339.21 923.38 341.95 927.44 L 349.06 953.22 C 349.49 954.79 348.93 955.82 347.39 956.31 C 342.65 957.88 338.01 958.24 333.47 957.39 C 335.53 953.43 335.46 950.20 333.27 947.68 C 332.10 946.34 331.36 946.54 331.07 948.27 C 330.45 951.77 328.80 953.58 326.12 953.71 L 303.12 927.19 L 275.97 887.34 C 275.73 886.98 275.57 886.57 275.51 886.15 C 275.45 885.73 275.49 885.30 275.62 884.89 C 275.74 884.49 275.96 884.12 276.25 883.81 C 276.54 883.50 276.89 883.27 277.29 883.12 C 285.43 880.11 289.79 874.43 290.38 866.06 C 290.40 865.66 290.52 865.28 290.70 864.93 C 290.89 864.59 291.15 864.28 291.47 864.04 C 291.79 863.81 292.15 863.64 292.54 863.56 C 292.93 863.47 293.33 863.48 293.71 863.56 L 326.26 870.87 Z" fill="#fdfbf5" fill-rule="nonzero" node-id="246" stroke="none" target-height="94.76697" target-width="133.84" target-x="275.453" target-y="863.473"></path><path d="M 539.61 870.91 C 538.70 872.97 537.03 874.12 534.61 874.35 C 503.27 877.22 471.83 878.61 440.29 878.51 C 438.69 878.51 437.87 877.73 437.84 876.16 C 437.84 875.67 437.84 875.20 437.84 874.74 C 437.84 874.55 437.88 874.37 437.95 874.20 C 438.02 874.03 438.12 873.88 438.25 873.75 C 438.37 873.62 438.53 873.52 438.69 873.46 C 438.86 873.39 439.04 873.36 439.21 873.37 C 467.79 874.35 514.46 877.43 540.64 866.50 C 540.87 866.40 541.13 866.39 541.37 866.46 C 541.62 866.53 541.82 866.68 541.96 866.89 C 542.10 867.10 542.17 867.36 542.14 867.61 C 542.11 867.86 542.00 868.09 541.82 868.27 L 540.49 869.54 C 540.13 869.93 539.84 870.39 539.61 870.91 Z" fill="#bda194" fill-rule="nonzero" node-id="248" stroke="none" target-height="12.222961" target-width="104.32602" target-x="437.84" target-y="866.387"></path><path d="M 380.88 880.23 C 401.91 889.20 416.61 904.20 409.46 928.81 C 408.08 929.73 406.48 930.15 404.65 930.09 C 405.31 929.17 405.71 928.30 405.88 927.49 C 405.95 927.15 405.94 926.81 405.84 926.48 C 405.75 926.16 405.57 925.86 405.33 925.62 C 405.10 925.37 404.80 925.19 404.48 925.09 C 404.15 924.99 403.81 924.97 403.48 925.03 C 402.43 925.26 401.50 924.95 400.68 924.10 C 399.14 922.47 399.49 921.44 401.71 921.01 C 404.78 920.49 407.00 918.96 408.38 916.41 C 409.29 914.71 409.06 913.19 407.69 911.85 C 385.01 889.79 357.87 876.13 326.26 870.87 C 327.51 866.65 330.69 865.60 335.82 867.73 C 352.56 874.75 367.57 878.92 380.88 880.23 Z" fill="#bdb3b0" fill-rule="nonzero" node-id="250" stroke="none" target-height="64.547" target-width="90.349" target-x="326.264" target-y="865.603"></path><path d="M 691.73 1010.09 L 675.75 993.47 C 674.67 992.36 673.75 991.12 673.00 989.75 C 668.69 981.75 654.77 987.49 645.89 979.11 C 684.67 979.11 714.23 956.51 736.98 927.44 C 737.99 926.13 739.32 925.33 740.95 925.03 C 791.18 916.34 837.46 897.81 879.78 869.44 C 918.22 871.14 955.11 879.79 990.48 895.38 C 1064.89 928.12 997.14 961.07 962.43 971.95 C 876.15 999.06 780.66 1008.37 691.73 1010.09 Z" fill="#d9c6b9" fill-rule="nonzero" node-id="252" stroke="none" target-height="140.64801" target-width="418.997" target-x="645.893" target-y="869.442"></path><path d="M 364.70 922.39 C 369.70 932.53 367.49 946.36 378.28 950.62 L 359.26 953.47 C 357.56 953.73 356.48 953.03 356.02 951.36 C 353.70 942.21 349.01 934.24 341.95 927.44 C 339.21 923.38 337.54 918.56 336.95 912.98 C 336.79 911.50 337.44 910.85 338.91 911.01 C 349.08 912.35 357.67 916.14 364.70 922.39 Z" fill="#fbf1e1" fill-rule="nonzero" node-id="254" stroke="none" target-height="42.87799" target-width="41.49002" target-x="336.788" target-y="910.851"></path><path d="M 364.70 922.39 C 377.88 928.12 376.02 939.01 379.31 949.74 C 381.40 950.07 381.06 950.36 378.28 950.62 C 367.49 946.36 369.70 932.53 364.70 922.39 Z" fill="#715337" fill-rule="nonzero" node-id="256" stroke="none" target-height="28.237" target-width="16.700012" target-x="364.698" target-y="922.387"></path><path d="M 409.46 928.81 C 409.78 934.14 405.93 938.63 397.89 942.29 C 396.78 934.94 399.03 930.87 404.65 930.08 C 406.48 930.15 408.08 929.73 409.46 928.81 Z" fill="#aaa1a1" fill-rule="nonzero" node-id="258" stroke="none" target-height="13.481018" target-width="13.006989" target-x="396.776" target-y="928.81"></path><path d="M 333.47 957.39 C 330.46 956.83 328.01 955.61 326.12 953.71 C 328.80 953.58 330.45 951.77 331.07 948.27 C 331.36 946.54 332.10 946.34 333.27 947.68 C 335.46 950.20 335.53 953.43 333.47 957.39 Z" fill="#b4aaa6" fill-rule="nonzero" node-id="260" stroke="none" target-height="11.046997" target-width="9.411987" target-x="326.117" target-y="946.343"></path></g></svg>