<?xml version="1.0" standalone="no"?><!DOCTYPE svg PUBLIC "-//W3C//DTD SVG 1.1//EN" "http://www.w3.org/Graphics/SVG/1.1/DTD/svg11.dtd"><svg height="1024" node-id="1" sillyvg="true" template-height="1024" template-width="1024" version="1.1" viewBox="0 0 1024 1024" width="1024" xmlns="http://www.w3.org/2000/svg" xmlns:xlink="http://www.w3.org/1999/xlink"><defs node-id="60"><clipPath id="clip0_2_4801" node-id="57"><path d="M 0.00 0.00 L 1024.00 0.00 L 1024.00 1024.00 L 0.00 1024.00 Z" fill="#000000" fill-rule="nonzero" node-id="63" stroke="none" target-height="1024" target-width="1024" target-x="0" target-y="0"></path></clipPath></defs><g clip-path="url(#clip0_2_4801)" id="sillyvg_g_0" node-id="67"><path d="M 0.00 0.00 L 1024.00 0.00 L 1024.00 1024.00 L 0.00 1024.00 Z" fill="#ffffff" fill-rule="nonzero" node-id="69" stroke="none" target-height="1024" target-width="1024" target-x="0" target-y="0"></path><path d="M 0.00 0.00 L 1024.00 0.00 L 1024.00 1024.00 L 0.00 1024.00 Z" fill="#ffffff" fill-rule="nonzero" node-id="71" stroke="none" target-height="1024" target-width="1024" target-x="0" target-y="0"></path><path d="M 769.33 896.67 C 760.24 922.71 749.37 956.35 723.75 969.13 C 695.99 980.28 630.44 994.46 607.96 967.31 C 606.99 966.16 605.76 965.74 604.27 966.05 L 573.38 973.10 C 523.90 980.59 474.44 980.95 425.02 974.17 C 423.40 973.95 422.00 974.40 420.82 975.52 C 393.57 1002.02 329.47 988.26 295.13 975.71 C 276.81 968.99 261.90 955.09 250.39 934.00 C 250.04 933.36 249.52 932.82 248.89 932.45 C 248.26 932.07 247.54 931.87 246.80 931.85 C 184.81 931.01 129.24 913.77 80.10 880.11 C -25.62 794.64 -25.67 639.70 73.90 551.24 C 85.51 540.93 91.30 528.33 99.28 515.64 C 99.55 515.21 99.67 514.69 99.62 514.18 C 99.56 513.66 99.34 513.18 98.97 512.82 C 98.61 512.45 98.13 512.21 97.62 512.15 C 97.11 512.09 96.59 512.20 96.15 512.47 C 87.24 517.98 81.03 513.45 79.35 503.89 C 71.28 458.26 96.71 386.64 116.77 342.46 C 117.41 341.07 117.54 339.51 117.14 338.03 C 102.34 281.89 99.42 225.17 108.37 167.88 C 116.72 114.55 136.27 103.31 188.67 109.65 C 222.79 113.76 256.44 120.23 289.63 129.06 C 291.15 129.47 292.61 129.29 294.01 128.55 C 323.83 112.97 355.23 95.80 385.36 85.21 C 475.81 53.48 568.90 46.48 664.64 64.21 C 666.60 64.58 669.40 66.12 670.94 67.34 C 671.47 67.75 672.11 67.98 672.78 68.00 C 673.45 68.03 674.11 67.84 674.67 67.48 C 698.53 51.74 724.30 40.90 751.98 34.96 C 819.25 20.50 814.12 173.94 808.76 209.03 C 808.51 210.65 808.98 212.03 810.16 213.18 C 853.98 254.55 891.73 300.86 923.39 352.12 C 923.79 352.78 924.35 353.33 925.01 353.74 C 925.67 354.14 926.42 354.38 927.19 354.45 C 927.96 354.51 928.74 354.39 929.45 354.10 C 930.17 353.81 930.81 353.36 931.32 352.77 L 944.94 337.24 C 945.10 337.07 945.31 336.96 945.54 336.93 C 945.77 336.90 946.01 336.96 946.20 337.09 C 946.38 337.22 946.51 337.41 946.56 337.63 C 946.60 337.84 946.56 338.07 946.44 338.26 C 935.33 357.34 928.80 373.07 902.39 377.17 C 900.00 377.55 899.95 378.14 902.25 378.94 C 943.56 393.81 984.12 392.96 1023.93 376.38 C 1024.02 376.32 1024.02 376.33 1023.93 376.43 C 995.94 400.22 963.87 407.25 927.73 397.51 C 924.23 396.58 920.40 393.13 916.06 392.66 C 915.84 392.61 915.60 392.65 915.39 392.76 C 915.19 392.88 915.04 393.07 914.97 393.29 C 914.90 393.51 914.92 393.75 915.01 393.97 C 915.11 394.18 915.29 394.35 915.50 394.44 C 942.24 409.88 957.68 412.16 968.04 445.01 C 975.78 469.69 987.12 504.03 976.20 526.89 C 963.93 552.55 940.70 574.10 918.16 590.71 C 916.36 592.02 916.56 592.84 918.77 593.18 L 962.67 599.44 C 970.70 600.56 971.27 603.26 964.40 607.55 C 959.45 610.66 955.28 616.54 951.89 625.19 C 916.58 715.70 875.66 781.48 789.91 832.76 C 788.59 833.53 787.62 834.79 787.20 836.26 L 769.33 896.67 Z M 139.77 119.22 C 124.56 125.75 116.49 155.33 114.44 172.40 C 110.24 201.05 109.34 229.77 111.73 258.58 L 122.65 329.91 C 123.06 332.43 123.82 332.54 124.94 330.24 L 146.35 286.80 C 163.77 259.87 184.53 234.95 208.63 212.06 C 208.91 211.81 209.13 211.50 209.28 211.16 C 209.44 210.82 209.52 210.45 209.53 210.07 C 209.54 209.70 209.47 209.33 209.33 208.98 C 209.20 208.63 208.99 208.31 208.73 208.05 C 190.22 189.35 173.68 168.44 159.09 145.30 C 153.15 140.29 151.37 137.47 153.77 136.85 C 180.33 156.20 202.96 178.80 221.65 204.64 C 222.74 206.17 222.62 207.57 221.28 208.84 C 181.59 246.23 150.44 289.99 127.83 340.13 L 105.67 400.92 C 98.20 422.66 83.79 470.76 89.81 492.60 C 85.79 500.03 85.28 504.93 88.27 507.29 C 90.47 509.04 91.59 508.49 91.62 505.66 L 91.72 493.72 C 116.63 504.63 126.34 477.85 138.00 461.90 L 156.57 440.62 L 104.31 529.50 L 88.59 552.03 C 87.72 553.31 87.39 554.69 87.61 556.19 C 88.61 562.44 90.19 568.49 92.37 574.34 C 121.16 651.27 168.47 699.32 227.72 753.12 C 222.34 762.95 219.15 773.82 218.15 785.73 C 217.97 787.72 218.67 788.11 220.25 786.90 L 225.94 782.46 C 217.95 844.98 233.91 900.21 273.81 948.13 C 279.50 954.95 286.49 960.16 294.76 963.76 C 296.53 964.51 297.22 963.95 296.81 962.09 L 293.78 947.25 C 293.47 945.85 294.01 944.96 295.41 944.59 C 297.37 944.03 298.57 944.92 299.01 947.25 C 303.08 969.24 316.10 979.50 338.06 978.04 C 339.83 977.92 340.78 976.95 340.90 975.15 L 342.49 946.74 C 342.55 945.62 342.92 945.49 343.61 946.36 C 347.75 951.43 350.28 957.23 351.21 963.76 C 353.48 979.57 359.61 986.25 369.60 983.83 C 374.42 983.08 378.69 983.51 382.43 985.13 C 383.76 985.69 385.13 985.82 386.53 985.51 L 400.34 982.29 C 409.39 977.06 414.69 969.47 416.25 959.52 C 421.52 928.91 417.23 900.17 382.66 901.06 C 376.17 901.20 371.04 905.07 364.88 907.31 C 361.93 908.37 361.57 907.83 363.81 905.68 C 380.19 889.96 405.47 897.98 417.37 914.82 C 418.74 916.78 419.38 916.57 419.28 914.17 C 417.56 873.91 408.74 832.29 392.55 795.20 C 391.46 792.74 391.91 792.43 393.90 794.27 C 412.66 812.00 423.53 855.57 426.75 878.29 C 431.23 907.53 431.75 935.91 428.33 963.44 C 428.15 964.77 428.72 965.49 430.06 965.58 C 490.90 970.39 544.32 969.36 599.18 957.65 C 600.68 957.31 601.11 956.46 600.49 955.09 C 588.83 929.61 601.70 897.33 614.63 874.98 C 616.40 872.68 617.92 871.34 619.20 870.97 C 621.07 870.41 621.58 871.01 620.74 872.79 C 613.37 888.15 609.00 903.70 607.63 919.44 C 603.46 951.11 615.15 969.99 642.71 976.08 C 643.48 976.25 644.28 976.12 644.95 975.71 C 645.62 975.30 646.11 974.65 646.30 973.89 C 648.42 965.99 650.12 956.92 651.39 946.69 C 651.64 944.76 652.74 943.30 654.70 942.30 C 656.35 941.50 657.13 942.01 657.04 943.84 L 655.87 971.84 C 655.78 973.58 656.59 974.71 658.29 975.24 C 681.16 982.10 686.89 961.95 688.99 944.92 C 689.04 944.44 689.27 944.00 689.64 943.70 C 690.01 943.39 690.48 943.24 690.95 943.28 L 693.19 943.47 C 695.22 943.62 695.99 944.68 695.53 946.64 L 689.97 969.78 C 689.45 972.02 690.32 972.88 692.59 972.35 C 736.77 961.85 753.14 927.75 762.48 885.99 L 777.87 838.12 C 778.46 836.26 777.89 835.77 776.15 836.68 C 764.81 842.51 742.74 852.26 733.88 860.38 C 733.28 860.91 732.68 860.94 732.06 860.47 C 731.06 859.66 731.09 858.90 732.15 858.18 C 755.17 842.26 778.14 826.26 801.06 810.18 C 874.45 758.67 916.86 696.11 949.14 608.53 C 949.58 607.38 949.19 606.92 947.98 607.13 C 944.93 607.66 942.25 607.45 939.95 606.48 L 895.58 597.94 C 919.38 579.28 940.14 559.76 957.87 539.39 C 967.01 527.04 971.23 513.78 970.51 499.60 C 967.48 440.30 932.16 402.41 878.69 379.60 C 871.35 376.46 865.71 373.55 861.76 370.87 C 858.02 368.32 858.37 367.59 862.78 368.68 C 881.04 373.16 898.77 371.36 915.97 363.27 C 917.37 362.62 917.54 361.71 916.48 360.56 C 912.24 355.94 907.15 351.93 903.75 346.94 C 847.48 264.55 783.10 195.08 695.67 145.20 C 719.46 114.50 741.15 86.98 766.12 58.47 L 761.40 70.84 C 748.00 90.65 735.38 108.74 723.57 125.10 C 719.13 131.30 712.37 135.83 707.24 142.17 C 706.27 143.35 706.32 144.50 707.38 145.62 C 710.36 148.76 714.03 150.27 718.39 150.15 C 719.91 150.12 721.31 150.51 722.59 151.32 L 776.38 185.51 L 794.71 201.10 C 795.90 202.09 796.58 201.83 796.77 200.30 C 802.46 154.86 803.67 79.28 771.25 41.21 C 717.72 53.34 669.74 77.24 627.32 112.92 C 626.54 113.57 625.78 113.56 625.03 112.87 C 624.35 112.28 624.38 111.52 625.12 110.59 C 635.36 97.93 648.64 86.08 664.97 75.04 C 666.18 74.23 666.07 73.70 664.64 73.45 C 539.93 51.29 418.21 69.62 310.95 130.83 C 307.44 132.86 305.99 135.58 306.61 139.00 C 306.70 139.47 306.67 139.96 306.52 140.42 C 306.38 140.88 306.12 141.29 305.77 141.63 C 305.43 141.96 305.00 142.20 304.54 142.33 C 304.07 142.46 303.58 142.47 303.11 142.36 C 254.65 131.10 206.41 122.42 158.39 116.33 C 152.45 115.55 146.24 116.51 139.77 119.22 Z M 81.55 653.42 L 50.20 618.24 L 45.48 607.27 C 45.32 606.89 45.05 606.55 44.71 606.31 C 44.36 606.07 43.96 605.92 43.54 605.89 C 43.12 605.87 42.70 605.95 42.33 606.15 C 41.95 606.34 41.64 606.63 41.42 607.00 C 8.21 660.40 0.65 714.97 18.75 770.71 C 50.76 869.43 143.13 911.51 238.17 922.24 C 240.97 922.55 241.76 921.43 240.55 918.88 L 220.16 875.26 C 210.77 838.43 209.62 800.97 216.71 762.87 C 217.02 761.22 216.57 759.84 215.35 758.72 C 174.70 721.42 139.49 679.51 109.73 632.98 C 96.73 610.87 86.49 587.65 79.03 563.33 C 78.53 561.71 77.74 561.54 76.65 562.81 L 50.34 593.42 C 48.74 595.27 47.81 597.60 47.67 600.04 C 47.54 602.48 48.21 604.89 49.59 606.90 L 81.55 653.42 Z" fill="#412d27" fill-rule="nonzero" node-id="73" stroke="none" target-height="981.52454" target-width="1049.6857" target-x="-25.6656" target-y="20.4955"></path><path d="M 771.25 41.21 L 766.11 58.47 C 741.15 86.98 719.46 114.50 695.66 145.20 C 689.13 144.96 682.71 143.12 676.40 139.70 C 675.03 138.95 673.58 138.55 672.06 138.49 C 667.76 138.35 664.55 138.49 660.35 139.88 C 601.75 159.67 546.70 186.56 495.19 220.55 C 461.78 242.62 451.15 253.21 406.26 254.75 C 387.79 255.37 368.72 256.49 349.07 258.11 C 323.17 260.54 298.17 267.16 271.67 264.64 C 270.14 264.49 268.73 264.81 267.42 265.62 C 231.31 288.48 208.90 303.19 200.19 309.76 C 180.92 324.31 162.59 360.70 132.54 362.48 C 132.22 362.49 131.89 362.44 131.59 362.32 C 131.29 362.20 131.02 362.02 130.79 361.79 C 130.57 361.56 130.39 361.29 130.28 360.99 C 130.18 360.69 130.13 360.37 130.16 360.05 L 131.79 341.34 C 131.98 339.41 131.17 338.81 129.37 339.52 L 127.83 340.13 C 150.44 289.99 181.59 246.23 221.28 208.84 C 222.62 207.57 222.74 206.17 221.65 204.64 C 202.96 178.80 180.33 156.20 153.77 136.85 L 139.77 119.22 C 146.24 116.51 152.45 115.55 158.39 116.33 C 206.41 122.42 254.65 131.10 303.11 142.36 C 303.58 142.47 304.07 142.46 304.53 142.33 C 305.00 142.20 305.42 141.96 305.77 141.63 C 306.12 141.29 306.38 140.88 306.52 140.42 C 306.67 139.96 306.70 139.47 306.61 139.00 C 305.99 135.58 307.43 132.86 310.95 130.83 C 418.21 69.62 539.93 51.29 664.64 73.45 C 666.07 73.70 666.18 74.23 664.97 75.04 C 648.64 86.08 635.36 97.93 625.12 110.59 C 624.38 111.52 624.35 112.28 625.03 112.87 C 625.78 113.56 626.54 113.57 627.32 112.92 C 669.74 77.24 717.72 53.34 771.25 41.21 Z" fill="#fefefe" fill-rule="nonzero" node-id="75" stroke="none" target-height="321.2796" target-width="643.41797" target-x="127.828" target-y="41.2104"></path><path d="M 771.25 41.21 C 803.67 79.28 802.46 154.86 796.77 200.30 C 796.58 201.83 795.90 202.09 794.71 201.10 L 776.38 185.51 C 780.42 145.95 775.43 107.72 761.40 70.84 L 766.12 58.47 L 771.25 41.21 Z" fill="#e9b6a0" fill-rule="nonzero" node-id="77" stroke="none" target-height="160.88159" target-width="42.27002" target-x="761.402" target-y="41.2104"></path><path d="M 761.40 70.84 C 775.43 107.72 780.42 145.95 776.38 185.51 L 722.59 151.32 C 721.31 150.51 719.91 150.12 718.39 150.15 C 714.03 150.27 710.36 148.76 707.38 145.62 C 706.32 144.50 706.27 143.35 707.24 142.17 C 712.37 135.83 719.13 131.30 723.57 125.10 C 735.38 108.73 748.00 90.65 761.40 70.84 Z" fill="#a97071" fill-rule="nonzero" node-id="79" stroke="none" target-height="114.67791" target-width="74.150024" target-x="706.272" target-y="70.8361"></path><path d="M 139.77 119.22 L 153.77 136.85 C 151.37 137.47 153.15 140.29 159.09 145.30 C 146.86 146.63 140.89 159.36 141.17 183.46 C 136.20 183.49 134.14 180.99 135.01 175.95 C 135.09 175.53 135.05 175.10 134.91 174.70 C 134.77 174.30 134.53 173.94 134.21 173.65 C 133.90 173.37 133.51 173.17 133.10 173.07 C 132.68 172.98 132.25 172.99 131.84 173.10 C 120.86 176.28 115.06 176.04 114.44 172.40 C 116.49 155.33 124.56 125.75 139.77 119.22 Z" fill="#fcd9c8" fill-rule="nonzero" node-id="81" stroke="none" target-height="64.275" target-width="44.648994" target-x="114.439" target-y="119.217"></path><path d="M 695.67 145.20 C 783.10 195.08 847.48 264.55 903.75 346.94 C 907.15 351.93 912.24 355.94 916.48 360.56 C 917.54 361.71 917.37 362.62 915.97 363.27 C 898.77 371.36 881.04 373.16 862.78 368.68 C 858.37 367.59 858.02 368.32 861.76 370.87 C 865.71 373.55 871.35 376.46 878.69 379.60 C 932.16 402.41 967.48 440.30 970.51 499.60 C 971.23 513.78 967.01 527.04 957.87 539.39 C 943.47 534.94 932.89 535.63 926.14 541.44 C 912.70 544.48 875.57 555.16 864.65 549.28 C 863.38 548.60 862.02 548.23 860.59 548.16 L 851.35 547.93 C 849.30 547.90 848.69 546.93 849.53 545.04 L 853.92 535.05 C 854.43 533.91 855.35 533.01 856.49 532.53 L 906.27 511.96 L 916.81 508.09 C 919.05 507.28 919.39 505.99 917.84 504.21 C 913.58 499.30 908.91 497.92 903.84 500.06 C 903.49 500.21 903.10 500.26 902.73 500.19 C 902.35 500.13 902.00 499.96 901.72 499.71 C 901.43 499.45 901.23 499.12 901.12 498.76 C 901.02 498.39 901.02 498.00 901.13 497.63 C 902.47 493.44 901.90 489.95 899.41 487.19 C 897.95 485.57 897.43 483.72 897.87 481.63 C 898.80 477.12 900.92 473.10 904.21 469.55 C 906.14 467.46 905.71 466.52 902.91 466.70 C 895.97 467.14 887.45 464.95 877.34 460.12 C 861.48 452.57 834.18 458.44 817.95 443.94 C 817.03 443.12 815.94 442.50 814.77 442.13 C 813.59 441.76 812.35 441.65 811.13 441.80 C 809.91 441.95 808.74 442.36 807.70 443.00 C 806.65 443.65 805.75 444.50 805.07 445.52 L 794.29 461.48 C 793.39 462.78 792.97 464.23 793.03 465.82 C 793.25 470.08 791.53 472.55 787.86 473.24 C 797.19 415.62 770.64 353.80 710.74 337.42 C 656.01 315.91 612.25 371.48 612.20 422.57 C 612.20 422.69 612.26 422.77 612.39 422.80 C 612.82 422.93 613.24 423.06 613.65 423.22 C 614.11 423.38 614.32 423.20 614.25 422.71 C 613.20 415.43 615.42 408.31 620.92 401.34 C 625.06 429.86 632.73 454.17 643.93 474.26 C 668.89 514.85 704.25 548.77 753.89 523.16 L 758.32 529.50 C 757.11 530.78 756.39 530.90 756.18 529.87 C 747.34 535.66 737.78 538.66 727.48 538.88 C 726.05 538.91 724.90 539.47 724.03 540.56 C 710.69 557.12 722.12 578.63 733.41 594.68 C 739.89 603.91 761.12 616.04 771.62 618.61 C 797.51 625.00 825.09 628.55 850.70 617.91 C 865.94 611.54 880.90 604.88 895.58 597.94 L 939.95 606.48 C 941.48 610.80 941.27 612.64 939.34 611.99 L 924.13 635.17 C 918.72 642.83 913.42 651.27 908.23 660.51 C 849.07 765.67 722.68 830.28 611.31 862.06 C 599.84 865.32 581.08 866.68 566.01 874.79 L 508.49 881.51 C 512.16 871.90 515.24 863.35 517.72 855.85 C 517.85 855.48 517.83 855.09 517.68 854.68 C 517.37 853.82 517.01 853.80 516.60 854.64 L 505.22 880.16 L 426.75 878.29 C 423.53 855.57 412.66 812.00 393.90 794.27 C 391.91 792.43 391.46 792.74 392.55 795.20 C 408.74 832.29 417.56 873.91 419.28 914.17 C 419.38 916.57 418.74 916.78 417.37 914.82 C 405.47 897.98 380.19 889.96 363.81 905.68 C 361.57 907.83 361.93 908.37 364.88 907.31 C 371.04 905.07 376.17 901.20 382.66 901.06 C 417.23 900.17 421.52 928.91 416.25 959.52 L 391.85 952.24 L 388.40 939.97 C 388.25 939.52 387.95 939.12 387.56 938.86 C 387.16 938.59 386.69 938.46 386.21 938.49 C 385.74 938.52 385.28 938.72 384.93 939.03 C 384.57 939.35 384.33 939.78 384.24 940.25 L 381.07 963.53 C 371.80 966.17 361.85 966.25 351.21 963.76 C 350.28 957.23 347.75 951.43 343.61 946.36 C 342.92 945.49 342.55 945.62 342.49 946.74 L 340.90 975.15 C 340.78 976.95 339.83 977.92 338.06 978.04 C 316.10 979.50 303.08 969.24 299.01 947.25 C 298.57 944.92 297.37 944.03 295.41 944.59 C 294.01 944.96 293.47 945.85 293.78 947.25 L 296.81 962.09 C 297.22 963.95 296.53 964.51 294.76 963.76 C 286.49 960.16 279.50 954.95 273.81 948.13 C 233.91 900.21 217.95 844.98 225.94 782.46 C 229.86 770.29 231.36 763.43 232.57 747.80 C 233.22 740.05 238.68 734.27 239.47 728.44 C 239.82 726.14 239.30 726.07 237.93 728.25 L 230.75 739.54 L 224.12 737.91 C 222.76 737.57 221.67 736.80 220.86 735.62 C 216.53 729.15 209.66 721.84 200.24 713.69 C 169.29 686.76 143.33 652.89 122.37 612.08 C 109.40 586.82 103.38 559.30 104.31 529.50 L 156.57 440.62 C 175.28 402.23 211.44 382.12 244.84 357.81 C 246.36 356.69 247.47 355.24 248.15 353.47 L 250.62 346.80 C 250.94 345.99 251.48 345.76 252.26 346.10 L 254.50 347.08 C 254.81 347.24 255.10 347.22 255.38 347.03 C 260.83 343.77 263.72 339.24 264.06 333.46 C 264.15 331.56 265.13 330.35 267.00 329.82 C 269.33 329.16 271.45 329.66 273.35 331.31 C 274.71 332.49 276.05 332.45 277.36 331.17 L 285.76 322.82 C 286.75 321.86 287.95 321.28 289.35 321.09 C 293.14 320.60 296.55 319.40 299.57 317.50 C 324.04 314.27 348.35 315.65 372.49 321.65 C 394.51 327.11 421.48 313.58 407.25 286.71 C 403.89 280.30 401.41 278.75 399.83 282.04 C 392.78 283.54 382.52 285.50 377.11 279.62 C 376.27 278.75 375.38 278.70 374.45 279.48 L 357.79 293.24 C 356.78 294.06 355.53 294.52 354.23 294.56 C 352.93 294.60 351.66 294.21 350.60 293.45 C 349.55 292.69 348.77 291.61 348.39 290.36 C 348.01 289.12 348.05 287.79 348.51 286.57 C 351.49 278.82 351.68 269.34 349.07 258.11 C 368.72 256.49 387.79 255.37 406.26 254.75 C 451.15 253.21 461.79 242.62 495.19 220.55 C 546.70 186.56 601.75 159.67 660.35 139.88 C 664.55 138.49 667.77 138.35 672.06 138.49 C 673.58 138.55 675.03 138.95 676.40 139.70 C 682.71 143.12 689.13 144.96 695.67 145.20 Z M 640.10 299.49 C 621.58 307.89 611.97 296.13 603.20 281.81 C 602.96 281.42 602.60 281.12 602.18 280.95 C 601.76 280.78 601.30 280.75 600.86 280.86 C 600.42 280.96 600.02 281.21 599.73 281.56 C 599.44 281.90 599.26 282.34 599.23 282.79 C 597.83 304.62 616.17 321.93 637.21 310.27 C 661.25 296.93 683.71 285.81 704.58 276.91 C 712.13 273.68 711.96 273.21 704.06 275.51 C 683.82 281.36 662.49 289.35 640.10 299.49 Z M 295.09 368.40 C 252.97 401.03 235.65 443.52 243.11 495.86 C 223.71 502.58 209.38 504.07 191.47 515.83 C 181.57 522.32 163.61 520.78 151.90 521.29 C 150.28 521.38 149.23 522.19 148.73 523.72 C 144.49 536.64 150.69 568.22 129.93 568.64 C 126.44 567.46 123.58 567.24 121.34 567.99 C 120.43 568.28 119.64 568.89 119.14 569.71 C 118.63 570.53 118.44 571.50 118.59 572.45 C 118.74 573.40 119.23 574.27 119.97 574.89 C 120.71 575.51 121.64 575.84 122.60 575.83 L 158.53 575.92 C 159.04 575.92 159.54 576.02 160.01 576.22 C 160.47 576.42 160.89 576.72 161.24 577.09 C 161.58 577.45 161.85 577.89 162.02 578.36 C 162.19 578.84 162.25 579.34 162.21 579.84 L 160.77 600.00 C 160.70 601.05 160.21 602.03 159.42 602.74 C 158.63 603.44 157.59 603.82 156.52 603.77 C 144.30 603.34 138.93 606.08 140.43 611.99 C 149.20 612.92 154.16 615.63 155.31 620.11 C 155.65 621.47 156.37 622.61 157.46 623.51 C 202.99 660.65 259.30 660.51 309.78 633.40 C 317.62 629.20 330.08 611.05 332.60 603.12 C 343.42 568.88 331.43 563.93 307.96 546.16 C 298.85 539.25 288.63 535.96 277.31 536.27 L 270.45 528.43 C 266.41 509.18 265.02 489.98 266.30 470.86 C 267.70 450.00 277.82 429.57 283.47 407.92 C 295.60 391.65 310.64 379.52 328.58 371.53 C 307.99 392.15 297.19 417.08 296.16 446.31 C 281.74 559.69 420.40 595.00 442.61 480.09 C 446.03 462.52 446.34 447.53 443.54 435.12 C 445.41 350.86 356.58 319.88 295.09 368.40 Z M 487.19 438.81 C 487.51 439.12 487.89 439.35 488.32 439.50 C 488.74 439.65 489.20 439.70 489.67 439.67 C 490.14 439.63 490.61 439.51 491.05 439.30 C 491.49 439.08 491.89 438.79 492.24 438.44 C 492.58 438.08 492.86 437.67 493.06 437.22 C 493.26 436.77 493.37 436.30 493.39 435.83 C 493.41 435.36 493.34 434.90 493.18 434.49 C 493.02 434.06 492.77 433.69 492.45 433.38 C 492.14 433.08 491.76 432.84 491.33 432.69 C 490.91 432.55 490.45 432.49 489.98 432.52 C 489.51 432.56 489.04 432.69 488.60 432.90 C 488.16 433.11 487.76 433.40 487.41 433.76 C 487.07 434.12 486.79 434.53 486.59 434.98 C 486.39 435.42 486.28 435.89 486.26 436.36 C 486.24 436.83 486.31 437.29 486.47 437.71 C 486.63 438.13 486.88 438.50 487.19 438.81 Z M 539.93 453.83 C 542.20 455.04 544.80 455.23 547.72 454.39 C 548.06 454.29 548.36 454.10 548.59 453.83 C 548.81 453.56 548.95 453.22 548.98 452.87 C 549.01 452.52 548.93 452.17 548.76 451.87 C 548.58 451.56 548.32 451.32 548.00 451.17 C 541.63 448.12 534.89 447.05 527.80 447.95 C 526.96 448.14 526.20 448.64 525.67 449.35 C 525.13 450.06 524.87 450.92 524.91 451.77 C 524.96 452.63 525.32 453.42 525.92 453.99 C 526.52 454.55 527.32 454.86 528.17 454.85 L 538.67 453.59 C 539.10 453.53 539.54 453.61 539.93 453.83 Z M 506.25 457.79 C 499.93 456.49 493.71 457.26 487.58 460.12 C 487.22 460.32 486.94 460.64 486.79 461.02 C 486.64 461.41 486.63 461.83 486.75 462.22 C 486.88 462.62 487.14 462.95 487.49 463.17 C 487.83 463.39 488.25 463.49 488.66 463.44 L 510.31 459.14 C 512.05 458.77 512.12 458.17 510.54 457.32 C 509.17 456.58 507.74 456.74 506.25 457.79 Z M 498.36 481.12 C 487.73 481.83 481.68 486.38 480.21 494.74 C 480.08 495.48 480.10 496.24 480.27 496.98 C 480.44 497.71 480.75 498.41 481.19 499.04 C 507.85 536.45 539.48 541.38 576.09 513.83 C 581.50 510.03 584.10 505.44 583.88 500.06 C 590.27 475.10 512.22 477.71 498.36 481.12 Z M 446.15 637.37 C 452.92 664.43 468.18 703.43 492.67 715.93 C 535.45 737.77 553.93 677.63 560.74 650.01 C 561.07 648.62 561.88 647.39 563.03 646.51 C 567.74 642.83 568.53 639.70 566.80 633.63 C 560.32 611.15 538.95 552.27 519.36 542.00 C 517.99 541.26 516.54 541.07 515.02 541.44 C 468.92 552.17 450.03 593.42 437.99 636.25 C 437.46 638.14 437.15 639.75 437.06 641.05 C 436.90 643.23 437.52 643.48 438.92 641.80 L 443.17 636.71 C 444.60 634.94 445.60 635.16 446.15 637.37 Z" fill="#fdfaee" fill-rule="nonzero" node-id="83" stroke="none" target-height="841.157" target-width="867.84296" target-x="103.382" target-y="138.346"></path><path d="M 159.09 145.30 C 173.68 168.44 190.22 189.35 208.73 208.05 C 208.99 208.31 209.20 208.63 209.33 208.98 C 209.47 209.33 209.54 209.70 209.53 210.07 C 209.52 210.45 209.44 210.82 209.28 211.16 C 209.13 211.50 208.91 211.81 208.63 212.06 C 184.53 234.95 163.77 259.87 146.35 286.80 C 141.90 278.44 140.05 270.86 140.80 264.08 C 146.26 239.40 141.17 215.37 141.17 183.46 C 140.89 159.36 146.86 146.63 159.09 145.30 Z" fill="#a97071" fill-rule="nonzero" node-id="85" stroke="none" target-height="141.505" target-width="69.48599" target-x="140.052" target-y="145.297"></path><path d="M 114.44 172.40 C 115.06 176.04 120.86 176.28 131.84 173.10 C 132.25 172.99 132.68 172.98 133.10 173.07 C 133.51 173.17 133.90 173.37 134.21 173.65 C 134.53 173.94 134.77 174.30 134.91 174.70 C 135.05 175.10 135.08 175.53 135.01 175.95 C 134.14 180.99 136.19 183.49 141.17 183.46 C 141.17 215.37 146.26 239.40 140.80 264.08 L 123.49 256.99 C 122.06 256.40 120.80 256.66 119.71 257.78 C 117.25 260.33 114.59 260.60 111.73 258.58 C 109.34 229.77 110.24 201.05 114.44 172.40 Z" fill="#e9b6a0" fill-rule="nonzero" node-id="87" stroke="none" target-height="91.67699" target-width="36.920006" target-x="109.337" target-y="172.404"></path><path d="M 140.80 264.08 C 140.05 270.86 141.90 278.44 146.35 286.80 L 124.94 330.24 C 123.82 332.54 123.05 332.43 122.65 329.91 L 111.73 258.57 C 114.59 260.60 117.25 260.33 119.71 257.78 C 120.80 256.66 122.06 256.40 123.49 256.99 L 140.80 264.08 Z" fill="#d0988b" fill-rule="nonzero" node-id="89" stroke="none" target-height="76.14099" target-width="34.617996" target-x="111.733" target-y="256.398"></path><path d="M 349.07 258.11 C 351.68 269.34 351.49 278.82 348.51 286.57 C 348.05 287.79 348.01 289.12 348.39 290.36 C 348.77 291.61 349.55 292.69 350.60 293.45 C 351.66 294.21 352.93 294.60 354.23 294.56 C 355.53 294.52 356.78 294.06 357.79 293.24 L 374.45 279.48 C 375.38 278.70 376.27 278.75 377.11 279.62 C 382.52 285.50 392.78 283.54 399.83 282.04 C 404.02 304.25 395.81 313.16 373.47 312.13 C 345.99 310.88 323.92 309.85 299.56 317.50 C 296.55 319.40 293.14 320.60 289.35 321.09 C 287.95 321.28 286.75 321.86 285.75 322.82 L 277.36 331.17 C 276.05 332.45 274.71 332.49 273.35 331.31 C 271.45 329.66 269.33 329.16 267.00 329.82 C 265.13 330.35 264.15 331.56 264.06 333.46 C 263.72 339.24 260.83 343.77 255.38 347.03 C 255.10 347.22 254.81 347.24 254.50 347.08 L 252.26 346.10 C 251.48 345.76 250.94 345.99 250.62 346.80 L 248.15 353.47 C 247.47 355.24 246.36 356.69 244.84 357.81 C 211.43 382.12 175.28 402.23 156.57 440.62 L 138.00 461.90 C 131.37 459.07 124.16 457.96 116.35 458.58 C 114.42 458.74 113.12 459.72 112.43 461.52 L 110.33 467.03 C 110.21 467.32 109.98 467.57 109.70 467.73 C 109.42 467.88 109.09 467.94 108.77 467.88 C 108.46 467.83 108.18 467.67 107.98 467.43 C 107.78 467.19 107.67 466.88 107.67 466.56 C 107.77 441.46 111.48 419.57 118.82 400.87 C 123.02 390.17 125.31 381.05 125.68 373.49 C 125.84 370.62 125.19 370.44 123.72 372.93 C 118.19 382.54 113.91 392.68 110.89 403.35 C 110.72 403.90 110.36 404.38 109.88 404.71 C 109.39 405.04 108.81 405.19 108.23 405.14 C 107.65 405.09 107.10 404.84 106.68 404.44 C 106.25 404.04 105.98 403.50 105.90 402.93 L 105.67 400.92 L 127.83 340.13 L 129.37 339.52 C 131.17 338.81 131.98 339.41 131.79 341.34 L 130.16 360.05 C 130.13 360.37 130.18 360.69 130.28 360.99 C 130.39 361.29 130.57 361.56 130.79 361.79 C 131.02 362.02 131.29 362.20 131.59 362.32 C 131.89 362.44 132.22 362.49 132.54 362.48 C 162.59 360.70 180.92 324.31 200.19 309.76 C 208.90 303.19 231.31 288.48 267.42 265.62 C 268.73 264.81 270.14 264.49 271.67 264.64 C 298.17 267.16 323.17 260.54 349.07 258.11 Z" fill="#fdfbf5" fill-rule="nonzero" node-id="91" stroke="none" target-height="209.82898" target-width="298.358" target-x="105.667" target-y="258.109"></path><path d="M 603.20 281.81 C 611.97 296.13 621.58 307.89 640.10 299.49 C 662.49 289.35 683.82 281.36 704.06 275.51 C 711.96 273.21 712.13 273.68 704.58 276.91 C 683.71 285.81 661.25 296.93 637.21 310.27 C 616.17 321.93 597.83 304.62 599.23 282.79 C 599.26 282.34 599.44 281.90 599.73 281.56 C 600.02 281.21 600.41 280.96 600.86 280.86 C 601.30 280.75 601.76 280.78 602.18 280.95 C 602.60 281.12 602.96 281.42 603.20 281.81 Z" fill="#412d27" fill-rule="nonzero" node-id="93" stroke="none" target-height="48.723022" target-width="114.30499" target-x="597.83" target-y="273.21"></path><path d="M 299.56 317.50 C 323.92 309.85 345.99 310.88 373.47 312.13 C 395.81 313.16 404.03 304.25 399.83 282.04 C 401.41 278.75 403.89 280.30 407.25 286.71 C 421.48 313.58 394.51 327.11 372.49 321.65 C 348.35 315.65 324.04 314.27 299.56 317.50 Z" fill="#412d27" fill-rule="nonzero" node-id="95" stroke="none" target-height="48.365997" target-width="121.91" target-x="299.565" target-y="278.746"></path><path d="M 710.74 337.42 C 717.05 344.20 724.78 350.02 733.92 354.87 C 734.45 355.15 734.68 355.62 734.62 356.27 C 734.59 356.92 734.26 357.13 733.64 356.88 C 709.07 346.49 683.97 347.05 658.34 358.56 C 647.39 362.73 640.58 367.39 637.91 372.55 C 625.15 383.78 619.49 393.38 620.92 401.34 C 615.42 408.31 613.20 415.43 614.25 422.71 C 614.32 423.20 614.11 423.38 613.65 423.22 C 613.24 423.06 612.82 422.93 612.39 422.80 C 612.26 422.77 612.20 422.69 612.20 422.57 C 612.25 371.48 656.01 315.91 710.74 337.42 Z" fill="#372720" fill-rule="nonzero" node-id="97" stroke="none" target-height="107.462006" target-width="122.484985" target-x="612.2" target-y="315.914"></path><path d="M 710.74 337.42 C 770.64 353.80 797.19 415.62 787.86 473.24 C 783.66 494.57 772.34 511.21 753.89 523.16 C 704.25 548.77 668.89 514.85 643.93 474.26 C 644.70 474.07 645.48 473.89 646.26 473.70 C 683.35 531.93 764.53 552.78 775.03 459.10 C 775.05 458.81 774.98 458.52 774.83 458.28 C 774.67 458.04 774.44 457.85 774.17 457.76 C 773.90 457.67 773.61 457.67 773.35 457.77 C 773.09 457.87 772.88 458.06 772.74 458.31 C 759.72 480.05 737.79 494.70 711.86 491.90 C 672.43 487.65 650.13 449.49 642.85 412.58 C 641.67 392.15 646.83 374.14 658.34 358.56 C 683.97 347.05 709.07 346.49 733.64 356.88 C 734.26 357.13 734.59 356.92 734.62 356.27 C 734.68 355.62 734.45 355.15 733.92 354.87 C 724.78 350.02 717.05 344.20 710.74 337.42 Z" fill="#2e1e1b" fill-rule="nonzero" node-id="99" stroke="none" target-height="215.35901" target-width="155.51599" target-x="641.671" target-y="337.422"></path><path d="M 443.54 435.12 C 430.07 387.34 401.91 363.95 359.05 364.95 C 350.50 362.96 340.34 365.15 328.58 371.53 C 310.64 379.52 295.60 391.65 283.47 407.92 C 266.42 422.88 257.16 445.02 255.66 474.36 C 255.01 465.55 253.14 458.57 250.06 453.41 C 249.22 451.98 249.02 450.47 249.46 448.88 C 254.50 429.66 266.67 398.49 283.24 386.69 C 289.77 381.98 292.29 375.49 295.09 368.40 C 356.58 319.88 445.41 350.86 443.54 435.12 Z" fill="#412d27" fill-rule="nonzero" node-id="101" stroke="none" target-height="154.475" target-width="196.38599" target-x="249.022" target-y="319.88"></path><path d="M 658.34 358.56 C 646.83 374.14 641.67 392.15 642.85 412.58 L 633.15 427.65 C 629.98 411.82 631.56 393.45 637.91 372.55 C 640.58 367.39 647.39 362.73 658.34 358.56 Z" fill="#836b44" fill-rule="nonzero" node-id="103" stroke="none" target-height="69.09601" target-width="28.366028" target-x="629.975" target-y="358.557"></path><path d="M 359.05 364.95 C 332.71 379.63 320.16 405.88 321.40 443.70 C 316.73 442.83 310.90 444.03 303.90 447.30 C 302.91 446.39 300.33 446.07 296.16 446.31 C 297.19 417.08 307.99 392.15 328.58 371.53 C 340.34 365.15 350.50 362.96 359.05 364.95 Z" fill="#715337" fill-rule="nonzero" node-id="105" stroke="none" target-height="84.337006" target-width="62.889984" target-x="296.16" target-y="362.958"></path><path d="M 359.05 364.95 C 401.91 363.95 430.07 387.34 443.54 435.12 C 446.34 447.53 446.03 462.52 442.61 480.09 C 420.40 595.00 281.74 559.69 296.16 446.31 C 300.33 446.07 302.91 446.39 303.90 447.29 C 285.94 551.85 413.03 590.85 439.39 476.73 C 441.13 473.84 441.71 471.59 441.12 469.97 C 440.71 468.82 440.11 468.69 439.30 469.60 C 437.87 471.18 437.12 473.10 437.06 475.33 C 426.92 494.43 412.66 505.05 394.27 507.20 C 354.57 511.82 328.35 480.93 321.40 443.70 C 320.16 405.88 332.71 379.63 359.05 364.95 Z" fill="#2e1e1b" fill-rule="nonzero" node-id="107" stroke="none" target-height="231.05103" target-width="164.59802" target-x="281.744" target-y="363.953"></path><path d="M 295.09 368.40 C 292.29 375.49 289.77 381.98 283.24 386.69 C 266.67 398.49 254.50 429.66 249.46 448.88 C 249.02 450.47 249.22 451.98 250.06 453.41 C 253.14 458.57 255.01 465.55 255.66 474.36 C 255.01 486.90 254.78 524.98 270.45 528.43 L 277.31 536.27 C 258.96 534.34 247.56 520.87 243.11 495.86 C 235.65 443.52 252.97 401.03 295.09 368.40 Z" fill="#2e1e1b" fill-rule="nonzero" node-id="109" stroke="none" target-height="167.86499" target-width="59.438004" target-x="235.648" target-y="368.401"></path><path d="M 138.00 461.90 C 126.33 477.85 116.63 504.63 91.72 493.72 C 91.90 493.53 91.27 493.16 89.80 492.60 C 83.79 470.76 98.20 422.66 105.67 400.92 L 105.90 402.93 C 105.98 403.50 106.25 404.04 106.67 404.44 C 107.10 404.84 107.65 405.09 108.23 405.14 C 108.81 405.19 109.39 405.04 109.88 404.71 C 110.36 404.38 110.72 403.90 110.89 403.35 C 113.91 392.68 118.19 382.54 123.72 372.93 C 125.18 370.44 125.84 370.62 125.68 373.49 C 125.31 381.05 123.02 390.17 118.82 400.87 C 111.48 419.57 107.77 441.46 107.67 466.56 C 107.67 466.88 107.78 467.19 107.98 467.43 C 108.18 467.67 108.46 467.83 108.77 467.88 C 109.09 467.94 109.42 467.88 109.70 467.73 C 109.98 467.57 110.21 467.32 110.33 467.03 L 112.43 461.52 C 113.12 459.72 114.42 458.74 116.35 458.58 C 124.16 457.96 131.37 459.07 138.00 461.90 Z" fill="#cec3b9" fill-rule="nonzero" node-id="111" stroke="none" target-height="134.195" target-width="54.213493" target-x="83.7855" target-y="370.439"></path><path d="M 637.91 372.55 C 631.56 393.45 629.98 411.82 633.15 427.65 C 634.89 430.11 635.33 433.33 634.46 437.31 C 631.75 450.05 638.70 463.72 646.26 473.70 C 645.48 473.89 644.70 474.07 643.93 474.26 C 632.73 454.17 625.06 429.86 620.92 401.34 C 619.49 393.38 625.15 383.78 637.91 372.55 Z" fill="#bda194" fill-rule="nonzero" node-id="113" stroke="none" target-height="101.707" target-width="26.764954" target-x="619.494" target-y="372.554"></path><path d="M 283.47 407.92 C 277.82 429.57 267.70 450.00 266.30 470.86 C 265.02 489.98 266.41 509.17 270.45 528.43 C 254.78 524.98 255.01 486.90 255.66 474.35 C 257.16 445.02 266.43 422.88 283.47 407.92 Z" fill="#bda194" fill-rule="nonzero" node-id="115" stroke="none" target-height="120.509" target-width="28.692001" target-x="254.777" target-y="407.918"></path><path d="M 642.85 412.58 C 650.13 449.49 672.43 487.65 711.86 491.90 C 737.79 494.70 759.72 480.05 772.74 458.31 C 772.88 458.06 773.09 457.87 773.35 457.77 C 773.61 457.67 773.90 457.67 774.17 457.76 C 774.44 457.85 774.67 458.04 774.83 458.28 C 774.98 458.52 775.05 458.81 775.02 459.10 C 764.53 552.78 683.35 531.93 646.26 473.70 C 638.70 463.72 631.75 450.05 634.45 437.31 C 635.33 433.33 634.89 430.11 633.15 427.65 L 642.85 412.58 Z" fill="#fac759" fill-rule="nonzero" node-id="117" stroke="none" target-height="140.198" target-width="143.30402" target-x="631.748" target-y="412.583"></path><path d="M 487.41 433.76 C 485.96 435.26 485.86 437.52 487.19 438.81 C 488.53 440.10 490.78 439.93 492.24 438.44 C 493.69 436.94 493.79 434.68 492.45 433.38 C 491.12 432.09 488.86 432.26 487.41 433.76 Z" fill="#bda194" fill-rule="nonzero" node-id="119" stroke="none" target-height="8.009979" target-width="7.924011" target-x="485.861" target-y="432.092"></path><path d="M 906.27 511.96 C 906.30 511.24 906.27 510.64 906.17 510.14 C 905.92 508.52 905.01 507.92 903.42 508.32 C 872.53 516.47 842.54 527.17 813.42 540.42 C 812.53 540.83 811.55 541.02 810.56 540.98 C 809.58 540.95 808.62 540.68 807.76 540.20 C 806.89 539.73 806.15 539.05 805.60 538.24 C 805.04 537.43 804.69 536.50 804.56 535.52 C 803.86 530.34 806.47 526.51 811.46 524.41 C 820.95 520.40 829.13 514.43 836.00 506.50 C 836.51 505.91 836.83 505.18 836.91 504.41 C 836.99 503.63 836.83 502.86 836.45 502.18 C 836.07 501.51 835.49 500.97 834.79 500.65 C 834.09 500.33 833.31 500.24 832.55 500.39 C 821.82 502.38 811.66 507.23 802.09 514.94 C 797.26 518.83 792.58 518.99 788.04 515.41 C 786.92 514.51 785.74 514.40 784.50 515.08 L 758.32 529.50 L 753.89 523.16 C 772.34 511.21 783.66 494.57 787.86 473.24 C 791.53 472.55 793.25 470.08 793.03 465.82 C 792.97 464.23 793.39 462.78 794.29 461.48 L 805.07 445.52 C 805.75 444.50 806.65 443.65 807.70 443.00 C 808.74 442.36 809.91 441.95 811.13 441.80 C 812.35 441.65 813.59 441.76 814.77 442.13 C 815.94 442.50 817.03 443.12 817.95 443.94 C 834.18 458.44 861.48 452.57 877.34 460.12 C 887.45 464.95 895.97 467.14 902.91 466.70 C 905.71 466.52 906.14 467.46 904.21 469.55 C 900.92 473.10 898.80 477.12 897.87 481.63 C 897.43 483.72 897.95 485.57 899.41 487.19 C 901.90 489.95 902.47 493.44 901.13 497.63 C 901.02 498.00 901.02 498.39 901.12 498.76 C 901.23 499.12 901.43 499.45 901.72 499.71 C 902.00 499.96 902.35 500.13 902.73 500.19 C 903.10 500.26 903.49 500.21 903.84 500.06 C 908.91 497.92 913.58 499.30 917.84 504.21 C 919.39 505.99 919.05 507.28 916.81 508.09 L 906.27 511.96 Z" fill="#fcecdc" fill-rule="nonzero" node-id="121" stroke="none" target-height="99.369965" target-width="165.50104" target-x="753.891" target-y="441.652"></path><path d="M 321.40 443.70 C 328.35 480.93 354.57 511.82 394.27 507.20 C 412.66 505.05 426.92 494.43 437.06 475.33 C 439.08 475.55 439.86 476.02 439.39 476.73 C 413.03 590.85 285.94 551.85 303.90 447.30 C 310.90 444.03 316.73 442.83 321.40 443.70 Z" fill="#fac759" fill-rule="nonzero" node-id="123" stroke="none" target-height="148.021" target-width="153.91501" target-x="285.942" target-y="442.831"></path><path d="M 538.67 453.59 L 528.17 454.85 C 527.32 454.86 526.52 454.55 525.92 453.99 C 525.32 453.42 524.96 452.63 524.91 451.77 C 524.86 450.92 525.13 450.06 525.67 449.35 C 526.20 448.64 526.96 448.14 527.80 447.95 C 534.89 447.05 541.63 448.12 548.00 451.17 C 548.32 451.32 548.58 451.56 548.76 451.87 C 548.93 452.17 549.01 452.52 548.98 452.87 C 548.95 453.22 548.81 453.56 548.59 453.83 C 548.36 454.10 548.06 454.29 547.72 454.39 C 544.80 455.23 542.20 455.04 539.93 453.83 C 539.54 453.61 539.10 453.53 538.67 453.59 Z" fill="#bdb3b0" fill-rule="nonzero" node-id="125" stroke="none" target-height="8.180023" target-width="24.143005" target-x="524.864" target-y="447.046"></path><path d="M 506.25 457.79 C 507.74 456.74 509.17 456.58 510.54 457.33 C 512.12 458.17 512.05 458.77 510.31 459.14 L 488.66 463.44 C 488.25 463.49 487.83 463.39 487.49 463.17 C 487.14 462.95 486.88 462.62 486.75 462.22 C 486.63 461.83 486.64 461.41 486.79 461.02 C 486.94 460.64 487.22 460.32 487.58 460.12 C 493.71 457.26 499.93 456.49 506.25 457.79 Z" fill="#b4aaa6" fill-rule="nonzero" node-id="127" stroke="none" target-height="7.002014" target-width="25.498993" target-x="486.626" target-y="456.486"></path><path d="M 439.39 476.73 C 439.86 476.02 439.08 475.55 437.06 475.33 C 437.12 473.10 437.87 471.18 439.30 469.60 C 440.11 468.69 440.71 468.82 441.12 469.97 C 441.71 471.59 441.13 473.84 439.39 476.73 Z" fill="#836b44" fill-rule="nonzero" node-id="129" stroke="none" target-height="8.040009" target-width="4.649994" target-x="437.057" target-y="468.694"></path><path d="M 583.88 500.06 C 582.73 500.25 581.70 499.74 580.80 498.52 C 563.91 480.47 521.22 480.00 498.36 481.12 C 512.22 477.71 590.27 475.10 583.88 500.06 Z" fill="#9b6364" fill-rule="nonzero" node-id="131" stroke="none" target-height="25.146973" target-width="91.91101" target-x="498.362" target-y="475.101"></path><path d="M 498.36 481.12 C 521.22 480.00 563.91 480.47 580.80 498.52 L 574.36 500.06 C 572.84 500.43 571.41 500.23 570.07 499.45 C 560.12 493.82 549.36 491.32 537.78 491.94 C 537.26 491.97 536.75 492.13 536.31 492.42 C 535.87 492.71 535.52 493.12 535.30 493.59 C 535.07 494.07 534.98 494.60 535.03 495.12 C 535.09 495.64 535.28 496.14 535.59 496.56 L 545.67 510.19 C 546.88 511.83 548.41 512.19 550.24 511.26 C 554.75 508.93 559.20 509.02 563.59 511.54 C 564.86 512.28 566.23 512.53 567.69 512.28 C 570.52 511.79 573.32 512.30 576.09 513.83 C 539.48 541.38 507.85 536.45 481.19 499.04 C 480.75 498.41 480.44 497.71 480.27 496.98 C 480.10 496.24 480.08 495.48 480.21 494.74 C 481.68 486.38 487.72 481.83 498.36 481.12 Z" fill="#d57784" fill-rule="nonzero" node-id="133" stroke="none" target-height="61.38202" target-width="100.72104" target-x="480.08" target-y="480"></path><path d="M 580.80 498.52 C 581.70 499.74 582.73 500.25 583.88 500.06 C 584.10 505.44 581.50 510.03 576.09 513.83 C 573.32 512.30 570.52 511.79 567.69 512.28 C 566.23 512.53 564.86 512.28 563.59 511.54 C 559.20 509.02 554.75 508.93 550.24 511.26 C 548.41 512.19 546.88 511.83 545.67 510.19 L 535.59 496.56 C 535.28 496.14 535.09 495.64 535.03 495.12 C 534.98 494.60 535.07 494.07 535.30 493.59 C 535.52 493.12 535.87 492.71 536.31 492.42 C 536.75 492.13 537.26 491.97 537.78 491.94 C 549.36 491.32 560.12 493.82 570.07 499.45 C 571.41 500.23 572.84 500.44 574.36 500.06 L 580.80 498.52 Z" fill="#fcd9c8" fill-rule="nonzero" node-id="135" stroke="none" target-height="22.503998" target-width="49.117004" target-x="534.981" target-y="491.321"></path><path d="M 89.80 492.60 C 91.27 493.16 91.90 493.53 91.72 493.72 L 91.62 505.66 C 91.59 508.49 90.47 509.04 88.26 507.29 C 85.28 504.93 85.79 500.03 89.80 492.60 Z" fill="#715337" fill-rule="nonzero" node-id="137" stroke="none" target-height="16.438019" target-width="6.6251984" target-x="85.2788" target-y="492.597"></path><path d="M 243.11 495.86 C 247.56 520.87 258.96 534.34 277.31 536.26 C 288.63 535.95 298.85 539.25 307.96 546.16 C 331.43 563.93 343.42 568.88 332.60 603.12 C 330.08 611.05 317.62 629.20 309.78 633.40 C 259.30 660.51 202.99 660.65 157.45 623.51 C 156.37 622.61 155.65 621.47 155.31 620.10 C 154.16 615.62 149.20 612.92 140.43 611.99 L 207.75 601.26 C 208.38 601.16 209.02 601.24 209.61 601.49 C 210.19 601.75 210.69 602.16 211.05 602.69 C 211.41 603.22 211.61 603.84 211.63 604.48 C 211.64 605.12 211.48 605.75 211.15 606.29 C 210.28 607.73 209.35 608.47 208.35 608.53 C 207.20 608.60 206.27 609.08 205.56 609.98 C 202.26 613.96 201.36 617.80 202.85 621.50 C 203.56 623.25 204.85 624.30 206.72 624.68 L 231.63 629.86 C 231.94 629.92 232.26 629.92 232.57 629.86 C 256.41 623.56 303.11 625.38 310.15 592.62 C 317.34 559.22 286.55 542.14 258.37 541.35 C 238.54 540.79 227.72 539.49 211.71 537.11 C 211.32 537.04 210.92 537.07 210.54 537.18 C 210.16 537.29 209.81 537.47 209.51 537.73 C 209.21 537.99 208.96 538.31 208.80 538.67 C 208.63 539.02 208.54 539.41 208.54 539.81 L 208.54 541.72 C 208.54 543.65 209.49 544.74 211.39 544.99 L 217.17 545.78 C 217.56 545.84 217.94 545.98 218.26 546.20 C 218.59 546.42 218.86 546.72 219.05 547.07 C 219.25 547.41 219.36 547.80 219.38 548.20 C 219.40 548.60 219.33 549.00 219.18 549.38 C 217.41 553.51 217.54 557.35 219.60 560.90 C 220.97 563.26 220.30 564.51 217.59 564.63 L 129.93 568.64 C 150.69 568.22 144.48 536.64 148.73 523.72 C 149.23 522.19 150.28 521.38 151.90 521.29 C 163.61 520.78 181.57 522.32 191.47 515.83 C 209.38 504.07 223.70 502.58 243.11 495.86 Z" fill="#fcecdc" fill-rule="nonzero" node-id="139" stroke="none" target-height="164.78497" target-width="213.49301" target-x="129.927" target-y="495.862"></path><path d="M 906.26 511.96 L 856.48 532.53 C 855.35 533.01 854.43 533.91 853.92 535.05 L 849.53 545.04 C 848.69 546.93 849.30 547.90 851.35 547.93 L 860.59 548.16 C 862.02 548.23 863.37 548.60 864.65 549.28 C 875.57 555.16 912.70 544.48 926.14 541.44 C 927.23 546.51 923.23 549.89 914.15 551.57 C 887.40 556.48 860.71 561.62 834.09 566.96 C 832.60 567.27 831.38 568.05 830.45 569.30 C 812.82 593.74 780.30 586.33 761.63 568.88 C 760.45 567.76 759.78 566.39 759.63 564.77 L 756.18 529.87 C 756.39 530.90 757.11 530.78 758.32 529.50 L 784.50 515.08 C 785.74 514.40 786.92 514.51 788.04 515.41 C 792.58 518.99 797.26 518.83 802.09 514.94 C 811.66 507.23 821.82 502.38 832.55 500.39 C 833.31 500.24 834.09 500.33 834.79 500.65 C 835.49 500.97 836.07 501.51 836.45 502.18 C 836.83 502.86 836.99 503.63 836.91 504.41 C 836.83 505.18 836.51 505.91 836.00 506.50 C 829.13 514.43 820.95 520.40 811.46 524.41 C 806.47 526.51 803.86 530.34 804.56 535.52 C 804.69 536.50 805.04 537.43 805.60 538.24 C 806.15 539.05 806.89 539.73 807.75 540.20 C 808.62 540.68 809.58 540.95 810.56 540.98 C 811.55 541.02 812.53 540.83 813.42 540.42 C 842.53 527.17 872.53 516.47 903.42 508.32 C 905.00 507.92 905.92 508.52 906.17 510.14 C 906.26 510.64 906.30 511.24 906.26 511.96 Z" fill="#fcd9c8" fill-rule="nonzero" node-id="141" stroke="none" target-height="93.50601" target-width="171.05298" target-x="756.176" target-y="500.238"></path><path d="M 104.31 529.50 C 103.38 559.30 109.40 586.82 122.37 612.08 C 143.33 652.89 169.29 686.76 200.24 713.69 C 209.66 721.84 216.53 729.15 220.86 735.62 C 221.67 736.80 222.76 737.57 224.12 737.91 L 230.75 739.54 L 227.72 753.12 C 168.47 699.32 121.16 651.27 92.37 574.34 C 90.19 568.49 88.61 562.44 87.61 556.19 C 87.39 554.69 87.72 553.31 88.59 552.03 L 104.31 529.50 Z" fill="#d7cab8" fill-rule="nonzero" node-id="143" stroke="none" target-height="223.617" target-width="143.355" target-x="87.394" target-y="529.501"></path><path d="M 756.18 529.87 L 759.63 564.77 C 759.78 566.39 760.45 567.76 761.64 568.88 C 780.30 586.33 812.82 593.74 830.45 569.30 C 831.38 568.05 832.60 567.28 834.09 566.96 C 860.72 561.62 887.40 556.48 914.15 551.57 C 923.23 549.89 927.23 546.51 926.14 541.44 C 932.89 535.63 943.47 534.94 957.87 539.39 C 940.14 559.76 919.38 579.28 895.58 597.94 C 880.90 604.88 865.94 611.54 850.70 617.91 C 825.09 628.55 797.51 625.00 771.62 618.61 C 761.12 616.04 739.89 603.91 733.41 594.68 C 722.12 578.63 710.69 557.12 724.03 540.56 C 724.90 539.47 726.05 538.91 727.48 538.88 C 737.78 538.66 747.34 535.66 756.18 529.87 Z" fill="#fcecdc" fill-rule="nonzero" node-id="145" stroke="none" target-height="98.67499" target-width="247.177" target-x="710.689" target-y="529.874"></path><path d="M 140.43 611.99 C 138.93 606.08 144.30 603.34 156.52 603.77 C 157.59 603.82 158.63 603.44 159.42 602.74 C 160.21 602.03 160.69 601.05 160.77 600.00 L 162.21 579.84 C 162.25 579.34 162.19 578.84 162.02 578.36 C 161.85 577.89 161.58 577.45 161.24 577.09 C 160.89 576.72 160.47 576.42 160.01 576.22 C 159.54 576.02 159.04 575.92 158.53 575.92 L 122.60 575.83 C 121.64 575.84 120.71 575.51 119.97 574.89 C 119.23 574.27 118.74 573.40 118.59 572.45 C 118.44 571.50 118.63 570.53 119.14 569.71 C 119.64 568.89 120.43 568.28 121.34 567.99 C 123.58 567.24 126.44 567.46 129.93 568.64 L 217.59 564.63 C 220.30 564.51 220.97 563.26 219.60 560.90 C 217.55 557.35 217.41 553.51 219.18 549.38 C 219.33 549.00 219.40 548.61 219.38 548.20 C 219.36 547.80 219.25 547.41 219.06 547.07 C 218.86 546.72 218.59 546.42 218.26 546.20 C 217.94 545.98 217.56 545.84 217.17 545.78 L 211.39 544.99 C 209.49 544.74 208.54 543.65 208.54 541.72 L 208.54 539.81 C 208.54 539.42 208.63 539.02 208.80 538.67 C 208.97 538.31 209.21 537.99 209.51 537.73 C 209.81 537.48 210.16 537.29 210.54 537.18 C 210.92 537.07 211.32 537.04 211.71 537.11 C 227.72 539.49 238.54 540.79 258.37 541.35 C 286.55 542.14 317.34 559.22 310.16 592.62 C 303.11 625.38 256.41 623.56 232.57 629.86 C 232.26 629.92 231.94 629.92 231.64 629.86 L 206.72 624.68 C 204.86 624.30 203.56 623.25 202.85 621.50 C 201.36 617.80 202.26 613.96 205.56 609.98 C 206.27 609.08 207.20 608.60 208.35 608.53 C 209.35 608.47 210.28 607.73 211.15 606.29 C 211.48 605.75 211.65 605.12 211.63 604.48 C 211.61 603.84 211.41 603.22 211.05 602.69 C 210.69 602.16 210.19 601.75 209.61 601.49 C 209.02 601.24 208.38 601.16 207.75 601.26 L 140.43 611.99 Z" fill="#fcd9c8" fill-rule="nonzero" node-id="147" stroke="none" target-height="92.87201" target-width="198.903" target-x="118.438" target-y="537.045"></path><path d="M 443.17 636.71 L 438.92 641.80 C 437.52 643.48 436.90 643.23 437.06 641.05 C 437.15 639.75 437.46 638.14 437.99 636.25 C 450.03 593.42 468.92 552.17 515.02 541.44 C 516.54 541.07 517.99 541.26 519.36 542.00 C 538.95 552.27 560.32 611.15 566.80 633.63 C 568.53 639.70 567.74 642.83 563.03 646.51 C 561.88 647.39 561.07 648.62 560.74 650.01 C 553.93 677.63 535.45 737.77 492.67 715.93 C 468.18 703.43 452.92 664.43 446.16 637.37 C 445.60 635.16 444.60 634.94 443.17 636.71 Z M 460.34 657.57 C 467.48 679.54 498.69 734.64 528.13 700.35 C 539.29 687.38 547.57 670.62 552.95 650.06 C 562.93 638.14 559.00 619.96 541.14 595.52 C 515.67 560.67 482.78 583.29 463.70 609.47 C 452.03 625.42 450.91 641.46 460.34 657.57 Z" fill="#412d27" fill-rule="nonzero" node-id="149" stroke="none" target-height="196.69702" target-width="131.629" target-x="436.902" target-y="541.071"></path><path d="M 109.73 632.98 C 109.10 634.75 108.02 636.43 106.46 638.02 C 105.25 639.26 105.14 640.62 106.13 642.08 C 115.65 656.04 119.94 671.19 119.01 687.52 C 119.35 696.38 116.18 702.15 109.49 704.83 C 107.97 705.45 106.83 706.48 106.09 707.91 L 90.64 737.39 C 89.84 738.92 89.57 740.54 89.85 742.25 L 95.78 779.43 C 94.35 791.19 96.13 803.09 101.14 815.12 C 93.09 810.67 86.59 808.29 81.64 807.98 C 59.25 806.52 43.13 797.00 33.31 779.43 C 48.56 780.13 46.42 765.29 55.42 757.55 C 56.54 756.62 57.36 755.47 57.89 754.10 C 61.67 744.25 69.28 739.73 71.89 730.49 C 74.91 719.82 75.20 709.09 72.78 698.30 C 72.53 697.05 72.87 696.03 73.80 695.22 C 74.58 694.53 74.87 693.51 74.69 692.14 C 72.95 679.36 75.23 666.45 81.55 653.42 L 49.59 606.90 C 48.21 604.89 47.53 602.48 47.67 600.04 C 47.80 597.60 48.74 595.27 50.33 593.42 L 76.65 562.81 C 77.74 561.54 78.53 561.71 79.03 563.33 C 86.49 587.65 96.72 610.87 109.73 632.98 Z" fill="#d7cab8" fill-rule="nonzero" node-id="151" stroke="none" target-height="253.58502" target-width="86.638596" target-x="33.3054" target-y="561.537"></path><path d="M 552.95 650.06 C 528.13 623.96 498.91 620.62 465.28 640.03 C 464.67 640.38 464.14 640.86 463.73 641.44 C 463.32 642.02 463.04 642.68 462.90 643.38 L 460.34 657.57 C 450.91 641.46 452.03 625.42 463.70 609.47 C 482.78 583.29 515.67 560.67 541.14 595.52 C 559.00 619.96 562.93 638.14 552.95 650.06 Z" fill="#c6626b" fill-rule="nonzero" node-id="153" stroke="none" target-height="96.90198" target-width="112.01901" target-x="450.913" target-y="560.666"></path><path d="M 50.19 618.24 C 18.80 668.53 6.67 723.68 33.31 779.43 C 43.13 797.00 59.25 806.52 81.64 807.98 C 86.59 808.29 93.09 810.67 101.14 815.12 C 106.34 829.49 112.74 840.39 120.36 847.83 C 143.44 874.05 168.79 883.92 196.41 877.45 L 205.88 881.61 C 212.69 881.61 217.45 879.49 220.16 875.26 L 240.55 918.88 C 241.76 921.43 240.97 922.55 238.17 922.24 C 143.13 911.51 50.75 869.43 18.75 770.71 C 0.65 714.97 8.21 660.40 41.42 606.99 C 41.64 606.63 41.95 606.34 42.33 606.15 C 42.70 605.95 43.12 605.87 43.54 605.89 C 43.96 605.92 44.36 606.07 44.70 606.31 C 45.05 606.55 45.32 606.89 45.48 607.27 L 50.19 618.24 Z" fill="#cec3b9" fill-rule="nonzero" node-id="155" stroke="none" target-height="316.687" target-width="241.1128" target-x="0.647204" target-y="605.865"></path><path d="M 762.48 885.99 C 753.14 897.38 743.44 903.64 733.36 904.79 C 708.78 907.64 664.45 906.38 621.25 916.97 C 619.85 917.31 618.45 917.26 617.05 916.83 C 612.88 915.46 609.74 916.33 607.63 919.44 C 609.00 903.70 613.37 888.15 620.74 872.79 C 621.58 871.01 621.07 870.41 619.20 870.97 C 617.92 871.34 616.40 872.68 614.63 874.98 C 602.09 870.94 585.89 870.88 566.01 874.79 C 581.08 866.68 599.84 865.32 611.31 862.06 C 722.68 830.28 849.07 765.67 908.23 660.51 C 913.42 651.27 918.72 642.83 924.13 635.17 C 931.23 633.12 937.04 626.67 941.58 615.81 C 942.08 614.60 941.80 613.63 940.74 612.92 L 939.35 611.99 C 941.27 612.64 941.48 610.80 939.95 606.48 C 942.25 607.45 944.93 607.66 947.98 607.13 C 949.19 606.92 949.58 607.38 949.14 608.53 C 916.86 696.11 874.45 758.67 801.06 810.18 C 778.14 826.26 755.17 842.26 732.15 858.18 C 731.09 858.90 731.06 859.66 732.06 860.47 C 732.68 860.94 733.28 860.91 733.88 860.38 C 742.74 852.26 764.81 842.51 776.15 836.68 C 777.89 835.77 778.46 836.26 777.87 838.12 L 762.48 885.99 Z" fill="#d7cab8" fill-rule="nonzero" node-id="157" stroke="none" target-height="312.961" target-width="383.56598" target-x="566.012" target-y="606.481"></path><path d="M 939.34 611.99 L 940.74 612.92 C 941.80 613.63 942.08 614.60 941.58 615.81 C 937.04 626.67 931.23 633.12 924.13 635.17 L 939.34 611.99 Z" fill="#aaa1a1" fill-rule="nonzero" node-id="159" stroke="none" target-height="23.187988" target-width="17.947021" target-x="924.134" target-y="611.986"></path><path d="M 50.20 618.24 L 81.55 653.42 C 75.23 666.45 72.95 679.36 74.69 692.14 C 74.88 693.51 74.58 694.53 73.80 695.22 C 72.87 696.03 72.53 697.05 72.78 698.30 C 75.20 709.09 74.91 719.82 71.89 730.49 C 69.28 739.73 61.67 744.25 57.89 754.10 C 57.36 755.47 56.54 756.62 55.42 757.55 C 46.42 765.29 48.56 780.13 33.31 779.43 C 6.67 723.68 18.80 668.53 50.20 618.24 Z" fill="#fcecdc" fill-rule="nonzero" node-id="161" stroke="none" target-height="161.893" target-width="74.8813" target-x="6.6663" target-y="618.238"></path><path d="M 552.95 650.06 C 547.57 670.62 539.29 687.38 528.13 700.35 C 498.69 734.64 467.48 679.54 460.34 657.57 L 462.90 643.38 C 463.04 642.68 463.32 642.02 463.73 641.44 C 464.14 640.86 464.67 640.38 465.28 640.03 C 498.91 620.62 528.13 623.96 552.95 650.06 Z" fill="#fba2b7" fill-rule="nonzero" node-id="163" stroke="none" target-height="114.02405" target-width="92.609985" target-x="460.338" target-y="620.618"></path><path d="M 109.73 632.98 C 139.49 679.51 174.70 721.42 215.35 758.72 C 216.57 759.84 217.02 761.22 216.71 762.87 C 209.61 800.97 210.76 838.43 220.16 875.26 C 217.45 879.49 212.69 881.61 205.88 881.61 C 182.77 861.58 166.41 837.86 156.80 810.46 C 157.70 785.64 157.52 761.47 156.24 737.96 C 155.68 728.02 163.38 717.29 149.24 709.73 C 147.84 709.01 146.41 708.89 144.95 709.36 C 137.14 711.84 129.24 712.08 121.25 710.05 C 120.49 709.87 119.82 709.43 119.35 708.81 C 118.88 708.19 118.62 707.43 118.64 706.65 L 119.01 687.52 C 119.94 671.19 115.65 656.04 106.13 642.08 C 105.14 640.62 105.25 639.26 106.46 638.02 C 108.02 636.43 109.10 634.75 109.73 632.98 Z" fill="#bba99b" fill-rule="nonzero" node-id="165" stroke="none" target-height="248.62396" target-width="115.019005" target-x="105.139" target-y="632.981"></path><path d="M 119.01 687.52 L 118.64 706.65 C 118.62 707.43 118.88 708.19 119.35 708.81 C 119.83 709.43 120.49 709.87 121.25 710.05 C 129.24 712.08 137.14 711.84 144.95 709.36 C 146.41 708.89 147.84 709.01 149.24 709.73 C 163.38 717.29 155.68 728.02 156.24 737.96 C 157.52 761.47 157.70 785.64 156.80 810.46 C 160.16 834.22 173.36 856.55 196.41 877.45 C 168.79 883.92 143.44 874.05 120.36 847.83 C 108.48 828.04 100.29 805.25 95.78 779.43 L 89.85 742.25 C 89.57 740.54 89.84 738.92 90.64 737.39 L 106.09 707.91 C 106.83 706.48 107.97 705.45 109.49 704.83 C 116.18 702.15 119.35 696.38 119.01 687.52 Z" fill="#d9c6b9" fill-rule="nonzero" node-id="167" stroke="none" target-height="196.401" target-width="106.83949" target-x="89.5715" target-y="687.521"></path><path d="M 225.94 782.46 L 220.25 786.90 C 218.67 788.11 217.97 787.72 218.15 785.73 C 219.15 773.82 222.34 762.95 227.72 753.12 L 230.75 739.54 L 237.93 728.25 C 239.30 726.07 239.82 726.13 239.47 728.44 C 238.68 734.27 233.22 740.05 232.57 747.80 C 231.36 763.43 229.86 770.29 225.94 782.46 Z" fill="#715337" fill-rule="nonzero" node-id="169" stroke="none" target-height="62.03601" target-width="21.84999" target-x="217.966" target-y="726.073"></path><path d="M 120.36 847.83 C 112.74 840.39 106.34 829.49 101.14 815.12 C 96.13 803.09 94.35 791.19 95.78 779.43 C 100.29 805.25 108.48 828.04 120.36 847.83 Z" fill="#bba99b" fill-rule="nonzero" node-id="171" stroke="none" target-height="68.395996" target-width="26.017998" target-x="94.346" target-y="779.431"></path><path d="M 156.80 810.46 C 166.41 837.86 182.77 861.58 205.88 881.61 L 196.41 877.45 C 173.36 856.55 160.16 834.22 156.80 810.46 Z" fill="#412d27" fill-rule="nonzero" node-id="173" stroke="none" target-height="71.14801" target-width="49.08101" target-x="156.801" target-y="810.457"></path></g></svg>