<?xml version="1.0" standalone="no"?><!DOCTYPE svg PUBLIC "-//W3C//DTD SVG 1.1//EN" "http://www.w3.org/Graphics/SVG/1.1/DTD/svg11.dtd"><svg height="1024" node-id="1" sillyvg="true" template-height="1024" template-width="1024" version="1.1" viewBox="0 0 1024 1024" width="1024" xmlns="http://www.w3.org/2000/svg" xmlns:xlink="http://www.w3.org/1999/xlink"><defs node-id="100"><clipPath id="clip0_2_4797" node-id="97"><path d="M 0.00 0.00 L 1024.00 0.00 L 1024.00 1024.00 L 0.00 1024.00 Z" fill="#000000" fill-rule="nonzero" node-id="103" stroke="none" target-height="1024" target-width="1024" target-x="0" target-y="0"></path></clipPath></defs><g clip-path="url(#clip0_2_4797)" id="sillyvg_g_0" node-id="107"><path d="M 0.00 0.00 L 1024.00 0.00 L 1024.00 1024.00 L 0.00 1024.00 Z" fill="#ffffff" fill-rule="nonzero" node-id="109" stroke="none" target-height="1024" target-width="1024" target-x="0" target-y="0"></path><path d="M 0.00 0.00 L 1024.00 0.00 L 1024.00 1024.00 L 0.00 1024.00 Z" fill="#ffffff" fill-rule="nonzero" node-id="111" stroke="none" target-height="1024" target-width="1024" target-x="0" target-y="0"></path><path d="M 987.76 363.68 C 988.18 367.26 984.62 367.17 977.07 363.41 L 959.94 325.23 C 914.42 242.97 857.63 172.93 777.34 122.31 C 775.56 121.21 775.65 120.29 777.60 119.54 L 795.04 113.11 C 826.88 101.27 859.57 93.73 893.10 90.51 L 895.76 91.36 C 896.21 91.52 896.60 91.83 896.86 92.24 C 897.12 92.64 897.24 93.12 897.19 93.60 C 897.15 94.08 896.95 94.53 896.62 94.89 C 896.30 95.24 895.86 95.48 895.39 95.56 C 860.58 100.56 826.88 109.79 794.30 123.27 C 792.07 124.19 791.91 125.41 793.82 126.93 C 803.50 134.56 813.25 142.02 823.07 149.32 C 845.46 166.02 863.06 185.59 882.89 204.15 C 910.79 235.41 935.39 268.61 956.70 303.75 C 957.37 304.81 957.80 304.72 957.98 303.48 L 967.39 242.11 L 968.45 227.92 C 971.64 197.68 973.01 160.17 972.55 115.39 C 972.23 86.79 965.14 66.06 951.28 53.23 C 876.09 29.09 770.69 53.66 700.92 84.55 C 697.06 85.15 698.63 82.62 705.65 76.95 C 707.46 75.46 707.25 74.36 705.02 73.65 L 663.75 60.30 C 519.11 20.37 364.53 32.01 244.56 126.24 C 234.51 134.17 230.31 147.67 213.19 149.11 C 211.45 149.25 209.91 149.89 208.56 151.02 L 155.70 195.74 C 104.65 249.56 68.69 312.66 47.81 385.05 L 41.43 384.63 C 39.72 384.52 38.63 385.30 38.13 386.97 L 13.08 473.91 C 21.59 407.01 42.74 345.21 76.52 288.48 C 81.31 286.07 85.01 281.04 87.64 273.38 C 91.18 270.55 94.04 266.49 96.20 261.20 L 134.91 209.20 L 209.52 144.85 C 210.86 143.65 212.44 143.08 214.25 143.15 C 222.87 143.44 227.44 139.40 227.97 131.03 L 264.98 100.35 C 266.82 98.82 266.58 97.81 264.24 97.31 C 225.84 89.30 186.83 85.03 147.19 84.50 L 149.53 83.06 C 151.09 82.11 151.61 80.76 151.08 79.02 L 149.96 75.30 C 191.65 75.30 232.42 80.56 272.27 91.09 C 273.97 91.55 275.58 91.32 277.11 90.40 C 390.11 22.55 523.90 12.60 648.97 44.24 C 671.27 49.88 692.66 57.93 713.15 68.39 C 714.71 69.17 716.29 69.22 717.88 68.55 C 770.00 46.53 962.18 -6.49 977.12 82.05 C 990.10 158.89 980.79 234.56 964.62 310.07 C 964.28 311.63 964.45 313.25 965.10 314.70 L 987.76 363.68 Z" fill="#2e1e1b" fill-rule="nonzero" node-id="113" stroke="none" target-height="480.39703" target-width="977.0118" target-x="13.0832" target-y="-6.48603"></path><path d="M 663.75 60.30 C 644.93 70.87 624.38 76.45 602.12 77.05 C 471.09 80.46 354.58 157.14 249.93 233.98 C 248.51 235.01 246.92 235.47 245.15 235.36 C 238.38 234.83 231.39 236.58 224.19 240.62 C 208.35 249.49 192.98 249.04 178.09 239.30 C 176.67 238.37 175.15 237.95 173.52 238.02 C 171.75 238.06 170.10 237.79 168.57 237.22 C 168.00 237.01 167.56 236.67 167.24 236.21 C 166.82 235.57 166.59 234.90 166.55 234.19 C 166.52 232.81 165.81 232.13 164.42 232.17 C 158.75 232.24 153.06 232.65 147.35 233.39 C 141.93 234.10 140.41 231.27 142.78 224.88 C 143.35 223.43 144.39 222.71 145.92 222.71 L 153.90 222.71 C 154.08 222.72 154.27 222.69 154.45 222.63 C 154.63 222.56 154.79 222.47 154.93 222.34 C 155.07 222.22 155.19 222.06 155.27 221.89 C 155.35 221.72 155.40 221.54 155.41 221.35 C 155.42 221.16 155.39 220.97 155.33 220.79 C 155.27 220.62 155.17 220.45 155.05 220.31 C 154.92 220.17 154.77 220.06 154.60 219.97 C 154.43 219.89 154.24 219.84 154.05 219.83 C 153.42 219.73 152.74 219.76 152.03 219.94 C 151.53 220.05 151.01 219.99 150.55 219.78 C 150.08 219.57 149.70 219.21 149.45 218.77 C 149.20 218.32 149.10 217.81 149.16 217.30 C 149.22 216.79 149.45 216.32 149.80 215.95 L 161.61 203.35 C 162.74 202.14 162.58 201.13 161.13 200.32 C 158.89 199.15 157.09 197.62 155.70 195.74 L 208.56 151.02 C 209.91 149.89 211.45 149.25 213.19 149.11 C 230.31 147.67 234.51 134.17 244.56 126.24 C 364.53 32.01 519.11 20.37 663.75 60.30 Z" fill="#fefefe" fill-rule="nonzero" node-id="115" stroke="none" target-height="229.1201" target-width="523.345" target-x="140.406" target-y="20.3679"></path><path d="M 951.28 53.23 C 935.71 67.84 929.08 78.70 931.39 85.83 L 909.43 89.92 L 893.10 90.51 C 859.57 93.73 826.88 101.27 795.04 113.11 C 792.00 110.13 788.15 109.60 783.50 111.51 C 781.87 112.19 780.62 111.76 779.73 110.24 C 775.69 103.15 769.54 99.64 761.28 99.71 C 760.49 99.72 759.70 99.58 758.96 99.27 C 758.22 98.97 757.54 98.52 756.97 97.95 C 745.62 86.54 732.44 84.91 717.41 93.06 C 716.72 93.44 715.93 93.63 715.14 93.59 C 714.35 93.55 713.59 93.29 712.94 92.85 L 700.92 84.55 C 770.69 53.66 876.09 29.09 951.28 53.23 Z" fill="#fdfbf5" fill-rule="nonzero" node-id="117" stroke="none" target-height="84.0187" target-width="250.35498" target-x="700.921" target-y="29.0893"></path><path d="M 951.28 53.23 C 965.14 66.06 972.23 86.79 972.55 115.39 C 973.01 160.17 971.64 197.68 968.45 227.92 C 966.43 231.85 964.39 233.50 962.34 232.86 C 959.30 231.94 956.62 230.11 954.66 227.62 C 952.70 225.12 951.55 222.09 951.38 218.93 C 948.87 174.23 942.20 129.86 931.39 85.83 C 929.08 78.70 935.71 67.84 951.28 53.23 Z" fill="#fcd9c8" fill-rule="nonzero" node-id="119" stroke="none" target-height="180.2688" target-width="43.92401" target-x="929.084" target-y="53.2312"></path><path d="M 663.75 60.30 L 705.02 73.65 C 707.25 74.36 707.46 75.46 705.65 76.95 C 698.63 82.62 697.06 85.15 700.92 84.55 L 712.94 92.85 C 713.59 93.29 714.35 93.55 715.14 93.59 C 715.93 93.63 716.72 93.44 717.41 93.06 C 732.44 84.91 745.62 86.54 756.97 97.95 C 757.54 98.52 758.22 98.97 758.96 99.27 C 759.70 99.58 760.49 99.72 761.28 99.71 C 769.54 99.64 775.69 103.15 779.73 110.24 C 780.62 111.76 781.87 112.19 783.50 111.51 C 788.15 109.60 792.00 110.13 795.04 113.11 L 777.60 119.54 C 775.65 120.29 775.56 121.21 777.34 122.31 C 857.63 172.93 914.42 242.97 959.94 325.23 C 957.99 330.97 957.75 336.79 959.20 342.67 C 962.92 357.40 962.34 368.78 964.57 381.65 C 964.89 383.49 964.79 385.38 964.27 387.17 C 963.75 388.96 962.83 390.61 961.57 391.98 C 960.31 393.36 958.75 394.43 957.01 395.11 C 955.27 395.79 953.40 396.06 951.54 395.90 L 917.19 392.92 C 914.71 392.71 914.19 393.61 915.65 395.63 L 945.16 436.31 L 960.05 463.27 C 960.16 471.11 961.11 478.89 962.92 486.62 C 973.24 530.86 962.12 582.66 947.55 628.12 C 945.57 634.25 942.98 637.52 939.79 637.91 C 932.29 634.72 925.91 629.40 917.93 627.96 C 886.13 622.01 854.19 615.06 822.11 607.12 C 820.76 606.80 820.00 605.95 819.82 604.57 C 818.23 592.58 823.28 586.24 834.98 585.53 C 858.91 584.08 882.84 582.36 906.77 580.37 C 908.72 580.23 908.86 579.64 907.19 578.62 C 906.24 578.05 905.12 577.76 903.84 577.76 C 858.29 578.54 812.93 577.50 767.76 574.63 C 767.43 574.60 767.11 574.50 766.82 574.34 C 766.53 574.17 766.29 573.94 766.10 573.67 C 765.92 573.40 765.80 573.09 765.76 572.77 C 765.71 572.44 765.74 572.12 765.85 571.81 C 766.27 570.50 767.23 569.59 768.72 569.10 C 810.45 555.41 852.67 543.38 895.39 532.99 C 896.88 532.63 897.25 531.78 896.50 530.44 C 896.18 529.83 895.69 529.37 895.01 529.05 C 894.16 528.59 892.98 528.58 891.45 529.00 C 857.63 538.15 825.46 529.85 792.97 537.08 C 787.58 538.29 784.41 535.97 783.45 530.12 C 786.32 531.39 788.77 531.68 790.79 530.97 C 791.51 530.74 792.12 530.25 792.51 529.60 C 792.90 528.94 793.05 528.16 792.92 527.41 C 787.35 496.21 777.81 466.38 764.31 437.91 C 763.30 435.73 761.17 434.13 758.88 433.71 L 758.78 431.26 L 774.57 426.69 C 775.78 426.33 776.08 425.61 775.47 424.51 C 775.08 423.76 774.59 423.45 773.99 423.55 C 753.14 427.59 734.32 424.63 717.51 414.67 C 717.73 412.94 717.80 411.45 717.73 410.20 C 717.65 408.72 717.05 407.46 715.92 406.43 C 713.61 404.27 711.08 404.00 708.31 405.63 C 705.73 407.16 705.92 408.08 708.90 408.40 C 714.92 409.07 717.00 410.91 715.12 413.93 C 715.40 416.41 714.59 417.30 712.67 416.59 L 687.20 403.35 L 677.68 396.43 C 675.13 395.23 674.79 394.23 676.67 393.45 C 704.75 395.95 733.94 412.65 759.52 390.69 C 760.73 389.66 760.55 389.08 758.99 388.93 C 756.69 388.72 754.06 389.32 751.12 390.74 C 750.34 390.18 749.49 390.00 748.57 390.21 C 671.62 360.32 606.37 367.19 530.17 401.70 C 544.60 378.83 566.60 368.05 596.16 369.37 C 598.61 369.47 600.90 368.21 603.02 365.59 C 604.23 364.14 605.77 363.20 607.65 362.77 L 653.91 352.19 C 655.04 351.92 656.04 351.30 656.78 350.41 C 657.51 349.52 657.94 348.42 658.00 347.26 C 658.05 346.11 657.73 344.97 657.08 344.02 C 656.43 343.07 655.49 342.35 654.39 341.98 C 610.31 327.68 578.77 338.58 536.98 362.45 C 517.12 373.80 497.34 385.57 477.63 397.76 C 475.58 393.86 473.54 391.82 471.52 391.65 C 471.21 391.62 470.90 391.67 470.62 391.79 C 470.34 391.91 470.09 392.11 469.91 392.35 C 469.72 392.60 469.60 392.88 469.56 393.19 C 469.51 393.49 469.55 393.81 469.66 394.09 C 479.62 419.90 496.70 439.50 520.92 452.91 C 521.30 453.12 521.61 453.44 521.84 453.81 C 522.06 454.18 522.19 454.61 522.21 455.04 C 522.22 455.47 522.13 455.90 521.93 456.28 C 521.73 456.66 521.44 456.98 521.08 457.21 C 519.62 458.17 517.30 458.67 514.11 458.70 C 505.78 452.25 496.63 451.77 486.67 457.27 C 482.74 456.06 479.30 453.97 476.36 450.99 C 475.26 449.89 474.60 450.12 474.39 451.68 C 474.25 452.75 474.60 453.62 475.45 454.29 C 484.99 462.02 494.95 469.11 505.34 475.56 C 506.90 476.52 508.39 476.41 509.81 475.24 C 511.47 473.86 512.00 472.07 511.40 469.87 C 512.78 470.30 513.23 469.48 512.73 467.42 L 519.59 465.08 C 527.42 462.42 532.28 465.14 534.16 473.22 L 540.81 502.09 C 571.97 595.63 725.22 593.45 729.58 485.98 C 730.50 462.83 724.12 440.16 710.44 417.97 C 753.19 436.15 764.41 476.52 772.92 521.56 C 773.28 523.33 772.60 524.50 770.90 525.07 L 722.78 541.50 C 713.99 542.28 709.08 547.29 708.05 556.55 C 707.95 557.47 707.63 558.36 707.13 559.13 C 706.64 559.91 705.97 560.55 705.17 561.01 C 691.81 569.03 684.37 580.71 682.84 596.06 C 682.66 597.76 681.76 598.82 680.13 599.25 C 678.22 599.71 677.24 600.95 677.20 602.97 C 617.82 607.72 571.95 588.65 539.58 545.75 C 528.79 531.45 522.57 511.40 516.24 493.90 C 515.78 492.66 515.19 492.59 514.48 493.69 C 514.06 494.30 513.92 494.83 514.06 495.29 C 533.31 569.70 583.13 607.37 663.54 608.29 C 660.35 620.55 661.85 629.12 668.06 633.97 C 688.23 649.71 710.72 660.08 735.54 665.08 C 769.25 671.89 821.95 644.39 852.47 630.67 C 860.56 627.02 868.55 625.46 876.46 626.00 C 897.90 627.41 918.47 631.58 938.14 638.49 L 946.60 645.25 C 946.95 645.53 947.22 645.90 947.39 646.33 C 947.55 646.75 947.60 647.21 947.53 647.66 C 947.46 648.10 947.27 648.52 946.99 648.86 C 946.70 649.20 946.33 649.46 945.90 649.61 L 935.27 653.54 C 933.82 654.07 932.74 655.05 932.03 656.47 C 921.50 677.59 908.88 697.39 894.16 715.86 C 892.96 717.39 893.33 718.12 895.28 718.04 L 906.18 717.67 C 910.15 717.57 910.88 719.04 908.36 722.09 C 869.62 769.55 824.13 809.31 771.91 841.36 L 726.39 865.98 C 606.99 912.07 486.89 912.51 366.07 867.31 C 273.54 832.69 149.16 738.78 97.90 653.38 C 126.19 662.95 148.42 668.22 164.58 669.17 C 184.74 670.34 224.51 668.11 245.25 653.86 C 251.53 649.50 262.37 649.92 261.84 637.80 C 261.81 636.95 262.14 636.29 262.85 635.83 L 281.84 623.39 C 283.36 622.40 283.91 621.01 283.49 619.24 L 280.35 605.42 C 339.85 607.97 359.85 555.27 378.09 509.17 C 378.23 508.81 378.12 508.74 377.77 508.95 L 374.84 510.65 C 374.72 510.72 374.62 510.82 374.54 510.93 C 374.45 511.04 374.40 511.16 374.36 511.29 C 357.40 558.57 337.46 597.71 282.16 603.02 C 274.57 598.98 272.18 593.38 274.98 586.22 C 275.60 584.59 275.77 582.82 275.46 581.11 C 274.18 574.34 270.78 569.41 265.25 566.33 C 264.75 566.05 264.79 565.87 265.35 565.80 L 268.01 565.43 C 268.09 565.42 268.16 565.39 268.22 565.34 C 268.28 565.29 268.33 565.22 268.34 565.14 C 268.36 565.06 268.35 564.98 268.32 564.91 C 268.29 564.84 268.24 564.78 268.17 564.74 C 267.14 564.06 266.95 563.41 267.59 562.77 C 325.97 575.16 346.45 539.42 358.41 489.70 C 356.53 486.65 355.59 482.76 355.59 478.00 L 359.37 480.24 C 361.14 481.30 362.74 481.07 364.15 479.55 C 375.64 467.10 389.22 459.11 404.89 455.56 C 413.68 458.93 419.07 456.20 421.05 447.38 C 421.12 447.06 421.07 446.73 420.92 446.44 C 420.77 446.16 420.53 445.93 420.23 445.80 C 419.94 445.68 419.62 445.66 419.32 445.75 C 419.03 445.84 418.77 446.04 418.61 446.31 L 413.40 454.02 C 412.58 455.26 411.46 455.67 410.05 455.25 C 408.88 454.89 407.72 453.97 406.59 452.48 C 393.79 456.45 384.61 454.18 379.04 445.67 L 380.11 439.56 L 387.02 435.52 C 389.25 434.95 391.45 433.78 393.61 432.01 C 394.82 431.01 394.68 430.24 393.19 429.67 C 366.49 419.78 341.39 400.63 315.87 393.30 C 270.99 380.43 201.22 360.75 155.22 364.90 C 150.69 365.29 150.67 365.80 155.17 366.44 L 225.74 376.44 C 226.52 379.10 226.04 381.12 224.30 382.50 C 223.24 383.31 221.53 383.60 219.19 383.35 C 215.22 382.93 211.18 382.84 207.07 383.08 C 206.76 383.07 206.46 383.18 206.23 383.39 C 206.00 383.60 205.86 383.89 205.85 384.20 C 205.83 384.51 205.94 384.81 206.15 385.05 C 206.36 385.27 206.65 385.41 206.96 385.43 C 214.20 386.38 217.94 388.85 218.19 392.82 L 202.02 394.73 L 140.39 378.19 C 137.66 377.45 137.28 378.09 139.27 380.11 C 151.04 392.02 164.12 402.26 178.51 410.84 C 179.65 411.52 179.84 412.40 179.10 413.50 C 178.85 413.86 178.50 414.16 178.04 414.41 C 166.98 412.44 143.15 425.20 127.04 424.99 C 126.58 424.99 126.21 425.08 125.92 425.25 C 125.50 425.50 125.09 425.82 124.70 426.21 C 123.92 427.03 124.10 427.43 125.23 427.43 C 141.65 427.40 158.04 424.58 174.42 418.98 C 152.76 452.02 146.40 486.44 155.33 522.25 C 151.71 525.54 149.00 530.58 147.19 537.35 C 145.14 536.43 143.37 535.79 141.88 535.44 C 141.39 535.32 140.86 535.39 140.42 535.65 C 139.98 535.91 139.66 536.33 139.52 536.82 C 139.39 537.30 139.46 537.82 139.71 538.25 C 139.96 538.68 140.38 538.99 140.87 539.11 L 210.37 556.76 C 209.73 567.68 202.53 572.61 188.78 571.54 C 145.74 568.28 102.79 564.29 59.93 559.58 C 59.53 559.54 59.12 559.64 58.78 559.87 C 58.44 560.10 58.19 560.44 58.08 560.83 C 57.97 561.21 58.01 561.62 58.18 561.98 C 58.35 562.34 58.65 562.62 59.03 562.77 C 60.23 563.34 61.54 564.03 62.96 564.84 C 64.27 565.62 65.69 566.08 67.22 566.23 C 86.11 568.14 105.04 570.57 124.01 573.51 C 126.31 573.87 127.47 575.21 127.47 577.55 L 127.47 581.54 C 127.47 581.99 127.57 582.44 127.77 582.85 C 127.97 583.25 128.26 583.61 128.62 583.89 C 128.98 584.16 129.40 584.35 129.84 584.45 C 130.29 584.54 130.75 584.52 131.19 584.41 C 133.46 583.84 135.46 584.13 137.20 585.26 C 139.89 587.00 139.64 588.10 136.45 588.56 C 128.65 589.66 121.69 592.55 115.55 597.23 C 114.10 598.33 112.49 598.88 110.72 598.88 L 79.77 599.09 C 77.71 595.47 73.19 595.63 66.21 599.57 C 57.38 582.23 30.42 525.01 39.62 505.12 C 40.26 503.74 39.99 502.57 38.82 501.62 C 37.15 500.23 35.86 498.53 34.94 496.51 L 40.42 488.43 L 71.42 443.60 C 73.47 440.59 73.07 440.20 70.19 442.43 C 58.46 451.50 47.42 461.34 37.07 471.94 C 36.47 472.54 35.69 472.94 34.86 473.06 C 34.02 473.19 33.16 473.04 32.41 472.64 C 31.67 472.24 31.07 471.61 30.71 470.84 C 30.35 470.07 30.25 469.21 30.42 468.38 L 47.81 385.05 C 68.69 312.66 104.65 249.56 155.70 195.74 C 157.09 197.62 158.89 199.15 161.13 200.32 C 162.58 201.13 162.74 202.14 161.60 203.35 L 149.80 215.95 C 149.45 216.32 149.22 216.79 149.16 217.30 C 149.10 217.81 149.20 218.32 149.45 218.77 C 149.70 219.21 150.08 219.57 150.55 219.78 C 151.01 219.99 151.53 220.05 152.03 219.94 C 152.74 219.76 153.42 219.73 154.05 219.83 C 154.24 219.84 154.43 219.89 154.60 219.97 C 154.77 220.06 154.92 220.17 155.05 220.31 C 155.17 220.45 155.27 220.62 155.33 220.79 C 155.39 220.97 155.42 221.16 155.41 221.35 C 155.40 221.54 155.35 221.72 155.27 221.89 C 155.19 222.06 155.07 222.22 154.93 222.34 C 154.79 222.47 154.63 222.56 154.45 222.63 C 154.27 222.69 154.08 222.72 153.89 222.71 L 145.92 222.71 C 144.39 222.71 143.35 223.43 142.78 224.88 C 140.41 231.27 141.93 234.10 147.35 233.39 C 153.06 232.65 158.75 232.24 164.42 232.17 C 165.81 232.13 166.51 232.81 166.55 234.19 C 166.59 234.90 166.82 235.57 167.24 236.21 C 167.56 236.67 168.00 237.01 168.57 237.22 C 170.09 237.79 171.74 238.06 173.52 238.02 C 175.15 237.95 176.67 238.37 178.09 239.30 C 192.98 249.04 208.35 249.49 224.19 240.62 C 231.39 236.58 238.37 234.83 245.15 235.36 C 246.92 235.47 248.51 235.01 249.93 233.98 C 354.58 157.14 471.09 80.46 602.12 77.05 C 624.38 76.45 644.93 70.87 663.75 60.30 Z M 376.81 295.98 C 374.97 295.13 373.57 293.50 372.61 291.09 C 360.91 273.61 344.96 260.23 324.75 250.94 C 286.89 233.50 209.20 258.01 181.87 284.65 C 181.81 284.70 181.78 284.77 181.77 284.84 C 181.76 284.91 181.78 284.99 181.81 285.05 C 181.85 285.11 181.91 285.15 181.97 285.18 C 182.04 285.21 182.12 285.21 182.18 285.19 C 217.95 269.23 252.89 262.73 287.00 265.67 L 304.38 269.39 C 330.37 277.26 353.47 290.84 373.67 310.13 C 374.88 311.26 376.33 311.83 378.03 311.83 L 379.95 311.83 L 406.11 362.77 C 406.89 364.30 408.15 365.02 409.89 364.95 C 412.30 364.85 413.48 363.66 413.45 361.39 L 424.14 362.56 C 425.80 362.74 427.15 362.17 428.18 360.86 L 451.63 331.08 C 465.70 321.93 478.36 312.08 489.60 301.51 C 547.29 247.38 644.61 255.04 714.85 272.05 C 714.88 272.06 714.91 272.06 714.94 272.04 C 714.96 272.02 714.98 272.00 714.99 271.97 C 714.99 271.94 714.99 271.92 714.97 271.89 C 714.96 271.87 714.93 271.85 714.91 271.84 C 703.70 261.45 693.03 255.60 682.89 254.29 L 635.62 236.32 C 599.64 226.25 563.21 227.53 526.34 240.15 C 517.62 243.12 510.37 246.87 504.59 251.37 L 477.05 274.23 C 452.06 300.08 429.99 327.87 410.84 357.61 C 409.78 359.28 408.84 359.21 408.02 357.40 C 402.02 344.37 393.03 330.92 389.52 318.21 C 377.96 275.92 387.78 239.10 418.98 207.76 C 419.44 207.30 419.40 206.98 418.87 206.81 C 418.62 206.73 418.32 206.70 417.97 206.70 C 417.54 206.73 417.10 206.91 416.64 207.23 C 388.28 229.03 375.00 258.62 376.81 295.98 Z M 451.74 345.01 C 450.81 345.29 450.07 345.86 449.50 346.71 C 449.39 346.88 449.34 347.07 449.35 347.26 C 449.36 347.46 449.44 347.65 449.56 347.80 C 449.69 347.95 449.86 348.05 450.05 348.10 C 450.24 348.14 450.44 348.12 450.62 348.04 C 459.20 344.25 465.90 338.36 470.72 330.39 C 470.92 330.13 471.02 329.81 470.99 329.48 C 470.95 329.16 470.79 328.86 470.53 328.66 C 470.28 328.45 469.95 328.36 469.63 328.39 C 469.31 328.43 469.01 328.59 468.81 328.85 L 452.69 344.43 C 452.41 344.71 452.09 344.90 451.74 345.01 Z M 446.79 424.40 L 444.77 422.38 C 444.51 422.15 444.18 422.01 443.84 422.00 C 443.49 421.98 443.15 422.08 442.88 422.29 C 442.60 422.50 442.40 422.80 442.32 423.13 C 442.24 423.47 442.28 423.83 442.43 424.14 L 445.46 429.45 C 445.66 429.80 445.93 430.10 446.26 430.32 C 446.59 430.55 446.96 430.69 447.36 430.75 C 447.75 430.82 448.15 430.79 448.53 430.67 C 448.91 430.56 449.26 430.36 449.56 430.09 C 451.86 428.00 451.89 426.65 449.66 426.05 C 448.56 425.73 447.61 425.18 446.79 424.40 Z M 383.56 500.66 L 380.21 506.67 C 379.79 507.38 379.91 507.98 380.59 508.48 L 381.76 509.33 C 382.93 510.18 383.56 511.31 383.67 512.73 C 388.56 578.72 471.89 572.87 499.38 528.04 C 503.00 518.83 504.40 509.77 503.58 500.87 C 503.45 499.19 502.67 497.62 501.40 496.46 C 480.35 476.73 405.10 480.93 383.56 500.66 Z M 363.73 654.28 C 373.69 656.80 380.76 661.92 384.95 669.65 C 398.84 695.14 412.08 725.08 424.67 759.47 C 433.23 782.71 452.75 809.13 479.81 800.89 C 517.83 789.25 515.65 716.82 524.85 686.46 C 530.60 667.49 541.99 652.14 559.05 640.41 C 559.37 640.19 559.49 639.91 559.42 639.55 C 559.35 639.16 559.01 638.85 558.41 638.60 C 558.16 638.49 557.91 638.49 557.66 638.60 C 516.13 659.34 470.56 599.09 447.11 574.84 C 445.85 573.54 444.31 572.54 442.60 571.92 C 440.90 571.31 439.07 571.08 437.27 571.27 C 435.47 571.46 433.73 572.06 432.19 573.02 C 430.66 573.98 429.36 575.27 428.39 576.81 C 415.15 597.87 404.30 630.51 385.64 644.93 C 384.29 645.99 382.77 646.66 381.06 646.95 L 363.89 649.92 C 363.39 650.01 362.93 650.27 362.60 650.66 C 362.26 651.04 362.07 651.53 362.05 652.04 C 362.04 652.55 362.19 653.05 362.50 653.46 C 362.80 653.87 363.24 654.16 363.73 654.28 Z" fill="#fdfaee" fill-rule="nonzero" node-id="121" stroke="none" target-height="852.2065" target-width="942.9897" target-x="30.2483" target-y="60.3035"></path><path d="M 149.96 75.30 L 151.08 79.02 C 151.61 80.76 151.09 82.11 149.53 83.06 L 147.19 84.50 L 136.88 84.66 C 116.51 83.86 87.11 80.40 78.28 103.06 C 72.14 118.76 69.34 136.91 69.88 157.51 C 68.88 168.96 65.05 174.88 58.39 175.27 C 58.32 144.85 63.23 118.66 73.12 96.68 C 84.34 71.68 124.49 73.86 149.96 75.30 Z" fill="#170f0a" fill-rule="nonzero" node-id="123" stroke="none" target-height="103.5877" target-width="93.2891" target-x="58.3189" target-y="71.6833"></path><path d="M 136.88 84.66 L 135.50 110.08 C 124.51 110.61 115.45 113.59 108.32 119.01 L 105.03 122.25 C 98.08 127.29 94.25 136.19 93.54 148.95 C 84.82 156.29 80.17 162.26 79.61 166.87 C 76.63 191.05 81.38 215.92 93.86 241.48 C 89.60 242.29 90.38 248.87 96.20 261.20 C 94.04 266.49 91.18 270.55 87.64 273.38 C 85.86 273.42 84.89 272.92 84.71 271.89 C 85.03 265.94 85.35 260.25 83.81 254.29 C 75.73 222.49 71.08 190.23 69.88 157.51 C 69.34 136.91 72.14 118.76 78.28 103.06 C 87.11 80.40 116.51 83.86 136.88 84.66 Z" fill="#fcecdc" fill-rule="nonzero" node-id="125" stroke="none" target-height="193.01349" target-width="67.53371" target-x="69.3443" target-y="80.4045"></path><path d="M 136.88 84.66 L 147.19 84.50 C 186.83 85.03 225.84 89.30 264.24 97.31 C 266.58 97.81 266.82 98.82 264.98 100.35 L 227.97 131.03 C 228.75 133.01 228.00 133.17 225.74 131.51 C 206.27 110.66 163.68 108.53 135.50 110.08 L 136.88 84.66 Z" fill="#fdfbf5" fill-rule="nonzero" node-id="127" stroke="none" target-height="48.673904" target-width="131.328" target-x="135.496" target-y="84.4991"></path><path d="M 931.39 85.83 C 942.20 129.86 948.87 174.23 951.38 218.93 C 951.55 222.09 952.70 225.12 954.66 227.62 C 956.62 230.11 959.30 231.94 962.34 232.86 C 964.39 233.50 966.43 231.85 968.45 227.92 L 967.39 242.11 C 959.59 234.71 952.32 229.10 945.59 225.31 C 926.66 214.68 919.16 200.21 917.72 178.99 C 917.62 177.22 916.75 175.98 915.12 175.27 C 911.43 173.68 909.73 171.25 910.01 167.99 C 915.43 144.41 914.09 121.19 905.97 98.32 C 905.33 96.62 905.56 95.03 906.66 93.54 L 909.43 89.92 L 931.39 85.83 Z" fill="#c28780" fill-rule="nonzero" node-id="129" stroke="none" target-height="156.28549" target-width="63.120056" target-x="905.332" target-y="85.8285"></path><path d="M 909.43 89.92 L 906.66 93.54 C 905.56 95.03 905.33 96.62 905.97 98.33 C 914.09 121.19 915.44 144.41 910.01 167.99 C 903.56 181.81 894.52 193.87 882.89 204.15 C 863.06 185.59 845.46 166.02 823.07 149.32 C 813.25 142.02 803.50 134.56 793.82 126.93 C 791.91 125.41 792.07 124.19 794.30 123.27 C 826.88 109.79 860.58 100.56 895.39 95.56 C 895.86 95.48 896.30 95.24 896.62 94.89 C 896.95 94.54 897.15 94.08 897.19 93.60 C 897.24 93.12 897.12 92.64 896.86 92.24 C 896.60 91.83 896.21 91.52 895.76 91.36 L 893.10 90.51 L 909.43 89.92 Z" fill="#9b6364" fill-rule="nonzero" node-id="131" stroke="none" target-height="114.22279" target-width="123.52899" target-x="791.907" target-y="89.9232"></path><path d="M 135.50 110.08 C 163.68 108.53 206.27 110.66 225.74 131.51 L 224.25 135.39 C 224.10 135.77 223.86 136.11 223.54 136.36 C 223.22 136.61 222.83 136.77 222.43 136.82 C 222.02 136.87 221.61 136.81 221.24 136.64 C 220.86 136.47 220.54 136.21 220.31 135.87 C 202.55 109.70 135.07 113.27 108.32 119.01 C 115.45 113.59 124.51 110.61 135.50 110.08 Z" fill="#412d27" fill-rule="nonzero" node-id="133" stroke="none" target-height="28.337997" target-width="117.412994" target-x="108.323" target-y="108.535"></path><path d="M 225.74 131.51 C 228.00 133.17 228.75 133.01 227.97 131.03 C 227.44 139.40 222.87 143.44 214.25 143.15 C 212.44 143.08 210.87 143.65 209.52 144.85 L 134.91 209.20 C 128.56 179.99 118.60 151.00 105.03 122.25 L 108.32 119.01 C 135.07 113.27 202.55 109.70 220.31 135.87 C 220.54 136.21 220.86 136.47 221.24 136.64 C 221.61 136.81 222.02 136.87 222.43 136.82 C 222.83 136.77 223.22 136.61 223.54 136.36 C 223.86 136.11 224.10 135.77 224.25 135.39 L 225.74 131.51 Z" fill="#9b6364" fill-rule="nonzero" node-id="135" stroke="none" target-height="99.493" target-width="123.724" target-x="105.026" target-y="109.705"></path><path d="M 105.03 122.25 C 118.60 151.00 128.56 179.99 134.91 209.20 L 96.20 261.20 C 90.38 248.87 89.60 242.29 93.86 241.48 L 93.54 148.95 C 94.25 136.19 98.08 127.29 105.03 122.25 Z" fill="#c28780" fill-rule="nonzero" node-id="137" stroke="none" target-height="138.95099" target-width="45.306694" target-x="89.6043" target-y="122.254"></path><path d="M 93.54 148.95 L 93.86 241.48 C 81.38 215.92 76.63 191.05 79.61 166.87 C 80.17 162.26 84.82 156.29 93.54 148.95 Z" fill="#e9b6a0" fill-rule="nonzero" node-id="139" stroke="none" target-height="92.52699" target-width="17.229103" target-x="76.629" target-y="148.949"></path><path d="M 69.88 157.51 C 71.08 190.23 75.73 222.49 83.81 254.29 C 85.35 260.25 85.03 265.94 84.71 271.89 L 81.52 275.62 C 80.53 276.75 80.03 278.08 80.03 279.60 C 80.03 282.51 78.86 285.47 76.52 288.48 C 63.83 251.12 57.79 213.38 58.39 175.27 C 65.05 174.88 68.88 168.96 69.88 157.51 Z M 72.59 228.80 C 72.54 228.43 72.34 228.09 72.04 227.86 C 71.73 227.62 71.35 227.53 70.97 227.58 L 70.13 227.69 C 69.75 227.74 69.41 227.94 69.18 228.25 C 68.95 228.55 68.85 228.93 68.90 229.31 L 74.29 268.61 C 74.34 268.99 74.54 269.33 74.84 269.56 C 75.14 269.79 75.53 269.89 75.90 269.84 L 76.75 269.72 C 77.12 269.67 77.47 269.47 77.70 269.17 C 77.93 268.87 78.03 268.48 77.97 268.11 L 72.59 228.80 Z" fill="#412d27" fill-rule="nonzero" node-id="141" stroke="none" target-height="130.97401" target-width="27.563095" target-x="57.7871" target-y="157.51"></path><path d="M 910.01 167.99 C 909.73 171.25 911.43 173.68 915.12 175.27 C 916.75 175.98 917.62 177.22 917.72 178.99 C 919.16 200.21 926.66 214.68 945.59 225.31 C 952.32 229.10 959.59 234.71 967.39 242.11 L 957.98 303.48 C 957.80 304.72 957.37 304.81 956.70 303.75 C 935.39 268.61 910.79 235.41 882.89 204.15 C 894.52 193.87 903.56 181.81 910.01 167.99 Z" fill="#a97071" fill-rule="nonzero" node-id="143" stroke="none" target-height="136.823" target-width="84.49695" target-x="882.892" target-y="167.986"></path><path d="M 477.05 274.23 L 413.45 361.39 C 413.48 363.66 412.30 364.85 409.89 364.95 C 408.15 365.02 406.89 364.30 406.11 362.77 L 379.95 311.83 L 376.81 295.98 C 375.00 258.62 388.28 229.03 416.64 207.23 C 417.10 206.91 417.54 206.73 417.97 206.70 C 418.32 206.70 418.62 206.73 418.87 206.81 C 419.40 206.98 419.44 207.30 418.98 207.76 C 387.78 239.10 377.96 275.92 389.52 318.21 C 393.03 330.92 402.02 344.37 408.02 357.40 C 408.84 359.21 409.78 359.28 410.84 357.61 C 429.99 327.87 452.06 300.08 477.05 274.23 Z" fill="#170f0a" fill-rule="nonzero" node-id="145" stroke="none" target-height="158.324" target-width="102.04599" target-x="375.002" target-y="206.699"></path><path d="M 70.97 227.58 L 70.13 227.69 C 69.35 227.80 68.80 228.52 68.90 229.31 L 74.29 268.61 C 74.39 269.40 75.12 269.95 75.90 269.84 L 76.75 269.72 C 77.53 269.62 78.08 268.89 77.97 268.11 L 72.59 228.80 C 72.48 228.02 71.76 227.47 70.97 227.58 Z" fill="#4e423d" fill-rule="nonzero" node-id="147" stroke="none" target-height="42.477997" target-width="9.286995" target-x="68.7954" target-y="227.469"></path><path d="M 635.62 236.32 L 555.32 252.54 C 554.96 252.62 554.63 252.82 554.40 253.12 C 554.17 253.41 554.05 253.78 554.07 254.15 C 554.08 254.52 554.22 254.88 554.47 255.16 C 554.72 255.44 555.06 255.62 555.43 255.67 C 563.94 256.84 573.46 252.06 579.84 250.84 C 612.49 244.42 646.84 245.57 682.89 254.29 C 693.03 255.60 703.70 261.45 714.91 271.84 C 714.93 271.85 714.96 271.87 714.97 271.89 C 714.99 271.92 714.99 271.94 714.99 271.97 C 714.98 272.00 714.96 272.02 714.94 272.04 C 714.91 272.06 714.88 272.06 714.85 272.05 C 644.61 255.04 547.29 247.38 489.60 301.51 C 478.36 312.08 465.70 321.93 451.63 331.08 C 462.58 311.86 475.82 294.46 491.35 278.86 C 492.24 277.94 492.24 277.03 491.35 276.15 L 490.13 274.92 C 489.10 273.93 489.01 272.85 489.86 271.68 L 504.59 251.37 C 510.37 246.87 517.62 243.12 526.34 240.15 C 563.21 227.53 599.64 226.25 635.62 236.32 Z" fill="#cec3b9" fill-rule="nonzero" node-id="149" stroke="none" target-height="104.82901" target-width="263.36298" target-x="451.63" target-y="226.25"></path><path d="M 635.62 236.32 L 682.89 254.29 C 646.84 245.57 612.49 244.42 579.84 250.84 C 573.46 252.06 563.94 256.84 555.43 255.67 C 555.06 255.62 554.72 255.44 554.47 255.16 C 554.22 254.88 554.08 254.52 554.07 254.15 C 554.05 253.78 554.17 253.41 554.40 253.12 C 554.63 252.82 554.96 252.62 555.32 252.54 L 635.62 236.32 Z" fill="#aaa1a1" fill-rule="nonzero" node-id="151" stroke="none" target-height="20.526001" target-width="128.84003" target-x="554.055" target-y="236.318"></path><path d="M 372.61 291.09 L 372.66 295.77 C 372.66 299.31 371.72 299.58 369.85 296.57 C 335.92 242.11 288.22 244.56 233.55 261.10 C 232.91 261.27 232.72 261.68 232.97 262.32 C 233.18 262.78 233.48 263.15 233.87 263.44 C 234.33 263.76 235.02 263.79 235.95 263.54 C 254.06 258.90 272.05 258.97 289.92 263.76 C 289.78 264.79 288.80 265.42 287.00 265.67 C 252.89 262.73 217.96 269.23 182.19 285.19 C 182.12 285.21 182.04 285.21 181.98 285.18 C 181.91 285.15 181.85 285.11 181.82 285.05 C 181.78 284.99 181.76 284.91 181.77 284.84 C 181.78 284.77 181.81 284.71 181.87 284.65 C 209.20 258.01 286.89 233.50 324.75 250.94 C 344.96 260.23 360.91 273.61 372.61 291.09 Z" fill="#715337" fill-rule="nonzero" node-id="153" stroke="none" target-height="66.08099" target-width="190.89899" target-x="181.764" target-y="233.499"></path><path d="M 372.61 291.09 C 373.57 293.50 374.97 295.13 376.81 295.98 L 379.95 311.83 L 378.03 311.83 C 376.33 311.83 374.88 311.26 373.67 310.13 C 353.47 290.84 330.37 277.26 304.38 269.39 C 301.12 265.14 296.30 263.26 289.92 263.76 C 272.05 258.97 254.06 258.90 235.95 263.54 C 235.02 263.79 234.33 263.76 233.87 263.44 C 233.48 263.15 233.18 262.78 232.97 262.32 C 232.72 261.68 232.91 261.28 233.55 261.10 C 288.22 244.56 335.92 242.11 369.85 296.57 C 371.72 299.58 372.66 299.31 372.66 295.77 L 372.61 291.09 Z" fill="#b4aaa6" fill-rule="nonzero" node-id="155" stroke="none" target-height="69.71501" target-width="147.228" target-x="232.72" target-y="242.114"></path><path d="M 504.59 251.37 L 489.86 271.68 C 489.01 272.85 489.10 273.93 490.13 274.92 L 491.35 276.15 C 492.24 277.03 492.24 277.94 491.35 278.86 C 475.82 294.46 462.58 311.86 451.63 331.08 L 428.18 360.86 C 427.15 362.17 425.80 362.74 424.14 362.56 L 413.45 361.39 L 477.05 274.23 L 504.59 251.37 Z" fill="#bba99b" fill-rule="nonzero" node-id="157" stroke="none" target-height="111.36899" target-width="91.14499" target-x="413.449" target-y="251.367"></path><path d="M 289.92 263.76 C 296.30 263.26 301.12 265.14 304.38 269.39 L 287.00 265.67 C 288.80 265.42 289.78 264.79 289.92 263.76 Z" fill="#bda194" fill-rule="nonzero" node-id="159" stroke="none" target-height="6.133026" target-width="17.389008" target-x="286.995" target-y="263.261"></path><path d="M 84.71 271.89 C 84.89 272.92 85.86 273.42 87.64 273.38 C 85.01 281.04 81.31 286.07 76.52 288.48 C 78.86 285.47 80.03 282.51 80.03 279.60 C 80.03 278.08 80.53 276.75 81.52 275.62 L 84.71 271.89 Z" fill="#715337" fill-rule="nonzero" node-id="161" stroke="none" target-height="16.591003" target-width="11.113899" target-x="76.523" target-y="271.893"></path><path d="M 959.94 325.23 L 977.07 363.41 C 994.83 409.81 1003.23 457.73 1002.27 507.15 C 1002.24 508.81 1001.71 508.99 1000.68 507.68 L 945.16 436.31 L 915.65 395.63 C 914.20 393.61 914.71 392.71 917.19 392.92 L 951.54 395.90 C 953.40 396.06 955.27 395.79 957.01 395.11 C 958.75 394.43 960.31 393.36 961.57 391.98 C 962.83 390.61 963.75 388.96 964.27 387.17 C 964.79 385.38 964.89 383.49 964.57 381.65 C 962.34 368.78 962.92 357.40 959.20 342.67 C 957.75 336.79 958.00 330.97 959.94 325.23 Z" fill="#cec3b9" fill-rule="nonzero" node-id="163" stroke="none" target-height="183.76099" target-width="89.03497" target-x="914.195" target-y="325.229"></path><path d="M 452.69 344.43 L 468.81 328.85 C 469.01 328.59 469.31 328.43 469.63 328.39 C 469.96 328.36 470.28 328.45 470.53 328.66 C 470.79 328.86 470.95 329.16 470.99 329.49 C 471.02 329.81 470.93 330.13 470.72 330.39 C 465.90 338.36 459.20 344.25 450.62 348.04 C 450.44 348.12 450.24 348.14 450.05 348.10 C 449.86 348.05 449.69 347.95 449.56 347.80 C 449.44 347.65 449.36 347.46 449.35 347.26 C 449.34 347.07 449.39 346.88 449.50 346.71 C 450.07 345.86 450.81 345.29 451.74 345.01 C 452.09 344.90 452.41 344.71 452.69 344.43 Z" fill="#b4aaa6" fill-rule="nonzero" node-id="165" stroke="none" target-height="19.781006" target-width="21.678986" target-x="449.341" target-y="328.359"></path><path d="M 530.17 401.70 L 512.94 411.27 L 494.86 417.44 C 493.23 418.00 491.92 417.58 490.93 416.16 L 477.63 397.76 C 497.34 385.57 517.13 373.80 536.98 362.45 C 578.77 338.58 610.31 327.68 654.39 341.98 C 655.49 342.35 656.43 343.07 657.08 344.02 C 657.73 344.97 658.05 346.11 658.00 347.26 C 657.94 348.42 657.51 349.52 656.78 350.41 C 656.04 351.30 655.04 351.92 653.91 352.19 L 607.65 362.77 C 605.77 363.20 604.23 364.14 603.02 365.59 C 600.90 368.21 598.61 369.47 596.16 369.37 C 566.60 368.05 544.60 378.83 530.17 401.70 Z" fill="#fce3d3" fill-rule="nonzero" node-id="167" stroke="none" target-height="90.32901" target-width="180.41699" target-x="477.633" target-y="327.675"></path><path d="M 387.02 435.52 C 331.61 397.60 284.55 389.31 225.74 376.44 L 155.17 366.44 C 150.67 365.80 150.69 365.29 155.22 364.90 C 201.22 360.75 270.99 380.43 315.87 393.30 C 341.39 400.63 366.49 419.78 393.19 429.67 C 394.68 430.24 394.82 431.01 393.61 432.01 C 391.45 433.78 389.25 434.95 387.02 435.52 Z" fill="#2e1e1b" fill-rule="nonzero" node-id="169" stroke="none" target-height="74.76599" target-width="244.151" target-x="150.669" target-y="360.751"></path><path d="M 977.07 363.41 C 984.62 367.17 988.18 367.26 987.76 363.68 C 1003.12 401.38 1025.83 484.87 1010.41 522.99 C 1010.09 523.77 1009.96 524.60 1010.03 525.43 C 1010.09 526.27 1010.35 527.07 1010.78 527.78 C 1017.94 539.76 1021.88 548.71 1022.59 554.63 C 1031.68 632.27 996.53 680.93 928.09 712.14 C 926.92 712.67 926.41 713.51 926.55 714.64 C 926.73 716.24 927.49 716.61 928.84 715.76 C 946.07 705.09 964.78 698.97 984.99 697.41 C 985.61 697.36 986.23 697.48 986.79 697.74 C 987.35 698.00 987.84 698.39 988.20 698.90 C 988.56 699.40 988.79 699.99 988.86 700.60 C 988.93 701.22 988.85 701.84 988.61 702.41 C 984.53 711.95 979.21 721.16 972.65 730.06 C 930.01 787.65 891.51 823.12 847.26 867.89 C 846.41 868.75 846.27 869.70 846.84 870.77 C 847.12 871.26 847.57 871.55 848.17 871.62 C 849.12 875.98 849.89 877.77 850.45 876.99 C 870.66 921.12 823.65 945.96 787.12 945.85 C 756.33 949.57 725.06 944.58 695.50 950.37 C 582.62 972.60 470.69 968.91 359.69 939.31 C 349.48 936.62 338.98 935.45 328.21 935.80 C 298.18 936.76 268.70 935.32 239.78 931.49 C 212.07 923.52 181.49 903.04 201.33 871.62 L 215.95 853.75 C 217.26 852.15 217.05 850.81 215.31 849.71 C 147.67 806.88 88.42 754.68 37.54 693.10 C 37.13 692.60 36.85 691.99 36.73 691.35 C 36.62 690.71 36.66 690.04 36.87 689.42 C 37.08 688.80 37.44 688.24 37.92 687.80 C 38.40 687.36 38.98 687.04 39.62 686.88 C 51.53 684.08 63.49 684.52 75.51 688.21 L 93.33 694.86 C 93.57 694.93 93.73 694.84 93.81 694.59 C 93.95 694.13 94.09 693.67 94.23 693.21 C 94.62 691.97 94.18 691.15 92.90 690.76 L 79.77 686.72 C 23.77 655.40 -10.95 608.50 3.14 542.67 C 11.04 530.47 15.99 517.78 17.98 504.59 C 18.93 498.07 20.56 493.30 22.87 490.29 C 28.61 482.70 34.46 482.08 40.42 488.43 L 34.94 496.51 C -24.25 581.17 38.40 654.92 111.78 696.29 C 112.22 696.53 112.57 696.89 112.79 697.34 C 113.02 697.78 113.09 698.29 113.02 698.79 C 112.94 699.28 112.72 699.75 112.37 700.12 C 112.03 700.49 111.58 700.75 111.09 700.87 C 95.56 704.38 64.03 708.26 52.06 694.22 C 51.67 693.73 51.25 693.40 50.79 693.26 C 50.11 693.09 49.54 693.09 49.08 693.26 C 47.84 693.69 47.59 694.43 48.34 695.50 C 55.04 704.80 65.52 708.31 72.32 715.28 C 118.30 761.93 167.70 804.60 220.53 843.27 C 221.18 843.75 221.94 844.05 222.74 844.16 C 223.53 844.28 224.35 844.19 225.10 843.91 C 244.17 836.86 263.15 837.55 282.05 845.99 C 315.55 860.93 341.50 870.50 351.76 909.96 C 352.77 913.95 351.92 916.61 350.54 920.22 C 349.94 921.85 350.49 922.84 352.19 923.20 C 470.19 948.67 580.21 957.98 701.24 935.96 C 703.15 935.61 704.96 935.93 706.66 936.92 L 716.87 942.87 C 717.18 943.05 717.54 943.10 717.88 943.03 C 718.22 942.96 718.53 942.76 718.74 942.48 C 718.95 942.20 719.05 941.86 719.02 941.50 C 718.99 941.16 718.83 940.83 718.58 940.59 L 708.31 931.07 C 707.28 930.08 706.65 928.87 706.40 927.45 C 702.29 904.52 710.26 886.91 730.33 874.65 L 776.33 849.55 C 802.10 837.64 823.16 842.25 839.50 863.38 C 840.78 865.01 842.11 865.08 843.49 863.59 C 891.61 811.90 935.32 761.06 979.03 705.92 C 979.24 705.64 979.35 705.29 979.33 704.94 C 979.30 704.59 979.16 704.26 978.92 704.01 C 978.68 703.75 978.35 703.59 978.00 703.55 C 977.66 703.51 977.31 703.60 977.01 703.79 C 957.94 716.98 936.72 722.71 913.36 720.97 C 912.71 720.92 912.09 720.66 911.59 720.23 C 911.10 719.80 910.75 719.22 910.62 718.58 C 910.48 717.94 910.55 717.27 910.83 716.68 C 911.10 716.08 911.56 715.59 912.14 715.28 C 973.72 681.46 1010.99 639.87 1010.57 566.01 C 1010.36 531.77 980.68 490.50 960.05 463.27 L 945.16 436.31 L 1000.68 507.68 C 1001.71 508.99 1002.24 508.81 1002.27 507.15 C 1003.23 457.73 994.83 409.81 977.07 363.41 Z M 236.00 918.15 C 233.94 921.76 239.93 922.91 253.97 921.60 C 265.92 925.33 277.42 926.16 288.48 924.10 L 338.31 920.12 C 340.40 919.94 341.34 918.80 341.13 916.71 C 338.01 885.59 321.26 865.40 290.88 856.14 C 288.08 852.24 285.60 850.40 283.43 850.61 C 261.81 842.92 243.64 844.00 228.93 853.86 C 201.81 872.04 202.44 904.53 236.00 918.15 Z M 733.62 880.66 C 699.70 896.82 707.14 949.73 752.02 936.44 C 753.62 935.98 754.65 934.93 755.11 933.30 C 758.94 919.53 756.81 902.46 767.02 890.07 C 767.34 890.11 767.68 890.14 768.03 890.18 L 762.71 934.52 C 762.53 936.09 763.23 936.87 764.79 936.87 L 789.25 936.49 C 790.04 936.48 790.82 936.30 791.54 935.98 C 792.26 935.66 792.91 935.21 793.45 934.63 C 808.76 918.50 813.35 901.57 807.22 883.85 L 814.93 892.09 C 816.21 893.47 816.56 895.05 816.00 896.82 L 804.56 933.04 C 804.10 934.56 804.65 935.20 806.21 934.95 C 832.64 930.75 855.29 905.81 840.24 879.22 C 811.37 828.23 768.83 856.89 733.62 880.66 Z" fill="#412d27" fill-rule="nonzero" node-id="171" stroke="none" target-height="609.18994" target-width="1055.9266" target-x="-24.2466" target-y="363.41"></path><path d="M 748.57 390.21 C 735.59 387.87 722.74 385.37 710.01 382.71 C 635.99 367.40 579.63 383.14 513.05 414.41 C 511.77 414.73 511.74 413.68 512.94 411.27 L 530.17 401.70 C 606.37 367.19 671.62 360.33 748.57 390.21 Z" fill="#170f0a" fill-rule="nonzero" node-id="173" stroke="none" target-height="54.399017" target-width="236.83002" target-x="511.737" target-y="360.326"></path><path d="M 225.74 376.44 C 284.55 389.31 331.61 397.60 387.02 435.52 L 380.11 439.56 C 375.64 433.78 370.46 432.13 364.58 434.61 C 362.88 435.36 361.14 435.48 359.37 434.99 L 329.38 426.53 L 321.67 428.66 C 290.77 409.51 255.73 391.01 218.19 392.82 C 217.94 388.85 214.20 386.38 206.97 385.43 C 206.66 385.41 206.36 385.27 206.15 385.05 C 205.94 384.82 205.83 384.51 205.85 384.20 C 205.86 383.89 206.00 383.60 206.23 383.39 C 206.46 383.18 206.76 383.07 207.07 383.08 C 211.18 382.84 215.22 382.93 219.19 383.35 C 221.53 383.60 223.24 383.32 224.30 382.50 C 226.04 381.12 226.52 379.10 225.74 376.44 Z" fill="#fbf1e1" fill-rule="nonzero" node-id="175" stroke="none" target-height="63.121002" target-width="181.18599" target-x="205.834" target-y="376.438"></path><path d="M 748.57 390.21 C 749.49 390.00 750.34 390.18 751.12 390.74 C 740.38 401.38 709.27 393.77 692.25 390.64 C 672.29 386.99 657.21 385.97 647.00 387.61 C 597.81 395.48 546.92 460.51 502.63 421.53 C 501.21 420.29 501.37 419.32 503.11 418.61 L 513.05 414.41 C 579.63 383.14 635.99 367.40 710.01 382.71 C 722.74 385.37 735.59 387.87 748.57 390.21 Z" fill="#fdfbf5" fill-rule="nonzero" node-id="177" stroke="none" target-height="93.112" target-width="249.91199" target-x="501.208" target-y="367.398"></path><path d="M 202.02 394.73 L 200.48 396.64 C 198.78 398.52 195.73 398.38 191.33 396.22 L 176.76 395.32 C 175.99 395.28 175.23 395.14 174.53 394.89 L 160.86 390.05 C 157.28 388.77 156.96 389.36 159.90 391.81 C 167.70 398.26 176.67 400.81 186.81 399.46 C 194.57 406.77 203.35 408.63 213.13 405.05 C 222.56 402.39 232.05 401.98 241.58 403.82 C 242.17 403.93 242.71 404.22 243.12 404.65 C 243.53 405.09 243.80 405.64 243.88 406.24 C 243.96 406.83 243.86 407.44 243.58 407.98 C 243.30 408.52 242.86 408.96 242.33 409.25 C 240.70 410.10 238.84 410.49 236.74 410.42 C 182.77 408.34 169.42 463.06 174.79 505.50 C 178.99 538.31 208.56 533.79 231.00 547.51 C 231.21 547.93 231.23 548.39 231.05 548.89 C 230.95 549.24 230.72 549.39 230.36 549.32 C 205.16 544.46 180.15 535.44 155.33 522.25 C 146.40 486.44 152.76 452.02 174.42 418.98 C 175.02 417.03 176.23 415.50 178.04 414.41 C 178.50 414.16 178.85 413.86 179.10 413.50 C 179.84 412.40 179.65 411.52 178.52 410.84 C 164.12 402.26 151.04 392.02 139.27 380.11 C 137.29 378.09 137.66 377.45 140.39 378.19 L 202.02 394.73 Z M 168.89 502.25 C 166.30 468.75 174.99 438.76 194.95 412.28 C 195.34 411.75 195.32 411.22 194.89 410.68 C 194.57 410.26 194.19 410.05 193.72 410.05 C 193.23 410.05 192.68 410.35 192.08 410.95 C 160.70 442.86 158.89 467.80 160.59 511.24 C 160.67 513.08 161.32 514.70 162.56 516.08 L 171.07 525.44 C 172.67 527.21 173.50 526.91 173.57 524.53 C 173.64 521.73 172.56 519.41 170.33 517.57 C 168.98 516.47 168.41 515.07 168.62 513.37 C 169.09 509.57 169.17 505.87 168.89 502.25 Z" fill="#2e1e1b" fill-rule="nonzero" node-id="179" stroke="none" target-height="171.93799" target-width="106.675" target-x="137.286" target-y="377.448"></path><path d="M 47.81 385.05 L 30.42 468.38 C 30.25 469.21 30.35 470.07 30.71 470.84 C 31.07 471.61 31.67 472.24 32.41 472.64 C 33.16 473.04 34.02 473.19 34.86 473.06 C 35.69 472.94 36.47 472.54 37.07 471.94 C 47.42 461.34 58.46 451.51 70.19 442.43 C 73.07 440.20 73.47 440.59 71.42 443.60 L 40.42 488.43 C 34.46 482.08 28.61 482.70 22.87 490.29 C 20.56 493.30 18.93 498.07 17.98 504.59 C 15.99 517.78 11.04 530.47 3.14 542.67 C 3.42 517.67 6.74 494.76 13.08 473.91 L 38.13 386.97 C 38.63 385.30 39.72 384.52 41.43 384.63 L 47.81 385.05 Z" fill="#4e423d" fill-rule="nonzero" node-id="181" stroke="none" target-height="158.14703" target-width="70.33474" target-x="3.13916" target-y="384.521"></path><path d="M 751.12 390.74 C 754.06 389.32 756.69 388.72 758.99 388.94 C 760.55 389.08 760.73 389.66 759.52 390.69 C 733.94 412.65 704.75 395.95 676.67 393.45 C 649.48 391.15 624.91 396.89 602.97 410.68 C 600.03 412.53 600.29 413.43 603.77 413.40 C 612.38 413.24 621.58 405.31 627.11 403.61 C 635.48 400.99 644.02 400.15 652.74 401.11 C 663.01 402.28 668.80 399.52 677.68 396.43 L 687.20 403.35 C 686.85 410.83 691.62 415.98 701.51 418.82 C 702.92 419.25 703.54 420.20 703.37 421.69 L 702.78 426.53 C 696.37 422.24 690.04 419.94 683.80 419.62 C 681.74 419.51 680.50 420.45 680.08 422.44 C 677.38 435.23 673.70 445.44 669.01 453.06 C 635.30 508.21 588.19 496.56 541.02 466.25 C 540.52 465.92 539.94 465.74 539.34 465.74 C 538.74 465.74 538.16 465.92 537.66 466.26 C 537.17 466.60 536.79 467.08 536.57 467.64 C 536.36 468.20 536.31 468.81 536.45 469.39 L 543.47 501.88 L 540.81 502.09 L 534.16 473.22 C 532.28 465.14 527.42 462.42 519.59 465.08 L 512.73 467.42 C 510.85 465.19 509.40 463.95 508.37 463.70 C 507.17 463.40 505.91 463.53 504.80 464.05 C 503.68 464.58 502.78 465.47 502.24 466.58 C 501.70 467.69 501.57 468.95 501.85 470.15 C 502.13 471.35 502.82 472.41 503.80 473.17 C 505.89 474.80 508.42 473.70 511.40 469.87 C 512.00 472.07 511.47 473.86 509.81 475.24 C 508.39 476.41 506.90 476.52 505.34 475.56 C 494.95 469.11 484.99 462.02 475.45 454.29 C 474.60 453.62 474.25 452.75 474.39 451.68 C 474.60 450.12 475.26 449.89 476.36 450.99 C 479.30 453.97 482.74 456.06 486.67 457.27 L 494.06 464.98 C 495.24 466.22 496.51 466.36 497.89 465.40 C 502.82 462.04 508.23 459.80 514.11 458.70 C 517.30 458.67 519.62 458.17 521.08 457.21 C 521.44 456.98 521.73 456.66 521.93 456.28 C 522.13 455.90 522.22 455.47 522.21 455.04 C 522.19 454.61 522.06 454.19 521.84 453.81 C 521.61 453.44 521.30 453.13 520.92 452.91 C 496.71 439.50 479.62 419.90 469.66 394.09 C 469.55 393.81 469.51 393.49 469.56 393.19 C 469.60 392.88 469.72 392.60 469.91 392.35 C 470.09 392.11 470.34 391.91 470.62 391.79 C 470.90 391.67 471.21 391.62 471.52 391.65 C 473.54 391.82 475.58 393.86 477.63 397.76 L 490.93 416.16 C 491.92 417.58 493.23 418.00 494.86 417.44 L 512.94 411.27 C 511.74 413.68 511.77 414.73 513.05 414.41 L 503.11 418.61 C 501.37 419.32 501.21 420.29 502.63 421.53 C 546.92 460.51 597.81 395.48 647.00 387.61 C 657.21 385.97 672.29 386.99 692.25 390.64 C 709.27 393.77 740.38 401.38 751.12 390.74 Z M 606.27 417.44 L 557.56 445.41 C 557.48 445.45 557.42 445.51 557.37 445.58 C 557.31 445.65 557.28 445.73 557.26 445.81 C 557.24 445.90 557.23 445.99 557.25 446.07 C 557.26 446.16 557.30 446.24 557.35 446.31 C 558.65 448.60 560.57 450.50 563.00 451.92 C 565.43 453.33 568.31 454.23 571.48 454.56 C 574.66 454.88 578.07 454.63 581.51 453.82 C 584.95 453.01 588.36 451.65 591.54 449.82 L 592.92 449.02 C 596.10 447.19 598.99 444.93 601.43 442.37 C 603.86 439.80 605.80 436.99 607.12 434.08 C 608.43 431.17 609.11 428.23 609.11 425.42 C 609.11 422.61 608.44 419.99 607.12 417.70 L 607.12 417.65 C 607.03 417.51 606.89 417.41 606.74 417.37 C 606.58 417.33 606.41 417.36 606.27 417.44 Z" fill="#412d27" fill-rule="nonzero" node-id="183" stroke="none" target-height="122.235016" target-width="291.215" target-x="469.512" target-y="385.974"></path><path d="M 191.33 396.22 C 189.42 396.82 187.91 397.90 186.81 399.46 C 176.67 400.81 167.70 398.26 159.90 391.81 C 156.96 389.36 157.28 388.77 160.86 390.05 L 174.53 394.89 C 175.23 395.14 175.98 395.28 176.76 395.32 L 191.33 396.22 Z" fill="#715337" fill-rule="nonzero" node-id="185" stroke="none" target-height="12.036011" target-width="34.369995" target-x="156.961" target-y="388.775"></path><path d="M 218.19 392.82 C 255.73 391.01 290.77 409.51 321.67 428.66 L 322.46 430.36 C 323.28 432.13 322.78 432.66 320.98 431.95 L 301.09 424.24 C 295.45 421.76 291.68 420.82 289.76 421.43 C 286.82 422.38 287.12 423.48 290.67 424.72 L 294.28 426.00 C 291.94 427.24 290.29 428.51 289.33 429.83 C 288.38 431.14 288.52 432.93 289.76 435.20 C 311.51 474.87 342.88 465.14 374.68 445.78 C 376.00 446.24 377.45 446.20 379.04 445.67 C 384.61 454.18 393.79 456.45 406.59 452.48 C 407.16 454.43 406.59 455.46 404.89 455.56 C 389.22 459.11 375.64 467.10 364.15 479.55 C 362.74 481.07 361.14 481.30 359.37 480.24 L 355.59 478.00 C 348.33 479.25 342.21 483.45 337.25 490.61 C 336.36 491.92 335.17 492.86 333.68 493.43 C 282.58 512.20 247.22 457.32 240.47 412.07 C 238.34 412.31 237.10 411.76 236.74 410.42 C 238.84 410.49 240.70 410.10 242.33 409.25 C 242.86 408.96 243.30 408.52 243.58 407.98 C 243.86 407.44 243.96 406.83 243.88 406.24 C 243.80 405.64 243.53 405.09 243.12 404.65 C 242.71 404.22 242.17 403.93 241.58 403.82 C 232.05 401.98 222.56 402.39 213.13 405.05 C 210.72 399.66 206.50 396.86 200.48 396.64 L 202.02 394.73 L 218.19 392.82 Z M 362.56 471.09 C 362.85 471.20 363.17 471.20 363.45 471.07 C 363.74 470.95 363.96 470.72 364.07 470.43 C 364.19 470.14 364.18 469.82 364.06 469.53 C 363.93 469.25 363.70 469.02 363.41 468.91 L 356.12 464.39 C 355.21 463.82 354.13 463.59 353.07 463.76 C 352.01 463.93 351.06 464.47 350.38 465.30 C 346.06 470.54 340.53 472.51 333.79 471.20 C 332.73 470.99 332.19 471.41 332.19 472.48 C 332.19 473.04 332.19 473.63 332.19 474.23 C 332.18 474.77 332.37 475.29 332.72 475.70 C 333.08 476.10 333.57 476.36 334.11 476.41 C 340.38 477.19 345.90 475.40 350.65 471.04 C 351.26 470.49 351.99 470.09 352.77 469.87 C 353.55 469.65 354.37 469.61 355.17 469.76 L 362.56 471.09 Z" fill="#412d27" fill-rule="nonzero" node-id="187" stroke="none" target-height="121.19" target-width="206.679" target-x="200.477" target-y="391.008"></path><path d="M 676.67 393.45 C 674.79 394.24 675.13 395.23 677.68 396.43 C 668.80 399.52 663.01 402.28 652.74 401.11 C 644.02 400.15 635.48 400.99 627.11 403.61 C 621.58 405.31 612.38 413.24 603.77 413.40 C 600.29 413.43 600.03 412.53 602.97 410.68 C 624.91 396.89 649.48 391.15 676.67 393.45 Z" fill="#4e423d" fill-rule="nonzero" node-id="189" stroke="none" target-height="22.281006" target-width="77.65497" target-x="600.028" target-y="391.15"></path><path d="M 191.33 396.22 C 195.73 398.38 198.78 398.52 200.48 396.64 C 206.50 396.86 210.72 399.66 213.13 405.05 C 203.35 408.63 194.57 406.77 186.81 399.46 C 187.91 397.90 189.42 396.82 191.33 396.22 Z" fill="#bda194" fill-rule="nonzero" node-id="191" stroke="none" target-height="12.4079895" target-width="26.321991" target-x="186.811" target-y="396.22"></path><path d="M 687.20 403.35 L 712.67 416.59 C 711.93 417.05 711.18 417.51 710.44 417.97 C 724.12 440.16 730.50 462.83 729.58 485.98 C 725.22 593.45 571.97 595.63 540.81 502.09 L 543.47 501.88 C 579.31 584.41 696.88 577.45 716.13 485.34 C 724.21 477.30 723.34 463.38 713.52 443.60 C 712.21 437.82 708.63 432.13 702.78 426.53 L 703.37 421.69 C 703.54 420.20 702.92 419.25 701.51 418.82 C 691.62 415.98 686.85 410.82 687.20 403.35 Z M 702.78 532.62 L 708.15 534.96 C 708.36 535.05 708.59 535.05 708.80 534.97 C 709.01 534.89 709.18 534.74 709.27 534.53 L 713.95 523.68 C 715.75 519.55 717.46 515.43 718.98 511.55 C 720.51 507.68 721.82 504.13 722.85 501.11 C 723.87 498.08 724.58 495.64 724.94 493.94 C 725.31 492.23 725.31 491.27 724.96 491.14 L 723.31 490.45 C 722.60 490.19 720.48 493.22 717.43 498.89 C 714.38 504.56 710.65 512.40 707.04 520.71 L 702.30 531.50 C 702.26 531.61 702.24 531.72 702.24 531.83 C 702.24 531.94 702.26 532.06 702.31 532.16 C 702.35 532.26 702.42 532.36 702.50 532.44 C 702.58 532.51 702.68 532.58 702.78 532.62 Z" fill="#2e1e1b" fill-rule="nonzero" node-id="193" stroke="none" target-height="192.28702" target-width="189.698" target-x="540.807" target-y="403.345"></path><path d="M 717.51 414.67 C 717.87 414.21 717.07 413.96 715.12 413.93 C 717.00 410.91 714.92 409.07 708.90 408.40 C 705.92 408.08 705.73 407.16 708.31 405.63 C 711.08 404.00 713.61 404.27 715.92 406.43 C 717.05 407.46 717.65 408.72 717.73 410.20 C 717.80 411.45 717.73 412.94 717.51 414.67 Z" fill="#cec3b9" fill-rule="nonzero" node-id="195" stroke="none" target-height="10.67099" target-width="12.142029" target-x="705.725" target-y="404.001"></path><path d="M 168.89 502.25 C 169.17 505.87 169.09 509.57 168.62 513.37 C 168.41 515.07 168.98 516.47 170.33 517.57 C 172.56 519.41 173.64 521.73 173.57 524.53 C 173.50 526.91 172.67 527.21 171.07 525.44 L 162.56 516.08 C 161.32 514.70 160.67 513.08 160.59 511.24 C 158.89 467.80 160.70 442.86 192.07 410.95 C 192.68 410.35 193.23 410.05 193.72 410.05 C 194.18 410.05 194.57 410.26 194.89 410.68 C 195.32 411.21 195.34 411.75 194.95 412.28 C 174.99 438.76 166.30 468.75 168.89 502.25 Z" fill="#715337" fill-rule="nonzero" node-id="197" stroke="none" target-height="117.16501" target-width="36.444" target-x="158.893" target-y="410.046"></path><path d="M 236.74 410.42 C 237.10 411.76 238.34 412.31 240.47 412.07 L 236.69 418.39 C 233.25 417.76 230.86 418.46 229.51 420.52 C 201.12 462.78 202.64 502.89 234.09 540.86 C 234.59 541.47 234.95 542.19 235.13 542.96 C 235.30 543.72 235.29 544.52 235.09 545.27 C 234.78 546.62 234.33 547.31 233.77 547.35 C 232.81 546.92 231.89 546.98 231.00 547.51 C 208.56 533.79 178.99 538.31 174.79 505.50 C 169.42 463.06 182.77 408.34 236.74 410.42 Z" fill="#fdfbf5" fill-rule="nonzero" node-id="199" stroke="none" target-height="139.16302" target-width="71.04401" target-x="169.422" target-y="408.344"></path><path d="M 240.47 412.07 C 247.22 457.32 282.58 512.20 333.68 493.43 C 335.17 492.86 336.36 491.92 337.25 490.61 C 342.21 483.45 348.32 479.25 355.59 478.00 C 355.59 482.76 356.53 486.65 358.41 489.70 C 354.26 491.44 351.94 494.01 351.44 497.42 C 341.50 562.50 266.52 573.40 233.55 519.43 C 214.41 488.11 210.90 447.27 236.69 418.39 L 240.47 412.07 Z" fill="#a9a651" fill-rule="nonzero" node-id="201" stroke="none" target-height="161.33798" target-width="147.51102" target-x="210.9" target-y="412.066"></path><path d="M 178.04 414.41 C 176.23 415.50 175.02 417.03 174.42 418.98 C 158.04 424.58 141.65 427.40 125.23 427.44 C 124.10 427.44 123.92 427.03 124.70 426.21 C 125.09 425.82 125.50 425.50 125.92 425.25 C 126.21 425.08 126.58 424.99 127.04 424.99 C 143.15 425.20 166.98 412.44 178.04 414.41 Z" fill="#170f0a" fill-rule="nonzero" node-id="203" stroke="none" target-height="14.996002" target-width="54.116005" target-x="123.921" target-y="412.439"></path><path d="M 715.12 413.93 C 717.07 413.96 717.87 414.21 717.51 414.67 C 734.32 424.63 753.14 427.59 773.99 423.55 C 774.59 423.45 775.09 423.76 775.48 424.51 C 776.08 425.61 775.78 426.33 774.57 426.69 L 758.78 431.26 C 755.09 432.33 751.42 432.17 747.77 430.78 C 746.49 430.29 745.78 430.71 745.64 432.06 C 745.57 432.81 745.71 433.46 746.07 434.03 C 746.60 434.81 747.61 435.25 749.10 435.36 C 752.25 435.54 755.52 434.99 758.88 433.71 C 761.17 434.13 763.30 435.73 764.31 437.91 C 777.82 466.38 787.35 496.21 792.92 527.41 C 793.05 528.16 792.90 528.94 792.51 529.60 C 792.12 530.25 791.51 530.74 790.79 530.97 C 788.77 531.68 786.32 531.39 783.45 530.12 L 722.78 541.50 L 770.90 525.07 C 772.60 524.50 773.28 523.33 772.92 521.56 C 764.41 476.52 753.19 436.15 710.44 417.97 C 711.18 417.51 711.93 417.05 712.67 416.59 C 714.59 417.30 715.40 416.41 715.12 413.93 Z" fill="#412d27" fill-rule="nonzero" node-id="205" stroke="none" target-height="127.570984" target-width="82.606995" target-x="710.44" target-y="413.927"></path><path d="M 236.69 418.39 C 210.90 447.27 214.41 488.11 233.55 519.43 C 266.52 573.40 341.50 562.50 351.44 497.41 C 351.94 494.01 354.26 491.44 358.41 489.70 C 346.45 539.42 325.97 575.16 267.59 562.77 L 233.77 547.35 C 234.33 547.31 234.78 546.62 235.09 545.27 C 235.29 544.52 235.30 543.72 235.13 542.96 C 234.95 542.19 234.59 541.47 234.09 540.86 C 202.64 502.89 201.12 462.78 229.51 420.52 C 230.86 418.46 233.25 417.76 236.69 418.39 Z" fill="#2e1e1b" fill-rule="nonzero" node-id="207" stroke="none" target-height="157.40298" target-width="157.296" target-x="201.115" target-y="417.756"></path><path d="M 606.27 417.44 C 606.41 417.36 606.58 417.33 606.74 417.37 C 606.89 417.41 607.03 417.51 607.12 417.65 L 607.12 417.70 C 608.44 419.99 609.11 422.61 609.11 425.42 C 609.11 428.23 608.43 431.17 607.12 434.08 C 605.80 436.99 603.86 439.81 601.43 442.37 C 598.99 444.93 596.10 447.19 592.92 449.02 L 591.54 449.82 C 588.36 451.65 584.95 453.01 581.51 453.82 C 578.07 454.63 574.66 454.88 571.48 454.56 C 568.31 454.23 565.42 453.33 563.00 451.92 C 560.57 450.50 558.65 448.60 557.35 446.31 C 557.30 446.24 557.26 446.16 557.25 446.07 C 557.23 445.99 557.24 445.90 557.26 445.81 C 557.28 445.73 557.31 445.65 557.37 445.58 C 557.42 445.51 557.48 445.45 557.56 445.41 L 606.27 417.44 Z" fill="#fefefe" fill-rule="nonzero" node-id="209" stroke="none" target-height="37.546997" target-width="51.880005" target-x="557.234" target-y="417.335"></path><path d="M 702.78 426.53 C 708.63 432.13 712.21 437.82 713.52 443.60 L 716.13 485.34 C 696.88 577.45 579.31 584.41 543.47 501.88 L 536.45 469.39 C 536.31 468.81 536.36 468.20 536.57 467.64 C 536.79 467.08 537.17 466.60 537.66 466.26 C 538.16 465.92 538.74 465.74 539.34 465.74 C 539.94 465.74 540.52 465.92 541.02 466.25 C 588.19 496.56 635.30 508.21 669.02 453.06 C 673.70 445.44 677.38 435.23 680.08 422.44 C 680.50 420.45 681.74 419.51 683.80 419.62 C 690.04 419.94 696.37 422.24 702.78 426.53 Z" fill="#a9a651" fill-rule="nonzero" node-id="211" stroke="none" target-height="164.90002" target-width="179.81903" target-x="536.311" target-y="419.511"></path><path d="M 301.09 424.24 C 297.19 424.60 294.92 425.18 294.28 426.00 L 290.67 424.72 C 287.12 423.48 286.82 422.38 289.76 421.43 C 291.68 420.82 295.45 421.76 301.09 424.24 Z" fill="#bda194" fill-rule="nonzero" node-id="213" stroke="none" target-height="5.175995" target-width="14.269012" target-x="286.818" target-y="420.823"></path><path d="M 449.66 426.05 C 451.90 426.65 451.86 428.00 449.56 430.09 C 449.26 430.36 448.91 430.56 448.53 430.67 C 448.15 430.79 447.75 430.82 447.36 430.75 C 446.96 430.69 446.59 430.55 446.26 430.32 C 445.93 430.10 445.66 429.80 445.46 429.45 L 442.43 424.14 C 442.28 423.83 442.24 423.47 442.32 423.13 C 442.40 422.80 442.60 422.50 442.88 422.29 C 443.15 422.08 443.49 421.98 443.84 422.00 C 444.19 422.01 444.51 422.15 444.77 422.38 L 446.79 424.40 C 447.61 425.18 448.56 425.73 449.66 426.05 Z" fill="#bda194" fill-rule="nonzero" node-id="215" stroke="none" target-height="8.835022" target-width="9.656006" target-x="442.24" target-y="421.981"></path><path d="M 301.09 424.24 L 320.98 431.95 C 322.78 432.66 323.28 432.13 322.46 430.36 L 321.67 428.66 L 329.38 426.53 C 329.16 426.99 328.95 427.43 328.74 427.86 C 328.31 428.75 328.53 429.42 329.38 429.88 C 343.06 437.25 357.76 441.33 373.46 442.11 C 374.70 442.15 375.11 443.37 374.68 445.78 C 342.88 465.14 311.51 474.87 289.76 435.20 C 288.52 432.93 288.38 431.14 289.33 429.83 C 290.29 428.52 291.94 427.24 294.28 426.00 C 294.92 425.18 297.19 424.60 301.09 424.24 Z M 307.52 441.26 L 309.81 439.93 C 311.72 438.80 311.58 438.03 309.38 437.64 L 299.23 435.94 C 298.86 435.87 298.48 435.92 298.15 436.09 C 297.82 436.26 297.55 436.54 297.40 436.88 C 297.24 437.22 297.21 437.60 297.30 437.96 C 297.39 438.32 297.60 438.64 297.90 438.87 L 305.87 445.30 C 306.00 445.42 306.15 445.49 306.32 445.51 C 306.49 445.54 306.66 445.50 306.81 445.42 C 306.96 445.34 307.08 445.21 307.15 445.05 C 307.22 444.90 307.24 444.72 307.20 444.56 L 306.94 442.48 C 306.90 442.25 306.94 442.01 307.05 441.79 C 307.15 441.58 307.31 441.39 307.52 441.26 Z" fill="#fdfbf5" fill-rule="nonzero" node-id="217" stroke="none" target-height="50.624023" target-width="86.73102" target-x="288.378" target-y="424.244"></path><path d="M 329.38 426.53 L 359.37 434.99 C 361.14 435.48 362.88 435.36 364.58 434.61 C 370.46 432.13 375.64 433.78 380.11 439.56 L 379.04 445.67 C 377.45 446.20 376.00 446.24 374.68 445.78 C 375.11 443.37 374.70 442.15 373.46 442.11 C 357.76 441.33 343.06 437.25 329.38 429.88 C 328.53 429.42 328.31 428.75 328.74 427.86 C 328.95 427.43 329.17 426.99 329.38 426.53 Z" fill="#715337" fill-rule="nonzero" node-id="219" stroke="none" target-height="19.710999" target-width="51.794006" target-x="328.314" target-y="426.53"></path><path d="M 758.78 431.26 L 758.88 433.71 C 755.52 434.99 752.25 435.54 749.10 435.36 C 747.61 435.25 746.60 434.81 746.07 434.03 C 745.71 433.46 745.57 432.81 745.64 432.06 C 745.78 430.71 746.49 430.29 747.77 430.78 C 751.42 432.17 755.09 432.33 758.78 431.26 Z" fill="#4e423d" fill-rule="nonzero" node-id="221" stroke="none" target-height="5.2470093" target-width="13.311951" target-x="745.572" target-y="430.288"></path><path d="M 306.94 442.48 L 307.20 444.56 C 307.24 444.72 307.22 444.90 307.15 445.05 C 307.08 445.21 306.96 445.34 306.81 445.42 C 306.66 445.50 306.49 445.54 306.32 445.51 C 306.15 445.49 306.00 445.42 305.87 445.30 L 297.90 438.87 C 297.60 438.64 297.39 438.32 297.30 437.96 C 297.21 437.60 297.24 437.21 297.40 436.88 C 297.55 436.54 297.82 436.26 298.15 436.09 C 298.48 435.92 298.86 435.87 299.23 435.94 L 309.38 437.64 C 311.58 438.03 311.72 438.80 309.81 439.93 L 307.52 441.26 C 307.31 441.39 307.15 441.58 307.05 441.79 C 306.94 442.01 306.90 442.25 306.94 442.48 Z" fill="#bdb3b0" fill-rule="nonzero" node-id="223" stroke="none" target-height="9.667999" target-width="14.51297" target-x="297.209" target-y="435.868"></path><path d="M 713.52 443.60 C 723.34 463.38 724.21 477.30 716.13 485.34 L 713.52 443.60 Z" fill="#4e423d" fill-rule="nonzero" node-id="225" stroke="none" target-height="41.743988" target-width="10.689026" target-x="713.524" target-y="443.6"></path><path d="M 404.89 455.56 C 406.59 455.46 407.16 454.43 406.59 452.48 C 407.72 453.97 408.88 454.89 410.05 455.25 C 411.46 455.67 412.58 455.26 413.40 454.02 L 418.61 446.31 C 418.77 446.04 419.03 445.85 419.32 445.75 C 419.62 445.66 419.94 445.68 420.24 445.80 C 420.53 445.93 420.77 446.16 420.92 446.44 C 421.07 446.73 421.12 447.06 421.05 447.38 C 419.07 456.20 413.68 458.93 404.89 455.56 Z" fill="#715337" fill-rule="nonzero" node-id="227" stroke="none" target-height="13.274017" target-width="16.22699" target-x="404.888" target-y="445.659"></path><path d="M 514.11 458.70 C 508.23 459.80 502.82 462.04 497.89 465.40 C 496.51 466.36 495.24 466.22 494.06 464.98 L 486.67 457.27 C 496.63 451.77 505.78 452.25 514.11 458.70 Z" fill="#fdfbf5" fill-rule="nonzero" node-id="229" stroke="none" target-height="14.588989" target-width="27.438965" target-x="486.674" target-y="451.771"></path><path d="M 512.73 467.42 C 513.23 469.48 512.78 470.30 511.40 469.87 C 508.42 473.70 505.89 474.80 503.80 473.17 C 502.82 472.41 502.13 471.35 501.85 470.15 C 501.57 468.95 501.70 467.69 502.24 466.58 C 502.78 465.47 503.68 464.57 504.80 464.05 C 505.91 463.53 507.17 463.40 508.37 463.70 C 509.40 463.95 510.85 465.19 512.73 467.42 Z" fill="#cec3b9" fill-rule="nonzero" node-id="231" stroke="none" target-height="11.393005" target-width="11.659027" target-x="501.567" target-y="463.404"></path><path d="M 362.56 471.09 L 355.17 469.76 C 354.37 469.61 353.55 469.65 352.77 469.87 C 351.99 470.09 351.26 470.49 350.65 471.04 C 345.90 475.40 340.38 477.19 334.11 476.41 C 333.57 476.36 333.08 476.10 332.72 475.70 C 332.37 475.29 332.18 474.77 332.19 474.23 C 332.19 473.63 332.19 473.04 332.19 472.48 C 332.19 471.41 332.73 470.99 333.79 471.20 C 340.53 472.51 346.06 470.54 350.38 465.30 C 351.06 464.47 352.01 463.93 353.07 463.76 C 354.13 463.59 355.21 463.82 356.12 464.39 L 363.41 468.91 C 363.70 469.02 363.93 469.25 364.06 469.53 C 364.18 469.82 364.19 470.14 364.07 470.43 C 363.96 470.72 363.74 470.95 363.45 471.07 C 363.17 471.20 362.85 471.20 362.56 471.09 Z" fill="#bda194" fill-rule="nonzero" node-id="233" stroke="none" target-height="13.597992" target-width="32.008026" target-x="332.179" target-y="463.592"></path><path d="M 960.05 463.27 C 980.68 490.50 1010.36 531.77 1010.57 566.01 C 1010.99 639.88 973.72 681.46 912.14 715.28 C 911.56 715.59 911.10 716.08 910.83 716.68 C 910.55 717.27 910.48 717.94 910.62 718.58 C 910.75 719.22 911.10 719.80 911.59 720.23 C 912.09 720.66 912.71 720.92 913.36 720.97 C 936.72 722.71 957.94 716.98 977.01 703.79 C 977.31 703.60 977.66 703.51 978.00 703.55 C 978.35 703.59 978.68 703.75 978.92 704.01 C 979.16 704.26 979.30 704.59 979.33 704.94 C 979.35 705.29 979.24 705.64 979.03 705.92 C 935.32 761.06 891.61 811.90 843.49 863.59 C 842.11 865.08 840.77 865.01 839.50 863.38 C 823.16 842.25 802.10 837.64 776.33 849.55 C 774.80 848.13 773.33 845.40 771.91 841.36 C 824.13 809.31 869.62 769.55 908.36 722.09 C 910.88 719.04 910.15 717.57 906.18 717.67 L 895.28 718.04 C 893.33 718.12 892.96 717.39 894.16 715.86 C 908.88 697.39 921.50 677.59 932.03 656.47 C 932.74 655.05 933.82 654.07 935.27 653.54 L 945.90 649.61 C 946.33 649.46 946.70 649.20 946.99 648.86 C 947.27 648.52 947.46 648.10 947.53 647.66 C 947.60 647.21 947.55 646.75 947.39 646.33 C 947.22 645.91 946.95 645.53 946.60 645.25 L 938.14 638.49 C 938.39 639.45 938.94 639.25 939.79 637.91 C 942.98 637.52 945.57 634.25 947.55 628.12 C 962.12 582.66 973.24 530.86 962.92 486.62 C 961.11 478.89 960.16 471.11 960.05 463.27 Z" fill="#cec3b9" fill-rule="nonzero" node-id="235" stroke="none" target-height="401.80203" target-width="239.078" target-x="771.912" target-y="463.275"></path><path d="M 499.38 528.04 C 497.93 521.31 499.05 512.75 502.73 502.36 C 482.95 491.65 458.93 487.19 430.68 488.96 C 412.49 490.06 398.33 494.26 388.19 501.56 C 385.81 502.45 384.27 502.15 383.56 500.66 C 405.10 480.93 480.35 476.73 501.40 496.46 C 502.67 497.62 503.45 499.19 503.58 500.87 C 504.40 509.77 503.00 518.83 499.38 528.04 Z" fill="#4e423d" fill-rule="nonzero" node-id="237" stroke="none" target-height="51.315002" target-width="120.83499" target-x="383.564" target-y="476.729"></path><path d="M 502.73 502.36 C 485.47 500.66 459.64 499.44 425.25 498.69 C 410.97 498.41 398.77 500.85 388.67 506.03 C 386.19 507.31 385.58 506.70 386.86 504.22 L 388.19 501.56 C 398.33 494.26 412.49 490.06 430.68 488.96 C 458.93 487.19 482.95 491.65 502.73 502.36 Z" fill="#fba2b7" fill-rule="nonzero" node-id="239" stroke="none" target-height="20.118988" target-width="117.14801" target-x="385.585" target-y="487.187"></path><path d="M 702.78 532.62 C 702.68 532.58 702.58 532.51 702.50 532.44 C 702.42 532.36 702.35 532.26 702.31 532.16 C 702.26 532.06 702.24 531.94 702.24 531.83 C 702.24 531.72 702.26 531.61 702.30 531.50 L 707.04 520.71 C 710.65 512.40 714.38 504.56 717.43 498.89 C 720.48 493.22 722.60 490.19 723.31 490.45 L 724.96 491.14 C 725.31 491.27 725.31 492.23 724.94 493.94 C 724.58 495.64 723.87 498.08 722.85 501.11 C 721.82 504.13 720.51 507.68 718.98 511.55 C 717.46 515.43 715.75 519.55 713.95 523.68 L 709.27 534.53 C 709.18 534.74 709.01 534.89 708.80 534.97 C 708.59 535.05 708.36 535.05 708.15 534.96 L 702.78 532.62 Z" fill="#715337" fill-rule="nonzero" node-id="241" stroke="none" target-height="44.865967" target-width="23.07196" target-x="702.239" target-y="490.187"></path><path d="M 677.20 602.97 C 678.05 602.72 678.73 602.69 679.23 602.86 C 680.82 603.36 680.62 603.86 678.64 604.35 L 663.54 608.29 C 583.13 607.37 533.31 569.70 514.06 495.29 C 513.92 494.83 514.06 494.30 514.48 493.69 C 515.19 492.59 515.78 492.66 516.24 493.90 C 522.57 511.40 528.79 531.45 539.58 545.75 C 571.95 588.65 617.82 607.72 677.20 602.97 Z" fill="#2e1e1b" fill-rule="nonzero" node-id="243" stroke="none" target-height="115.69504" target-width="166.90302" target-x="513.917" target-y="492.593"></path><path d="M 34.94 496.51 C 35.86 498.53 37.15 500.23 38.82 501.62 C 39.99 502.57 40.26 503.74 39.62 505.12 C 30.42 525.01 57.38 582.23 66.21 599.57 L 97.90 653.38 C 149.16 738.78 273.54 832.69 366.07 867.31 C 486.89 912.51 606.99 912.07 726.39 865.98 L 730.33 874.65 C 710.26 886.91 702.29 904.52 706.40 927.45 C 706.65 928.87 707.28 930.08 708.31 931.07 L 718.58 940.59 C 718.83 940.83 718.99 941.16 719.02 941.50 C 719.04 941.86 718.95 942.20 718.74 942.48 C 718.53 942.76 718.22 942.96 717.88 943.03 C 717.54 943.10 717.18 943.05 716.87 942.87 L 706.66 936.92 C 704.96 935.93 703.15 935.61 701.24 935.96 C 580.21 957.98 470.19 948.67 352.19 923.20 C 350.49 922.85 349.94 921.85 350.54 920.22 C 351.92 916.61 352.77 913.95 351.76 909.96 C 341.50 870.50 315.55 860.93 282.05 845.99 C 263.15 837.55 244.17 836.86 225.10 843.91 C 224.34 844.19 223.53 844.28 222.74 844.16 C 221.94 844.05 221.18 843.75 220.52 843.27 C 167.70 804.60 118.30 761.93 72.32 715.28 C 65.51 708.31 55.04 704.80 48.34 695.50 C 47.59 694.43 47.84 693.69 49.08 693.26 C 49.54 693.09 50.11 693.09 50.78 693.26 C 51.25 693.41 51.67 693.73 52.06 694.22 C 64.03 708.26 95.56 704.38 111.09 700.87 C 111.58 700.75 112.03 700.49 112.37 700.12 C 112.72 699.75 112.94 699.28 113.02 698.79 C 113.09 698.29 113.01 697.78 112.79 697.34 C 112.57 696.89 112.22 696.53 111.78 696.29 C 38.39 654.92 -24.25 581.17 34.94 496.51 Z" fill="#cec3b9" fill-rule="nonzero" node-id="245" stroke="none" target-height="461.466" target-width="754.5751" target-x="-24.2471" target-y="496.511"></path><path d="M 502.73 502.36 C 499.05 512.75 497.93 521.31 499.38 528.04 C 471.89 572.87 388.56 578.72 383.67 512.73 C 383.56 511.31 382.93 510.18 381.76 509.33 L 380.59 508.48 C 379.91 507.98 379.79 507.38 380.21 506.67 L 383.56 500.66 C 384.27 502.15 385.81 502.45 388.19 501.56 L 386.86 504.22 C 385.58 506.70 386.19 507.31 388.67 506.03 C 398.77 500.85 410.97 498.41 425.25 498.69 C 459.64 499.44 485.47 500.66 502.73 502.36 Z" fill="#c6626b" fill-rule="nonzero" node-id="247" stroke="none" target-height="80.31497" target-width="122.944" target-x="379.788" target-y="498.407"></path><path d="M 280.35 605.42 C 278.54 603.15 279.14 602.35 282.16 603.02 C 337.46 597.71 357.40 558.57 374.36 511.29 C 374.40 511.16 374.46 511.04 374.54 510.93 C 374.62 510.82 374.72 510.72 374.84 510.66 L 377.77 508.95 C 378.12 508.74 378.23 508.81 378.09 509.17 C 359.85 555.27 339.85 607.97 280.35 605.42 Z" fill="#372720" fill-rule="nonzero" node-id="249" stroke="none" target-height="99.228" target-width="99.68799" target-x="278.54" target-y="508.741"></path><path d="M 155.33 522.25 C 180.15 535.44 205.16 544.46 230.36 549.32 C 230.72 549.39 230.95 549.24 231.05 548.89 C 231.23 548.39 231.21 547.93 231.00 547.51 C 231.89 546.98 232.81 546.92 233.77 547.35 L 267.59 562.77 C 266.95 563.41 267.14 564.06 268.17 564.74 C 268.24 564.78 268.29 564.84 268.32 564.91 C 268.35 564.98 268.36 565.06 268.34 565.14 C 268.33 565.22 268.28 565.29 268.22 565.34 C 268.17 565.39 268.09 565.42 268.01 565.43 L 265.35 565.80 C 264.79 565.87 264.75 566.05 265.25 566.33 C 270.78 569.41 274.18 574.34 275.46 581.11 C 275.77 582.82 275.60 584.59 274.98 586.22 C 272.18 593.38 274.57 598.98 282.16 603.02 C 279.14 602.35 278.54 603.15 280.35 605.42 L 283.49 619.24 C 283.91 621.01 283.36 622.40 281.84 623.39 L 262.85 635.83 C 262.14 636.29 261.81 636.95 261.84 637.80 C 262.37 649.92 251.53 649.50 245.25 653.86 C 224.51 668.11 184.74 670.34 164.58 669.17 C 148.42 668.22 126.19 662.95 97.90 653.38 L 66.21 599.57 C 73.19 595.63 77.71 595.47 79.77 599.09 C 89.83 605.26 101.48 607.26 114.70 605.10 C 115.64 604.95 116.59 605.06 117.47 605.40 C 118.35 605.75 119.12 606.32 119.70 607.06 C 125.55 614.44 133.12 616.00 142.41 611.74 C 142.83 611.55 143.29 611.45 143.76 611.47 C 144.22 611.48 144.68 611.61 145.08 611.83 C 145.49 612.05 145.84 612.37 146.11 612.75 C 146.37 613.13 146.54 613.57 146.61 614.03 L 147.88 622.80 C 148.13 624.43 148.91 625.73 150.22 626.69 C 168.57 639.87 188.67 633.23 208.40 631.47 C 210.14 631.33 211.72 630.80 213.13 629.88 C 222.60 623.76 235.09 618.23 233.87 604.73 C 233.79 603.79 233.93 602.85 234.29 601.99 C 234.66 601.13 235.22 600.37 235.95 599.78 C 244.81 592.44 245.78 584.34 238.87 575.48 C 237.77 574.06 236.34 573.12 234.56 572.66 C 227.72 570.92 224.34 566.38 224.41 559.05 C 224.41 557.38 223.70 556.12 222.28 555.27 C 220.54 554.24 218.72 553.69 216.80 553.62 L 147.19 537.35 C 149.00 530.58 151.71 525.54 155.33 522.25 Z" fill="#fcecdc" fill-rule="nonzero" node-id="251" stroke="none" target-height="148.09601" target-width="217.70462" target-x="66.2064" target-y="522.248"></path><path d="M 939.79 637.91 C 938.94 639.25 938.39 639.45 938.14 638.49 C 918.47 631.58 897.90 627.41 876.46 626.00 C 868.55 625.46 860.56 627.02 852.48 630.67 C 821.95 644.39 769.25 671.89 735.54 665.08 C 710.72 660.08 688.23 649.71 668.06 633.97 C 661.86 629.12 660.35 620.55 663.54 608.29 L 678.64 604.35 C 680.63 603.86 680.82 603.36 679.23 602.86 C 678.73 602.69 678.06 602.72 677.21 602.97 C 677.24 600.95 678.22 599.71 680.13 599.25 C 681.76 598.82 682.66 597.76 682.84 596.06 C 684.37 580.71 691.81 569.02 705.18 561.01 C 705.97 560.55 706.64 559.91 707.14 559.13 C 707.63 558.36 707.95 557.47 708.05 556.55 C 709.08 547.29 713.99 542.28 722.78 541.50 L 783.45 530.12 C 784.41 535.97 787.58 538.29 792.97 537.08 C 825.46 529.85 857.63 538.15 891.45 529.00 C 892.98 528.58 894.16 528.59 895.02 529.05 C 895.69 529.37 896.19 529.83 896.50 530.44 C 897.25 531.78 896.88 532.63 895.39 532.99 C 852.67 543.38 810.45 555.41 768.72 569.10 C 767.23 569.59 766.28 570.50 765.85 571.81 C 765.75 572.12 765.71 572.44 765.76 572.77 C 765.80 573.09 765.92 573.40 766.10 573.67 C 766.29 573.94 766.53 574.17 766.82 574.34 C 767.11 574.50 767.43 574.60 767.76 574.63 C 812.93 577.50 858.29 578.54 903.84 577.76 C 905.12 577.76 906.24 578.05 907.19 578.62 C 908.86 579.64 908.72 580.23 906.77 580.37 C 882.84 582.36 858.91 584.08 834.98 585.53 C 823.28 586.24 818.23 592.58 819.83 604.57 C 820.00 605.95 820.76 606.80 822.11 607.12 C 854.19 615.06 886.14 622.01 917.93 627.96 C 925.91 629.40 932.29 634.72 939.79 637.91 Z" fill="#fcd9c8" fill-rule="nonzero" node-id="253" stroke="none" target-height="143.31104" target-width="279.443" target-x="660.348" target-y="528.576"></path><path d="M 147.19 537.35 L 216.80 553.62 C 215.03 555.50 212.88 556.55 210.37 556.76 L 140.87 539.11 C 140.38 538.99 139.96 538.68 139.71 538.25 C 139.46 537.82 139.39 537.30 139.52 536.82 C 139.66 536.33 139.98 535.91 140.42 535.65 C 140.86 535.39 141.39 535.32 141.88 535.44 C 143.37 535.79 145.14 536.43 147.19 537.35 Z" fill="#bda194" fill-rule="nonzero" node-id="255" stroke="none" target-height="21.44403" target-width="77.412994" target-x="139.389" target-y="535.316"></path><path d="M 216.80 553.62 C 218.72 553.69 220.54 554.24 222.28 555.27 C 223.70 556.12 224.41 557.38 224.41 559.05 C 224.34 566.38 227.72 570.92 234.56 572.66 C 236.34 573.12 237.77 574.06 238.87 575.48 C 245.78 584.34 244.81 592.44 235.95 599.78 C 235.22 600.37 234.66 601.13 234.30 601.99 C 233.93 602.85 233.79 603.79 233.87 604.73 C 235.09 618.23 222.60 623.76 213.13 629.88 C 211.72 630.80 210.14 631.33 208.40 631.47 C 188.67 633.23 168.57 639.87 150.23 626.69 C 148.91 625.73 148.13 624.43 147.89 622.80 L 146.61 614.03 C 146.54 613.57 146.37 613.13 146.11 612.75 C 145.84 612.37 145.49 612.05 145.09 611.83 C 144.68 611.61 144.22 611.48 143.76 611.47 C 143.29 611.45 142.83 611.55 142.41 611.74 C 133.12 616.00 125.55 614.44 119.70 607.06 C 119.12 606.32 118.35 605.75 117.47 605.40 C 116.59 605.06 115.64 604.95 114.70 605.10 C 101.48 607.26 89.83 605.26 79.77 599.09 L 110.72 598.88 C 112.49 598.88 114.10 598.33 115.56 597.23 C 121.69 592.55 128.65 589.66 136.45 588.56 C 139.64 588.10 139.89 587.00 137.20 585.26 C 135.46 584.13 133.46 583.84 131.19 584.41 C 130.75 584.52 130.29 584.54 129.85 584.45 C 129.40 584.35 128.98 584.16 128.62 583.89 C 128.27 583.61 127.97 583.25 127.77 582.85 C 127.57 582.44 127.47 581.99 127.47 581.54 L 127.47 577.55 C 127.47 575.21 126.31 573.87 124.01 573.51 C 105.04 570.57 86.11 568.14 67.22 566.23 C 65.69 566.08 64.27 565.62 62.96 564.84 C 61.54 564.03 60.23 563.34 59.03 562.77 C 58.66 562.62 58.35 562.34 58.18 561.98 C 58.01 561.62 57.97 561.21 58.08 560.83 C 58.19 560.44 58.44 560.10 58.78 559.87 C 59.12 559.64 59.53 559.54 59.93 559.58 C 102.79 564.29 145.74 568.28 188.78 571.54 C 202.53 572.61 209.73 567.68 210.37 556.76 C 212.88 556.55 215.03 555.50 216.80 553.62 Z" fill="#fcd9c8" fill-rule="nonzero" node-id="257" stroke="none" target-height="86.252014" target-width="187.8121" target-x="57.9719" target-y="553.622"></path><path d="M 363.89 649.92 L 381.06 646.95 C 382.77 646.66 384.29 645.99 385.64 644.93 C 404.30 630.51 415.15 597.87 428.39 576.81 C 429.36 575.27 430.66 573.98 432.19 573.02 C 433.73 572.06 435.47 571.46 437.27 571.27 C 439.07 571.08 440.90 571.31 442.60 571.92 C 444.31 572.54 445.85 573.54 447.11 574.84 C 470.56 599.09 516.13 659.34 557.66 638.60 C 557.91 638.49 558.16 638.49 558.41 638.60 C 559.01 638.85 559.35 639.17 559.42 639.56 C 559.49 639.91 559.37 640.19 559.05 640.41 C 541.99 652.14 530.60 667.49 524.85 686.46 C 515.65 716.82 517.83 789.25 479.81 800.89 C 452.75 809.13 433.23 782.71 424.67 759.47 C 412.08 725.08 398.84 695.14 384.95 669.65 C 380.76 661.92 373.69 656.80 363.73 654.28 C 363.24 654.16 362.80 653.87 362.50 653.46 C 362.19 653.05 362.04 652.55 362.05 652.04 C 362.07 651.53 362.26 651.04 362.60 650.66 C 362.93 650.27 363.39 650.02 363.89 649.92 Z M 427.43 741.18 C 435.52 769.09 464.02 816.37 492.89 776.70 C 501.01 765.53 506.24 745.09 508.58 715.38 L 514.54 676.03 C 514.65 675.28 514.61 674.51 514.39 673.78 C 514.18 673.04 513.81 672.36 513.31 671.78 C 477.53 630.09 403.88 698.26 427.43 741.18 Z" fill="#3a212f" fill-rule="nonzero" node-id="259" stroke="none" target-height="245.284" target-width="197.453" target-x="362.036" target-y="571.083"></path><path d="M 508.58 715.38 C 497.34 704.89 479.74 702.38 455.78 707.83 C 438.83 711.66 429.38 722.78 427.44 741.18 C 403.88 698.26 477.53 630.09 513.32 671.78 C 513.82 672.36 514.18 673.04 514.39 673.78 C 514.61 674.51 514.65 675.28 514.54 676.03 L 508.58 715.38 Z" fill="#c6626b" fill-rule="nonzero" node-id="261" stroke="none" target-height="111.086" target-width="110.77698" target-x="403.877" target-y="630.09"></path><path d="M 79.77 686.72 L 92.90 690.76 C 94.18 691.15 94.62 691.97 94.23 693.21 C 94.09 693.67 93.95 694.13 93.81 694.59 C 93.73 694.84 93.57 694.93 93.33 694.86 L 75.51 688.21 C 78.06 688.32 79.48 687.82 79.77 686.72 Z" fill="#bda194" fill-rule="nonzero" node-id="263" stroke="none" target-height="8.20697" target-width="19.1081" target-x="75.5123" target-y="686.723"></path><path d="M 508.58 715.38 C 506.24 745.09 501.01 765.53 492.89 776.70 C 464.02 816.37 435.52 769.09 427.44 741.18 C 429.38 722.78 438.83 711.66 455.78 707.83 C 479.74 702.38 497.34 704.89 508.58 715.38 Z" fill="#fba2b7" fill-rule="nonzero" node-id="265" stroke="none" target-height="113.992004" target-width="81.147" target-x="427.435" target-y="702.375"></path><path d="M 771.91 841.36 C 773.33 845.40 774.80 848.13 776.33 849.55 L 730.33 874.65 L 726.39 865.98 L 771.91 841.36 Z" fill="#bda194" fill-rule="nonzero" node-id="267" stroke="none" target-height="33.289" target-width="49.932983" target-x="726.393" target-y="841.36"></path><path d="M 283.43 850.61 L 283.96 851.94 C 284.03 852.11 284.06 852.30 284.04 852.48 C 284.03 852.66 283.97 852.84 283.88 853.00 C 283.79 853.15 283.66 853.29 283.51 853.39 C 283.36 853.50 283.19 853.56 283.01 853.59 C 247.22 859.92 214.36 872.41 236.00 918.15 C 202.44 904.53 201.81 872.04 228.93 853.86 C 243.64 844.00 261.81 842.92 283.43 850.61 Z" fill="#fbf1e1" fill-rule="nonzero" node-id="269" stroke="none" target-height="75.22699" target-width="82.25" target-x="201.807" target-y="842.92"></path><path d="M 283.43 850.61 C 285.60 850.40 288.08 852.24 290.88 856.14 L 253.76 862.95 C 252.17 863.26 250.72 864.06 249.61 865.24 C 239.08 876.72 228.45 916.34 250.94 919.64 L 253.97 921.60 C 239.93 922.91 233.94 921.76 236.00 918.15 C 214.36 872.42 247.22 859.92 283.01 853.59 C 283.19 853.56 283.36 853.50 283.51 853.39 C 283.66 853.29 283.79 853.15 283.88 853.00 C 283.97 852.84 284.03 852.66 284.04 852.48 C 284.06 852.30 284.03 852.11 283.96 851.94 L 283.43 850.61 Z" fill="#4e423d" fill-rule="nonzero" node-id="271" stroke="none" target-height="72.51495" target-width="76.52199" target-x="214.356" target-y="850.4"></path><path d="M 807.22 883.85 C 791.16 880.09 778.10 882.20 768.03 890.18 C 767.68 890.14 767.34 890.11 767.02 890.07 C 770.14 886.56 770.48 883.99 768.03 882.36 C 767.71 882.16 767.36 882.03 766.99 881.99 C 766.62 881.94 766.25 881.98 765.90 882.09 C 753.14 886.56 742.38 886.08 733.62 880.66 C 768.83 856.89 811.37 828.23 840.24 879.22 C 855.29 905.81 832.64 930.75 806.21 934.95 C 804.65 935.20 804.10 934.56 804.56 933.04 L 816.00 896.82 C 816.56 895.05 816.21 893.47 814.93 892.09 L 807.22 883.85 Z M 810.89 876.35 C 815.50 880.50 820.98 882.52 827.32 882.41 C 827.69 882.40 828.05 882.27 828.33 882.02 C 828.61 881.78 828.79 881.45 828.85 881.09 C 828.92 880.73 828.85 880.35 828.67 880.03 C 828.49 879.71 828.20 879.46 827.85 879.33 L 812.54 873.64 C 807.33 871.72 806.78 872.63 810.89 876.35 Z" fill="#cec3b9" fill-rule="nonzero" node-id="273" stroke="none" target-height="106.97296" target-width="121.66803" target-x="733.625" target-y="828.226"></path><path d="M 290.88 856.14 C 321.26 865.40 338.01 885.59 341.13 916.71 C 341.34 918.80 340.40 919.94 338.31 920.12 L 288.48 924.10 C 285.58 922.90 283.75 921.28 283.01 919.26 L 278.70 894.54 C 278.61 894.05 278.37 893.61 278.01 893.26 C 277.65 892.92 277.20 892.70 276.70 892.64 C 276.21 892.57 275.72 892.67 275.28 892.90 C 274.85 893.14 274.50 893.51 274.29 893.95 C 271.77 899.59 271.31 906.25 272.90 913.95 C 272.73 915.65 272.26 917.05 271.52 918.15 C 270.56 919.53 269.25 920.19 267.59 920.12 L 250.94 919.64 C 228.45 916.34 239.08 876.72 249.61 865.24 C 250.72 864.06 252.17 863.26 253.76 862.95 L 290.88 856.14 Z" fill="#fbf1e1" fill-rule="nonzero" node-id="275" stroke="none" target-height="67.96002" target-width="112.893005" target-x="228.448" target-y="856.143"></path><path d="M 810.89 876.35 C 806.78 872.63 807.33 871.72 812.54 873.64 L 827.85 879.33 C 828.20 879.46 828.49 879.71 828.67 880.03 C 828.85 880.35 828.92 880.73 828.85 881.09 C 828.79 881.45 828.60 881.78 828.33 882.02 C 828.04 882.27 827.69 882.40 827.32 882.41 C 820.98 882.52 815.50 880.50 810.89 876.35 Z" fill="#715337" fill-rule="nonzero" node-id="277" stroke="none" target-height="10.794983" target-width="22.138977" target-x="806.778" target-y="871.724"></path><path d="M 201.33 871.62 C 181.49 903.04 212.07 923.52 239.77 931.50 C 227.65 944.20 239.51 959.36 233.71 975.26 C 195.64 968.88 148.26 957.82 117.31 933.57 C 74.61 900.07 187.40 873.64 201.33 871.62 Z" fill="#bdb3b0" fill-rule="nonzero" node-id="279" stroke="none" target-height="103.64099" target-width="165.1658" target-x="74.6082" target-y="871.618"></path><path d="M 848.17 871.62 L 862.52 871.94 C 860.79 874.67 856.76 876.35 850.45 876.99 C 849.89 877.77 849.12 875.98 848.17 871.62 Z" fill="#bda194" fill-rule="nonzero" node-id="281" stroke="none" target-height="6.151001" target-width="14.358032" target-x="848.167" target-y="871.618"></path><path d="M 781.48 980.42 C 787.94 968.43 789.82 956.91 787.12 945.85 C 823.65 945.96 870.66 921.12 850.45 876.99 C 856.76 876.35 860.79 874.67 862.52 871.94 C 886.19 875.71 924.58 887.20 940.38 911.29 C 941.44 912.92 941.83 914.71 941.54 916.66 C 934.85 960.32 815.73 975.63 781.48 980.42 Z" fill="#cec3b9" fill-rule="nonzero" node-id="283" stroke="none" target-height="108.47998" target-width="160.34497" target-x="781.484" target-y="871.937"></path><path d="M 733.62 880.66 C 742.38 886.08 753.14 886.56 765.90 882.09 C 766.25 881.98 766.62 881.94 766.99 881.99 C 767.36 882.03 767.71 882.16 768.03 882.36 C 770.48 883.99 770.14 886.56 767.02 890.07 C 756.81 902.46 758.94 919.53 755.11 933.30 C 754.65 934.93 753.62 935.98 752.02 936.44 C 707.14 949.73 699.70 896.82 733.62 880.66 Z" fill="#e1dbd1" fill-rule="nonzero" node-id="285" stroke="none" target-height="69.07599" target-width="70.778015" target-x="699.698" target-y="880.658"></path><path d="M 807.22 883.85 C 813.35 901.57 808.76 918.50 793.45 934.63 C 792.91 935.21 792.26 935.66 791.54 935.98 C 790.82 936.30 790.04 936.48 789.25 936.49 L 764.79 936.87 C 763.23 936.87 762.53 936.09 762.71 934.53 L 768.03 890.18 C 778.10 882.20 791.16 880.09 807.22 883.85 Z" fill="#fbf1e1" fill-rule="nonzero" node-id="287" stroke="none" target-height="56.773987" target-width="50.81903" target-x="762.535" target-y="880.091"></path><path d="M 283.01 919.26 C 281.24 920.40 279.34 920.86 277.32 920.65 C 275.40 920.47 274.21 919.44 273.75 917.56 L 272.90 913.95 C 271.31 906.25 271.77 899.59 274.29 893.95 C 274.50 893.50 274.85 893.14 275.28 892.90 C 275.72 892.67 276.21 892.57 276.71 892.64 C 277.20 892.70 277.65 892.92 278.01 893.26 C 278.37 893.60 278.61 894.05 278.70 894.54 L 283.01 919.26 Z" fill="#715337" fill-rule="nonzero" node-id="289" stroke="none" target-height="28.285034" target-width="11.698975" target-x="271.308" target-y="892.574"></path><path d="M 272.90 913.95 L 273.75 917.56 C 274.21 919.44 275.40 920.47 277.32 920.65 C 279.34 920.86 281.24 920.40 283.01 919.26 C 283.75 921.28 285.58 922.90 288.48 924.10 C 277.42 926.16 265.92 925.33 253.97 921.60 L 250.94 919.64 L 267.59 920.12 C 269.25 920.19 270.56 919.53 271.52 918.15 C 272.26 917.05 272.73 915.65 272.90 913.95 Z" fill="#aaa1a1" fill-rule="nonzero" node-id="291" stroke="none" target-height="12.213013" target-width="37.542007" target-x="250.942" target-y="913.946"></path><path d="M 239.78 931.50 C 268.70 935.32 298.18 936.76 328.21 935.80 C 338.98 935.45 349.48 936.62 359.69 939.31 C 470.69 968.91 582.62 972.60 695.50 950.37 C 725.06 944.58 756.33 949.58 787.12 945.85 C 789.82 956.91 787.94 968.43 781.48 980.42 C 598.70 1004.10 416.11 1002.38 233.71 975.26 C 239.51 959.36 227.65 944.20 239.78 931.50 Z" fill="#b4aaa6" fill-rule="nonzero" node-id="293" stroke="none" target-height="72.60498" target-width="562.16504" target-x="227.65" target-y="931.495"></path></g></svg>