<?xml version="1.0" standalone="no"?><!DOCTYPE svg PUBLIC "-//W3C//DTD SVG 1.1//EN" "http://www.w3.org/Graphics/SVG/1.1/DTD/svg11.dtd"><svg height="1024" node-id="1" sillyvg="true" template-height="1024" template-width="1024" version="1.1" viewBox="0 0 1024 1024" width="1024" xmlns="http://www.w3.org/2000/svg" xmlns:xlink="http://www.w3.org/1999/xlink"><defs node-id="77"><clipPath id="clip0_2_4809" node-id="74"><path d="M 0.00 0.00 L 1024.00 0.00 L 1024.00 1024.00 L 0.00 1024.00 Z" fill="#000000" fill-rule="nonzero" node-id="80" stroke="none" target-height="1024" target-width="1024" target-x="0" target-y="0"></path></clipPath></defs><g clip-path="url(#clip0_2_4809)" id="sillyvg_g_0" node-id="84"><path d="M 0.00 0.00 L 1024.00 0.00 L 1024.00 1024.00 L 0.00 1024.00 Z" fill="#ffffff" fill-rule="nonzero" node-id="86" stroke="none" target-height="1024" target-width="1024" target-x="0" target-y="0"></path><path d="M 0.00 0.00 L 1024.00 0.00 L 1024.00 1024.00 L 0.00 1024.00 Z" fill="#ffffff" fill-rule="nonzero" node-id="88" stroke="none" target-height="1024" target-width="1024" target-x="0" target-y="0"></path><path d="M 587.92 25.03 C 587.64 32.06 591.10 35.63 598.31 35.74 L 612.86 55.56 L 630.44 110.70 C 630.50 111.03 630.44 111.37 630.26 111.66 C 630.09 111.95 629.82 112.16 629.50 112.27 C 629.18 112.37 628.84 112.36 628.53 112.22 C 628.22 112.09 627.97 111.85 627.83 111.55 L 624.68 102.28 C 602.36 9.69 501.67 -8.43 423.88 24.76 C 423.16 25.06 422.58 25.62 422.26 26.34 C 421.94 27.05 421.91 27.86 422.18 28.60 C 423.63 33.07 425.73 36.45 428.46 38.72 L 428.09 54.23 C 428.02 56.25 426.99 57.40 425.00 57.69 L 415.73 59.18 C 363.91 66.28 315.78 84.24 271.35 113.04 C 269.89 113.97 268.35 114.14 266.71 113.58 C 263.52 112.44 260.91 110.40 258.88 107.45 C 257.82 105.89 256.45 104.64 254.78 103.72 C 231.60 90.83 147.96 42.61 117.54 56.78 C 99.85 79.59 89.05 107.33 85.15 140.00 C 79.34 185.07 88.34 225.88 86.53 271.01 C 86.42 273.53 87.13 273.78 88.66 271.75 L 121.00 229.56 L 176.46 173.72 L 182.80 175.32 C 135.88 214.64 99.51 261.13 73.69 314.80 L 60.64 315.76 L 78.22 282.46 C 79.04 280.94 79.27 279.32 78.91 277.62 C 66.02 216.29 66.77 132.12 95.91 75.27 C 108.43 50.92 120.31 38.93 148.97 46.93 C 190.46 58.47 228.87 76.69 264.21 101.59 C 265.81 102.72 267.44 102.78 269.11 101.75 C 314.82 74.04 364.09 55.45 416.90 45.97 C 419.25 45.54 419.74 44.33 418.39 42.34 C 397.77 12.19 455.79 1.91 474.01 0.58 C 514.29 -2.34 552.26 5.81 587.92 25.03 Z" fill="#2e1e1b" fill-rule="nonzero" node-id="90" stroke="none" target-height="324.19058" target-width="569.8586" target-x="60.6384" target-y="-8.4286"></path><path d="M 624.68 102.28 C 624.54 104.20 623.90 105.34 622.76 105.69 C 620.60 106.40 618.89 105.87 617.65 104.09 C 607.99 87.29 593.23 73.62 573.38 63.07 C 549.79 48.65 524.33 38.15 496.98 31.58 C 495.41 31.19 494.76 31.81 495.01 33.45 C 495.15 34.26 495.66 34.87 496.55 35.26 C 518.32 45.03 536.10 53.76 549.88 61.47 C 551.59 62.43 552.74 63.85 553.34 65.73 C 554.84 70.42 557.52 74.31 561.39 77.40 C 562.55 78.32 563.42 79.56 563.88 80.96 C 564.35 82.37 564.39 83.88 564.00 85.31 C 563.62 86.74 562.82 88.02 561.71 89.00 C 560.60 89.98 559.23 90.62 557.77 90.83 C 502.20 98.98 440.72 103.08 388.40 125.99 C 387.80 126.24 387.29 126.68 386.95 127.23 C 386.61 127.79 386.45 128.44 386.51 129.09 C 386.56 129.75 386.82 130.36 387.24 130.86 C 387.67 131.35 388.24 131.70 388.88 131.85 C 437.68 144.56 476.32 171.90 504.81 213.84 C 499.96 234.41 422.44 227.38 397.72 224.87 C 396.11 224.70 394.48 225.13 393.14 226.10 L 373.11 240.59 C 365.51 239.42 358.46 239.66 351.96 241.33 C 346.15 231.74 337.94 227.00 326.06 227.48 C 295.86 228.71 266.77 229.08 236.45 235.74 C 210.08 241.49 182.06 237.71 163.41 260.73 C 150.30 276.92 140.54 288.52 134.11 295.52 C 133.48 296.21 132.62 296.64 131.69 296.72 C 130.76 296.80 129.83 296.52 129.10 295.94 C 99.53 272.77 105.71 314.00 85.15 314.70 C 83.48 314.77 82.32 315.55 81.68 317.04 C 79.37 322.44 75.91 326.79 71.29 330.09 C 70.94 330.34 70.83 330.68 70.97 331.11 C 71.12 331.53 71.26 331.98 71.40 332.44 C 71.79 333.75 71.33 334.59 70.02 334.94 L 64.90 336.38 L 73.69 314.80 C 99.51 261.13 135.88 214.64 182.80 175.32 L 205.18 158.33 C 206.63 157.26 206.88 155.95 205.93 154.39 C 187.70 124.23 163.85 98.53 134.37 77.29 L 125.74 67.81 L 117.54 56.78 C 147.96 42.61 231.60 90.83 254.78 103.72 C 256.45 104.64 257.82 105.89 258.88 107.45 C 260.91 110.40 263.52 112.44 266.71 113.58 C 268.35 114.14 269.89 113.97 271.35 113.04 C 315.78 84.24 363.91 66.28 415.73 59.18 C 440.27 76.65 468.88 83.21 501.56 78.84 C 503.41 78.59 503.49 78.02 501.82 77.13 L 428.46 38.72 C 425.73 36.45 423.63 33.07 422.18 28.60 C 421.91 27.86 421.94 27.05 422.26 26.34 C 422.58 25.62 423.16 25.06 423.88 24.76 C 501.67 -8.43 602.36 9.69 624.68 102.28 Z" fill="#fefefe" fill-rule="nonzero" node-id="92" stroke="none" target-height="344.8084" target-width="559.78143" target-x="64.9006" target-y="-8.42842"></path><path d="M 587.92 25.03 C 641.78 34.30 721.17 75.06 745.46 129.82 C 744.00 129.72 742.21 130.71 740.08 132.81 C 729.07 113.74 716.07 98.82 701.08 88.06 C 670.64 61.31 636.39 43.87 598.31 35.74 C 591.10 35.63 587.64 32.06 587.92 25.03 Z" fill="#170f0a" fill-rule="nonzero" node-id="94" stroke="none" target-height="107.77951" target-width="157.82495" target-x="587.637" target-y="25.0295"></path><path d="M 573.38 63.07 L 570.29 63.39 C 569.69 63.46 569.12 63.71 568.67 64.12 C 568.21 64.52 567.89 65.05 567.75 65.63 C 567.61 66.22 567.66 66.83 567.88 67.38 C 568.11 67.93 568.50 68.40 569.01 68.72 C 585.31 79.09 599.87 91.79 612.70 106.81 C 613.23 107.45 613.97 107.89 614.93 108.14 C 616.50 108.57 617.37 107.96 617.54 106.33 C 617.62 105.66 617.65 104.91 617.65 104.09 C 618.89 105.87 620.60 106.40 622.76 105.69 C 623.90 105.34 624.54 104.20 624.68 102.28 L 627.83 111.55 C 627.97 111.85 628.22 112.09 628.53 112.22 C 628.84 112.36 629.19 112.37 629.50 112.27 C 629.82 112.16 630.09 111.95 630.27 111.66 C 630.44 111.37 630.50 111.03 630.44 110.70 L 612.86 55.56 C 618.98 51.03 623.72 49.54 630.81 53.96 C 652.65 67.74 676.08 79.11 701.08 88.06 C 716.07 98.82 729.07 113.73 740.08 132.81 C 740.19 137.60 741.95 140.36 745.36 141.07 C 748.34 143.69 753.58 144.53 761.07 143.57 C 762.96 143.32 764.64 143.82 766.13 145.06 C 787.23 162.64 797.67 182.66 797.46 205.11 L 793.78 208.78 C 792.22 210.34 792.49 211.48 794.58 212.19 L 804.23 215.34 C 823.37 229.51 840.05 246.40 854.25 266.00 C 868.53 284.19 881.39 305.05 892.83 328.60 C 919.18 382.94 941.22 436.10 958.94 488.06 C 959.76 490.37 958.96 491.27 956.55 490.78 C 951.38 489.76 949.14 489.02 943.87 490.30 C 924.51 494.95 907.12 491.08 891.71 478.68 C 891.67 478.66 891.62 478.64 891.57 478.63 C 891.52 478.62 891.48 478.63 891.43 478.64 C 891.38 478.66 891.34 478.69 891.30 478.72 C 891.27 478.75 891.24 478.80 891.23 478.84 C 891.16 478.99 891.10 479.09 891.07 479.16 C 890.89 479.66 891.01 480.10 891.44 480.49 L 915.04 500.85 C 906.45 502.30 897.83 498.56 889.20 489.61 C 884.44 484.70 878.90 482.41 872.58 482.73 C 863.31 483.19 858.50 483.41 858.14 483.37 C 837.74 481.99 821.12 493.92 800.98 495.68 C 798.74 495.89 795.67 497.40 791.76 500.21 C 789.20 502.05 787.05 502.82 785.31 502.50 C 782.37 502.00 780.73 499.69 780.41 495.57 C 769.12 430.73 717.92 372.82 649.51 369.15 C 639.71 344.43 632.99 316.13 629.90 291.04 C 657.18 275.73 682.43 278.01 705.66 297.86 C 705.91 298.07 706.16 298.09 706.41 297.91 C 706.80 297.70 707.23 297.51 707.69 297.33 C 707.83 297.29 707.85 297.22 707.74 297.12 C 695.67 283.26 680.66 274.61 662.72 271.17 C 660.95 270.85 659.24 271.06 657.61 271.81 L 628.57 285.02 C 628.18 263.75 622.00 245.58 610.03 230.52 C 609.11 229.38 608.45 229.51 608.06 230.89 C 607.49 232.70 608.66 235.38 611.58 238.94 C 604.12 238.72 600.34 241.92 600.23 248.53 C 599.70 284.60 595.17 322.74 554.14 332.49 C 552.42 332.90 550.63 332.72 549.08 331.96 C 523.40 319.33 522.02 277.30 521.54 253.80 C 521.29 241.76 515.71 228.44 504.81 213.84 C 476.32 171.90 437.68 144.56 388.88 131.85 C 388.24 131.70 387.67 131.35 387.25 130.86 C 386.82 130.36 386.56 129.75 386.51 129.09 C 386.45 128.44 386.61 127.79 386.95 127.23 C 387.29 126.68 387.80 126.24 388.40 125.99 C 440.72 103.08 502.20 98.98 557.77 90.83 C 559.23 90.62 560.61 89.98 561.71 89.00 C 562.82 88.02 563.62 86.74 564.00 85.31 C 564.39 83.88 564.35 82.37 563.88 80.96 C 563.42 79.56 562.55 78.32 561.39 77.40 C 557.52 74.31 554.84 70.42 553.35 65.73 C 552.74 63.85 551.59 62.43 549.88 61.47 C 536.10 53.76 518.32 45.03 496.55 35.26 C 495.66 34.87 495.15 34.26 495.01 33.45 C 494.76 31.81 495.42 31.19 496.98 31.58 C 524.33 38.15 549.79 48.65 573.38 63.07 Z" fill="#e1dbd1" fill-rule="nonzero" node-id="96" stroke="none" target-height="471.6264" target-width="573.306" target-x="386.454" target-y="31.1916"></path><path d="M 598.31 35.74 C 636.38 43.87 670.64 61.31 701.08 88.06 C 676.08 79.11 652.65 67.74 630.81 53.96 C 623.72 49.54 618.98 51.03 612.85 55.56 L 598.31 35.74 Z" fill="#fefefe" fill-rule="nonzero" node-id="98" stroke="none" target-height="52.317997" target-width="102.770996" target-x="598.31" target-y="35.7383"></path><path d="M 428.46 38.72 L 501.82 77.13 C 503.49 78.02 503.41 78.59 501.56 78.84 C 468.88 83.21 440.27 76.65 415.73 59.18 L 425.00 57.69 C 426.99 57.40 428.02 56.25 428.09 54.22 L 428.46 38.72 Z" fill="#fbf1e1" fill-rule="nonzero" node-id="100" stroke="none" target-height="44.486202" target-width="87.764984" target-x="415.729" target-y="38.7214"></path><path d="M 117.54 56.78 L 125.74 67.81 L 112.26 126.26 L 97.40 131.64 C 96.68 131.88 96.04 132.30 95.53 132.86 C 95.02 133.42 94.65 134.10 94.47 134.83 C 91.63 145.70 88.52 147.42 85.15 140.00 C 89.05 107.33 99.85 79.58 117.54 56.78 Z" fill="#e9b6a0" fill-rule="nonzero" node-id="102" stroke="none" target-height="90.641495" target-width="40.597504" target-x="85.1465" target-y="56.7825"></path><path d="M 573.38 63.07 C 593.23 73.62 607.99 87.29 617.65 104.09 C 617.65 104.91 617.61 105.66 617.54 106.33 C 617.37 107.96 616.50 108.57 614.93 108.14 C 613.97 107.89 613.23 107.45 612.70 106.81 C 599.87 91.78 585.31 79.09 569.01 68.72 C 568.50 68.40 568.11 67.93 567.88 67.38 C 567.66 66.83 567.61 66.22 567.75 65.63 C 567.89 65.05 568.21 64.52 568.66 64.12 C 569.12 63.71 569.69 63.46 570.29 63.39 L 573.38 63.07 Z" fill="#bdb3b0" fill-rule="nonzero" node-id="104" stroke="none" target-height="45.498302" target-width="50.039" target-x="567.611" target-y="63.0687"></path><path d="M 125.74 67.81 L 134.37 77.29 C 145.88 92.85 154.35 111.55 164.32 124.71 C 172.84 136.01 181.74 147.03 191.01 157.80 C 192.22 159.22 192.13 160.53 190.74 161.74 L 176.46 173.72 L 121.00 229.56 C 97.99 207.98 108.69 154.97 112.26 126.26 L 125.74 67.81 Z" fill="#a97071" fill-rule="nonzero" node-id="106" stroke="none" target-height="161.749" target-width="94.229294" target-x="97.9857" target-y="67.811"></path><path d="M 134.37 77.29 C 163.85 98.53 187.71 124.23 205.93 154.39 C 206.88 155.95 206.64 157.26 205.18 158.33 L 182.80 175.32 L 176.46 173.72 L 190.74 161.74 C 192.13 160.53 192.22 159.22 191.01 157.79 C 181.74 147.03 172.84 136.00 164.32 124.71 C 154.35 111.55 145.88 92.85 134.37 77.29 Z" fill="#412d27" fill-rule="nonzero" node-id="108" stroke="none" target-height="98.030106" target-width="72.51001" target-x="134.374" target-y="77.2939"></path><path d="M 916.21 354.44 C 912.59 351.85 910.23 349.29 909.13 346.77 C 913.60 325.74 918.61 305.51 924.15 286.09 C 938.64 234.98 940.10 184.26 928.52 133.93 C 921.91 120.50 913.98 113.56 904.71 113.10 C 858.14 110.75 806.68 123.06 745.35 141.07 C 741.95 140.36 740.19 137.60 740.08 132.81 C 742.21 130.71 744.00 129.72 745.46 129.82 C 777.75 118.07 818.86 108.66 868.80 101.59 C 925.75 93.49 942.43 125.83 946.05 175.54 C 950.49 235.85 940.54 295.48 916.21 354.44 Z" fill="#372720" fill-rule="nonzero" node-id="110" stroke="none" target-height="260.95093" target-width="210.409" target-x="740.08" target-y="93.4901"></path><path d="M 928.52 133.93 C 923.34 141.39 918.20 143.80 913.12 141.17 L 797.46 205.11 C 797.67 182.66 787.23 162.64 766.13 145.06 C 764.64 143.82 762.95 143.32 761.07 143.57 C 753.58 144.53 748.34 143.69 745.36 141.07 C 806.68 123.06 858.14 110.75 904.71 113.10 C 913.98 113.56 921.91 120.50 928.52 133.93 Z" fill="#fefefe" fill-rule="nonzero" node-id="112" stroke="none" target-height="94.354004" target-width="183.16602" target-x="745.355" target-y="110.752"></path><path d="M 112.26 126.26 C 108.69 154.97 97.99 207.98 121.00 229.56 L 88.66 271.75 C 87.13 273.78 86.42 273.53 86.53 271.01 C 88.34 225.88 79.34 185.07 85.15 140.00 C 88.52 147.43 91.63 145.70 94.47 134.83 C 94.65 134.10 95.01 133.42 95.53 132.86 C 96.04 132.30 96.68 131.88 97.40 131.64 L 112.26 126.26 Z" fill="#d0988b" fill-rule="nonzero" node-id="114" stroke="none" target-height="147.524" target-width="41.662697" target-x="79.3383" target-y="126.256"></path><path d="M 928.52 133.93 C 940.10 184.26 938.64 234.98 924.15 286.09 C 918.61 305.51 913.60 325.74 909.13 346.77 L 868.48 277.35 C 892.17 241.62 906.00 202.55 909.98 160.14 C 910.12 158.40 909.84 156.71 909.13 155.08 L 906.73 149.70 C 908.86 149.16 910.99 146.32 913.12 141.17 C 918.20 143.80 923.34 141.39 928.52 133.93 Z" fill="#c28780" fill-rule="nonzero" node-id="116" stroke="none" target-height="212.84201" target-width="71.62201" target-x="868.477" target-y="133.927"></path><path d="M 913.12 141.17 C 910.99 146.32 908.86 149.16 906.73 149.70 C 881.48 165.93 856.08 181.90 830.54 197.59 C 822.13 202.76 810.25 201.54 804.23 215.34 L 794.58 212.19 C 792.49 211.48 792.22 210.34 793.78 208.78 L 797.46 205.10 L 913.12 141.17 Z" fill="#2e1e1b" fill-rule="nonzero" node-id="118" stroke="none" target-height="74.162" target-width="120.903015" target-x="792.221" target-y="141.173"></path><path d="M 906.73 149.70 L 909.13 155.08 C 909.84 156.71 910.12 158.40 909.98 160.14 C 906.00 202.55 892.17 241.62 868.48 277.35 C 863.12 271.27 858.37 267.49 854.25 266.00 C 840.05 246.40 823.37 229.51 804.23 215.34 C 810.25 201.54 822.13 202.76 830.54 197.59 C 856.08 181.89 881.48 165.93 906.73 149.70 Z" fill="#9b6364" fill-rule="nonzero" node-id="120" stroke="none" target-height="127.65199" target-width="105.89697" target-x="804.226" target-y="149.697"></path><path d="M 504.81 213.84 C 515.71 228.44 521.29 241.76 521.54 253.80 C 522.02 277.30 523.40 319.33 549.08 331.96 C 550.63 332.72 552.42 332.90 554.14 332.49 C 595.17 322.74 599.70 284.60 600.23 248.53 C 600.34 241.92 604.12 238.72 611.58 238.94 L 627.45 284.92 L 629.90 291.04 C 632.99 316.13 639.71 344.43 649.51 369.15 C 599.39 370.39 564.14 391.15 543.75 431.43 L 526.55 437.13 C 524.84 437.69 523.51 438.74 522.55 440.27 C 519.78 444.60 515.87 447.68 510.83 449.49 C 510.64 449.56 510.44 449.55 510.26 449.47 C 510.08 449.39 509.94 449.24 509.87 449.06 C 509.73 448.60 509.57 448.15 509.39 447.73 C 509.00 446.74 508.27 446.13 507.21 445.92 C 494.56 443.54 481.97 442.97 469.43 444.21 C 443.65 446.77 403.90 446.61 387.81 463.39 C 384.12 467.23 380.09 470.99 375.72 474.69 C 374.80 475.45 374.08 476.43 373.63 477.54 C 373.18 478.64 373.01 479.84 373.13 481.03 C 373.25 482.22 373.66 483.36 374.33 484.36 C 374.99 485.35 375.89 486.16 376.94 486.73 L 401.45 499.99 C 391.97 529.14 408.91 547.62 432.73 559.61 C 456.86 571.76 484.94 555.62 506.03 540.86 C 514.56 541.50 522.28 538.55 529.21 532.01 C 529.85 531.41 530.60 530.95 531.43 530.67 C 532.26 530.38 533.13 530.28 534.00 530.36 C 545.65 531.50 554.71 529.15 561.18 523.33 C 583.73 561.55 614.52 576.36 653.56 567.76 L 661.76 568.51 C 720.63 552.21 755.74 453.54 700.23 415.98 C 698.52 414.41 698.22 412.69 699.32 410.81 C 713.39 420.43 725.36 433.74 735.23 450.71 C 731.93 466.00 743.44 473.83 745.46 487.15 C 747.31 499.09 747.31 510.69 745.46 521.94 C 740.45 535.55 733.08 546.66 723.35 555.29 L 706.20 563.02 C 704.56 563.73 702.84 564.09 701.03 564.09 C 695.59 564.12 690.98 565.97 687.18 569.63 C 686.71 570.08 686.14 570.41 685.52 570.62 C 684.89 570.82 684.22 570.88 683.55 570.80 C 678.01 570.02 674.48 572.13 672.95 577.14 C 665.63 601.15 669.33 623.60 684.03 644.48 C 684.52 645.11 684.83 645.86 684.94 646.66 C 685.97 654.05 687.62 661.28 689.89 668.35 C 690.50 670.16 691.56 671.62 693.09 672.72 C 703.11 679.96 706.43 689.48 703.05 701.27 C 649.24 760.78 573.38 798.82 499.64 825.20 C 488.35 829.25 476.04 828.07 464.05 831.96 C 422.25 832.35 380.32 830.37 338.26 826.00 C 280.57 819.98 221.80 786.52 180.56 746.61 C 164.10 730.74 148.33 712.30 128.78 700.32 C 122.25 696.34 115.16 692.09 107.52 687.58 L 170.18 683.80 C 172.38 683.66 172.65 682.86 170.97 681.40 C 169.38 679.95 166.75 679.06 163.09 678.74 L 163.36 676.82 C 163.57 675.08 162.95 673.70 161.49 672.66 C 137.77 656.22 117.88 635.53 101.82 610.60 L 118.87 614.27 C 120.15 614.55 121.47 614.42 122.65 613.90 C 129.22 611.02 136.08 609.99 143.22 610.81 C 145.21 611.06 147.07 610.72 148.81 609.80 C 159.15 604.36 171.46 605.54 180.83 602.82 C 195.70 598.45 206.51 598.66 219.99 589.39 C 225.00 585.91 230.25 582.82 235.76 580.12 C 237.25 579.38 238.57 578.38 239.70 577.14 C 254.94 560.25 256.27 536.38 256.80 514.97 C 256.84 513.19 256.15 511.79 254.73 510.76 L 222.92 488.22 C 182.54 449.27 196.34 385.45 240.18 355.99 C 251.90 348.05 268.74 343.94 283.07 338.78 C 283.53 338.63 284.06 338.74 284.67 339.10 C 285.81 339.77 285.77 340.36 284.56 340.86 C 276.04 344.44 270.23 350.48 267.14 358.97 C 263.59 359.57 261.60 358.81 261.17 356.68 C 261.74 355.51 262.03 354.58 262.03 353.91 C 261.95 352.35 261.24 351.97 259.89 352.79 C 241.51 364.24 237.89 391.36 236.88 412.09 C 234.91 453.32 239.49 480.55 278.38 499.78 C 344.41 508.38 385.98 477.01 403.10 405.69 C 384.72 320.02 309.33 306.23 233.10 332.65 C 215.99 338.62 202.30 332.17 188.34 323.27 C 187.42 322.67 186.59 322.63 185.84 323.17 C 184.74 323.95 184.77 324.69 185.95 325.40 L 212.26 341.50 C 212.56 341.68 212.80 341.92 212.98 342.22 C 213.16 342.51 213.26 342.84 213.29 343.19 C 213.32 343.53 213.26 343.87 213.13 344.19 C 213.00 344.51 212.79 344.79 212.53 345.01 L 188.08 366.32 C 187.38 366.94 186.55 367.38 185.64 367.62 C 184.74 367.86 183.78 367.89 182.86 367.71 C 165.13 364.23 150.30 355.93 138.37 342.83 C 137.16 341.55 136.81 341.74 137.30 343.41 C 137.77 345.05 138.80 346.34 140.39 347.30 C 141.43 347.89 142.26 348.81 142.74 349.91 C 150.06 366.29 162.10 377.07 178.86 382.25 C 180.85 382.86 181.63 384.19 181.20 386.25 L 171.40 431.85 C 171.65 434.69 171.58 436.40 171.19 436.97 C 170.46 437.96 169.40 438.72 168.19 439.12 C 166.97 439.51 165.68 439.52 164.54 439.13 C 163.40 438.75 162.47 438.00 161.93 437.01 C 161.38 436.02 161.25 434.86 161.54 433.72 C 163.36 427.29 161.79 422.49 156.86 419.33 C 155.33 418.37 154.09 417.13 153.13 415.60 C 137.73 389.98 114.50 418.96 93.78 419.44 C 96.44 414.32 99.05 409.60 101.61 405.27 C 102.00 404.63 102.16 403.99 102.09 403.35 C 101.98 402.32 101.59 402.19 100.92 402.98 L 68.79 441.98 C 66.02 440.27 62.77 439.44 59.04 439.47 C 56.70 439.47 56.00 438.39 56.96 436.22 C 58.49 432.88 61.24 430.96 65.22 430.47 C 67.25 430.22 68.90 429.33 70.18 427.80 L 97.93 395.14 C 98.25 394.75 98.22 394.40 97.83 394.08 C 97.36 393.72 96.88 393.60 96.39 393.71 C 96.00 393.78 95.61 394.06 95.22 394.56 C 79.98 414.16 60.89 429.24 37.94 439.79 C 42.81 402.46 51.79 367.99 64.90 336.38 L 70.02 334.94 C 71.33 334.59 71.79 333.75 71.40 332.44 C 71.26 331.98 71.12 331.53 70.97 331.11 C 70.83 330.68 70.94 330.34 71.29 330.09 C 75.91 326.79 79.37 322.44 81.68 317.04 C 82.32 315.55 83.48 314.77 85.15 314.70 C 105.71 314.00 99.53 272.77 129.10 295.94 C 129.83 296.52 130.76 296.80 131.69 296.72 C 132.62 296.64 133.48 296.21 134.11 295.52 C 140.54 288.52 150.30 276.92 163.41 260.73 C 182.06 237.71 210.08 241.49 236.45 235.74 C 266.77 229.08 295.86 228.71 326.06 227.48 C 337.94 227.00 346.15 231.74 351.96 241.33 C 341.51 243.93 332.67 248.19 325.43 254.12 C 323.19 255.97 323.47 256.48 326.28 255.66 C 359.42 246.02 379.07 239.15 397.67 276.28 C 398.00 276.93 398.57 277.44 399.26 277.69 C 399.95 277.95 400.71 277.95 401.39 277.68 C 402.06 277.41 402.61 276.90 402.92 276.25 C 403.23 275.59 403.27 274.85 403.05 274.15 C 398.15 258.49 388.17 247.30 373.11 240.59 L 393.14 226.10 C 394.48 225.13 396.11 224.70 397.72 224.87 C 422.44 227.38 499.96 234.41 504.81 213.84 Z M 365.44 496.05 L 320.31 523.97 C 320.12 524.09 319.99 524.28 319.94 524.50 C 319.89 524.72 319.93 524.95 320.04 525.14 L 320.15 525.30 C 320.60 526.06 321.64 526.45 323.20 526.45 C 324.76 526.44 326.81 526.05 329.23 525.29 C 331.66 524.53 334.41 523.41 337.33 522.00 C 340.25 520.60 343.29 518.93 346.26 517.10 L 347.69 516.19 C 350.66 514.36 353.51 512.39 356.07 510.41 C 358.64 508.43 360.87 506.47 362.63 504.64 C 364.40 502.82 365.67 501.16 366.37 499.77 C 367.07 498.38 367.19 497.28 366.71 496.53 L 366.61 496.32 C 366.49 496.13 366.30 495.99 366.08 495.94 C 365.86 495.89 365.63 495.93 365.44 496.05 Z M 412.37 634.25 C 416.39 636.10 418.23 635.96 417.91 633.83 C 421.43 649.75 439.28 690.73 463.68 680.60 C 477.43 674.85 485.42 650.87 496.76 640.64 C 497.97 639.58 497.88 638.64 496.50 637.82 C 475.83 625.67 470.39 605.48 459.47 579.86 C 456.17 572.08 449.76 570.18 440.24 574.15 C 439.41 574.50 438.66 575.03 438.06 575.71 C 437.46 576.38 437.02 577.18 436.77 578.04 C 430.91 598.36 419.67 614.91 403.05 627.70 C 401.45 628.91 401.26 630.31 402.46 631.91 C 404.49 634.68 407.79 635.46 412.37 634.25 Z" fill="#fdfaee" fill-rule="nonzero" node-id="122" stroke="none" target-height="618.511" target-width="717.80164" target-x="37.9424" target-y="213.843"></path><path d="M 628.57 285.02 C 630.70 282.46 630.33 282.43 627.45 284.92 L 611.58 238.94 C 608.66 235.38 607.49 232.70 608.06 230.89 C 608.45 229.51 609.11 229.38 610.03 230.52 C 622.00 245.58 628.18 263.75 628.57 285.02 Z" fill="#b4aaa6" fill-rule="nonzero" node-id="124" stroke="none" target-height="55.638" target-width="23.210999" target-x="607.491" target-y="229.383"></path><path d="M 373.11 240.59 C 388.17 247.30 398.15 258.49 403.05 274.15 C 403.27 274.85 403.23 275.59 402.92 276.25 C 402.61 276.90 402.06 277.41 401.39 277.68 C 400.71 277.95 399.95 277.95 399.26 277.69 C 398.57 277.44 398.00 276.93 397.67 276.28 C 379.07 239.15 359.42 246.02 326.28 255.66 C 323.47 256.48 323.19 255.97 325.43 254.12 C 332.67 248.19 341.51 243.93 351.96 241.33 C 358.46 239.66 365.51 239.41 373.11 240.59 Z" fill="#2e1e1b" fill-rule="nonzero" node-id="126" stroke="none" target-height="38.805008" target-width="80.086975" target-x="323.187" target-y="239.149"></path><path d="M 854.25 266.00 C 858.37 267.49 863.11 271.28 868.48 277.35 L 909.13 346.77 C 910.23 349.29 912.59 351.85 916.21 354.44 L 969.97 490.72 C 970.89 493.10 970.10 494.51 967.57 494.93 L 939.50 499.62 C 934.35 500.47 933.99 502.25 938.43 504.95 L 978.81 529.88 C 980.31 530.81 980.73 532.08 980.09 533.72 L 977.48 540.11 C 971.80 540.79 967.98 540.16 966.03 538.25 C 958.75 529.01 949.05 521.07 936.94 514.43 L 915.04 500.85 L 891.44 480.49 C 891.01 480.10 890.89 479.66 891.07 479.16 C 891.10 479.09 891.16 478.99 891.23 478.84 C 891.24 478.80 891.27 478.75 891.30 478.72 C 891.34 478.69 891.38 478.66 891.43 478.65 C 891.47 478.63 891.52 478.62 891.57 478.63 C 891.62 478.64 891.66 478.66 891.71 478.68 C 907.12 491.08 924.51 494.95 943.86 490.30 C 949.14 489.02 951.38 489.76 956.54 490.78 C 958.96 491.27 959.76 490.37 958.94 488.06 C 941.22 436.10 919.18 382.94 892.83 328.60 C 881.39 305.05 868.53 284.19 854.25 266.00 Z" fill="#2e1e1b" fill-rule="nonzero" node-id="128" stroke="none" target-height="274.785" target-width="126.47998" target-x="854.252" target-y="266.001"></path><path d="M 629.90 291.04 L 627.45 284.92 C 630.33 282.43 630.70 282.46 628.57 285.02 L 657.61 271.81 C 659.24 271.06 660.95 270.85 662.72 271.17 C 680.66 274.61 695.67 283.26 707.74 297.12 C 707.85 297.22 707.83 297.29 707.69 297.33 C 707.23 297.51 706.80 297.70 706.41 297.91 C 706.16 298.09 705.91 298.07 705.66 297.86 C 682.43 278.01 657.18 275.73 629.90 291.04 Z" fill="#2e1e1b" fill-rule="nonzero" node-id="130" stroke="none" target-height="27.243011" target-width="80.39502" target-x="627.454" target-y="270.849"></path><path d="M 73.69 314.80 L 64.90 336.38 C 51.79 367.99 42.81 402.46 37.94 439.79 C 35.74 443.98 34.94 449.95 35.55 457.69 C 35.72 459.82 36.77 460.41 38.69 459.45 L 41.30 458.12 C 47.19 466.43 54.00 463.59 61.70 449.59 C 65.47 447.75 67.83 445.21 68.79 441.98 L 100.92 402.98 C 101.59 402.19 101.98 402.32 102.09 403.35 C 102.16 403.99 102.00 404.63 101.61 405.27 C 99.05 409.60 96.44 414.32 93.78 419.44 L 45.61 479.91 C -11.55 530.73 55.15 615.66 103.63 646.08 C 108.16 648.96 111.68 656.20 114.87 657.91 C 129.74 665.79 146.09 677.62 163.09 678.74 C 166.75 679.06 169.38 679.95 170.97 681.40 C 172.64 682.86 172.38 683.66 170.18 683.80 L 107.52 687.58 C 96.30 686.62 85.54 681.67 75.24 672.72 C 70.62 668.67 69.41 669.50 71.61 675.22 C 75.66 685.72 90.63 690.46 97.67 697.97 C 141.35 744.93 189.32 782.08 241.57 809.43 C 275.84 827.40 298.64 839.56 309.98 845.92 C 311.22 846.63 311.20 847.27 309.92 847.84 C 309.55 848.05 273.59 838.04 269.17 837.29 C 267.32 836.97 266.46 837.73 266.61 839.58 C 270.82 893.07 274.81 973.31 344.29 982.84 C 344.85 983.27 345.26 983.71 345.51 984.17 C 345.62 984.39 345.67 984.62 345.66 984.85 C 345.66 985.09 345.59 985.32 345.48 985.53 C 345.36 985.73 345.20 985.90 345.00 986.03 C 344.80 986.16 344.57 986.23 344.34 986.25 C 288.66 990.78 266.07 925.46 255.26 881.88 L 249.24 833.77 C 248.99 831.82 247.98 830.42 246.20 829.57 C 171.08 792.98 109.83 740.22 62.45 671.28 C 58.12 664.96 59.75 662.27 67.35 663.23 C 87.92 665.83 110.13 670.43 134.00 677.03 C 134.89 677.25 135.63 677.23 136.24 676.98 C 137.80 676.27 137.64 675.63 135.76 675.06 C 66.77 654.55 12.21 594.03 13.01 518.75 C 13.19 502.41 19.28 488.86 31.28 478.10 C 31.62 477.79 31.87 477.39 32.02 476.96 C 32.16 476.52 32.19 476.05 32.10 475.60 C 32.00 475.15 31.80 474.73 31.50 474.39 C 31.20 474.04 30.81 473.77 30.38 473.62 L 21.27 470.48 C 19.28 469.80 18.34 468.44 18.44 466.38 C 20.96 413.42 35.03 363.21 60.64 315.76 L 73.69 314.80 Z" fill="#412d27" fill-rule="nonzero" node-id="132" stroke="none" target-height="675.978" target-width="357.2201" target-x="-11.5521" target-y="314.803"></path><path d="M 403.10 405.69 L 383.44 366.59 C 383.35 366.40 383.19 366.25 382.99 366.16 C 382.79 366.08 382.57 366.07 382.37 366.13 C 382.16 366.20 381.99 366.33 381.87 366.51 C 381.76 366.69 381.71 366.91 381.74 367.12 C 386.25 400.86 377.80 425.42 356.38 440.80 C 299.64 481.51 238.69 415.76 267.14 358.97 C 270.23 350.48 276.04 344.44 284.56 340.86 C 285.77 340.36 285.81 339.77 284.67 339.10 C 284.06 338.74 283.53 338.63 283.07 338.78 C 268.74 343.94 251.90 348.05 240.18 355.99 C 196.34 385.45 182.54 449.27 222.92 488.22 C 206.51 475.59 176.78 452.52 171.40 431.85 L 181.20 386.25 C 181.63 384.19 180.85 382.86 178.86 382.25 C 162.09 377.07 150.06 366.29 142.74 349.91 C 142.25 348.81 141.43 347.89 140.39 347.30 C 138.80 346.34 137.77 345.05 137.30 343.41 C 136.81 341.74 137.16 341.55 138.37 342.83 C 150.30 355.93 165.13 364.23 182.86 367.71 C 183.78 367.89 184.74 367.86 185.64 367.62 C 186.55 367.38 187.38 366.94 188.08 366.32 L 212.53 345.01 C 212.79 344.79 213.00 344.51 213.13 344.19 C 213.26 343.87 213.32 343.53 213.29 343.19 C 213.26 342.84 213.16 342.51 212.98 342.22 C 212.80 341.92 212.56 341.68 212.26 341.50 L 185.95 325.40 C 184.77 324.69 184.74 323.95 185.84 323.17 C 186.59 322.63 187.42 322.67 188.34 323.27 C 202.30 332.17 215.99 338.62 233.10 332.65 C 309.33 306.23 384.72 320.02 403.10 405.69 Z M 352.46 373.27 C 355.17 369.58 356.10 364.82 355.04 360.03 C 353.99 355.23 351.04 350.81 346.83 347.72 C 344.75 346.19 342.43 345.04 339.99 344.33 C 337.56 343.61 335.06 343.36 332.64 343.57 C 330.22 343.78 327.92 344.45 325.89 345.56 C 323.85 346.66 322.11 348.17 320.77 350.00 C 318.06 353.68 317.13 358.45 318.18 363.24 C 319.24 368.03 322.19 372.46 326.39 375.55 C 328.48 377.07 330.80 378.23 333.24 378.94 C 335.67 379.65 338.17 379.91 340.59 379.70 C 343.01 379.49 345.31 378.81 347.34 377.71 C 349.38 376.61 351.12 375.10 352.46 373.27 Z M 184.40 448.00 C 184.87 448.62 185.51 449.07 186.25 449.31 C 186.98 449.55 187.78 449.55 188.51 449.31 C 189.25 449.08 189.90 448.62 190.36 448.00 C 190.83 447.39 191.09 446.64 191.11 445.86 C 191.47 424.41 196.37 404.20 205.82 385.24 C 205.99 384.92 206.08 384.56 206.09 384.20 C 206.11 383.84 206.04 383.48 205.89 383.15 C 205.74 382.82 205.52 382.52 205.24 382.28 C 204.96 382.04 204.63 381.87 204.27 381.77 C 202.07 381.20 200.51 382.16 199.59 384.65 C 192.39 403.94 173.00 432.49 184.40 448.00 Z" fill="#2e1e1b" fill-rule="nonzero" node-id="134" stroke="none" target-height="181.99399" target-width="266.296" target-x="136.807" target-y="306.225"></path><path d="M 326.39 375.55 C 335.14 381.97 346.81 380.95 352.46 373.27 C 358.10 365.59 355.58 354.15 346.83 347.72 C 338.08 341.29 326.41 342.31 320.77 350.00 C 315.12 357.68 317.64 369.12 326.39 375.55 Z" fill="#fefefe" fill-rule="nonzero" node-id="136" stroke="none" target-height="40.678986" target-width="42.976013" target-x="315.125" target-y="341.294"></path><path d="M 261.17 356.68 C 237.57 384.86 234.27 429.08 246.36 461.10 C 251.90 475.77 262.58 488.66 278.38 499.78 C 239.49 480.55 234.91 453.32 236.88 412.09 C 237.89 391.36 241.51 364.24 259.89 352.79 C 261.25 351.97 261.95 352.35 262.03 353.91 C 262.03 354.58 261.74 355.51 261.17 356.68 Z" fill="#170f0a" fill-rule="nonzero" node-id="138" stroke="none" target-height="147.80801" target-width="44.11299" target-x="234.269" target-y="351.972"></path><path d="M 261.17 356.68 C 261.60 358.81 263.59 359.57 267.14 358.97 C 238.69 415.76 299.64 481.51 356.38 440.80 C 377.80 425.42 386.25 400.86 381.74 367.12 C 381.71 366.91 381.76 366.69 381.87 366.51 C 381.99 366.33 382.16 366.20 382.37 366.13 C 382.57 366.07 382.79 366.08 382.99 366.16 C 383.19 366.25 383.35 366.40 383.44 366.59 L 403.10 405.69 C 385.98 477.01 344.41 508.38 278.38 499.78 C 262.57 488.66 251.90 475.77 246.36 461.10 C 234.27 429.08 237.57 384.86 261.17 356.68 Z" fill="#fac759" fill-rule="nonzero" node-id="140" stroke="none" target-height="151.69702" target-width="168.83499" target-x="234.268" target-y="356.679"></path><path d="M 649.51 369.15 C 717.92 372.82 769.12 430.73 780.41 495.57 C 781.01 513.19 779.10 529.21 774.66 543.63 L 767.62 557.00 C 766.24 559.66 765.37 559.50 765.01 556.52 L 761.82 530.04 C 762.88 498.18 754.02 471.74 735.23 450.71 C 725.36 433.74 713.39 420.43 699.32 410.81 C 662.53 386.80 624.98 385.89 586.70 408.09 L 549.03 437.07 L 543.75 431.43 C 564.14 391.15 599.39 370.39 649.51 369.15 Z" fill="#372720" fill-rule="nonzero" node-id="142" stroke="none" target-height="190.518" target-width="237.25995" target-x="543.754" target-y="369.146"></path><path d="M 184.40 448.00 C 173.00 432.49 192.39 403.94 199.58 384.65 C 200.51 382.16 202.07 381.20 204.27 381.77 C 204.63 381.87 204.96 382.04 205.24 382.28 C 205.52 382.52 205.74 382.82 205.89 383.15 C 206.04 383.48 206.11 383.84 206.09 384.20 C 206.08 384.56 205.99 384.92 205.82 385.24 C 196.37 404.20 191.47 424.41 191.11 445.86 C 191.09 446.64 190.83 447.39 190.36 448.00 C 189.90 448.62 189.25 449.08 188.51 449.31 C 187.78 449.55 186.98 449.55 186.25 449.31 C 185.51 449.07 184.86 448.62 184.40 448.00 Z" fill="#715337" fill-rule="nonzero" node-id="144" stroke="none" target-height="68.345" target-width="33.108" target-x="172.999" target-y="381.204"></path><path d="M 699.32 410.81 C 698.22 412.69 698.52 414.41 700.23 415.98 L 697.67 416.35 C 696.46 416.56 695.89 417.29 695.97 418.53 C 696.00 419.03 696.16 419.51 696.45 419.97 C 691.01 418.27 688.85 418.55 689.95 420.82 C 668.10 385.82 625.05 398.87 590.05 410.92 C 589.73 408.86 588.61 407.91 586.70 408.09 C 624.98 385.89 662.53 386.80 699.32 410.81 Z" fill="#bda194" fill-rule="nonzero" node-id="146" stroke="none" target-height="35.00299" target-width="113.534" target-x="586.695" target-y="385.821"></path><path d="M 68.79 441.98 C 67.83 445.21 65.47 447.75 61.70 449.59 C 50.59 445.65 43.78 448.49 41.30 458.12 L 38.69 459.45 C 36.77 460.41 35.72 459.82 35.55 457.69 C 34.94 449.95 35.74 443.98 37.94 439.79 C 60.89 429.24 79.98 414.17 95.22 394.56 C 95.61 394.06 96.00 393.78 96.39 393.71 C 96.88 393.60 97.36 393.72 97.83 394.08 C 98.22 394.40 98.25 394.75 97.93 395.14 L 70.18 427.80 C 68.90 429.33 67.24 430.22 65.22 430.47 C 61.24 430.96 58.49 432.88 56.96 436.22 C 56.00 438.39 56.70 439.47 59.04 439.47 C 62.77 439.44 66.02 440.27 68.79 441.98 Z" fill="#b4aaa6" fill-rule="nonzero" node-id="148" stroke="none" target-height="66.80899" target-width="63.3106" target-x="34.9412" target-y="393.6"></path><path d="M 689.95 420.82 C 695.88 429.53 698.90 444.21 699.00 464.88 C 678.71 509.37 657.61 538.30 600.34 528.34 C 553.02 506.71 541.14 439.68 590.05 410.92 C 625.06 398.87 668.10 385.82 689.95 420.82 Z M 655.96 446.56 C 697.30 450.45 678.01 384.33 642.74 408.73 C 641.43 409.67 640.46 411.01 639.97 412.57 C 636.08 425.99 638.80 444.90 655.96 446.56 Z" fill="#2e1e1b" fill-rule="nonzero" node-id="150" stroke="none" target-height="153.97" target-width="157.86005" target-x="541.144" target-y="384.33"></path><path d="M 171.40 431.85 C 176.78 452.52 206.51 475.59 222.92 488.22 L 254.73 510.75 C 256.15 511.79 256.84 513.19 256.80 514.97 C 256.27 536.38 254.94 560.25 239.70 577.14 C 238.57 578.38 237.25 579.38 235.76 580.12 C 230.25 582.82 225.00 585.91 219.99 589.39 C 206.51 598.66 195.70 598.45 180.83 602.82 C 171.46 605.53 159.15 604.36 148.81 609.80 C 147.07 610.72 145.21 611.06 143.22 610.81 C 136.08 609.99 129.22 611.02 122.65 613.90 C 121.47 614.42 120.15 614.55 118.87 614.27 L 101.82 610.60 C 82.96 586.91 66.55 559.98 52.59 529.83 C 46.09 515.73 43.77 499.09 45.61 479.91 L 93.78 419.44 C 114.50 418.96 137.73 389.98 153.13 415.60 C 154.09 417.13 155.33 418.37 156.86 419.33 C 161.79 422.49 163.36 427.29 161.54 433.72 C 161.25 434.86 161.38 436.02 161.93 437.01 C 162.47 438.00 163.40 438.75 164.54 439.13 C 165.68 439.52 166.97 439.51 168.19 439.12 C 169.40 438.72 170.46 437.96 171.19 436.97 C 171.58 436.40 171.65 434.69 171.40 431.85 Z M 70.28 511.77 C 70.81 512.87 71.61 513.51 72.68 513.69 C 83.65 515.67 94.61 517.54 105.55 519.28 C 106.44 519.42 107.10 519.88 107.52 520.66 L 108.38 522.26 C 109.01 523.47 108.64 524.08 107.26 524.08 L 70.18 524.34 C 62.04 524.38 59.63 528.11 62.93 535.53 C 68.90 549.06 75.24 563.13 89.51 570.48 C 133.88 593.32 175.95 589.18 215.73 558.07 C 234.13 543.68 238.74 527.00 229.58 508.04 C 226.77 502.28 221.27 496.81 213.06 491.63 C 200.49 483.74 181.95 470.85 173.96 458.22 C 172.61 456.13 170.64 454.99 168.04 454.81 C 166.48 454.71 165.20 454.05 164.21 452.84 C 153.98 440.32 129.47 458.28 122.65 467.12 C 121.59 468.47 120.20 469.24 118.50 469.41 C 106.14 470.80 94.63 468.22 83.97 461.69 C 81.77 460.34 80.01 460.78 78.70 463.02 L 75.40 468.67 C 74.26 470.62 74.63 472.22 76.52 473.46 C 80.49 476.09 84.88 476.98 89.67 476.12 C 90.91 475.92 92.16 476.17 93.19 476.82 L 131.02 500.79 C 131.32 500.96 131.56 501.23 131.68 501.56 C 131.80 501.88 131.79 502.24 131.67 502.57 C 131.55 502.89 131.31 503.16 131.00 503.32 C 130.70 503.49 130.34 503.53 130.00 503.46 L 60.91 492.85 C 58.84 492.54 57.46 493.35 56.75 495.31 L 54.03 502.60 C 53.84 503.13 53.76 503.69 53.80 504.25 C 53.85 504.80 54.02 505.34 54.30 505.83 C 54.58 506.31 54.96 506.73 55.42 507.05 C 55.89 507.36 56.41 507.57 56.96 507.67 L 66.98 509.32 C 68.51 509.57 69.61 510.38 70.28 511.77 Z" fill="#fcecdc" fill-rule="nonzero" node-id="152" stroke="none" target-height="224.57202" target-width="213.0727" target-x="43.7673" target-y="389.977"></path><path d="M 655.96 446.56 C 638.80 444.90 636.08 425.99 639.97 412.57 C 640.46 411.01 641.43 409.67 642.74 408.73 C 678.01 384.33 697.30 450.45 655.96 446.56 Z" fill="#fefefe" fill-rule="nonzero" node-id="154" stroke="none" target-height="66.117004" target-width="61.214966" target-x="636.083" target-y="384.329"></path><path d="M 586.70 408.09 C 588.61 407.91 589.73 408.86 590.05 410.92 C 541.14 439.68 553.02 506.71 600.34 528.34 C 622.00 543.40 645.60 540.34 671.14 519.17 C 689.11 504.26 698.40 486.16 699.00 464.88 C 698.90 444.21 695.88 429.53 689.95 420.82 C 688.85 418.55 691.01 418.27 696.45 419.97 C 710.48 427.61 718.73 440.16 721.22 457.64 L 718.50 458.38 C 716.90 458.85 716.03 459.93 715.89 461.63 C 715.52 465.63 717.54 468.35 717.28 471.76 C 714.15 513.49 694.40 544.23 658.03 563.98 C 657.68 564.19 657.54 564.44 657.61 564.73 C 657.71 565.08 657.98 565.47 658.41 565.90 C 658.58 566.11 658.55 566.25 658.30 566.32 L 653.56 567.76 C 614.52 576.36 583.73 561.55 561.18 523.33 C 547.36 503.72 542.26 483.69 545.89 463.23 C 548.34 449.42 549.38 440.70 549.03 437.07 L 586.70 408.09 Z" fill="#fac759" fill-rule="nonzero" node-id="156" stroke="none" target-height="168.443" target-width="180.07599" target-x="541.144" target-y="407.914"></path><path d="M 700.23 415.98 C 755.74 453.54 720.63 552.21 661.76 568.51 C 704.35 544.32 724.17 507.36 721.22 457.64 C 718.73 440.16 710.48 427.61 696.45 419.97 C 696.16 419.51 696.00 419.03 695.97 418.53 C 695.90 417.29 696.46 416.56 697.67 416.35 L 700.23 415.98 Z" fill="#170f0a" fill-rule="nonzero" node-id="158" stroke="none" target-height="152.53198" target-width="93.98102" target-x="661.763" target-y="415.976"></path><path d="M 543.75 431.43 L 549.03 437.07 C 549.38 440.70 548.34 449.42 545.88 463.23 C 542.26 483.69 547.36 503.72 561.18 523.33 C 554.71 529.15 545.65 531.50 534.00 530.36 C 533.13 530.28 532.25 530.38 531.43 530.67 C 530.60 530.95 529.84 531.41 529.21 532.01 C 522.28 538.55 514.56 541.50 506.03 540.86 C 543.27 501.81 427.45 465.74 401.45 499.99 L 376.94 486.73 C 375.89 486.16 374.99 485.35 374.33 484.36 C 373.66 483.36 373.25 482.22 373.13 481.03 C 373.01 479.84 373.18 478.64 373.63 477.54 C 374.08 476.43 374.80 475.45 375.72 474.69 C 380.09 470.99 384.12 467.23 387.81 463.39 C 403.90 446.61 443.65 446.77 469.43 444.21 C 481.97 442.97 494.56 443.54 507.21 445.92 C 508.27 446.13 509.00 446.74 509.39 447.73 C 509.57 448.16 509.73 448.60 509.87 449.06 C 509.94 449.24 510.08 449.39 510.26 449.47 C 510.44 449.55 510.64 449.56 510.83 449.49 C 515.87 447.68 519.78 444.60 522.55 440.27 C 523.51 438.74 524.84 437.69 526.54 437.13 L 543.75 431.43 Z M 496.02 473.57 C 500.01 475.27 504.60 477.56 508.91 477.40 C 509.21 477.39 509.51 477.28 509.74 477.08 C 509.98 476.89 510.14 476.62 510.20 476.32 C 510.27 476.03 510.24 475.72 510.11 475.44 C 509.98 475.16 509.77 474.94 509.50 474.79 L 496.50 467.98 C 496.10 467.77 495.65 467.69 495.21 467.75 C 494.77 467.80 494.36 467.99 494.03 468.28 C 493.70 468.57 493.47 468.95 493.37 469.37 C 493.26 469.79 493.30 470.23 493.46 470.64 C 493.99 472.10 494.85 473.07 496.02 473.57 Z" fill="#fdfbf5" fill-rule="nonzero" node-id="160" stroke="none" target-height="110.07001" target-width="188.16702" target-x="373.009" target-y="431.427"></path><path d="M 61.70 449.59 C 54.00 463.59 47.20 466.43 41.30 458.12 C 43.79 448.49 50.59 445.65 61.70 449.59 Z" fill="#715337" fill-rule="nonzero" node-id="162" stroke="none" target-height="20.777985" target-width="20.405102" target-x="41.2996" target-y="445.651"></path><path d="M 66.98 509.32 L 56.96 507.67 C 56.41 507.57 55.89 507.36 55.43 507.05 C 54.96 506.73 54.58 506.31 54.30 505.83 C 54.02 505.34 53.85 504.80 53.80 504.25 C 53.76 503.69 53.84 503.13 54.03 502.60 L 56.75 495.31 C 57.46 493.35 58.85 492.54 60.91 492.85 L 130.01 503.46 C 130.34 503.53 130.70 503.49 131.00 503.32 C 131.31 503.16 131.55 502.89 131.67 502.57 C 131.79 502.24 131.80 501.88 131.68 501.56 C 131.56 501.23 131.32 500.96 131.02 500.79 L 93.19 476.82 C 92.16 476.17 90.91 475.92 89.67 476.12 C 84.88 476.98 80.49 476.09 76.52 473.46 C 74.63 472.22 74.26 470.62 75.40 468.67 L 78.70 463.02 C 80.01 460.78 81.77 460.34 83.97 461.69 C 94.63 468.22 106.14 470.80 118.50 469.41 C 120.20 469.24 121.59 468.47 122.65 467.12 C 129.47 458.28 153.98 440.32 164.21 452.84 C 165.20 454.05 166.48 454.71 168.04 454.81 C 170.64 454.99 172.61 456.13 173.96 458.22 C 181.95 470.85 200.49 483.74 213.06 491.63 C 221.27 496.81 226.77 502.28 229.58 508.04 C 238.74 527.00 234.13 543.68 215.73 558.07 C 175.95 589.18 133.88 593.32 89.52 570.48 C 75.24 563.13 68.90 549.06 62.93 535.53 C 59.63 528.11 62.04 524.38 70.18 524.34 L 107.26 524.08 C 108.64 524.08 109.01 523.47 108.38 522.26 L 107.52 520.66 C 107.10 519.88 106.44 519.42 105.55 519.28 C 94.61 517.54 83.65 515.67 72.68 513.69 C 71.61 513.51 70.81 512.87 70.28 511.77 C 69.61 510.38 68.51 509.57 66.98 509.32 Z" fill="#fcd9c8" fill-rule="nonzero" node-id="164" stroke="none" target-height="152.99402" target-width="184.98581" target-x="53.7582" target-y="440.323"></path><path d="M 735.23 450.71 C 754.02 471.74 762.88 498.18 761.82 530.04 L 745.46 521.94 C 747.31 510.68 747.31 499.09 745.46 487.15 C 743.44 473.83 731.93 466.00 735.23 450.71 Z" fill="#aaa1a1" fill-rule="nonzero" node-id="166" stroke="none" target-height="79.32901" target-width="30.95404" target-x="731.928" target-y="450.712"></path><path d="M 721.22 457.64 C 724.17 507.36 704.35 544.32 661.76 568.51 L 653.56 567.76 L 658.30 566.32 C 658.55 566.25 658.58 566.11 658.41 565.90 C 657.98 565.47 657.71 565.08 657.61 564.73 C 657.54 564.44 657.68 564.19 658.03 563.98 C 694.40 544.23 714.15 513.49 717.28 471.76 C 717.54 468.35 715.52 465.63 715.89 461.63 C 716.03 459.93 716.90 458.85 718.50 458.38 L 721.22 457.64 Z" fill="#fcd9c8" fill-rule="nonzero" node-id="168" stroke="none" target-height="110.86899" target-width="70.60901" target-x="653.559" target-y="457.639"></path><path d="M 699.00 464.88 C 698.40 486.16 689.11 504.26 671.14 519.17 C 645.60 540.34 622.00 543.40 600.34 528.34 C 657.61 538.30 678.71 509.37 699.00 464.88 Z" fill="#fcd9c8" fill-rule="nonzero" node-id="170" stroke="none" target-height="78.51297" target-width="98.66901" target-x="600.335" target-y="464.884"></path><path d="M 496.02 473.57 C 494.85 473.07 493.99 472.09 493.46 470.64 C 493.30 470.23 493.26 469.79 493.37 469.37 C 493.47 468.95 493.70 468.57 494.03 468.28 C 494.36 467.99 494.77 467.80 495.21 467.75 C 495.65 467.69 496.10 467.77 496.50 467.97 L 509.50 474.79 C 509.77 474.94 509.98 475.16 510.11 475.44 C 510.24 475.71 510.27 476.03 510.20 476.32 C 510.14 476.62 509.98 476.89 509.74 477.08 C 509.51 477.28 509.21 477.39 508.91 477.40 C 504.60 477.56 500.01 475.27 496.02 473.57 Z" fill="#4e423d" fill-rule="nonzero" node-id="172" stroke="none" target-height="9.868988" target-width="17.005981" target-x="493.265" target-y="467.695"></path><path d="M 45.61 479.91 C 43.77 499.09 46.09 515.73 52.59 529.83 C 66.55 559.98 82.96 586.91 101.82 610.60 C 117.88 635.53 137.77 656.22 161.49 672.66 C 162.95 673.69 163.57 675.08 163.36 676.82 L 163.09 678.74 C 146.09 677.62 129.74 665.79 114.87 657.91 C 111.68 656.20 108.16 648.96 103.63 646.08 C 55.15 615.66 -11.55 530.73 45.61 479.91 Z" fill="#cec3b9" fill-rule="nonzero" node-id="174" stroke="none" target-height="198.82999" target-width="175.12181" target-x="-11.5518" target-y="479.908"></path><path d="M 915.04 500.85 L 936.94 514.43 C 935.34 520.04 937.65 525.30 943.87 530.20 C 945.32 531.34 945.78 532.79 945.25 534.57 C 935.55 565.37 924.10 595.47 910.89 624.88 C 903.75 640.75 899.49 659.99 891.60 677.03 C 886.64 687.69 891.12 693.82 901.56 696.48 L 885.63 714.91 C 884.42 716.30 884.73 716.90 886.54 716.73 C 900.92 715.39 918.35 693.76 927.67 686.57 C 929.66 686.14 930.74 687.21 930.92 689.77 C 926.30 696.44 920.10 702.18 912.33 706.98 C 912.16 707.08 912.03 707.22 911.93 707.39 C 911.84 707.55 911.78 707.74 911.77 707.93 C 911.76 708.12 911.80 708.32 911.88 708.49 C 911.95 708.67 912.07 708.82 912.22 708.95 C 913.00 709.59 913.73 709.71 914.40 709.32 C 922.07 705.13 930.46 698.91 939.55 690.67 C 939.87 690.39 940.19 690.39 940.51 690.67 C 940.83 691.03 941.16 691.37 941.52 691.68 C 941.66 691.82 941.76 691.98 941.83 692.15 C 941.90 692.33 941.94 692.52 941.93 692.71 C 941.93 692.90 941.88 693.09 941.80 693.26 C 941.72 693.43 941.61 693.58 941.47 693.71 C 922.50 711.02 910.19 735.26 895.54 756.15 C 889.22 748.94 883.63 747.61 878.76 752.15 C 861.18 768.71 845.91 782.01 832.94 792.06 C 809.87 809.96 776.10 823.44 748.34 840.75 C 747.79 841.08 747.37 841.56 747.12 842.15 C 746.87 842.73 746.81 843.37 746.95 843.99 C 747.09 844.61 747.43 845.16 747.91 845.58 C 748.39 845.99 748.99 846.24 749.62 846.29 L 785.21 850.08 C 759.90 873.04 734.11 894.94 701.45 906.18 C 656.49 921.70 610.01 929.83 562.03 930.58 C 525.64 931.16 497.35 889.29 474.23 865.69 C 473.03 864.46 472.36 862.81 472.36 861.11 L 472.63 842.40 C 473.20 845.17 474.49 846.63 476.52 846.77 C 477.00 846.83 488.35 842.46 491.33 841.61 C 580.69 816.42 658.11 768.53 723.56 697.92 C 728.84 692.27 731.02 682.52 736.88 676.02 C 738.02 674.74 738.64 673.27 738.75 671.60 C 738.93 668.51 738.27 665.37 736.78 662.17 L 738.70 653.91 C 743.03 651.67 746.14 647.18 748.02 640.43 L 749.67 658.17 C 749.85 660.02 750.86 661.16 752.71 661.58 C 775.56 666.64 801.62 694.13 815.36 712.20 C 816.01 713.05 816.83 713.76 817.77 714.28 C 818.71 714.79 819.75 715.11 820.82 715.20 C 821.89 715.29 822.97 715.15 823.98 714.80 C 825.00 714.45 825.92 713.89 826.71 713.15 C 847.75 693.28 906.20 623.49 903.53 593.71 C 903.40 592.13 902.68 590.63 901.51 589.50 C 895.93 584.03 895.58 578.24 900.44 572.13 C 902.64 569.39 903.73 565.92 903.48 562.41 C 903.24 558.91 901.67 555.62 899.11 553.22 L 881.37 536.49 C 880.13 535.32 878.64 534.78 876.90 534.89 C 873.59 535.14 871.30 533.65 870.02 530.41 C 869.38 528.89 868.23 528.14 866.56 528.18 C 835.23 529.08 785.47 523.54 778.92 548.37 C 777.39 547.76 775.97 546.18 774.66 543.63 C 779.10 529.21 781.01 513.19 780.41 495.57 C 780.73 499.69 782.36 502.00 785.31 502.50 C 787.05 502.82 789.20 502.05 791.76 500.21 C 795.67 497.40 798.74 495.89 800.98 495.68 C 821.12 493.92 837.74 481.99 858.14 483.37 C 858.50 483.41 863.31 483.19 872.58 482.73 C 878.90 482.41 884.44 484.70 889.20 489.61 C 897.83 498.56 906.45 502.30 915.04 500.85 Z" fill="#d7cab8" fill-rule="nonzero" node-id="176" stroke="none" target-height="449.179" target-width="473.42" target-x="472.363" target-y="481.986"></path><path d="M 506.03 540.86 C 484.94 555.62 456.86 571.76 432.73 559.61 C 408.91 547.62 391.97 529.14 401.45 499.99 C 427.45 465.74 543.27 501.81 506.03 540.86 Z M 419.88 507.40 L 458.51 510.60 C 462.13 511.24 466.36 509.80 471.19 506.28 C 472.65 505.21 474.19 505.09 475.83 505.91 C 480.12 508.00 484.69 508.77 489.52 508.20 C 493.32 507.74 493.41 506.85 489.79 505.54 C 477.80 501.22 449.93 486.41 440.82 499.19 C 436.88 498.31 432.37 498.79 427.29 500.63 L 423.83 495.62 C 422.73 494.06 421.22 493.42 419.30 493.71 C 412.87 494.74 408.36 498.13 405.77 503.88 C 404.77 506.16 405.46 506.94 407.85 506.23 C 412.00 504.95 416.01 505.34 419.88 507.40 Z" fill="#c6626b" fill-rule="nonzero" node-id="178" stroke="none" target-height="106.020996" target-width="151.30704" target-x="391.968" target-y="465.737"></path><path d="M 427.29 500.63 C 423.03 501.45 420.56 503.70 419.89 507.40 C 416.01 505.34 412.00 504.95 407.85 506.23 C 405.46 506.94 404.77 506.16 405.77 503.88 C 408.36 498.13 412.87 494.74 419.30 493.71 C 421.22 493.42 422.73 494.06 423.83 495.62 L 427.29 500.63 Z" fill="#c28780" fill-rule="nonzero" node-id="180" stroke="none" target-height="13.975983" target-width="22.517975" target-x="404.773" target-y="493.423"></path><path d="M 458.51 510.60 C 461.96 506.23 456.06 502.43 440.82 499.19 C 449.93 486.41 477.80 501.22 489.79 505.53 C 493.41 506.85 493.32 507.74 489.52 508.20 C 484.69 508.77 480.12 508.00 475.83 505.91 C 474.19 505.09 472.65 505.21 471.19 506.28 C 466.36 509.80 462.13 511.24 458.51 510.60 Z" fill="#c28780" fill-rule="nonzero" node-id="182" stroke="none" target-height="24.826996" target-width="52.583984" target-x="440.824" target-y="486.408"></path><path d="M 365.44 496.05 C 365.63 495.93 365.86 495.89 366.08 495.94 C 366.30 495.99 366.49 496.13 366.61 496.32 L 366.71 496.53 C 367.19 497.28 367.07 498.38 366.37 499.77 C 365.67 501.16 364.40 502.82 362.63 504.64 C 360.86 506.47 358.64 508.43 356.07 510.41 C 353.51 512.39 350.66 514.36 347.69 516.19 L 346.26 517.10 C 343.29 518.93 340.25 520.60 337.33 522.00 C 334.41 523.41 331.66 524.53 329.23 525.29 C 326.81 526.05 324.76 526.44 323.20 526.45 C 321.64 526.45 320.60 526.06 320.15 525.30 L 320.04 525.14 C 319.92 524.95 319.88 524.72 319.94 524.50 C 319.99 524.28 320.12 524.09 320.31 523.97 L 365.44 496.05 Z" fill="#fcd9c8" fill-rule="nonzero" node-id="184" stroke="none" target-height="30.554993" target-width="47.302002" target-x="319.885" target-y="495.893"></path><path d="M 440.82 499.19 C 456.06 502.43 461.96 506.23 458.51 510.60 L 419.88 507.40 C 420.56 503.70 423.03 501.45 427.29 500.63 C 432.37 498.79 436.88 498.31 440.82 499.19 Z" fill="#fdfbf5" fill-rule="nonzero" node-id="186" stroke="none" target-height="12.289001" target-width="42.070984" target-x="419.885" target-y="498.306"></path><path d="M 936.94 514.43 C 949.05 521.07 958.75 529.01 966.03 538.25 C 958.78 589.82 937.63 658.33 901.56 696.48 C 891.12 693.82 886.64 687.69 891.60 677.03 C 899.49 659.98 903.75 640.75 910.89 624.88 C 924.10 595.47 935.55 565.36 945.25 534.57 C 945.78 532.79 945.32 531.34 943.87 530.20 C 937.65 525.30 935.34 520.04 936.94 514.43 Z" fill="#e1dbd1" fill-rule="nonzero" node-id="188" stroke="none" target-height="182.04797" target-width="79.382996" target-x="886.645" target-y="514.431"></path><path d="M 745.46 521.94 L 761.82 530.04 L 765.01 556.52 C 765.37 559.50 766.24 559.66 767.62 557.00 L 774.66 543.63 C 775.97 546.18 777.39 547.77 778.92 548.37 C 775.83 559.88 775.24 572.08 771.46 582.79 C 764.39 602.82 756.58 622.03 748.02 640.43 C 746.13 647.18 743.03 651.67 738.69 653.91 C 708.17 644.48 693.89 610.92 694.69 581.24 C 694.72 580.44 694.92 579.65 695.28 578.93 C 695.64 578.22 696.15 577.59 696.76 577.09 L 723.35 555.30 C 733.08 546.66 740.45 535.55 745.46 521.94 Z" fill="#fcd9c8" fill-rule="nonzero" node-id="190" stroke="none" target-height="131.96704" target-width="85.03003" target-x="693.888" target-y="521.944"></path><path d="M 748.02 640.43 C 756.58 622.03 764.39 602.82 771.46 582.79 C 775.24 572.08 775.83 559.88 778.92 548.37 C 785.47 523.54 835.23 529.08 866.56 528.18 C 868.23 528.14 869.38 528.89 870.02 530.41 C 871.30 533.65 873.59 535.14 876.90 534.89 C 878.64 534.78 880.13 535.32 881.37 536.49 L 899.11 553.22 C 901.67 555.62 903.24 558.91 903.48 562.41 C 903.73 565.92 902.64 569.39 900.44 572.13 C 895.58 578.24 895.93 584.03 901.51 589.50 C 902.68 590.63 903.40 592.13 903.53 593.71 C 906.20 623.49 847.75 693.28 826.71 713.15 C 825.92 713.89 825.00 714.45 823.98 714.80 C 822.97 715.15 821.89 715.29 820.82 715.20 C 819.75 715.11 818.71 714.79 817.77 714.28 C 816.83 713.76 816.01 713.05 815.36 712.20 C 801.62 694.13 775.56 666.64 752.71 661.58 C 750.86 661.16 749.85 660.02 749.67 658.17 L 748.02 640.43 Z" fill="#ccb4a7" fill-rule="nonzero" node-id="192" stroke="none" target-height="191.745" target-width="158.17902" target-x="748.019" target-y="523.542"></path><path d="M 966.03 538.25 C 967.98 540.16 971.80 540.79 977.48 540.11 C 975.49 574.78 967.32 607.99 952.98 639.74 L 927.67 686.57 C 918.35 693.76 900.92 715.39 886.54 716.73 C 884.73 716.90 884.43 716.30 885.63 714.91 L 901.56 696.48 C 937.63 658.33 958.78 589.82 966.03 538.25 Z" fill="#412d27" fill-rule="nonzero" node-id="194" stroke="none" target-height="178.65497" target-width="93.056946" target-x="884.426" target-y="538.247"></path><path d="M 723.35 555.30 L 696.77 577.09 C 696.15 577.59 695.64 578.22 695.28 578.93 C 694.93 579.65 694.72 580.44 694.69 581.24 C 693.89 610.92 708.17 644.48 738.70 653.91 L 736.78 662.17 L 703.05 701.27 C 706.43 689.48 703.11 679.96 693.09 672.72 C 691.56 671.62 690.50 670.16 689.89 668.35 C 687.62 661.28 685.97 654.05 684.94 646.67 C 684.83 645.86 684.52 645.11 684.03 644.48 C 669.33 623.60 665.63 601.15 672.95 577.14 C 674.48 572.13 678.01 570.02 683.55 570.80 C 684.22 570.88 684.89 570.82 685.52 570.62 C 686.14 570.41 686.71 570.08 687.18 569.63 C 690.98 565.97 695.60 564.12 701.03 564.09 C 702.84 564.09 704.56 563.73 706.20 563.02 L 723.35 555.30 Z" fill="#fcecdc" fill-rule="nonzero" node-id="196" stroke="none" target-height="145.979" target-width="73.060974" target-x="665.635" target-y="555.296"></path><path d="M 417.91 633.83 C 424.80 645.37 431.11 655.74 436.83 664.94 C 457.02 697.33 478.65 667.92 486.64 644.05 C 487.21 642.42 486.94 640.93 485.84 639.58 L 473.80 625.03 L 459.79 599.25 C 458.97 592.29 456.31 586.75 451.80 582.63 C 450.97 581.87 449.95 581.34 448.86 581.10 C 447.76 580.85 446.61 580.90 445.53 581.24 C 444.46 581.58 443.48 582.20 442.71 583.03 C 441.94 583.86 441.40 584.88 441.14 585.98 C 437.80 600.54 430.04 612.36 417.86 621.41 C 415.87 622.87 416.05 623.93 418.39 624.61 C 422.55 625.85 424.09 627.40 423.03 629.24 L 412.37 634.25 C 407.79 635.46 404.49 634.68 402.46 631.91 C 401.26 630.31 401.45 628.91 403.05 627.70 C 419.67 614.91 430.91 598.36 436.77 578.04 C 437.02 577.18 437.46 576.38 438.06 575.71 C 438.66 575.03 439.40 574.50 440.24 574.15 C 449.76 570.18 456.17 572.08 459.47 579.86 C 470.39 605.48 475.83 625.67 496.50 637.82 C 497.88 638.64 497.97 639.58 496.76 640.64 C 485.42 650.87 477.42 674.85 463.68 680.60 C 439.28 690.73 421.43 649.75 417.91 633.83 Z" fill="#170f0a" fill-rule="nonzero" node-id="198" stroke="none" target-height="127.15399" target-width="96.715" target-x="401.256" target-y="570.177"></path><path d="M 459.79 599.25 C 445.01 594.74 435.60 604.22 431.55 627.70 L 423.03 629.24 C 424.09 627.40 422.55 625.85 418.39 624.61 C 416.05 623.93 415.87 622.87 417.86 621.41 C 430.04 612.36 437.80 600.54 441.14 585.98 C 441.40 584.88 441.94 583.86 442.71 583.03 C 443.48 582.20 444.46 581.58 445.53 581.24 C 446.61 580.90 447.76 580.85 448.86 581.10 C 449.95 581.34 450.97 581.87 451.80 582.63 C 456.31 586.75 458.97 592.29 459.79 599.25 Z" fill="#412d27" fill-rule="nonzero" node-id="200" stroke="none" target-height="48.39099" target-width="43.918" target-x="415.872" target-y="580.853"></path><path d="M 459.79 599.25 L 473.80 625.03 L 431.55 627.70 C 435.60 604.22 445.01 594.74 459.79 599.25 Z" fill="#c6626b" fill-rule="nonzero" node-id="202" stroke="none" target-height="32.960022" target-width="42.249023" target-x="431.554" target-y="594.738"></path><path d="M 473.80 625.03 L 485.84 639.58 C 486.94 640.93 487.21 642.42 486.64 644.05 C 478.65 667.92 457.02 697.33 436.83 664.94 C 431.11 655.74 424.80 645.37 417.91 633.83 C 418.23 635.96 416.39 636.10 412.37 634.25 L 423.03 629.24 L 431.55 627.70 L 473.80 625.03 Z" fill="#fba2b7" fill-rule="nonzero" node-id="204" stroke="none" target-height="72.297" target-width="74.837006" target-x="412.373" target-y="625.034"></path><path d="M 736.78 662.17 C 738.27 665.37 738.93 668.51 738.75 671.60 C 738.64 673.27 738.02 674.74 736.88 676.02 C 731.02 682.52 728.84 692.27 723.56 697.92 C 658.10 768.53 580.69 816.42 491.33 841.61 C 488.35 842.46 477.00 846.83 476.52 846.77 C 474.49 846.63 473.20 845.17 472.63 842.40 C 472.31 837.25 469.45 833.77 464.05 831.96 C 476.04 828.07 488.35 829.25 499.64 825.20 C 573.38 798.83 649.24 760.78 703.05 701.27 L 736.78 662.17 Z" fill="#e1dbd1" fill-rule="nonzero" node-id="206" stroke="none" target-height="184.65802" target-width="274.87402" target-x="464.052" target-y="662.169"></path><path d="M 107.52 687.58 C 115.16 692.09 122.25 696.34 128.78 700.32 C 148.33 712.30 164.10 730.74 180.56 746.61 C 221.80 786.52 280.57 819.98 338.26 826.00 C 380.32 830.37 422.25 832.35 464.05 831.96 C 469.45 833.77 472.31 837.25 472.63 842.40 L 472.36 861.11 C 472.36 862.81 473.03 864.46 474.23 865.69 C 497.35 889.29 525.64 931.16 562.03 930.58 C 610.01 929.83 656.49 921.70 701.46 906.18 C 734.11 894.94 759.90 873.04 785.21 850.08 L 806.09 835.75 C 807.47 834.82 809.14 834.44 810.78 834.68 L 821.43 836.28 C 820.19 837.24 819.66 838.91 819.84 841.29 C 712.70 936.81 591.01 968.99 447.64 960.63 C 444.52 960.45 443.13 958.80 443.49 955.67 C 444.98 942.39 443.43 929.46 438.85 916.89 C 437.47 913.09 436.69 913.19 436.51 917.21 C 434.96 951.30 436.56 970.48 399.96 983.27 C 394.49 985.19 392.29 983.30 393.35 977.62 C 395.49 966.47 395.68 955.39 393.94 944.38 C 393.76 943.24 393.09 942.65 391.92 942.62 C 390.25 942.58 389.45 943.42 389.52 945.12 C 390.09 959.33 389.31 971.42 387.17 981.40 C 386.82 983.22 385.72 984.07 383.87 983.96 L 364.80 983.00 C 363.44 982.93 362.11 982.60 360.89 982.01 C 359.66 981.43 358.56 980.61 357.66 979.60 C 356.75 978.59 356.06 977.41 355.61 976.13 C 355.16 974.85 354.97 973.49 355.05 972.13 L 356.54 946.29 C 356.54 946.09 356.49 945.89 356.40 945.72 C 356.30 945.54 356.16 945.39 355.99 945.28 C 355.82 945.17 355.62 945.11 355.42 945.10 C 355.22 945.09 355.01 945.14 354.83 945.23 L 353.50 945.92 C 352.12 946.67 351.39 947.82 351.32 949.39 L 349.67 979.65 L 344.29 982.84 C 274.81 973.31 270.82 893.07 266.61 839.58 C 266.47 837.74 267.32 836.97 269.17 837.29 C 273.59 838.04 309.55 848.05 309.92 847.84 C 311.20 847.27 311.22 846.63 309.98 845.92 C 298.64 839.56 275.84 827.40 241.57 809.43 C 189.32 782.08 141.35 744.93 97.67 697.97 C 90.63 690.46 75.66 685.72 71.61 675.22 C 69.41 669.50 70.62 668.67 75.24 672.72 C 85.54 681.67 96.30 686.62 107.52 687.58 Z" fill="#cec3b9" fill-rule="nonzero" node-id="208" stroke="none" target-height="316.51898" target-width="752.0233" target-x="69.4117" target-y="668.669"></path><path d="M 912.33 754.44 L 869.17 806.66 C 868.03 808.08 867.55 809.69 867.73 811.50 C 869.44 827.63 867.54 844.64 862.03 862.54 C 855.96 897.49 840.99 924.52 817.12 943.63 L 784.14 954.66 C 744.40 958.39 724.90 967.13 692.02 937.08 C 690.82 935.98 689.45 935.71 687.92 936.28 C 608.08 966.43 525.76 976.36 440.98 966.06 C 439.35 965.88 437.95 966.36 436.77 967.50 C 416.95 986.68 391.81 993.94 361.33 989.29 C 354.48 988.22 350.59 985.01 349.67 979.65 L 351.32 949.38 C 351.39 947.82 352.12 946.67 353.50 945.92 L 354.83 945.23 C 355.01 945.14 355.21 945.09 355.42 945.10 C 355.62 945.11 355.82 945.17 355.99 945.28 C 356.16 945.39 356.30 945.54 356.40 945.72 C 356.49 945.89 356.54 946.09 356.54 946.29 L 355.05 972.13 C 354.97 973.49 355.16 974.85 355.61 976.13 C 356.05 977.41 356.75 978.59 357.66 979.60 C 358.56 980.61 359.66 981.43 360.89 982.01 C 362.11 982.60 363.44 982.93 364.80 983.00 L 383.87 983.96 C 385.72 984.07 386.82 983.22 387.17 981.40 C 389.30 971.42 390.09 959.33 389.52 945.12 C 389.45 943.42 390.25 942.58 391.92 942.62 C 393.09 942.65 393.76 943.24 393.94 944.38 C 395.68 955.39 395.48 966.47 393.35 977.62 C 392.29 983.30 394.49 985.19 399.96 983.27 C 436.56 970.48 434.96 951.30 436.51 917.21 C 436.69 913.19 437.47 913.09 438.85 916.89 C 443.43 929.46 444.98 942.39 443.49 955.67 C 443.13 958.80 444.52 960.45 447.64 960.63 C 591.01 968.99 712.70 936.81 819.84 841.29 C 835.32 836.81 846.14 825.78 852.28 808.20 L 895.54 756.15 C 910.19 735.26 922.50 711.02 941.47 693.71 C 941.61 693.58 941.72 693.43 941.80 693.26 C 941.88 693.08 941.93 692.90 941.93 692.71 C 941.94 692.52 941.90 692.33 941.83 692.15 C 941.76 691.98 941.66 691.82 941.52 691.68 C 941.16 691.36 940.83 691.03 940.51 690.67 C 940.19 690.39 939.87 690.39 939.55 690.67 C 930.46 698.91 922.07 705.13 914.40 709.32 C 913.73 709.71 913.00 709.59 912.22 708.95 C 912.07 708.82 911.95 708.67 911.88 708.49 C 911.80 708.32 911.76 708.12 911.77 707.93 C 911.78 707.74 911.84 707.55 911.93 707.39 C 912.03 707.22 912.16 707.08 912.33 706.97 C 920.10 702.18 926.30 696.44 930.92 689.77 C 934.33 683.30 939.34 679.71 945.94 679.00 C 946.98 678.90 948.03 679.07 948.98 679.50 C 949.93 679.93 950.75 680.60 951.36 681.45 C 951.96 682.30 952.33 683.30 952.43 684.34 C 952.53 685.38 952.35 686.42 951.91 687.37 C 940.33 712.05 927.14 734.41 912.33 754.44 Z M 802.79 872.03 C 832.09 883.16 838.59 911.45 816.11 934.31 C 814.44 935.98 814.74 936.44 817.01 935.69 C 840.67 927.97 859.42 843.42 861.66 820.83 C 861.84 819.23 861.30 818.96 860.06 820.03 L 802.57 870.86 C 802.48 870.93 802.41 871.03 802.38 871.15 C 802.34 871.26 802.33 871.38 802.35 871.50 C 802.37 871.62 802.42 871.73 802.50 871.82 C 802.58 871.91 802.67 871.99 802.79 872.03 Z M 748.28 928.02 L 754.73 947.31 C 755.48 949.51 757.02 950.59 759.37 950.56 L 769.49 950.34 C 771.48 950.31 772.35 949.30 772.10 947.31 C 771.28 941.30 771.96 935.55 774.12 930.04 C 775.33 927.03 776.54 927.03 777.75 930.04 C 779.52 934.45 780.25 939.10 779.93 944.00 C 779.87 944.92 780.03 945.83 780.41 946.66 C 780.79 947.50 781.37 948.22 782.10 948.77 C 782.83 949.32 783.69 949.68 784.60 949.82 C 785.50 949.95 786.42 949.86 787.28 949.54 C 808.84 941.59 820.92 927.31 823.51 906.71 C 825.64 889.82 813.92 879.59 798.15 878.15 C 797.46 878.09 796.75 878.23 796.13 878.58 L 699.96 933.03 C 698.36 933.92 698.19 935.04 699.43 936.38 C 710.79 948.78 724.79 954.09 741.41 952.32 C 742.84 952.16 744.17 951.48 745.13 950.41 C 746.09 949.34 746.63 947.95 746.63 946.51 L 746.74 928.23 C 746.75 928.05 746.83 927.88 746.96 927.75 C 747.08 927.62 747.25 927.53 747.43 927.51 C 747.61 927.48 747.79 927.52 747.95 927.61 C 748.10 927.71 748.22 927.85 748.28 928.02 Z" fill="#372720" fill-rule="nonzero" node-id="210" stroke="none" target-height="315.044" target-width="602.86096" target-x="349.666" target-y="678.898"></path><path d="M 895.54 756.15 L 852.28 808.20 L 821.43 836.28 L 810.78 834.68 C 809.14 834.44 807.47 834.82 806.09 835.75 L 785.21 850.08 L 749.62 846.29 C 748.99 846.24 748.39 845.99 747.91 845.58 C 747.43 845.16 747.09 844.61 746.95 843.99 C 746.81 843.37 746.87 842.73 747.12 842.15 C 747.37 841.56 747.79 841.08 748.34 840.75 C 776.10 823.44 809.87 809.96 832.94 792.06 C 845.91 782.01 861.18 768.71 878.76 752.15 C 883.63 747.61 889.22 748.94 895.54 756.15 Z" fill="#e1dbd1" fill-rule="nonzero" node-id="212" stroke="none" target-height="102.47003" target-width="148.73401" target-x="746.809" target-y="747.607"></path><path d="M 852.28 808.20 C 846.14 825.78 835.32 836.81 819.84 841.29 C 819.66 838.91 820.19 837.24 821.43 836.28 L 852.28 808.20 Z" fill="#715337" fill-rule="nonzero" node-id="214" stroke="none" target-height="33.086" target-width="32.622986" target-x="819.658" target-y="808.201"></path><path d="M 802.79 872.03 C 802.67 871.99 802.58 871.91 802.50 871.82 C 802.42 871.73 802.37 871.62 802.35 871.50 C 802.33 871.38 802.34 871.26 802.38 871.15 C 802.41 871.03 802.48 870.93 802.57 870.86 L 860.06 820.03 C 861.30 818.96 861.84 819.23 861.66 820.83 C 859.42 843.42 840.67 927.97 817.01 935.69 C 814.74 936.44 814.44 935.98 816.11 934.31 C 838.59 911.45 832.09 883.16 802.79 872.03 Z" fill="#e1dbd1" fill-rule="nonzero" node-id="216" stroke="none" target-height="117.47601" target-width="59.51001" target-x="802.326" target-y="818.963"></path><path d="M 862.03 862.54 C 883.16 867.98 903.71 873.61 923.67 879.43 C 966.93 892.06 989.74 895.52 1010.19 929.67 C 1010.60 930.36 1010.84 931.14 1010.87 931.93 C 1010.91 932.72 1010.75 933.50 1010.41 934.20 C 989.10 976.66 874.98 994.09 831.45 1000.37 C 830.17 980.91 825.39 961.99 817.12 943.63 C 840.99 924.52 855.96 897.49 862.03 862.54 Z" fill="#cec3b9" fill-rule="nonzero" node-id="218" stroke="none" target-height="137.82599" target-width="193.79095" target-x="817.119" target-y="862.544"></path><path d="M 255.26 881.88 C 266.07 925.46 288.66 990.78 344.34 986.25 C 344.57 986.23 344.80 986.16 345.00 986.03 C 345.20 985.90 345.36 985.73 345.48 985.52 C 345.59 985.32 345.66 985.09 345.66 984.85 C 345.67 984.62 345.62 984.39 345.51 984.17 C 345.26 983.71 344.85 983.27 344.29 982.84 L 349.67 979.65 C 350.59 985.01 354.48 988.22 361.33 989.29 C 391.81 993.94 416.95 986.68 436.77 967.50 C 437.95 966.36 439.35 965.88 440.98 966.06 C 525.76 976.36 608.08 966.43 687.92 936.28 C 689.45 935.71 690.82 935.98 692.02 937.08 C 724.90 967.13 744.40 958.39 784.14 954.66 C 789.82 959.63 792.84 966.66 793.20 975.76 C 793.76 990.14 791.76 1000.78 787.18 1007.67 C 596.94 1029.58 410.40 1029.44 227.56 1007.24 C 184.56 1002.02 110.83 990.30 69.32 965.53 C -25.03 909.27 221.75 871.17 235.81 869.58 C 247.00 868.30 250.15 873.25 255.26 881.88 Z" fill="#aaa1a1" fill-rule="nonzero" node-id="220" stroke="none" target-height="161.28296" target-width="818.7962" target-x="-25.0312" target-y="868.297"></path><path d="M 746.74 928.24 L 746.63 946.51 C 746.63 947.95 746.09 949.34 745.13 950.41 C 744.17 951.48 742.84 952.16 741.41 952.32 C 724.79 954.09 710.79 948.78 699.43 936.39 C 698.19 935.04 698.36 933.92 699.96 933.03 L 796.13 878.58 C 796.75 878.24 797.46 878.09 798.15 878.15 C 813.92 879.59 825.64 889.82 823.51 906.71 C 820.92 927.31 808.84 941.59 787.28 949.55 C 786.42 949.86 785.50 949.95 784.60 949.82 C 783.69 949.68 782.83 949.32 782.10 948.77 C 781.37 948.22 780.79 947.50 780.41 946.66 C 780.03 945.83 779.87 944.92 779.93 944.00 C 780.25 939.10 779.52 934.45 777.75 930.05 C 776.54 927.03 775.33 927.03 774.12 930.05 C 771.96 935.55 771.28 941.30 772.10 947.31 C 772.35 949.30 771.48 950.31 769.49 950.35 L 759.37 950.56 C 757.02 950.59 755.48 949.51 754.73 947.31 L 748.28 928.02 C 748.22 927.85 748.10 927.71 747.95 927.62 C 747.79 927.52 747.61 927.49 747.43 927.51 C 747.25 927.53 747.08 927.62 746.96 927.75 C 746.83 927.88 746.75 928.05 746.74 928.24 Z" fill="#cec3b9" fill-rule="nonzero" node-id="222" stroke="none" target-height="76.00598" target-width="127.45703" target-x="698.186" target-y="878.086"></path><path d="M 817.12 943.63 C 825.39 961.99 830.17 980.91 831.45 1000.37 L 787.18 1007.67 C 791.76 1000.78 793.76 990.14 793.20 975.76 C 792.84 966.66 789.82 959.63 784.14 954.66 L 817.12 943.63 Z" fill="#b4aaa6" fill-rule="nonzero" node-id="224" stroke="none" target-height="64.039" target-width="47.309998" target-x="784.14" target-y="943.631"></path></g></svg>