<?xml version="1.0" standalone="no"?><!DOCTYPE svg PUBLIC "-//W3C//DTD SVG 1.1//EN" "http://www.w3.org/Graphics/SVG/1.1/DTD/svg11.dtd"><svg height="1024" node-id="1" sillyvg="true" template-height="1024" template-width="1024" version="1.1" viewBox="0 0 1024 1024" width="1024" xmlns="http://www.w3.org/2000/svg" xmlns:xlink="http://www.w3.org/1999/xlink"><defs node-id="82"><clipPath id="clip0_2_4795" node-id="79"><path d="M 0.00 0.00 L 1024.00 0.00 L 1024.00 1024.00 L 0.00 1024.00 Z" fill="#000000" fill-rule="nonzero" node-id="85" stroke="none" target-height="1024" target-width="1024" target-x="0" target-y="0"></path></clipPath></defs><g clip-path="url(#clip0_2_4795)" id="sillyvg_g_0" node-id="89"><path d="M 0.00 0.00 L 1024.00 0.00 L 1024.00 1024.00 L 0.00 1024.00 Z" fill="#ffffff" fill-rule="nonzero" node-id="91" stroke="none" target-height="1024" target-width="1024" target-x="0" target-y="0"></path><path d="M 0.00 0.00 L 1024.00 0.00 L 1024.00 1024.00 L 0.00 1024.00 Z" fill="#ffffff" fill-rule="nonzero" node-id="93" stroke="none" target-height="1024" target-width="1024" target-x="0" target-y="0"></path><path d="M 432.73 29.21 C 433.06 32.04 431.69 34.08 428.65 35.34 L 404.28 25.23 C 403.03 24.71 401.67 24.50 400.33 24.62 C 398.98 24.74 397.68 25.18 396.54 25.91 C 395.40 26.64 394.46 27.64 393.79 28.82 C 393.12 29.99 392.75 31.32 392.70 32.67 C 392.19 46.71 396.55 59.01 405.79 69.58 C 407.08 71.07 406.74 71.83 404.77 71.87 L 347.72 73.23 C 342.11 73.36 340.71 75.85 343.54 80.72 C 344.28 81.98 345.21 83.17 346.31 84.27 C 350.78 88.81 350.04 92.23 344.07 94.53 L 279.24 119.43 C 276.52 120.47 276.47 121.64 279.10 122.93 C 290.96 128.74 301.50 136.37 310.71 145.84 C 310.78 145.93 310.83 146.05 310.83 146.17 C 310.83 146.29 310.79 146.41 310.72 146.50 C 310.64 146.60 310.54 146.67 310.43 146.70 C 310.31 146.72 310.19 146.72 310.08 146.67 C 263.48 121.31 215.55 101.63 166.26 87.62 C 142.08 80.75 121.38 81.01 104.16 88.40 C 80.23 122.20 73.67 163.35 74.20 204.15 C 73.65 227.50 76.06 250.56 81.45 273.36 C 82.81 279.13 81.87 284.07 78.63 288.19 C 77.72 289.33 77.44 290.59 77.80 291.99 L 79.26 297.92 C 79.68 299.54 80.33 299.64 81.20 298.21 C 96.64 272.89 116.06 250.35 139.47 230.61 C 163.20 210.18 189.64 193.11 218.79 179.40 C 220.25 178.72 220.33 177.89 219.03 176.92 C 196.79 160.41 174.87 143.47 153.28 126.09 C 141.31 116.43 129.79 113.32 118.70 116.76 L 122.15 108.25 C 165.18 120.31 201.01 143.62 229.63 178.18 C 230.90 179.71 230.56 180.69 228.61 181.15 L 226.18 181.73 C 156.49 208.28 97.98 272.29 65.11 337.80 C 60.86 337.70 61.33 334.35 66.52 327.73 C 66.71 327.44 66.65 327.24 66.32 327.15 C 65.90 327.02 65.48 326.89 65.06 326.76 C 64.69 326.63 64.30 326.64 63.94 326.79 C 63.58 326.93 63.29 327.19 63.11 327.54 C 49.27 353.73 37.43 380.77 27.61 408.66 C 24.45 417.61 24.98 427.67 24.35 437.45 L 41.23 441.63 C 42.04 444.49 40.82 446.71 37.58 448.30 C 28.14 448.20 20.77 444.62 15.45 437.55 C 14.35 436.12 14.04 434.53 14.53 432.78 C 27.14 386.42 46.51 343.10 72.64 302.83 C 73.55 301.47 73.81 299.99 73.42 298.40 C 63.06 253.56 47.31 59.37 140.68 75.71 C 184.49 83.36 226.28 97.16 266.06 117.10 C 267.42 117.81 268.77 117.75 270.10 116.90 C 291.43 103.32 314.53 94.47 339.40 90.35 C 339.81 90.27 340.18 90.08 340.48 89.80 C 340.78 89.51 340.99 89.15 341.09 88.75 C 341.19 88.35 341.17 87.93 341.03 87.54 C 340.90 87.15 340.65 86.81 340.33 86.55 L 333.81 81.69 C 332.86 80.97 332.13 79.99 331.71 78.87 C 331.29 77.75 331.20 76.54 331.45 75.37 C 331.69 74.21 332.26 73.14 333.10 72.30 C 333.93 71.45 334.99 70.86 336.14 70.60 C 353.85 66.58 371.91 64.91 390.32 65.59 C 390.67 65.61 391.01 65.54 391.32 65.38 C 391.63 65.23 391.90 65.01 392.10 64.73 C 392.30 64.45 392.43 64.13 392.48 63.78 C 392.52 63.44 392.49 63.10 392.37 62.77 C 388.23 51.15 382.30 24.89 397.67 19.44 C 399.19 18.89 400.73 18.86 402.29 19.34 L 432.73 29.21 Z" fill="#2e1e1b" fill-rule="nonzero" node-id="95" stroke="none" target-height="429.43942" target-width="419.0151" target-x="14.0399" target-y="18.8556"></path><path d="M 428.65 35.34 C 453.55 43.97 472.74 49.61 486.23 52.27 C 553.25 65.45 605.87 77.12 663.01 104.99 C 683.83 115.15 707.42 130.23 729.84 142.63 C 731.78 143.70 731.98 145.03 730.42 146.62 L 728.67 148.32 C 728.23 148.77 727.97 149.36 727.92 149.98 C 727.88 150.61 728.05 151.23 728.41 151.74 C 728.78 152.25 729.31 152.61 729.92 152.77 C 730.52 152.93 731.17 152.87 731.73 152.60 C 770.79 133.05 822.29 113.30 860.81 108.49 C 883.05 105.67 903.35 109.06 921.70 118.65 C 910.17 134.65 891.40 130.66 879.19 146.37 C 875.82 142.71 872.90 141.59 870.44 143.02 C 835.23 148.79 803.13 162.10 774.14 182.95 C 773.95 183.40 773.71 183.74 773.41 183.97 C 773.22 184.13 773.02 184.13 772.83 183.97 L 750.31 166.70 C 749.66 166.22 749.03 166.23 748.41 166.75 C 747.96 167.14 747.65 167.63 747.49 168.21 C 747.26 169.18 746.66 169.52 745.69 169.23 C 721.03 161.74 696.72 147.88 675.17 140.83 C 602.51 117.14 512.83 112.91 431.66 138.88 C 356.38 162.94 293.31 186.24 242.47 208.77 C 241.08 209.39 239.83 209.21 238.73 208.24 C 234.16 204.15 232.91 199.04 234.99 192.92 C 235.60 191.07 235.02 189.77 233.23 189.03 C 229.18 187.31 226.83 184.88 226.18 181.73 L 228.61 181.15 C 230.56 180.69 230.90 179.71 229.63 178.18 C 201.01 143.62 165.18 120.31 122.15 108.25 L 114.76 102.36 C 113.53 101.36 112.88 100.04 112.82 98.42 C 112.75 95.18 109.86 91.84 104.16 88.40 C 121.38 81.01 142.08 80.75 166.26 87.62 C 215.55 101.63 263.48 121.31 310.08 146.67 C 310.19 146.72 310.31 146.72 310.43 146.70 C 310.54 146.67 310.64 146.60 310.72 146.50 C 310.79 146.41 310.83 146.29 310.83 146.17 C 310.83 146.05 310.78 145.93 310.71 145.84 C 301.50 136.37 290.96 128.74 279.10 122.93 C 276.47 121.64 276.52 120.47 279.24 119.43 L 344.07 94.53 C 350.04 92.23 350.78 88.81 346.31 84.27 C 345.21 83.17 344.28 81.98 343.54 80.72 C 340.71 75.85 342.11 73.36 347.72 73.23 L 404.77 71.87 C 406.74 71.83 407.08 71.07 405.79 69.58 C 396.55 59.01 392.19 46.71 392.70 32.67 C 392.75 31.32 393.12 29.99 393.79 28.82 C 394.46 27.64 395.40 26.64 396.54 25.91 C 397.68 25.18 398.98 24.74 400.33 24.62 C 401.67 24.50 403.03 24.71 404.28 25.23 L 428.65 35.34 Z M 400.78 44.24 C 402.43 51.63 415.90 72.64 427.96 75.42 C 429.72 75.84 429.89 75.47 428.50 74.30 C 416.15 63.89 411.53 56.79 405.84 42.64 C 397.47 21.92 395.79 22.45 400.78 44.24 Z" fill="#fefefe" fill-rule="nonzero" node-id="97" stroke="none" target-height="187.4685" target-width="817.539" target-x="104.159" target-y="21.9195"></path><path d="M 427.96 75.42 C 415.90 72.64 402.43 51.63 400.78 44.24 C 395.79 22.45 397.47 21.92 405.84 42.64 C 411.53 56.79 416.15 63.89 428.50 74.30 C 429.89 75.47 429.71 75.84 427.96 75.42 Z" fill="#2e1e1b" fill-rule="nonzero" node-id="99" stroke="none" target-height="53.919098" target-width="34.10901" target-x="395.785" target-y="21.9195"></path><path d="M 432.73 29.21 C 454.42 34.81 474.85 40.11 498.00 43.17 C 582.96 54.46 658.39 78.63 728.52 129.94 C 731.88 132.42 732.61 134.22 734.60 137.91 C 735.54 139.66 736.89 140.08 738.64 139.18 C 781.58 117.19 853.27 91.61 899.86 99.49 C 968.43 111.07 934.59 282.94 921.36 320.92 C 918.63 328.74 918.67 334.98 921.46 339.65 C 941.59 373.20 953.55 423.88 958.47 462.30 C 958.69 463.95 958.12 465.27 956.76 466.24 C 941.20 477.30 924.84 476.42 907.69 463.61 C 904.93 461.60 903.91 458.20 904.63 453.40 L 946.36 461.67 C 946.60 461.72 946.85 461.71 947.09 461.64 C 947.33 461.57 947.54 461.44 947.72 461.26 C 947.90 461.09 948.03 460.87 948.11 460.62 C 948.18 460.38 948.20 460.12 948.15 459.87 C 928.65 346.75 877.54 261.15 789.22 189.71 C 789.38 187.99 789.93 186.56 790.87 185.43 C 824.37 212.01 854.45 242.15 881.14 275.84 L 910.41 322.87 C 910.60 323.16 910.87 323.38 911.18 323.52 C 911.50 323.65 911.85 323.69 912.19 323.62 C 912.52 323.55 912.83 323.38 913.07 323.13 C 913.31 322.89 913.47 322.57 913.53 322.24 L 922.91 262.71 C 932.93 213.39 932.53 165.37 921.70 118.65 C 903.35 109.06 883.05 105.67 860.81 108.49 C 822.29 113.30 770.79 133.05 731.73 152.60 C 731.17 152.87 730.52 152.93 729.92 152.77 C 729.31 152.61 728.78 152.25 728.41 151.74 C 728.05 151.23 727.88 150.61 727.92 149.98 C 727.97 149.36 728.23 148.77 728.67 148.32 L 730.42 146.62 C 731.98 145.03 731.78 143.70 729.84 142.63 C 707.42 130.23 683.83 115.15 663.01 104.99 C 605.87 77.12 553.25 65.45 486.23 52.27 C 472.74 49.61 453.55 43.97 428.65 35.34 C 431.69 34.08 433.06 32.04 432.73 29.21 Z" fill="#372720" fill-rule="nonzero" node-id="101" stroke="none" target-height="448.08218" target-width="539.789" target-x="428.646" target-y="29.2148"></path><path d="M 104.16 88.40 C 109.86 91.84 112.75 95.18 112.82 98.42 C 112.88 100.04 113.53 101.36 114.76 102.36 L 122.15 108.25 L 118.70 116.76 C 110.37 144.54 108.15 173.98 112.04 205.07 C 107.04 197.88 105.13 188.57 106.30 177.16 C 106.46 175.67 105.81 174.71 104.35 174.29 L 87.96 169.62 C 87.36 169.44 86.72 169.41 86.10 169.51 C 85.48 169.62 84.89 169.86 84.37 170.22 C 83.86 170.59 83.43 171.06 83.13 171.62 C 82.82 172.17 82.65 172.78 82.61 173.41 L 80.91 202.01 C 80.85 203.34 80.15 204.02 78.82 204.05 L 74.20 204.15 C 73.67 163.35 80.23 122.20 104.16 88.40 Z" fill="#e9b6a0" fill-rule="nonzero" node-id="103" stroke="none" target-height="116.6729" target-width="48.4877" target-x="73.6653" target-y="88.4021"></path><path d="M 139.47 230.61 L 124.83 235.62 C 122.95 236.27 121.52 235.72 120.55 233.96 C 115.56 224.76 112.72 215.13 112.04 205.08 C 108.15 173.98 110.37 144.54 118.70 116.76 C 129.79 113.32 141.31 116.43 153.28 126.09 C 174.87 143.47 196.79 160.41 219.03 176.92 C 220.33 177.89 220.25 178.72 218.79 179.40 C 189.64 193.11 163.20 210.18 139.47 230.61 Z" fill="#a8615d" fill-rule="nonzero" node-id="105" stroke="none" target-height="122.94701" target-width="112.183" target-x="108.147" target-y="113.319"></path><path d="M 774.14 182.95 C 779.88 184.11 784.91 186.37 789.22 189.71 C 877.54 261.15 928.65 346.75 948.15 459.87 C 948.20 460.12 948.18 460.38 948.11 460.62 C 948.03 460.87 947.90 461.09 947.72 461.26 C 947.54 461.44 947.32 461.57 947.09 461.64 C 946.85 461.71 946.60 461.72 946.36 461.67 L 904.63 453.40 L 891.50 447.91 C 887.99 446.41 887.31 447.24 889.45 450.39 C 903.46 470.98 921.13 491.35 942.46 511.52 C 946.40 515.26 947.81 516.43 948.06 522.41 C 951.56 606.36 926.17 682.76 848.02 722.20 C 845.78 723.34 845.85 724.28 848.21 725.02 C 862.17 729.59 897.43 698.91 908.27 688.74 C 925.93 672.21 935.27 650.66 944.22 628.58 L 952.63 618.22 L 984.87 606.31 C 985.52 606.37 986.17 606.42 986.82 606.45 C 1027.62 661.31 1016.97 728.96 975.88 781.15 C 975.03 774.30 977.40 767.67 982.98 761.25 C 984.18 759.86 984.03 758.61 982.54 757.51 C 971.84 749.53 954.96 750.26 941.74 748.22 C 939.98 747.93 939.30 746.92 939.69 745.21 C 945.04 722.38 946.73 699.64 944.75 676.97 C 945.07 674.67 944.98 672.68 944.46 670.99 C 944.00 669.40 943.21 669.22 942.08 670.46 C 930.06 683.63 918.10 716.17 899.62 719.53 C 884.54 722.28 870.03 725.56 856.09 729.35 C 855.61 729.47 855.18 729.74 854.87 730.12 C 854.56 730.51 854.38 730.98 854.37 731.48 C 854.36 731.97 854.51 732.46 854.81 732.86 C 855.10 733.25 855.52 733.54 855.99 733.68 C 867.18 737.28 878.38 737.44 889.60 734.17 C 892.39 733.32 893.05 734.17 891.59 736.70 C 861.10 788.68 821.90 814.46 767.43 853.66 C 764.67 855.61 759.15 860.87 750.85 869.47 L 725.07 894.46 C 724.76 894.77 724.54 895.16 724.44 895.59 C 724.34 896.02 724.36 896.47 724.50 896.88 C 724.65 897.29 724.91 897.64 725.25 897.91 C 725.59 898.17 726.00 898.33 726.43 898.36 C 738.93 899.47 750.46 905.89 748.56 920.43 C 745.59 943.05 731.68 946.21 715.05 957.20 C 713.79 958.04 712.39 958.56 710.87 958.76 L 693.60 960.95 C 694.82 953.75 700.80 945.14 700.51 940.03 C 700.28 936.66 698.29 934.23 694.53 932.74 L 682.61 930.06 L 671.52 940.96 C 670.42 942.06 669.12 942.47 667.63 942.17 C 661.73 941.01 658.12 943.47 656.79 949.57 C 656.58 950.62 655.99 951.56 655.14 952.21 C 654.28 952.86 653.23 953.18 652.15 953.11 C 651.09 953.03 650.08 952.58 649.32 951.82 C 648.56 951.06 648.10 950.05 648.03 948.98 L 647.74 945.48 C 647.09 936.01 650.64 928.41 658.39 922.67 C 659.53 921.83 659.45 921.13 658.15 920.58 C 656.20 919.74 654.37 919.98 652.65 921.31 C 647.08 925.69 642.29 932.01 638.31 940.28 L 604.99 918.54 C 617.15 893.74 635.08 882.57 658.78 885.03 C 660.18 885.19 660.55 884.64 659.90 883.38 C 658.73 881.17 656.71 880.00 653.82 879.87 C 634.34 879.03 617.95 886.88 604.65 903.41 C 597.75 903.71 593.13 907.87 590.79 915.91 L 539.14 920.58 L 515.16 920.53 C 371.89 898.89 237.47 824.38 153.96 704.01 L 142.38 680.96 C 170.59 664.91 208.48 647.11 216.89 629.07 C 217.54 627.67 218.55 626.65 219.91 626.00 C 230.54 621.04 234.21 613.02 230.90 601.93 C 230.43 600.38 230.46 598.72 231.00 597.16 C 233.72 589.71 232.16 584.75 226.33 582.28 C 225.74 581.15 225.27 580.69 224.92 580.92 C 223.98 579.01 222.94 578.26 221.80 578.68 C 221.35 570.25 223.77 563.27 229.05 557.72 C 239.69 570.01 252.87 576.92 268.59 578.44 C 324.67 587.58 360.46 544.35 369.85 493.43 C 370.82 435.07 351.02 398.56 310.46 383.90 C 217.57 350.35 143.70 436.19 137.18 523.63 C 136.21 525.57 135.80 527.28 135.97 528.74 C 136.02 529.30 135.89 529.86 135.59 530.34 C 135.28 530.81 134.83 531.18 134.30 531.37 C 133.77 531.56 133.19 531.56 132.66 531.39 C 132.12 531.21 131.66 530.86 131.34 530.39 C 125.54 521.80 123.48 512.39 125.17 502.18 C 125.43 500.59 125.15 499.12 124.34 497.76 C 115.44 482.53 111.16 462.40 100.85 449.17 C 99.98 448.04 99.55 446.77 99.59 445.38 L 99.78 438.76 C 99.81 437.34 99.12 436.59 97.69 436.52 C 94.09 436.33 91.45 434.66 89.76 431.52 C 95.76 426.52 101.74 421.48 107.71 416.39 C 108.06 416.07 108.18 415.68 108.05 415.22 C 107.89 414.74 107.59 414.64 107.17 414.93 L 93.65 424.42 L 90.30 422.32 C 89.07 421.58 87.74 421.12 86.31 420.96 L 77.07 419.84 C 76.15 419.73 75.31 419.28 74.72 418.58 C 74.12 417.87 73.82 416.97 73.86 416.05 C 74.35 405.01 73.81 395.38 79.60 385.26 C 85.95 374.18 90.96 362.80 94.63 351.12 C 94.81 350.50 94.77 349.82 94.49 349.22 C 94.22 348.62 93.73 348.14 93.14 347.88 C 92.54 347.61 91.87 347.58 91.26 347.78 C 90.64 347.99 90.13 348.42 89.81 348.98 L 63.40 394.07 C 63.05 394.68 62.47 395.13 61.79 395.33 C 61.11 395.52 60.39 395.46 59.76 395.14 C 54.76 392.64 50.16 388.64 45.94 383.12 L 65.11 337.80 C 97.98 272.29 156.49 208.29 226.18 181.73 C 226.83 184.88 229.18 187.31 233.23 189.03 C 235.02 189.77 235.60 191.07 234.98 192.92 C 232.91 199.04 234.16 204.15 238.73 208.24 C 239.83 209.21 241.08 209.39 242.47 208.77 C 293.31 186.24 356.38 162.94 431.66 138.88 C 512.83 112.91 602.51 117.14 675.17 140.83 C 696.72 147.88 721.03 161.74 745.69 169.23 C 746.66 169.52 747.26 169.18 747.49 168.21 C 747.65 167.63 747.96 167.14 748.41 166.75 C 749.03 166.23 749.66 166.22 750.31 166.70 L 772.83 183.97 C 773.02 184.13 773.22 184.13 773.41 183.97 C 773.70 183.74 773.95 183.40 774.14 182.95 Z M 286.88 308.47 C 335.80 295.73 384.73 395.96 399.61 430.74 C 400.03 431.68 400.52 431.71 401.07 430.83 C 401.39 430.28 401.44 429.68 401.22 429.04 C 379.18 372.23 332.98 276.71 253.66 306.77 C 250.29 308.03 250.40 308.67 254.00 308.67 L 267.67 308.67 C 269.42 308.67 271.12 309.14 272.58 310.03 C 308.99 332.20 340.83 359.70 368.10 392.51 C 368.36 392.87 368.60 392.87 368.82 392.51 C 368.95 392.32 369.07 392.15 369.17 392.02 C 369.33 391.73 369.25 391.41 368.92 391.05 C 344.51 361.22 317.00 334.52 286.39 310.95 C 284.83 309.79 285.00 308.96 286.88 308.47 Z M 695.01 342.52 C 656.17 353.57 620.88 371.58 589.14 396.55 C 588.93 396.70 588.79 396.93 588.76 397.19 C 588.72 397.44 588.79 397.70 588.94 397.91 C 589.10 398.12 589.33 398.25 589.58 398.29 C 589.84 398.33 590.10 398.26 590.30 398.11 C 625.03 373.79 662.88 356.10 703.87 345.05 C 706.30 344.36 706.46 343.34 704.35 341.98 C 674.75 322.53 645.16 323.34 615.60 344.41 C 581.23 368.92 556.55 395.11 541.57 422.96 C 530.81 442.99 531.77 443.56 544.44 424.66 C 572.60 382.69 636.26 308.91 695.11 341.64 C 695.76 342.03 695.73 342.32 695.01 342.52 Z M 557.96 420.52 L 572.12 410.12 C 572.28 410.02 572.31 409.89 572.21 409.73 C 571.89 409.27 571.57 408.98 571.24 408.85 C 570.88 408.69 570.43 408.77 569.88 409.10 C 564.43 412.24 560.22 415.82 557.23 419.84 C 557.16 419.94 557.13 420.05 557.14 420.16 C 557.16 420.27 557.21 420.37 557.29 420.45 C 557.38 420.53 557.49 420.58 557.62 420.60 C 557.74 420.61 557.86 420.58 557.96 420.52 Z M 564.09 486.18 C 560.49 502.55 561.98 517.78 568.57 531.85 C 567.04 537.94 568.66 546.46 573.43 557.38 C 589.06 592.46 616.70 611.09 656.35 613.26 C 656.67 615.27 659.48 616.36 664.76 616.52 C 667.78 616.59 668.26 617.74 666.22 619.97 L 657.62 629.41 C 656.35 630.77 655.67 632.39 655.57 634.27 C 652.70 705.38 746.57 724.83 798.85 714.81 C 824.30 709.91 841.76 706.77 851.23 705.38 C 852.78 705.15 854.23 704.63 855.55 703.82 L 864.02 698.66 C 865.15 697.98 866.12 698.18 866.94 699.25 C 869.95 703.24 873.91 702.91 878.80 698.27 C 880.00 697.14 879.92 696.09 878.56 695.11 L 873.74 691.66 C 873.24 691.31 872.85 690.82 872.62 690.25 C 872.38 689.69 872.31 689.07 872.41 688.46 C 872.52 687.86 872.79 687.29 873.19 686.84 C 873.60 686.38 874.13 686.04 874.72 685.87 L 884.54 683.10 C 886.62 682.52 887.48 681.17 887.12 679.06 C 885.24 668.14 890.75 660.47 903.65 656.06 C 906.38 659.14 910.20 659.54 915.13 657.28 C 915.78 656.97 916.31 656.47 916.65 655.84 C 916.98 655.20 917.11 654.48 917.00 653.77 C 916.89 653.07 916.55 652.41 916.04 651.91 C 915.53 651.41 914.87 651.10 914.16 651.00 C 890.46 648.28 866.21 646.59 841.40 645.94 C 831.00 645.65 825.55 639.96 823.12 630.58 C 822.70 629.02 823.28 628.18 824.87 628.05 L 838.19 626.73 C 839.09 626.65 839.92 626.25 840.56 625.61 C 841.20 624.98 841.60 624.13 841.70 623.23 L 842.52 614.91 C 842.68 613.39 843.53 612.52 845.05 612.29 L 872.97 608.11 C 873.78 607.98 874.17 607.52 874.13 606.75 C 874.13 606.23 874.15 605.67 874.18 605.09 C 874.25 603.99 873.73 603.52 872.63 603.68 L 813.34 613.12 C 811.91 613.34 810.65 613.00 809.55 612.10 L 802.11 605.97 C 800.78 604.90 800.27 603.53 800.60 601.88 C 801.22 598.41 800.34 596.00 797.97 594.63 C 810.52 548.69 802.69 505.91 774.48 466.29 C 724.73 389.69 588.75 382.54 564.09 486.18 Z M 415.56 505.59 C 423.51 504.22 430.56 501.18 436.72 496.44 C 437.01 496.27 437.22 495.99 437.30 495.66 C 437.38 495.33 437.33 494.98 437.16 494.69 C 436.98 494.40 436.70 494.19 436.37 494.11 C 436.04 494.03 435.70 494.08 435.40 494.25 L 415.03 503.74 C 410.65 505.78 410.83 506.40 415.56 505.59 Z M 503.01 504.90 C 505.05 508.37 507.63 510.22 510.74 510.45 C 511.17 510.49 511.60 510.38 511.95 510.12 C 512.30 509.87 512.54 509.50 512.63 509.07 C 512.72 508.65 512.65 508.21 512.44 507.84 C 512.23 507.46 511.88 507.18 511.47 507.05 L 503.54 504.27 C 502.80 503.98 502.62 504.19 503.01 504.90 Z M 407.15 551.50 C 419.70 565.05 434.17 575.60 450.58 583.16 C 440.72 618.89 419.08 641.96 385.65 652.36 C 384.52 652.69 384.11 653.43 384.44 654.60 C 384.57 655.15 384.84 655.59 385.26 655.91 C 385.85 656.40 386.77 656.50 388.04 656.21 C 400.55 653.48 412.79 648.98 424.75 642.68 C 434.24 660.58 449.22 679.55 470.52 664.38 C 471.88 663.44 472.82 662.17 473.34 660.58 C 474.99 655.72 478.12 652.07 482.73 649.64 L 511.27 670.55 C 512.18 671.23 513.11 671.23 514.05 670.55 C 515.21 669.74 515.38 669.03 514.53 668.41 C 486.20 648.63 470.42 620.18 467.21 583.06 C 483.91 579.49 499.04 573.66 512.59 565.55 C 513.95 564.73 515.00 563.50 515.60 562.05 C 519.91 551.67 517.06 544.32 507.04 539.97 C 474.00 525.61 442.05 526.30 411.19 542.06 C 407.59 543.91 406.24 547.05 407.15 551.50 Z" fill="#fdfaee" fill-rule="nonzero" node-id="107" stroke="none" target-height="848.033" target-width="981.6765" target-x="45.9435" target-y="112.914"></path><path d="M 921.70 118.65 C 932.53 165.37 932.93 213.39 922.91 262.71 C 921.68 262.58 920.17 262.80 918.39 263.39 C 917.09 263.84 916.51 263.39 916.64 262.03 C 917.58 252.62 913.69 245.96 904.97 242.04 C 903.61 241.45 902.59 240.48 901.90 239.12 C 898.73 232.57 893.18 229.60 885.27 230.22 C 889.70 206.34 892.52 167.43 879.19 146.37 C 891.40 130.66 910.17 134.65 921.70 118.65 Z" fill="#e9b6a0" fill-rule="nonzero" node-id="109" stroke="none" target-height="145.18901" target-width="53.740967" target-x="879.192" target-y="118.653"></path><path d="M 879.19 146.37 C 892.52 167.43 889.70 206.34 885.27 230.22 L 879.10 255.36 C 878.88 256.20 878.86 257.07 879.03 257.92 C 879.20 258.77 879.55 259.58 880.07 260.27 C 884.61 266.53 884.96 271.72 881.14 275.84 C 854.45 242.15 824.37 212.01 790.87 185.43 C 788.99 184.49 787.83 183.30 787.37 181.88 C 787.19 181.30 787.21 180.67 787.43 180.10 C 787.65 179.52 788.06 179.04 788.59 178.72 C 813.42 163.41 840.09 153.05 868.59 147.64 C 869.82 147.38 870.47 146.84 870.53 146.03 C 870.60 145.29 870.57 144.28 870.44 143.02 C 872.90 141.59 875.82 142.71 879.19 146.37 Z" fill="#9b6364" fill-rule="nonzero" node-id="111" stroke="none" target-height="134.24602" target-width="105.328" target-x="787.189" target-y="141.592"></path><path d="M 870.44 143.02 C 870.57 144.28 870.60 145.29 870.53 146.03 C 870.47 146.84 869.82 147.38 868.59 147.64 C 840.09 153.05 813.42 163.41 788.59 178.72 C 788.06 179.04 787.65 179.52 787.43 180.10 C 787.21 180.67 787.19 181.30 787.37 181.88 C 787.82 183.30 788.99 184.49 790.87 185.43 C 789.93 186.56 789.38 187.99 789.22 189.71 C 784.91 186.37 779.88 184.11 774.14 182.95 C 803.13 162.10 835.23 148.79 870.44 143.02 Z" fill="#2e1e1b" fill-rule="nonzero" node-id="113" stroke="none" target-height="46.688995" target-width="96.45697" target-x="774.142" target-y="143.018"></path><path d="M 112.04 205.08 C 112.72 215.13 115.56 224.76 120.55 233.96 C 121.52 235.72 122.95 236.27 124.83 235.62 L 139.47 230.61 C 116.06 250.35 96.64 272.89 81.20 298.21 C 80.33 299.64 79.68 299.54 79.26 297.92 L 77.80 291.99 C 77.44 290.59 77.72 289.33 78.63 288.19 C 81.87 284.07 82.81 279.13 81.45 273.36 C 76.06 250.56 73.65 227.50 74.20 204.15 L 78.82 204.05 C 80.15 204.02 80.85 203.34 80.91 202.01 L 82.61 173.41 C 82.65 172.78 82.82 172.17 83.13 171.62 C 83.43 171.07 83.86 170.59 84.37 170.22 C 84.89 169.86 85.48 169.62 86.10 169.51 C 86.72 169.41 87.36 169.44 87.96 169.62 L 104.35 174.29 C 105.81 174.71 106.46 175.67 106.30 177.16 C 105.13 188.57 107.04 197.88 112.04 205.08 Z" fill="#d0988b" fill-rule="nonzero" node-id="115" stroke="none" target-height="130.23" target-width="65.8183" target-x="73.6487" target-y="169.407"></path><path d="M 885.27 230.22 C 893.18 229.60 898.73 232.57 901.90 239.12 C 902.59 240.48 903.61 241.45 904.97 242.04 C 913.69 245.96 917.58 252.62 916.64 262.03 C 916.51 263.39 917.09 263.84 918.39 263.39 C 920.17 262.80 921.68 262.58 922.91 262.71 L 913.53 322.24 C 913.47 322.57 913.31 322.89 913.07 323.13 C 912.83 323.38 912.52 323.55 912.19 323.62 C 911.85 323.69 911.50 323.65 911.18 323.52 C 910.87 323.38 910.60 323.16 910.41 322.87 L 881.14 275.84 C 884.96 271.72 884.61 266.53 880.07 260.27 C 879.55 259.58 879.20 258.77 879.03 257.92 C 878.86 257.07 878.88 256.20 879.10 255.36 L 885.27 230.22 Z" fill="#c28780" fill-rule="nonzero" node-id="117" stroke="none" target-height="94.084015" target-width="44.05298" target-x="878.861" target-y="229.603"></path><path d="M 286.39 310.95 C 317.00 334.52 344.51 361.22 368.92 391.05 C 369.25 391.41 369.33 391.73 369.17 392.02 C 369.07 392.15 368.96 392.32 368.83 392.51 C 368.60 392.87 368.36 392.87 368.10 392.51 C 340.83 359.70 308.99 332.20 272.58 310.03 C 271.12 309.14 269.42 308.67 267.67 308.67 L 254.00 308.67 C 250.40 308.67 250.29 308.03 253.66 306.77 C 332.98 276.71 379.19 372.23 401.22 429.04 C 401.44 429.68 401.39 430.28 401.07 430.83 C 400.52 431.71 400.03 431.68 399.61 430.74 C 384.73 395.96 335.80 295.73 286.88 308.47 C 285.00 308.96 284.83 309.79 286.39 310.95 Z" fill="#170f0a" fill-rule="nonzero" node-id="119" stroke="none" target-height="154.99698" target-width="151.155" target-x="250.288" target-y="276.713"></path><path d="M 65.11 337.80 L 45.94 383.12 L 34.66 413.33 L 24.35 437.45 C 24.98 427.67 24.45 417.61 27.61 408.66 C 37.43 380.77 49.27 353.73 63.11 327.54 C 63.29 327.19 63.58 326.93 63.94 326.79 C 64.30 326.64 64.69 326.63 65.06 326.76 C 65.48 326.89 65.90 327.02 66.32 327.15 C 66.65 327.25 66.71 327.44 66.52 327.73 C 61.33 334.35 60.86 337.70 65.11 337.80 Z" fill="#4e423d" fill-rule="nonzero" node-id="121" stroke="none" target-height="110.81601" target-width="42.360302" target-x="24.3503" target-y="326.633"></path><path d="M 695.11 341.64 C 636.26 308.91 572.60 382.69 544.44 424.66 C 531.77 443.56 530.81 442.99 541.57 422.96 C 556.55 395.11 581.23 368.92 615.60 344.41 C 645.16 323.34 674.75 322.53 704.35 341.98 C 706.46 343.34 706.30 344.36 703.87 345.04 C 662.88 356.10 625.03 373.79 590.30 398.10 C 590.10 398.26 589.84 398.32 589.58 398.29 C 589.33 398.25 589.10 398.12 588.94 397.91 C 588.79 397.70 588.72 397.44 588.76 397.19 C 588.79 396.93 588.93 396.70 589.14 396.55 C 620.88 371.58 656.17 353.57 695.01 342.51 C 695.73 342.32 695.76 342.03 695.11 341.64 Z" fill="#170f0a" fill-rule="nonzero" node-id="123" stroke="none" target-height="134.65201" target-width="175.651" target-x="530.809" target-y="308.909"></path><path d="M 93.65 424.42 L 73.91 434.87 C 70.80 429.17 66.87 427.85 62.14 430.93 C 60.62 431.90 59.72 431.50 59.46 429.72 L 59.17 427.38 C 58.95 425.83 59.46 424.58 60.73 423.64 C 62.67 422.18 63.65 420.31 63.65 418.04 C 63.65 416.83 63.31 415.64 62.65 414.62 C 62.00 413.59 61.06 412.78 59.95 412.28 C 58.85 411.79 57.62 411.62 56.42 411.80 C 55.22 411.99 54.10 412.52 53.19 413.33 L 46.87 419.02 C 45.28 420.44 43.54 420.65 41.66 419.65 C 38.58 417.96 36.25 415.86 34.66 413.33 L 45.94 383.12 C 50.16 388.64 54.76 392.64 59.76 395.14 C 60.39 395.46 61.11 395.52 61.79 395.33 C 62.47 395.13 63.05 394.68 63.40 394.07 L 89.81 348.98 C 90.13 348.42 90.64 347.99 91.26 347.78 C 91.87 347.58 92.54 347.61 93.14 347.88 C 93.74 348.14 94.22 348.62 94.49 349.22 C 94.77 349.82 94.81 350.50 94.63 351.12 C 90.96 362.80 85.95 374.18 79.60 385.26 C 73.81 395.38 74.35 405.01 73.86 416.05 C 73.82 416.97 74.12 417.87 74.72 418.58 C 75.31 419.28 76.15 419.73 77.07 419.84 L 86.31 420.96 C 87.74 421.12 89.07 421.58 90.30 422.32 L 93.65 424.42 Z" fill="#e1dbd1" fill-rule="nonzero" node-id="125" stroke="none" target-height="87.29202" target-width="60.1535" target-x="34.6607" target-y="347.58"></path><path d="M 369.85 493.43 C 369.23 492.78 368.71 492.23 368.29 491.77 C 367.25 490.61 366.49 490.77 366.00 492.26 L 360.75 509.19 C 359.94 507.66 358.35 506.61 355.99 506.02 C 360.27 499.38 362.29 491.55 362.06 482.53 C 361.03 443.07 341.70 416.47 304.09 402.73 C 294.17 397.34 281.80 396.39 266.99 399.86 C 256.22 399.95 244.89 403.16 232.99 409.49 C 215.35 407.60 198.72 420.14 183.09 447.08 C 166.30 471.59 156.10 499.96 152.50 532.19 C 152.34 533.75 152.81 535.09 153.91 536.23 L 155.95 538.22 C 156.21 538.50 156.36 538.86 156.39 539.24 C 156.41 539.62 156.30 540.00 156.08 540.31 C 155.85 540.62 155.53 540.84 155.16 540.93 C 154.79 541.03 154.40 541.00 154.06 540.85 L 146.66 537.15 C 146.41 537.02 146.12 536.95 145.83 536.95 C 145.54 536.95 145.25 537.02 144.99 537.15 C 144.72 537.28 144.49 537.47 144.31 537.71 C 144.13 537.95 144.00 538.22 143.94 538.51 L 143.31 541.72 C 143.24 542.06 143.25 542.42 143.35 542.75 C 143.44 543.09 143.61 543.40 143.84 543.66 C 144.08 543.93 144.37 544.13 144.70 544.27 C 145.03 544.40 145.38 544.46 145.74 544.44 L 161.64 543.18 C 183.50 548.53 203.55 560.36 221.81 578.68 C 222.94 578.26 223.98 579.01 224.92 580.92 L 220.25 580.34 C 218.85 580.14 217.52 579.57 216.41 578.68 C 194.26 561.04 169.02 551.21 140.68 549.16 C 138.77 549.03 137.78 548.00 137.72 546.05 L 137.18 523.63 C 143.70 436.19 217.57 350.35 310.46 383.90 C 351.02 398.56 370.82 435.07 369.85 493.43 Z" fill="#412d27" fill-rule="nonzero" node-id="127" stroke="none" target-height="230.57397" target-width="233.638" target-x="137.181" target-y="350.346"></path><path d="M 304.09 402.73 L 281.24 403.50 C 279.65 403.57 278.22 404.09 276.95 405.06 C 256.53 421.24 246.62 442.39 247.24 468.53 L 222.29 471.44 L 221.56 446.40 C 228.73 423.18 243.87 407.67 266.99 399.86 C 281.80 396.39 294.17 397.34 304.09 402.73 Z" fill="#715337" fill-rule="nonzero" node-id="129" stroke="none" target-height="75.05902" target-width="82.53198" target-x="221.561" target-y="396.386"></path><path d="M 266.99 399.86 C 243.87 407.67 228.73 423.18 221.56 446.40 C 210.13 479.42 205.27 528.30 229.05 557.72 C 223.77 563.27 221.35 570.25 221.80 578.68 C 203.55 560.36 183.50 548.53 161.64 543.18 L 161.40 539.68 C 162.93 537.83 163.80 534.99 164.03 531.17 C 166.94 483.89 197.29 441.19 232.99 409.49 C 244.89 403.16 256.22 399.95 266.99 399.86 Z" fill="#fefefe" fill-rule="nonzero" node-id="131" stroke="none" target-height="178.82797" target-width="105.58499" target-x="161.401" target-y="399.855"></path><path d="M 304.09 402.72 C 341.70 416.47 361.03 443.07 362.07 482.53 C 362.29 491.55 360.27 499.38 355.99 506.02 C 314.01 558.79 248.12 536.81 247.24 468.53 C 246.62 442.39 256.53 421.24 276.96 405.06 C 278.22 404.09 279.65 403.57 281.24 403.50 L 304.09 402.72 Z" fill="#2e1e1b" fill-rule="nonzero" node-id="133" stroke="none" target-height="156.06702" target-width="115.66901" target-x="246.624" target-y="402.724"></path><path d="M 232.99 409.49 C 197.29 441.19 166.94 483.89 164.03 531.17 C 163.80 534.99 162.93 537.83 161.40 539.68 L 159.65 538.61 C 159.23 538.35 158.90 537.98 158.69 537.53 C 158.49 537.09 158.41 536.61 158.48 536.13 C 162.54 504.68 172.54 475.17 188.49 447.61 C 189.85 445.28 188.05 445.10 183.09 447.08 C 198.72 420.13 215.35 407.60 232.99 409.49 Z" fill="#715337" fill-rule="nonzero" node-id="135" stroke="none" target-height="132.07397" target-width="74.57701" target-x="158.413" target-y="407.604"></path><path d="M 557.96 420.52 C 557.86 420.58 557.74 420.61 557.62 420.60 C 557.49 420.58 557.38 420.53 557.29 420.45 C 557.21 420.37 557.16 420.27 557.14 420.16 C 557.13 420.05 557.17 419.94 557.23 419.84 C 560.22 415.82 564.43 412.24 569.88 409.10 C 570.43 408.77 570.88 408.69 571.24 408.85 C 571.57 408.98 571.89 409.27 572.21 409.73 C 572.31 409.89 572.28 410.02 572.12 410.12 L 557.96 420.52 Z" fill="#b4aaa6" fill-rule="nonzero" node-id="137" stroke="none" target-height="11.918976" target-width="15.177002" target-x="557.134" target-y="408.691"></path><path d="M 774.48 466.29 C 784.31 490.48 791.05 513.35 794.71 534.91 C 796.01 542.56 794.24 549.47 789.41 555.63 L 780.85 520.37 C 770.93 488.11 752.30 462.74 724.97 444.26 L 712.47 437.74 C 700.87 432.26 688.84 429.31 676.39 428.89 C 664.00 424.61 655.59 425.11 651.15 430.40 C 629.07 432.47 609.13 440.58 591.33 454.71 C 592.17 452.67 591.49 451.18 589.28 450.24 C 587.73 449.56 586.50 449.95 585.59 451.41 L 564.09 486.18 C 588.75 382.54 724.73 389.69 774.48 466.29 Z" fill="#412d27" fill-rule="nonzero" node-id="139" stroke="none" target-height="173.08902" target-width="231.91998" target-x="564.091" target-y="382.541"></path><path d="M 73.91 434.87 L 41.23 441.63 L 24.35 437.45 L 34.66 413.33 C 36.25 415.86 38.58 417.96 41.66 419.65 C 43.54 420.65 45.28 420.44 46.87 419.02 L 53.19 413.33 C 54.10 412.52 55.22 411.99 56.42 411.80 C 57.62 411.62 58.85 411.78 59.95 412.28 C 61.06 412.78 62.00 413.59 62.65 414.62 C 63.31 415.64 63.65 416.83 63.65 418.04 C 63.65 420.31 62.67 422.18 60.73 423.64 C 59.46 424.58 58.95 425.83 59.17 427.38 L 59.46 429.72 C 59.72 431.50 60.62 431.90 62.14 430.93 C 66.87 427.85 70.80 429.17 73.91 434.87 Z" fill="#cec3b9" fill-rule="nonzero" node-id="141" stroke="none" target-height="30.014984" target-width="49.5581" target-x="24.3503" target-y="411.617"></path><path d="M 89.76 431.52 L 39.52 461.72 C 7.91 483.56 12.48 549.75 19.63 584.52 C 30.95 639.35 63.06 679.83 115.98 705.96 C 103.88 713.16 90.28 715.96 75.17 714.37 L 56.50 710.43 C 54.94 710.11 54.58 710.63 55.43 711.99 C 73.26 740.88 94.92 766.49 120.40 788.83 C 121.00 789.34 121.76 789.60 122.54 789.55 C 123.32 789.51 124.06 789.16 124.58 788.59 C 126.92 785.99 129.12 784.81 131.20 785.04 C 220.10 870.29 377.58 920.14 498.29 922.23 C 511.55 926.35 525.17 925.80 539.14 920.58 L 590.79 915.91 C 585.88 944.41 610.93 959.05 635.83 962.45 C 637.48 962.68 638.26 961.95 638.16 960.27 C 637.97 957.48 637.29 955.19 636.12 953.41 C 635.08 947.28 635.81 942.90 638.31 940.28 C 642.29 932.01 647.08 925.69 652.65 921.31 C 654.37 919.98 656.20 919.74 658.15 920.58 C 659.45 921.13 659.53 921.83 658.39 922.67 C 650.64 928.41 647.09 936.01 647.74 945.48 C 645.86 951.61 645.99 957.14 648.13 962.07 C 648.81 963.69 650.04 964.47 651.83 964.40 L 669.77 963.67 C 676.32 967.79 680.59 968.06 682.56 964.50 C 749.24 982.54 806.58 883.33 820.00 832.12 C 820.08 831.83 820.06 831.53 819.95 831.25 C 819.85 830.98 819.65 830.75 819.41 830.58 C 819.16 830.42 818.87 830.34 818.58 830.36 C 818.28 830.37 818.00 830.47 817.77 830.66 C 796.89 847.74 774.58 860.68 750.85 869.47 C 759.15 860.87 764.67 855.61 767.43 853.66 C 821.90 814.46 861.10 788.68 891.59 736.70 C 893.05 734.17 892.39 733.32 889.60 734.17 C 878.38 737.44 867.18 737.28 855.99 733.68 C 855.52 733.54 855.10 733.25 854.81 732.86 C 854.51 732.46 854.36 731.97 854.37 731.48 C 854.38 730.98 854.56 730.51 854.87 730.12 C 855.18 729.74 855.61 729.47 856.09 729.35 C 870.03 725.56 884.54 722.28 899.62 719.53 C 918.10 716.17 930.06 683.63 942.08 670.46 C 943.21 669.22 944.00 669.40 944.46 670.99 C 944.98 672.68 945.08 674.67 944.75 676.97 C 933.32 698.13 915.52 711.89 904.92 732.41 C 890.36 760.43 871.36 785.04 847.92 806.24 C 826.42 825.65 827.69 850.40 815.67 875.30 C 814.87 876.99 815.35 877.54 817.13 876.96 C 881.91 854.88 931.38 834.64 975.88 781.15 C 1016.97 728.96 1027.62 661.31 986.82 606.45 C 987.47 605.12 987.37 603.27 986.53 600.91 C 986.14 599.81 985.49 599.04 984.58 598.62 C 982.96 597.94 982.41 598.43 982.93 600.08 L 984.87 606.31 L 952.63 618.22 C 958.34 611.54 966.07 606.10 975.83 601.88 C 976.27 601.69 976.66 601.39 976.96 601.01 C 977.25 600.63 977.45 600.18 977.52 599.70 C 977.59 599.23 977.54 598.75 977.37 598.30 C 977.21 597.86 976.92 597.47 976.56 597.16 L 958.08 581.31 C 956.59 580.04 955.61 580.37 955.16 582.28 L 944.22 628.58 C 935.27 650.66 925.93 672.21 908.27 688.74 C 897.43 698.91 862.17 729.59 848.21 725.02 C 845.85 724.28 845.78 723.34 848.02 722.20 C 926.17 682.76 951.56 606.36 948.06 522.41 C 947.81 516.43 946.40 515.26 942.47 511.52 C 921.13 491.35 903.46 470.98 889.45 450.39 C 887.31 447.24 887.99 446.41 891.50 447.91 L 904.63 453.40 C 903.91 458.20 904.93 461.60 907.69 463.61 L 960.80 512.00 C 961.15 512.32 961.42 512.72 961.59 513.15 C 961.75 513.59 961.82 514.07 961.77 514.53 L 957.30 568.27 C 957.17 569.96 957.75 571.31 959.05 572.31 C 967.12 578.73 978.75 583.98 985.16 590.55 C 1062.98 669.82 1013.08 790.19 930.26 842.77 C 919.56 849.58 903.82 858.05 883.03 868.20 L 842.28 881.09 L 812.86 886.54 C 812.11 886.67 811.41 886.98 810.81 887.42 C 810.20 887.87 809.70 888.45 809.35 889.11 C 789.22 926.60 760.26 954.40 722.49 972.52 C 686.92 973.75 662.90 973.37 650.42 971.36 C 620.60 966.54 592.15 964.11 587.10 932.25 C 586.80 930.44 585.75 929.66 583.93 929.92 C 530.89 937.70 477.91 937.99 425.00 930.79 C 423.25 930.57 422.42 931.33 422.52 933.08 C 423.13 944.49 416.89 952.81 403.79 958.03 C 341.25 983.03 269.95 994.85 224.14 934.34 C 206.73 911.36 194.36 886.08 187.03 858.52 C 172.93 841.27 150.31 820.09 119.19 794.96 C 93.15 773.92 67.99 744.46 43.71 706.59 C 43.44 706.17 43.28 705.70 43.26 705.20 C 43.23 704.71 43.34 704.21 43.56 703.77 C 43.79 703.32 44.13 702.94 44.54 702.66 C 44.96 702.38 45.44 702.21 45.94 702.16 L 59.66 701.05 C 61.99 700.85 62.33 699.93 60.68 698.27 C -1.13 635.88 -7.51 568.08 5.72 483.70 C 6.47 478.87 5.53 475.50 2.90 473.58 C 2.29 473.14 1.79 472.55 1.45 471.87 C 1.11 471.19 0.95 470.44 0.96 469.68 C 0.97 468.92 1.17 468.18 1.54 467.51 C 1.90 466.84 2.42 466.27 3.05 465.85 C 14.95 457.88 27.85 452.64 41.76 450.14 C 43.16 449.88 43.20 449.45 41.91 448.83 C 40.84 448.31 39.39 448.13 37.58 448.30 C 40.82 446.71 42.04 444.49 41.23 441.63 L 73.91 434.87 L 93.65 424.42 L 107.17 414.93 C 107.59 414.64 107.89 414.74 108.05 415.22 C 108.18 415.68 108.07 416.07 107.71 416.39 C 101.74 421.48 95.76 426.52 89.76 431.52 Z M 330.75 933.23 C 341.01 944.17 336.39 956.72 348.79 965.57 C 349.38 966.01 350.06 966.31 350.79 966.45 C 351.51 966.60 352.26 966.58 352.97 966.39 L 363.91 963.62 C 365.92 963.10 366.77 961.82 366.44 959.78 L 361.63 927.34 C 361.40 925.85 361.97 925.43 363.33 926.08 C 365.86 927.28 367.59 929.38 368.53 932.40 C 370.96 940.12 373.30 947.86 375.54 955.65 C 376.06 957.46 377.24 958.19 379.09 957.83 C 395.07 954.69 406.63 946.11 413.76 932.11 C 414.70 930.26 414.15 929.16 412.11 928.80 C 333.61 915.83 260.19 888.95 191.85 848.16 C 191.56 848.00 191.24 847.94 190.91 847.98 C 190.59 848.02 190.29 848.16 190.06 848.38 C 189.82 848.61 189.67 848.90 189.61 849.22 C 189.56 849.54 189.61 849.87 189.75 850.16 C 216.70 900.88 227.45 942.47 286.05 967.76 C 293.02 970.77 295.24 968.70 292.71 961.53 L 282.74 933.18 C 282.51 932.60 282.50 931.96 282.71 931.37 C 282.92 930.79 283.34 930.30 283.89 930.01 C 284.44 929.71 285.07 929.63 285.68 929.77 C 286.29 929.92 286.81 930.28 287.17 930.79 C 293.75 939.35 298.11 948.97 300.25 959.63 C 300.42 960.43 300.75 961.18 301.23 961.83 C 301.71 962.49 302.32 963.03 303.02 963.43 C 311.52 968.03 320.66 968.94 330.45 966.15 C 331.36 965.88 332.15 965.30 332.68 964.51 C 333.20 963.72 333.43 962.77 333.32 961.82 L 330.40 933.42 C 330.34 933.03 330.45 932.97 330.75 933.23 Z" fill="#412d27" fill-rule="nonzero" node-id="143" stroke="none" target-height="580.20496" target-width="1070.4854" target-x="-7.50531" target-y="414.64"></path><path d="M 676.39 428.89 C 673.47 429.76 673.21 430.43 675.61 430.88 C 672.53 431.60 669.63 431.35 666.90 430.15 L 651.15 430.40 C 655.59 425.11 664.00 424.61 676.39 428.89 Z" fill="#715337" fill-rule="nonzero" node-id="145" stroke="none" target-height="6.9869995" target-width="25.241028" target-x="651.147" target-y="424.61"></path><path d="M 676.39 428.89 C 688.84 429.31 700.87 432.26 712.47 437.74 C 709.43 443.84 712.80 450.51 722.59 457.78 C 718.38 458.23 716.17 460.91 715.98 465.80 C 704.53 449.36 691.08 437.73 675.61 430.88 C 673.21 430.43 673.47 429.76 676.39 428.89 Z" fill="#bdb3b0" fill-rule="nonzero" node-id="147" stroke="none" target-height="36.912994" target-width="49.380005" target-x="673.21" target-y="428.89"></path><path d="M 651.15 430.40 L 666.90 430.15 C 669.01 440.24 673.58 445.44 680.62 445.77 C 694.72 461.69 702.63 478.76 704.35 496.98 C 701.24 515.62 695.57 530.81 687.33 542.55 C 656.30 586.76 596.34 569.10 581.99 520.47 C 581.87 520.09 581.64 519.75 581.33 519.50 C 581.02 519.25 580.64 519.10 580.24 519.07 C 579.84 519.03 579.44 519.12 579.10 519.32 C 578.75 519.52 578.47 519.82 578.29 520.18 C 573.27 530.78 571.65 543.18 573.43 557.38 C 568.66 546.45 567.04 537.94 568.57 531.85 C 569.83 499.36 577.42 473.65 591.33 454.71 C 609.13 440.58 629.07 432.47 651.15 430.40 Z" fill="#2e1e1b" fill-rule="nonzero" node-id="149" stroke="none" target-height="156.60199" target-width="137.31" target-x="567.042" target-y="430.154"></path><path d="M 666.90 430.15 C 669.63 431.35 672.53 431.60 675.61 430.88 C 691.08 437.73 704.53 449.36 715.98 465.80 C 740.29 509.91 744.48 573.92 697.54 606.16 L 658.59 612.14 C 709.70 606.11 731.93 560.59 724.58 513.27 C 724.36 500.40 721.42 487.90 715.78 475.77 C 715.07 474.28 713.98 473.13 712.52 472.32 L 707.90 469.89 C 706.41 469.08 705.20 467.98 704.25 466.58 C 697.90 456.95 690.02 450.01 680.62 445.77 C 673.58 445.44 669.01 440.24 666.90 430.15 Z" fill="#412d27" fill-rule="nonzero" node-id="151" stroke="none" target-height="181.98901" target-width="85.888" target-x="658.587" target-y="430.154"></path><path d="M 89.76 431.52 C 91.45 434.66 94.09 436.33 97.69 436.52 C 99.12 436.59 99.81 437.34 99.78 438.76 L 99.59 445.38 C 99.55 446.77 99.98 448.04 100.85 449.17 C 111.16 462.40 115.44 482.53 124.34 497.76 C 125.15 499.12 125.43 500.59 125.17 502.18 C 123.48 512.39 125.54 521.80 131.34 530.39 C 131.66 530.86 132.12 531.21 132.66 531.39 C 133.19 531.56 133.77 531.56 134.30 531.37 C 134.83 531.18 135.28 530.81 135.59 530.34 C 135.89 529.86 136.02 529.30 135.97 528.74 C 135.80 527.28 136.21 525.57 137.18 523.63 L 137.72 546.05 C 137.78 548.00 138.77 549.03 140.68 549.16 C 169.02 551.20 194.26 561.04 216.41 578.68 C 217.52 579.57 218.85 580.14 220.25 580.34 L 224.92 580.92 C 225.27 580.69 225.74 581.15 226.33 582.28 L 219.76 582.43 C 219.11 582.44 218.49 582.69 218.02 583.13 C 217.55 583.57 217.27 584.17 217.23 584.81 C 216.78 595.38 212.35 603.36 203.96 608.74 C 202.37 609.74 201.12 611.07 200.21 612.73 C 190.81 629.52 175.46 637.98 154.16 638.11 C 152.24 638.15 151.11 638.79 150.75 640.06 C 150.26 642.04 151.04 643.03 153.09 643.03 L 155.56 643.03 C 155.69 643.01 155.81 643.02 155.93 643.05 C 156.05 643.08 156.16 643.14 156.25 643.21 C 156.35 643.28 156.43 643.38 156.49 643.48 C 156.56 643.59 156.59 643.71 156.61 643.83 C 156.63 643.95 156.62 644.07 156.59 644.19 C 156.56 644.31 156.50 644.42 156.43 644.52 C 156.35 644.61 156.26 644.70 156.15 644.76 C 156.05 644.82 155.93 644.86 155.81 644.87 L 130.37 652.17 C 117.44 610.68 107.03 580.97 114.76 531.31 C 115.02 529.63 114.63 528.12 113.59 526.79 L 97.79 506.56 C 96.91 505.39 95.73 504.84 94.24 504.90 C 90.09 505.03 86.91 503.30 84.71 499.70 C 76.53 486.21 69.03 475.53 62.19 467.65 C 58.23 463.11 53.97 462.77 49.40 466.63 C 48.49 467.41 47.55 467.44 46.58 466.73 L 39.52 461.72 L 89.76 431.52 Z" fill="#fce3d3" fill-rule="nonzero" node-id="153" stroke="none" target-height="220.65302" target-width="186.8039" target-x="39.5241" target-y="431.516"></path><path d="M 712.47 437.74 L 724.97 444.26 C 724.20 444.42 723.56 444.65 723.08 444.94 C 721.68 445.78 721.65 446.66 722.98 447.56 C 747.85 464.59 763.95 487.75 771.27 517.06 C 771.49 517.90 771.89 518.67 772.44 519.33 C 773.00 519.99 773.70 520.51 774.48 520.86 C 777.14 522.02 779.26 521.86 780.85 520.37 L 789.41 555.63 L 782.26 595.12 C 781.97 596.77 781.05 597.94 779.49 598.62 C 770.15 602.80 766.15 602.48 767.48 597.65 C 778.99 573.24 777.40 544.48 762.71 511.37 C 752.27 487.83 738.90 469.97 722.59 457.78 C 712.80 450.52 709.43 443.84 712.47 437.74 Z" fill="#bda194" fill-rule="nonzero" node-id="155" stroke="none" target-height="165.064" target-width="79.987" target-x="709.426" target-y="437.741"></path><path d="M 724.58 513.27 C 719.49 501.79 712.75 496.36 704.35 496.98 C 702.63 478.76 694.72 461.69 680.62 445.77 C 690.02 450.01 697.90 456.95 704.25 466.58 C 705.20 467.98 706.41 469.08 707.90 469.89 L 712.52 472.32 C 713.98 473.13 715.07 474.28 715.78 475.77 C 721.42 487.90 724.36 500.40 724.58 513.27 Z" fill="#836b44" fill-rule="nonzero" node-id="157" stroke="none" target-height="67.50403" target-width="43.964966" target-x="680.619" target-y="445.766"></path><path d="M 724.97 444.26 C 752.30 462.74 770.93 488.11 780.85 520.37 C 779.26 521.86 777.14 522.02 774.48 520.86 C 773.70 520.51 773.00 519.99 772.44 519.33 C 771.88 518.67 771.49 517.90 771.27 517.06 C 763.95 487.75 747.85 464.59 722.98 447.56 C 721.65 446.66 721.68 445.78 723.08 444.94 C 723.56 444.65 724.20 444.42 724.97 444.26 Z" fill="#ccb4a7" fill-rule="nonzero" node-id="159" stroke="none" target-height="77.76599" target-width="59.203003" target-x="721.65" target-y="444.258"></path><path d="M 183.09 447.08 C 188.05 445.10 189.85 445.28 188.49 447.61 C 172.54 475.17 162.54 504.68 158.48 536.13 C 158.41 536.61 158.49 537.09 158.69 537.53 C 158.90 537.98 159.23 538.35 159.65 538.61 L 161.40 539.68 L 161.64 543.18 L 145.74 544.44 C 145.38 544.46 145.03 544.40 144.70 544.27 C 144.37 544.13 144.08 543.93 143.84 543.66 C 143.61 543.40 143.44 543.09 143.35 542.75 C 143.25 542.42 143.24 542.06 143.31 541.72 L 143.94 538.51 C 144.00 538.22 144.13 537.95 144.31 537.71 C 144.49 537.47 144.72 537.28 144.99 537.15 C 145.25 537.02 145.54 536.95 145.83 536.95 C 146.12 536.95 146.41 537.02 146.66 537.15 L 154.06 540.85 C 154.40 541.00 154.79 541.03 155.16 540.93 C 155.53 540.84 155.85 540.61 156.08 540.31 C 156.30 540.00 156.41 539.62 156.39 539.24 C 156.36 538.86 156.21 538.50 155.95 538.22 L 153.91 536.23 C 152.81 535.09 152.34 533.75 152.50 532.19 C 156.10 499.96 166.30 471.59 183.09 447.08 Z" fill="#d9c6b9" fill-rule="nonzero" node-id="161" stroke="none" target-height="99.362976" target-width="46.611008" target-x="143.241" target-y="445.101"></path><path d="M 221.56 446.40 L 222.29 471.44 C 216.07 513.90 219.81 564.53 268.49 577.71 C 268.53 577.97 268.56 578.21 268.59 578.44 C 252.87 576.92 239.69 570.01 229.05 557.72 C 205.27 528.30 210.13 479.42 221.56 446.40 Z" fill="#2e1e1b" fill-rule="nonzero" node-id="163" stroke="none" target-height="132.04199" target-width="63.322006" target-x="205.269" target-y="446.398"></path><path d="M 591.33 454.71 C 577.42 473.65 569.83 499.36 568.57 531.85 C 561.98 517.78 560.49 502.55 564.09 486.18 L 585.59 451.41 C 586.50 449.95 587.73 449.56 589.28 450.24 C 591.49 451.18 592.17 452.67 591.33 454.71 Z" fill="#bda194" fill-rule="nonzero" node-id="165" stroke="none" target-height="82.28903" target-width="31.677002" target-x="560.493" target-y="449.559"></path><path d="M 722.59 457.78 C 738.90 469.97 752.27 487.83 762.71 511.37 C 777.40 544.48 778.99 573.24 767.48 597.65 L 745.06 611.46 C 740.49 612.24 736.00 611.85 731.59 610.29 C 732.33 608.74 731.96 607.44 730.47 606.40 C 729.24 605.56 727.89 605.33 726.43 605.72 C 717.00 608.28 707.37 608.43 697.54 606.16 C 744.48 573.92 740.29 509.91 715.98 465.80 C 716.17 460.91 718.38 458.23 722.59 457.78 Z" fill="#fdfaee" fill-rule="nonzero" node-id="167" stroke="none" target-height="154.46198" target-width="81.445984" target-x="697.543" target-y="457.778"></path><path d="M 39.52 461.72 L 46.58 466.73 C 47.55 467.44 48.49 467.41 49.40 466.63 C 53.97 462.77 58.23 463.11 62.19 467.65 C 69.03 475.53 76.53 486.21 84.70 499.70 C 86.91 503.30 90.09 505.03 94.24 504.90 C 95.73 504.84 96.91 505.39 97.79 506.56 L 113.59 526.79 C 114.63 528.12 115.02 529.63 114.76 531.31 C 107.03 580.97 117.44 610.68 130.37 652.17 L 142.38 680.96 L 153.96 704.01 L 131.93 700.71 C 130.37 700.48 128.87 700.66 127.41 701.24 L 115.98 705.96 C 63.06 679.83 30.95 639.35 19.63 584.52 C 12.48 549.75 7.91 483.55 39.52 461.72 Z" fill="#d9c6b9" fill-rule="nonzero" node-id="169" stroke="none" target-height="244.24002" target-width="146.0482" target-x="7.9118" target-y="461.718"></path><path d="M 247.24 468.53 C 248.12 536.81 314.01 558.79 355.99 506.02 C 358.35 506.61 359.94 507.66 360.75 509.19 C 348.20 557.37 317.45 580.21 268.49 577.71 C 219.81 564.53 216.07 513.90 222.29 471.44 L 247.24 468.53 Z" fill="#fac759" fill-rule="nonzero" node-id="171" stroke="none" target-height="111.68097" target-width="144.68602" target-x="216.066" target-y="468.526"></path><path d="M 774.48 466.29 C 802.69 505.91 810.52 548.69 797.97 594.63 C 788.50 601.54 778.24 605.01 767.19 605.04 C 765.66 605.04 764.19 605.27 762.76 605.72 L 745.06 611.46 L 767.48 597.65 C 766.15 602.48 770.15 602.80 779.49 598.62 C 781.05 597.94 781.97 596.77 782.26 595.12 L 789.41 555.63 C 794.24 549.47 796.01 542.56 794.71 534.91 C 791.05 513.35 784.31 490.48 774.48 466.29 Z" fill="#2e1e1b" fill-rule="nonzero" node-id="173" stroke="none" target-height="145.17297" target-width="65.461" target-x="745.059" target-y="466.289"></path><path d="M 369.85 493.43 C 360.46 544.35 324.67 587.58 268.59 578.44 C 268.56 578.21 268.53 577.97 268.49 577.71 C 317.45 580.21 348.20 557.37 360.75 509.19 L 366.00 492.26 C 366.49 490.77 367.25 490.61 368.29 491.77 C 368.71 492.23 369.23 492.78 369.85 493.43 Z" fill="#170f0a" fill-rule="nonzero" node-id="175" stroke="none" target-height="96.97702" target-width="101.35397" target-x="268.493" target-y="490.606"></path><path d="M 415.56 505.58 C 410.83 506.40 410.65 505.78 415.03 503.74 L 435.41 494.25 C 435.70 494.08 436.04 494.03 436.37 494.11 C 436.70 494.19 436.98 494.40 437.16 494.69 C 437.33 494.98 437.38 495.33 437.30 495.66 C 437.22 495.99 437.01 496.27 436.72 496.44 C 430.56 501.18 423.51 504.22 415.56 505.58 Z" fill="#170f0a" fill-rule="nonzero" node-id="177" stroke="none" target-height="12.367981" target-width="26.730988" target-x="410.651" target-y="494.028"></path><path d="M 704.35 496.98 C 712.75 496.36 719.49 501.79 724.58 513.27 C 731.93 560.59 709.70 606.11 658.59 612.14 L 656.35 613.26 C 616.70 611.09 589.06 592.46 573.43 557.38 C 571.65 543.18 573.27 530.78 578.29 520.18 C 578.47 519.82 578.75 519.52 579.10 519.32 C 579.44 519.12 579.84 519.03 580.24 519.07 C 580.64 519.10 581.02 519.25 581.33 519.50 C 581.64 519.75 581.87 520.09 581.99 520.47 C 596.34 569.10 656.30 586.76 687.33 542.55 C 695.57 530.81 701.24 515.62 704.35 496.98 Z" fill="#fac759" fill-rule="nonzero" node-id="179" stroke="none" target-height="116.90103" target-width="160.28198" target-x="571.646" target-y="496.361"></path><path d="M 503.01 504.90 C 502.62 504.19 502.80 503.98 503.54 504.27 L 511.47 507.05 C 511.88 507.18 512.23 507.46 512.44 507.84 C 512.66 508.21 512.73 508.65 512.63 509.07 C 512.54 509.50 512.30 509.87 511.95 510.12 C 511.60 510.38 511.17 510.49 510.74 510.45 C 507.63 510.22 505.05 508.37 503.01 504.90 Z" fill="#2e1e1b" fill-rule="nonzero" node-id="181" stroke="none" target-height="6.5130005" target-width="10.106964" target-x="502.618" target-y="503.981"></path><path d="M 467.21 583.06 C 469.03 584.94 468.25 584.63 464.88 582.14 C 482.84 577.76 498.63 571.31 512.25 562.78 C 531.02 532.43 446.59 533.06 433.46 535.01 C 419.32 538.45 410.55 543.94 407.15 551.50 C 406.24 547.05 407.59 543.91 411.19 542.06 C 442.05 526.30 474.00 525.61 507.04 539.97 C 517.06 544.32 519.91 551.67 515.60 562.05 C 515.00 563.50 513.95 564.73 512.59 565.55 C 499.04 573.66 483.91 579.49 467.21 583.06 Z" fill="#4e423d" fill-rule="nonzero" node-id="183" stroke="none" target-height="59.333008" target-width="124.77902" target-x="406.241" target-y="525.607"></path><path d="M 512.25 562.78 C 507.42 558.40 499.65 557.25 488.95 559.33 L 445.18 550.91 C 439.96 546.60 436.05 541.30 433.46 535.01 C 446.59 533.06 531.02 532.43 512.25 562.78 Z" fill="#fcd9c8" fill-rule="nonzero" node-id="185" stroke="none" target-height="30.346985" target-width="97.56003" target-x="433.46" target-y="532.432"></path><path d="M 433.46 535.01 C 436.05 541.30 439.96 546.60 445.18 550.91 C 445.57 553.54 448.26 555.78 453.25 557.62 C 453.03 562.52 453.94 565.29 455.98 565.94 C 458.30 566.68 460.78 566.74 463.12 566.10 C 465.47 565.46 467.58 564.15 469.21 562.34 C 469.73 561.79 469.43 560.23 468.33 557.67 C 477.73 563.90 484.61 564.45 488.95 559.33 C 499.65 557.25 507.42 558.40 512.25 562.78 C 498.63 571.31 482.84 577.76 464.88 582.14 C 462.09 584.73 457.32 585.07 450.58 583.16 C 434.17 575.60 419.70 565.05 407.15 551.50 C 410.55 543.94 419.32 538.45 433.46 535.01 Z" fill="#fba2b7" fill-rule="nonzero" node-id="187" stroke="none" target-height="50.061035" target-width="105.09802" target-x="407.149" target-y="535.009"></path><path d="M 445.18 550.91 L 488.95 559.33 C 484.61 564.45 477.73 563.90 468.33 557.67 L 453.25 557.62 C 448.26 555.78 445.57 553.54 445.18 550.91 Z" fill="#c6626b" fill-rule="nonzero" node-id="189" stroke="none" target-height="13.53595" target-width="43.770996" target-x="445.181" target-y="550.913"></path><path d="M 468.33 557.67 C 469.43 560.23 469.73 561.79 469.21 562.34 C 467.58 564.15 465.47 565.46 463.12 566.10 C 460.78 566.74 458.30 566.68 455.98 565.94 C 453.94 565.29 453.03 562.52 453.25 557.62 L 468.33 557.67 Z" fill="#fcd9c8" fill-rule="nonzero" node-id="191" stroke="none" target-height="9.112976" target-width="16.697998" target-x="453.027" target-y="557.624"></path><path d="M 952.63 618.22 L 944.22 628.58 L 955.16 582.28 C 955.61 580.37 956.59 580.04 958.08 581.31 L 976.56 597.16 C 976.92 597.47 977.21 597.86 977.38 598.30 C 977.54 598.75 977.59 599.23 977.52 599.70 C 977.45 600.18 977.25 600.63 976.96 601.01 C 976.66 601.39 976.27 601.69 975.83 601.88 C 966.07 606.10 958.34 611.54 952.63 618.22 Z" fill="#fbf1e1" fill-rule="nonzero" node-id="193" stroke="none" target-height="48.536987" target-width="33.377014" target-x="944.216" target-y="580.044"></path><path d="M 226.33 582.28 C 232.16 584.75 233.72 589.71 231.00 597.16 C 230.46 598.72 230.43 600.38 230.90 601.93 C 234.21 613.02 230.54 621.04 219.91 626.00 C 218.55 626.65 217.54 627.67 216.89 629.07 C 208.48 647.11 170.59 664.91 142.38 680.96 L 130.37 652.17 L 155.81 644.87 C 155.93 644.86 156.05 644.82 156.15 644.76 C 156.26 644.70 156.35 644.61 156.43 644.52 C 156.50 644.42 156.56 644.31 156.59 644.19 C 156.62 644.07 156.63 643.95 156.61 643.83 C 156.59 643.71 156.56 643.59 156.49 643.48 C 156.43 643.38 156.35 643.28 156.25 643.21 C 156.16 643.14 156.05 643.08 155.93 643.05 C 155.81 643.02 155.69 643.01 155.56 643.03 L 153.08 643.03 C 151.04 643.03 150.26 642.04 150.75 640.06 C 151.11 638.79 152.24 638.15 154.15 638.11 C 175.46 637.98 190.81 629.52 200.21 612.73 C 201.12 611.07 202.37 609.74 203.96 608.74 C 212.35 603.36 216.78 595.38 217.23 584.81 C 217.27 584.17 217.55 583.57 218.02 583.13 C 218.49 582.69 219.11 582.44 219.76 582.43 L 226.33 582.28 Z" fill="#fbf1e1" fill-rule="nonzero" node-id="195" stroke="none" target-height="98.67804" target-width="103.834" target-x="130.372" target-y="582.282"></path><path d="M 450.58 583.16 C 457.32 585.07 462.09 584.73 464.88 582.14 C 468.25 584.63 469.03 584.94 467.21 583.06 C 470.42 620.18 486.20 648.63 514.53 668.41 C 515.38 669.03 515.21 669.74 514.05 670.55 C 513.11 671.23 512.18 671.23 511.27 670.55 L 482.73 649.64 C 483.02 647.63 482.66 645.75 481.66 644.00 C 481.04 642.96 479.52 642.72 477.08 643.27 L 465.02 603.44 C 464.88 602.99 464.63 602.60 464.28 602.29 C 463.93 601.99 463.50 601.78 463.05 601.70 C 462.59 601.62 462.12 601.67 461.69 601.84 C 461.26 602.00 460.88 602.29 460.60 602.66 L 434.38 636.70 L 427.43 641.08 C 425.45 641.50 424.56 642.04 424.75 642.68 C 412.79 648.98 400.55 653.48 388.04 656.21 C 386.77 656.50 385.85 656.40 385.26 655.91 C 384.84 655.59 384.57 655.15 384.44 654.60 C 384.11 653.43 384.52 652.69 385.65 652.36 C 419.08 641.96 440.72 618.89 450.58 583.16 Z" fill="#170f0a" fill-rule="nonzero" node-id="197" stroke="none" target-height="89.096985" target-width="131.26297" target-x="384.113" target-y="582.136"></path><path d="M 797.97 594.63 C 800.34 596.00 801.22 598.41 800.60 601.88 C 800.27 603.53 800.78 604.90 802.11 605.97 L 809.55 612.09 C 810.65 613.00 811.91 613.34 813.34 613.12 L 872.63 603.68 C 873.73 603.52 874.25 603.99 874.18 605.09 C 874.15 605.67 874.13 606.23 874.13 606.75 C 874.17 607.52 873.78 607.98 872.97 608.11 L 845.05 612.29 C 843.53 612.52 842.68 613.39 842.52 614.91 L 841.70 623.23 C 841.60 624.13 841.20 624.98 840.56 625.61 C 839.92 626.25 839.09 626.65 838.19 626.73 L 824.87 628.05 C 823.28 628.18 822.70 629.02 823.12 630.58 C 825.55 639.96 831.00 645.65 841.40 645.94 C 866.21 646.59 890.46 648.28 914.16 651.00 C 914.87 651.10 915.53 651.41 916.04 651.91 C 916.55 652.41 916.89 653.07 917.00 653.77 C 917.11 654.48 916.99 655.20 916.65 655.84 C 916.31 656.47 915.78 656.97 915.13 657.27 C 910.20 659.54 906.38 659.14 903.65 656.06 L 799.92 650.37 C 799.06 650.32 798.21 650.54 797.48 651.00 C 796.75 651.46 796.18 652.12 795.84 652.92 C 795.51 653.71 795.42 654.59 795.61 655.43 C 795.79 656.27 796.22 657.03 796.85 657.62 L 801.48 661.85 C 801.73 662.09 801.91 662.39 802.02 662.73 C 802.12 663.06 802.14 663.42 802.08 663.76 C 802.01 664.10 801.86 664.42 801.63 664.69 C 801.41 664.96 801.12 665.17 800.79 665.30 C 787.61 670.16 779.39 677.31 765.24 677.75 C 735.77 678.58 726.72 676.44 702.21 660.34 C 689.91 652.22 683.20 630.53 693.17 618.61 C 693.43 618.29 693.49 617.91 693.36 617.49 C 693.23 617.10 693.10 616.72 692.97 616.33 C 692.81 615.74 692.99 615.35 693.51 615.16 C 705.92 610.36 718.62 608.74 731.59 610.29 C 736.00 611.85 740.49 612.24 745.06 611.46 L 762.76 605.72 C 764.19 605.27 765.66 605.04 767.19 605.04 C 778.24 605.01 788.50 601.54 797.97 594.63 Z" fill="#fcd9c8" fill-rule="nonzero" node-id="199" stroke="none" target-height="83.94202" target-width="233.91101" target-x="683.196" target-y="594.635"></path><path d="M 986.82 606.45 C 986.17 606.42 985.52 606.37 984.87 606.31 L 982.93 600.08 C 982.41 598.43 982.96 597.94 984.58 598.62 C 985.49 599.04 986.14 599.81 986.53 600.91 C 987.37 603.27 987.47 605.12 986.82 606.45 Z" fill="#9b6364" fill-rule="nonzero" node-id="201" stroke="none" target-height="8.510986" target-width="5.0579834" target-x="982.409" target-y="597.942"></path><path d="M 477.08 643.27 C 477.80 643.56 478.53 643.85 479.27 644.14 L 434.38 636.70 L 460.60 602.66 C 460.88 602.29 461.26 602.01 461.69 601.84 C 462.12 601.67 462.59 601.62 463.05 601.70 C 463.50 601.78 463.93 601.99 464.28 602.29 C 464.63 602.60 464.88 603.00 465.02 603.44 L 477.08 643.27 Z" fill="#d57784" fill-rule="nonzero" node-id="203" stroke="none" target-height="42.52301" target-width="44.889008" target-x="434.384" target-y="601.621"></path><path d="M 697.54 606.16 C 707.37 608.43 717.00 608.28 726.43 605.72 C 727.89 605.33 729.24 605.56 730.47 606.40 C 731.96 607.44 732.33 608.74 731.59 610.29 C 718.62 608.74 705.92 610.36 693.51 615.16 C 692.99 615.35 692.81 615.74 692.97 616.33 C 693.10 616.72 693.23 617.10 693.36 617.49 C 693.49 617.91 693.43 618.29 693.17 618.61 C 683.20 630.53 689.91 652.22 702.21 660.34 C 726.72 676.44 735.77 678.58 765.24 677.75 C 779.39 677.31 787.61 670.16 800.79 665.30 C 801.12 665.17 801.41 664.96 801.63 664.69 C 801.86 664.42 802.01 664.10 802.08 663.76 C 802.14 663.42 802.12 663.06 802.02 662.73 C 801.91 662.39 801.73 662.09 801.47 661.85 L 796.85 657.62 C 796.22 657.03 795.79 656.27 795.61 655.43 C 795.42 654.59 795.51 653.71 795.84 652.92 C 796.18 652.12 796.75 651.46 797.48 651.00 C 798.21 650.54 799.06 650.32 799.92 650.37 L 903.65 656.06 C 890.75 660.47 885.24 668.14 887.12 679.06 C 887.48 681.17 886.62 682.52 884.54 683.10 L 874.72 685.87 C 874.13 686.04 873.60 686.38 873.19 686.84 C 872.79 687.29 872.52 687.86 872.41 688.46 C 872.31 689.07 872.38 689.69 872.62 690.25 C 872.86 690.82 873.25 691.31 873.75 691.66 L 878.56 695.11 C 879.92 696.09 880.00 697.14 878.80 698.27 C 873.91 702.91 869.95 703.24 866.94 699.25 C 866.12 698.18 865.15 697.98 864.02 698.66 L 855.55 703.82 C 854.23 704.63 852.78 705.15 851.23 705.38 C 841.76 706.77 824.30 709.91 798.85 714.81 C 746.57 724.83 652.70 705.38 655.57 634.27 C 655.67 632.39 656.35 630.77 657.62 629.41 L 666.22 619.97 C 668.27 617.74 667.78 616.59 664.76 616.52 C 659.48 616.36 656.67 615.27 656.35 613.26 L 658.59 612.14 L 697.54 606.16 Z" fill="#fcecdc" fill-rule="nonzero" node-id="205" stroke="none" target-height="119.49402" target-width="250.95203" target-x="652.703" target-y="605.334"></path><path d="M 434.38 636.70 L 479.27 644.14 C 475.12 658.44 466.48 666.21 453.35 667.44 C 451.76 667.60 450.29 667.25 448.93 666.37 C 438.68 659.92 431.51 651.49 427.43 641.08 L 434.38 636.70 Z" fill="#fba2b7" fill-rule="nonzero" node-id="207" stroke="none" target-height="30.898987" target-width="51.843994" target-x="427.43" target-y="636.703"></path><path d="M 427.43 641.08 C 431.51 651.49 438.68 659.92 448.93 666.37 C 450.29 667.25 451.76 667.60 453.35 667.44 C 466.48 666.21 475.12 658.44 479.27 644.14 C 478.53 643.85 477.80 643.56 477.08 643.27 C 479.52 642.72 481.04 642.96 481.66 644.00 C 482.66 645.75 483.02 647.63 482.73 649.64 C 478.12 652.07 474.99 655.72 473.34 660.58 C 472.82 662.17 471.88 663.44 470.52 664.38 C 449.22 679.55 434.24 660.58 424.75 642.68 C 424.56 642.04 425.45 641.50 427.43 641.08 Z" fill="#2e1e1b" fill-rule="nonzero" node-id="209" stroke="none" target-height="38.46997" target-width="58.458008" target-x="424.56" target-y="641.08"></path><path d="M 944.75 676.97 C 946.73 699.64 945.04 722.38 939.69 745.21 C 939.30 746.92 939.98 747.93 941.74 748.22 C 954.96 750.26 971.84 749.53 982.54 757.51 C 984.03 758.61 984.18 759.86 982.98 761.25 C 977.40 767.67 975.03 774.30 975.88 781.15 C 931.38 834.64 881.91 854.88 817.13 876.96 C 815.35 877.54 814.87 876.99 815.67 875.30 C 827.69 850.40 826.42 825.65 847.92 806.24 C 871.36 785.04 890.36 760.43 904.92 732.41 C 915.52 711.89 933.32 698.13 944.75 676.97 Z" fill="#cec3b9" fill-rule="nonzero" node-id="211" stroke="none" target-height="200.56702" target-width="169.31104" target-x="814.865" target-y="676.972"></path><path d="M 153.96 704.01 C 237.47 824.38 371.89 898.89 515.16 920.53 C 508.45 919.37 502.83 919.93 498.29 922.23 C 377.58 920.14 220.10 870.29 131.20 785.04 L 72.40 719.53 C 71.23 718.20 71.27 716.92 72.50 715.68 C 73.15 715.04 74.04 714.60 75.17 714.37 C 90.28 715.96 103.88 713.16 115.98 705.96 L 127.41 701.24 C 128.87 700.66 130.37 700.48 131.93 700.71 L 153.96 704.01 Z" fill="#cec3b9" fill-rule="nonzero" node-id="213" stroke="none" target-height="221.755" target-width="443.93158" target-x="71.2334" target-y="700.479"></path><path d="M 75.17 714.37 C 74.04 714.60 73.15 715.04 72.50 715.68 C 71.27 716.92 71.23 718.20 72.40 719.53 L 131.20 785.04 C 129.12 784.81 126.92 785.99 124.58 788.59 C 124.06 789.16 123.32 789.51 122.54 789.55 C 121.76 789.60 121.00 789.34 120.40 788.83 C 94.92 766.49 73.26 740.88 55.43 711.99 C 54.58 710.63 54.94 710.11 56.50 710.43 L 75.17 714.37 Z" fill="#4e423d" fill-rule="nonzero" node-id="215" stroke="none" target-height="79.49103" target-width="76.61481" target-x="54.5842" target-y="710.108"></path><path d="M 682.56 964.50 L 693.60 960.95 L 710.87 958.76 C 712.39 958.56 713.79 958.04 715.05 957.20 C 731.68 946.21 745.59 943.05 748.56 920.43 C 750.46 905.89 738.93 899.47 726.43 898.36 C 726.00 898.33 725.59 898.17 725.25 897.91 C 724.91 897.64 724.65 897.29 724.50 896.88 C 724.36 896.47 724.34 896.02 724.44 895.59 C 724.54 895.16 724.76 894.77 725.07 894.46 L 750.85 869.47 C 774.58 860.68 796.89 847.74 817.77 830.66 C 818.00 830.47 818.28 830.37 818.58 830.36 C 818.87 830.34 819.16 830.42 819.41 830.58 C 819.65 830.75 819.85 830.98 819.95 831.25 C 820.06 831.53 820.08 831.83 820.00 832.12 C 806.58 883.33 749.24 982.54 682.56 964.50 Z" fill="#cec3b9" fill-rule="nonzero" node-id="217" stroke="none" target-height="152.19598" target-width="137.513" target-x="682.564" target-y="830.344"></path><path d="M 330.40 933.42 L 333.32 961.82 C 333.43 962.77 333.20 963.72 332.68 964.51 C 332.15 965.30 331.36 965.88 330.45 966.15 C 320.66 968.94 311.52 968.03 303.02 963.43 C 302.32 963.03 301.71 962.49 301.23 961.83 C 300.75 961.18 300.42 960.43 300.25 959.63 C 298.11 948.97 293.75 939.35 287.17 930.79 C 286.81 930.28 286.29 929.92 285.68 929.77 C 285.07 929.63 284.44 929.71 283.89 930.01 C 283.34 930.30 282.92 930.79 282.71 931.37 C 282.50 931.96 282.51 932.60 282.74 933.18 L 292.71 961.53 C 295.24 968.70 293.02 970.77 286.05 967.76 C 227.45 942.47 216.70 900.88 189.75 850.16 C 189.61 849.87 189.56 849.54 189.61 849.22 C 189.67 848.90 189.82 848.61 190.06 848.38 C 190.29 848.16 190.59 848.02 190.91 847.98 C 191.24 847.94 191.56 848.00 191.85 848.16 C 260.19 888.95 333.61 915.83 412.11 928.80 C 414.15 929.16 414.70 930.26 413.76 932.11 C 406.63 946.11 395.07 954.69 379.09 957.83 C 377.24 958.19 376.06 957.46 375.54 955.65 C 373.30 947.86 370.96 940.12 368.53 932.40 C 367.59 929.38 365.86 927.28 363.33 926.08 C 361.97 925.43 361.40 925.85 361.63 927.34 L 366.44 959.78 C 366.77 961.82 365.92 963.10 363.91 963.62 L 352.97 966.39 C 352.26 966.58 351.51 966.60 350.79 966.45 C 350.06 966.31 349.38 966.01 348.79 965.57 C 336.39 956.72 341.01 944.17 330.75 933.23 C 330.45 932.97 330.34 933.03 330.40 933.42 Z" fill="#cec3b9" fill-rule="nonzero" node-id="219" stroke="none" target-height="122.833984" target-width="225.146" target-x="189.557" target-y="847.937"></path><path d="M 187.03 858.52 C 194.36 886.08 206.73 911.36 224.14 934.34 C 269.95 994.85 341.25 983.03 403.79 958.03 C 416.89 952.81 423.13 944.49 422.52 933.08 C 422.42 931.33 423.25 930.57 425.00 930.79 C 477.91 937.99 530.89 937.70 583.93 929.92 C 585.75 929.66 586.80 930.44 587.10 932.25 C 592.15 964.11 620.60 966.54 650.42 971.35 C 662.90 973.37 686.92 973.75 722.49 972.52 C 731.80 976.02 737.29 982.43 738.98 991.73 C 565.49 1011.12 392.09 1009.22 218.79 986.04 C 170.20 979.52 78.72 963.87 44.97 926.08 C 43.97 924.98 43.40 923.54 43.37 922.04 C 43.04 910.50 48.42 901.66 59.51 895.53 C 98.03 874.23 140.54 861.89 187.03 858.52 Z" fill="#b4aaa6" fill-rule="nonzero" node-id="221" stroke="none" target-height="152.59698" target-width="695.9383" target-x="43.0417" target-y="858.523"></path><path d="M 883.03 868.20 C 909.82 869.47 934.03 877.46 955.69 892.18 C 1020.86 936.53 869.56 971.06 850.11 974.13 C 847.61 964.72 847.92 951.66 851.03 934.93 C 853.01 924.29 852.74 910.12 850.21 892.42 C 850.10 891.70 849.83 891.01 849.40 890.41 C 848.98 889.81 848.42 889.32 847.77 888.97 C 844.63 887.28 842.80 884.66 842.28 881.09 L 883.03 868.20 Z" fill="#cec3b9" fill-rule="nonzero" node-id="223" stroke="none" target-height="105.92499" target-width="178.58197" target-x="842.278" target-y="868.201"></path><path d="M 604.99 918.54 L 601.98 933.61 C 599.16 935.98 597.53 934.88 597.11 930.31 C 596.58 924.47 603.10 910.22 604.65 903.41 C 617.95 886.88 634.34 879.03 653.82 879.87 C 656.71 880.00 658.73 881.17 659.90 883.38 C 660.55 884.64 660.18 885.19 658.78 885.03 C 635.08 882.57 617.15 893.73 604.99 918.54 Z" fill="#412d27" fill-rule="nonzero" node-id="225" stroke="none" target-height="56.950012" target-width="63.97003" target-x="596.579" target-y="879.031"></path><path d="M 842.28 881.09 C 842.80 884.66 844.63 887.28 847.77 888.97 C 848.42 889.32 848.98 889.81 849.40 890.41 C 849.83 891.01 850.10 891.70 850.21 892.42 C 852.74 910.12 853.01 924.29 851.03 934.93 C 847.92 951.66 847.61 964.72 850.11 974.13 C 813.34 983.04 776.30 988.91 738.98 991.73 C 737.29 982.43 731.80 976.02 722.49 972.52 C 760.26 954.40 789.22 926.60 809.35 889.11 C 809.70 888.45 810.20 887.87 810.81 887.42 C 811.41 886.98 812.11 886.67 812.86 886.54 L 842.28 881.09 Z" fill="#bdb3b0" fill-rule="nonzero" node-id="227" stroke="none" target-height="110.64197" target-width="130.518" target-x="722.493" target-y="881.09"></path><path d="M 604.65 903.41 C 603.10 910.22 596.58 924.47 597.11 930.31 C 597.54 934.88 599.16 935.98 601.98 933.61 C 610.73 943.11 622.11 949.71 636.12 953.41 C 637.29 955.19 637.97 957.48 638.16 960.27 C 638.26 961.95 637.48 962.68 635.83 962.45 C 610.93 959.05 585.88 944.41 590.79 915.91 C 593.13 907.87 597.75 903.71 604.65 903.41 Z" fill="#bda194" fill-rule="nonzero" node-id="229" stroke="none" target-height="59.268005" target-width="52.37799" target-x="585.88" target-y="903.413"></path><path d="M 604.99 918.54 L 638.31 940.28 C 635.81 942.90 635.08 947.28 636.12 953.41 C 622.11 949.71 610.73 943.11 601.98 933.61 L 604.99 918.54 Z" fill="#d7cab8" fill-rule="nonzero" node-id="231" stroke="none" target-height="34.87097" target-width="36.32898" target-x="601.978" target-y="918.538"></path><path d="M 515.16 920.53 L 539.14 920.58 C 525.17 925.80 511.55 926.35 498.29 922.23 C 502.83 919.93 508.45 919.36 515.16 920.53 Z" fill="#715337" fill-rule="nonzero" node-id="233" stroke="none" target-height="6.9869995" target-width="40.853027" target-x="498.289" target-y="919.364"></path><path d="M 694.53 932.74 L 674.20 959.49 C 673.29 959.46 672.53 959.39 671.91 959.29 C 670.10 958.97 669.76 958.09 670.89 956.67 C 676.92 949.11 680.83 940.25 682.61 930.06 L 694.53 932.74 Z" fill="#d7cab8" fill-rule="nonzero" node-id="235" stroke="none" target-height="29.42395" target-width="24.770996" target-x="669.757" target-y="930.064"></path><path d="M 682.61 930.06 C 680.83 940.25 676.92 949.11 670.89 956.67 C 669.76 958.09 670.10 958.97 671.91 959.29 C 672.53 959.39 673.29 959.46 674.20 959.49 L 669.77 963.67 L 651.83 964.40 C 650.04 964.47 648.81 963.69 648.13 962.07 C 645.99 957.14 645.86 951.61 647.74 945.48 L 648.03 948.98 C 648.11 950.05 648.56 951.06 649.32 951.82 C 650.08 952.58 651.09 953.03 652.16 953.11 C 653.23 953.18 654.28 952.86 655.14 952.21 C 655.99 951.56 656.58 950.62 656.79 949.57 C 658.12 943.47 661.73 941.01 667.63 942.17 C 669.12 942.47 670.42 942.06 671.52 940.96 L 682.61 930.06 Z" fill="#cec3b9" fill-rule="nonzero" node-id="237" stroke="none" target-height="34.401" target-width="36.750977" target-x="645.862" target-y="930.064"></path><path d="M 694.53 932.74 C 698.29 934.23 700.28 936.66 700.51 940.03 C 700.80 945.14 694.82 953.75 693.60 960.95 L 682.56 964.50 C 680.59 968.06 676.32 967.79 669.77 963.67 L 674.20 959.49 L 694.53 932.74 Z" fill="#4e423d" fill-rule="nonzero" node-id="239" stroke="none" target-height="35.325012" target-width="31.028992" target-x="669.773" target-y="932.739"></path></g></svg>