<?xml version="1.0" standalone="no"?><!DOCTYPE svg PUBLIC "-//W3C//DTD SVG 1.1//EN" "http://www.w3.org/Graphics/SVG/1.1/DTD/svg11.dtd"><svg height="1024" node-id="1" sillyvg="true" template-height="1024" template-width="1024" version="1.1" viewBox="0 0 1024 1024" width="1024" xmlns="http://www.w3.org/2000/svg" xmlns:xlink="http://www.w3.org/1999/xlink"><defs node-id="75"><clipPath id="clip0_2_4805" node-id="72"><path d="M 0.00 0.00 L 1024.00 0.00 L 1024.00 1024.00 L 0.00 1024.00 Z" fill="#000000" fill-rule="nonzero" node-id="78" stroke="none" target-height="1024" target-width="1024" target-x="0" target-y="0"></path></clipPath></defs><g clip-path="url(#clip0_2_4805)" id="sillyvg_g_0" node-id="82"><path d="M 0.00 0.00 L 1024.00 0.00 L 1024.00 1024.00 L 0.00 1024.00 Z" fill="#ffffff" fill-rule="nonzero" node-id="84" stroke="none" target-height="1024" target-width="1024" target-x="0" target-y="0"></path><path d="M 0.00 0.00 L 1024.00 0.00 L 1024.00 1024.00 L 0.00 1024.00 Z" fill="#ffffff" fill-rule="nonzero" node-id="86" stroke="none" target-height="1024" target-width="1024" target-x="0" target-y="0"></path><path d="M 807.81 867.84 L 791.93 874.85 C 790.25 875.63 789.22 876.93 788.83 878.75 C 783.91 903.13 775.50 926.50 763.59 948.86 L 753.91 961.80 C 748.60 962.40 745.03 961.23 743.21 958.27 C 755.62 934.63 764.66 909.53 770.33 882.97 C 770.61 881.65 770.15 881.28 768.94 881.85 C 752.86 889.59 735.91 894.56 718.08 896.77 C 714.66 897.20 714.16 896.18 716.58 893.72 L 719.58 890.67 C 869.95 834.79 987.06 722.17 1005.08 558.27 C 1009.63 516.66 1001.34 484.90 981.29 449.87 C 971.34 432.33 957.65 415.72 940.22 400.04 C 940.06 399.89 939.96 399.71 939.91 399.50 C 939.87 399.30 939.88 399.08 939.97 398.89 C 940.05 398.69 940.19 398.53 940.37 398.42 C 940.55 398.31 940.76 398.26 940.97 398.27 C 942.57 398.34 943.25 399.13 943.00 400.62 C 957.44 412.50 971.41 425.72 984.92 440.30 L 1006.58 486.99 C 1006.71 487.24 1006.92 487.44 1007.17 487.57 C 1007.43 487.69 1007.72 487.72 1007.99 487.66 C 1008.27 487.60 1008.50 487.44 1008.66 487.22 C 1008.83 487.00 1008.90 486.73 1008.88 486.45 C 1006.88 434.65 997.13 384.76 979.63 336.77 C 958.67 272.82 924.66 219.39 877.60 176.51 C 877.60 175.22 878.15 174.10 879.26 173.14 L 890.75 181.59 C 912.14 202.44 930.93 225.42 947.12 250.52 C 947.30 250.79 947.57 250.98 947.88 251.07 C 948.18 251.17 948.52 251.15 948.82 251.02 C 949.11 250.90 949.36 250.67 949.51 250.38 C 949.65 250.09 949.70 249.76 949.63 249.45 C 947.42 239.57 946.63 229.31 947.28 218.65 C 949.20 187.47 947.54 89.56 924.76 67.10 C 878.35 28.01 749.52 63.78 694.55 80.41 C 703.82 72.68 713.32 67.49 723.05 64.85 C 723.57 64.71 724.04 64.41 724.38 63.99 C 724.73 63.57 724.93 63.06 724.97 62.52 C 725.01 61.98 724.89 61.45 724.61 60.98 C 724.33 60.52 723.92 60.15 723.43 59.93 C 589.42 0.95 434.93 3.73 302.90 64.58 L 302.63 60.68 C 302.52 59.36 301.81 58.56 300.49 58.27 C 299.85 58.13 299.17 57.97 298.46 57.79 C 435.03 -11.89 601.24 -10.12 738.03 56.24 C 739.67 57.02 741.34 57.13 743.05 56.56 C 789.15 41.43 919.15 12.98 941.66 77.26 C 962.16 135.58 967.33 196.99 957.17 261.48 C 956.88 263.26 957.19 264.92 958.08 266.45 C 1006.31 350.87 1028.08 440.71 1023.37 535.97 C 1015.89 688.05 938.88 795.33 807.81 867.84 Z" fill="#412d27" fill-rule="nonzero" node-id="88" stroke="none" target-height="974.28955" target-width="729.6229" target-x="298.457" target-y="-11.8876"></path><path d="M 694.55 80.41 C 687.10 80.95 678.78 81.36 669.58 81.64 C 658.35 81.96 643.16 93.78 630.92 97.20 C 421.24 155.38 248.56 244.58 96.53 402.28 C 95.80 403.02 94.83 403.48 93.80 403.57 C 92.77 403.66 91.75 403.37 90.92 402.76 L 80.65 395.17 C 79.19 394.06 77.75 394.08 76.32 395.22 L 56.91 410.68 C 59.83 402.48 63.99 395.90 69.37 390.94 C 69.47 390.85 69.53 390.72 69.54 390.58 C 69.56 390.45 69.52 390.31 69.45 390.20 C 69.37 390.08 69.26 390.00 69.13 389.96 C 68.99 389.92 68.85 389.93 68.73 389.98 C 67.98 390.27 67.32 390.48 66.75 390.62 C 66.14 390.77 65.55 391.18 64.98 391.85 C 45.91 415.03 30.10 440.48 17.55 468.22 C 13.31 466.68 12.27 465.99 14.45 466.13 C 23.43 391.12 47.21 322.16 85.79 259.23 C 115.30 215.85 150.90 179.04 192.58 148.81 C 200.28 143.25 205.09 134.90 210.97 127.52 C 212.58 125.56 213.81 125.76 214.66 128.11 L 216.21 132.34 C 216.82 133.91 217.78 134.19 219.10 133.19 C 220.92 131.84 221.74 129.79 221.56 127.04 C 220.06 104.10 125.36 62.66 105.68 55.87 C 101.19 54.76 98.03 52.89 96.21 50.25 C 127.28 22.71 241.24 60.52 280.22 76.03 C 281.93 76.70 283.56 76.56 285.09 75.60 L 302.90 64.58 C 434.93 3.73 589.42 0.95 723.43 59.93 C 723.92 60.15 724.34 60.52 724.61 60.98 C 724.89 61.45 725.01 61.98 724.97 62.52 C 724.93 63.06 724.73 63.57 724.38 63.99 C 724.04 64.41 723.58 64.71 723.05 64.85 C 713.32 67.49 703.82 72.68 694.55 80.41 Z" fill="#fefefe" fill-rule="nonzero" node-id="90" stroke="none" target-height="467.26984" target-width="712.73975" target-x="12.2742" target-y="0.947176"></path><path d="M 298.46 57.79 C 299.17 57.97 299.85 58.13 300.49 58.27 C 301.81 58.56 302.52 59.36 302.63 60.68 L 302.90 64.58 L 285.09 75.60 C 283.56 76.56 281.93 76.70 280.22 76.03 C 241.24 60.52 127.28 22.71 96.21 50.25 C 80.81 79.84 73.08 113.39 73.00 150.89 C 68.94 152.25 64.95 152.18 61.03 150.68 C 62.63 114.58 73.97 30.41 123.49 31.16 C 178.03 31.94 229.87 44.28 278.99 68.17 C 280.53 68.91 282.00 68.81 283.43 67.84 L 298.46 57.79 Z" fill="#170f0a" fill-rule="nonzero" node-id="92" stroke="none" target-height="129.5356" target-width="241.86969" target-x="61.0263" target-y="22.7114"></path><path d="M 96.21 50.25 C 98.03 52.89 101.19 54.76 105.68 55.87 L 119.31 69.02 C 113.86 111.02 121.10 149.81 141.03 185.38 C 118.81 206.70 99.08 230.27 81.83 256.08 L 78.35 260.46 C 78.05 260.88 77.60 261.17 77.10 261.25 C 76.59 261.34 76.07 261.22 75.65 260.92 C 75.23 260.62 74.95 260.17 74.86 259.66 C 74.78 259.16 74.90 258.64 75.20 258.22 C 79.83 250.55 81.29 242.53 79.58 234.15 C 73.91 206.38 71.72 178.63 73.00 150.89 C 73.08 113.39 80.81 79.84 96.21 50.25 Z" fill="#d0988b" fill-rule="nonzero" node-id="94" stroke="none" target-height="211.0848" target-width="69.30399" target-x="71.721" target-y="50.2512"></path><path d="M 924.76 67.10 C 924.12 71.87 921.80 74.99 917.81 76.45 C 877.24 86.33 841.38 104.12 810.22 129.82 C 808.62 131.14 808.76 132.23 810.65 133.09 C 834.50 143.81 856.81 158.29 877.60 176.51 C 924.66 219.39 958.67 272.82 979.63 336.77 C 974.92 338.38 972.89 340.93 973.53 344.42 C 979.99 379.71 983.78 411.68 984.92 440.30 C 971.41 425.72 957.44 412.50 943.00 400.62 C 943.25 399.13 942.57 398.34 940.97 398.27 C 940.76 398.26 940.55 398.31 940.37 398.42 C 940.19 398.53 940.05 398.69 939.97 398.89 C 939.88 399.08 939.87 399.30 939.91 399.50 C 939.96 399.71 940.06 399.89 940.22 400.04 C 957.65 415.72 971.34 432.33 981.29 449.87 C 975.08 479.75 969.43 508.75 964.34 536.88 C 951.55 607.31 902.78 687.31 849.74 741.74 C 803.53 789.23 758.19 835.17 714.71 885.75 C 714.42 886.11 714.26 886.55 714.25 887.01 C 714.24 887.46 714.38 887.91 714.64 888.28 C 714.91 888.65 715.29 888.92 715.73 889.06 C 716.17 889.19 716.64 889.17 717.07 889.01 C 717.63 888.77 718.12 888.59 718.51 888.48 C 718.94 888.34 719.27 888.48 719.52 888.91 C 719.88 889.62 719.90 890.21 719.58 890.67 L 716.58 893.72 C 714.16 896.18 714.66 897.20 718.08 896.77 C 735.91 894.56 752.86 889.59 768.94 881.85 C 770.15 881.28 770.61 881.65 770.33 882.97 C 764.66 909.53 755.62 934.63 743.21 958.27 C 731.63 969.82 717.23 974.75 700.01 973.08 C 698.22 972.90 697.39 971.92 697.49 970.14 C 698.17 960.80 700.36 951.78 704.07 943.08 C 704.10 943.01 704.11 942.94 704.11 942.87 C 704.10 942.80 704.09 942.73 704.06 942.66 C 704.03 942.60 703.98 942.54 703.93 942.49 C 703.88 942.45 703.82 942.41 703.75 942.38 C 703.18 942.21 702.59 942.01 701.99 941.80 C 700.49 941.30 699.49 941.80 698.99 943.29 L 689.79 970.19 C 689.50 971.01 688.94 971.70 688.20 972.15 C 687.46 972.60 686.59 972.77 685.73 972.65 L 674.34 970.99 C 673.48 970.07 673.07 969.26 673.11 968.59 L 670.27 944.15 C 670.21 943.39 669.88 942.69 669.33 942.16 C 668.79 941.64 668.07 941.33 667.32 941.30 C 666.56 941.27 665.82 941.51 665.23 941.99 C 664.64 942.46 664.25 943.14 664.12 943.88 C 662.55 951.90 663.29 959.73 666.32 967.36 C 666.99 969.28 665.73 970.32 662.52 970.46 C 608.29 948.16 647.39 865.06 670.38 832.44 L 684.71 817.47 C 685.51 816.67 686.00 815.61 686.11 814.49 C 686.22 813.37 685.93 812.24 685.30 811.31 C 684.66 810.37 683.73 809.68 682.64 809.37 C 681.56 809.04 680.40 809.11 679.36 809.55 C 616.05 834.95 561.45 853.77 491.02 843.94 L 488.35 806.02 C 488.34 805.96 488.32 805.89 488.29 805.83 C 488.26 805.76 488.21 805.71 488.16 805.66 C 488.06 805.57 487.92 805.51 487.79 805.51 C 487.65 805.51 487.53 805.57 487.44 805.66 C 487.36 805.76 487.32 805.89 487.33 806.02 L 484.71 853.72 C 480.61 855.75 477.07 855.75 474.07 853.72 L 468.88 836.50 C 462.86 826.16 455.21 819.64 445.94 816.93 C 407.87 805.88 371.11 791.55 335.68 773.94 C 334.08 773.14 332.29 772.89 330.60 773.24 C 298.08 779.50 210.28 726.24 181.03 707.95 C 182.31 704.92 184.45 703.74 187.44 704.42 C 188.76 704.74 189.58 704.24 189.90 702.92 L 192.79 690.14 C 193.32 687.79 192.38 686.61 189.96 686.61 L 187.55 686.61 C 185.02 686.61 184.59 685.65 186.27 683.72 L 200.01 667.84 C 200.97 666.70 202.22 666.06 203.75 665.92 C 228.39 663.24 250.26 653.90 269.37 637.89 C 270.04 637.32 270.44 636.59 270.54 635.70 L 270.81 633.83 C 270.99 632.44 271.51 631.19 272.36 630.09 C 286.02 612.65 289.28 593.63 282.15 573.03 C 281.79 572.00 281.10 571.32 280.06 571.00 L 276.37 569.82 C 275.34 569.50 274.55 568.86 274.02 567.89 C 271.95 564.22 268.31 562.87 263.11 563.83 C 266.03 561.48 265.78 561.32 262.36 563.35 L 203.38 536.29 C 201.08 535.23 199.14 533.52 197.81 531.37 C 196.48 529.22 195.81 526.73 195.89 524.21 L 197.12 481.96 C 199.30 454.01 206.89 427.77 219.90 403.24 C 222.33 402.85 223.73 403.26 224.13 404.47 L 218.62 420.62 C 205.62 474.37 216.21 542.71 280.22 558.00 C 319.79 567.41 362.25 540.30 385.19 510.36 C 442.09 436.13 378.08 327.52 285.89 343.14 C 220.76 354.21 183.38 423.94 181.03 486.08 C 177.18 507.54 181.51 524.92 194.02 538.22 C 192.17 541.71 185.52 542.12 174.07 539.45 L 104.23 516.83 C 83.56 512.58 67.41 518.25 55.79 533.83 C 55.25 534.51 54.61 534.63 53.86 534.21 L 52.31 533.30 C 52.15 533.20 51.96 533.15 51.78 533.16 C 51.59 533.16 51.41 533.22 51.25 533.33 C 51.10 533.44 50.98 533.59 50.91 533.76 C 50.84 533.94 50.83 534.13 50.87 534.31 C 51.94 540.12 51.13 542.82 48.46 542.39 C 44.54 509.55 46.18 477.18 53.38 445.27 C 53.77 443.49 53.34 441.96 52.10 440.68 L 42.90 431.32 C 47.46 421.05 52.13 414.17 56.91 410.68 L 76.32 395.22 C 77.75 394.08 79.19 394.06 80.65 395.17 L 90.92 402.76 C 91.75 403.37 92.77 403.66 93.80 403.57 C 94.83 403.48 95.80 403.02 96.53 402.28 C 248.56 244.58 421.24 155.38 630.91 97.20 C 643.16 93.78 658.35 81.96 669.58 81.64 C 678.78 81.36 687.10 80.95 694.55 80.41 C 749.52 63.78 878.35 28.01 924.76 67.10 Z M 284.50 290.09 C 307.50 275.54 325.89 278.22 349.10 290.73 C 349.45 290.94 349.87 291.00 350.27 290.91 C 350.67 290.81 351.02 290.57 351.25 290.23 C 351.47 289.89 351.56 289.47 351.49 289.07 C 351.42 288.66 351.19 288.30 350.86 288.06 C 328.58 270.48 306.21 270.55 283.75 288.27 C 283.00 287.77 282.77 288.18 283.06 289.50 C 283.08 289.65 283.14 289.79 283.24 289.91 C 283.33 290.02 283.46 290.12 283.60 290.17 C 283.74 290.23 283.90 290.25 284.06 290.24 C 284.21 290.23 284.37 290.17 284.50 290.09 Z M 643.11 299.82 C 663.00 283.62 681.93 284.10 704.82 293.62 C 705.08 293.69 705.35 293.67 705.60 293.56 C 705.84 293.45 706.04 293.27 706.17 293.03 C 706.29 292.79 706.33 292.52 706.28 292.26 C 706.23 292.00 706.09 291.76 705.89 291.59 C 682.39 276.11 660.59 277.97 640.49 297.15 C 640.29 297.34 640.14 297.57 640.04 297.83 C 639.94 298.08 639.90 298.36 639.91 298.63 C 639.93 298.90 640.00 299.17 640.13 299.41 C 640.26 299.65 640.43 299.87 640.65 300.04 C 641.36 300.64 642.18 300.57 643.11 299.82 Z M 588.08 472.60 C 594.77 512.12 611.83 550.84 650.17 568.70 C 665.82 575.33 681.90 578.91 698.40 579.45 C 699.01 579.37 699.63 579.28 700.27 579.18 C 699.92 583.60 700.52 587.57 702.09 591.10 C 702.77 592.60 702.66 594.04 701.77 595.43 C 689.58 614.10 710.06 641.32 726.21 648.54 C 726.23 648.55 726.25 648.57 726.26 648.59 C 726.27 648.62 726.28 648.64 726.28 648.67 C 726.28 648.70 726.27 648.72 726.26 648.75 C 726.25 648.77 726.23 648.79 726.21 648.80 C 725.75 648.98 725.26 649.14 724.76 649.28 C 723.98 649.50 723.89 649.89 724.50 650.46 C 738.40 664.04 755.09 671.17 774.55 671.85 C 786.10 672.23 796.85 677.79 810.17 675.60 C 826.21 672.92 841.75 668.73 856.80 663.03 C 867.97 658.80 875.41 647.84 889.79 644.42 C 890.73 644.20 891.58 643.70 892.22 642.98 C 892.86 642.26 893.26 641.37 893.37 640.41 L 897.12 607.47 C 897.37 605.33 896.51 603.79 894.55 602.87 C 890.16 600.76 889.52 597.32 892.62 592.55 C 893.27 591.58 894.16 590.98 895.30 590.73 L 900.65 589.71 C 901.04 589.61 901.39 589.38 901.63 589.04 C 901.87 588.71 901.97 588.30 901.93 587.89 C 901.90 587.48 901.71 587.10 901.42 586.82 C 901.12 586.53 900.74 586.37 900.33 586.34 L 864.87 586.34 C 863.52 586.34 862.84 585.67 862.84 584.31 L 862.84 567.63 C 862.84 566.76 863.08 565.91 863.54 565.18 C 863.99 564.46 864.64 563.87 865.41 563.51 C 870.11 561.26 874.85 559.50 879.63 558.22 C 881.88 557.64 883.41 556.77 884.23 555.60 C 885.30 554.17 885.76 552.58 885.62 550.84 C 885.48 549.09 884.53 548.29 882.79 548.43 L 821.34 553.94 C 819.20 554.12 817.24 553.58 815.46 552.33 C 811.86 549.87 807.78 548.32 803.21 547.68 C 801.75 547.50 801.06 548.14 801.13 549.61 L 801.56 557.04 C 783.59 562.49 764.28 565.60 743.64 566.34 C 760.75 558.25 777.03 553.65 792.47 552.55 C 793.86 552.45 795.20 551.93 796.30 551.05 C 797.40 550.17 798.21 548.98 798.62 547.63 C 823.64 464.37 777.60 382.55 691.61 364.47 C 634.07 362.01 576.58 411.91 588.08 472.60 Z M 541.66 379.29 C 541.72 379.02 541.70 378.75 541.58 378.51 C 541.47 378.26 541.28 378.06 541.05 377.93 C 540.81 377.81 540.54 377.76 540.27 377.80 C 540.01 377.84 539.76 377.97 539.58 378.16 L 534.45 383.30 C 534.16 383.57 533.98 383.94 533.95 384.33 C 533.92 384.73 534.03 385.12 534.27 385.44 C 534.50 385.76 534.85 385.99 535.25 386.09 C 535.64 386.19 536.06 386.15 536.42 385.97 C 539.24 384.55 540.99 382.32 541.66 379.29 Z M 533.38 459.71 C 533.77 459.86 534.21 459.87 534.62 459.75 C 535.02 459.62 535.38 459.36 535.62 459.01 C 535.87 458.67 535.99 458.25 535.97 457.82 C 535.95 457.40 535.79 456.99 535.51 456.67 L 525.62 445.49 C 523.80 443.42 523.02 443.78 523.27 446.56 C 523.88 453.01 527.24 457.40 533.38 459.71 Z M 460.65 456.83 C 461.83 456.49 462.85 455.72 463.50 454.66 C 464.14 453.61 464.36 452.35 464.12 451.14 C 463.87 449.94 463.18 448.88 462.18 448.17 C 461.17 447.47 459.94 447.18 458.72 447.36 C 452.95 448.14 449.40 451.18 448.08 456.45 C 447.97 456.87 447.97 457.31 448.09 457.73 C 448.20 458.15 448.43 458.53 448.74 458.83 C 449.05 459.14 449.43 459.36 449.85 459.46 C 450.27 459.57 450.71 459.56 451.13 459.45 L 460.65 456.83 Z M 461.45 546.56 C 475.09 556.72 484.82 556.99 500.81 550.57 C 525.14 540.84 549.90 539.77 541.93 504.05 C 541.54 502.33 540.68 500.91 539.37 499.77 C 514.95 478.84 487.62 474.60 457.39 487.04 C 424.50 500.57 441.40 531.69 461.45 546.56 Z M 504.71 674.79 C 509.49 661.25 512.11 647.36 512.57 633.13 C 512.64 631.32 513.98 629.62 516.59 628.05 C 519.76 627.38 522.00 626.13 523.32 624.31 C 524.53 622.67 524.53 621.01 523.32 619.34 L 494.71 579.34 C 494.08 578.47 493.28 577.75 492.36 577.21 C 491.43 576.68 490.40 576.35 489.34 576.23 C 488.28 576.12 487.21 576.24 486.20 576.57 C 485.19 576.90 484.27 577.44 483.48 578.16 C 472.29 588.50 463.64 600.50 457.55 614.15 C 456.79 615.81 456.65 617.69 457.17 619.45 C 462.04 636.99 471.40 682.33 487.49 691.00 C 488.26 691.41 489.11 691.66 489.98 691.72 C 490.85 691.77 491.72 691.63 492.52 691.32 C 499.19 688.61 503.25 683.10 504.71 674.79 Z M 736.74 943.40 L 742.84 945.70 C 743.01 945.77 743.20 945.80 743.38 945.80 C 743.57 945.80 743.75 945.76 743.92 945.68 C 744.09 945.61 744.24 945.50 744.37 945.36 C 744.49 945.23 744.59 945.07 744.66 944.90 L 744.87 944.31 C 747.06 938.46 749.13 932.63 750.96 927.16 C 752.79 921.69 754.34 916.68 755.53 912.42 C 756.73 908.16 757.53 904.74 757.91 902.35 C 758.28 899.95 758.21 898.64 757.71 898.48 L 756.53 898.05 C 756.04 897.84 755.13 898.79 753.84 900.84 C 752.55 902.89 750.92 906.00 749.02 910.00 C 747.13 913.99 745.02 918.79 742.81 924.12 C 740.60 929.45 738.34 935.20 736.15 941.05 L 735.94 941.64 C 735.82 941.98 735.84 942.35 735.98 942.68 C 736.13 943.01 736.41 943.27 736.74 943.40 Z M 730.17 949.66 C 726.17 954.61 723.68 960.30 722.68 966.72 C 722.61 967.15 722.69 967.59 722.91 967.98 C 723.12 968.36 723.46 968.66 723.86 968.84 C 724.27 969.01 724.72 969.04 725.14 968.93 C 725.57 968.81 725.94 968.56 726.21 968.21 C 730.84 962.15 733.21 955.31 733.32 947.68 C 733.32 946.11 732.73 945.84 731.56 946.88 C 730.66 947.70 730.20 948.62 730.17 949.66 Z M 679.31 965.75 L 677.97 967.04 C 677.80 967.20 677.69 967.42 677.67 967.66 C 677.64 967.90 677.70 968.14 677.84 968.34 C 677.97 968.54 678.17 968.68 678.40 968.75 C 678.63 968.81 678.88 968.79 679.10 968.69 C 681.45 967.59 683.25 965.74 684.50 963.13 C 684.67 962.79 684.73 962.41 684.67 962.04 C 684.61 961.66 684.44 961.31 684.17 961.04 C 683.91 960.77 683.57 960.59 683.19 960.52 C 682.82 960.46 682.43 960.51 682.09 960.67 C 680.27 961.46 679.47 962.78 679.68 964.63 C 679.72 965.06 679.60 965.43 679.31 965.75 Z" fill="#fdfaee" fill-rule="nonzero" node-id="96" stroke="none" target-height="946.7497" target-width="942.0261" target-x="42.8979" target-y="28.0053"></path><path d="M 105.68 55.87 C 125.36 62.66 220.06 104.10 221.56 127.04 C 221.74 129.79 220.92 131.84 219.10 133.19 C 217.78 134.19 216.82 133.91 216.21 132.34 L 214.66 128.11 C 213.81 125.76 212.57 125.56 210.97 127.52 C 205.09 134.90 200.28 143.25 192.58 148.81 C 150.90 179.04 115.30 215.85 85.78 259.23 C 84.07 258.88 82.75 257.83 81.83 256.08 C 99.08 230.27 118.81 206.70 141.03 185.38 L 196.59 140.41 C 201.65 136.31 201.59 132.26 196.43 128.27 L 119.31 69.02 L 105.68 55.87 Z M 204.93 125.87 L 209.42 119.61 C 209.78 119.10 209.92 118.48 209.82 117.87 C 209.72 117.26 209.39 116.71 208.89 116.35 L 208.30 115.92 C 192.30 104.47 176.59 93.98 164.63 86.77 C 152.67 79.56 145.43 76.22 144.50 77.47 L 144.13 78.01 C 143.66 78.62 144.77 80.36 147.38 83.11 C 149.99 85.85 154.06 89.57 159.35 94.03 C 164.64 98.49 171.04 103.61 178.21 109.10 C 185.37 114.59 193.14 120.34 201.08 126.03 L 201.67 126.45 C 202.18 126.81 202.81 126.94 203.42 126.83 C 204.03 126.72 204.57 126.38 204.93 125.87 Z" fill="#170f0a" fill-rule="nonzero" node-id="98" stroke="none" target-height="203.3677" target-width="139.91031" target-x="81.8277" target-y="55.8663"></path><path d="M 924.76 67.10 C 947.54 89.56 949.20 187.47 947.28 218.65 C 946.63 229.31 947.42 239.57 949.63 249.45 C 949.70 249.76 949.65 250.09 949.51 250.38 C 949.36 250.67 949.11 250.90 948.82 251.02 C 948.52 251.15 948.18 251.17 947.88 251.07 C 947.57 250.98 947.30 250.79 947.12 250.52 C 930.93 225.42 912.14 202.44 890.75 181.59 L 901.13 176.99 C 902.73 176.28 903.80 175.08 904.34 173.41 C 913.61 144.64 916.76 114.49 913.80 82.98 C 916.48 82.98 917.81 80.80 917.81 76.45 C 921.80 74.99 924.12 71.87 924.76 67.10 Z" fill="#c28780" fill-rule="nonzero" node-id="100" stroke="none" target-height="184.0719" target-width="58.945007" target-x="890.753" target-y="67.0961"></path><path d="M 119.31 69.02 L 196.43 128.27 C 201.60 132.26 201.65 136.31 196.59 140.41 L 141.03 185.38 C 121.10 149.81 113.86 111.02 119.31 69.02 Z" fill="#a97071" fill-rule="nonzero" node-id="102" stroke="none" target-height="116.3629" target-width="87.789" target-x="113.86" target-y="69.0211"></path><path d="M 917.81 76.45 C 917.81 80.80 916.48 82.98 913.80 82.98 C 886.88 94.96 861.48 109.09 837.60 125.38 C 836.36 126.25 834.86 126.63 833.37 126.45 C 829.20 126.06 825.85 127.43 823.32 130.57 C 823.05 130.89 822.86 131.26 822.74 131.66 C 822.63 132.06 822.60 132.48 822.66 132.90 C 822.72 133.31 822.87 133.72 823.09 134.08 C 823.32 134.44 823.61 134.76 823.96 135.01 L 879.26 173.14 C 878.15 174.10 877.60 175.22 877.60 176.51 C 856.81 158.29 834.50 143.82 810.65 133.09 C 808.76 132.23 808.62 131.14 810.22 129.82 C 841.38 104.12 877.24 86.33 917.81 76.45 Z" fill="#2e1e1b" fill-rule="nonzero" node-id="104" stroke="none" target-height="100.052704" target-width="109.19702" target-x="808.615" target-y="76.4543"></path><path d="M 204.93 125.87 C 204.57 126.37 204.03 126.72 203.42 126.83 C 202.81 126.94 202.18 126.81 201.67 126.45 L 201.08 126.03 C 193.14 120.34 185.37 114.59 178.21 109.10 C 171.04 103.61 164.64 98.49 159.35 94.03 C 154.06 89.56 149.99 85.85 147.38 83.11 C 144.77 80.36 143.66 78.62 144.13 78.01 L 144.50 77.47 C 145.43 76.22 152.67 79.56 164.63 86.77 C 176.59 93.98 192.30 104.46 208.30 115.92 L 208.89 116.35 C 209.39 116.71 209.72 117.26 209.82 117.87 C 209.92 118.48 209.78 119.10 209.42 119.61 L 204.93 125.87 Z" fill="#4e423d" fill-rule="nonzero" node-id="106" stroke="none" target-height="50.723404" target-width="66.261" target-x="143.662" target-y="76.2186"></path><path d="M 913.80 82.98 C 916.76 114.49 913.61 144.64 904.34 173.41 C 903.80 175.08 902.73 176.28 901.13 176.99 L 890.75 181.59 L 879.26 173.14 L 823.96 135.01 C 823.61 134.76 823.32 134.44 823.09 134.08 C 822.87 133.72 822.72 133.31 822.66 132.90 C 822.60 132.48 822.63 132.06 822.74 131.66 C 822.86 131.26 823.05 130.89 823.32 130.57 C 825.85 127.43 829.20 126.06 833.37 126.45 C 834.86 126.63 836.36 126.25 837.60 125.38 C 861.48 109.09 886.88 94.96 913.80 82.98 Z" fill="#9b6364" fill-rule="nonzero" node-id="108" stroke="none" target-height="98.6087" target-width="94.15698" target-x="822.603" target-y="82.9783"></path><path d="M 61.03 150.68 C 64.95 152.18 68.94 152.25 73.00 150.89 C 71.72 178.63 73.91 206.38 79.58 234.15 C 81.29 242.53 79.83 250.55 75.20 258.22 C 74.90 258.64 74.78 259.16 74.87 259.66 C 74.95 260.17 75.23 260.62 75.65 260.92 C 76.07 261.22 76.59 261.34 77.10 261.25 C 77.60 261.17 78.05 260.88 78.35 260.46 L 81.83 256.08 C 82.76 257.83 84.07 258.88 85.79 259.23 C 47.21 322.16 23.43 391.12 14.45 466.13 C 10.71 473.62 9.05 481.55 9.48 489.93 C 9.69 493.63 10.30 493.71 11.29 490.14 L 17.55 468.22 C 30.10 440.48 45.91 415.03 64.98 391.85 C 65.55 391.18 66.14 390.77 66.75 390.62 C 67.32 390.48 67.98 390.27 68.73 389.98 C 68.85 389.93 68.99 389.92 69.13 389.96 C 69.26 390.00 69.37 390.08 69.45 390.20 C 69.52 390.31 69.56 390.45 69.54 390.58 C 69.53 390.72 69.47 390.85 69.37 390.94 C 63.99 395.90 59.83 402.48 56.91 410.68 C 52.13 414.17 47.46 421.05 42.90 431.32 C 24.77 463.67 11.99 498.00 13.97 536.18 C 22.04 693.46 135.20 809.61 281.29 854.85 C 283.32 855.45 283.34 856.11 281.35 856.82 C 275.89 858.71 269.65 859.03 262.63 857.79 L 224.61 849.39 C 221.83 848.78 220.78 849.87 221.45 852.65 C 227.28 876.02 235.25 910.25 251.77 927.57 C 253.49 930.46 256.12 931.78 259.69 931.53 C 268.00 939.16 278.01 944.63 289.74 947.95 C 292.67 948.80 293.20 948.02 291.35 945.59 C 286.75 939.60 285.44 932.88 287.44 925.43 C 287.63 924.59 288.11 923.84 288.80 923.32 C 289.49 922.80 290.35 922.55 291.21 922.60 C 292.07 922.65 292.88 923.01 293.51 923.60 C 294.13 924.20 294.52 925.00 294.61 925.86 C 297.66 947.78 306.00 950.03 324.07 952.38 C 330.31 953.20 333.43 950.19 333.43 943.35 C 333.39 933.19 333.39 922.88 333.43 912.44 C 333.47 910.73 334.00 910.55 335.04 911.90 C 344.88 924.31 346.30 937.27 339.31 950.78 C 338.78 951.81 339.06 952.21 340.17 951.96 C 407.81 938.21 366.26 833.67 342.68 798.96 C 342.66 798.90 342.66 798.83 342.68 798.76 C 342.69 798.70 342.73 798.64 342.79 798.60 C 342.84 798.56 342.91 798.54 342.97 798.53 C 343.04 798.53 343.11 798.55 343.16 798.59 C 377.46 833.60 391.13 875.24 384.18 923.51 C 383.95 925.09 384.35 926.70 385.30 928.00 C 386.25 929.30 387.67 930.18 389.26 930.46 L 433.64 938.43 C 431.65 940.35 430.24 943.51 429.42 947.89 C 417.01 946.47 402.70 943.76 386.48 939.76 C 375.41 937.04 372.79 946.13 366.59 950.46 C 340.70 968.48 291.40 958.16 264.66 945.06 C 231.03 928.53 222.15 887.52 212.20 855.00 C 211.77 847.41 210.54 843.62 203.32 840.09 C -20.26 731.32 -50.42 468.43 68.73 271.43 C 69.65 269.89 69.90 268.25 69.48 266.51 C 60.13 228.15 57.32 189.54 61.03 150.68 Z" fill="#412d27" fill-rule="nonzero" node-id="110" stroke="none" target-height="817.80304" target-width="484.061" target-x="-50.417" target-y="150.678"></path><path d="M 349.10 290.73 C 325.89 278.22 307.50 275.54 284.50 290.09 C 284.37 290.17 284.21 290.23 284.06 290.24 C 283.90 290.25 283.74 290.23 283.60 290.17 C 283.45 290.12 283.33 290.02 283.24 289.91 C 283.14 289.79 283.08 289.65 283.06 289.50 C 282.77 288.18 283.00 287.77 283.75 288.27 C 306.21 270.55 328.58 270.48 350.86 288.06 C 351.19 288.30 351.42 288.66 351.49 289.07 C 351.56 289.47 351.47 289.89 351.25 290.23 C 351.02 290.57 350.67 290.81 350.27 290.91 C 349.87 291.00 349.45 290.94 349.10 290.73 Z" fill="#170f0a" fill-rule="nonzero" node-id="112" stroke="none" target-height="20.519012" target-width="68.78702" target-x="282.771" target-y="270.481"></path><path d="M 704.82 293.62 C 681.93 284.10 663.00 283.62 643.11 299.82 C 642.18 300.57 641.36 300.64 640.65 300.04 C 640.43 299.87 640.26 299.65 640.13 299.41 C 640.00 299.17 639.93 298.90 639.91 298.63 C 639.90 298.36 639.94 298.08 640.04 297.83 C 640.14 297.57 640.29 297.34 640.49 297.15 C 660.59 277.97 682.39 276.11 705.89 291.59 C 706.09 291.76 706.23 292.00 706.28 292.26 C 706.33 292.52 706.29 292.79 706.17 293.03 C 706.04 293.27 705.84 293.45 705.60 293.56 C 705.35 293.67 705.08 293.69 704.82 293.62 Z" fill="#170f0a" fill-rule="nonzero" node-id="114" stroke="none" target-height="24.527985" target-width="66.43298" target-x="639.899" target-y="276.114"></path><path d="M 979.63 336.77 C 997.13 384.76 1006.88 434.65 1008.88 486.45 C 1008.90 486.73 1008.83 487.00 1008.67 487.22 C 1008.50 487.44 1008.27 487.60 1007.99 487.66 C 1007.72 487.72 1007.43 487.69 1007.17 487.57 C 1006.92 487.44 1006.71 487.24 1006.58 486.99 L 984.92 440.30 C 983.78 411.68 979.99 379.71 973.53 344.42 C 972.89 340.93 974.92 338.38 979.63 336.77 Z" fill="#d7cab8" fill-rule="nonzero" node-id="116" stroke="none" target-height="150.94702" target-width="36.007996" target-x="972.892" target-y="336.774"></path><path d="M 218.62 420.62 L 225.62 420.68 L 223.11 478.00 C 225.62 492.12 227.12 507.25 234.18 519.34 C 273.86 587.36 350.22 550.41 386.96 503.56 C 396.23 491.76 400.79 478.43 400.65 463.56 C 400.61 460.96 399.69 460.57 397.87 462.39 L 396.58 463.72 C 395.62 464.65 394.62 464.72 393.59 463.94 C 385.78 458.31 382.34 450.00 383.27 439.02 C 379.13 401.98 359.35 377.13 323.91 364.47 C 315.75 361.55 299.19 361.21 274.23 363.46 C 272.45 363.64 272.22 363.12 273.54 361.91 C 278.53 357.45 283.91 355.69 289.69 356.61 C 294.29 357.36 297.16 355.77 298.30 351.85 C 298.40 351.48 298.42 351.09 298.35 350.71 C 298.28 350.33 298.11 349.97 297.88 349.66 C 297.64 349.35 297.33 349.09 296.98 348.92 C 296.62 348.74 296.23 348.65 295.84 348.64 C 268.31 348.68 246.78 360.07 231.24 382.82 L 219.90 403.24 C 206.89 427.77 199.30 454.01 197.12 481.96 C 194.45 483.92 192.17 483.14 190.28 479.61 C 190.12 479.34 189.88 479.12 189.59 479.00 C 189.29 478.88 188.97 478.86 188.68 478.94 C 188.38 479.02 188.12 479.20 187.94 479.45 C 187.77 479.69 187.69 480.00 187.71 480.30 C 187.75 480.87 187.75 481.46 187.71 482.07 C 187.67 483.71 186.89 484.81 185.36 485.38 C 183.90 485.92 182.45 486.15 181.03 486.08 C 183.38 423.94 220.76 354.21 285.89 343.14 C 378.08 327.52 442.09 436.13 385.19 510.36 C 362.25 540.30 319.79 567.41 280.22 558.00 C 216.21 542.71 205.62 474.37 218.62 420.62 Z" fill="#170f0a" fill-rule="nonzero" node-id="118" stroke="none" target-height="259.837" target-width="261.068" target-x="181.025" target-y="327.522"></path><path d="M 383.27 439.02 C 382.52 439.09 381.86 439.18 381.29 439.29 C 379.90 439.46 379.08 440.23 378.83 441.59 C 378.73 442.26 378.60 443.05 378.46 443.94 C 374.45 382.71 316.91 353.14 265.89 387.04 C 242.47 382.17 234.55 404.21 225.62 420.68 L 218.62 420.62 L 224.13 404.47 L 237.71 387.04 C 239.35 384.97 238.85 383.78 236.21 383.46 L 231.24 382.82 C 246.78 360.07 268.31 348.68 295.84 348.64 C 296.23 348.65 296.62 348.74 296.98 348.92 C 297.33 349.09 297.64 349.35 297.88 349.66 C 298.11 349.97 298.28 350.33 298.35 350.71 C 298.42 351.09 298.40 351.48 298.30 351.85 C 297.16 355.78 294.29 357.36 289.69 356.61 C 283.91 355.69 278.53 357.45 273.54 361.91 C 272.22 363.12 272.45 363.64 274.23 363.46 C 299.19 361.21 315.75 361.55 323.91 364.47 C 359.35 377.13 379.13 401.98 383.27 439.02 Z" fill="#412d27" fill-rule="nonzero" node-id="120" stroke="none" target-height="95.29401" target-width="164.65099" target-x="218.619" target-y="348.645"></path><path d="M 691.61 364.47 C 685.73 369.57 688.78 372.32 700.75 372.71 C 675.98 377.59 652.16 385.54 629.31 396.56 C 600.97 410.19 590.92 442.71 588.08 472.60 C 576.58 411.91 634.07 362.01 691.61 364.47 Z" fill="#412d27" fill-rule="nonzero" node-id="122" stroke="none" target-height="110.587006" target-width="124.170044" target-x="576.584" target-y="362.014"></path><path d="M 691.61 364.47 C 777.60 382.55 823.64 464.37 798.62 547.63 C 798.21 548.98 797.40 550.17 796.30 551.05 C 795.20 551.93 793.86 552.45 792.47 552.55 C 777.03 553.65 760.75 558.25 743.64 566.34 L 698.40 579.45 C 681.89 578.91 665.82 575.33 650.17 568.70 L 651.24 567.15 L 666.90 571.80 C 680.59 574.79 692.79 576.66 705.57 569.39 C 722.32 559.80 736.76 546.42 748.88 529.23 C 761.11 509.94 764.03 485.54 757.65 456.02 C 755.30 443.65 749.76 430.14 741.02 415.49 L 747.71 413.78 L 763.53 440.41 C 776.01 496.31 760.50 538.50 717.01 566.99 C 714.59 567.95 713.09 569.14 712.52 570.57 C 711.81 572.35 712.39 573.06 714.28 572.71 C 717.17 572.17 719.90 570.84 722.47 568.70 C 735.44 561.50 749.13 555.47 763.53 550.62 C 784.07 543.67 786.58 532.49 783.53 512.39 L 782.14 470.04 C 782.93 468.82 783.95 467.93 785.19 467.36 C 785.45 467.24 785.73 467.18 786.00 467.19 C 786.29 467.20 786.56 467.27 786.81 467.41 C 787.05 467.55 787.26 467.74 787.42 467.97 C 787.58 468.20 787.67 468.47 787.71 468.75 C 791.13 494.35 790.49 519.73 785.78 544.90 C 785.46 546.58 786.14 547.64 787.81 548.11 C 791.70 549.18 794.16 547.68 795.19 543.62 C 807.49 495.33 794.07 432.12 752.47 399.23 C 739.92 385.94 722.68 377.09 700.75 372.71 C 688.78 372.32 685.73 369.57 691.61 364.47 Z" fill="#170f0a" fill-rule="nonzero" node-id="124" stroke="none" target-height="214.97198" target-width="173.474" target-x="650.167" target-y="364.474"></path><path d="M 378.46 443.94 C 379.21 496.67 329.63 542.55 276.48 514.26 C 304.79 518.82 324.07 518.23 334.34 512.49 C 362.42 496.77 377.71 469.29 369.15 437.36 C 367.65 431.76 367.37 426.04 368.30 420.19 C 368.55 418.59 368.17 417.17 367.17 415.92 C 360.54 407.90 353.18 405.88 345.09 409.87 C 343.52 410.62 342.42 411.82 341.77 413.46 C 339.17 420.16 333.81 422.25 325.68 419.71 C 323.39 419.00 322.34 417.45 322.52 415.06 L 323.54 401.32 C 323.68 399.14 324.79 397.68 326.85 396.93 C 329.85 395.86 332.25 394.03 334.07 391.43 C 334.58 390.70 334.79 389.81 334.66 388.94 C 334.53 388.08 334.07 387.30 333.38 386.77 C 299.31 360.57 255.36 388.54 246.16 425.76 C 245.77 427.25 244.80 428.04 243.27 428.11 C 242.63 428.14 242.06 427.88 241.56 427.31 C 245.87 411.76 253.98 398.34 265.89 387.04 C 316.91 353.14 374.45 382.71 378.46 443.94 Z" fill="#170f0a" fill-rule="nonzero" node-id="126" stroke="none" target-height="189.41098" target-width="137.646" target-x="241.56" target-y="353.137"></path><path d="M 700.75 372.71 C 722.68 377.09 739.92 385.94 752.47 399.23 C 753.43 412.14 759.40 425.79 770.38 440.19 C 767.35 440.84 765.07 440.91 763.53 440.41 L 747.71 413.78 L 736.32 395.44 C 736.15 395.18 735.91 394.97 735.64 394.84 C 735.36 394.71 735.05 394.66 734.75 394.69 C 734.44 394.73 734.15 394.84 733.91 395.03 C 733.67 395.22 733.48 395.47 733.38 395.76 L 732.84 397.52 C 732.74 397.80 732.58 398.06 732.36 398.26 C 732.13 398.46 731.87 398.60 731.58 398.66 C 731.29 398.73 731.00 398.71 730.72 398.63 C 730.45 398.54 730.20 398.38 730.01 398.16 C 713.91 380.73 699.52 389.07 681.98 390.14 C 640.88 392.71 616.37 416.24 608.46 460.73 C 603.64 462.80 602.13 468.34 603.91 477.36 C 603.98 477.72 603.98 478.08 603.90 478.44 C 603.83 478.79 603.69 479.13 603.49 479.42 C 603.28 479.72 603.02 479.98 602.72 480.17 C 602.41 480.37 602.07 480.50 601.72 480.57 C 596.55 481.50 594.21 483.71 594.71 487.20 C 599.70 523.49 618.54 550.14 651.24 567.15 L 650.17 568.70 C 611.83 550.84 594.77 512.12 588.08 472.60 C 590.92 442.71 600.97 410.20 629.31 396.56 C 652.16 385.54 675.98 377.59 700.75 372.71 Z" fill="#4e423d" fill-rule="nonzero" node-id="128" stroke="none" target-height="195.988" target-width="182.29901" target-x="588.081" target-y="372.709"></path><path d="M 276.48 514.26 C 247.92 498.14 235.53 469.73 239.31 429.02 C 240.03 431.19 240.78 430.62 241.56 427.31 C 242.06 427.88 242.63 428.15 243.27 428.11 C 244.80 428.04 245.77 427.25 246.16 425.76 C 255.36 388.54 299.31 360.57 333.38 386.77 C 334.07 387.30 334.53 388.08 334.66 388.94 C 334.79 389.81 334.58 390.70 334.07 391.43 C 332.25 394.03 329.85 395.86 326.85 396.93 C 324.79 397.68 323.68 399.14 323.54 401.32 L 322.52 415.06 C 322.34 417.45 323.39 419.00 325.68 419.71 C 333.81 422.25 339.17 420.16 341.77 413.46 C 342.42 411.82 343.52 410.62 345.09 409.88 C 353.18 405.88 360.54 407.90 367.17 415.92 C 368.17 417.17 368.55 418.59 368.30 420.20 C 367.37 426.04 367.65 431.76 369.15 437.36 C 377.71 469.29 362.42 496.77 334.34 512.50 C 324.07 518.23 304.79 518.82 276.48 514.26 Z" fill="#2e1e1b" fill-rule="nonzero" node-id="130" stroke="none" target-height="158.25299" target-width="142.173" target-x="235.535" target-y="360.57"></path><path d="M 541.66 379.29 C 540.99 382.32 539.24 384.55 536.42 385.97 C 536.06 386.15 535.64 386.19 535.25 386.09 C 534.85 385.99 534.51 385.76 534.27 385.44 C 534.03 385.12 533.92 384.73 533.95 384.33 C 533.98 383.94 534.16 383.57 534.45 383.30 L 539.58 378.16 C 539.77 377.97 540.01 377.84 540.27 377.80 C 540.54 377.76 540.81 377.81 541.05 377.93 C 541.28 378.06 541.47 378.26 541.58 378.51 C 541.70 378.75 541.72 379.02 541.66 379.29 Z" fill="#cec3b9" fill-rule="nonzero" node-id="132" stroke="none" target-height="8.427002" target-width="7.8079834" target-x="533.916" target-y="377.761"></path><path d="M 231.24 382.82 L 236.21 383.46 C 238.85 383.78 239.35 384.97 237.71 387.04 L 224.13 404.47 C 223.74 403.26 222.33 402.85 219.90 403.24 L 231.24 382.82 Z" fill="#bda194" fill-rule="nonzero" node-id="134" stroke="none" target-height="21.656982" target-width="19.447006" target-x="219.902" target-y="382.816"></path><path d="M 265.89 387.04 C 253.98 398.34 245.87 411.76 241.56 427.31 C 240.78 430.62 240.03 431.19 239.31 429.02 C 233.93 437.50 231.58 446.42 232.25 455.76 C 232.40 457.47 232.09 459.11 231.35 460.68 L 223.11 478.00 L 225.62 420.68 C 234.55 404.21 242.47 382.17 265.89 387.04 Z" fill="#836b44" fill-rule="nonzero" node-id="136" stroke="none" target-height="95.828" target-width="42.78099" target-x="223.11" target-y="382.174"></path><path d="M 747.71 413.78 L 741.02 415.49 C 740.77 411.64 739.56 409.36 737.38 408.64 C 735.10 407.86 734.02 408.68 734.12 411.11 L 736.53 471.53 C 733.28 488.39 724.55 504.22 710.33 519.02 C 688.72 531.28 667.83 533.56 647.65 525.86 C 622.77 512.67 609.70 490.96 608.46 460.73 C 616.37 416.24 640.88 392.71 681.98 390.14 C 699.52 389.07 713.91 380.73 730.00 398.16 C 730.20 398.38 730.45 398.54 730.72 398.63 C 731.00 398.71 731.29 398.73 731.58 398.66 C 731.87 398.60 732.13 398.46 732.36 398.26 C 732.58 398.06 732.74 397.80 732.84 397.52 L 733.37 395.76 C 733.48 395.47 733.67 395.22 733.91 395.03 C 734.15 394.84 734.44 394.73 734.75 394.69 C 735.05 394.66 735.36 394.71 735.64 394.84 C 735.91 394.97 736.15 395.18 736.32 395.44 L 747.71 413.78 Z M 697.32 440.34 C 699.78 441.23 702.43 441.52 705.12 441.17 C 707.82 440.82 710.51 439.85 713.04 438.31 C 715.57 436.78 717.89 434.70 719.87 432.20 C 721.85 429.71 723.44 426.84 724.57 423.77 C 726.84 417.56 727.05 410.89 725.15 405.22 C 723.26 399.55 719.41 395.35 714.45 393.53 C 712.00 392.63 709.35 392.35 706.65 392.70 C 703.95 393.04 701.26 394.01 698.73 395.55 C 696.20 397.09 693.88 399.17 691.91 401.66 C 689.93 404.16 688.33 407.02 687.21 410.10 C 684.93 416.30 684.73 422.98 686.62 428.65 C 688.52 434.32 692.37 438.52 697.32 440.34 Z" fill="#2e1e1b" fill-rule="nonzero" node-id="138" stroke="none" target-height="152.83304" target-width="139.25098" target-x="608.455" target-y="380.731"></path><path d="M 687.21 410.10 C 682.48 423.02 687.01 436.56 697.32 440.33 C 707.64 444.11 719.84 436.69 724.57 423.77 C 729.30 410.85 724.77 397.31 714.45 393.53 C 704.13 389.75 691.94 397.17 687.21 410.10 Z" fill="#fefefe" fill-rule="nonzero" node-id="140" stroke="none" target-height="54.35498" target-width="46.82202" target-x="682.477" target-y="389.755"></path><path d="M 752.47 399.23 C 794.07 432.12 807.49 495.33 795.19 543.62 C 794.16 547.68 791.70 549.18 787.81 548.11 C 786.14 547.64 785.46 546.58 785.78 544.90 C 790.49 519.73 791.13 494.35 787.71 468.75 C 787.67 468.47 787.58 468.20 787.42 467.97 C 787.26 467.74 787.05 467.55 786.81 467.41 C 786.56 467.27 786.29 467.20 786.01 467.19 C 785.73 467.18 785.45 467.24 785.19 467.36 C 783.95 467.93 782.93 468.82 782.14 470.04 L 776.15 464.58 L 770.38 440.19 C 759.40 425.79 753.43 412.14 752.47 399.23 Z" fill="#412d27" fill-rule="nonzero" node-id="142" stroke="none" target-height="149.94498" target-width="55.026978" target-x="752.465" target-y="399.233"></path><path d="M 741.02 415.49 C 749.76 430.14 755.30 443.65 757.65 456.02 C 754.37 459.88 752.29 465.63 751.40 473.30 C 751.34 473.76 751.17 474.21 750.91 474.60 C 750.64 474.98 750.28 475.29 749.86 475.50 C 749.44 475.72 748.98 475.82 748.51 475.81 C 748.04 475.80 747.58 475.67 747.17 475.44 C 743.00 473.01 739.45 471.71 736.53 471.53 L 734.12 411.11 C 734.02 408.68 735.10 407.86 737.39 408.64 C 739.56 409.36 740.77 411.64 741.02 415.49 Z" fill="#bb9a50" fill-rule="nonzero" node-id="144" stroke="none" target-height="67.961" target-width="23.635986" target-x="734.017" target-y="407.861"></path><path d="M 239.31 429.02 C 235.53 469.73 247.92 498.14 276.48 514.26 C 329.63 542.55 379.21 496.67 378.46 443.94 C 378.60 443.05 378.72 442.26 378.83 441.59 C 379.08 440.23 379.90 439.46 381.29 439.29 C 381.86 439.18 382.52 439.09 383.27 439.02 C 382.34 450.00 385.78 458.31 393.59 463.94 C 394.62 464.72 395.62 464.65 396.58 463.73 L 397.87 462.39 C 399.69 460.57 400.61 460.96 400.65 463.56 C 400.79 478.43 396.23 491.76 386.96 503.56 C 350.22 550.41 273.86 587.36 234.18 519.34 C 227.12 507.25 225.62 492.12 223.11 478.00 L 231.35 460.68 C 232.09 459.11 232.40 457.47 232.25 455.76 C 231.58 446.42 233.93 437.50 239.31 429.02 Z" fill="#fac759" fill-rule="nonzero" node-id="146" stroke="none" target-height="158.34097" target-width="177.68199" target-x="223.11" target-y="429.019"></path><path d="M 42.90 431.32 L 52.10 440.68 C 53.34 441.96 53.77 443.49 53.38 445.27 C 46.18 477.18 44.54 509.55 48.46 542.39 C 60.38 610.89 123.70 671.75 181.03 707.95 C 210.28 726.24 298.08 779.50 330.60 773.24 C 332.29 772.89 334.08 773.14 335.68 773.94 C 371.11 791.55 407.87 805.88 445.94 816.93 C 455.21 819.64 462.86 826.16 468.88 836.50 C 467.03 858.21 469.35 878.37 475.84 896.98 C 476.48 898.80 477.15 898.82 477.87 897.04 C 478.67 895.00 473.38 861.48 474.07 853.72 C 477.07 855.75 480.61 855.75 484.71 853.72 L 480.17 880.41 C 480.16 880.61 480.23 880.81 480.36 880.97 C 480.48 881.12 480.66 881.23 480.86 881.27 C 481.06 881.31 481.27 881.27 481.44 881.18 C 481.62 881.08 481.75 880.92 481.83 880.73 L 491.02 843.94 C 561.45 853.77 616.05 834.95 679.36 809.55 C 680.40 809.11 681.56 809.04 682.64 809.37 C 683.73 809.68 684.66 810.37 685.30 811.31 C 685.93 812.24 686.22 813.37 686.11 814.49 C 686.00 815.61 685.51 816.67 684.71 817.47 L 670.38 832.44 C 639.44 860.00 624.66 894.72 626.05 936.61 C 626.12 938.46 625.26 939.62 623.48 940.09 C 566.37 955.16 491.29 948.64 433.64 938.43 L 389.26 930.46 C 387.67 930.18 386.25 929.30 385.30 928.00 C 384.35 926.70 383.95 925.09 384.18 923.51 C 391.13 875.24 377.46 833.60 343.16 798.59 C 343.11 798.55 343.04 798.53 342.97 798.53 C 342.91 798.54 342.84 798.56 342.79 798.60 C 342.73 798.64 342.69 798.70 342.68 798.76 C 342.66 798.83 342.66 798.90 342.68 798.96 C 366.26 833.67 407.81 938.21 340.17 951.96 C 339.06 952.21 338.78 951.81 339.31 950.78 C 346.30 937.27 344.88 924.31 335.04 911.90 C 334.00 910.55 333.47 910.73 333.43 912.44 C 333.39 922.88 333.39 933.19 333.43 943.35 C 333.43 950.19 330.31 953.20 324.07 952.38 C 306.00 950.03 297.66 947.79 294.61 925.86 C 294.52 925.00 294.13 924.20 293.51 923.61 C 292.88 923.01 292.07 922.65 291.21 922.60 C 290.35 922.55 289.49 922.80 288.80 923.32 C 288.11 923.84 287.63 924.59 287.44 925.43 C 285.44 932.88 286.75 939.60 291.35 945.59 C 293.20 948.02 292.67 948.80 289.74 947.95 C 278.01 944.63 267.99 939.16 259.69 931.53 C 259.58 923.04 256.94 915.74 251.77 909.60 C 240.04 885.97 243.66 868.70 262.63 857.79 C 269.65 859.03 275.89 858.71 281.35 856.82 C 283.34 856.11 283.32 855.45 281.29 854.85 C 135.20 809.61 22.04 693.46 13.97 536.18 C 11.99 498.00 24.77 463.67 42.90 431.32 Z" fill="#e1dbd1" fill-rule="nonzero" node-id="148" stroke="none" target-height="523.847" target-width="674.2269" target-x="11.9891" target-y="431.318"></path><path d="M 763.53 440.41 C 765.07 440.91 767.35 440.84 770.38 440.19 L 776.15 464.58 C 775.91 479.41 775.83 494.15 775.94 508.80 C 775.98 513.12 778.51 514.31 783.53 512.39 C 786.58 532.49 784.07 543.67 763.53 550.62 C 749.13 555.47 735.44 561.50 722.47 568.70 C 718.65 569.59 716.83 569.02 717.01 566.99 C 760.50 538.50 776.01 496.31 763.53 440.41 Z" fill="#fbf1e1" fill-rule="nonzero" node-id="150" stroke="none" target-height="129.393" target-width="69.75" target-x="716.833" target-y="440.195"></path><path d="M 533.38 459.71 C 527.24 457.40 523.88 453.01 523.27 446.56 C 523.02 443.78 523.80 443.42 525.62 445.49 L 535.51 456.67 C 535.79 456.99 535.95 457.40 535.97 457.82 C 535.99 458.25 535.87 458.67 535.62 459.01 C 535.38 459.36 535.02 459.62 534.62 459.75 C 534.21 459.87 533.77 459.86 533.38 459.71 Z" fill="#b4aaa6" fill-rule="nonzero" node-id="152" stroke="none" target-height="16.451996" target-width="12.96698" target-x="523.02" target-y="443.421"></path><path d="M 460.65 456.83 L 451.13 459.45 C 450.71 459.56 450.27 459.57 449.85 459.46 C 449.43 459.36 449.05 459.14 448.74 458.83 C 448.43 458.53 448.20 458.15 448.09 457.73 C 447.97 457.31 447.97 456.87 448.08 456.45 C 449.40 451.18 452.95 448.15 458.72 447.36 C 459.94 447.18 461.17 447.47 462.18 448.17 C 463.18 448.88 463.87 449.94 464.12 451.14 C 464.36 452.35 464.14 453.61 463.50 454.66 C 462.85 455.72 461.83 456.49 460.65 456.83 Z" fill="#d9c6b9" fill-rule="nonzero" node-id="154" stroke="none" target-height="12.389008" target-width="16.389008" target-x="447.972" target-y="447.181"></path><path d="M 981.29 449.87 C 1001.34 484.90 1009.63 516.66 1005.08 558.27 C 987.06 722.17 869.95 834.79 719.58 890.67 C 719.90 890.21 719.88 889.62 719.52 888.91 C 719.27 888.48 718.94 888.34 718.51 888.48 C 718.12 888.59 717.63 888.77 717.07 889.02 C 716.64 889.17 716.17 889.19 715.73 889.06 C 715.29 888.92 714.91 888.65 714.64 888.28 C 714.38 887.91 714.24 887.46 714.25 887.01 C 714.26 886.55 714.42 886.11 714.71 885.75 C 758.19 835.17 803.53 789.23 849.74 741.74 C 902.79 687.31 951.55 607.31 964.34 536.88 C 969.43 508.75 975.09 479.75 981.29 449.87 Z" fill="#e1dbd1" fill-rule="nonzero" node-id="156" stroke="none" target-height="440.79898" target-width="295.39" target-x="714.24" target-y="449.874"></path><path d="M 757.65 456.02 C 764.03 485.54 761.11 509.94 748.88 529.23 C 739.40 536.58 730.47 543.28 722.09 549.34 C 721.95 549.48 717.65 553.63 709.20 561.80 C 698.08 572.49 680.38 567.15 666.90 571.80 L 651.24 567.15 C 618.54 550.14 599.70 523.49 594.71 487.20 C 594.21 483.71 596.55 481.50 601.72 480.57 C 602.07 480.50 602.41 480.37 602.72 480.17 C 603.02 479.98 603.28 479.72 603.49 479.42 C 603.69 479.12 603.83 478.79 603.90 478.44 C 603.98 478.08 603.98 477.72 603.91 477.36 C 602.13 468.34 603.64 462.80 608.46 460.73 C 609.70 490.96 622.77 512.67 647.65 525.86 C 645.76 526.04 644.82 527.00 644.82 528.75 C 644.83 529.27 645.00 529.77 645.31 530.19 C 645.62 530.61 646.04 530.93 646.53 531.10 C 675.30 541.26 696.57 537.24 710.33 519.02 C 724.55 504.22 733.28 488.39 736.53 471.53 C 739.45 471.71 743.00 473.01 747.17 475.44 C 747.58 475.67 748.04 475.80 748.51 475.81 C 748.98 475.82 749.44 475.72 749.86 475.50 C 750.28 475.29 750.64 474.98 750.91 474.60 C 751.17 474.21 751.34 473.76 751.40 473.30 C 752.29 465.63 754.37 459.87 757.65 456.02 Z" fill="#fac759" fill-rule="nonzero" node-id="158" stroke="none" target-height="116.47003" target-width="169.82098" target-x="594.213" target-y="456.024"></path><path d="M 776.15 464.58 L 782.14 470.04 L 783.53 512.39 C 778.51 514.31 775.98 513.12 775.94 508.80 C 775.83 494.15 775.90 479.41 776.15 464.58 Z" fill="#cec3b9" fill-rule="nonzero" node-id="160" stroke="none" target-height="49.732025" target-width="7.700989" target-x="775.834" target-y="464.58"></path><path d="M 14.45 466.13 C 12.27 465.99 13.31 466.68 17.55 468.22 L 11.29 490.14 C 10.30 493.71 9.69 493.63 9.48 489.93 C 9.05 481.55 10.71 473.62 14.45 466.13 Z" fill="#715337" fill-rule="nonzero" node-id="162" stroke="none" target-height="27.717987" target-width="8.502501" target-x="9.0478" target-y="465.988"></path><path d="M 197.12 481.96 L 195.89 524.21 C 195.81 526.73 196.48 529.22 197.81 531.37 C 199.14 533.52 201.08 535.23 203.38 536.29 L 262.36 563.35 C 251.13 562.32 239.13 558.16 226.37 550.89 L 194.02 538.22 C 181.51 524.92 177.18 507.54 181.03 486.08 C 182.45 486.15 183.90 485.92 185.36 485.38 C 186.89 484.81 187.67 483.71 187.71 482.07 C 187.75 481.46 187.75 480.87 187.71 480.30 C 187.69 480.00 187.77 479.69 187.94 479.45 C 188.12 479.20 188.38 479.02 188.68 478.94 C 188.97 478.86 189.29 478.88 189.59 479.00 C 189.88 479.12 190.12 479.34 190.28 479.61 C 192.17 483.14 194.45 483.92 197.12 481.96 Z" fill="#412d27" fill-rule="nonzero" node-id="164" stroke="none" target-height="84.49097" target-width="85.18599" target-x="177.175" target-y="478.859"></path><path d="M 461.45 546.56 C 441.40 531.69 424.50 500.57 457.39 487.04 C 487.62 474.60 514.95 478.84 539.37 499.77 C 540.68 500.91 541.54 502.33 541.93 504.05 C 549.90 539.77 525.14 540.84 500.81 550.57 C 484.82 556.99 475.09 556.72 461.45 546.56 Z M 447.12 517.52 C 459.24 519.45 471.45 520.50 483.75 520.68 C 485.00 520.68 486.12 520.44 487.12 519.98 C 488.30 519.45 489.42 518.84 490.49 518.16 C 491.99 517.16 493.66 516.68 495.51 516.72 C 509.10 516.97 521.45 513.42 532.57 506.08 C 533.29 505.60 533.88 504.95 534.28 504.19 C 534.67 503.43 534.87 502.57 534.85 501.71 C 534.83 500.85 534.59 500.01 534.15 499.27 C 533.72 498.53 533.10 497.91 532.36 497.47 C 508.30 483.17 483.02 481.09 456.53 491.21 C 445.09 495.60 440.77 503.31 443.59 514.37 C 444.05 516.18 445.23 517.24 447.12 517.52 Z" fill="#fba2b7" fill-rule="nonzero" node-id="166" stroke="none" target-height="82.38803" target-width="125.40103" target-x="424.499" target-y="474.598"></path><path d="M 443.59 514.37 C 440.77 503.31 445.09 495.60 456.53 491.21 C 483.02 481.09 508.30 483.17 532.36 497.47 C 533.10 497.91 533.72 498.53 534.15 499.27 C 534.59 500.01 534.83 500.85 534.85 501.71 C 534.87 502.57 534.67 503.43 534.28 504.19 C 533.88 504.95 533.29 505.60 532.57 506.08 C 521.45 513.42 509.10 516.97 495.51 516.72 C 493.66 516.68 491.99 517.16 490.49 518.16 C 489.42 518.84 488.30 519.45 487.12 519.98 C 486.12 520.44 485.00 520.67 483.75 520.67 C 471.45 520.50 459.24 519.45 447.12 517.52 C 445.23 517.24 444.05 516.18 443.59 514.37 Z" fill="#fdfbf5" fill-rule="nonzero" node-id="168" stroke="none" target-height="39.58899" target-width="94.09802" target-x="440.774" target-y="481.086"></path><path d="M 104.23 516.83 L 90.38 517.25 C 89.67 517.24 88.97 517.48 88.42 517.94 C 87.87 518.41 87.51 519.05 87.40 519.76 C 87.30 520.47 87.45 521.20 87.85 521.80 C 88.24 522.40 88.84 522.84 89.53 523.03 L 146.10 541.80 C 147.60 542.30 148.60 543.28 149.10 544.74 C 150.10 547.66 151.35 550.30 152.84 552.65 C 159.94 563.74 156.89 569.00 143.70 568.43 L 66.85 565.12 C 65.39 565.04 64.86 565.70 65.25 567.09 C 65.68 568.77 66.96 569.73 69.10 569.98 C 92.45 572.83 115.78 575.85 139.10 579.02 C 140.49 579.23 141.76 579.75 142.90 580.57 C 145.11 582.17 146.25 584.06 146.32 586.24 C 146.35 588.13 147.34 589.14 149.26 589.28 L 170.60 590.78 C 170.89 590.80 171.16 590.92 171.36 591.13 C 171.56 591.34 171.67 591.62 171.67 591.91 C 171.67 592.40 171.67 592.92 171.67 593.46 C 171.67 593.70 171.63 593.93 171.55 594.16 C 171.46 594.38 171.34 594.58 171.17 594.76 C 171.01 594.93 170.81 595.07 170.59 595.17 C 170.38 595.27 170.14 595.32 169.90 595.33 L 107.82 597.31 C 105.75 597.38 104.00 598.16 102.58 599.66 C 96.94 605.51 94.68 612.58 95.78 620.89 C 95.88 621.64 96.19 622.34 96.67 622.91 C 97.16 623.48 97.80 623.89 98.51 624.10 L 121.61 631.16 C 123.33 631.66 124.77 632.60 125.94 633.99 C 141.24 652.12 177.07 650.57 201.13 647.95 C 227.87 645.10 248.92 633.90 264.29 614.37 C 277.05 598.14 276.66 581.30 263.11 563.83 C 268.31 562.87 271.95 564.22 274.02 567.89 C 274.55 568.86 275.34 569.50 276.37 569.82 L 280.06 571.00 C 281.10 571.32 281.79 572.00 282.15 573.03 C 289.28 593.63 286.01 612.65 272.36 630.09 C 271.51 631.19 270.99 632.44 270.81 633.83 L 270.54 635.70 C 270.44 636.59 270.04 637.32 269.37 637.89 C 250.26 653.90 228.39 663.24 203.75 665.92 C 202.22 666.06 200.97 666.70 200.01 667.84 L 186.27 683.72 C 184.59 685.65 185.02 686.61 187.55 686.61 L 189.96 686.61 C 192.38 686.61 193.32 687.79 192.79 690.14 L 189.90 702.92 C 189.58 704.24 188.76 704.74 187.44 704.42 C 184.45 703.74 182.31 704.92 181.03 707.95 C 123.70 671.75 60.38 610.89 48.46 542.39 C 51.13 542.82 51.94 540.12 50.87 534.31 C 50.83 534.13 50.84 533.94 50.91 533.76 C 50.98 533.59 51.10 533.44 51.25 533.33 C 51.41 533.22 51.59 533.16 51.78 533.16 C 51.96 533.15 52.15 533.20 52.31 533.30 L 53.86 534.21 C 54.61 534.63 55.25 534.51 55.79 533.83 C 67.41 518.25 83.56 512.58 104.23 516.83 Z" fill="#fbf1e1" fill-rule="nonzero" node-id="170" stroke="none" target-height="195.36401" target-width="240.81801" target-x="48.459" target-y="512.584"></path><path d="M 104.23 516.83 L 174.07 539.45 L 174.34 542.60 C 174.41 543.85 175.05 544.67 176.26 545.06 L 224.82 560.09 C 226.35 560.59 227.07 560.03 226.96 558.43 L 226.37 550.89 C 239.13 558.16 251.13 562.32 262.36 563.35 C 265.78 561.32 266.03 561.48 263.11 563.83 C 276.66 581.30 277.05 598.14 264.29 614.37 C 248.92 633.90 227.87 645.10 201.13 647.95 C 177.07 650.57 141.24 652.12 125.94 633.99 C 124.77 632.60 123.33 631.66 121.61 631.16 L 98.51 624.10 C 97.80 623.89 97.16 623.48 96.67 622.91 C 96.19 622.34 95.88 621.64 95.78 620.89 C 94.68 612.58 96.94 605.51 102.58 599.66 C 104.00 598.16 105.75 597.38 107.82 597.31 L 169.90 595.33 C 170.14 595.32 170.38 595.27 170.59 595.17 C 170.81 595.07 171.01 594.93 171.17 594.76 C 171.34 594.58 171.46 594.38 171.55 594.16 C 171.63 593.93 171.67 593.70 171.67 593.46 C 171.67 592.92 171.67 592.40 171.67 591.90 C 171.67 591.62 171.56 591.34 171.36 591.13 C 171.16 590.92 170.88 590.80 170.60 590.78 L 149.26 589.28 C 147.34 589.14 146.35 588.13 146.32 586.24 C 146.25 584.06 145.11 582.17 142.90 580.57 C 141.76 579.75 140.49 579.23 139.10 579.02 C 115.78 575.85 92.45 572.83 69.10 569.98 C 66.96 569.73 65.68 568.77 65.25 567.09 C 64.86 565.70 65.39 565.04 66.85 565.11 L 143.70 568.43 C 156.89 569.00 159.94 563.74 152.84 552.65 C 151.35 550.30 150.10 547.66 149.10 544.74 C 148.60 543.28 147.60 542.30 146.10 541.80 L 89.53 523.03 C 88.84 522.84 88.24 522.40 87.85 521.80 C 87.45 521.20 87.30 520.47 87.40 519.76 C 87.51 519.05 87.87 518.40 88.42 517.94 C 88.97 517.48 89.67 517.24 90.38 517.25 L 104.23 516.83 Z" fill="#fce3d3" fill-rule="nonzero" node-id="172" stroke="none" target-height="135.29303" target-width="212.19101" target-x="64.858" target-y="516.826"></path><path d="M 710.33 519.02 C 696.57 537.24 675.30 541.26 646.53 531.10 C 646.04 530.93 645.61 530.61 645.31 530.19 C 645.00 529.77 644.83 529.27 644.82 528.75 C 644.82 527.00 645.76 526.04 647.65 525.86 C 667.83 533.56 688.72 531.28 710.33 519.02 Z" fill="#fcd9c8" fill-rule="nonzero" node-id="174" stroke="none" target-height="22.245972" target-width="65.50702" target-x="644.819" target-y="519.018"></path><path d="M 748.88 529.23 C 736.76 546.42 722.32 559.80 705.57 569.39 C 692.79 576.66 680.59 574.79 666.90 571.80 C 680.38 567.15 698.08 572.49 709.20 561.80 C 717.65 553.63 721.95 549.48 722.09 549.34 C 730.47 543.28 739.40 536.58 748.88 529.23 Z" fill="#fcd9c8" fill-rule="nonzero" node-id="176" stroke="none" target-height="47.432983" target-width="81.97803" target-x="666.904" target-y="529.232"></path><path d="M 194.02 538.22 L 226.37 550.89 L 226.96 558.43 C 227.07 560.03 226.35 560.59 224.82 560.09 L 176.26 545.06 C 175.05 544.67 174.41 543.85 174.34 542.60 L 174.07 539.45 C 185.52 542.12 192.17 541.71 194.02 538.22 Z" fill="#fcd9c8" fill-rule="nonzero" node-id="178" stroke="none" target-height="22.370972" target-width="52.994003" target-x="174.073" target-y="538.216"></path><path d="M 700.27 579.18 C 701.95 583.78 705.66 585.77 711.40 585.17 C 711.78 585.13 712.16 585.17 712.53 585.29 C 712.89 585.41 713.23 585.61 713.50 585.87 C 713.78 586.13 714.00 586.44 714.15 586.79 C 714.29 587.14 714.36 587.52 714.34 587.89 C 713.64 603.51 729.26 596.77 730.22 615.60 C 730.27 616.54 730.51 617.47 730.94 618.31 C 731.36 619.16 731.95 619.91 732.68 620.51 C 753.53 637.63 777.12 644.28 803.43 640.46 C 817.22 638.43 826.42 629.39 838.83 622.23 C 846.03 618.09 845.50 615.60 837.22 614.74 L 811.34 612.12 C 810.23 612.00 809.20 611.46 808.48 610.61 C 807.75 609.77 807.38 608.68 807.44 607.57 C 807.94 599.45 811.79 595.61 818.99 596.08 C 820.52 596.15 822.04 595.97 823.53 595.54 C 827.96 594.19 827.79 592.25 823.05 589.71 C 821.63 588.97 820.11 588.61 818.51 588.64 L 731.77 590.03 C 731.01 590.04 730.26 589.77 729.68 589.27 C 729.10 588.78 728.71 588.09 728.59 587.34 C 728.47 586.59 728.62 585.81 729.01 585.16 C 729.41 584.51 730.03 584.02 730.75 583.78 C 756.96 575.49 781.66 570.84 808.56 566.88 C 809.41 566.75 810.20 566.35 810.78 565.72 C 811.37 565.09 811.73 564.28 811.80 563.42 C 811.87 562.57 811.64 561.71 811.16 561.00 C 810.68 560.29 809.97 559.76 809.15 559.50 L 801.56 557.04 L 801.13 549.61 C 801.06 548.14 801.75 547.50 803.21 547.68 C 807.78 548.32 811.86 549.87 815.46 552.33 C 817.24 553.58 819.20 554.12 821.34 553.94 L 882.78 548.43 C 884.53 548.29 885.48 549.09 885.62 550.84 C 885.76 552.58 885.30 554.17 884.23 555.60 C 883.41 556.77 881.88 557.65 879.63 558.22 C 874.85 559.50 870.11 561.26 865.40 563.51 C 864.64 563.88 863.99 564.46 863.53 565.18 C 863.08 565.91 862.84 566.76 862.84 567.63 L 862.84 584.31 C 862.84 585.67 863.52 586.34 864.87 586.34 L 900.33 586.34 C 900.73 586.37 901.12 586.53 901.42 586.82 C 901.71 587.10 901.90 587.48 901.93 587.89 C 901.97 588.30 901.87 588.71 901.63 589.04 C 901.39 589.38 901.04 589.61 900.65 589.71 L 895.30 590.73 C 894.16 590.98 893.27 591.59 892.62 592.55 C 889.52 597.33 890.16 600.76 894.55 602.87 C 896.51 603.79 897.37 605.33 897.12 607.47 L 893.37 640.41 C 893.26 641.37 892.86 642.26 892.22 642.98 C 891.58 643.70 890.73 644.20 889.79 644.42 C 875.40 647.84 867.97 658.80 856.80 663.03 C 841.75 668.73 826.21 672.92 810.16 675.60 C 796.85 677.79 786.10 672.23 774.55 671.85 C 755.09 671.17 738.40 664.04 724.50 650.46 C 723.89 649.89 723.98 649.50 724.76 649.28 C 725.26 649.14 725.75 648.98 726.21 648.80 C 726.23 648.79 726.25 648.77 726.26 648.75 C 726.27 648.72 726.28 648.70 726.28 648.67 C 726.28 648.64 726.27 648.62 726.26 648.59 C 726.25 648.57 726.23 648.55 726.21 648.54 C 710.06 641.32 689.58 614.10 701.77 595.43 C 702.66 594.04 702.77 592.60 702.09 591.10 C 700.52 587.57 699.92 583.60 700.27 579.18 Z" fill="#fcecdc" fill-rule="nonzero" node-id="180" stroke="none" target-height="130.28503" target-width="212.396" target-x="689.578" target-y="547.503"></path><path d="M 801.56 557.04 L 809.15 559.50 C 809.97 559.76 810.68 560.28 811.16 561.00 C 811.64 561.71 811.87 562.57 811.80 563.42 C 811.73 564.28 811.37 565.09 810.78 565.72 C 810.20 566.35 809.41 566.75 808.56 566.88 C 781.66 570.84 756.96 575.49 730.75 583.78 C 730.03 584.02 729.41 584.51 729.01 585.16 C 728.62 585.81 728.47 586.59 728.59 587.34 C 728.71 588.09 729.10 588.78 729.68 589.27 C 730.27 589.77 731.01 590.04 731.77 590.03 L 818.51 588.64 C 820.11 588.61 821.63 588.96 823.05 589.71 C 827.79 592.24 827.96 594.19 823.53 595.54 C 822.04 595.97 820.52 596.15 818.99 596.08 C 811.79 595.61 807.94 599.45 807.44 607.57 C 807.38 608.68 807.75 609.77 808.48 610.61 C 809.20 611.46 810.23 612.00 811.34 612.12 L 837.22 614.74 C 845.50 615.60 846.03 618.09 838.83 622.23 C 826.42 629.39 817.22 638.43 803.43 640.46 C 777.12 644.28 753.53 637.63 732.68 620.51 C 731.95 619.91 731.36 619.16 730.94 618.31 C 730.51 617.47 730.27 616.54 730.22 615.60 C 729.26 596.77 713.64 603.51 714.34 587.89 C 714.36 587.52 714.29 587.14 714.15 586.79 C 714.00 586.44 713.78 586.13 713.50 585.87 C 713.23 585.61 712.89 585.41 712.53 585.29 C 712.16 585.17 711.78 585.13 711.40 585.17 C 705.66 585.77 701.95 583.78 700.27 579.18 C 699.63 579.28 699.01 579.38 698.40 579.45 L 743.64 566.34 C 764.28 565.60 783.59 562.49 801.56 557.04 Z" fill="#fcd9c8" fill-rule="nonzero" node-id="182" stroke="none" target-height="87.23602" target-width="147.62805" target-x="698.402" target-y="557.04"></path><path d="M 717.01 566.99 C 716.83 569.02 718.65 569.59 722.47 568.70 C 719.90 570.84 717.17 572.17 714.28 572.71 C 712.39 573.06 711.81 572.35 712.52 570.57 C 713.09 569.14 714.59 567.95 717.01 566.99 Z" fill="#b4aaa6" fill-rule="nonzero" node-id="184" stroke="none" target-height="6.078003" target-width="10.658997" target-x="711.806" target-y="566.986"></path><path d="M 516.59 628.05 C 514.98 627.20 513.95 625.93 513.48 624.26 C 515.62 623.23 516.23 621.71 515.30 619.71 C 509.60 607.56 501.27 595.72 490.33 584.21 C 489.08 582.89 487.69 582.74 486.16 583.78 C 474.21 591.87 467.44 603.06 465.84 617.36 C 463.95 620.39 463.73 623.15 465.19 625.65 C 467.01 638.22 474.50 677.84 488.83 686.45 C 489.62 686.93 490.52 687.19 491.44 687.19 C 492.36 687.19 493.25 686.93 494.02 686.45 C 498.65 683.67 501.81 679.70 503.48 674.52 C 503.88 674.60 504.29 674.69 504.71 674.79 C 503.25 683.10 499.19 688.61 492.52 691.32 C 491.72 691.63 490.85 691.77 489.98 691.72 C 489.11 691.66 488.26 691.41 487.49 691.00 C 471.40 682.33 462.04 636.99 457.17 619.45 C 456.65 617.69 456.79 615.81 457.55 614.15 C 463.64 600.50 472.29 588.50 483.48 578.16 C 484.27 577.44 485.19 576.90 486.20 576.57 C 487.21 576.24 488.28 576.12 489.34 576.23 C 490.40 576.35 491.43 576.68 492.36 577.21 C 493.28 577.75 494.08 578.47 494.71 579.34 L 523.32 619.34 C 524.53 621.01 524.53 622.67 523.32 624.31 C 522.00 626.13 519.76 627.38 516.59 628.05 Z" fill="#170f0a" fill-rule="nonzero" node-id="186" stroke="none" target-height="115.64899" target-width="67.879974" target-x="456.655" target-y="576.123"></path><path d="M 513.48 624.26 L 495.03 601.64 C 494.10 600.48 492.89 599.56 491.52 598.97 C 490.15 598.38 488.65 598.14 487.17 598.26 C 485.68 598.38 484.25 598.86 482.99 599.67 C 481.73 600.47 480.69 601.57 479.95 602.87 C 476.35 609.21 471.65 614.04 465.84 617.36 C 467.44 603.06 474.21 591.87 486.16 583.78 C 487.69 582.74 489.08 582.89 490.33 584.21 C 501.27 595.72 509.60 607.56 515.30 619.71 C 516.23 621.71 515.62 623.22 513.48 624.26 Z" fill="#412d27" fill-rule="nonzero" node-id="188" stroke="none" target-height="41.515015" target-width="50.39203" target-x="465.836" target-y="582.743"></path><path d="M 513.48 624.26 C 513.95 625.93 514.98 627.20 516.59 628.05 C 513.98 629.62 512.64 631.32 512.57 633.13 C 512.11 647.36 509.49 661.25 504.71 674.79 C 504.29 674.69 503.88 674.60 503.48 674.52 L 508.72 643.19 C 509.00 641.54 508.93 639.86 508.52 638.24 C 508.12 636.62 507.39 635.10 506.38 633.77 C 505.37 632.45 504.10 631.34 502.64 630.52 C 501.19 629.70 499.58 629.19 497.92 629.02 L 465.19 625.65 C 463.73 623.15 463.95 620.39 465.84 617.36 C 471.65 614.04 476.35 609.21 479.95 602.87 C 480.69 601.57 481.73 600.47 482.99 599.67 C 484.25 598.86 485.68 598.38 487.17 598.26 C 488.65 598.14 490.15 598.38 491.52 598.97 C 492.89 599.56 494.10 600.48 495.03 601.64 L 513.48 624.26 Z" fill="#c6626b" fill-rule="nonzero" node-id="190" stroke="none" target-height="76.65497" target-width="52.85202" target-x="463.733" target-y="598.137"></path><path d="M 503.48 674.52 C 501.81 679.70 498.65 683.67 494.02 686.45 C 493.25 686.93 492.36 687.19 491.44 687.19 C 490.52 687.19 489.62 686.93 488.83 686.45 C 474.50 677.84 467.01 638.22 465.19 625.65 L 497.92 629.02 C 499.58 629.19 501.19 629.70 502.64 630.52 C 504.10 631.34 505.37 632.45 506.38 633.77 C 507.39 635.10 508.12 636.62 508.52 638.24 C 508.93 639.86 509.00 641.54 508.72 643.19 L 503.48 674.52 Z" fill="#fba2b7" fill-rule="nonzero" node-id="192" stroke="none" target-height="61.541016" target-width="43.799988" target-x="465.195" target-y="625.648"></path><path d="M 491.02 843.94 L 481.82 880.73 C 481.75 880.92 481.62 881.08 481.44 881.18 C 481.27 881.28 481.06 881.31 480.86 881.27 C 480.66 881.23 480.48 881.12 480.36 880.97 C 480.23 880.81 480.16 880.61 480.17 880.41 L 484.71 853.72 L 487.33 806.02 C 487.32 805.89 487.36 805.76 487.44 805.66 C 487.53 805.57 487.65 805.51 487.79 805.51 C 487.92 805.51 488.06 805.57 488.16 805.66 C 488.27 805.76 488.33 805.89 488.35 806.02 L 491.02 843.94 Z" fill="#aaa1a1" fill-rule="nonzero" node-id="194" stroke="none" target-height="75.797" target-width="10.861023" target-x="480.162" target-y="805.512"></path><path d="M 670.38 832.44 C 647.39 865.06 608.29 948.16 662.52 970.46 C 667.76 972.74 671.70 972.92 674.34 970.99 L 685.73 972.65 C 686.59 972.77 687.46 972.60 688.20 972.15 C 688.94 971.70 689.50 971.01 689.79 970.19 L 698.99 943.29 C 699.49 941.80 700.49 941.30 701.98 941.80 C 702.59 942.01 703.18 942.21 703.75 942.38 C 703.82 942.41 703.88 942.45 703.93 942.49 C 703.98 942.54 704.03 942.60 704.06 942.66 C 704.09 942.73 704.10 942.80 704.11 942.87 C 704.11 942.94 704.10 943.01 704.07 943.08 C 700.36 951.78 698.17 960.80 697.49 970.14 C 697.38 971.92 698.22 972.90 700.00 973.08 C 717.23 974.75 731.63 969.82 743.21 958.27 C 745.03 961.23 748.60 962.40 753.91 961.80 C 729.15 989.39 646.90 995.11 630.70 951.96 C 630.02 950.25 628.78 949.48 626.96 949.66 L 564.87 955.59 C 519.38 955.74 474.23 953.17 429.42 947.89 C 430.24 943.51 431.65 940.35 433.64 938.43 C 491.29 948.64 566.37 955.16 623.48 940.09 C 625.26 939.62 626.12 938.46 626.05 936.61 C 624.66 894.72 639.44 860.00 670.38 832.44 Z" fill="#170f0a" fill-rule="nonzero" node-id="196" stroke="none" target-height="162.672" target-width="324.49" target-x="429.419" target-y="832.439"></path><path d="M 468.88 836.50 L 474.07 853.72 C 473.38 861.48 478.67 895.00 477.87 897.04 C 477.16 898.82 476.48 898.80 475.84 896.98 C 469.35 878.37 467.03 858.21 468.88 836.50 Z" fill="#aaa1a1" fill-rule="nonzero" node-id="198" stroke="none" target-height="62.317017" target-width="11.639984" target-x="467.031" target-y="836.503"></path><path d="M 262.63 857.79 C 243.66 868.70 240.04 885.97 251.77 909.61 C 249.05 916.18 255.36 918.53 254.66 923.99 C 254.45 925.59 253.48 926.79 251.77 927.57 C 235.25 910.25 227.28 876.02 221.45 852.65 C 220.78 849.87 221.83 848.78 224.61 849.39 L 262.63 857.79 Z" fill="#cec3b9" fill-rule="nonzero" node-id="200" stroke="none" target-height="78.78705" target-width="41.854004" target-x="220.775" target-y="848.785"></path><path d="M 212.20 855.00 C 222.15 887.52 231.03 928.53 264.66 945.06 C 291.40 958.16 340.70 968.48 366.59 950.46 C 372.79 946.13 375.41 937.04 386.48 939.76 C 402.70 943.76 417.01 946.47 429.42 947.89 C 474.23 953.17 519.38 955.74 564.87 955.59 L 549.10 956.72 C 548.77 956.74 548.45 956.86 548.19 957.05 C 547.92 957.25 547.72 957.51 547.59 957.82 C 547.47 958.13 547.44 958.46 547.50 958.79 C 547.55 959.11 547.70 959.41 547.92 959.66 L 550.97 963.08 C 552.57 964.90 552.59 966.73 551.02 968.59 C 536.00 986.29 552.09 1001.58 557.98 1018.05 C 438.14 1020.30 306.53 1015.27 190.38 983.56 C 162.31 975.91 52.15 940.25 114.98 891.96 C 140.71 872.17 180.44 861.85 212.20 855.00 Z" fill="#b4aaa6" fill-rule="nonzero" node-id="202" stroke="none" target-height="165.29498" target-width="512.724" target-x="52.149" target-y="855.005"></path><path d="M 793.86 996.18 C 787.87 978.57 777.78 962.79 763.59 948.86 C 775.50 926.50 783.91 903.13 788.83 878.75 C 789.22 876.93 790.25 875.63 791.93 874.85 L 807.81 867.84 C 813.77 868.77 820.29 867.82 827.38 865.00 C 829.13 864.29 830.90 864.22 832.68 864.79 C 855.03 871.90 953.96 900.83 926.48 943.29 C 908.77 970.78 824.98 991.37 793.86 996.18 Z" fill="#d7cab8" fill-rule="nonzero" node-id="204" stroke="none" target-height="131.96002" target-width="190.37299" target-x="763.588" target-y="864.221"></path><path d="M 736.74 943.40 C 736.41 943.27 736.13 943.01 735.98 942.68 C 735.83 942.35 735.82 941.98 735.94 941.64 L 736.15 941.05 C 738.34 935.20 740.60 929.45 742.81 924.12 C 745.02 918.79 747.13 913.99 749.02 910.00 C 750.92 906.00 752.55 902.89 753.84 900.84 C 755.13 898.79 756.04 897.84 756.53 898.05 L 757.71 898.48 C 758.21 898.64 758.28 899.95 757.90 902.35 C 757.53 904.74 756.73 908.16 755.53 912.42 C 754.34 916.68 752.79 921.69 750.96 927.16 C 749.13 932.63 747.06 938.46 744.87 944.31 L 744.66 944.90 C 744.59 945.07 744.49 945.23 744.37 945.36 C 744.24 945.50 744.09 945.61 743.92 945.68 C 743.75 945.76 743.57 945.80 743.38 945.80 C 743.20 945.80 743.01 945.77 742.84 945.70 L 736.74 943.40 Z" fill="#cec3b9" fill-rule="nonzero" node-id="206" stroke="none" target-height="47.958008" target-width="22.459045" target-x="735.819" target-y="897.844"></path><path d="M 251.77 909.60 C 256.94 915.74 259.58 923.04 259.69 931.53 C 256.12 931.78 253.48 930.46 251.77 927.57 C 253.48 926.79 254.45 925.59 254.66 923.99 C 255.36 918.53 249.05 916.18 251.77 909.60 Z" fill="#bda194" fill-rule="nonzero" node-id="208" stroke="none" target-height="22.174011" target-width="10.641006" target-x="249.046" target-y="909.604"></path><path d="M 673.11 968.59 C 670.50 969.12 668.24 968.71 666.32 967.36 C 663.29 959.73 662.55 951.90 664.12 943.88 C 664.25 943.14 664.64 942.46 665.23 941.99 C 665.82 941.51 666.56 941.27 667.32 941.30 C 668.07 941.33 668.79 941.64 669.33 942.16 C 669.88 942.69 670.21 943.39 670.27 944.15 L 673.11 968.59 Z" fill="#2e1e1b" fill-rule="nonzero" node-id="210" stroke="none" target-height="27.85498" target-width="10.5529785" target-x="662.555" target-y="941.267"></path><path d="M 730.17 949.66 C 730.20 948.62 730.66 947.70 731.56 946.88 C 732.73 945.84 733.32 946.11 733.32 947.68 C 733.21 955.31 730.84 962.15 726.21 968.21 C 725.94 968.56 725.57 968.81 725.14 968.93 C 724.72 969.04 724.27 969.01 723.86 968.84 C 723.46 968.66 723.12 968.36 722.91 967.98 C 722.69 967.60 722.61 967.15 722.68 966.72 C 723.68 960.30 726.17 954.61 730.17 949.66 Z" fill="#412d27" fill-rule="nonzero" node-id="212" stroke="none" target-height="23.195984" target-width="10.708008" target-x="722.613" target-y="945.843"></path><path d="M 763.59 948.86 C 777.78 962.79 787.87 978.57 793.86 996.18 C 715.42 1010.44 636.80 1017.73 557.98 1018.05 C 552.09 1001.58 536.00 986.29 551.02 968.59 C 552.59 966.73 552.57 964.90 550.97 963.08 L 547.92 959.66 C 547.70 959.41 547.55 959.11 547.50 958.79 C 547.44 958.46 547.47 958.13 547.59 957.82 C 547.72 957.51 547.92 957.25 548.19 957.05 C 548.45 956.86 548.77 956.74 549.10 956.72 L 564.87 955.59 L 626.96 949.66 C 628.78 949.48 630.02 950.25 630.70 951.96 C 646.90 995.11 729.15 989.39 753.91 961.80 L 763.59 948.86 Z" fill="#cec3b9" fill-rule="nonzero" node-id="214" stroke="none" target-height="69.19501" target-width="257.86005" target-x="535.996" target-y="948.855"></path><path d="M 679.68 964.63 C 679.47 962.78 680.27 961.46 682.09 960.67 C 682.43 960.51 682.82 960.46 683.19 960.52 C 683.57 960.59 683.91 960.77 684.17 961.04 C 684.44 961.31 684.61 961.66 684.67 962.04 C 684.73 962.41 684.67 962.79 684.50 963.13 C 683.25 965.74 681.45 967.59 679.10 968.69 C 678.88 968.79 678.63 968.81 678.40 968.75 C 678.17 968.68 677.97 968.54 677.84 968.34 C 677.70 968.14 677.64 967.90 677.67 967.66 C 677.69 967.42 677.80 967.20 677.97 967.04 L 679.31 965.75 C 679.60 965.43 679.72 965.06 679.68 964.63 Z" fill="#b4aaa6" fill-rule="nonzero" node-id="216" stroke="none" target-height="8.354004" target-width="7.0859985" target-x="677.643" target-y="960.457"></path><path d="M 666.32 967.36 C 668.24 968.71 670.50 969.12 673.11 968.59 C 673.07 969.26 673.48 970.07 674.34 970.99 C 671.70 972.92 667.76 972.74 662.52 970.46 C 665.73 970.32 666.99 969.28 666.32 967.36 Z" fill="#bda194" fill-rule="nonzero" node-id="218" stroke="none" target-height="5.561035" target-width="11.817993" target-x="662.52" target-y="967.358"></path></g></svg>