<?xml version="1.0" standalone="no"?><!DOCTYPE svg PUBLIC "-//W3C//DTD SVG 1.1//EN" "http://www.w3.org/Graphics/SVG/1.1/DTD/svg11.dtd"><svg t="1700120405202" class="icon" viewBox="0 0 1024 1024" version="1.1" xmlns="http://www.w3.org/2000/svg" p-id="7615" xmlns:xlink="http://www.w3.org/1999/xlink" width="200" height="200"><path d="M713.216 516.608a139.776 139.776 0 1 0 139.264 139.776 141.824 141.824 0 0 0-139.264-139.776zM812.544 716.8h-119.296v-160.256h39.936v119.808h79.36z" fill="#27A3FF" p-id="7616"></path><path d="M713.216 476.672h19.968V277.504h-79.872v39.936H614.4v-39.936H414.208v39.936h-39.936v-39.936H294.4v478.208H563.2a179.2 179.2 0 0 1 149.504-279.04z m-378.88-79.872h358.4v39.936h-358.4z m0 119.808h199.168v39.936H334.336z m159.232 159.744H334.336v-39.936h159.232z" fill="#27A3FF" p-id="7617"></path><path d="M921.6 0H102.4a102.4 102.4 0 0 0-102.4 102.4v819.2a102.4 102.4 0 0 0 102.4 102.4h819.2a102.4 102.4 0 0 0 102.4-102.4V102.4a102.4 102.4 0 0 0-102.4-102.4z m-208.384 835.584a178.176 178.176 0 0 1-112.128-39.936H256V237.568h118.272v-39.936h39.936v39.936H614.4v-39.936h39.936v39.936h118.784v249.856a179.2 179.2 0 0 1-59.904 348.16z" fill="#27A3FF" p-id="7618"></path></svg>