<?xml version="1.0" standalone="no"?><!DOCTYPE svg PUBLIC "-//W3C//DTD SVG 1.1//EN" "http://www.w3.org/Graphics/SVG/1.1/DTD/svg11.dtd"><svg t="1700637718212" class="icon" viewBox="0 0 1024 1024" version="1.1" xmlns="http://www.w3.org/2000/svg" p-id="3134" xmlns:xlink="http://www.w3.org/1999/xlink" width="200" height="200"><path d="M369.873514 735.363184l0 81.225953 284.245809 0 0-81.225953L369.873514 735.363184 369.873514 735.363184zM918.099576 146.509818 105.894284 146.509818c-22.424732 0-40.59865 18.174941-40.59865 40.59558l0 487.335251c0 22.415522 18.173918 40.619116 40.59865 40.619116l812.205293 0c22.425755 0 40.602743-18.203594 40.602743-40.619116L958.70232 187.105399C958.70232 164.68476 940.525332 146.509818 918.099576 146.509818L918.099576 146.509818zM512.260431 689.039135c-8.636704 0-15.618723-6.980995-15.618723-15.620769 0-8.602935 6.980995-15.58393 15.618723-15.58393 8.577353 0 15.559371 6.980995 15.559371 15.58393C527.819802 682.058141 520.837784 689.039135 512.260431 689.039135L512.260431 689.039135zM918.099576 633.838929 105.894284 633.838929 105.894284 187.105399l812.205293 0L918.099576 633.838929 918.099576 633.838929zM790.254863 386.321626c25.708522 0 46.534849-20.852934 46.534849-46.532803 0-25.708522-20.826328-46.531779-46.534849-46.531779s-46.532803 20.823258-46.532803 46.531779C743.72206 365.468692 764.546342 386.321626 790.254863 386.321626L790.254863 386.321626zM290.654264 877.489158l442.689425 0 0-40.599673L290.654264 836.889485 290.654264 877.489158 290.654264 877.489158zM633.301182 386.321626c25.707498 0 46.533826-20.852934 46.533826-46.532803 0-25.708522-20.826328-46.531779-46.533826-46.531779s-46.532803 20.823258-46.532803 46.531779C586.768379 365.468692 607.593683 386.321626 633.301182 386.321626L633.301182 386.321626zM188.545702 458.733842l65.433268 0 0 65.407686c0 14.421454 11.691273 26.169009 26.115797 26.169009l26.178219 0c14.452153 0 26.199709-11.747555 26.199709-26.169009l0-65.407686 65.349357 0c14.483876 0 26.173103-11.719926 26.173103-26.145473l0-26.172079c0-14.423501-11.689227-26.14445-26.173103-26.14445l-65.349357 0 0-65.404616c0-14.427594-11.747555-26.178219-26.199709-26.178219l-26.178219 0c-14.424524 0-26.115797 11.750625-26.115797 26.178219l0 65.404616-65.433268 0c-14.425547 0-26.145473 11.720949-26.145473 26.14445l0 26.172079C162.400229 447.013917 174.120155 458.733842 188.545702 458.733842L188.545702 458.733842zM580.982606 543.274284c25.706475 0 46.532803-20.817118 46.532803-46.52564 0-25.711592-20.826328-46.536896-46.532803-46.536896-25.707498 0-46.532803 20.825304-46.532803 46.536896C534.449803 522.457166 555.275107 543.274284 580.982606 543.274284L580.982606 543.274284zM737.936287 543.274284c25.706475 0 46.534849-20.817118 46.534849-46.52564 0-25.711592-20.828374-46.536896-46.534849-46.536896-25.709545 0-46.532803 20.825304-46.532803 46.536896C691.403484 522.457166 712.226742 543.274284 737.936287 543.274284L737.936287 543.274284zM737.936287 543.274284" fill="#515151" p-id="3135"></path></svg>