<?xml version="1.0" standalone="no"?><!DOCTYPE svg PUBLIC "-//W3C//DTD SVG 1.1//EN" "http://www.w3.org/Graphics/SVG/1.1/DTD/svg11.dtd"><svg t="1700120437869" class="icon" viewBox="0 0 1069 1024" version="1.1" xmlns="http://www.w3.org/2000/svg" p-id="8674" xmlns:xlink="http://www.w3.org/1999/xlink" width="208.7890625" height="200"><path d="M589.026549 45.490973v888.070797a444.035398 444.035398 0 0 0 0-888.070797z" fill="#A5D6DD" p-id="8675"></path><path d="M1069.309735 489.345133a489.345133 489.345133 0 0 0-978.690266 0h54.371681a434.973451 434.973451 0 1 1 451.103717 434.973451v-45.309734l-124.873628 72.495575 125.598584 72.495575V978.690265A489.345133 489.345133 0 0 0 1069.309735 489.345133z" fill="#006271" p-id="8676"></path><path d="M598.088496 489.345133m-45.309735 0a45.309735 45.309735 0 1 0 90.619469 0 45.309735 45.309735 0 1 0-90.619469 0Z" fill="#006271" p-id="8677"></path><path d="M561.840708 117.80531h54.371681v126.867256h-54.371681zM742.825912 681.585274l38.440778-38.458902 89.713275 89.713274-38.440779 38.440779zM307.163752 245.886867l38.458903-38.458902 89.713274 89.713274-38.458902 38.440779zM742.844035 297.159363l89.713275-89.713275 38.440778 38.458903-89.713274 89.713274zM833.699115 462.159292h126.867257v54.371681h-126.867257zM453.097345 663.87823c0-64.88354-117.261593-94.425487-226.186195-94.425487S0 598.99469 0 663.87823v256.271858h54.371681v-64.158584a436.423363 436.423363 0 0 0 172.539469 30.629381A437.873274 437.873274 0 0 0 398.725664 856.353982v63.25239c-4.712212 11.780531-62.527434 40.96-171.995752 40.96S59.265133 931.205664 54.371681 920.693805H0C0 985.396106 117.80531 1014.938053 226.91115 1014.938053S453.097345 985.396106 453.097345 920.693805l-50.928141-1.087433H453.097345v-253.734514a12.324248 12.324248 0 0 0 0-1.993628z m-226.186195-40.053805c106.568496 0 164.202478 27.729558 171.452036 40.053805-7.249558 12.143009-64.88354 39.872566-171.452036 39.872566s-164.202478-27.729558-171.633274-39.872566c7.430796-11.418053 64.88354-40.053805 171.633274-40.053805z m0 208.424779c-109.830796 0-167.646018-29.360708-171.995752-40.053806H54.371681v-64.521062a436.423363 436.423363 0 0 0 172.539469 30.448142A437.873274 437.873274 0 0 0 398.725664 727.855575v63.614867c-5.07469 11.780531-62.889912 40.778761-171.814514 40.778762z" fill="#006271" p-id="8678"></path></svg>