<?xml version="1.0" standalone="no"?><!DOCTYPE svg PUBLIC "-//W3C//DTD SVG 1.1//EN" "http://www.w3.org/Graphics/SVG/1.1/DTD/svg11.dtd"><svg t="1668482327424" class="icon" viewBox="0 0 1024 1024" version="1.1" xmlns="http://www.w3.org/2000/svg" p-id="33075" xmlns:xlink="http://www.w3.org/1999/xlink" width="200" height="200"><path d="M759.619368 64.242526a23.282526 23.282526 0 0 0-30.234947 5.685895 267.075368 267.075368 0 0 1-35.031579 37.106526 22.662737 22.662737 0 0 0-1.886316 32.336842 22.932211 22.932211 0 0 0 5.928421 4.71579 384.646737 384.646737 0 1 1-372.978526 0 22.689684 22.689684 0 0 0 8.81179-31.097263 23.228632 23.228632 0 0 0-4.796632-5.847579 272.168421 272.168421 0 0 1-35.031579-37.160421 23.228632 23.228632 0 0 0-30.181053-5.658948 485.214316 485.214316 0 1 0 495.400421-0.080842z m-274.863157 517.066106h54.379789a22.932211 22.932211 0 0 0 23.066947-22.824421V83.914105a22.932211 22.932211 0 0 0-23.066947-22.824421h-54.379789a22.959158 22.959158 0 0 0-23.093895 22.824421v474.677895a22.959158 22.959158 0 0 0 23.066947 22.824421z" p-id="33076"></path></svg>