<?xml version="1.0" standalone="no"?><!DOCTYPE svg PUBLIC "-//W3C//DTD SVG 1.1//EN" "http://www.w3.org/Graphics/SVG/1.1/DTD/svg11.dtd"><svg t="1700637675826" class="icon" viewBox="0 0 1024 1024" version="1.1" xmlns="http://www.w3.org/2000/svg" p-id="1184" xmlns:xlink="http://www.w3.org/1999/xlink" width="200" height="200"><path d="M339.452514 384.5318h381.782477c41.458646-156.272572-85.709119-216.366669-85.709119-216.366669L541.022494 48.186323v95.829496C319.979513 167.536969 335.61375 320.319756 335.61375 320.319756h-3.071011" fill="#DB7A75" p-id="1185"></path><path d="M339.452514 384.5318h381.782477c41.458646-156.272572-85.709119-216.366669-85.709119-216.366669L541.022494 48.186323v95.829496C319.979513 167.536969 335.61375 320.319756 335.61375 320.319756h-3.071011" fill="#DB7A75" p-id="1186"></path><path d="M662.81599 210.461325c17.309334 41.87742 25.684817 98.830711 6.491 174.070475h51.369635c9.841194-38.597022 12.702817-73.913646 3.768968-103.367432a206.525475 206.525475 0 0 0-19.682387-47.530871 205.618131 205.618131 0 0 0-16.89056-23.172172z" fill="#DB7A75" p-id="1187"></path><path d="M662.81599 210.461325c17.309334 41.87742 25.684817 98.830711 6.491 174.070475h51.369635c9.841194-38.597022 12.702817-73.913646 3.768968-103.367432a206.525475 206.525475 0 0 0-19.682387-47.530871 205.618131 205.618131 0 0 0-16.89056-23.172172z" fill="#DB7A75" p-id="1188"></path><path d="M339.452514 384.5318h381.782477c41.458646-156.272572-85.709119-216.366669-85.709119-216.366669L541.022494 48.186323v95.829496C319.979513 167.536969 335.61375 320.319756 335.61375 320.319756h-3.071011" fill="#FFD80A" p-id="1189"></path><path d="M662.81599 210.461325c17.309334 41.87742 25.684817 98.830711 6.491 174.070475h51.369635c9.841194-38.597022 12.702817-73.913646 3.768968-103.367432a206.525475 206.525475 0 0 0-19.682387-47.530871 205.618131 205.618131 0 0 0-16.89056-23.172172z" fill="#FE8400" p-id="1190"></path><path d="M803.942895 1010.04086v-183.143916c0-62.81613-40.062732-137.63712-94.014808-161.577045v-230.325809c0-86.407076-65.88714-157.11012-146.570969-157.110119l-64.979796 47.810054-29.104807-47.530872c-80.614033 0-146.570969 70.703044-146.570969 157.11012v236.607422c-51.579022 29.104807-93.945012 97.155614-93.945012 155.016249v183.143916z" fill="#F6D1BE" p-id="1191"></path><path d="M709.928087 665.319899v-230.325809c0-86.407076-65.88714-157.11012-146.570969-157.110119h-36.154172c80.544237 0 146.570969 70.703044 146.570969 157.110119v230.325809c53.952076 23.939925 93.945012 98.691119 93.945012 161.577045v183.143916h36.223968v-183.143916c0-62.885925-40.341914-137.63712-94.014808-161.577045z" fill="#FEB3AD" p-id="1192"></path><path d="M816.436325 867.86702a13.95914 13.95914 0 0 1-13.95914-13.95914v-28.546441c0-60.512872-42.645172-129.261636-93.037668-150.13055a13.95914 13.95914 0 0 1-8.654666-12.912205V430.317779A146.570969 146.570969 0 0 0 563.496709 286.189659a102.878861 102.878861 0 0 0-9.980785 15.494645c-2.163667 3.768968-3.978355 6.97957-5.793043 9.562011l-1.814688 2.442849c-8.44528 11.655882-20.031366 27.91828-36.852129 32.524796-22.823194 6.560796-44.110882-13.540366-63.374496-59.745118 0-0.558366-0.48857-1.116731-0.697957-1.605302-4.53672 0-18.216678 1.535505-44.878634 12.563226A151.456668 151.456668 0 0 0 353.202266 328.067079a143.709346 143.709346 0 0 0-43.692108 102.320495v238.631497a13.95914 13.95914 0 0 1-7.468139 12.353839 170.371303 170.371303 0 0 0-40.272119 30.221538 13.95914 13.95914 0 0 1-19.682388-19.682387 198.080196 198.080196 0 0 1 39.504367-31.059086v-230.325809a171.837013 171.837013 0 0 1 52.137387-122.351862 175.536185 175.536185 0 0 1 55.83656-36.642742c50.252904-20.93871 65.817345-15.564441 73.84385-8.584871a32.106022 32.106022 0 0 1 8.096301 12.353839c16.053011 38.666818 27.91828 44.459861 29.942355 43.901495 7.607731-2.163667 16.262398-13.95914 21.985646-22.055441l1.884484-2.582441c0.837548-1.186527 2.512645-4.117946 4.04815-6.97957 7.747323-13.95914 17.239538-30.710108 33.292549-29.802764 93.037668 5.51386 166.04397 81.242194 166.04397 172.53497v223.346239c56.8137 28.755828 101.692334 103.576818 101.692334 171.976604v28.546441a13.95914 13.95914 0 0 1-13.95914 13.679957zM816.436325 925.099494a13.95914 13.95914 0 0 1-13.95914-13.95914v-19.333409a13.95914 13.95914 0 0 1 27.91828 0v19.333409a13.95914 13.95914 0 0 1-13.95914 13.95914zM816.436325 1024H193.92848a13.95914 13.95914 0 0 1-13.95914-13.95914v-184.679421a149.781571 149.781571 0 0 1 6.421204-41.87742 13.96612 13.96612 0 0 1 26.801549 7.886914 120.188195 120.188195 0 0 0-5.304473 34.199893v170.720281h594.589565v-46.204753a13.95914 13.95914 0 1 1 27.91828 0v60.163893a13.95914 13.95914 0 0 1-13.95914 13.749753zM215.983921 763.17347a13.95914 13.95914 0 0 1-6.97957-1.744892 13.95914 13.95914 0 0 1-5.374269-18.98443 208.549551 208.549551 0 0 1 13.330979-20.93871 14.098731 14.098731 0 0 1 23.172172 16.053011 199.685497 199.685497 0 0 0-11.655882 18.49586 13.95914 13.95914 0 0 1-12.49343 7.119161z" p-id="1193"></path><path d="M280.405352 1024a13.95914 13.95914 0 0 1-13.95914-13.95914v-143.499958a13.95914 13.95914 0 0 1 27.91828 0v143.499958a13.95914 13.95914 0 0 1-13.95914 13.95914zM733.728421 1024a13.95914 13.95914 0 0 1-13.95914-13.95914v-143.499958a13.95914 13.95914 0 0 1 27.91828 0v143.499958a13.95914 13.95914 0 0 1-13.95914 13.95914zM967.892993 1024h-20.170957a13.95914 13.95914 0 0 1 0-27.91828h20.170957a13.95914 13.95914 0 0 1 0 27.91828zM899.144229 1024h-15.843624a13.95914 13.95914 0 0 1 0-27.91828h15.843624a13.95914 13.95914 0 0 1 0 27.91828z" p-id="1194"></path><path d="M850.496627 1024H119.10749a13.95914 13.95914 0 0 1 0-27.91828h731.389137a13.95914 13.95914 0 0 1 0 27.91828z" p-id="1195"></path><path d="M421.741643 451.047101m-9.771398 0a9.771398 9.771398 0 1 0 19.542796 0 9.771398 9.771398 0 1 0-19.542796 0Z" p-id="1196"></path><path d="M602.372914 450.558531m-9.771398 0a9.771398 9.771398 0 1 0 19.542796 0 9.771398 9.771398 0 1 0-19.542796 0Z" p-id="1197"></path><path d="M441.982396 482.245779h-58.977366a3.559581 3.559581 0 0 1-3.489785-3.489785v-56.394925a3.489785 3.489785 0 0 1 3.489785-3.489785h58.977366a3.489785 3.489785 0 0 1 3.489785 3.489785v56.394925a3.559581 3.559581 0 0 1-3.489785 3.489785z m-55.836559-6.97957h51.997796V425.781058h-51.439431zM618.844699 482.245779h-58.90757a3.489785 3.489785 0 0 1-3.489785-3.489785v-56.394925a3.489785 3.489785 0 0 1 3.489785-3.489785h58.90757a3.489785 3.489785 0 0 1 3.489785 3.489785v56.394925a3.559581 3.559581 0 0 1-3.489785 3.489785z m-55.417785-6.97957h51.928V425.781058h-51.928z" p-id="1198"></path><path d="M559.937129 454.536886a3.629376 3.629376 0 0 1-1.46571 0c-52.207183-23.451355-114.674335-0.697957-115.302496-0.418774a3.489785 3.489785 0 0 1-4.466925-2.093871 3.419989 3.419989 0 0 1 2.024076-4.466925c2.652237-0.97714 65.747549-24.009721 120.606969 0.628162a3.489785 3.489785 0 0 1 1.744892 4.606516 3.419989 3.419989 0 0 1-3.140806 1.744892z" p-id="1199"></path><path d="M425.85959 446.998951a2.303258 1.814688 0 1 0 4.606516 0 2.303258 1.814688 0 1 0-4.606516 0Z" fill="#FFFFFF" p-id="1200"></path><path d="M605.862699 445.603037a2.303258 1.814688 0 1 0 4.606516 0 2.303258 1.814688 0 1 0-4.606516 0Z" fill="#FFFFFF" p-id="1201"></path><path d="M449.520332 351.937208a3.419989 3.419989 0 0 1-2.373054-0.97714c-0.418774 0-38.248043-36.223968-55.83656-19.403204a3.419989 3.419989 0 0 1-4.885699 0 3.489785 3.489785 0 0 1 0-4.955495c22.40442-21.42728 63.723474 17.658312 65.468367 19.403204a3.419989 3.419989 0 0 1 0 4.885699 3.629376 3.629376 0 0 1-2.373054 1.046936zM559.029785 351.937208a3.629376 3.629376 0 0 1-2.512645-1.116731 3.419989 3.419989 0 0 1 0-4.885699c1.744892-1.744892 43.063947-40.830484 65.39857-19.403205a3.489785 3.489785 0 0 1 0 4.955495 3.489785 3.489785 0 0 1-4.955495 0c-14.587301-13.95914-45.227613 9.282828-55.836559 19.403204a3.629376 3.629376 0 0 1-2.093871 1.046936zM295.551018 508.837941a12.563226 12.563226 0 0 1-4.466924-0.767753c-12.423635-4.187742-50.183108-17.030151-51.230044-44.948431-1.186527-29.872559 41.87742-49.903925 50.392495-53.603097a13.973099 13.973099 0 1 1 11.027721 25.684818c-17.518721 7.537936-33.781119 20.93871-33.571732 26.801548 0 0 0.767753 8.93385 32.385205 19.682388a13.95914 13.95914 0 0 1-4.536721 27.150527zM712.929302 511.071403a13.95914 13.95914 0 0 1-4.53672-27.150527c31.617452-10.748538 32.385205-19.612592 32.385205-19.682387 0-6.211817-16.122807-19.263613-33.641528-26.871345A13.95914 13.95914 0 0 1 718.233776 411.821918c8.584871 3.699172 51.579022 23.730538 50.392495 53.603098-1.046935 27.91828-38.806409 40.760689-51.230044 45.018226a13.95914 13.95914 0 0 1-4.466925 0.628161z" p-id="1202"></path><path d="M728.074969 444.625897a12.49343 12.49343 0 0 1-3.55958-0.48857 13.95914 13.95914 0 0 1-9.771398-17.030151c47.740259-180.072905-74.611603-249.031056-79.846281-251.822884a12.982 12.982 0 0 1-4.327333-3.699172L538.440053 54.39814V132.639119a13.95914 13.95914 0 0 1-12.423634 13.95914c-62.81613 6.97957-115.2327 22.962785-154.737066 47.87985a13.95914 13.95914 0 0 1-14.93628-23.590946c40.481506-25.545226 92.269915-42.505581 154.1787-50.532087V13.98643A13.95914 13.95914 0 0 1 535.508634 5.401559l115.372291 146.570969c20.101162 12.423635 140.219561 95.620109 90.73441 281.904831a13.95914 13.95914 0 0 1-13.540366 10.748538zM311.115459 242.846529a13.95914 13.95914 0 0 1-8.724462-3.071011 13.95914 13.95914 0 0 1-2.093871-19.612591c3.699172-4.606516 7.607731-9.143237 11.725678-13.47057a13.994038 13.994038 0 0 1 20.240752 19.333409c-3.559581 3.699172-6.97957 7.607731-10.259967 11.655882a13.95914 13.95914 0 0 1-10.88813 5.164881z" fill="#040000" p-id="1203"></path><path d="M70.041113 1024h-13.95914a13.95914 13.95914 0 0 1 0-27.91828h13.95914a13.95914 13.95914 0 0 1 0 27.91828z" p-id="1204"></path><path d="M262.537652 444.625897a13.95914 13.95914 0 0 1-7.817118-2.442849L137.742941 362.964928a13.95914 13.95914 0 0 1 7.817119-25.47543h110.486592a199.196927 199.196927 0 0 1 21.706463-82.28913 14.028936 14.028936 0 0 1 25.196248 12.353839 166.04397 166.04397 0 0 0-18.914635 82.149538 13.95914 13.95914 0 0 1-13.95914 15.355054H191.276243L270.424567 418.801488a13.95914 13.95914 0 0 1-7.886915 25.545226z" fill="#040000" p-id="1205"></path><path d="M500.959763 647.591792c-64.351635 0-114.813926-22.334624-114.813926-50.881065s50.462291-50.811269 114.813926-50.81127 114.74413 22.334624 114.74413 50.81127-50.392495 50.881065-114.74413 50.881065z m0-94.712765c-58.419001 0-107.834356 20.101162-107.834356 43.8317s49.415355 43.901495 107.834356 43.901495 107.76456-20.101162 107.76456-43.901495-49.34556-43.831699-107.76456-43.8317z" fill="#DB7A75" p-id="1206"></path><path d="M451.614203 596.710727m-14.308119 0a14.308118 14.308118 0 1 0 28.616237 0 14.308118 14.308118 0 1 0-28.616237 0Z" fill="#AA7977" p-id="1207"></path><path d="M543.395548 596.710727m-14.308118 0a14.308118 14.308118 0 1 0 28.616236 0 14.308118 14.308118 0 1 0-28.616236 0Z" fill="#AA7977" p-id="1208"></path><path d="M250.114018 904.998332s399.022015 22.683602 510.136769-6.351409v66.934076s-218.46054 44.180678-510.136769 5.025291z" fill="#196622" p-id="1209"></path><path d="M250.114018 911.140354h24.637882v53.044731h-24.637882z" fill="#D0CED0" p-id="1210"></path></svg>