<?xml version="1.0" standalone="no"?><!DOCTYPE svg PUBLIC "-//W3C//DTD SVG 1.1//EN" "http://www.w3.org/Graphics/SVG/1.1/DTD/svg11.dtd"><svg t="1703403186074" class="icon" viewBox="0 0 1024 1024" version="1.1" xmlns="http://www.w3.org/2000/svg" p-id="8223" xmlns:xlink="http://www.w3.org/1999/xlink" width="200" height="200"><path d="M987.096 1024h-950.2a7.936 7.936 0 0 1-5.146-13.976l475.1-404.812a7.936 7.936 0 0 1 10.292 0l475.1 404.812a7.936 7.936 0 0 1-5.146 13.976z m-928.648-15.872h907.098L511.996 621.678 58.448 1008.128z" fill="#4A555F" p-id="8224"></path><path d="M108.73 989.61l403.266-343.602L915.26 989.61z" fill="#DFDFDF" p-id="8225"></path><path d="M36.894 1024a7.936 7.936 0 0 1-7.932-7.938V395.59a7.936 7.936 0 0 1 13.058-6.064l365.804 308.786a7.938 7.938 0 0 1 0.026 12.104L42.042 1022.104a7.926 7.926 0 0 1-5.148 1.896z m7.938-611.324v586.2l345.598-294.472L44.832 412.676z" fill="#4A555F" p-id="8226"></path><path d="M63.35 452.54L361.8 704.472 63.35 958.768z" fill="#DFDFDF" p-id="8227"></path><path d="M987.1 1024a7.93 7.93 0 0 1-5.148-1.896L616.146 710.416a7.936 7.936 0 0 1 0.026-12.104l365.804-308.786a7.94 7.94 0 0 1 13.058 6.064v620.472A7.94 7.94 0 0 1 987.1 1024zM633.562 704.406L979.16 998.876v-586.2L633.562 704.406z" fill="#4A555F" p-id="8228"></path><path d="M662.192 704.472L960.64 452.54v506.228z" fill="#DFDFDF" p-id="8229"></path><path d="M402.746 712.31c-1.822 0-3.64-0.622-5.12-1.872L130.804 485.202a7.932 7.932 0 0 1-2.816-6.064V229.144a7.934 7.934 0 0 1 7.936-7.936h149.946a7.934 7.934 0 0 1 7.936 7.936v263.442l45.15-45.642a7.94 7.94 0 0 1 5.642-2.354h310.998c41.66 0 75.552-33.868 75.552-75.502v-139.946a7.934 7.934 0 0 1 7.936-7.936h149.046a7.934 7.934 0 0 1 7.936 7.936V479.14a7.932 7.932 0 0 1-2.816 6.064l-266.82 225.234a7.93 7.93 0 0 1-10.266-0.024l-104.162-88.734-104.11 88.734a7.91 7.91 0 0 1-5.146 1.896z m109.256-108.992c1.832 0 3.664 0.63 5.146 1.894l104.188 88.756 258.86-218.516V237.082h-133.174v132.008c0 50.384-41.012 91.374-91.426 91.374H347.912l-56.4 57.012a7.932 7.932 0 0 1-8.66 1.756 7.932 7.932 0 0 1-4.918-7.34V237.082H143.862v238.372L402.72 693.968l104.134-88.754a7.92 7.92 0 0 1 5.148-1.896z" fill="#4A555F" p-id="8230"></path><path d="M135.91 487.092c-1.84 0-3.66-0.638-5.12-1.87l-98.992-83.54a7.94 7.94 0 0 1 0.102-12.214l98.992-80.792a7.934 7.934 0 1 1 12.954 6.15v164.332a7.934 7.934 0 0 1-7.936 7.934zM49.34 395.718l78.63 66.356v-130.53L49.34 395.718zM285.87 237.082h-44.972a7.934 7.934 0 0 1-5.02-14.084l44.972-36.718a7.94 7.94 0 0 1 12.956 6.15v36.718a7.936 7.936 0 0 1-7.936 7.934z m-22.702-15.874h14.766v-12.056l-14.766 12.056zM607.186 93.54H416.82a7.934 7.934 0 0 1-5.016-14.084L506.986 1.788a7.938 7.938 0 0 1 10.034 0l95.184 77.668a7.934 7.934 0 0 1-5.018 14.084z m-168.086-15.872h145.806L512.002 18.178 439.1 77.668zM783.108 237.082h-44.022a7.934 7.934 0 0 1-7.936-7.936V193.22a7.936 7.936 0 0 1 12.954-6.15l44.022 35.926a7.934 7.934 0 0 1-5.018 14.086z m-36.086-15.874h13.808l-13.808-11.268v11.268z" fill="#4A555F" p-id="8231"></path><path d="M565.334 85.604h-106.664l53.332-43.492z" fill="#DFDFDF" p-id="8232"></path><path d="M888.11 487.092a7.934 7.934 0 0 1-7.934-7.936v-164.332a7.936 7.936 0 0 1 12.954-6.15l98.992 80.792a7.936 7.936 0 0 1 0.102 12.214l-98.992 83.54a7.936 7.936 0 0 1-5.122 1.872z m7.938-155.55v130.53l78.63-66.356-78.63-64.174zM285.852 519.808a7.936 7.936 0 0 1-7.932-7.936V169.096c0-50.402 41.004-91.408 91.408-91.408h286.266c50.402 0 91.41 41.004 91.41 91.408v199.974c0 50.402-41.006 91.408-91.41 91.408H347.888l-56.394 56.978a7.928 7.928 0 0 1-5.642 2.352zM369.326 93.56c-41.65 0-75.534 33.884-75.534 75.534v323.476l45.146-45.614a7.936 7.936 0 0 1 5.64-2.354h311.016c41.65 0 75.538-33.884 75.538-75.534V169.096c0-41.65-33.888-75.534-75.538-75.534H369.326z" fill="#4A555F" p-id="8233"></path><path d="M312.31 169.096c0-31.438 25.578-57.016 57.016-57.016h286.266c31.44 0 57.02 25.578 57.02 57.016v199.974c0 31.438-25.578 57.016-57.02 57.016H333.538l-21.228 21.45V169.096z" fill="#71CCE0" p-id="8234"></path><path d="M433.472 336.466a7.92 7.92 0 0 1-5.976-2.71l-46.642-53.286 11.946-10.452 41.632 47.562 119.406-95.862 9.936 12.38-125.338 100.622a7.908 7.908 0 0 1-4.964 1.746zM525.198 336.466a7.92 7.92 0 0 1-5.976-2.71l-23.462-26.806 11.946-10.452 18.454 21.08 115.194-92.48 9.936 12.38-121.124 97.24a7.92 7.92 0 0 1-4.968 1.748z" fill="#4A555F" p-id="8235"></path></svg>