<?xml version="1.0" standalone="no"?><!DOCTYPE svg PUBLIC "-//W3C//DTD SVG 1.1//EN" "http://www.w3.org/Graphics/SVG/1.1/DTD/svg11.dtd"><svg t="1703403225406" class="icon" viewBox="0 0 1093 1024" version="1.1" xmlns="http://www.w3.org/2000/svg" p-id="12013" xmlns:xlink="http://www.w3.org/1999/xlink" width="213.4765625" height="200"><path d="M763.440204 1022.697201h-677.455471c-48.203562 0-85.984733-39.083969-85.984733-85.984733V504.183206c0-48.203562 39.083969-85.984733 85.984733-85.984733h677.455471c48.203562 0 85.984733 39.083969 85.984732 85.984733v432.529262c1.302799 46.900763-37.78117 85.984733-85.984732 85.984733z" fill="#FFFFFF" p-id="12014"></path><path d="M957.557252 648.793893c-5.211196 0-10.422392-1.302799-14.330789-3.908397l-84.681934-46.900763c-10.422392-5.211196-22.147583-9.119593-33.872773-9.119593-10.422392 0-20.844784 2.605598-29.964377 6.513995L707.419847 638.371501c-3.908397 2.605598-9.119593 2.605598-13.027989 2.605598-9.119593 0-16.936387-3.908397-23.450382-11.725191-5.211196-6.513995-7.816794-15.633588-6.513995-24.75318l18.239186-95.104326c3.908397-22.147583-2.605598-45.597964-18.239186-61.231552l-67.745547-69.048346c-7.816794-7.816794-10.422392-19.541985-6.513995-31.267176 3.908397-10.422392 13.02799-18.239186 24.753181-19.541984l96.407124-11.725191c22.147583-2.605598 41.689567-15.633588 52.11196-36.478372l45.597964-85.984733c5.211196-10.422392 15.633588-15.633588 26.05598-15.633587 11.725191 0 22.147583 6.513995 27.358778 16.936386l40.386769 87.287532c9.119593 20.844784 28.661578 35.175573 50.80916 39.08397l95.104326 16.936386c11.725191 1.302799 19.541985 9.119593 23.450381 20.844784s0 22.147583-7.816794 29.964377l-70.351145 65.139949c-16.936387 15.633588-24.753181 37.78117-20.844783 59.928753l14.330788 95.104326c1.302799 9.119593-1.302799 16.936387-6.513994 23.450381-6.513995 11.725191-14.330789 15.633588-23.450382 15.633588z" fill="#77B2DE" p-id="12015"></path><path d="M836.396947 201.933842c2.605598 0 6.513995 1.302799 9.119592 6.513995l40.386769 87.287532c11.725191 26.05598 36.478372 45.597964 65.139949 49.506361l95.104326 16.936387c5.211196 1.302799 7.816794 3.908397 7.816794 6.513995s1.302799 6.513995-2.605598 10.422392l-70.351145 65.139949c-20.844784 19.541985-31.267176 48.203562-27.358779 76.86514l14.330789 95.104326c0 2.605598 0 5.211196-2.605598 7.816793s-5.211196 3.908397-7.816794 3.908397c-1.302799 0-2.605598 0-5.211196-1.302799l-84.681934-46.900763c-13.02799-7.816794-28.661578-11.725191-42.992366-11.725191-13.02799 0-27.358779 2.605598-39.08397 9.119593l-87.287532 42.992367c-1.302799 1.302799-2.605598 1.302799-3.908396 1.302799-2.605598 0-6.513995-1.302799-7.816794-3.908397s-2.605598-5.211196-1.302799-7.816794l18.239185-95.104326c5.211196-28.661578-2.605598-58.625954-23.450381-78.167939L612.315522 367.389313c-3.908397-3.908397-3.908397-7.816794-2.605598-10.422392 1.302799-2.605598 2.605598-6.513995 7.816794-6.513995l96.407124-11.725191c28.661578-3.908397 54.717557-20.844784 67.745547-46.900763l45.597965-85.984733c2.605598-3.908397 6.513995-3.908397 9.119593-3.908397m0-39.083969c-16.936387 0-33.872774 9.119593-42.992367 26.055979l-45.597964 85.984733c-7.816794 14.330789-22.147583 23.450382-37.781171 26.05598l-96.407124 11.725191c-40.386768 5.211196-57.323155 53.414758-29.964377 83.379135l67.745547 69.048346c11.725191 11.725191 15.633588 28.661578 13.02799 44.295165l-18.239186 95.104326c-6.513995 32.569975 19.541985 58.625954 48.203563 58.625954 7.816794 0 14.330789-1.302799 22.147582-5.211196l87.287532-42.992366c6.513995-3.908397 14.330789-5.211196 22.147583-5.211196s16.936387 2.605598 23.450381 6.513995l84.681934 46.900763c7.816794 3.908397 15.633588 6.513995 23.450382 6.513995 28.661578 0 53.414758-24.753181 48.203562-56.020356l-14.330789-95.104326c-2.605598-15.633588 3.908397-32.569975 15.633588-42.992367l70.351145-65.139949c29.964377-27.358779 15.633588-78.167939-24.75318-84.681933l-95.104326-16.936387c-15.633588-2.605598-29.964377-13.02799-36.478372-27.358779l-40.386768-87.287532c-7.816794-22.147583-26.05598-31.267176-44.295165-31.267175z" fill="#133860" p-id="12016"></path><path d="M588.86514 225.384224c-1.302799 0-2.605598 0-3.908397-1.302799l-40.386768-22.147583c-5.211196-2.605598-11.725191-5.211196-18.239186-5.211196-5.211196 0-11.725191 1.302799-16.936387 3.908397L469.007634 221.475827c-1.302799 0-2.605598 1.302799-3.908397 1.302799-2.605598 0-5.211196-1.302799-6.513995-3.908397-1.302799-1.302799-2.605598-3.908397-1.302799-7.816794l9.119593-44.295165c2.605598-11.725191-1.302799-24.753181-10.422392-33.872774l-31.267176-32.569974c-3.908397-3.908397-2.605598-7.816794-2.605598-9.119593s2.605598-5.211196 7.816794-6.513995l45.597964-5.211196c11.725191-1.302799 23.450382-9.119593 28.661578-19.541985l20.844784-40.386768c2.605598-3.908397 6.513995-5.211196 7.816794-5.211196s6.513995 0 7.816794 5.211196L560.203562 61.231552c5.211196 11.725191 15.633588 19.541985 27.358779 20.844784l45.597964 7.816794c5.211196 1.302799 6.513995 5.211196 6.513995 6.513995s1.302799 5.211196-2.605598 9.119593l-33.872773 31.267175c-9.119593 7.816794-13.02799 20.844784-11.725191 32.569975l6.513995 45.597964c0 3.908397-1.302799 5.211196-2.605598 6.513995-1.302799 2.605598-3.908397 3.908397-6.513995 3.908397z" fill="#77B2DE" p-id="12017"></path><path d="M531.541985 35.175573l14.330789 31.267175c7.816794 15.633588 22.147583 26.05598 37.78117 29.964377l33.872774 6.513995-26.05598 23.450381c-13.02799 11.725191-18.239186 28.661578-15.633588 45.597965l5.211196 33.872773-29.964377-16.936387c-7.816794-3.908397-16.936387-6.513995-24.75318-6.513994s-15.633588 1.302799-23.450382 5.211195l-31.267175 15.633588 6.513994-33.872773c3.908397-16.936387-1.302799-33.872774-14.330788-46.900764l-24.753181-24.75318 35.175573-3.908397c16.936387-2.605598 31.267176-11.725191 40.386768-27.358779l16.936387-31.267175m0-35.175573c-7.816794 0-15.633588 3.908397-20.844784 13.02799l-20.844784 40.386768c-3.908397 6.513995-10.422392 11.725191-18.239185 11.725191l-45.597965 5.211196c-19.541985 2.605598-27.358779 26.05598-14.330789 39.08397l31.267176 32.569974c5.211196 5.211196 7.816794 13.02799 6.513995 20.844784l-9.119593 44.295165c-2.605598 15.633588 9.119593 27.358779 23.450382 27.358779 3.908397 0 6.513995-1.302799 10.422392-2.605598l40.386768-20.844784c2.605598-1.302799 6.513995-2.605598 10.422392-2.605598s7.816794 1.302799 11.725191 2.605598l40.386768 22.147583c3.908397 2.605598 7.816794 2.605598 11.725191 2.605598 13.02799 0 24.753181-11.725191 23.450382-26.05598l-6.513995-45.597964c-1.302799-7.816794 1.302799-15.633588 7.816794-20.844784l33.872773-31.267176c14.330789-13.02799 6.513995-36.478372-11.725191-40.386768l-45.597964-7.816794c-7.816794-1.302799-14.330789-6.513995-16.936387-13.02799L553.689567 9.119593c-3.908397-5.211196-13.02799-9.119593-22.147582-9.119593zM424.712468 850.727735c-3.908397 0-7.816794-1.302799-11.725191-3.908397L71.653944 584.956743c-9.119593-6.513995-10.422392-18.239186-3.908397-27.358779 6.513995-9.119593 18.239186-10.422392 27.358779-3.908397l329.608142 252.743003L625.343511 652.70229c9.119593-6.513995 20.844784-5.211196 27.358779 3.908397s5.211196 20.844784-3.908397 27.358779L436.437659 846.819338c-3.908397 2.605598-7.816794 3.908397-11.725191 3.908397zM766.045802 879.389313c-3.908397 0-9.119593-1.302799-11.725191-3.908397l-138.096692-112.040712c-7.816794-6.513995-9.119593-19.541985-2.605598-27.358779 6.513995-7.816794 19.541985-9.119593 27.358778-2.605598l138.096692 112.040712c7.816794 6.513995 9.119593 19.541985 2.605598 27.358779-3.908397 3.908397-10.422392 6.513995-15.633587 6.513995zM91.195929 879.389313c-5.211196 0-11.725191-2.605598-15.633588-7.816794-6.513995-7.816794-5.211196-20.844784 2.605598-27.358779l138.096692-112.040712c7.816794-6.513995 20.844784-5.211196 27.358779 2.605598 6.513995 7.816794 5.211196 20.844784-2.605598 27.358779L102.92112 875.480916c-2.605598 2.605598-7.816794 3.908397-11.725191 3.908397z" fill="#133860" p-id="12018"></path><path d="M815.552163 945.832061c0 23.450382-18.239186 41.689567-41.689568 41.689567H78.167939c-23.450382 0-41.689567-18.239186-41.689567-41.689567V495.063613c0-23.450382 18.239186-41.689567 41.689567-41.689567h459.888041c9.119593 0 16.936387-7.816794 16.936386-16.936387 0-9.119593-7.816794-16.936387-16.936386-16.936387H78.167939c-42.992366 0-76.86514 33.872774-76.86514 76.86514v450.768448c0 42.992366 33.872774 76.86514 76.86514 76.86514h695.694656c42.992366 0 76.86514-33.872774 76.86514-76.86514V680.061069c0-9.119593-7.816794-16.936387-16.936386-16.936387-9.119593 0-16.936387 7.816794-16.936387 16.936387v265.770992h-1.302799z" fill="#133860" p-id="12019"></path><path d="M235.806616 204.53944c-10.422392 0-19.541985 9.119593-19.541985 19.541985s9.119593 19.541985 19.541985 19.541985h19.541985v-19.541985c0-10.422392-9.119593-19.541985-19.541985-19.541985zM313.974555 224.081425c0-10.422392-9.119593-19.541985-19.541985-19.541985s-19.541985 9.119593-19.541985 19.541985v19.541985h19.541985c10.422392 0 19.541985-7.816794 19.541985-19.541985zM216.264631 282.707379c0 10.422392 9.119593 19.541985 19.541985 19.541985s19.541985-9.119593 19.541985-19.541985v-19.541985h-19.541985c-10.422392 0-19.541985 9.119593-19.541985 19.541985zM294.43257 263.165394h-19.541985v19.541985c0 10.422392 9.119593 19.541985 19.541985 19.541985s19.541985-9.119593 19.541985-19.541985-9.119593-19.541985-19.541985-19.541985z" fill="#133860" p-id="12020"></path></svg>