<?xml version="1.0" standalone="no"?><!DOCTYPE svg PUBLIC "-//W3C//DTD SVG 1.1//EN" "http://www.w3.org/Graphics/SVG/1.1/DTD/svg11.dtd"><svg t="1668477968205" class="icon" viewBox="0 0 1024 1024" version="1.1" xmlns="http://www.w3.org/2000/svg" p-id="2471" xmlns:xlink="http://www.w3.org/1999/xlink" width="200" height="200"><path d="M838.8096 915.712H249.8048c-63.3344 0-114.688-51.3536-114.688-114.688v-400.896c0-63.3344 51.3536-114.688 114.688-114.688h589.0048c63.3344 0 114.688 51.3536 114.688 114.688v400.896c0 63.3344-51.3536 114.688-114.688 114.688z" fill="#8F93FB" p-id="2472"></path><path d="M838.8096 285.3888h-16.7424c24.4224 12.6464 67.8912 43.008 67.8912 98.7136v397.5168c0 29.8496-2.7648 134.0928-120.5248 134.0928h52.5312c17.408-0.4608 35.0208-1.8432 51.456-5.3248 46.4384-14.6432 80.128-58.112 80.128-109.4144v-400.896c-0.0512-63.2832-51.4048-114.688-114.7392-114.688z" fill="#787CF5" p-id="2473"></path><path d="M71.5264 521.472c-8.4992 0-15.36-6.8608-15.36-15.36v-19.6096c0-8.4992 6.8608-15.36 15.36-15.36s15.36 6.8608 15.36 15.36v19.6096c0 8.4992-6.912 15.36-15.36 15.36z" fill="#333333" p-id="2474"></path><path d="M848.8448 852.5312H236.4416a41.0624 41.0624 0 0 1-41.0624-41.0624v-404.992a41.0624 41.0624 0 0 1 41.0624-41.0624h612.4032a41.0624 41.0624 0 0 1 41.0624 41.0624v404.992c0.0512 22.6816-18.3808 41.0624-41.0624 41.0624z" fill="#ECD300" p-id="2475"></path><path d="M305.9712 580.5568m-43.7248 0a43.7248 43.7248 0 1 0 87.4496 0 43.7248 43.7248 0 1 0-87.4496 0Z" fill="#FF6339" p-id="2476"></path><path d="M512.512 580.5568m-43.7248 0a43.7248 43.7248 0 1 0 87.4496 0 43.7248 43.7248 0 1 0-87.4496 0Z" fill="#FF6339" p-id="2477"></path><path d="M713.7792 580.5568m-43.7248 0a43.7248 43.7248 0 1 0 87.4496 0 43.7248 43.7248 0 1 0-87.4496 0Z" fill="#FF6339" p-id="2478"></path><path d="M848.8448 365.3632h-23.3984v409.3952c0 31.3856-15.6672 73.5232-72.5504 73.5232 61.7472 0 137.0112 8.8064 137.0112-66.6624V406.4256c0.0512-22.6816-18.3808-41.0624-41.0624-41.0624z" fill="#E8A200" p-id="2479"></path><path d="M829.6448 867.8912H195.3792c-41.728 0-75.6736-33.9456-75.6736-75.6736V720.896c0-8.4992 6.8608-15.36 15.36-15.36s15.36 6.8608 15.36 15.36v71.3728c0 24.7808 20.1728 44.9536 44.9536 44.9536h634.2656c24.7808 0 44.9536-20.1728 44.9536-44.9536V376.32c0-24.7808-20.1728-44.9536-44.9536-44.9536H195.3792c-24.7808 0-44.9536 20.1728-44.9536 44.9536v260.5056c0 8.4992-6.8608 15.36-15.36 15.36s-15.36-6.8608-15.36-15.36V376.32c0-41.728 33.9456-75.6736 75.6736-75.6736h634.2656c41.728 0 75.6736 33.9456 75.6736 75.6736v415.8976c0 41.728-33.9456 75.6736-75.6736 75.6736z" fill="#333333" p-id="2480"></path><path d="M838.8096 229.7344h-64.6144l-204.6976-141.9264c-33.6896-25.0368-80.0768-24.2176-112.896 1.8944L269.2608 229.7344H186.2144c-71.7312 0-130.048 58.368-130.048 130.048v43.008c0 8.4992 6.8608 15.36 15.36 15.36s15.36-6.8608 15.36-15.36v-43.008c0-54.784 44.5952-99.328 99.328-99.328h652.5952c54.784 0 99.328 44.5952 99.328 99.328v441.1904c0 54.784-44.5952 99.328-99.328 99.328H186.2144c-54.784 0-99.328-44.5952-99.328-99.328v-232.0896c0-8.4992-6.8608-15.36-15.36-15.36s-15.36 6.8608-15.36 15.36v232.0896c0 71.7312 58.368 130.048 130.048 130.048h652.5952c71.7312 0 130.048-58.368 130.048-130.048V359.8336c0-71.7312-58.368-130.0992-130.048-130.0992zM475.1872 114.176c0.1536-0.1024 0.256-0.2048 0.4096-0.3072 21.9648-17.5616 53.0432-18.1248 75.9808-1.0752l168.704 116.992H320.5632l154.624-115.6096z" fill="#333333" p-id="2481"></path><path d="M305.9712 639.6928c-32.5632 0-59.0848-26.5216-59.0848-59.0848s26.5216-59.0848 59.0848-59.0848c32.5632 0 59.0848 26.5216 59.0848 59.0848s-26.5216 59.0848-59.0848 59.0848z m0-87.5008c-15.6672 0-28.3648 12.7488-28.3648 28.3648s12.7488 28.3648 28.3648 28.3648 28.3648-12.7488 28.3648-28.3648-12.6976-28.3648-28.3648-28.3648zM512.512 639.6928c-32.5632 0-59.0848-26.5216-59.0848-59.0848s26.5216-59.0848 59.0848-59.0848 59.0848 26.5216 59.0848 59.0848-26.5216 59.0848-59.0848 59.0848z m0-87.5008c-15.6672 0-28.3648 12.7488-28.3648 28.3648s12.7488 28.3648 28.3648 28.3648 28.3648-12.7488 28.3648-28.3648-12.7488-28.3648-28.3648-28.3648zM713.728 639.6928c-32.5632 0-59.0848-26.5216-59.0848-59.0848s26.5216-59.0848 59.0848-59.0848c32.5632 0 59.0848 26.5216 59.0848 59.0848s-26.4704 59.0848-59.0848 59.0848z m0-87.5008c-15.6672 0-28.3648 12.7488-28.3648 28.3648s12.7488 28.3648 28.3648 28.3648 28.3648-12.7488 28.3648-28.3648-12.6976-28.3648-28.3648-28.3648z" fill="#333333" p-id="2482"></path><path d="M245.0432 509.1328a12.8 12.8 0 0 1-12.8-12.8v-41.7792c0-20.4288 16.64-37.0688 37.0688-37.0688h75.776a12.8 12.8 0 0 1 0 25.6H269.312c-6.2976 0-11.4688 5.12-11.4688 11.4688v41.7792c0 7.0656-5.6832 12.8-12.8 12.8zM404.1216 443.0336h-15.9232a12.8 12.8 0 0 1 0-25.6h15.9232a12.8 12.8 0 0 1 0 25.6z" fill="#FFFFFF" p-id="2483"></path></svg>