<?xml version="1.0" standalone="no"?><!DOCTYPE svg PUBLIC "-//W3C//DTD SVG 1.1//EN" "http://www.w3.org/Graphics/SVG/1.1/DTD/svg11.dtd"><svg t="1668478035825" class="icon" viewBox="0 0 1024 1024" version="1.1" xmlns="http://www.w3.org/2000/svg" p-id="7238" xmlns:xlink="http://www.w3.org/1999/xlink" width="200" height="200"><path d="M280.4 921.9h471.8c48.3 0 87.5-39.3 87.5-87.5v-72.1c-45.4 11.8-171 37.3-306.2 2.5v23.1-23.1c-8.9-2.3-17.8-4.8-26.7-7.6-143.1-45.3-268.7-59.8-314-63.8v141c0 48.3 39.3 87.5 87.6 87.5z" fill="#FFD524" p-id="7239"></path><path d="M752.2 359.9H550.6c-9.9 0-18 8-18 18 0 9.9 8 18 18 18h201.6c48.3 0 87.5 39.3 87.5 87.5v351c0 48.3-39.3 87.5-87.5 87.5H280.4c-48.3 0-87.5-39.3-87.5-87.5v-351c0-48.3 39.3-87.5 87.5-87.5h19.2c9.9 0 18-8 18-18v-80.4c0-52.7 20-102.2 56.4-139.2 37-37.7 87.4-58.5 141.9-58.5 83.5 0 156.1 50 185 127.4 3.5 9.3 13.8 14 23.1 10.5s14-13.8 10.5-23.1C700.3 123 614.5 63.8 515.8 63.8c-64.2 0-123.7 24.6-167.6 69.3-43 43.8-66.6 102.2-66.6 164.4V360h-1.2c-68.1 0-123.5 55.4-123.5 123.5v351c0 68.1 55.4 123.5 123.5 123.5h471.8c68.1 0 123.5-55.4 123.5-123.5v-351c0-68.2-55.4-123.6-123.5-123.6z" fill="#6B400D" p-id="7240"></path><path d="M404.2 359.9c-9.9 0-17.9 8-17.9 18 0 9.9 8.1 18 18 18s18-8 18-18c0-9.9-8-18-18-18h-0.1zM467.8 359.9c-9.9 0-18 8-18 18 0 9.9 8 18 18 18H479c9.9 0 18-8 18-18 0-9.9-8-18-18-18h-11.2zM551.5 704V598.5c0-9.9-8-18-18-18-9.9 0-18 8-18 18V704c0 9.9 8 18 18 18 10-0.1 18-8.1 18-18z" fill="#6B400D" p-id="7241"></path></svg>