<?xml version="1.0" standalone="no"?><!DOCTYPE svg PUBLIC "-//W3C//DTD SVG 1.1//EN" "http://www.w3.org/Graphics/SVG/1.1/DTD/svg11.dtd"><svg t="1701002208436" class="icon" viewBox="0 0 1024 1024" version="1.1" xmlns="http://www.w3.org/2000/svg" p-id="2429" xmlns:xlink="http://www.w3.org/1999/xlink" width="200" height="200"><path d="M208.979592 1024h606.040816c115.461224 0 208.979592-93.518367 208.979592-208.979592V208.979592C1024 93.518367 930.481633 0 815.020408 0H208.979592C93.518367 0 0 93.518367 0 208.979592v606.040816c0 115.461224 93.518367 208.979592 208.979592 208.979592z" fill="#FCFCFC" p-id="2430"></path><path d="M526.774857 497.225143c53.049469 53.049469 139.05502 53.049469 192.10449 0l103.444898-103.444898c53.03902-53.049469 53.03902-139.05502 0-192.094041-53.059918-53.049469-139.05502-53.049469-192.10449 0l-103.444898 103.434449c-53.049469 53.049469-53.049469 139.05502 0 192.10449z" fill="#F4E211" p-id="2431"></path><path d="M532.897959 512c0 75.023673 60.813061 135.836735 135.836735 135.836735h146.285714c75.023673 0 135.836735-60.813061 135.836735-135.836735s-60.813061-135.836735-135.836735-135.836735H668.734694c-75.023673 0-135.836735 60.813061-135.836735 135.836735z" fill="#B0D43F" p-id="2432"></path><path d="M526.774857 526.774857c-53.049469 53.049469-53.049469 139.05502 0 192.10449l103.444898 103.444898c53.049469 53.03902 139.044571 53.03902 192.094041 0 53.059918-53.059918 53.059918-139.05502 0-192.10449l-103.434449-103.444898c-53.049469-53.049469-139.05502-53.049469-192.10449 0z" fill="#63C199" p-id="2433"></path><path d="M512 532.897959c-75.023673 0-135.836735 60.813061-135.836735 135.836735v146.285714c0 75.023673 60.813061 135.836735 135.836735 135.836735s135.836735-60.813061 135.836735-135.836735V668.734694c0-75.023673-60.813061-135.836735-135.836735-135.836735z" fill="#65AFE3" p-id="2434"></path><path d="M497.225143 526.774857c-53.049469-53.049469-139.05502-53.049469-192.10449 0l-103.444898 103.444898c-53.03902 53.049469-53.03902 139.044571 0 192.094041 53.059918 53.059918 139.05502 53.059918 192.10449 0l103.444898-103.434449c53.049469-53.049469 53.049469-139.05502 0-192.10449z" fill="#9D88C2" p-id="2435"></path><path d="M491.102041 512c0-75.023673-60.813061-135.836735-135.836735-135.836735H208.979592c-75.023673 0-135.836735 60.813061-135.836735 135.836735s60.813061 135.836735 135.836735 135.836735h146.285714c75.023673 0 135.836735-60.813061 135.836735-135.836735z" fill="#D47FAF" p-id="2436"></path><path d="M497.225143 497.225143c53.049469-53.049469 53.049469-139.05502 0-192.10449l-103.444898-103.444898c-53.049469-53.03902-139.05502-53.03902-192.094041 0-53.049469 53.059918-53.049469 139.05502 0 192.10449l103.434449 103.444898c53.049469 53.049469 139.05502 53.049469 192.10449 0z" fill="#FA655A" p-id="2437"></path><path d="M512 491.102041c75.023673 0 135.836735-60.813061 135.836735-135.836735V208.979592c0-75.023673-60.813061-135.836735-135.836735-135.836735s-135.836735 60.813061-135.836735 135.836735v146.285714c0 75.023673 60.813061 135.836735 135.836735 135.836735z" fill="#FE9F28" p-id="2438"></path></svg>