<?xml version="1.0" standalone="no"?><!DOCTYPE svg PUBLIC "-//W3C//DTD SVG 1.1//EN" "http://www.w3.org/Graphics/SVG/1.1/DTD/svg11.dtd"><svg t="1701001219260" class="icon" viewBox="0 0 1024 1024" version="1.1" xmlns="http://www.w3.org/2000/svg" p-id="1215" xmlns:xlink="http://www.w3.org/1999/xlink" width="200" height="200"><path d="M849.92 51.2h-675.84c-67.8656 0-122.88 55.0144-122.88 122.88v675.84c0 67.8656 55.0144 122.88 122.88 122.88h675.84c67.8656 0 122.88-55.0144 122.88-122.88V174.08c0-67.8656-55.01952-122.88-122.88-122.88zM328.61184 645.36064C182.89664 471.48032 206.1568 216.77568 206.1568 216.77568a900.22912 900.22912 0 0 1 162.24256-11.02336 711.66976 711.66976 0 0 1 152.45312 27.55072 282.28096 282.28096 0 0 0-165.9136 183.68512l-1.83296 1.83808a683.3152 683.3152 0 0 0-19.59424 232.0384l-4.89984-5.504z m24.48896 15.91296s-24.48896-234.49088 97.96096-355.11296c122.44992-120.61184 355.72736-89.39008 355.72736-89.39008s38.55872 215.51616-97.35168 347.15136c-135.92576 131.64032-355.11296 97.3568-355.11296 97.3568h-1.22368z m453.68832 156.73856s-260.21888 15.3088-432.256-130.40128a687.2576 687.2576 0 0 0 250.40896-38.57408 298.16832 298.16832 0 0 0 166.53824-154.2912 943.89248 943.89248 0 0 1 26.94144 143.88224 834.2016 834.2016 0 0 1-11.63264 179.38432z" fill="#FF5967" p-id="1216"></path></svg>