<?xml version="1.0" standalone="no"?><!DOCTYPE svg PUBLIC "-//W3C//DTD SVG 1.1//EN" "http://www.w3.org/Graphics/SVG/1.1/DTD/svg11.dtd"><svg t="1698930747693" class="icon" viewBox="0 0 1024 1024" version="1.1" xmlns="http://www.w3.org/2000/svg" p-id="2268" xmlns:xlink="http://www.w3.org/1999/xlink" width="200" height="200"><path d="M384 514.816S383.0784 317.44 107.52 280.832c-14.3872 107.2128-27.4432 266.7008 113.7152 325.5296A192.9728 192.9728 0 0 0 384 514.816z" fill="#BFE5BD" p-id="2269"></path><path d="M220.9792 606.3616A190.5664 190.5664 0 0 0 334.5408 568.32c-2.8672-2.8672-5.8368-5.7344-8.96-8.7552-101.9904-39.7824-137.2672-131.0208-152.9344-171.008-8.96-22.784-35.2256-69.9392-56.32-106.3936L107.52 280.832c-14.6432 107.2128-27.6992 266.7008 113.4592 325.5296z" fill="#A2DD9E" p-id="2270"></path><path d="M220.9792 621.7216a15.6672 15.6672 0 0 1-5.9392-1.1776c-159.9488-66.56-135.0144-252.4672-122.88-341.76a15.36 15.36 0 0 1 17.2032-13.1584c148.48 19.6608 219.2896 85.7088 252.672 137.6256C398.592 460.288 399.36 512.5632 399.36 514.7648a15.6672 15.6672 0 0 1-1.8944 7.424 206.8992 206.8992 0 0 1-176.2816 99.5328zM120.5248 298.2912c-15.36 124.2112-10.24 243.2512 103.4752 292.608a176.3328 176.3328 0 0 0 144.3328-80.0256c-1.792-27.2384-22.1184-176.3328-247.808-212.5824z" fill="#000F04" p-id="2271"></path><path d="M883.7632 320.2048L819.2 233.1136s-303.9232 235.52-411.7504 241.2032-294.2976 21.0944-294.2976 21.0944l15.6672 37.0688s203.9296 42.9056 403.968-37.0688a2399.2832 2399.2832 0 0 0 350.976-175.2064z" fill="#CF9782" p-id="2272"></path><path d="M264.0896 559.5648a732.928 732.928 0 0 1-138.24-12.032 15.36 15.36 0 0 1-11.008-9.0624l-15.6672-37.0688a15.36 15.36 0 0 1 0.9728-13.9264 15.36 15.36 0 0 1 11.9296-7.3728c1.8432 0 187.6992-15.36 294.5024-21.1456 84.5312-4.608 319.744-173.3632 403.2-237.9776a15.36 15.36 0 0 1 11.52-3.072 15.36 15.36 0 0 1 10.24 6.0416l64.7168 87.04a15.36 15.36 0 0 1 2.7648 11.9808 15.36 15.36 0 0 1-6.912 10.24 2439.0144 2439.0144 0 0 1-353.28 176.5376c-99.3792 39.5264-198.4512 49.8176-274.7392 49.8176z m-124.3136-40.96c38.7072 6.5536 215.7056 30.72 387.2768-37.6832a2455.808 2455.808 0 0 0 334.336-165.3248l-45.3632-61.0816c-59.3408 45.056-308.0704 229.4272-407.9104 234.8544-85.0432 4.6592-220.5696 15.36-272.5376 19.4048z" fill="#000F04" p-id="2273"></path><path d="M483.7376 476.16S321.024 440.9856 356.3008 256.6656a181.5552 181.5552 0 0 1 72.1408 78.4384s4.3008-215.7056 147.456-264.7552a402.7392 402.7392 0 0 1 80.384 174.5408l64.9728-51.2s17.408 255.1296-237.5168 282.4704z" fill="#BFE5BD" p-id="2274"></path><path d="M656.2816 244.8896s0-1.0752-0.512-2.9696c-6.7584 9.6256-15.7696 21.5552-28.8768 38.912-56.8832 3.584-98.048 23.8592-134.2976 69.9392-30.3616-22.6304-38.9632-87.4496-40.704-139.8784a452.6592 452.6592 0 0 0-23.4496 124.2112 181.5552 181.5552 0 0 0-72.1408-78.4384C320.9728 440.9856 483.7376 476.16 483.7376 476.16c254.9248-27.4432 237.5168-282.368 237.5168-282.368z" fill="#A2DD9E" p-id="2275"></path><path d="M483.7376 491.52a13.824 13.824 0 0 1-3.2256-0.3584c-1.792-0.3584-176.9984-40.96-139.3152-237.5168a15.36 15.36 0 0 1 22.9376-10.24 202.3424 202.3424 0 0 1 53.248 45.7216 456.704 456.704 0 0 1 21.9648-88.9344 15.36 15.36 0 0 1 28.8768 10.5472 436.224 436.224 0 0 0-24.4224 124.6208 15.36 15.36 0 0 1-29.5936 5.4784 164.2496 164.2496 0 0 0-46.336-57.6C353.9456 420.9152 466.432 455.936 484.7616 460.8c185.344-21.2992 216.2688-169.3184 220.7744-234.9056l-39.936 31.0784a15.36 15.36 0 0 1-24.6784-9.8304 392.6016 392.6016 0 0 0-70.2976-158.3616 163.0208 163.0208 0 0 0-67.4816 55.04 15.36 15.36 0 0 1-24.7296-18.2272 190.8224 190.8224 0 0 1 92.5184-69.7344 15.36 15.36 0 0 1 16.896 4.864 421.1712 421.1712 0 0 1 78.2848 156.928l45.6704-35.84a15.36 15.36 0 0 1 24.7808 11.0592c0 2.7136 15.36 269.9776-251.1872 298.6496a8.5504 8.5504 0 0 1-1.6384 0z" fill="#000F04" p-id="2276"></path><path d="M457.728 559.2576s-12.7488-104.9088 60.7744-160.768 119.6032-48.9984 168.6528-58.8288 100.9664-5.12 148.992 46.08 103.936 133.12 92.16 214.7328-36.2496 83.3024-62.72 96.0512-38.2464 43.1616-56.8832 57.856-37.2736 39.2192-85.2992 44.3392-76.4928 39.2192-134.2976-9.8304S457.5744 599.04 457.728 559.2576z" fill="#F76C69" p-id="2277"></path><path d="M723.4048 798.72c48.0256-5.12 66.56-29.44 85.2992-44.1344s30.4128-45.1072 56.8832-57.856 50.944-14.6944 62.72-96.0512c6.9632-48.0256-9.6768-96.3584-34.304-138.24 10.752 153.6-94.1056 180.5312-94.1056 180.5312s-53.5552 64.9728-79.4112 60.0064-30.4128-40.3968-59.8016-97.28c-60.8256-114.688-200.7552-101.888-200.7552-101.888l-2.9696 32.512a174.08 174.08 0 0 0 0.768 23.296c0 39.6288 73.5232 180.4288 131.3792 229.4272s86.272 14.336 134.2976 9.6768z" fill="#EA5959" p-id="2278"></path><path d="M648.3456 830.0544c-19.8656 0-42.2912-6.8608-69.1712-29.6448-58.8288-49.8688-135.8848-192.8704-136.8064-240.1792-1.2288-11.7248-9.8816-115.6608 66.56-174.08 60.9792-46.08 105.2672-52.0192 144.384-56.9856 10.5472-1.3824 20.48-2.6624 30.72-4.6592 65.3824-13.1072 118.784 3.4816 163.2256 50.5856a466.432 466.432 0 0 1 40.96 49.664 15.36 15.36 0 0 1-25.0368 17.7664 444.1088 444.1088 0 0 0-38.144-46.08c-37.0688-39.3216-79.9232-52.5312-134.8096-41.5744-11.1104 2.2528-22.1184 3.6352-32.7168 5.12-37.0176 4.7104-75.264 9.6256-129.6384 51.2-65.4848 49.7152-54.9888 145.7664-54.8352 146.7392s0 1.2288 0 1.8432c0 34.7136 71.68 171.7248 125.952 217.6512 35.3792 30.0032 54.4768 24.1664 83.4048 15.36A202.5984 202.5984 0 0 1 721.92 783.36c34.6112-3.5328 50.8928-17.8688 66.56-31.744 3.6352-3.2256 7.0656-6.2464 10.7008-9.1136a114.688 114.688 0 0 0 17.7152-20.48c10.7008-14.08 22.784-30.0544 41.984-39.3216 2.9184-1.3824 5.8368-2.6624 8.704-3.9424 20.992-9.3184 36.1984-16.0256 45.5168-80.4864 4.6592-31.9488-1.9456-67.072-19.5584-104.3456a15.36 15.36 0 1 1 27.7504-13.1584c20.48 42.8544 27.7504 83.8656 22.2208 121.9072-10.9056 75.4176-33.1776 90.7776-63.488 104.192-2.56 1.1264-5.12 2.2528-7.7824 3.5328-12.544 5.9904-21.4016 17.7664-30.72 30.208a138.24 138.24 0 0 1-23.1936 25.6c-2.9696 2.304-6.0928 5.12-9.4208 7.9872-16.64 14.6944-39.424 34.816-83.8144 39.3216a176.64 176.64 0 0 0-33.5872 7.8848 145.2032 145.2032 0 0 1-43.1616 8.6528z" fill="#000F04" p-id="2279"></path><path d="M432.7424 504.6784C384 491.9808 271.0016 477.2352 214.1184 573.44s-57.856 121.5488-62.72 146.0736 0 88.2176 43.1104 113.7152 87.04 85.2992 120.6272 94.1568 40.192 4.864 61.7472 16.64 162.7648 19.6096 206.848-85.2992 53.9648-199.0144-21.5552-302.08a161.28 161.28 0 0 0-129.4336-51.968z" fill="#F76C69" p-id="2280"></path><path d="M522.24 815.5136c-54.1696 64.0512-166.1952 53.6576-191.5904 34.4064-45.6192-16.128-176.4352-84.5312-160.768-193.024-3.84 2.6112-6.144 17.1008-9.7792 25.344a268.5952 268.5952 0 0 0-8.704 37.1712c-5.12 24.5248 0 88.2176 43.1104 113.7152s87.04 85.2992 120.6272 94.1568 40.192 4.864 61.7472 16.64 162.7648 19.6096 206.848-85.2992 53.9648-199.0144-21.5552-302.08c0 0.1024 14.2336 194.9184-39.936 258.9696z" fill="#EA5959" p-id="2281"></path><path d="M422.0416 965.9392c-24.576 0-43.9808-3.8912-52.5312-8.4992a71.68 71.68 0 0 0-27.8528-8.8576 344.2176 344.2176 0 0 1-30.72-6.4512c-22.1184-5.888-45.1072-27.4432-69.4784-50.3296-18.2272-17.152-37.0688-34.816-54.9888-45.4144-51.2-30.208-56.0128-101.9392-50.3808-129.9968a15.36 15.36 0 1 1 30.1056 6.0416c-3.4816 17.4592-1.4848 75.4176 35.84 97.28 20.8384 12.3392 40.96 31.232 60.416 49.5104 20.48 19.2 41.6768 39.1168 56.32 43.008 12.1856 3.1744 20.48 4.608 27.7504 5.8368a101.12 101.12 0 0 1 37.4784 12.1856c7.0656 3.84 56.832 10.8032 106.24-6.7072 38.3488-13.5168 64.9728-37.4272 79.104-71.0656 49.2032-117.0432 43.6224-200.0384-19.3536-286.3104a144.5888 144.5888 0 0 0-115.712-46.4384 14.848 14.848 0 0 1-5.632-0.3584c-43.008-11.2128-148.7872-27.5968-201.5744 61.44a824.32 824.32 0 0 0-40.96 76.288 15.36 15.36 0 0 1-27.392-12.3392 850.8928 850.8928 0 0 1 42.4448-79.2576c63.7952-107.52 191.3344-86.7328 233.1136-76.3392A176.1792 176.1792 0 0 1 573.44 546.3552l0.9728 1.2288c87.7568 119.6544 61.0304 227.3792 23.3472 317.0304-17.4592 41.5232-51.2 72.0384-97.7408 88.32a239.616 239.616 0 0 1-77.9776 13.0048z" fill="#000F04" p-id="2282"></path><path d="M353.28 865.28a83.6096 83.6096 0 0 1-36.4032-7.9872c-34.2528-16.384-45.2096-52.0192-45.6192-53.5552a15.36 15.36 0 0 1 29.3888-8.8064c0 0.4608 7.936 24.4736 29.7472 34.7648 15.9232 7.4752 36.1984 6.2976 60.2112-3.584a15.36 15.36 0 0 1 11.6224 28.416A129.4848 129.4848 0 0 1 353.28 865.28z" fill="#000F04" p-id="2283"></path><path d="M369.92 911.36a15.36 15.36 0 0 1-8.6528-2.7136c-1.8944-1.28-18.8416-13.7216-34.2016-46.08-7.7312-16.2304-40.4992-5.12-40.96-5.12a15.36 15.36 0 0 1-10.24-28.9792c21.8112-7.7824 63.0272-12.1344 78.848 20.9408 11.776 24.6784 24.0128 33.8944 24.1664 33.9968a15.36 15.36 0 0 1-8.96 27.9552z" fill="#000F04" p-id="2284"></path><path d="M326.5024 901.4784a15.36 15.36 0 0 1-14.592-10.5984 76.8 76.8 0 0 1 1.3312-48.8448c-8.4992-38.2976 11.6736-61.7472 12.5952-62.7712a15.36 15.36 0 0 1 23.1424 20.1216c-0.7168 0.9216-11.8272 15.36-4.7616 39.8848a15.36 15.36 0 0 1-1.1776 11.4688c-7.0656 13.3632-1.9968 30.464-1.9456 30.72a15.36 15.36 0 0 1-14.592 20.1728zM729.2416 718.0288a82.688 82.688 0 0 1-39.2704-10.9056 15.36 15.36 0 1 1 14.592-27.0336c14.0288 7.5776 26.2144 9.1136 37.3248 4.8128 23.9104-9.3184 36.1472-43.0592 36.3008-43.4176a15.36 15.36 0 0 1 29.0304 10.24c-0.6656 1.8944-16.7936 47.4112-54.2208 61.952a64.4096 64.4096 0 0 1-23.7568 4.352z" fill="#000F04" p-id="2285"></path><path d="M711.68 765.184a15.36 15.36 0 0 1-8.3456-28.3136c45.7728-29.44 30.3616-78.848 29.696-80.9472a15.36 15.36 0 0 1 29.1328-9.728c8.5504 25.6 10.752 82.432-42.1888 116.5312a15.36 15.36 0 0 1-8.2944 2.4576z" fill="#000F04" p-id="2286"></path></svg>