<?xml version="1.0" standalone="no"?><!DOCTYPE svg PUBLIC "-//W3C//DTD SVG 1.1//EN" "http://www.w3.org/Graphics/SVG/1.1/DTD/svg11.dtd"><svg t="1698930721825" class="icon" viewBox="0 0 1024 1024" version="1.1" xmlns="http://www.w3.org/2000/svg" p-id="1772" xmlns:xlink="http://www.w3.org/1999/xlink" width="200" height="200"><path d="M249.3952 156.416s-29.6448-55.3472-42.2912-67.0208-43.264 12.288-54.2208 27.9552 39.4752 75.8272 39.4752 75.8272z" fill="#A2DD9E" p-id="1773"></path><path d="M192.3584 208.5376a15.36 15.36 0 0 1-11.8272-5.5296c-38.4-46.08-51.9168-77.6704-40.2432-94.464 9.5744-13.7216 33.4848-35.1232 54.4256-37.4272a28.2624 28.2624 0 0 1 22.8352 6.9632c13.824 12.8 40.2432 61.44 45.3632 71.0656a15.36 15.36 0 0 1-5.12 20.1728l-57.1392 36.7616a15.36 15.36 0 0 1-8.2944 2.4576z m-25.6-84.1728c1.1776 7.8848 13.6192 28.5696 28.8256 48.384l33.3824-21.504c-10.9568-19.6608-24.7296-42.496-31.3344-49.5616-5.9904 0.7168-21.9648 10.9568-30.8224 22.6816z" fill="#000F04" p-id="1774"></path><path d="M153.6 316.7232s54.016 98.7648 78.336 264.1408 153.856 283.3408 247.4496 312.832 246.1696 75.6224 294.912 8.96c57.7024-40.96 151.296-165.376 114.0736-314.112s-76.8-267.9808-248.7296-329.472-202.5472-69.2736-258.9696-107.52-105.1136-43.5712-160.256-5.12S116.48 225.7408 153.6 316.7232z" fill="#D4E66C" p-id="1775"></path><path d="M861.9008 796.1088c-78.3872 79.7696-203.0592 58.8288-343.04-11.776S293.7344 450.56 269.6704 382.3616c-17.1008-48.384-59.0848-137.8816-111.3088-180.224-19.3024 28.0064-25.6 63.3856-4.608 114.5856 0 0 53.8624 98.7648 78.1824 264.1408s153.856 283.3408 247.4496 312.832 246.1696 75.6224 294.912 8.96c27.0336-19.2 61.952-56.7808 87.6032-106.5472z" fill="#B4CB33" p-id="1776"></path><path d="M682.9056 952.0128c-69.5808 0-153.344-26.4192-208.128-43.6736-52.992-16.6912-110.08-56.7808-156.6208-109.9776a422.3488 422.3488 0 0 1-101.376-215.04c-23.6544-160.3584-75.9808-258.048-76.8-259.0208s-0.512-1.024-0.7168-1.536c-44.1856-107.8272 25.6-156.6208 72.0896-188.928 58.2656-40.6528 113.0496-39.0656 177.7152 5.12 46.3872 31.6416 73.472 41.216 187.4944 81.92L645.12 244.5824c152.1152 54.5792 202.5984 154.7776 234.4448 254.3616a15.36 15.36 0 0 1-29.2864 9.3184c-33.9968-106.7008-83.712-187.4432-215.808-234.752l-67.9424-24.2176c-114.176-40.4992-144.8448-51.2-194.56-85.248C318.0544 127.232 276.48 125.696 229.2224 158.72c-56.32 39.1168-93.3888 72.9088-61.44 151.3472 5.5296 10.24 55.8592 108.1856 79.4624 268.4416 24.064 163.328 152.9856 274.0224 236.8512 300.4416 76.1344 23.9616 234.5472 73.8816 277.9136 14.5408a14.7456 14.7456 0 0 1 3.4816-3.4304c59.9552-42.6496 142.2848-161.1776 108.0832-297.8816l-1.9456-7.8848a15.36 15.36 0 1 1 29.7472-7.5264l1.9968 7.936c37.5296 150.0672-51.7632 280.4736-118.1184 328.96-22.1184 28.416-59.5456 38.3488-102.3488 38.3488z" fill="#000F04" p-id="1777"></path><path d="M735.0784 463.7184a15.36 15.36 0 0 1-13.1584-7.3728c-34.304-56.32-114.9952-114.2784-179.8144-128.9216a438.016 438.016 0 0 1-89.088-32.8192 15.36 15.36 0 0 1 13.2096-27.7504 408.5248 408.5248 0 0 0 82.688 30.72c73.0112 16.4864 160.5632 79.3088 199.2704 142.8992a15.36 15.36 0 0 1-5.12 21.1456 15.6672 15.6672 0 0 1-7.9872 2.0992zM407.6544 268.5952a15.36 15.36 0 0 1-7.7312-2.0992c-8.192-4.7616-12.9024-7.7312-12.9024-7.7312a15.36 15.36 0 0 1 16.3328-26.0096s4.5056 2.816 12.032 7.2192a15.36 15.36 0 0 1-7.7312 28.6208z" fill="#000F04" p-id="1778"></path></svg>