<?xml version="1.0" standalone="no"?><!DOCTYPE svg PUBLIC "-//W3C//DTD SVG 1.1//EN" "http://www.w3.org/Graphics/SVG/1.1/DTD/svg11.dtd"><svg t="1698930740719" class="icon" viewBox="0 0 1024 1024" version="1.1" xmlns="http://www.w3.org/2000/svg" p-id="2103" xmlns:xlink="http://www.w3.org/1999/xlink" width="200" height="200"><path d="M248.1152 167.9872s-195.84 80.5888-132.3008 250.88c108.0832 2.048 198.0416-94.72 181.8112-200.2432s-49.5104-50.6368-49.5104-50.6368z" fill="#BFE5BD" p-id="2104"></path><path d="M297.6256 218.4704c-10.496-68.0448-28.0064-69.3248-39.168-61.44 7.3216 14.336 10.6496 37.1712-0.6656 73.1648C232.6016 310.4256 233.3184 298.9568 195.5328 322.56S124.1088 377.4464 128.3072 416.5632a12.3392 12.3392 0 0 0 0.3584 1.8944c102.2464-5.4784 184.5248-98.6624 168.96-199.9872z" fill="#A2DD9E" p-id="2105"></path><path d="M119.1936 434.1248h-3.6864a15.36 15.36 0 0 1-14.08-10.24C39.0656 257.1264 207.9744 169.6768 237.8752 155.7504c7.68-10.24 20.48-19.8144 34.816-16.9472 20.1216 3.9424 32.4608 27.8016 40.0896 77.3632a184.9344 184.9344 0 0 1-45.1072 149.76 197.4272 197.4272 0 0 1-148.48 68.1984z m134.8096-251.9552c-7.4752 3.072-173.6704 73.9328-127.2832 221.0304a166.5024 166.5024 0 0 0 117.76-57.4976 154.2144 154.2144 0 0 0 37.888-124.8768c-5.6832-37.12-12.9024-48.2816-15.36-51.2A26.7264 26.7264 0 0 0 261.12 175.9744a15.36 15.36 0 0 1-7.1168 6.1952z m-5.888-14.1824z" fill="#000F04" p-id="2106"></path><path d="M226.2016 372.0704s65.2288 0.4096 116.5824-35.4816 292.7616-103.3728 474.6752 54.9888c44.544 45.312 68.4544 101.376 87.04 137.3184s29.3376 56.8832 48.9984 65.2288 33.1776 40.3968 24.7808 71.168-41.7792 51.7632-69.888 60.8256-52.6336 37.2736-68.1984 61.0816-114.4832 133.12-343.04 71.0144-241.8176-171.1616-259.7888-205.2608-104.2432-51.6096-116.224-111.872 37.2736-185.1392 105.0624-169.0112z" fill="#FFFF81" p-id="2107"></path><path d="M840.0384 787.2c15.36-23.808 40.1408-52.0704 68.1984-61.0816s61.44-30.1056 69.888-60.8256a70.5536 70.5536 0 0 0-8.448-56.832c-17.152 43.6224-50.3808 62.5664-71.68 65.3824-30.72 3.9424-50.2784 10.8032-89.6512 45.2608-194.56 125.184-411.0336-7.0144-443.8528-45.2608S309.6064 596.0192 224.3072 552.96c-46.4896-23.5008-70.1952-77.6192-81.92-122.0096-18.2272 36.1984-26.9312 80.7424-20.992 110.08 12.1344 60.2624 97.8432 77.7728 115.8144 111.872s30.72 142.9504 259.7888 205.2608 327.3216-47.2064 343.04-70.9632z" fill="#FFF963" p-id="2108"></path><path d="M628.5824 892.7232a517.4784 517.4784 0 0 1-135.8848-19.6608c-206.7968-56.32-244.6848-151.9104-262.8608-197.8368-2.4576-6.144-4.5568-11.4688-6.5024-15.104-5.12-9.8816-21.6576-19.968-39.168-30.72-30.72-18.8928-69.4272-42.496-78.08-85.3504C97.28 499.712 118.1696 419.84 159.7952 379.8016c20.7872-20.0704 44.288-28.0576 67.9936-23.1424 9.5744 0 63.744-2.9696 106.1888-32.6656 50.3808-35.2256 302.08-110.848 493.568 56.0128a6.6048 6.6048 0 0 1 0.8704 0.8192A369.3568 369.3568 0 0 1 885.76 459.4176a15.36 15.36 0 1 1-26.7776 15.36 341.6576 341.6576 0 0 0-52.224-71.68c-94.2592-81.92-201.984-97.28-275.5072-96.1536-84.1216 1.4848-155.8016 25.6-179.8144 42.5984-54.7328 38.2464-122.88 38.1952-125.4912 38.2464a15.36 15.36 0 0 1-3.4304-0.4096c-13.8752-3.328-27.8528 1.6896-41.5232 14.8992-33.5872 32.4096-52.0704 100.9664-44.9536 136.1408 5.9904 29.696 35.4816 47.7696 64 65.2288 21.1968 12.9536 40.96 25.1904 50.3296 42.496a188.5184 188.5184 0 0 1 7.8848 18.1248c17.6128 44.4416 50.432 127.232 242.3808 179.5072a480.5632 480.5632 0 0 0 126.3616 18.3296c143.7184 0 199.3728-81.92 200.0384-82.9952 13.2096-20.1728 40.704-55.808 76.3904-67.2768 23.2448-7.4752 52.8384-25.1392 59.6992-50.2272s-4.864-48.2304-15.9744-52.992c-25.0368-10.6496-37.632-35.2256-56.6272-72.3456a15.36 15.36 0 1 1 27.3408-14.0288c17.92 35.0208 27.136 52.0704 41.3184 58.112 28.16 12.032 43.52 52.8896 33.5872 89.344s-47.9232 61.0816-79.9744 71.3728c-19.456 6.2976-41.3184 26.2656-60.0576 54.8864-2.816 4.5056-65.6896 96.768-224.1536 96.768z" fill="#000F04" p-id="2109"></path><path d="M126.5152 459.8272C84.1728 458.8032 39.7824 409.6 39.7824 409.6l31.488-36.1984s45.7728 52.0192 73.0624 50.5344c-5.3248 10.2912-17.8176 35.8912-17.8176 35.8912z" fill="#CF9782" p-id="2110"></path><path d="M126.5152 475.1872h-0.4096C77.7728 474.0096 30.3616 421.9904 28.3648 419.84a15.36 15.36 0 0 1 0-20.48l31.5392-36.1984a15.36 15.36 0 0 1 11.52-5.12 15.36 15.36 0 0 1 11.52 5.12c19.7632 22.4256 48.9984 46.08 60.672 45.312a15.36 15.36 0 0 1 14.5408 22.3232c-5.12 10.24-17.5616 35.5328-17.7152 35.84a15.36 15.36 0 0 1-13.9264 8.5504z m-65.792-66.56c13.6704 12.6464 35.84 29.7984 56.7808 34.4576l4.5568-9.2672c-18.944-8.448-38.0416-25.6-50.3296-37.7856zM792.6784 538.368a15.36 15.36 0 0 1-12.2368-6.0928c-49.1008-64.6144-108.288-106.9568-175.9744-125.8496a15.36 15.36 0 0 1 8.2944-29.5936c74.2912 20.736 138.9056 66.816 192.1536 136.8576a15.36 15.36 0 0 1-12.2368 24.6784zM525.4656 397.2608a15.36 15.36 0 0 1-3.1232-30.4128 153.6 153.6 0 0 1 27.136-0.5632 15.36 15.36 0 1 1-0.9728 30.72 161.2288 161.2288 0 0 0-20.48 0 14.7968 14.7968 0 0 1-2.56 0.256z" fill="#000F04" p-id="2111"></path></svg>