<?xml version="1.0" standalone="no"?><!DOCTYPE svg PUBLIC "-//W3C//DTD SVG 1.1//EN" "http://www.w3.org/Graphics/SVG/1.1/DTD/svg11.dtd"><svg t="1698930711209" class="icon" viewBox="0 0 1024 1024" version="1.1" xmlns="http://www.w3.org/2000/svg" p-id="1440" xmlns:xlink="http://www.w3.org/1999/xlink" width="200" height="200"><path d="M651.5712 188.5184s89.3952-51.6096 220.16 60.8768 5.12 257.1776 61.9008 306.1248c-52.6336-6.2464-189.44-110.6944-240.0768-245.76-35.9936-84.48-41.984-121.2416-41.984-121.2416z" fill="#BFE5BD" p-id="1441"></path><path d="M920.7296 552.6016c-26.2656-20.48-32.2048-60.2624-49.6128-121.2416s-54.8352-80.9984-99.6864-156.9792c-30.72-51.712-81.2032-78.2848-110.4896-89.9584a71.68 71.68 0 0 0-9.3696 4.096s5.9904 36.7104 41.728 121.1392c47.2576 125.5424 168.2432 224.3584 227.4304 242.944z" fill="#A2DD9E" p-id="1442"></path><path d="M933.376 570.88h-1.8432c-56.32-6.7072-198.0928-111.3088-252.4672-255.3856-13.6704-32.256-24.6272-61.44-32.5632-86.528a51.2 51.2 0 0 1 5.9904-43.776 50.5856 50.5856 0 0 1 37.0176-22.784c40.96-4.4032 105.8816 4.096 184.8832 69.4272a15.36 15.36 0 0 1-19.3536 23.552c-70.7072-58.4704-127.1296-66.56-161.9456-62.5152a19.8144 19.8144 0 0 0-14.6432 9.0112 20.8384 20.8384 0 0 0-2.4064 17.7152c7.68 24.32 18.3296 52.6336 31.6928 84.0704v0.6144c40.96 109.312 138.24 194.048 195.7376 224.256-2.9696-21.1456 1.4848-46.08 6.0416-71.3216 9.4208-52.4288 20.0704-111.9232-20.0192-166.3488a15.36 15.36 0 1 1 24.7296-18.2272c47.9232 65.0752 35.4816 134.3488 25.6 190.0032-7.5264 41.8816-11.3664 68.1984 3.6864 81.2544a15.36 15.36 0 0 1-10.24 26.9824z" fill="#000F04" p-id="1443"></path><path d="M535.3984 211.456S412.2112 334.7968 316.8256 381.4912s-329.8304 220.16-162.6624 459.7248c142.0288 203.6736 444.3136 76.8 512-56.32 55.6544-109.056 63.5392-287.1296 87.8592-389.12s5.5808-195.6352-89.7024-216.1664-128.9216 31.8464-128.9216 31.8464z" fill="#BFE5BD" p-id="1444"></path><path d="M667.5968 180.48c24.7296 59.0848 53.8624 165.9392 7.936 278.4256-69.12 169.2672-50.176 232.8064-154.0096 315.0336-92.16 72.9088-258.304 109.568-392.4992 26.112a386.7648 386.7648 0 0 0 25.1392 40.96c142.0288 203.6736 444.3136 76.8 512-56.32 55.6544-109.056 63.5392-287.1296 87.8592-389.12 24.2176-100.6592 5.9904-193.0752-86.4256-215.0912z" fill="#A2DD9E" p-id="1445"></path><path d="M361.984 963.2768a296.6016 296.6016 0 0 1-40.192-2.6624A256.7168 256.7168 0 0 1 141.568 849.92c-55.552-79.7184-73.472-159.6928-53.248-237.824C127.4368 460.8 291.4816 376.832 310.0672 367.7184c87.808-43.008 202.2912-155.0848 213.5552-166.2464 7.2704-9.8304 47.9744-57.4976 143.9232-36.8128 38.656 8.3456 67.8912 27.9552 87.04 58.2144 26.7776 42.496 31.7952 103.5264 14.4384 176.5376-7.7312 32.4096-13.8752 73.4208-20.48 116.7872-14.0288 93.696-29.952 199.936-68.7104 275.9168a15.36 15.36 0 0 1-27.392-13.9776c36.5056-71.68 52.0192-175.104 65.7408-266.24 6.6048-44.032 12.8512-85.6576 20.8384-119.3472 15.36-63.8464 11.4688-118.1696-10.24-153.0368-14.5408-23.04-37.2224-38.0416-67.4816-44.544-83.968-18.0736-112.64 24.6272-112.64 25.0368a16.64 16.64 0 0 1-2.048 2.56c-5.12 5.12-126.0544 125.696-222.6688 173.0048-62.72 30.72-176.5376 112.64-205.568 224.5632-17.8688 69.0688-1.4336 140.544 48.7424 212.5312a223.8464 223.8464 0 0 0 159.1808 97.792c87.9104 11.8784 193.4336-21.0944 268.9536-83.968a15.36 15.36 0 1 1 19.6608 23.6032c-71.0144 58.5728-166.4 93.184-252.928 93.184z" fill="#000F04" p-id="1446"></path><path d="M668.9792 63.232H727.04s-54.8352 58.5216-56.064 98.4064 11.2128 72.2432-25.6 78.4896-65.3824 0.6144-52.9408-27.4432 26.4704-57.9584 38.2976-87.04 38.2464-62.4128 38.2464-62.4128z" fill="#A2DD9E" p-id="1447"></path><path d="M621.2096 257.792c-19.4048 0-33.0752-5.12-40.96-14.7968-5.12-6.7584-9.8304-18.5856-1.8432-36.5568l11.008-24.576c9.216-20.48 18.7392-41.5232 27.0848-61.9008 12.4928-30.72 39.0144-64.768 40.0896-66.2016a15.36 15.36 0 0 1 12.1344-5.888H727.04a15.36 15.36 0 0 1 11.2128 25.6c-14.1824 15.36-51.2 60.5696-51.9168 88.4224-0.256 8.448 0 16.64 0.512 24.5248 1.3312 27.4432 3.0208 61.44-38.8608 68.6592a167.8848 167.8848 0 0 1-26.7776 2.7136z m-16.128-33.4336c2.6112 1.7408 13.4144 4.7616 37.9904 0.6144 12.9024-2.2016 14.848-4.864 13.312-36.8128-0.4096-8.1408-0.8704-17.3568-0.5632-27.0336 0.8704-27.5456 21.5552-60.2112 38.5536-82.5344h-17.664A287.6416 287.6416 0 0 0 645.12 131.584c-8.5504 20.8896-18.2272 42.2912-27.5456 62.9248-3.7376 8.2432-7.3728 16.4352-10.9568 24.4224a17.4592 17.4592 0 0 0-1.536 5.4272z m0 0.4608zM213.9136 619.52a15.36 15.36 0 0 1-7.7312-2.0992 15.36 15.36 0 0 1-5.4784-21.0432c30.1056-51.2 67.5328-103.7824 136.6528-141.3632 10.8544-5.888 21.6064-12.1344 31.7952-18.4832a15.36 15.36 0 0 1 16.1792 26.112c-10.7008 6.656-21.9136 13.1584-33.3312 19.3536-50.5344 27.4944-86.6816 65.1264-124.8256 129.9968a15.36 15.36 0 0 1-13.2608 7.5264zM425.5232 431.1552a15.36 15.36 0 0 1-9.5744-27.392c6.5024-5.12 9.8304-8.192 9.8816-8.2432a15.36 15.36 0 0 1 20.48 22.6816s-4.096 3.7376-11.4688 9.6256a15.6672 15.6672 0 0 1-9.3184 3.328z" fill="#000F04" p-id="1448"></path></svg>