<?xml version="1.0" standalone="no"?><!DOCTYPE svg PUBLIC "-//W3C//DTD SVG 1.1//EN" "http://www.w3.org/Graphics/SVG/1.1/DTD/svg11.dtd"><svg t="1698930731846" class="icon" viewBox="0 0 1024 1024" version="1.1" xmlns="http://www.w3.org/2000/svg" p-id="1935" xmlns:xlink="http://www.w3.org/1999/xlink" width="200" height="200"><path d="M655.36 789.0432a643.5328 643.5328 0 0 0 113.2544-135.8848c70.5536-105.8816 123.4944-258.2016-111.7696-380.0576 0 0-282.368-220.16-403.968 15.36s-158.72 578.56-31.3344 656.896c75.1104 46.08 210.2784 5.12 333.056-76.8" fill="#F7934F" p-id="1936"></path><path d="M717.3632 309.3504c1.792 91.648-9.3184 295.3728-132.352 411.5968-162.2528 153.1392-315.4432 257.28-424.448 138.5472 12.9536 38.7072 32.9728 68.6592 60.928 85.8624 75.1104 46.08 210.2784 5.12 333.056-76.8L655.36 789.0432a643.5328 643.5328 0 0 0 113.2544-135.8848c63.6928-95.5904 112.9984-229.0688-51.2512-343.808z" fill="#E8823D" p-id="1937"></path><path d="M299.1616 980.224c-31.744 0-60.9792-6.5536-85.76-21.8112-64.6144-39.7312-94.7712-140.544-84.9408-283.7504C137.3184 545.4848 178.688 398.4896 239.2064 281.6 271.36 219.5968 316.672 181.8112 374.4768 168.96c129.4848-28.416 275.0464 79.104 290.56 90.9824 96.6656 50.2784 154.7776 111.0528 172.6976 180.5824 17.0496 66.0992-1.3312 138.24-56.32 220.7232A660.7872 660.7872 0 0 1 665.6 800.3072a15.36 15.36 0 1 1-20.8384-22.528A631.04 631.04 0 0 0 755.4048 645.12l0.3584-0.5632c49.92-74.8544 66.9696-139.0592 52.224-196.3008C792.2688 387.3792 739.0208 332.8 649.728 286.72a11.9808 11.9808 0 0 1-2.4064-1.536c-1.4336-1.1264-146.3296-112.64-266.24-86.016-48.2816 10.752-87.04 43.0592-114.5856 96.3584-116.3776 225.28-156.3136 563.2-36.9664 636.7232 63.8976 39.3216 188.1088 9.3184 316.5184-76.4928a15.36 15.36 0 1 1 17.0496 25.6c-79.7696 53.248-180.3776 98.8672-263.936 98.8672z" fill="#000F04" p-id="1938"></path><path d="M704.512 143.36s-109.824-89.344-130.4064-83.456-64.7168 89.2416-50.0224 163.84 51.968 108.8512 79.4112 118.6304 57.856 8.8064 97.28 0 96.3072-3.4816 106.496 11.8784S869.2224 304.0256 814.08 235.52s-109.568-92.16-109.568-92.16z" fill="#BFE5BD" p-id="1939"></path><path d="M603.4944 342.272c27.4432 9.8304 57.856 8.8064 97.28 0s96.3072-3.4816 106.496 11.8784c7.5776 11.4176 38.4-22.1184 30.72-68.352-26.3168-20.7872-157.7472 0-157.7472 0s-49.3568-5.12-75.8272-33.5872c-32.8192-14.6944-52.992-167.8848-53.0432-168.1408-19.0464 31.2832-37.4272 87.552-27.1872 139.5712 14.592 74.496 51.8656 108.8512 79.3088 118.6304z" fill="#A2DD9E" p-id="1940"></path><path d="M811.2128 371.7632a20.1216 20.1216 0 0 1-16.9472-9.1136c-6.4512-6.7584-52.6336-13.8752-90.3168-5.12-44.1856 9.9328-76.8 9.7792-105.6256-0.512-16.0256-5.7344-69.9392-32.1024-89.2928-130.1504-15.36-76.8 28.0576-172.0832 60.8256-181.4528 10.24-2.9184 25.1392-2.048 86.1184 41.728 26.368 18.944 50.3808 38.144 56.6784 43.2128 11.008 5.12 62.3616 31.5904 113.664 95.6928 41.5232 51.9168 26.1632 99.6864 20.48 113.1008-6.3488 14.8992-18.4832 31.3856-33.536 32.768zM742.7072 322.56c26.9824 0 54.4768 4.5056 69.376 15.36a55.3984 55.3984 0 0 0 10.24-23.296c3.328-16.1792 2.56-41.3696-19.968-69.5808-51.5072-64.3584-103.3728-87.3984-103.8848-87.6544a17.408 17.408 0 0 1-3.6352-2.1504c-45.1072-36.7104-101.8368-76.8-117.3504-79.9744-13.4656 8.8576-51.2 80.3328-38.2464 145.4592S583.68 318.8224 608.6656 327.68c23.3472 8.3456 49.8176 8.192 88.5248-0.5632a216.0128 216.0128 0 0 1 45.5168-4.5568z" fill="#000F04" p-id="1941"></path><path d="M737.8432 76.8S632.9344 107.9808 614.4 185.3952s-40.96 136.2432-15.6672 154.88 83.3024-37.2224 124.4672-54.8864 102.9632-48.0256 146.1248-40.96c16.64 3.9424 19.6096-36.2496-11.776-78.4384S787.6096 54.1696 737.8432 76.8z" fill="#BFE5BD" p-id="1942"></path><path d="M869.2224 244.224c16.64 3.9424 19.6096-36.2496-11.776-78.4384-2.816-3.7888-5.7344-7.7824-8.6528-11.9808-54.9376 4.4032-168.3456 32.256-256.9216 178.6368a23.6544 23.6544 0 0 0 6.7584 7.8336c25.6 18.688 83.3024-37.2224 124.4672-54.8864s102.9632-48.0256 146.1248-41.1648z" fill="#A2DD9E" p-id="1943"></path><path d="M610.9696 359.5776a35.072 35.072 0 0 1-21.4528-6.912c-29.0304-21.248-17.2032-66.56-0.768-129.1776 3.4816-13.312 7.1168-27.0848 10.5984-41.6768 19.6608-81.92 121.2416-115.9168 133.12-119.6544 53.9648-23.4496 94.5152 34.048 124.16 76.0832 4.5056 6.4 8.9088 12.6464 13.1072 18.3296 25.2416 33.8944 34.2016 72.704 21.3504 92.16a23.2448 23.2448 0 0 1-24.6784 10.24c-33.792-5.12-84.992 17.3056-122.368 33.7408l-14.848 6.4512a321.4336 321.4336 0 0 0-43.3152 25.6c-27.0336 17.8688-52.9408 34.816-74.9056 34.816zM742.4 91.2896c-1.3824 0.4096-96.768 30.0544-112.9984 97.6896-3.584 14.8992-7.2704 28.8256-10.8032 42.2912-11.264 43.1104-22.9888 87.7056-10.752 96.6144 8.2944 6.0416 42.8032-16.4864 61.44-28.6208a345.344 345.344 0 0 1 47.7696-27.904l14.6432-6.4c41.472-18.176 92.6208-40.6016 134.4-36.5568 0.5632-8.5504-2.6624-28.7744-20.992-53.4016-4.4032-5.888-8.9088-12.3392-13.6192-18.9952-31.744-45.0048-58.3168-78.4384-87.3472-65.3824a14.2848 14.2848 0 0 1-1.7408 0.6656z m-4.5568-14.4896zM239.1552 644.5568a14.592 14.592 0 0 1-3.2768-0.3584 15.36 15.36 0 0 1-11.776-18.2272A1405.7472 1405.7472 0 0 1 276.48 439.6032a15.36 15.36 0 1 1 28.8256 10.5472 1377.8432 1377.8432 0 0 0-51.2 182.272 15.36 15.36 0 0 1-14.9504 12.1344zM312.7296 406.3232a15.36 15.36 0 0 1-13.9776-21.8112c6.9632-15.0016 11.264-22.3232 11.4176-22.6304a15.36 15.36 0 0 1 26.5216 15.36s-3.84 6.5536-10.24 19.968a15.36 15.36 0 0 1-13.7216 9.1136z" fill="#000F04" p-id="1944"></path></svg>