<?xml version="1.0" standalone="no"?><!DOCTYPE svg PUBLIC "-//W3C//DTD SVG 1.1//EN" "http://www.w3.org/Graphics/SVG/1.1/DTD/svg11.dtd"><svg t="1698930694142" class="icon" viewBox="0 0 1024 1024" version="1.1" xmlns="http://www.w3.org/2000/svg" p-id="1273" xmlns:xlink="http://www.w3.org/1999/xlink" width="200" height="200"><path d="M235.52 276.7872S88.8832 356.9664 88.8832 527.36 187.392 856.8832 409.6 880.64s436.1728 2.2528 497.6128-166.0416S931.84 391.8336 855.04 316.0064 338.5856 220.6208 235.52 276.7872z" fill="#D884BA" p-id="1274"></path><path d="M415.6928 791.8592c-347.0336-118.2208-258.816-398.848-258.816-398.848l-13.9264-30.976A277.4528 277.4528 0 0 0 88.8832 527.36c0 170.3936 98.5088 329.5232 320.7168 353.28 178.5344 18.8928 351.5904 8.8064 444.672-83.0976-139.6736 56.1152-319.5904 34.816-438.5792-5.6832z" fill="#C462A6" p-id="1275"></path><path d="M548.6592 903.7312a1337.7536 1337.7536 0 0 1-140.6976-8.0384c-107.52-11.3664-195.2256-55.296-253.952-127.0272C101.376 704.3584 73.5232 620.9024 73.5232 527.36c0-177.4592 148.1216-260.5568 154.4192-264.0384 61.44-33.4848 215.04-37.9904 327.68-31.744 58.4704 3.2256 253.5936 18.1248 309.9136 73.472 75.9296 74.6496 122.88 231.8336 55.9616 414.72-44.8512 123.2384-167.424 183.9616-372.8384 183.9616zM242.688 290.304c-2.0992 1.1264-138.24 78.592-138.24 237.056 0 147.6096 80.64 313.8048 307.2 337.92 275.0976 29.1328 432.5888-21.8624 481.536-156.0064 62.0544-169.9328 20.48-314.4192-48.5888-382.1568-31.8464-31.2832-145.7152-56.6784-290.0992-64.7168-141.4144-7.9872-266.5472 3.2768-311.808 27.904z" fill="#000F04" p-id="1276"></path><path d="M368.64 185.2928S207.872 238.9504 166.0416 357.888s30.0544 233.984 155.5456 254.8736 354.2528 19.6096 435.2-26.1632 154.2656-135.68 109.824-258.048-196.864-150.4768-281.088-164.1472C484.9664 148.0192 368.64 185.2928 368.64 185.2928z" fill="#EFA3D4" p-id="1277"></path><path d="M760.4736 599.9104a15.36 15.36 0 0 1-7.7312-28.6208 218.8288 218.8288 0 0 0 16.0768-10.24 15.36 15.36 0 1 1 17.2032 25.6c-5.7856 3.8912-11.7248 7.68-17.8176 11.1616a15.0016 15.0016 0 0 1-7.7312 2.0992z" fill="#000F04" p-id="1278"></path><path d="M512.6144 642.8672a1230.6944 1230.6944 0 0 1-193.536-14.9504c-65.792-10.9568-121.5488-47.6672-152.8832-100.5568-30.72-51.968-35.84-113.92-14.6432-174.3872 43.776-124.5696 205.3632-179.7632 212.224-182.016 5.12-1.6384 121.1904-38.2976 224.3072-21.504 73.1136 11.8272 244.224 39.6288 293.0688 174.08 33.28 91.6992 2.6112 160.3584-29.0304 201.8816a15.36 15.36 0 0 1-24.4224-18.6368c26.9824-35.7376 52.9408-94.3104 24.576-172.9536-42.7008-117.76-195.584-142.336-269.1072-154.2656-95.8976-15.36-208.6912 20.0192-209.92 20.48S219.2896 252.672 180.5312 362.9568c-18.2272 51.7632-13.9264 104.5504 12.0832 148.48 26.7264 45.2096 74.6496 76.8 131.4816 86.0672 111.4624 18.5856 281.6 22.6304 376.9856-6.5024a15.36 15.36 0 0 1 8.96 29.3888c-51.7632 15.872-123.9552 22.4768-197.4272 22.4768z" fill="#000F04" p-id="1279"></path><path d="M337.2544 266.24s-56.32 11.776-75.8272 82.3808 41.8304 139.8784 135.9872 135.936 196.0448 3.9424 230.0416-44.4416 103.2704-87.5008 86.272-141.1072-78.3872-99.328-138.5472-100.6592-92.8256-26.2144-103.2704-57.4976-52.3776-30.976-58.2144 32.8704S353.7408 260.096 337.2544 266.24z" fill="#F7D5B0" p-id="1280"></path><path d="M389.7856 500.1728c-50.4832 0-94.6176-19.4048-122.0096-53.9648a113.3056 113.3056 0 0 1-21.1456-101.632C266.9568 271.36 322.816 254.1568 332.8 251.648c27.8528-10.752 61.44-33.2288 65.6896-79.3088 5.12-57.856 35.84-65.8432 45.2608-66.9184 18.8416-2.1504 35.84 10.24 42.8544 30.72 9.6256 28.8768 42.0864 46.08 89.0368 47.0528 66.56 1.4336 133.5296 50.3296 152.832 111.36 14.592 46.08-20.9408 81.92-52.3264 114.0736a343.04 343.04 0 0 0-35.84 40.5504C610.1504 491.52 542.72 496.64 464.5888 498.3296h-0.3584a15.36 15.36 0 0 1-0.3584-30.72c67.2768-1.536 129.4336-5.4784 151.04-36.2496a364.1856 364.1856 0 0 1 39.2704-44.4416c33.536-34.1504 53.2992-56.7808 44.9536-83.2512-15.36-48.4352-71.1168-88.7808-124.3136-89.9584-60.6208-1.28-103.4752-26.0608-117.4528-67.9936-2.1504-6.2976-6.1952-10.24-10.24-9.7792-5.9392 0.6656-15.6672 11.6736-18.176 39.2192-4.4544 48.64-35.1232 86.1184-86.272 105.5744a19.5072 19.5072 0 0 1-2.304 0.6656c-1.792 0.2048-47.4624 11.3664-63.8976 71.424a81.92 81.92 0 0 0 15.36 74.2912C314.5728 455.68 352.8704 471.04 396.7488 469.2992h3.6352a15.36 15.36 0 0 1 1.28 30.72h-3.584q-4.1472 0.1536-8.2944 0.1536z" fill="#000F04" p-id="1281"></path></svg>