<?xml version="1.0" standalone="no"?><!DOCTYPE svg PUBLIC "-//W3C//DTD SVG 1.1//EN" "http://www.w3.org/Graphics/SVG/1.1/DTD/svg11.dtd"><svg t="1698930716052" class="icon" viewBox="0 0 1024 1024" version="1.1" xmlns="http://www.w3.org/2000/svg" p-id="1607" xmlns:xlink="http://www.w3.org/1999/xlink" width="200" height="200"><path d="M486.7072 277.6576c-114.176 2.0992-280.4224 23.808-315.6992 312.32-21.6064 201.5744 119.6032 296.2944 157.8496 305.9712 34.304 47.0016 246.6304 88.7808 370.1248 16.0768s231.7312-237.056 149.504-480.0512C792.8832 281.6 608.256 275.4048 486.7072 277.6576z" fill="#FFB85A" p-id="1608"></path><path d="M848.4864 431.7184a199.68 199.68 0 0 0-81.4592-100.9664c16.9984 100.6592 45.2608 363.776-97.9968 477.0816C490.0864 949.4528 348.5184 885.76 309.76 887.808a91.7504 91.7504 0 0 0 19.0976 7.8848c34.304 47.0016 246.6304 88.7808 370.1248 16.0768s231.7312-237.056 149.504-480.0512z" fill="#FCA53D" p-id="1609"></path><path d="M878.5408 476.16a271.36 271.36 0 0 0-157.44-184.32C648.0896 261.888 568.32 260.7616 486.4 262.2976c-87.04 1.6384-291.4304 5.4272-330.7008 325.7856-21.248 198.656 109.7728 302.8992 164.2496 321.024 26.7264 29.5424 97.8944 48.7424 158.976 54.784 17.0496 1.6896 33.8944 2.56 50.432 2.56 68.7104 0 131.584-14.4384 177.4592-41.4208 53.4528-31.488 101.3248-82.3296 134.7072-143.36a15.36 15.36 0 0 0-26.9312-14.7968c-30.72 56.32-74.5984 102.7584-123.392 131.4816-117.248 69.0176-321.1776 27.3408-349.952-11.8784-54.528-75.7248-68.1984-172.8-43.3664-305.2544a239.5136 239.5136 0 0 1 52.5312-110.6432 15.36 15.36 0 0 0-23.6032-19.6608 269.7216 269.7216 0 0 0-59.136 124.672c-21.1456 112.64-14.6944 204.8 19.8144 279.5008-50.7392-40.1408-115.9168-126.6176-101.2736-263.5264 35.84-293.632 215.04-296.96 300.7488-298.5472 78.6944-1.4336 154.9312-0.4608 222.464 27.2384a240.1792 240.1792 0 0 1 139.3664 163.3792 389.5808 389.5808 0 0 1 3.7888 182.7328 15.36 15.36 0 1 0 29.952 6.656 419.5328 419.5328 0 0 0-3.9936-196.864z" fill="#000F04" p-id="1610"></path><path d="M593.3056 278.4768s-40.6016-23.3984-56.32-88.7808S362.5984-9.0112 168.96 166.1952c81.92-3.9424 156.4672 39.2192 176.0768 78.4384s87.6032 124.3136 237.9264 85.6576c14.1824-23.0912 10.3424-51.8144 10.3424-51.8144z" fill="#BFE5BD" p-id="1611"></path><path d="M587.9808 284.8256c-57.3952 5.6832-109.7728-40.192-196.0448-128-52.992-53.76-139.3664-34.6112-198.2464-11.8272-8.2432 6.656-16.5376 13.7216-24.7296 21.1968 81.92-3.9424 156.4672 39.2192 176.0768 78.4384s85.9648 122.0608 232.3456 87.04c2.8672-14.2336 6.2976-30.0544 10.5984-46.848z" fill="#A2DD9E" p-id="1612"></path><path d="M509.696 355.584C390.2464 355.584 340.992 271.36 331.1104 251.4944c-15.36-31.0272-81.92-73.7792-161.5872-69.9904a15.36 15.36 0 0 1-14.9504-9.472 15.36 15.36 0 0 1 4.1472-17.2544C256 66.56 340.9408 58.1632 395.1616 66.56a15.36 15.36 0 1 1-4.6592 30.3616c-58.4704-8.96-120.4224 10.24-180.992 55.552C280.576 161.2288 339.6096 199.68 358.4 237.7216c10.24 19.6096 65.8432 114.3296 214.1184 79.3088A72.8064 72.8064 0 0 0 578.56 286.72c-13.7216-10.5984-43.2128-38.8096-56.32-93.4912-5.12-21.9136-31.9488-55.3472-72.704-76.8a15.36 15.36 0 1 1 14.336-27.136c51.2 27.136 81.3568 68.1984 88.2176 96.8704 13.7728 57.4464 47.7184 78.2336 49.152 79.104a15.36 15.36 0 0 1 7.3216 11.2128c0 1.4336 4.352 34.7136-12.8 62.0544a15.36 15.36 0 0 1-9.1648 6.7072 309.9136 309.9136 0 0 1-76.9024 10.3424z" fill="#000F04" p-id="1613"></path><path d="M592.5888 199.68l76.4416 34.6112s-48.3328 81.0496-47.7184 124.8768c-21.5552 16.3328-56.832 9.7792-56.832 9.7792S552.0384 235.52 592.5888 199.68z" fill="#CF9782" p-id="1614"></path><path d="M689.5616 319.3344a15.36 15.36 0 0 0-21.7088 0.256 130.048 130.048 0 0 1-28.6208 20.1728c7.8336-33.7408 32.3584-79.9232 43.008-97.7408a15.36 15.36 0 0 0-6.8608-21.8624L599.04 185.5488a15.36 15.36 0 0 0-16.5376 2.4576c-37.632 33.3824-36.5056 128-34.3552 166.656l-3.9936-0.7168c-40.192-7.936-92.672 3.9936-140.3392 31.9488a15.36 15.36 0 0 0 7.68 28.8256 15.36 15.36 0 0 0 7.7312-2.0992C460.8 388.1472 505.0368 377.5488 538.112 384a173.1072 173.1072 0 0 0 151.7568-43.0592 15.36 15.36 0 0 0-0.3072-21.6064z m-92.8768-101.12l50.688 22.9888c-13.4144 24.576-37.632 73.0112-40.96 108.9024a64.4608 64.4608 0 0 1-27.5456 4.608c-2.816-44.8 0.0512-109.3632 17.8176-136.4992z" fill="#000F04" p-id="1615"></path></svg>