<?xml version="1.0" standalone="no"?><!DOCTYPE svg PUBLIC "-//W3C//DTD SVG 1.1//EN" "http://www.w3.org/Graphics/SVG/1.1/DTD/svg11.dtd"><svg t="1702216919496" class="icon" viewBox="0 0 1024 1024" version="1.1" xmlns="http://www.w3.org/2000/svg" p-id="5554" xmlns:xlink="http://www.w3.org/1999/xlink" width="200" height="200"><path d="M72.32 388.16s-115.04-141.44-33.76-220.96l178.56 46.24-21.76 51.04z" fill="#DE7B16" p-id="5555"></path><path d="M1024 875.04l-14.56 13.28-116.48-50.88v-225.6l-14.56-7.52 14.56-13.28L1024 628.64V875.04z" fill="#B05D21" p-id="5556"></path><path d="M1009.44 888.32l-131.04-37.6v-246.4l131.04 37.76v246.24z" fill="#F29219" p-id="5557"></path><path d="M658.24 568h68v259.68h-68z" fill="#B05D21" p-id="5558"></path><path d="M947.52 753.28v68H720.64v-68z" fill="#B05D21" p-id="5559"></path><path d="M947.68 759.68v68H720.8v-68zM652.8 568h68v259.68H652.8z" fill="#DE7B16" p-id="5560"></path><path d="M258.4 642.08s635.84 29.12 736-316.32c3.84-13.6-6.24-46.4-20.32-44.8L448 267.36z" fill="#DE7B16" p-id="5561"></path><path d="M618.72 522.88h135.84v57.6A19.04 19.04 0 0 1 736 599.52h-116.8v-76.64h-0.48z" fill="#DE7B16" p-id="5562"></path><path d="M28.64 454.72a203.84 176.64 90 1 0 353.28 0 203.84 176.64 90 1 0-353.28 0Z" fill="#FFFFFF" p-id="5563"></path><path d="M42.88 454.72a187.36 162.4 90 1 0 324.8 0 187.36 162.4 90 1 0-324.8 0Z" fill="#B05D21" p-id="5564"></path><path d="M109.6 448.32a105.92 91.68 90 1 0 183.36 0 105.92 91.68 90 1 0-183.36 0Z" fill="#FFFFFF" p-id="5565"></path><path d="M38.56 167.2s185.6 83.84 304 242.08c98.08 131.36 477.6 27.36 635.68-66.4a73.28 73.28 0 0 0 18.56-110.08l-56.16-66.72a112 112 0 0 0-91.2-39.68z" fill="#F29219" p-id="5566"></path><path d="M163.04 448.32a44.16 38.24 90 1 0 76.48 0 44.16 38.24 90 1 0-76.48 0Z" fill="#B05D21" p-id="5567"></path><path d="M593.76 338.4c-43.2 0-73.28-1.76-77.44-2.08a16 16 0 0 1 2.08-32c3.36 0 342.08 20 427.68-76.64a16 16 0 1 1 23.84 21.12c-68.8 78.08-265.92 89.6-376.16 89.6z" fill="#FFFFFF" p-id="5568"></path></svg>